<?xml version="1.0" encoding="UTF-8" standalone="no"?>
<!DOCTYPE svg PUBLIC "-//W3C//DTD SVG 1.1//EN"
 "http://www.w3.org/Graphics/SVG/1.1/DTD/svg11.dtd">
<!-- Generated by graphviz version 2.43.0 (0)
 -->
<!-- Title: classes_generated_ragger_architecture Pages: 1 -->
<svg width="3630pt" height="878pt"
 viewBox="0.00 0.00 3629.50 878.00" xmlns="http://www.w3.org/2000/svg" xmlns:xlink="http://www.w3.org/1999/xlink">
<g id="graph0" class="graph" transform="scale(1 1) rotate(0) translate(4 874)">
<title>classes_generated_ragger_architecture</title>
<polygon fill="white" stroke="transparent" points="-4,4 -4,-874 3625.5,-874 3625.5,4 -4,4"/>
<!-- ragger.bip.utils.BIP -->
<g id="node1" class="node">
<title>ragger.bip.utils.BIP</title>
<polygon fill="aquamarine" stroke="aquamarine" points="905.5,-38 905.5,-107 961.5,-107 961.5,-38 905.5,-38"/>
<text text-anchor="middle" x="933.5" y="-91.8" font-family="Times,serif" font-size="14.00">BIP</text>
<polyline fill="none" stroke="aquamarine" points="905.5,-84 961.5,-84 "/>
<text text-anchor="start" x="913.5" y="-68.8" font-family="Times,serif" font-size="14.00">name</text>
<polyline fill="none" stroke="aquamarine" points="905.5,-61 961.5,-61 "/>
<text text-anchor="middle" x="933.5" y="-45.8" font-family="Times,serif" font-size="14.00"> </text>
</g>
<!-- ragger.bip.coins.BUContainer -->
<g id="node2" class="node">
<title>ragger.bip.coins.BUContainer</title>
<polygon fill="aquamarine" stroke="aquamarine" points="980,-30.5 980,-114.5 1157,-114.5 1157,-30.5 980,-30.5"/>
<text text-anchor="middle" x="1068.5" y="-99.3" font-family="Times,serif" font-size="14.00">BUContainer</text>
<polyline fill="none" stroke="aquamarine" points="980,-91.5 1157,-91.5 "/>
<text text-anchor="start" x="988" y="-76.3" font-family="Times,serif" font-size="14.00">coin : _SpecialForm</text>
<text text-anchor="start" x="988" y="-61.3" font-family="Times,serif" font-size="14.00">key_cls : _SpecialForm</text>
<polyline fill="none" stroke="aquamarine" points="980,-53.5 1157,-53.5 "/>
<text text-anchor="middle" x="1068.5" y="-38.3" font-family="Times,serif" font-size="14.00"> </text>
</g>
<!-- ragger.backend.interface.BackendInterface -->
<g id="node3" class="node">
<title>ragger.backend.interface.BackendInterface</title>
<polygon fill="antiquewhite" stroke="antiquewhite" points="546,-438.5 546,-717.5 1217,-717.5 1217,-438.5 546,-438.5"/>
<text text-anchor="middle" x="881.5" y="-702.3" font-family="Times,serif" font-size="14.00">BackendInterface</text>
<polyline fill="none" stroke="antiquewhite" points="546,-694.5 1217,-694.5 "/>
<text text-anchor="start" x="554" y="-679.3" font-family="Times,serif" font-size="14.00">firmware</text>
<text text-anchor="start" x="554" y="-664.3" font-family="Times,serif" font-size="14.00">last_async_response</text>
<text text-anchor="start" x="554" y="-649.3" font-family="Times,serif" font-size="14.00">raise_policy : RAISE_ALL_BUT_0x9000</text>
<polyline fill="none" stroke="antiquewhite" points="546,-641.5 1217,-641.5 "/>
<text text-anchor="start" x="554" y="-626.3" font-family="Times,serif" font-size="14.00">both_click(): None</text>
<text text-anchor="start" x="554" y="-611.3" font-family="Times,serif" font-size="14.00">compare_screen_with_snapshot(snap_path: Path, crop: Optional[Crop]): bool</text>
<text text-anchor="start" x="554" y="-596.3" font-family="Times,serif" font-size="14.00">exchange(cla: int, ins: int, p1: int, p2: int, data: bytes): RAPDU</text>
<text text-anchor="start" x="554" y="-581.3" font-family="Times,serif" font-size="14.00">exchange_async(cla: int, ins: int, p1: int, p2: int, data: bytes): Generator[None, None, None]</text>
<text text-anchor="start" x="554" y="-566.3" font-family="Times,serif" font-size="14.00">exchange_async_raw(data: bytes): Generator[None, None, None]</text>
<text text-anchor="start" x="554" y="-551.3" font-family="Times,serif" font-size="14.00">exchange_raw(data: bytes): RAPDU</text>
<text text-anchor="start" x="554" y="-536.3" font-family="Times,serif" font-size="14.00">is_raise_required(rapdu: RAPDU): bool</text>
<text text-anchor="start" x="554" y="-521.3" font-family="Times,serif" font-size="14.00">left_click(): None</text>
<text text-anchor="start" x="554" y="-506.3" font-family="Times,serif" font-size="14.00">receive(): RAPDU</text>
<text text-anchor="start" x="554" y="-491.3" font-family="Times,serif" font-size="14.00">right_click(): None</text>
<text text-anchor="start" x="554" y="-476.3" font-family="Times,serif" font-size="14.00">save_screen_snapshot(snap_path: Path)</text>
<text text-anchor="start" x="554" y="-461.3" font-family="Times,serif" font-size="14.00">send(cla: int, ins: int, p1: int, p2: int, data: bytes): None</text>
<text text-anchor="start" x="554" y="-446.3" font-family="Times,serif" font-size="14.00">send_raw(data: bytes): None</text>
</g>
<!-- ragger.navigator.navigator.Navigator -->
<g id="node18" class="node">
<title>ragger.navigator.navigator.Navigator</title>
<polygon fill="cadetblue" stroke="cadetblue" points="0,-769.5 0,-869.5 1763,-869.5 1763,-769.5 0,-769.5"/>
<text text-anchor="middle" x="881.5" y="-854.3" font-family="Times,serif" font-size="14.00">Navigator</text>
<polyline fill="none" stroke="cadetblue" points="0,-846.5 1763,-846.5 "/>
<polyline fill="none" stroke="cadetblue" points="0,-822.5 1763,-822.5 "/>
<text text-anchor="start" x="8" y="-807.3" font-family="Times,serif" font-size="14.00">navigate(instructions: List[NavIns])</text>
<text text-anchor="start" x="8" y="-792.3" font-family="Times,serif" font-size="14.00">navigate_and_compare(path: Path, test_case_name: Path, instructions: List[NavIns], first_instruction_wait: float, middle_instruction_wait: float, last_instruction_wait: float): None</text>
<text text-anchor="start" x="8" y="-777.3" font-family="Times,serif" font-size="14.00">navigate_until_snap(navigate_instruction: NavIns, validation_instruction: NavIns, path: Path, test_case_name: Path, start_img_name: str, last_img_name: str, take_snaps: bool, timeout: int, crop_first: Optional[Crop], crop_last: Optional[Crop]): int</text>
</g>
<!-- ragger.backend.interface.BackendInterface&#45;&gt;ragger.navigator.navigator.Navigator -->
<g id="edge9" class="edge">
<title>ragger.backend.interface.BackendInterface&#45;&gt;ragger.navigator.navigator.Navigator</title>
<path fill="none" stroke="black" d="M881.5,-717.62C881.5,-731.51 881.5,-745.05 881.5,-757.47"/>
<polygon fill="black" stroke="black" points="881.5,-757.49 885.5,-763.49 881.5,-769.49 877.5,-763.49 881.5,-757.49"/>
<text text-anchor="middle" x="915" y="-739.8" font-family="Times,serif" font-size="14.00" fill="green">_backend</text>
</g>
<!-- ragger.utils.path.BtcDerivationPathFormat -->
<g id="node4" class="node">
<title>ragger.utils.path.BtcDerivationPathFormat</title>
<polygon fill="chartreuse" stroke="chartreuse" points="1294.5,-38 1294.5,-107 1494.5,-107 1494.5,-38 1294.5,-38"/>
<text text-anchor="middle" x="1394.5" y="-91.8" font-family="Times,serif" font-size="14.00">BtcDerivationPathFormat</text>
<polyline fill="none" stroke="chartreuse" points="1294.5,-84 1494.5,-84 "/>
<text text-anchor="start" x="1302.5" y="-68.8" font-family="Times,serif" font-size="14.00">name</text>
<polyline fill="none" stroke="chartreuse" points="1294.5,-61 1494.5,-61 "/>
<text text-anchor="middle" x="1394.5" y="-45.8" font-family="Times,serif" font-size="14.00"> </text>
</g>
<!-- ragger.bip.coins.Coin -->
<g id="node5" class="node">
<title>ragger.bip.coins.Coin</title>
<polygon fill="aquamarine" stroke="aquamarine" points="1513,-30.5 1513,-114.5 1860,-114.5 1860,-30.5 1513,-30.5"/>
<text text-anchor="middle" x="1686.5" y="-99.3" font-family="Times,serif" font-size="14.00">Coin</text>
<polyline fill="none" stroke="aquamarine" points="1513,-91.5 1860,-91.5 "/>
<text text-anchor="start" x="1521" y="-76.3" font-family="Times,serif" font-size="14.00">bips : Dict[BIP, BUContainer]</text>
<text text-anchor="start" x="1521" y="-61.3" font-family="Times,serif" font-size="14.00">encodings : Union[Callable, Dict[str, Callable]]</text>
<polyline fill="none" stroke="aquamarine" points="1513,-53.5 1860,-53.5 "/>
<text text-anchor="start" x="1521" y="-38.3" font-family="Times,serif" font-size="14.00">from_type(coin_type: int): &#39;Coin&#39;</text>
</g>
<!-- ragger.utils.structs.Crop -->
<g id="node6" class="node">
<title>ragger.utils.structs.Crop</title>
<polygon fill="chartreuse" stroke="chartreuse" points="1877.5,-15.5 1877.5,-129.5 1969.5,-129.5 1969.5,-15.5 1877.5,-15.5"/>
<text text-anchor="middle" x="1923.5" y="-114.3" font-family="Times,serif" font-size="14.00">Crop</text>
<polyline fill="none" stroke="chartreuse" points="1877.5,-106.5 1969.5,-106.5 "/>
<text text-anchor="start" x="1885.5" y="-91.3" font-family="Times,serif" font-size="14.00">left : int</text>
<text text-anchor="start" x="1885.5" y="-76.3" font-family="Times,serif" font-size="14.00">lower : int</text>
<text text-anchor="start" x="1885.5" y="-61.3" font-family="Times,serif" font-size="14.00">right : int</text>
<text text-anchor="start" x="1885.5" y="-46.3" font-family="Times,serif" font-size="14.00">upper : int</text>
<polyline fill="none" stroke="chartreuse" points="1877.5,-38.5 1969.5,-38.5 "/>
<text text-anchor="middle" x="1923.5" y="-23.3" font-family="Times,serif" font-size="14.00"> </text>
</g>
<!-- ragger.error.ExceptionRAPDU -->
<g id="node7" class="node">
<title>ragger.error.ExceptionRAPDU</title>
<polygon fill="aliceblue" stroke="aliceblue" points="1988,-30.5 1988,-114.5 2129,-114.5 2129,-30.5 1988,-30.5"/>
<text text-anchor="middle" x="2058.5" y="-99.3" font-family="Times,serif" font-size="14.00" fill="red">ExceptionRAPDU</text>
<polyline fill="none" stroke="aliceblue" points="1988,-91.5 2129,-91.5 "/>
<text text-anchor="start" x="1996" y="-76.3" font-family="Times,serif" font-size="14.00" fill="red">data : bytes</text>
<text text-anchor="start" x="1996" y="-61.3" font-family="Times,serif" font-size="14.00" fill="red">status : int</text>
<polyline fill="none" stroke="aliceblue" points="1988,-53.5 2129,-53.5 "/>
<text text-anchor="middle" x="2058.5" y="-38.3" font-family="Times,serif" font-size="14.00" fill="red"> </text>
</g>
<!-- ragger.bip.path.ExtendedBip32Path -->
<g id="node8" class="node">
<title>ragger.bip.path.ExtendedBip32Path</title>
<polygon fill="aquamarine" stroke="aquamarine" points="2147.5,-0.5 2147.5,-144.5 2353.5,-144.5 2353.5,-0.5 2147.5,-0.5"/>
<text text-anchor="middle" x="2250.5" y="-129.3" font-family="Times,serif" font-size="14.00">ExtendedBip32Path</text>
<polyline fill="none" stroke="aquamarine" points="2147.5,-121.5 2353.5,-121.5 "/>
<text text-anchor="start" x="2155.5" y="-106.3" font-family="Times,serif" font-size="14.00">Bip32PathArgs : Sequence</text>
<text text-anchor="start" x="2155.5" y="-91.3" font-family="Times,serif" font-size="14.00">account</text>
<text text-anchor="start" x="2155.5" y="-76.3" font-family="Times,serif" font-size="14.00">address_index</text>
<text text-anchor="start" x="2155.5" y="-61.3" font-family="Times,serif" font-size="14.00">change</text>
<text text-anchor="start" x="2155.5" y="-46.3" font-family="Times,serif" font-size="14.00">coin_type</text>
<text text-anchor="start" x="2155.5" y="-31.3" font-family="Times,serif" font-size="14.00">purpose</text>
<polyline fill="none" stroke="aquamarine" points="2147.5,-23.5 2353.5,-23.5 "/>
<text text-anchor="middle" x="2250.5" y="-8.3" font-family="Times,serif" font-size="14.00"> </text>
</g>
<!-- ragger.firmware.structs.Firmware -->
<g id="node9" class="node">
<title>ragger.firmware.structs.Firmware</title>
<polygon fill="burlywood" stroke="burlywood" points="263.5,-256.5 263.5,-326.5 349.5,-326.5 349.5,-256.5 263.5,-256.5"/>
<text text-anchor="middle" x="306.5" y="-311.3" font-family="Times,serif" font-size="14.00">Firmware</text>
<polyline fill="none" stroke="burlywood" points="263.5,-303.5 349.5,-303.5 "/>
<polyline fill="none" stroke="burlywood" points="263.5,-279.5 349.5,-279.5 "/>
<text text-anchor="middle" x="306.5" y="-264.3" font-family="Times,serif" font-size="14.00"> </text>
</g>
<!-- ragger.firmware.structs.Firmware&#45;&gt;ragger.backend.interface.BackendInterface -->
<g id="edge10" class="edge">
<title>ragger.firmware.structs.Firmware&#45;&gt;ragger.backend.interface.BackendInterface</title>
<path fill="none" stroke="black" d="M317.68,-326.69C325.96,-346.94 339.18,-371.58 358.5,-387 419.94,-436.02 455.4,-413.53 534.27,-437.48"/>
<polygon fill="black" stroke="black" points="534.28,-437.49 541.22,-435.53 545.7,-441.18 538.76,-443.14 534.28,-437.49"/>
<text text-anchor="middle" x="466.5" y="-408.8" font-family="Times,serif" font-size="14.00" fill="green">_firmware</text>
</g>
<!-- ragger.firmware.structs.Firmware&#45;&gt;ragger.navigator.navigator.Navigator -->
<g id="edge11" class="edge">
<title>ragger.firmware.structs.Firmware&#45;&gt;ragger.navigator.navigator.Navigator</title>
<path fill="none" stroke="black" d="M275.91,-326.62C253.19,-354.4 224.06,-395.78 211.5,-438 176.01,-557.28 130.29,-623.7 211.5,-718 228.21,-737.41 258.63,-753.12 297.61,-765.84"/>
<polygon fill="black" stroke="black" points="297.66,-765.85 304.58,-763.82 309.11,-769.43 302.19,-771.46 297.66,-765.85"/>
<text text-anchor="middle" x="247.5" y="-574.3" font-family="Times,serif" font-size="14.00" fill="green">_firmware</text>
</g>
<!-- ragger.firmware.structs._Firmware -->
<g id="node24" class="node">
<title>ragger.firmware.structs._Firmware</title>
<polygon fill="burlywood" stroke="burlywood" points="293,-528.5 293,-627.5 528,-627.5 528,-528.5 293,-528.5"/>
<text text-anchor="middle" x="410.5" y="-612.3" font-family="Times,serif" font-size="14.00">_Firmware</text>
<polyline fill="none" stroke="burlywood" points="293,-604.5 528,-604.5 "/>
<text text-anchor="start" x="301" y="-589.3" font-family="Times,serif" font-size="14.00">device : str</text>
<text text-anchor="start" x="301" y="-574.3" font-family="Times,serif" font-size="14.00">semantic_version : VersionInfo</text>
<text text-anchor="start" x="301" y="-559.3" font-family="Times,serif" font-size="14.00">version : str</text>
<polyline fill="none" stroke="burlywood" points="293,-551.5 528,-551.5 "/>
<text text-anchor="middle" x="410.5" y="-536.3" font-family="Times,serif" font-size="14.00"> </text>
</g>
<!-- ragger.firmware.structs.Firmware&#45;&gt;ragger.firmware.structs._Firmware -->
<g id="edge4" class="edge">
<title>ragger.firmware.structs.Firmware&#45;&gt;ragger.firmware.structs._Firmware</title>
<path fill="none" stroke="black" d="M318.94,-326.53C336.3,-374.01 368.02,-460.78 389.18,-518.68"/>
<polygon fill="none" stroke="black" points="386.02,-520.23 392.74,-528.42 392.6,-517.83 386.02,-520.23"/>
</g>
<!-- ragger.backend.ledgercomm.LedgerCommBackend -->
<g id="node10" class="node">
<title>ragger.backend.ledgercomm.LedgerCommBackend</title>
<polygon fill="antiquewhite" stroke="antiquewhite" points="367.5,-196.5 367.5,-386.5 927.5,-386.5 927.5,-196.5 367.5,-196.5"/>
<text text-anchor="middle" x="647.5" y="-371.3" font-family="Times,serif" font-size="14.00">LedgerCommBackend</text>
<polyline fill="none" stroke="antiquewhite" points="367.5,-363.5 927.5,-363.5 "/>
<polyline fill="none" stroke="antiquewhite" points="367.5,-339.5 927.5,-339.5 "/>
<text text-anchor="start" x="375.5" y="-324.3" font-family="Times,serif" font-size="14.00">both_click(): None</text>
<text text-anchor="start" x="375.5" y="-309.3" font-family="Times,serif" font-size="14.00">compare_screen_with_snapshot(snap_path: Path, crop: Optional[Crop]): bool</text>
<text text-anchor="start" x="375.5" y="-294.3" font-family="Times,serif" font-size="14.00">exchange_async_raw(data: bytes): Generator[None, None, None]</text>
<text text-anchor="start" x="375.5" y="-279.3" font-family="Times,serif" font-size="14.00">exchange_raw(data: bytes): RAPDU</text>
<text text-anchor="start" x="375.5" y="-264.3" font-family="Times,serif" font-size="14.00">left_click(): None</text>
<text text-anchor="start" x="375.5" y="-249.3" font-family="Times,serif" font-size="14.00">receive(): RAPDU</text>
<text text-anchor="start" x="375.5" y="-234.3" font-family="Times,serif" font-size="14.00">right_click(): None</text>
<text text-anchor="start" x="375.5" y="-219.3" font-family="Times,serif" font-size="14.00">save_screen_snapshot(path: Path): None</text>
<text text-anchor="start" x="375.5" y="-204.3" font-family="Times,serif" font-size="14.00">send_raw(data: bytes): None</text>
</g>
<!-- ragger.backend.ledgercomm.LedgerCommBackend&#45;&gt;ragger.backend.interface.BackendInterface -->
<g id="edge1" class="edge">
<title>ragger.backend.ledgercomm.LedgerCommBackend&#45;&gt;ragger.backend.interface.BackendInterface</title>
<path fill="none" stroke="black" d="M725.09,-386.84C736.71,-400.96 748.9,-415.79 761.15,-430.68"/>
<polygon fill="none" stroke="black" points="758.5,-432.97 767.56,-438.47 763.91,-428.52 758.5,-432.97"/>
</g>
<!-- ragger.backend.ledgerwallet.LedgerWalletBackend -->
<g id="node11" class="node">
<title>ragger.backend.ledgerwallet.LedgerWalletBackend</title>
<polygon fill="antiquewhite" stroke="antiquewhite" points="945.5,-196.5 945.5,-386.5 1505.5,-386.5 1505.5,-196.5 945.5,-196.5"/>
<text text-anchor="middle" x="1225.5" y="-371.3" font-family="Times,serif" font-size="14.00">LedgerWalletBackend</text>
<polyline fill="none" stroke="antiquewhite" points="945.5,-363.5 1505.5,-363.5 "/>
<polyline fill="none" stroke="antiquewhite" points="945.5,-339.5 1505.5,-339.5 "/>
<text text-anchor="start" x="953.5" y="-324.3" font-family="Times,serif" font-size="14.00">both_click(): None</text>
<text text-anchor="start" x="953.5" y="-309.3" font-family="Times,serif" font-size="14.00">compare_screen_with_snapshot(snap_path: Path, crop: Optional[Crop]): bool</text>
<text text-anchor="start" x="953.5" y="-294.3" font-family="Times,serif" font-size="14.00">exchange_async_raw(data: bytes): Generator[None, None, None]</text>
<text text-anchor="start" x="953.5" y="-279.3" font-family="Times,serif" font-size="14.00">exchange_raw(data: bytes): RAPDU</text>
<text text-anchor="start" x="953.5" y="-264.3" font-family="Times,serif" font-size="14.00">left_click(): None</text>
<text text-anchor="start" x="953.5" y="-249.3" font-family="Times,serif" font-size="14.00">receive(): RAPDU</text>
<text text-anchor="start" x="953.5" y="-234.3" font-family="Times,serif" font-size="14.00">right_click(): None</text>
<text text-anchor="start" x="953.5" y="-219.3" font-family="Times,serif" font-size="14.00">save_screen_snapshot(path: Path): None</text>
<text text-anchor="start" x="953.5" y="-204.3" font-family="Times,serif" font-size="14.00">send_raw(data: bytes): None</text>
</g>
<!-- ragger.backend.ledgerwallet.LedgerWalletBackend&#45;&gt;ragger.backend.interface.BackendInterface -->
<g id="edge2" class="edge">
<title>ragger.backend.ledgerwallet.LedgerWalletBackend&#45;&gt;ragger.backend.interface.BackendInterface</title>
<path fill="none" stroke="black" d="M1111.43,-386.84C1093.89,-401.35 1075.44,-416.61 1056.94,-431.91"/>
<polygon fill="none" stroke="black" points="1054.48,-429.4 1049,-438.47 1058.94,-434.79 1054.48,-429.4"/>
</g>
<!-- ragger.navigator.nano_navigator.NanoNavigator -->
<g id="node12" class="node">
<title>ragger.navigator.nano_navigator.NanoNavigator</title>
<polygon fill="cadetblue" stroke="cadetblue" points="1235,-543 1235,-613 1360,-613 1360,-543 1235,-543"/>
<text text-anchor="middle" x="1297.5" y="-597.8" font-family="Times,serif" font-size="14.00">NanoNavigator</text>
<polyline fill="none" stroke="cadetblue" points="1235,-590 1360,-590 "/>
<polyline fill="none" stroke="cadetblue" points="1235,-566 1360,-566 "/>
<text text-anchor="middle" x="1297.5" y="-550.8" font-family="Times,serif" font-size="14.00"> </text>
</g>
<!-- ragger.navigator.nano_navigator.NanoNavigator&#45;&gt;ragger.navigator.navigator.Navigator -->
<g id="edge8" class="edge">
<title>ragger.navigator.nano_navigator.NanoNavigator&#45;&gt;ragger.navigator.navigator.Navigator</title>
<path fill="none" stroke="black" d="M1288.31,-613.12C1278.06,-644.75 1258.45,-690.89 1225.5,-718 1202.09,-737.26 1175.13,-752.84 1146.82,-765.42"/>
<polygon fill="none" stroke="black" points="1145.38,-762.23 1137.58,-769.41 1148.15,-768.66 1145.38,-762.23"/>
</g>
<!-- ragger.firmware.versions.NanoSPVersions -->
<g id="node13" class="node">
<title>ragger.firmware.versions.NanoSPVersions</title>
<polygon fill="burlywood" stroke="burlywood" points="2371.5,-38 2371.5,-107 2505.5,-107 2505.5,-38 2371.5,-38"/>
<text text-anchor="middle" x="2438.5" y="-91.8" font-family="Times,serif" font-size="14.00">NanoSPVersions</text>
<polyline fill="none" stroke="burlywood" points="2371.5,-84 2505.5,-84 "/>
<text text-anchor="start" x="2379.5" y="-68.8" font-family="Times,serif" font-size="14.00">name</text>
<polyline fill="none" stroke="burlywood" points="2371.5,-61 2505.5,-61 "/>
<text text-anchor="middle" x="2438.5" y="-45.8" font-family="Times,serif" font-size="14.00"> </text>
</g>
<!-- ragger.firmware.versions.VersionManager -->
<g id="node23" class="node">
<title>ragger.firmware.versions.VersionManager</title>
<polygon fill="burlywood" stroke="burlywood" points="2279.5,-249.5 2279.5,-333.5 2893.5,-333.5 2893.5,-249.5 2279.5,-249.5"/>
<text text-anchor="middle" x="2586.5" y="-318.3" font-family="Times,serif" font-size="14.00">VersionManager</text>
<polyline fill="none" stroke="burlywood" points="2279.5,-310.5 2893.5,-310.5 "/>
<text text-anchor="start" x="2287.5" y="-295.3" font-family="Times,serif" font-size="14.00">name</text>
<polyline fill="none" stroke="burlywood" points="2279.5,-287.5 2893.5,-287.5 "/>
<text text-anchor="start" x="2287.5" y="-272.3" font-family="Times,serif" font-size="14.00">get_last(major: Optional[int], minor: Optional[int], patch: Optional[int]): VersionInfo</text>
<text text-anchor="start" x="2287.5" y="-257.3" font-family="Times,serif" font-size="14.00">get_last_from_string(version: str): VersionInfo</text>
</g>
<!-- ragger.firmware.versions.NanoSPVersions&#45;&gt;ragger.firmware.versions.VersionManager -->
<g id="edge5" class="edge">
<title>ragger.firmware.versions.NanoSPVersions&#45;&gt;ragger.firmware.versions.VersionManager</title>
<path fill="none" stroke="black" d="M2461.62,-107.41C2486.06,-143.24 2524.85,-200.11 2552.72,-240.97"/>
<polygon fill="none" stroke="black" points="2549.96,-243.14 2558.49,-249.43 2555.75,-239.2 2549.96,-243.14"/>
</g>
<!-- ragger.firmware.versions.NanoSVersions -->
<g id="node14" class="node">
<title>ragger.firmware.versions.NanoSVersions</title>
<polygon fill="burlywood" stroke="burlywood" points="2524,-38 2524,-107 2649,-107 2649,-38 2524,-38"/>
<text text-anchor="middle" x="2586.5" y="-91.8" font-family="Times,serif" font-size="14.00">NanoSVersions</text>
<polyline fill="none" stroke="burlywood" points="2524,-84 2649,-84 "/>
<text text-anchor="start" x="2532" y="-68.8" font-family="Times,serif" font-size="14.00">name</text>
<polyline fill="none" stroke="burlywood" points="2524,-61 2649,-61 "/>
<text text-anchor="middle" x="2586.5" y="-45.8" font-family="Times,serif" font-size="14.00"> </text>
</g>
<!-- ragger.firmware.versions.NanoSVersions&#45;&gt;ragger.firmware.versions.VersionManager -->
<g id="edge6" class="edge">
<title>ragger.firmware.versions.NanoSVersions&#45;&gt;ragger.firmware.versions.VersionManager</title>
<path fill="none" stroke="black" d="M2586.5,-107.41C2586.5,-142.79 2586.5,-198.69 2586.5,-239.42"/>
<polygon fill="none" stroke="black" points="2583,-239.43 2586.5,-249.43 2590,-239.43 2583,-239.43"/>
</g>
<!-- ragger.firmware.versions.NanoXVersions -->
<g id="node15" class="node">
<title>ragger.firmware.versions.NanoXVersions</title>
<polygon fill="burlywood" stroke="burlywood" points="2667,-38 2667,-107 2792,-107 2792,-38 2667,-38"/>
<text text-anchor="middle" x="2729.5" y="-91.8" font-family="Times,serif" font-size="14.00">NanoXVersions</text>
<polyline fill="none" stroke="burlywood" points="2667,-84 2792,-84 "/>
<text text-anchor="start" x="2675" y="-68.8" font-family="Times,serif" font-size="14.00">name</text>
<polyline fill="none" stroke="burlywood" points="2667,-61 2792,-61 "/>
<text text-anchor="middle" x="2729.5" y="-45.8" font-family="Times,serif" font-size="14.00"> </text>
</g>
<!-- ragger.firmware.versions.NanoXVersions&#45;&gt;ragger.firmware.versions.VersionManager -->
<g id="edge7" class="edge">
<title>ragger.firmware.versions.NanoXVersions&#45;&gt;ragger.firmware.versions.VersionManager</title>
<path fill="none" stroke="black" d="M2707.16,-107.41C2683.54,-143.24 2646.06,-200.11 2619.14,-240.97"/>
<polygon fill="none" stroke="black" points="2616.15,-239.15 2613.57,-249.43 2621.99,-243 2616.15,-239.15"/>
</g>
<!-- ragger.navigator.navigator.NavIns -->
<g id="node16" class="node">
<title>ragger.navigator.navigator.NavIns</title>
<polygon fill="cadetblue" stroke="cadetblue" points="2911.5,-242 2911.5,-341 3087.5,-341 3087.5,-242 2911.5,-242"/>
<text text-anchor="middle" x="2999.5" y="-325.8" font-family="Times,serif" font-size="14.00">NavIns</text>
<polyline fill="none" stroke="cadetblue" points="2911.5,-318 3087.5,-318 "/>
<text text-anchor="start" x="2919.5" y="-302.8" font-family="Times,serif" font-size="14.00">args : tuple</text>
<text text-anchor="start" x="2919.5" y="-287.8" font-family="Times,serif" font-size="14.00">id</text>
<text text-anchor="start" x="2919.5" y="-272.8" font-family="Times,serif" font-size="14.00">kwargs : Dict[str, Any]</text>
<polyline fill="none" stroke="cadetblue" points="2911.5,-265 3087.5,-265 "/>
<text text-anchor="middle" x="2999.5" y="-249.8" font-family="Times,serif" font-size="14.00"> </text>
</g>
<!-- ragger.navigator.navigator.NavInsID -->
<g id="node17" class="node">
<title>ragger.navigator.navigator.NavInsID</title>
<polygon fill="cadetblue" stroke="cadetblue" points="2958,-38 2958,-107 3041,-107 3041,-38 2958,-38"/>
<text text-anchor="middle" x="2999.5" y="-91.8" font-family="Times,serif" font-size="14.00">NavInsID</text>
<polyline fill="none" stroke="cadetblue" points="2958,-84 3041,-84 "/>
<text text-anchor="start" x="2966" y="-68.8" font-family="Times,serif" font-size="14.00">name</text>
<polyline fill="none" stroke="cadetblue" points="2958,-61 3041,-61 "/>
<text text-anchor="middle" x="2999.5" y="-45.8" font-family="Times,serif" font-size="14.00"> </text>
</g>
<!-- ragger.navigator.navigator.NavInsID&#45;&gt;ragger.navigator.navigator.NavIns -->
<g id="edge12" class="edge">
<title>ragger.navigator.navigator.NavInsID&#45;&gt;ragger.navigator.navigator.NavIns</title>
<path fill="none" stroke="black" d="M2999.5,-107.41C2999.5,-140.07 2999.5,-190.21 2999.5,-229.77"/>
<polygon fill="black" stroke="black" points="2999.5,-229.94 3003.5,-235.94 2999.5,-241.94 2995.5,-235.94 2999.5,-229.94"/>
<text text-anchor="middle" x="3006.5" y="-166.8" font-family="Times,serif" font-size="14.00" fill="green">id</text>
</g>
<!-- ragger.utils.structs.RAPDU -->
<g id="node19" class="node">
<title>ragger.utils.structs.RAPDU</title>
<polygon fill="chartreuse" stroke="chartreuse" points="1175,-30.5 1175,-114.5 1276,-114.5 1276,-30.5 1175,-30.5"/>
<text text-anchor="middle" x="1225.5" y="-99.3" font-family="Times,serif" font-size="14.00">RAPDU</text>
<polyline fill="none" stroke="chartreuse" points="1175,-91.5 1276,-91.5 "/>
<text text-anchor="start" x="1183" y="-76.3" font-family="Times,serif" font-size="14.00">data : bytes</text>
<text text-anchor="start" x="1183" y="-61.3" font-family="Times,serif" font-size="14.00">status : int</text>
<polyline fill="none" stroke="chartreuse" points="1175,-53.5 1276,-53.5 "/>
<text text-anchor="middle" x="1225.5" y="-38.3" font-family="Times,serif" font-size="14.00"> </text>
</g>
<!-- ragger.utils.structs.RAPDU&#45;&gt;ragger.backend.ledgercomm.LedgerCommBackend -->
<g id="edge13" class="edge">
<title>ragger.utils.structs.RAPDU&#45;&gt;ragger.backend.ledgercomm.LedgerCommBackend</title>
<path fill="none" stroke="black" d="M1199.02,-114.67C1189.74,-126.13 1178.37,-137.48 1165.5,-145 1128.02,-166.91 1111.92,-153.77 1069.5,-163 1013.59,-175.17 997.01,-178.76 939.38,-195.2"/>
<polygon fill="black" stroke="black" points="939.24,-195.24 934.58,-200.74 927.71,-198.54 932.37,-193.05 939.24,-195.24"/>
<text text-anchor="middle" x="1145.5" y="-166.8" font-family="Times,serif" font-size="14.00" fill="green">_last_async_response</text>
</g>
<!-- ragger.utils.structs.RAPDU&#45;&gt;ragger.backend.ledgerwallet.LedgerWalletBackend -->
<g id="edge14" class="edge">
<title>ragger.utils.structs.RAPDU&#45;&gt;ragger.backend.ledgerwallet.LedgerWalletBackend</title>
<path fill="none" stroke="black" d="M1225.5,-114.57C1225.5,-134.42 1225.5,-159.26 1225.5,-183.97"/>
<polygon fill="black" stroke="black" points="1225.5,-184.06 1229.5,-190.06 1225.5,-196.06 1221.5,-190.06 1225.5,-184.06"/>
<text text-anchor="middle" x="1301.5" y="-166.8" font-family="Times,serif" font-size="14.00" fill="green">_last_async_response</text>
</g>
<!-- ragger.backend.speculos.SpeculosBackend -->
<g id="node22" class="node">
<title>ragger.backend.speculos.SpeculosBackend</title>
<polygon fill="antiquewhite" stroke="antiquewhite" points="1523.5,-197 1523.5,-386 2083.5,-386 2083.5,-197 1523.5,-197"/>
<text text-anchor="middle" x="1803.5" y="-370.8" font-family="Times,serif" font-size="14.00">SpeculosBackend</text>
<polyline fill="none" stroke="antiquewhite" points="1523.5,-363 2083.5,-363 "/>
<text text-anchor="start" x="1531.5" y="-347.8" font-family="Times,serif" font-size="14.00">url</text>
<polyline fill="none" stroke="antiquewhite" points="1523.5,-340 2083.5,-340 "/>
<text text-anchor="start" x="1531.5" y="-324.8" font-family="Times,serif" font-size="14.00">both_click(): None</text>
<text text-anchor="start" x="1531.5" y="-309.8" font-family="Times,serif" font-size="14.00">compare_screen_with_snapshot(snap_path: Path, crop: Optional[Crop]): bool</text>
<text text-anchor="start" x="1531.5" y="-294.8" font-family="Times,serif" font-size="14.00">exchange_async_raw(data: bytes): Generator[None, None, None]</text>
<text text-anchor="start" x="1531.5" y="-279.8" font-family="Times,serif" font-size="14.00">exchange_raw(data: bytes): RAPDU</text>
<text text-anchor="start" x="1531.5" y="-264.8" font-family="Times,serif" font-size="14.00">left_click(): None</text>
<text text-anchor="start" x="1531.5" y="-249.8" font-family="Times,serif" font-size="14.00">receive(): RAPDU</text>
<text text-anchor="start" x="1531.5" y="-234.8" font-family="Times,serif" font-size="14.00">right_click(): None</text>
<text text-anchor="start" x="1531.5" y="-219.8" font-family="Times,serif" font-size="14.00">save_screen_snapshot(path: Path): None</text>
<text text-anchor="start" x="1531.5" y="-204.8" font-family="Times,serif" font-size="14.00">send_raw(data: bytes): None</text>
</g>
<!-- ragger.utils.structs.RAPDU&#45;&gt;ragger.backend.speculos.SpeculosBackend -->
<g id="edge15" class="edge">
<title>ragger.utils.structs.RAPDU&#45;&gt;ragger.backend.speculos.SpeculosBackend</title>
<path fill="none" stroke="black" d="M1251.98,-114.67C1261.26,-126.13 1272.63,-137.48 1285.5,-145 1322.98,-166.91 1339.08,-153.77 1381.5,-163 1437.41,-175.17 1453.99,-178.76 1511.62,-195.2"/>
<polygon fill="black" stroke="black" points="1511.76,-195.24 1518.63,-193.05 1523.29,-198.54 1516.42,-200.74 1511.76,-195.24"/>
<text text-anchor="middle" x="1522.5" y="-166.8" font-family="Times,serif" font-size="14.00" fill="green">_last_async_response</text>
</g>
<!-- ragger.backend.interface.RaisePolicy -->
<g id="node20" class="node">
<title>ragger.backend.interface.RaisePolicy</title>
<polygon fill="antiquewhite" stroke="antiquewhite" points="3059.5,-38 3059.5,-107 3157.5,-107 3157.5,-38 3059.5,-38"/>
<text text-anchor="middle" x="3108.5" y="-91.8" font-family="Times,serif" font-size="14.00">RaisePolicy</text>
<polyline fill="none" stroke="antiquewhite" points="3059.5,-84 3157.5,-84 "/>
<text text-anchor="start" x="3067.5" y="-68.8" font-family="Times,serif" font-size="14.00">name</text>
<polyline fill="none" stroke="antiquewhite" points="3059.5,-61 3157.5,-61 "/>
<text text-anchor="middle" x="3108.5" y="-45.8" font-family="Times,serif" font-size="14.00"> </text>
</g>
<!-- ragger.bip.seed.Seed -->
<g id="node21" class="node">
<title>ragger.bip.seed.Seed</title>
<polygon fill="aquamarine" stroke="aquamarine" points="3175.5,-23 3175.5,-122 3621.5,-122 3621.5,-23 3175.5,-23"/>
<text text-anchor="middle" x="3398.5" y="-106.8" font-family="Times,serif" font-size="14.00">Seed</text>
<polyline fill="none" stroke="aquamarine" points="3175.5,-99 3621.5,-99 "/>
<text text-anchor="start" x="3183.5" y="-83.8" font-family="Times,serif" font-size="14.00">seed</text>
<polyline fill="none" stroke="aquamarine" points="3175.5,-76 3621.5,-76 "/>
<text text-anchor="start" x="3183.5" y="-60.8" font-family="Times,serif" font-size="14.00">from_mnemonic(mnemonic: str): &#39;Seed&#39;</text>
<text text-anchor="start" x="3183.5" y="-45.8" font-family="Times,serif" font-size="14.00">get_address(path: Union[bytes, ExtendedBip32Path]): bytes</text>
<text text-anchor="start" x="3183.5" y="-30.8" font-family="Times,serif" font-size="14.00">get_pubkey(path: Union[bytes, ExtendedBip32Path]): bytes</text>
</g>
<!-- ragger.backend.speculos.SpeculosBackend&#45;&gt;ragger.backend.interface.BackendInterface -->
<g id="edge3" class="edge">
<title>ragger.backend.speculos.SpeculosBackend&#45;&gt;ragger.backend.interface.BackendInterface</title>
<path fill="none" stroke="black" d="M1523.37,-384.75C1520.4,-385.51 1517.44,-386.26 1514.5,-387 1391.07,-417.91 1352.74,-402.82 1226.74,-437.73"/>
<polygon fill="none" stroke="black" points="1225.79,-434.36 1217.12,-440.44 1227.69,-441.09 1225.79,-434.36"/>
</g>
</g>
</svg>
