<?xml version="1.0" encoding="UTF-8" standalone="no"?>
<!DOCTYPE svg PUBLIC "-//W3C//DTD SVG 1.1//EN"
 "http://www.w3.org/Graphics/SVG/1.1/DTD/svg11.dtd">
<!-- Generated by graphviz version 2.43.0 (0)
 -->
<!-- Title: classes_generated_ragger_architecture Pages: 1 -->
<svg width="4537pt" height="848pt"
 viewBox="0.00 0.00 4536.50 848.00" xmlns="http://www.w3.org/2000/svg" xmlns:xlink="http://www.w3.org/1999/xlink">
<g id="graph0" class="graph" transform="scale(1 1) rotate(0) translate(4 844)">
<title>classes_generated_ragger_architecture</title>
<polygon fill="white" stroke="transparent" points="-4,4 -4,-844 4532.5,-844 4532.5,4 -4,4"/>
<!-- ragger.bip.utils.BIP -->
<g id="node1" class="node">
<title>ragger.bip.utils.BIP</title>
<polygon fill="aquamarine" stroke="aquamarine" points="1425.5,-38 1425.5,-107 1481.5,-107 1481.5,-38 1425.5,-38"/>
<text text-anchor="middle" x="1453.5" y="-91.8" font-family="Times,serif" font-size="14.00">BIP</text>
<polyline fill="none" stroke="aquamarine" points="1425.5,-84 1481.5,-84 "/>
<text text-anchor="start" x="1433.5" y="-68.8" font-family="Times,serif" font-size="14.00">name</text>
<polyline fill="none" stroke="aquamarine" points="1425.5,-61 1481.5,-61 "/>
<text text-anchor="middle" x="1453.5" y="-45.8" font-family="Times,serif" font-size="14.00"> </text>
</g>
<!-- ragger.bip.coins.BUContainer -->
<g id="node2" class="node">
<title>ragger.bip.coins.BUContainer</title>
<polygon fill="aquamarine" stroke="aquamarine" points="1499.5,-30.5 1499.5,-114.5 1623.5,-114.5 1623.5,-30.5 1499.5,-30.5"/>
<text text-anchor="middle" x="1561.5" y="-99.3" font-family="Times,serif" font-size="14.00">BUContainer</text>
<polyline fill="none" stroke="aquamarine" points="1499.5,-91.5 1623.5,-91.5 "/>
<text text-anchor="start" x="1507.5" y="-76.3" font-family="Times,serif" font-size="14.00">coin : Union</text>
<text text-anchor="start" x="1507.5" y="-61.3" font-family="Times,serif" font-size="14.00">key_cls : Union</text>
<polyline fill="none" stroke="aquamarine" points="1499.5,-53.5 1623.5,-53.5 "/>
<text text-anchor="middle" x="1561.5" y="-38.3" font-family="Times,serif" font-size="14.00"> </text>
</g>
<!-- ragger.backend.interface.BackendInterface -->
<g id="node3" class="node">
<title>ragger.backend.interface.BackendInterface</title>
<polygon fill="antiquewhite" stroke="antiquewhite" points="395.5,-423.5 395.5,-687.5 1367.5,-687.5 1367.5,-423.5 395.5,-423.5"/>
<text text-anchor="middle" x="881.5" y="-672.3" font-family="Times,serif" font-size="14.00">BackendInterface</text>
<polyline fill="none" stroke="antiquewhite" points="395.5,-664.5 1367.5,-664.5 "/>
<text text-anchor="start" x="403.5" y="-649.3" font-family="Times,serif" font-size="14.00">firmware</text>
<text text-anchor="start" x="403.5" y="-634.3" font-family="Times,serif" font-size="14.00">last_async_response</text>
<text text-anchor="start" x="403.5" y="-619.3" font-family="Times,serif" font-size="14.00">raise_policy : RAISE_ALL_BUT_0x9000</text>
<polyline fill="none" stroke="antiquewhite" points="395.5,-611.5 1367.5,-611.5 "/>
<text text-anchor="start" x="403.5" y="-596.3" font-family="Times,serif" font-size="14.00">both_click(): None</text>
<text text-anchor="start" x="403.5" y="-581.3" font-family="Times,serif" font-size="14.00">compare_screen_with_snapshot(golden_snap_path: Path, crop: Optional[Crop], tmp_snap_path: Optional[Path], golden_run: bool): bool</text>
<text text-anchor="start" x="403.5" y="-566.3" font-family="Times,serif" font-size="14.00">exchange(cla: int, ins: int, p1: int, p2: int, data: bytes): RAPDU</text>
<text text-anchor="start" x="403.5" y="-551.3" font-family="Times,serif" font-size="14.00">exchange_async(cla: int, ins: int, p1: int, p2: int, data: bytes): Generator[None, None, None]</text>
<text text-anchor="start" x="403.5" y="-536.3" font-family="Times,serif" font-size="14.00">exchange_async_raw(data: bytes): Generator[None, None, None]</text>
<text text-anchor="start" x="403.5" y="-521.3" font-family="Times,serif" font-size="14.00">exchange_raw(data: bytes): RAPDU</text>
<text text-anchor="start" x="403.5" y="-506.3" font-family="Times,serif" font-size="14.00">is_raise_required(rapdu: RAPDU): bool</text>
<text text-anchor="start" x="403.5" y="-491.3" font-family="Times,serif" font-size="14.00">left_click(): None</text>
<text text-anchor="start" x="403.5" y="-476.3" font-family="Times,serif" font-size="14.00">receive(): RAPDU</text>
<text text-anchor="start" x="403.5" y="-461.3" font-family="Times,serif" font-size="14.00">right_click(): None</text>
<text text-anchor="start" x="403.5" y="-446.3" font-family="Times,serif" font-size="14.00">send(cla: int, ins: int, p1: int, p2: int, data: bytes): None</text>
<text text-anchor="start" x="403.5" y="-431.3" font-family="Times,serif" font-size="14.00">send_raw(data: bytes): None</text>
</g>
<!-- ragger.navigator.navigator.Navigator -->
<g id="node18" class="node">
<title>ragger.navigator.navigator.Navigator</title>
<polygon fill="cadetblue" stroke="cadetblue" points="0,-739.5 0,-839.5 1763,-839.5 1763,-739.5 0,-739.5"/>
<text text-anchor="middle" x="881.5" y="-824.3" font-family="Times,serif" font-size="14.00">Navigator</text>
<polyline fill="none" stroke="cadetblue" points="0,-816.5 1763,-816.5 "/>
<polyline fill="none" stroke="cadetblue" points="0,-792.5 1763,-792.5 "/>
<text text-anchor="start" x="8" y="-777.3" font-family="Times,serif" font-size="14.00">navigate(instructions: List[NavIns])</text>
<text text-anchor="start" x="8" y="-762.3" font-family="Times,serif" font-size="14.00">navigate_and_compare(path: Path, test_case_name: Path, instructions: List[NavIns], first_instruction_wait: float, middle_instruction_wait: float, last_instruction_wait: float): None</text>
<text text-anchor="start" x="8" y="-747.3" font-family="Times,serif" font-size="14.00">navigate_until_snap(navigate_instruction: NavIns, validation_instruction: NavIns, path: Path, test_case_name: Path, start_img_name: str, last_img_name: str, take_snaps: bool, timeout: int, crop_first: Optional[Crop], crop_last: Optional[Crop]): int</text>
</g>
<!-- ragger.backend.interface.BackendInterface&#45;&gt;ragger.navigator.navigator.Navigator -->
<g id="edge9" class="edge">
<title>ragger.backend.interface.BackendInterface&#45;&gt;ragger.navigator.navigator.Navigator</title>
<path fill="none" stroke="black" d="M881.5,-687.75C881.5,-701.37 881.5,-714.71 881.5,-726.99"/>
<polygon fill="black" stroke="black" points="881.5,-727.37 885.5,-733.37 881.5,-739.37 877.5,-733.37 881.5,-727.37"/>
<text text-anchor="middle" x="915" y="-709.8" font-family="Times,serif" font-size="14.00" fill="green">_backend</text>
</g>
<!-- ragger.utils.path.BtcDerivationPathFormat -->
<g id="node4" class="node">
<title>ragger.utils.path.BtcDerivationPathFormat</title>
<polygon fill="chartreuse" stroke="chartreuse" points="1775.5,-38 1775.5,-107 1975.5,-107 1975.5,-38 1775.5,-38"/>
<text text-anchor="middle" x="1875.5" y="-91.8" font-family="Times,serif" font-size="14.00">BtcDerivationPathFormat</text>
<polyline fill="none" stroke="chartreuse" points="1775.5,-84 1975.5,-84 "/>
<text text-anchor="start" x="1783.5" y="-68.8" font-family="Times,serif" font-size="14.00">name</text>
<polyline fill="none" stroke="chartreuse" points="1775.5,-61 1975.5,-61 "/>
<text text-anchor="middle" x="1875.5" y="-45.8" font-family="Times,serif" font-size="14.00"> </text>
</g>
<!-- ragger.bip.coins.Coin -->
<g id="node5" class="node">
<title>ragger.bip.coins.Coin</title>
<polygon fill="aquamarine" stroke="aquamarine" points="2214,-30.5 2214,-114.5 2561,-114.5 2561,-30.5 2214,-30.5"/>
<text text-anchor="middle" x="2387.5" y="-99.3" font-family="Times,serif" font-size="14.00">Coin</text>
<polyline fill="none" stroke="aquamarine" points="2214,-91.5 2561,-91.5 "/>
<text text-anchor="start" x="2222" y="-76.3" font-family="Times,serif" font-size="14.00">bips : Dict[BIP, BUContainer]</text>
<text text-anchor="start" x="2222" y="-61.3" font-family="Times,serif" font-size="14.00">encodings : Union[Callable, Dict[str, Callable]]</text>
<polyline fill="none" stroke="aquamarine" points="2214,-53.5 2561,-53.5 "/>
<text text-anchor="start" x="2222" y="-38.3" font-family="Times,serif" font-size="14.00">from_type(coin_type: int): &#39;Coin&#39;</text>
</g>
<!-- ragger.utils.structs.Crop -->
<g id="node6" class="node">
<title>ragger.utils.structs.Crop</title>
<polygon fill="chartreuse" stroke="chartreuse" points="2688.5,-15.5 2688.5,-129.5 2780.5,-129.5 2780.5,-15.5 2688.5,-15.5"/>
<text text-anchor="middle" x="2734.5" y="-114.3" font-family="Times,serif" font-size="14.00">Crop</text>
<polyline fill="none" stroke="chartreuse" points="2688.5,-106.5 2780.5,-106.5 "/>
<text text-anchor="start" x="2696.5" y="-91.3" font-family="Times,serif" font-size="14.00">left : int</text>
<text text-anchor="start" x="2696.5" y="-76.3" font-family="Times,serif" font-size="14.00">lower : int</text>
<text text-anchor="start" x="2696.5" y="-61.3" font-family="Times,serif" font-size="14.00">right : int</text>
<text text-anchor="start" x="2696.5" y="-46.3" font-family="Times,serif" font-size="14.00">upper : int</text>
<polyline fill="none" stroke="chartreuse" points="2688.5,-38.5 2780.5,-38.5 "/>
<text text-anchor="middle" x="2734.5" y="-23.3" font-family="Times,serif" font-size="14.00"> </text>
</g>
<!-- ragger.error.ExceptionRAPDU -->
<g id="node7" class="node">
<title>ragger.error.ExceptionRAPDU</title>
<polygon fill="aliceblue" stroke="aliceblue" points="2854,-30.5 2854,-114.5 2995,-114.5 2995,-30.5 2854,-30.5"/>
<text text-anchor="middle" x="2924.5" y="-99.3" font-family="Times,serif" font-size="14.00" fill="red">ExceptionRAPDU</text>
<polyline fill="none" stroke="aliceblue" points="2854,-91.5 2995,-91.5 "/>
<text text-anchor="start" x="2862" y="-76.3" font-family="Times,serif" font-size="14.00" fill="red">data : bytes</text>
<text text-anchor="start" x="2862" y="-61.3" font-family="Times,serif" font-size="14.00" fill="red">status : int</text>
<polyline fill="none" stroke="aliceblue" points="2854,-53.5 2995,-53.5 "/>
<text text-anchor="middle" x="2924.5" y="-38.3" font-family="Times,serif" font-size="14.00" fill="red"> </text>
</g>
<!-- ragger.bip.path.ExtendedBip32Path -->
<g id="node8" class="node">
<title>ragger.bip.path.ExtendedBip32Path</title>
<polygon fill="aquamarine" stroke="aquamarine" points="3040.5,-0.5 3040.5,-144.5 3246.5,-144.5 3246.5,-0.5 3040.5,-0.5"/>
<text text-anchor="middle" x="3143.5" y="-129.3" font-family="Times,serif" font-size="14.00">ExtendedBip32Path</text>
<polyline fill="none" stroke="aquamarine" points="3040.5,-121.5 3246.5,-121.5 "/>
<text text-anchor="start" x="3048.5" y="-106.3" font-family="Times,serif" font-size="14.00">Bip32PathArgs : Sequence</text>
<text text-anchor="start" x="3048.5" y="-91.3" font-family="Times,serif" font-size="14.00">account</text>
<text text-anchor="start" x="3048.5" y="-76.3" font-family="Times,serif" font-size="14.00">address_index</text>
<text text-anchor="start" x="3048.5" y="-61.3" font-family="Times,serif" font-size="14.00">change</text>
<text text-anchor="start" x="3048.5" y="-46.3" font-family="Times,serif" font-size="14.00">coin_type</text>
<text text-anchor="start" x="3048.5" y="-31.3" font-family="Times,serif" font-size="14.00">purpose</text>
<polyline fill="none" stroke="aquamarine" points="3040.5,-23.5 3246.5,-23.5 "/>
<text text-anchor="middle" x="3143.5" y="-8.3" font-family="Times,serif" font-size="14.00"> </text>
</g>
<!-- ragger.firmware.structs.Firmware -->
<g id="node9" class="node">
<title>ragger.firmware.structs.Firmware</title>
<polygon fill="burlywood" stroke="burlywood" points="112.5,-249 112.5,-319 198.5,-319 198.5,-249 112.5,-249"/>
<text text-anchor="middle" x="155.5" y="-303.8" font-family="Times,serif" font-size="14.00">Firmware</text>
<polyline fill="none" stroke="burlywood" points="112.5,-296 198.5,-296 "/>
<polyline fill="none" stroke="burlywood" points="112.5,-272 198.5,-272 "/>
<text text-anchor="middle" x="155.5" y="-256.8" font-family="Times,serif" font-size="14.00"> </text>
</g>
<!-- ragger.firmware.structs.Firmware&#45;&gt;ragger.backend.interface.BackendInterface -->
<g id="edge10" class="edge">
<title>ragger.firmware.structs.Firmware&#45;&gt;ragger.backend.interface.BackendInterface</title>
<path fill="none" stroke="black" d="M168.44,-319.16C176.95,-337.33 189.83,-358.61 207.5,-372 210.06,-373.94 284.61,-394.55 383.28,-421.27"/>
<polygon fill="black" stroke="black" points="383.52,-421.33 390.36,-419.04 395.11,-424.47 388.27,-426.76 383.52,-421.33"/>
<text text-anchor="middle" x="345.5" y="-393.8" font-family="Times,serif" font-size="14.00" fill="green">_firmware</text>
</g>
<!-- ragger.firmware.structs.Firmware&#45;&gt;ragger.navigator.navigator.Navigator -->
<g id="edge11" class="edge">
<title>ragger.firmware.structs.Firmware&#45;&gt;ragger.navigator.navigator.Navigator</title>
<path fill="none" stroke="black" d="M123.06,-319.26C100.65,-345.41 72.76,-383.56 60.5,-423 25.53,-535.47 -17.56,-599.8 60.5,-688 77.82,-707.57 151.67,-724.13 248.49,-737.82"/>
<polygon fill="black" stroke="black" points="248.53,-737.83 255.02,-734.69 260.42,-739.48 253.92,-742.61 248.53,-737.83"/>
<text text-anchor="middle" x="96.5" y="-551.8" font-family="Times,serif" font-size="14.00" fill="green">_firmware</text>
</g>
<!-- ragger.firmware.structs._Firmware -->
<g id="node24" class="node">
<title>ragger.firmware.structs._Firmware</title>
<polygon fill="burlywood" stroke="burlywood" points="142,-506 142,-605 377,-605 377,-506 142,-506"/>
<text text-anchor="middle" x="259.5" y="-589.8" font-family="Times,serif" font-size="14.00">_Firmware</text>
<polyline fill="none" stroke="burlywood" points="142,-582 377,-582 "/>
<text text-anchor="start" x="150" y="-566.8" font-family="Times,serif" font-size="14.00">device : str</text>
<text text-anchor="start" x="150" y="-551.8" font-family="Times,serif" font-size="14.00">semantic_version : VersionInfo</text>
<text text-anchor="start" x="150" y="-536.8" font-family="Times,serif" font-size="14.00">version : str</text>
<polyline fill="none" stroke="burlywood" points="142,-529 377,-529 "/>
<text text-anchor="middle" x="259.5" y="-513.8" font-family="Times,serif" font-size="14.00"> </text>
</g>
<!-- ragger.firmware.structs.Firmware&#45;&gt;ragger.firmware.structs._Firmware -->
<g id="edge4" class="edge">
<title>ragger.firmware.structs.Firmware&#45;&gt;ragger.firmware.structs._Firmware</title>
<path fill="none" stroke="black" d="M168.67,-319.13C185.84,-363.63 216.13,-442.12 236.98,-496.15"/>
<polygon fill="none" stroke="black" points="233.77,-497.54 240.63,-505.61 240.3,-495.02 233.77,-497.54"/>
</g>
<!-- ragger.backend.ledgercomm.LedgerCommBackend -->
<g id="node10" class="node">
<title>ragger.backend.ledgercomm.LedgerCommBackend</title>
<polygon fill="antiquewhite" stroke="antiquewhite" points="216.5,-196.5 216.5,-371.5 1188.5,-371.5 1188.5,-196.5 216.5,-196.5"/>
<text text-anchor="middle" x="702.5" y="-356.3" font-family="Times,serif" font-size="14.00">LedgerCommBackend</text>
<polyline fill="none" stroke="antiquewhite" points="216.5,-348.5 1188.5,-348.5 "/>
<polyline fill="none" stroke="antiquewhite" points="216.5,-324.5 1188.5,-324.5 "/>
<text text-anchor="start" x="224.5" y="-309.3" font-family="Times,serif" font-size="14.00">both_click(): None</text>
<text text-anchor="start" x="224.5" y="-294.3" font-family="Times,serif" font-size="14.00">compare_screen_with_snapshot(golden_snap_path: Path, crop: Optional[Crop], tmp_snap_path: Optional[Path], golden_run: bool): bool</text>
<text text-anchor="start" x="224.5" y="-279.3" font-family="Times,serif" font-size="14.00">exchange_async_raw(data: bytes): Generator[None, None, None]</text>
<text text-anchor="start" x="224.5" y="-264.3" font-family="Times,serif" font-size="14.00">exchange_raw(data: bytes): RAPDU</text>
<text text-anchor="start" x="224.5" y="-249.3" font-family="Times,serif" font-size="14.00">left_click(): None</text>
<text text-anchor="start" x="224.5" y="-234.3" font-family="Times,serif" font-size="14.00">receive(): RAPDU</text>
<text text-anchor="start" x="224.5" y="-219.3" font-family="Times,serif" font-size="14.00">right_click(): None</text>
<text text-anchor="start" x="224.5" y="-204.3" font-family="Times,serif" font-size="14.00">send_raw(data: bytes): None</text>
</g>
<!-- ragger.backend.ledgercomm.LedgerCommBackend&#45;&gt;ragger.backend.interface.BackendInterface -->
<g id="edge1" class="edge">
<title>ragger.backend.ledgercomm.LedgerCommBackend&#45;&gt;ragger.backend.interface.BackendInterface</title>
<path fill="none" stroke="black" d="M760.12,-371.75C769.26,-385.52 778.92,-400.05 788.62,-414.66"/>
<polygon fill="none" stroke="black" points="785.89,-416.88 794.34,-423.27 791.72,-413 785.89,-416.88"/>
</g>
<!-- ragger.backend.ledgerwallet.LedgerWalletBackend -->
<g id="node11" class="node">
<title>ragger.backend.ledgerwallet.LedgerWalletBackend</title>
<polygon fill="antiquewhite" stroke="antiquewhite" points="1206.5,-196.5 1206.5,-371.5 2178.5,-371.5 2178.5,-196.5 1206.5,-196.5"/>
<text text-anchor="middle" x="1692.5" y="-356.3" font-family="Times,serif" font-size="14.00">LedgerWalletBackend</text>
<polyline fill="none" stroke="antiquewhite" points="1206.5,-348.5 2178.5,-348.5 "/>
<polyline fill="none" stroke="antiquewhite" points="1206.5,-324.5 2178.5,-324.5 "/>
<text text-anchor="start" x="1214.5" y="-309.3" font-family="Times,serif" font-size="14.00">both_click(): None</text>
<text text-anchor="start" x="1214.5" y="-294.3" font-family="Times,serif" font-size="14.00">compare_screen_with_snapshot(golden_snap_path: Path, crop: Optional[Crop], tmp_snap_path: Optional[Path], golden_run: bool): bool</text>
<text text-anchor="start" x="1214.5" y="-279.3" font-family="Times,serif" font-size="14.00">exchange_async_raw(data: bytes): Generator[None, None, None]</text>
<text text-anchor="start" x="1214.5" y="-264.3" font-family="Times,serif" font-size="14.00">exchange_raw(data: bytes): RAPDU</text>
<text text-anchor="start" x="1214.5" y="-249.3" font-family="Times,serif" font-size="14.00">left_click(): None</text>
<text text-anchor="start" x="1214.5" y="-234.3" font-family="Times,serif" font-size="14.00">receive(): RAPDU</text>
<text text-anchor="start" x="1214.5" y="-219.3" font-family="Times,serif" font-size="14.00">right_click(): None</text>
<text text-anchor="start" x="1214.5" y="-204.3" font-family="Times,serif" font-size="14.00">send_raw(data: bytes): None</text>
</g>
<!-- ragger.backend.ledgerwallet.LedgerWalletBackend&#45;&gt;ragger.backend.interface.BackendInterface -->
<g id="edge2" class="edge">
<title>ragger.backend.ledgerwallet.LedgerWalletBackend&#45;&gt;ragger.backend.interface.BackendInterface</title>
<path fill="none" stroke="black" d="M1431.99,-371.57C1385.1,-387.15 1335.24,-403.72 1285.41,-420.28"/>
<polygon fill="none" stroke="black" points="1284.16,-417.01 1275.77,-423.48 1286.37,-423.65 1284.16,-417.01"/>
</g>
<!-- ragger.navigator.nano_navigator.NanoNavigator -->
<g id="node12" class="node">
<title>ragger.navigator.nano_navigator.NanoNavigator</title>
<polygon fill="cadetblue" stroke="cadetblue" points="1386,-520.5 1386,-590.5 1511,-590.5 1511,-520.5 1386,-520.5"/>
<text text-anchor="middle" x="1448.5" y="-575.3" font-family="Times,serif" font-size="14.00">NanoNavigator</text>
<polyline fill="none" stroke="cadetblue" points="1386,-567.5 1511,-567.5 "/>
<polyline fill="none" stroke="cadetblue" points="1386,-543.5 1511,-543.5 "/>
<text text-anchor="middle" x="1448.5" y="-528.3" font-family="Times,serif" font-size="14.00"> </text>
</g>
<!-- ragger.navigator.nano_navigator.NanoNavigator&#45;&gt;ragger.navigator.navigator.Navigator -->
<g id="edge8" class="edge">
<title>ragger.navigator.nano_navigator.NanoNavigator&#45;&gt;ragger.navigator.navigator.Navigator</title>
<path fill="none" stroke="black" d="M1438.89,-590.58C1428.52,-620.91 1408.98,-664.07 1376.5,-688 1350.53,-707.13 1298.62,-723.57 1237.81,-737.28"/>
<polygon fill="none" stroke="black" points="1236.98,-733.88 1227.97,-739.46 1238.49,-740.71 1236.98,-733.88"/>
</g>
<!-- ragger.firmware.versions.NanoSPVersions -->
<g id="node13" class="node">
<title>ragger.firmware.versions.NanoSPVersions</title>
<polygon fill="burlywood" stroke="burlywood" points="3278.5,-38 3278.5,-107 3412.5,-107 3412.5,-38 3278.5,-38"/>
<text text-anchor="middle" x="3345.5" y="-91.8" font-family="Times,serif" font-size="14.00">NanoSPVersions</text>
<polyline fill="none" stroke="burlywood" points="3278.5,-84 3412.5,-84 "/>
<text text-anchor="start" x="3286.5" y="-68.8" font-family="Times,serif" font-size="14.00">name</text>
<polyline fill="none" stroke="burlywood" points="3278.5,-61 3412.5,-61 "/>
<text text-anchor="middle" x="3345.5" y="-45.8" font-family="Times,serif" font-size="14.00"> </text>
</g>
<!-- ragger.firmware.versions.VersionManager -->
<g id="node23" class="node">
<title>ragger.firmware.versions.VersionManager</title>
<polygon fill="burlywood" stroke="burlywood" points="3186.5,-242 3186.5,-326 3800.5,-326 3800.5,-242 3186.5,-242"/>
<text text-anchor="middle" x="3493.5" y="-310.8" font-family="Times,serif" font-size="14.00">VersionManager</text>
<polyline fill="none" stroke="burlywood" points="3186.5,-303 3800.5,-303 "/>
<text text-anchor="start" x="3194.5" y="-287.8" font-family="Times,serif" font-size="14.00">name</text>
<polyline fill="none" stroke="burlywood" points="3186.5,-280 3800.5,-280 "/>
<text text-anchor="start" x="3194.5" y="-264.8" font-family="Times,serif" font-size="14.00">get_last(major: Optional[int], minor: Optional[int], patch: Optional[int]): VersionInfo</text>
<text text-anchor="start" x="3194.5" y="-249.8" font-family="Times,serif" font-size="14.00">get_last_from_string(version: str): VersionInfo</text>
</g>
<!-- ragger.firmware.versions.NanoSPVersions&#45;&gt;ragger.firmware.versions.VersionManager -->
<g id="edge5" class="edge">
<title>ragger.firmware.versions.NanoSPVersions&#45;&gt;ragger.firmware.versions.VersionManager</title>
<path fill="none" stroke="black" d="M3369.28,-107.16C3393.36,-141.25 3430.88,-194.35 3458.38,-233.29"/>
<polygon fill="none" stroke="black" points="3455.81,-235.72 3464.44,-241.87 3461.53,-231.68 3455.81,-235.72"/>
</g>
<!-- ragger.firmware.versions.NanoSVersions -->
<g id="node14" class="node">
<title>ragger.firmware.versions.NanoSVersions</title>
<polygon fill="burlywood" stroke="burlywood" points="3431,-38 3431,-107 3556,-107 3556,-38 3431,-38"/>
<text text-anchor="middle" x="3493.5" y="-91.8" font-family="Times,serif" font-size="14.00">NanoSVersions</text>
<polyline fill="none" stroke="burlywood" points="3431,-84 3556,-84 "/>
<text text-anchor="start" x="3439" y="-68.8" font-family="Times,serif" font-size="14.00">name</text>
<polyline fill="none" stroke="burlywood" points="3431,-61 3556,-61 "/>
<text text-anchor="middle" x="3493.5" y="-45.8" font-family="Times,serif" font-size="14.00"> </text>
</g>
<!-- ragger.firmware.versions.NanoSVersions&#45;&gt;ragger.firmware.versions.VersionManager -->
<g id="edge6" class="edge">
<title>ragger.firmware.versions.NanoSVersions&#45;&gt;ragger.firmware.versions.VersionManager</title>
<path fill="none" stroke="black" d="M3493.5,-107.16C3493.5,-140.82 3493.5,-193.02 3493.5,-231.81"/>
<polygon fill="none" stroke="black" points="3490,-231.87 3493.5,-241.87 3497,-231.87 3490,-231.87"/>
</g>
<!-- ragger.firmware.versions.NanoXVersions -->
<g id="node15" class="node">
<title>ragger.firmware.versions.NanoXVersions</title>
<polygon fill="burlywood" stroke="burlywood" points="3574,-38 3574,-107 3699,-107 3699,-38 3574,-38"/>
<text text-anchor="middle" x="3636.5" y="-91.8" font-family="Times,serif" font-size="14.00">NanoXVersions</text>
<polyline fill="none" stroke="burlywood" points="3574,-84 3699,-84 "/>
<text text-anchor="start" x="3582" y="-68.8" font-family="Times,serif" font-size="14.00">name</text>
<polyline fill="none" stroke="burlywood" points="3574,-61 3699,-61 "/>
<text text-anchor="middle" x="3636.5" y="-45.8" font-family="Times,serif" font-size="14.00"> </text>
</g>
<!-- ragger.firmware.versions.NanoXVersions&#45;&gt;ragger.firmware.versions.VersionManager -->
<g id="edge7" class="edge">
<title>ragger.firmware.versions.NanoXVersions&#45;&gt;ragger.firmware.versions.VersionManager</title>
<path fill="none" stroke="black" d="M3613.52,-107.16C3590.26,-141.25 3554.01,-194.35 3527.43,-233.29"/>
<polygon fill="none" stroke="black" points="3524.32,-231.63 3521.58,-241.87 3530.11,-235.58 3524.32,-231.63"/>
</g>
<!-- ragger.navigator.navigator.NavIns -->
<g id="node16" class="node">
<title>ragger.navigator.navigator.NavIns</title>
<polygon fill="cadetblue" stroke="cadetblue" points="3818.5,-234.5 3818.5,-333.5 3994.5,-333.5 3994.5,-234.5 3818.5,-234.5"/>
<text text-anchor="middle" x="3906.5" y="-318.3" font-family="Times,serif" font-size="14.00">NavIns</text>
<polyline fill="none" stroke="cadetblue" points="3818.5,-310.5 3994.5,-310.5 "/>
<text text-anchor="start" x="3826.5" y="-295.3" font-family="Times,serif" font-size="14.00">args : tuple</text>
<text text-anchor="start" x="3826.5" y="-280.3" font-family="Times,serif" font-size="14.00">id</text>
<text text-anchor="start" x="3826.5" y="-265.3" font-family="Times,serif" font-size="14.00">kwargs : Dict[str, Any]</text>
<polyline fill="none" stroke="cadetblue" points="3818.5,-257.5 3994.5,-257.5 "/>
<text text-anchor="middle" x="3906.5" y="-242.3" font-family="Times,serif" font-size="14.00"> </text>
</g>
<!-- ragger.navigator.navigator.NavInsID -->
<g id="node17" class="node">
<title>ragger.navigator.navigator.NavInsID</title>
<polygon fill="cadetblue" stroke="cadetblue" points="3865,-38 3865,-107 3948,-107 3948,-38 3865,-38"/>
<text text-anchor="middle" x="3906.5" y="-91.8" font-family="Times,serif" font-size="14.00">NavInsID</text>
<polyline fill="none" stroke="cadetblue" points="3865,-84 3948,-84 "/>
<text text-anchor="start" x="3873" y="-68.8" font-family="Times,serif" font-size="14.00">name</text>
<polyline fill="none" stroke="cadetblue" points="3865,-61 3948,-61 "/>
<text text-anchor="middle" x="3906.5" y="-45.8" font-family="Times,serif" font-size="14.00"> </text>
</g>
<!-- ragger.navigator.navigator.NavInsID&#45;&gt;ragger.navigator.navigator.NavIns -->
<g id="edge12" class="edge">
<title>ragger.navigator.navigator.NavInsID&#45;&gt;ragger.navigator.navigator.NavIns</title>
<path fill="none" stroke="black" d="M3906.5,-107.16C3906.5,-138.02 3906.5,-184.48 3906.5,-221.89"/>
<polygon fill="black" stroke="black" points="3906.5,-222.19 3910.5,-228.19 3906.5,-234.19 3902.5,-228.19 3906.5,-222.19"/>
<text text-anchor="middle" x="3913.5" y="-166.8" font-family="Times,serif" font-size="14.00" fill="green">id</text>
</g>
<!-- ragger.utils.structs.RAPDU -->
<g id="node19" class="node">
<title>ragger.utils.structs.RAPDU</title>
<polygon fill="chartreuse" stroke="chartreuse" points="1642,-30.5 1642,-114.5 1743,-114.5 1743,-30.5 1642,-30.5"/>
<text text-anchor="middle" x="1692.5" y="-99.3" font-family="Times,serif" font-size="14.00">RAPDU</text>
<polyline fill="none" stroke="chartreuse" points="1642,-91.5 1743,-91.5 "/>
<text text-anchor="start" x="1650" y="-76.3" font-family="Times,serif" font-size="14.00">data : bytes</text>
<text text-anchor="start" x="1650" y="-61.3" font-family="Times,serif" font-size="14.00">status : int</text>
<polyline fill="none" stroke="chartreuse" points="1642,-53.5 1743,-53.5 "/>
<text text-anchor="middle" x="1692.5" y="-38.3" font-family="Times,serif" font-size="14.00"> </text>
</g>
<!-- ragger.utils.structs.RAPDU&#45;&gt;ragger.backend.ledgercomm.LedgerCommBackend -->
<g id="edge13" class="edge">
<title>ragger.utils.structs.RAPDU&#45;&gt;ragger.backend.ledgercomm.LedgerCommBackend</title>
<path fill="none" stroke="black" d="M1666.63,-114.85C1657.31,-126.45 1645.76,-137.85 1632.5,-145 1612.59,-155.74 1274.53,-187.54 1200.7,-195.83"/>
<polygon fill="black" stroke="black" points="1200.64,-195.84 1195.17,-200.54 1188.73,-197.29 1194.2,-192.59 1200.64,-195.84"/>
<text text-anchor="middle" x="1588.5" y="-166.8" font-family="Times,serif" font-size="14.00" fill="green">_last_async_response</text>
</g>
<!-- ragger.utils.structs.RAPDU&#45;&gt;ragger.backend.ledgerwallet.LedgerWalletBackend -->
<g id="edge14" class="edge">
<title>ragger.utils.structs.RAPDU&#45;&gt;ragger.backend.ledgerwallet.LedgerWalletBackend</title>
<path fill="none" stroke="black" d="M1692.5,-114.89C1692.5,-134.78 1692.5,-159.56 1692.5,-183.92"/>
<polygon fill="black" stroke="black" points="1692.5,-184.21 1696.5,-190.21 1692.5,-196.21 1688.5,-190.21 1692.5,-184.21"/>
<text text-anchor="middle" x="1768.5" y="-166.8" font-family="Times,serif" font-size="14.00" fill="green">_last_async_response</text>
</g>
<!-- ragger.backend.speculos.SpeculosBackend -->
<g id="node22" class="node">
<title>ragger.backend.speculos.SpeculosBackend</title>
<polygon fill="antiquewhite" stroke="antiquewhite" points="2196.5,-197 2196.5,-371 3168.5,-371 3168.5,-197 2196.5,-197"/>
<text text-anchor="middle" x="2682.5" y="-355.8" font-family="Times,serif" font-size="14.00">SpeculosBackend</text>
<polyline fill="none" stroke="antiquewhite" points="2196.5,-348 3168.5,-348 "/>
<text text-anchor="start" x="2204.5" y="-332.8" font-family="Times,serif" font-size="14.00">url</text>
<polyline fill="none" stroke="antiquewhite" points="2196.5,-325 3168.5,-325 "/>
<text text-anchor="start" x="2204.5" y="-309.8" font-family="Times,serif" font-size="14.00">both_click(): None</text>
<text text-anchor="start" x="2204.5" y="-294.8" font-family="Times,serif" font-size="14.00">compare_screen_with_snapshot(golden_snap_path: Path, crop: Optional[Crop], tmp_snap_path: Optional[Path], golden_run: bool): bool</text>
<text text-anchor="start" x="2204.5" y="-279.8" font-family="Times,serif" font-size="14.00">exchange_async_raw(data: bytes): Generator[None, None, None]</text>
<text text-anchor="start" x="2204.5" y="-264.8" font-family="Times,serif" font-size="14.00">exchange_raw(data: bytes): RAPDU</text>
<text text-anchor="start" x="2204.5" y="-249.8" font-family="Times,serif" font-size="14.00">left_click(): None</text>
<text text-anchor="start" x="2204.5" y="-234.8" font-family="Times,serif" font-size="14.00">receive(): RAPDU</text>
<text text-anchor="start" x="2204.5" y="-219.8" font-family="Times,serif" font-size="14.00">right_click(): None</text>
<text text-anchor="start" x="2204.5" y="-204.8" font-family="Times,serif" font-size="14.00">send_raw(data: bytes): None</text>
</g>
<!-- ragger.utils.structs.RAPDU&#45;&gt;ragger.backend.speculos.SpeculosBackend -->
<g id="edge15" class="edge">
<title>ragger.utils.structs.RAPDU&#45;&gt;ragger.backend.speculos.SpeculosBackend</title>
<path fill="none" stroke="black" d="M1726.05,-114.86C1737.63,-126.47 1751.5,-137.86 1766.5,-145 1806.63,-164.11 2104.23,-186.4 2184.3,-195.76"/>
<polygon fill="black" stroke="black" points="2184.36,-195.77 2190.83,-192.57 2196.27,-197.31 2189.8,-200.51 2184.36,-195.77"/>
<text text-anchor="middle" x="2074.5" y="-166.8" font-family="Times,serif" font-size="14.00" fill="green">_last_async_response</text>
</g>
<!-- ragger.backend.interface.RaisePolicy -->
<g id="node20" class="node">
<title>ragger.backend.interface.RaisePolicy</title>
<polygon fill="antiquewhite" stroke="antiquewhite" points="3966.5,-38 3966.5,-107 4064.5,-107 4064.5,-38 3966.5,-38"/>
<text text-anchor="middle" x="4015.5" y="-91.8" font-family="Times,serif" font-size="14.00">RaisePolicy</text>
<polyline fill="none" stroke="antiquewhite" points="3966.5,-84 4064.5,-84 "/>
<text text-anchor="start" x="3974.5" y="-68.8" font-family="Times,serif" font-size="14.00">name</text>
<polyline fill="none" stroke="antiquewhite" points="3966.5,-61 4064.5,-61 "/>
<text text-anchor="middle" x="4015.5" y="-45.8" font-family="Times,serif" font-size="14.00"> </text>
</g>
<!-- ragger.bip.seed.Seed -->
<g id="node21" class="node">
<title>ragger.bip.seed.Seed</title>
<polygon fill="aquamarine" stroke="aquamarine" points="4082.5,-23 4082.5,-122 4528.5,-122 4528.5,-23 4082.5,-23"/>
<text text-anchor="middle" x="4305.5" y="-106.8" font-family="Times,serif" font-size="14.00">Seed</text>
<polyline fill="none" stroke="aquamarine" points="4082.5,-99 4528.5,-99 "/>
<text text-anchor="start" x="4090.5" y="-83.8" font-family="Times,serif" font-size="14.00">seed</text>
<polyline fill="none" stroke="aquamarine" points="4082.5,-76 4528.5,-76 "/>
<text text-anchor="start" x="4090.5" y="-60.8" font-family="Times,serif" font-size="14.00">from_mnemonic(mnemonic: str): &#39;Seed&#39;</text>
<text text-anchor="start" x="4090.5" y="-45.8" font-family="Times,serif" font-size="14.00">get_address(path: Union[bytes, ExtendedBip32Path]): bytes</text>
<text text-anchor="start" x="4090.5" y="-30.8" font-family="Times,serif" font-size="14.00">get_pubkey(path: Union[bytes, ExtendedBip32Path]): bytes</text>
</g>
<!-- ragger.backend.speculos.SpeculosBackend&#45;&gt;ragger.backend.interface.BackendInterface -->
<g id="edge3" class="edge">
<title>ragger.backend.speculos.SpeculosBackend&#45;&gt;ragger.backend.interface.BackendInterface</title>
<path fill="none" stroke="black" d="M2196.3,-370.94C2193.36,-371.3 2190.42,-371.65 2187.5,-372 1832.2,-414.26 1734.77,-365.94 1377.69,-422.85"/>
<polygon fill="none" stroke="black" points="1376.91,-419.43 1367.59,-424.48 1378.02,-426.34 1376.91,-419.43"/>
</g>
</g>
</svg>
