<?xml version="1.0" encoding="UTF-8" standalone="no"?>
<!DOCTYPE svg PUBLIC "-//W3C//DTD SVG 1.1//EN"
 "http://www.w3.org/Graphics/SVG/1.1/DTD/svg11.dtd">
<!-- Generated by graphviz version 2.43.0 (0)
 -->
<!-- Title: classes_generated_ragger_architecture Pages: 1 -->
<svg width="4073pt" height="818pt"
 viewBox="0.00 0.00 4072.50 818.00" xmlns="http://www.w3.org/2000/svg" xmlns:xlink="http://www.w3.org/1999/xlink">
<g id="graph0" class="graph" transform="scale(1 1) rotate(0) translate(4 814)">
<title>classes_generated_ragger_architecture</title>
<polygon fill="white" stroke="transparent" points="-4,4 -4,-814 4068.5,-814 4068.5,4 -4,4"/>
<!-- ragger.backend.interface.BackendInterface -->
<g id="node1" class="node">
<title>ragger.backend.interface.BackendInterface</title>
<polygon fill="antiquewhite" stroke="antiquewhite" points="395.5,-393.5 395.5,-657.5 1367.5,-657.5 1367.5,-393.5 395.5,-393.5"/>
<text text-anchor="middle" x="881.5" y="-642.3" font-family="Times,serif" font-size="14.00">BackendInterface</text>
<polyline fill="none" stroke="antiquewhite" points="395.5,-634.5 1367.5,-634.5 "/>
<text text-anchor="start" x="403.5" y="-619.3" font-family="Times,serif" font-size="14.00">firmware</text>
<text text-anchor="start" x="403.5" y="-604.3" font-family="Times,serif" font-size="14.00">last_async_response</text>
<text text-anchor="start" x="403.5" y="-589.3" font-family="Times,serif" font-size="14.00">raise_policy : RAISE_ALL_BUT_0x9000</text>
<polyline fill="none" stroke="antiquewhite" points="395.5,-581.5 1367.5,-581.5 "/>
<text text-anchor="start" x="403.5" y="-566.3" font-family="Times,serif" font-size="14.00">both_click(): None</text>
<text text-anchor="start" x="403.5" y="-551.3" font-family="Times,serif" font-size="14.00">compare_screen_with_snapshot(golden_snap_path: Path, crop: Optional[Crop], tmp_snap_path: Optional[Path], golden_run: bool): bool</text>
<text text-anchor="start" x="403.5" y="-536.3" font-family="Times,serif" font-size="14.00">exchange(cla: int, ins: int, p1: int, p2: int, data: bytes): RAPDU</text>
<text text-anchor="start" x="403.5" y="-521.3" font-family="Times,serif" font-size="14.00">exchange_async(cla: int, ins: int, p1: int, p2: int, data: bytes): Generator[None, None, None]</text>
<text text-anchor="start" x="403.5" y="-506.3" font-family="Times,serif" font-size="14.00">exchange_async_raw(data: bytes): Generator[None, None, None]</text>
<text text-anchor="start" x="403.5" y="-491.3" font-family="Times,serif" font-size="14.00">exchange_raw(data: bytes): RAPDU</text>
<text text-anchor="start" x="403.5" y="-476.3" font-family="Times,serif" font-size="14.00">is_raise_required(rapdu: RAPDU): bool</text>
<text text-anchor="start" x="403.5" y="-461.3" font-family="Times,serif" font-size="14.00">left_click(): None</text>
<text text-anchor="start" x="403.5" y="-446.3" font-family="Times,serif" font-size="14.00">receive(): RAPDU</text>
<text text-anchor="start" x="403.5" y="-431.3" font-family="Times,serif" font-size="14.00">right_click(): None</text>
<text text-anchor="start" x="403.5" y="-416.3" font-family="Times,serif" font-size="14.00">send(cla: int, ins: int, p1: int, p2: int, data: bytes): None</text>
<text text-anchor="start" x="403.5" y="-401.3" font-family="Times,serif" font-size="14.00">send_raw(data: bytes): None</text>
</g>
<!-- ragger.navigator.navigator.Navigator -->
<g id="node15" class="node">
<title>ragger.navigator.navigator.Navigator</title>
<polygon fill="cadetblue" stroke="cadetblue" points="0,-709.5 0,-809.5 1763,-809.5 1763,-709.5 0,-709.5"/>
<text text-anchor="middle" x="881.5" y="-794.3" font-family="Times,serif" font-size="14.00">Navigator</text>
<polyline fill="none" stroke="cadetblue" points="0,-786.5 1763,-786.5 "/>
<polyline fill="none" stroke="cadetblue" points="0,-762.5 1763,-762.5 "/>
<text text-anchor="start" x="8" y="-747.3" font-family="Times,serif" font-size="14.00">navigate(instructions: List[NavIns])</text>
<text text-anchor="start" x="8" y="-732.3" font-family="Times,serif" font-size="14.00">navigate_and_compare(path: Path, test_case_name: Path, instructions: List[NavIns], first_instruction_wait: float, middle_instruction_wait: float, last_instruction_wait: float): None</text>
<text text-anchor="start" x="8" y="-717.3" font-family="Times,serif" font-size="14.00">navigate_until_snap(navigate_instruction: NavIns, validation_instruction: NavIns, path: Path, test_case_name: Path, start_img_name: str, last_img_name: str, take_snaps: bool, timeout: int, crop_first: Optional[Crop], crop_last: Optional[Crop]): int</text>
</g>
<!-- ragger.backend.interface.BackendInterface&#45;&gt;ragger.navigator.navigator.Navigator -->
<g id="edge9" class="edge">
<title>ragger.backend.interface.BackendInterface&#45;&gt;ragger.navigator.navigator.Navigator</title>
<path fill="none" stroke="black" d="M881.5,-657.75C881.5,-671.37 881.5,-684.71 881.5,-696.99"/>
<polygon fill="black" stroke="black" points="881.5,-697.37 885.5,-703.37 881.5,-709.37 877.5,-703.37 881.5,-697.37"/>
<text text-anchor="middle" x="915" y="-679.8" font-family="Times,serif" font-size="14.00" fill="green">_backend</text>
</g>
<!-- ragger.bip.path.BtcDerivationPathFormat -->
<g id="node2" class="node">
<title>ragger.bip.path.BtcDerivationPathFormat</title>
<polygon fill="aquamarine" stroke="aquamarine" points="1818.5,-23 1818.5,-92 2018.5,-92 2018.5,-23 1818.5,-23"/>
<text text-anchor="middle" x="1918.5" y="-76.8" font-family="Times,serif" font-size="14.00">BtcDerivationPathFormat</text>
<polyline fill="none" stroke="aquamarine" points="1818.5,-69 2018.5,-69 "/>
<text text-anchor="start" x="1826.5" y="-53.8" font-family="Times,serif" font-size="14.00">name</text>
<polyline fill="none" stroke="aquamarine" points="1818.5,-46 2018.5,-46 "/>
<text text-anchor="middle" x="1918.5" y="-30.8" font-family="Times,serif" font-size="14.00"> </text>
</g>
<!-- ragger.utils.structs.Crop -->
<g id="node3" class="node">
<title>ragger.utils.structs.Crop</title>
<polygon fill="chartreuse" stroke="chartreuse" points="2488.5,-0.5 2488.5,-114.5 2580.5,-114.5 2580.5,-0.5 2488.5,-0.5"/>
<text text-anchor="middle" x="2534.5" y="-99.3" font-family="Times,serif" font-size="14.00">Crop</text>
<polyline fill="none" stroke="chartreuse" points="2488.5,-91.5 2580.5,-91.5 "/>
<text text-anchor="start" x="2496.5" y="-76.3" font-family="Times,serif" font-size="14.00">left : int</text>
<text text-anchor="start" x="2496.5" y="-61.3" font-family="Times,serif" font-size="14.00">lower : int</text>
<text text-anchor="start" x="2496.5" y="-46.3" font-family="Times,serif" font-size="14.00">right : int</text>
<text text-anchor="start" x="2496.5" y="-31.3" font-family="Times,serif" font-size="14.00">upper : int</text>
<polyline fill="none" stroke="chartreuse" points="2488.5,-23.5 2580.5,-23.5 "/>
<text text-anchor="middle" x="2534.5" y="-8.3" font-family="Times,serif" font-size="14.00"> </text>
</g>
<!-- ragger.bip.seed.CurveChoice -->
<g id="node4" class="node">
<title>ragger.bip.seed.CurveChoice</title>
<polygon fill="aquamarine" stroke="aquamarine" points="2825,-23 2825,-92 2932,-92 2932,-23 2825,-23"/>
<text text-anchor="middle" x="2878.5" y="-76.8" font-family="Times,serif" font-size="14.00">CurveChoice</text>
<polyline fill="none" stroke="aquamarine" points="2825,-69 2932,-69 "/>
<text text-anchor="start" x="2833" y="-53.8" font-family="Times,serif" font-size="14.00">name</text>
<polyline fill="none" stroke="aquamarine" points="2825,-46 2932,-46 "/>
<text text-anchor="middle" x="2878.5" y="-30.8" font-family="Times,serif" font-size="14.00"> </text>
</g>
<!-- ragger.error.ExceptionRAPDU -->
<g id="node5" class="node">
<title>ragger.error.ExceptionRAPDU</title>
<polygon fill="aliceblue" stroke="aliceblue" points="3063,-15.5 3063,-99.5 3204,-99.5 3204,-15.5 3063,-15.5"/>
<text text-anchor="middle" x="3133.5" y="-84.3" font-family="Times,serif" font-size="14.00" fill="red">ExceptionRAPDU</text>
<polyline fill="none" stroke="aliceblue" points="3063,-76.5 3204,-76.5 "/>
<text text-anchor="start" x="3071" y="-61.3" font-family="Times,serif" font-size="14.00" fill="red">data : bytes</text>
<text text-anchor="start" x="3071" y="-46.3" font-family="Times,serif" font-size="14.00" fill="red">status : int</text>
<polyline fill="none" stroke="aliceblue" points="3063,-38.5 3204,-38.5 "/>
<text text-anchor="middle" x="3133.5" y="-23.3" font-family="Times,serif" font-size="14.00" fill="red"> </text>
</g>
<!-- ragger.firmware.structs.Firmware -->
<g id="node6" class="node">
<title>ragger.firmware.structs.Firmware</title>
<polygon fill="burlywood" stroke="burlywood" points="112.5,-219 112.5,-289 198.5,-289 198.5,-219 112.5,-219"/>
<text text-anchor="middle" x="155.5" y="-273.8" font-family="Times,serif" font-size="14.00">Firmware</text>
<polyline fill="none" stroke="burlywood" points="112.5,-266 198.5,-266 "/>
<polyline fill="none" stroke="burlywood" points="112.5,-242 198.5,-242 "/>
<text text-anchor="middle" x="155.5" y="-226.8" font-family="Times,serif" font-size="14.00"> </text>
</g>
<!-- ragger.firmware.structs.Firmware&#45;&gt;ragger.backend.interface.BackendInterface -->
<g id="edge10" class="edge">
<title>ragger.firmware.structs.Firmware&#45;&gt;ragger.backend.interface.BackendInterface</title>
<path fill="none" stroke="black" d="M168.44,-289.16C176.95,-307.33 189.83,-328.61 207.5,-342 210.06,-343.94 284.61,-364.55 383.28,-391.27"/>
<polygon fill="black" stroke="black" points="383.52,-391.33 390.36,-389.04 395.11,-394.47 388.27,-396.76 383.52,-391.33"/>
<text text-anchor="middle" x="345.5" y="-363.8" font-family="Times,serif" font-size="14.00" fill="green">_firmware</text>
</g>
<!-- ragger.firmware.structs.Firmware&#45;&gt;ragger.navigator.navigator.Navigator -->
<g id="edge11" class="edge">
<title>ragger.firmware.structs.Firmware&#45;&gt;ragger.navigator.navigator.Navigator</title>
<path fill="none" stroke="black" d="M123.06,-289.26C100.65,-315.41 72.76,-353.56 60.5,-393 25.53,-505.47 -17.56,-569.8 60.5,-658 77.82,-677.57 151.67,-694.13 248.49,-707.82"/>
<polygon fill="black" stroke="black" points="248.53,-707.83 255.02,-704.69 260.42,-709.48 253.92,-712.61 248.53,-707.83"/>
<text text-anchor="middle" x="96.5" y="-521.8" font-family="Times,serif" font-size="14.00" fill="green">_firmware</text>
</g>
<!-- ragger.firmware.structs._Firmware -->
<g id="node20" class="node">
<title>ragger.firmware.structs._Firmware</title>
<polygon fill="burlywood" stroke="burlywood" points="142,-476 142,-575 377,-575 377,-476 142,-476"/>
<text text-anchor="middle" x="259.5" y="-559.8" font-family="Times,serif" font-size="14.00">_Firmware</text>
<polyline fill="none" stroke="burlywood" points="142,-552 377,-552 "/>
<text text-anchor="start" x="150" y="-536.8" font-family="Times,serif" font-size="14.00">device : str</text>
<text text-anchor="start" x="150" y="-521.8" font-family="Times,serif" font-size="14.00">semantic_version : VersionInfo</text>
<text text-anchor="start" x="150" y="-506.8" font-family="Times,serif" font-size="14.00">version : str</text>
<polyline fill="none" stroke="burlywood" points="142,-499 377,-499 "/>
<text text-anchor="middle" x="259.5" y="-483.8" font-family="Times,serif" font-size="14.00"> </text>
</g>
<!-- ragger.firmware.structs.Firmware&#45;&gt;ragger.firmware.structs._Firmware -->
<g id="edge4" class="edge">
<title>ragger.firmware.structs.Firmware&#45;&gt;ragger.firmware.structs._Firmware</title>
<path fill="none" stroke="black" d="M168.67,-289.13C185.84,-333.63 216.13,-412.12 236.98,-466.15"/>
<polygon fill="none" stroke="black" points="233.77,-467.54 240.63,-475.61 240.3,-465.02 233.77,-467.54"/>
</g>
<!-- ragger.backend.ledgercomm.LedgerCommBackend -->
<g id="node7" class="node">
<title>ragger.backend.ledgercomm.LedgerCommBackend</title>
<polygon fill="antiquewhite" stroke="antiquewhite" points="216.5,-166.5 216.5,-341.5 1188.5,-341.5 1188.5,-166.5 216.5,-166.5"/>
<text text-anchor="middle" x="702.5" y="-326.3" font-family="Times,serif" font-size="14.00">LedgerCommBackend</text>
<polyline fill="none" stroke="antiquewhite" points="216.5,-318.5 1188.5,-318.5 "/>
<polyline fill="none" stroke="antiquewhite" points="216.5,-294.5 1188.5,-294.5 "/>
<text text-anchor="start" x="224.5" y="-279.3" font-family="Times,serif" font-size="14.00">both_click(): None</text>
<text text-anchor="start" x="224.5" y="-264.3" font-family="Times,serif" font-size="14.00">compare_screen_with_snapshot(golden_snap_path: Path, crop: Optional[Crop], tmp_snap_path: Optional[Path], golden_run: bool): bool</text>
<text text-anchor="start" x="224.5" y="-249.3" font-family="Times,serif" font-size="14.00">exchange_async_raw(data: bytes): Generator[None, None, None]</text>
<text text-anchor="start" x="224.5" y="-234.3" font-family="Times,serif" font-size="14.00">exchange_raw(data: bytes): RAPDU</text>
<text text-anchor="start" x="224.5" y="-219.3" font-family="Times,serif" font-size="14.00">left_click(): None</text>
<text text-anchor="start" x="224.5" y="-204.3" font-family="Times,serif" font-size="14.00">receive(): RAPDU</text>
<text text-anchor="start" x="224.5" y="-189.3" font-family="Times,serif" font-size="14.00">right_click(): None</text>
<text text-anchor="start" x="224.5" y="-174.3" font-family="Times,serif" font-size="14.00">send_raw(data: bytes): None</text>
</g>
<!-- ragger.backend.ledgercomm.LedgerCommBackend&#45;&gt;ragger.backend.interface.BackendInterface -->
<g id="edge1" class="edge">
<title>ragger.backend.ledgercomm.LedgerCommBackend&#45;&gt;ragger.backend.interface.BackendInterface</title>
<path fill="none" stroke="black" d="M760.12,-341.75C769.26,-355.52 778.92,-370.05 788.62,-384.66"/>
<polygon fill="none" stroke="black" points="785.89,-386.88 794.34,-393.27 791.72,-383 785.89,-386.88"/>
</g>
<!-- ragger.backend.ledgerwallet.LedgerWalletBackend -->
<g id="node8" class="node">
<title>ragger.backend.ledgerwallet.LedgerWalletBackend</title>
<polygon fill="antiquewhite" stroke="antiquewhite" points="1206.5,-166.5 1206.5,-341.5 2178.5,-341.5 2178.5,-166.5 1206.5,-166.5"/>
<text text-anchor="middle" x="1692.5" y="-326.3" font-family="Times,serif" font-size="14.00">LedgerWalletBackend</text>
<polyline fill="none" stroke="antiquewhite" points="1206.5,-318.5 2178.5,-318.5 "/>
<polyline fill="none" stroke="antiquewhite" points="1206.5,-294.5 2178.5,-294.5 "/>
<text text-anchor="start" x="1214.5" y="-279.3" font-family="Times,serif" font-size="14.00">both_click(): None</text>
<text text-anchor="start" x="1214.5" y="-264.3" font-family="Times,serif" font-size="14.00">compare_screen_with_snapshot(golden_snap_path: Path, crop: Optional[Crop], tmp_snap_path: Optional[Path], golden_run: bool): bool</text>
<text text-anchor="start" x="1214.5" y="-249.3" font-family="Times,serif" font-size="14.00">exchange_async_raw(data: bytes): Generator[None, None, None]</text>
<text text-anchor="start" x="1214.5" y="-234.3" font-family="Times,serif" font-size="14.00">exchange_raw(data: bytes): RAPDU</text>
<text text-anchor="start" x="1214.5" y="-219.3" font-family="Times,serif" font-size="14.00">left_click(): None</text>
<text text-anchor="start" x="1214.5" y="-204.3" font-family="Times,serif" font-size="14.00">receive(): RAPDU</text>
<text text-anchor="start" x="1214.5" y="-189.3" font-family="Times,serif" font-size="14.00">right_click(): None</text>
<text text-anchor="start" x="1214.5" y="-174.3" font-family="Times,serif" font-size="14.00">send_raw(data: bytes): None</text>
</g>
<!-- ragger.backend.ledgerwallet.LedgerWalletBackend&#45;&gt;ragger.backend.interface.BackendInterface -->
<g id="edge2" class="edge">
<title>ragger.backend.ledgerwallet.LedgerWalletBackend&#45;&gt;ragger.backend.interface.BackendInterface</title>
<path fill="none" stroke="black" d="M1431.99,-341.57C1385.1,-357.15 1335.24,-373.72 1285.41,-390.28"/>
<polygon fill="none" stroke="black" points="1284.16,-387.01 1275.77,-393.48 1286.37,-393.65 1284.16,-387.01"/>
</g>
<!-- ragger.navigator.nano_navigator.NanoNavigator -->
<g id="node9" class="node">
<title>ragger.navigator.nano_navigator.NanoNavigator</title>
<polygon fill="cadetblue" stroke="cadetblue" points="1386,-490.5 1386,-560.5 1511,-560.5 1511,-490.5 1386,-490.5"/>
<text text-anchor="middle" x="1448.5" y="-545.3" font-family="Times,serif" font-size="14.00">NanoNavigator</text>
<polyline fill="none" stroke="cadetblue" points="1386,-537.5 1511,-537.5 "/>
<polyline fill="none" stroke="cadetblue" points="1386,-513.5 1511,-513.5 "/>
<text text-anchor="middle" x="1448.5" y="-498.3" font-family="Times,serif" font-size="14.00"> </text>
</g>
<!-- ragger.navigator.nano_navigator.NanoNavigator&#45;&gt;ragger.navigator.navigator.Navigator -->
<g id="edge8" class="edge">
<title>ragger.navigator.nano_navigator.NanoNavigator&#45;&gt;ragger.navigator.navigator.Navigator</title>
<path fill="none" stroke="black" d="M1438.89,-560.58C1428.52,-590.91 1408.98,-634.07 1376.5,-658 1350.53,-677.13 1298.62,-693.57 1237.81,-707.28"/>
<polygon fill="none" stroke="black" points="1236.98,-703.88 1227.97,-709.46 1238.49,-710.71 1236.98,-703.88"/>
</g>
<!-- ragger.firmware.versions.NanoSPVersions -->
<g id="node10" class="node">
<title>ragger.firmware.versions.NanoSPVersions</title>
<polygon fill="burlywood" stroke="burlywood" points="3278.5,-23 3278.5,-92 3412.5,-92 3412.5,-23 3278.5,-23"/>
<text text-anchor="middle" x="3345.5" y="-76.8" font-family="Times,serif" font-size="14.00">NanoSPVersions</text>
<polyline fill="none" stroke="burlywood" points="3278.5,-69 3412.5,-69 "/>
<text text-anchor="start" x="3286.5" y="-53.8" font-family="Times,serif" font-size="14.00">name</text>
<polyline fill="none" stroke="burlywood" points="3278.5,-46 3412.5,-46 "/>
<text text-anchor="middle" x="3345.5" y="-30.8" font-family="Times,serif" font-size="14.00"> </text>
</g>
<!-- ragger.firmware.versions.VersionManager -->
<g id="node19" class="node">
<title>ragger.firmware.versions.VersionManager</title>
<polygon fill="burlywood" stroke="burlywood" points="3186.5,-212 3186.5,-296 3800.5,-296 3800.5,-212 3186.5,-212"/>
<text text-anchor="middle" x="3493.5" y="-280.8" font-family="Times,serif" font-size="14.00">VersionManager</text>
<polyline fill="none" stroke="burlywood" points="3186.5,-273 3800.5,-273 "/>
<text text-anchor="start" x="3194.5" y="-257.8" font-family="Times,serif" font-size="14.00">name</text>
<polyline fill="none" stroke="burlywood" points="3186.5,-250 3800.5,-250 "/>
<text text-anchor="start" x="3194.5" y="-234.8" font-family="Times,serif" font-size="14.00">get_last(major: Optional[int], minor: Optional[int], patch: Optional[int]): VersionInfo</text>
<text text-anchor="start" x="3194.5" y="-219.8" font-family="Times,serif" font-size="14.00">get_last_from_string(version: str): VersionInfo</text>
</g>
<!-- ragger.firmware.versions.NanoSPVersions&#45;&gt;ragger.firmware.versions.VersionManager -->
<g id="edge5" class="edge">
<title>ragger.firmware.versions.NanoSPVersions&#45;&gt;ragger.firmware.versions.VersionManager</title>
<path fill="none" stroke="black" d="M3371.28,-92.38C3394.66,-123.11 3429.43,-168.8 3455.91,-203.6"/>
<polygon fill="none" stroke="black" points="3453.27,-205.91 3462.11,-211.74 3458.84,-201.67 3453.27,-205.91"/>
</g>
<!-- ragger.firmware.versions.NanoSVersions -->
<g id="node11" class="node">
<title>ragger.firmware.versions.NanoSVersions</title>
<polygon fill="burlywood" stroke="burlywood" points="3431,-23 3431,-92 3556,-92 3556,-23 3431,-23"/>
<text text-anchor="middle" x="3493.5" y="-76.8" font-family="Times,serif" font-size="14.00">NanoSVersions</text>
<polyline fill="none" stroke="burlywood" points="3431,-69 3556,-69 "/>
<text text-anchor="start" x="3439" y="-53.8" font-family="Times,serif" font-size="14.00">name</text>
<polyline fill="none" stroke="burlywood" points="3431,-46 3556,-46 "/>
<text text-anchor="middle" x="3493.5" y="-30.8" font-family="Times,serif" font-size="14.00"> </text>
</g>
<!-- ragger.firmware.versions.NanoSVersions&#45;&gt;ragger.firmware.versions.VersionManager -->
<g id="edge6" class="edge">
<title>ragger.firmware.versions.NanoSVersions&#45;&gt;ragger.firmware.versions.VersionManager</title>
<path fill="none" stroke="black" d="M3493.5,-92.38C3493.5,-122.46 3493.5,-166.88 3493.5,-201.38"/>
<polygon fill="none" stroke="black" points="3490,-201.74 3493.5,-211.74 3497,-201.74 3490,-201.74"/>
</g>
<!-- ragger.firmware.versions.NanoXVersions -->
<g id="node12" class="node">
<title>ragger.firmware.versions.NanoXVersions</title>
<polygon fill="burlywood" stroke="burlywood" points="3574,-23 3574,-92 3699,-92 3699,-23 3574,-23"/>
<text text-anchor="middle" x="3636.5" y="-76.8" font-family="Times,serif" font-size="14.00">NanoXVersions</text>
<polyline fill="none" stroke="burlywood" points="3574,-69 3699,-69 "/>
<text text-anchor="start" x="3582" y="-53.8" font-family="Times,serif" font-size="14.00">name</text>
<polyline fill="none" stroke="burlywood" points="3574,-46 3699,-46 "/>
<text text-anchor="middle" x="3636.5" y="-30.8" font-family="Times,serif" font-size="14.00"> </text>
</g>
<!-- ragger.firmware.versions.NanoXVersions&#45;&gt;ragger.firmware.versions.VersionManager -->
<g id="edge7" class="edge">
<title>ragger.firmware.versions.NanoXVersions&#45;&gt;ragger.firmware.versions.VersionManager</title>
<path fill="none" stroke="black" d="M3611.59,-92.38C3589,-123.11 3555.41,-168.8 3529.82,-203.6"/>
<polygon fill="none" stroke="black" points="3526.94,-201.61 3523.83,-211.74 3532.58,-205.76 3526.94,-201.61"/>
</g>
<!-- ragger.navigator.navigator.NavIns -->
<g id="node13" class="node">
<title>ragger.navigator.navigator.NavIns</title>
<polygon fill="cadetblue" stroke="cadetblue" points="3818.5,-204.5 3818.5,-303.5 3994.5,-303.5 3994.5,-204.5 3818.5,-204.5"/>
<text text-anchor="middle" x="3906.5" y="-288.3" font-family="Times,serif" font-size="14.00">NavIns</text>
<polyline fill="none" stroke="cadetblue" points="3818.5,-280.5 3994.5,-280.5 "/>
<text text-anchor="start" x="3826.5" y="-265.3" font-family="Times,serif" font-size="14.00">args : tuple</text>
<text text-anchor="start" x="3826.5" y="-250.3" font-family="Times,serif" font-size="14.00">id</text>
<text text-anchor="start" x="3826.5" y="-235.3" font-family="Times,serif" font-size="14.00">kwargs : Dict[str, Any]</text>
<polyline fill="none" stroke="cadetblue" points="3818.5,-227.5 3994.5,-227.5 "/>
<text text-anchor="middle" x="3906.5" y="-212.3" font-family="Times,serif" font-size="14.00"> </text>
</g>
<!-- ragger.navigator.navigator.NavInsID -->
<g id="node14" class="node">
<title>ragger.navigator.navigator.NavInsID</title>
<polygon fill="cadetblue" stroke="cadetblue" points="3865,-23 3865,-92 3948,-92 3948,-23 3865,-23"/>
<text text-anchor="middle" x="3906.5" y="-76.8" font-family="Times,serif" font-size="14.00">NavInsID</text>
<polyline fill="none" stroke="cadetblue" points="3865,-69 3948,-69 "/>
<text text-anchor="start" x="3873" y="-53.8" font-family="Times,serif" font-size="14.00">name</text>
<polyline fill="none" stroke="cadetblue" points="3865,-46 3948,-46 "/>
<text text-anchor="middle" x="3906.5" y="-30.8" font-family="Times,serif" font-size="14.00"> </text>
</g>
<!-- ragger.navigator.navigator.NavInsID&#45;&gt;ragger.navigator.navigator.NavIns -->
<g id="edge12" class="edge">
<title>ragger.navigator.navigator.NavInsID&#45;&gt;ragger.navigator.navigator.NavIns</title>
<path fill="none" stroke="black" d="M3906.5,-92.38C3906.5,-119.79 3906.5,-159.09 3906.5,-191.96"/>
<polygon fill="black" stroke="black" points="3906.5,-192.2 3910.5,-198.2 3906.5,-204.2 3902.5,-198.2 3906.5,-192.2"/>
<text text-anchor="middle" x="3913.5" y="-136.8" font-family="Times,serif" font-size="14.00" fill="green">id</text>
</g>
<!-- ragger.utils.structs.RAPDU -->
<g id="node16" class="node">
<title>ragger.utils.structs.RAPDU</title>
<polygon fill="chartreuse" stroke="chartreuse" points="1642,-15.5 1642,-99.5 1743,-99.5 1743,-15.5 1642,-15.5"/>
<text text-anchor="middle" x="1692.5" y="-84.3" font-family="Times,serif" font-size="14.00">RAPDU</text>
<polyline fill="none" stroke="chartreuse" points="1642,-76.5 1743,-76.5 "/>
<text text-anchor="start" x="1650" y="-61.3" font-family="Times,serif" font-size="14.00">data : bytes</text>
<text text-anchor="start" x="1650" y="-46.3" font-family="Times,serif" font-size="14.00">status : int</text>
<polyline fill="none" stroke="chartreuse" points="1642,-38.5 1743,-38.5 "/>
<text text-anchor="middle" x="1692.5" y="-23.3" font-family="Times,serif" font-size="14.00"> </text>
</g>
<!-- ragger.utils.structs.RAPDU&#45;&gt;ragger.backend.ledgercomm.LedgerCommBackend -->
<g id="edge13" class="edge">
<title>ragger.utils.structs.RAPDU&#45;&gt;ragger.backend.ledgercomm.LedgerCommBackend</title>
<path fill="none" stroke="black" d="M1641.7,-68.48C1549.92,-86.51 1347.98,-126.19 1154.78,-164.14"/>
<polygon fill="black" stroke="black" points="1154.73,-164.15 1149.61,-169.23 1142.96,-166.47 1148.07,-161.38 1154.73,-164.15"/>
<text text-anchor="middle" x="1362.5" y="-136.8" font-family="Times,serif" font-size="14.00" fill="green">_last_async_response</text>
</g>
<!-- ragger.utils.structs.RAPDU&#45;&gt;ragger.backend.ledgerwallet.LedgerWalletBackend -->
<g id="edge14" class="edge">
<title>ragger.utils.structs.RAPDU&#45;&gt;ragger.backend.ledgerwallet.LedgerWalletBackend</title>
<path fill="none" stroke="black" d="M1692.5,-99.75C1692.5,-115.74 1692.5,-134.8 1692.5,-153.95"/>
<polygon fill="black" stroke="black" points="1692.5,-154.18 1696.5,-160.18 1692.5,-166.18 1688.5,-160.18 1692.5,-154.18"/>
<text text-anchor="middle" x="1768.5" y="-136.8" font-family="Times,serif" font-size="14.00" fill="green">_last_async_response</text>
</g>
<!-- ragger.backend.speculos.SpeculosBackend -->
<g id="node18" class="node">
<title>ragger.backend.speculos.SpeculosBackend</title>
<polygon fill="antiquewhite" stroke="antiquewhite" points="2196.5,-167 2196.5,-341 3168.5,-341 3168.5,-167 2196.5,-167"/>
<text text-anchor="middle" x="2682.5" y="-325.8" font-family="Times,serif" font-size="14.00">SpeculosBackend</text>
<polyline fill="none" stroke="antiquewhite" points="2196.5,-318 3168.5,-318 "/>
<text text-anchor="start" x="2204.5" y="-302.8" font-family="Times,serif" font-size="14.00">url</text>
<polyline fill="none" stroke="antiquewhite" points="2196.5,-295 3168.5,-295 "/>
<text text-anchor="start" x="2204.5" y="-279.8" font-family="Times,serif" font-size="14.00">both_click(): None</text>
<text text-anchor="start" x="2204.5" y="-264.8" font-family="Times,serif" font-size="14.00">compare_screen_with_snapshot(golden_snap_path: Path, crop: Optional[Crop], tmp_snap_path: Optional[Path], golden_run: bool): bool</text>
<text text-anchor="start" x="2204.5" y="-249.8" font-family="Times,serif" font-size="14.00">exchange_async_raw(data: bytes): Generator[None, None, None]</text>
<text text-anchor="start" x="2204.5" y="-234.8" font-family="Times,serif" font-size="14.00">exchange_raw(data: bytes): RAPDU</text>
<text text-anchor="start" x="2204.5" y="-219.8" font-family="Times,serif" font-size="14.00">left_click(): None</text>
<text text-anchor="start" x="2204.5" y="-204.8" font-family="Times,serif" font-size="14.00">receive(): RAPDU</text>
<text text-anchor="start" x="2204.5" y="-189.8" font-family="Times,serif" font-size="14.00">right_click(): None</text>
<text text-anchor="start" x="2204.5" y="-174.8" font-family="Times,serif" font-size="14.00">send_raw(data: bytes): None</text>
</g>
<!-- ragger.utils.structs.RAPDU&#45;&gt;ragger.backend.speculos.SpeculosBackend -->
<g id="edge15" class="edge">
<title>ragger.utils.structs.RAPDU&#45;&gt;ragger.backend.speculos.SpeculosBackend</title>
<path fill="none" stroke="black" d="M1743.21,-87.31C1763.29,-97.55 1786.93,-108.21 1809.5,-115 1968.12,-162.68 2017.72,-141.04 2184.32,-165.56"/>
<polygon fill="black" stroke="black" points="2184.39,-165.57 2190.92,-162.51 2196.26,-167.37 2189.73,-170.42 2184.39,-165.57"/>
<text text-anchor="middle" x="2053.5" y="-136.8" font-family="Times,serif" font-size="14.00" fill="green">_last_async_response</text>
</g>
<!-- ragger.backend.interface.RaisePolicy -->
<g id="node17" class="node">
<title>ragger.backend.interface.RaisePolicy</title>
<polygon fill="antiquewhite" stroke="antiquewhite" points="3966.5,-23 3966.5,-92 4064.5,-92 4064.5,-23 3966.5,-23"/>
<text text-anchor="middle" x="4015.5" y="-76.8" font-family="Times,serif" font-size="14.00">RaisePolicy</text>
<polyline fill="none" stroke="antiquewhite" points="3966.5,-69 4064.5,-69 "/>
<text text-anchor="start" x="3974.5" y="-53.8" font-family="Times,serif" font-size="14.00">name</text>
<polyline fill="none" stroke="antiquewhite" points="3966.5,-46 4064.5,-46 "/>
<text text-anchor="middle" x="4015.5" y="-30.8" font-family="Times,serif" font-size="14.00"> </text>
</g>
<!-- ragger.backend.speculos.SpeculosBackend&#45;&gt;ragger.backend.interface.BackendInterface -->
<g id="edge3" class="edge">
<title>ragger.backend.speculos.SpeculosBackend&#45;&gt;ragger.backend.interface.BackendInterface</title>
<path fill="none" stroke="black" d="M2196.3,-340.94C2193.36,-341.3 2190.42,-341.65 2187.5,-342 1832.2,-384.26 1734.77,-335.94 1377.69,-392.85"/>
<polygon fill="none" stroke="black" points="1376.91,-389.43 1367.59,-394.48 1378.02,-396.34 1376.91,-389.43"/>
</g>
</g>
</svg>
