<?xml version="1.0" encoding="UTF-8" standalone="no"?>
<!DOCTYPE svg PUBLIC "-//W3C//DTD SVG 1.1//EN"
 "http://www.w3.org/Graphics/SVG/1.1/DTD/svg11.dtd">
<!-- Generated by graphviz version 2.43.0 (0)
 -->
<!-- Title: packages_generated_ragger_architecture Pages: 1 -->
<svg width="2758pt" height="980pt"
 viewBox="0.00 0.00 2757.50 980.00" xmlns="http://www.w3.org/2000/svg" xmlns:xlink="http://www.w3.org/1999/xlink">
<g id="graph0" class="graph" transform="scale(1 1) rotate(0) translate(4 976)">
<title>packages_generated_ragger_architecture</title>
<polygon fill="white" stroke="transparent" points="-4,4 -4,-976 2753.5,-976 2753.5,4 -4,4"/>
<!-- ragger -->
<g id="node1" class="node">
<title>ragger</title>
<polygon fill="#77aadd" stroke="#77aadd" points="106,-36 41,-36 41,0 106,0 106,-36"/>
<text text-anchor="middle" x="73.5" y="-14.3" font-family="Times,serif" font-size="14.00">ragger</text>
</g>
<!-- ragger.__version__ -->
<g id="node2" class="node">
<title>ragger.__version__</title>
<polygon fill="#77aadd" stroke="#77aadd" points="147,-108 0,-108 0,-72 147,-72 147,-108"/>
<text text-anchor="middle" x="73.5" y="-86.3" font-family="Times,serif" font-size="14.00">ragger.__version__</text>
</g>
<!-- ragger&#45;&gt;ragger.__version__ -->
<g id="edge1" class="edge">
<title>ragger&#45;&gt;ragger.__version__</title>
<path fill="none" stroke="black" d="M73.5,-36.3C73.5,-44.02 73.5,-53.29 73.5,-61.89"/>
<polygon fill="black" stroke="black" points="73.5,-71.9 69,-61.9 73.5,-66.9 73.5,-61.9 73.5,-61.9 73.5,-61.9 73.5,-66.9 78,-61.9 73.5,-71.9 73.5,-71.9"/>
</g>
<!-- ragger.backend -->
<g id="node3" class="node">
<title>ragger.backend</title>
<polygon fill="#99ddff" stroke="#99ddff" points="1430,-540 1303,-540 1303,-504 1430,-504 1430,-540"/>
<text text-anchor="middle" x="1366.5" y="-518.3" font-family="Times,serif" font-size="14.00">ragger.backend</text>
</g>
<!-- ragger.backend.interface -->
<g id="node4" class="node">
<title>ragger.backend.interface</title>
<polygon fill="#99ddff" stroke="#99ddff" points="1672,-756 1477,-756 1477,-720 1672,-720 1672,-756"/>
<text text-anchor="middle" x="1574.5" y="-734.3" font-family="Times,serif" font-size="14.00">ragger.backend.interface</text>
</g>
<!-- ragger.backend&#45;&gt;ragger.backend.interface -->
<g id="edge2" class="edge">
<title>ragger.backend&#45;&gt;ragger.backend.interface</title>
<path fill="none" stroke="black" d="M1430.03,-532.89C1477.51,-541.73 1536.67,-556.32 1551.5,-576 1561.13,-588.78 1559.79,-598.32 1551.5,-612 1533.57,-641.58 1500.43,-618.42 1482.5,-648 1474.21,-661.68 1474.49,-670.15 1482.5,-684 1490.07,-697.1 1502.24,-707.24 1515.28,-714.98"/>
<polygon fill="black" stroke="black" points="1524.41,-719.97 1513.47,-719.12 1520.02,-717.57 1515.63,-715.17 1515.63,-715.17 1515.63,-715.17 1520.02,-717.57 1517.79,-711.22 1524.41,-719.97 1524.41,-719.97"/>
</g>
<!-- ragger.backend.ledgercomm -->
<g id="node5" class="node">
<title>ragger.backend.ledgercomm</title>
<polygon fill="#99ddff" stroke="#99ddff" points="1285.5,-612 1065.5,-612 1065.5,-576 1285.5,-576 1285.5,-612"/>
<text text-anchor="middle" x="1175.5" y="-590.3" font-family="Times,serif" font-size="14.00">ragger.backend.ledgercomm</text>
</g>
<!-- ragger.backend&#45;&gt;ragger.backend.ledgercomm -->
<g id="edge3" class="edge">
<title>ragger.backend&#45;&gt;ragger.backend.ledgercomm</title>
<path fill="none" stroke="black" d="M1319.78,-540.12C1293.2,-549.86 1259.74,-562.13 1231.73,-572.39"/>
<polygon fill="black" stroke="black" points="1222.07,-575.93 1229.91,-568.27 1226.77,-574.21 1231.46,-572.49 1231.46,-572.49 1231.46,-572.49 1226.77,-574.21 1233.01,-576.72 1222.07,-575.93 1222.07,-575.93"/>
</g>
<!-- ragger.backend.ledgerwallet -->
<g id="node6" class="node">
<title>ragger.backend.ledgerwallet</title>
<polygon fill="#99ddff" stroke="#99ddff" points="1543,-612 1322,-612 1322,-576 1543,-576 1543,-612"/>
<text text-anchor="middle" x="1432.5" y="-590.3" font-family="Times,serif" font-size="14.00">ragger.backend.ledgerwallet</text>
</g>
<!-- ragger.backend&#45;&gt;ragger.backend.ledgerwallet -->
<g id="edge4" class="edge">
<title>ragger.backend&#45;&gt;ragger.backend.ledgerwallet</title>
<path fill="none" stroke="black" d="M1382.81,-540.3C1390.81,-548.78 1400.57,-559.14 1409.32,-568.42"/>
<polygon fill="black" stroke="black" points="1416.37,-575.9 1406.24,-571.71 1412.94,-572.26 1409.51,-568.62 1409.51,-568.62 1409.51,-568.62 1412.94,-572.26 1412.79,-565.53 1416.37,-575.9 1416.37,-575.9"/>
</g>
<!-- ragger.backend.speculos -->
<g id="node8" class="node">
<title>ragger.backend.speculos</title>
<polygon fill="#99ddff" stroke="#99ddff" points="1685,-684 1492,-684 1492,-648 1685,-648 1685,-684"/>
<text text-anchor="middle" x="1588.5" y="-662.3" font-family="Times,serif" font-size="14.00">ragger.backend.speculos</text>
</g>
<!-- ragger.backend&#45;&gt;ragger.backend.speculos -->
<g id="edge5" class="edge">
<title>ragger.backend&#45;&gt;ragger.backend.speculos</title>
<path fill="none" stroke="black" d="M1430.18,-529.89C1487.63,-537.56 1566.05,-552.11 1585.5,-576 1599.34,-592.99 1598.77,-618.45 1595.51,-637.8"/>
<polygon fill="black" stroke="black" points="1593.49,-647.82 1591.05,-637.13 1594.48,-642.92 1595.47,-638.02 1595.47,-638.02 1595.47,-638.02 1594.48,-642.92 1599.88,-638.9 1593.49,-647.82 1593.49,-647.82"/>
</g>
<!-- ragger.backend.stub -->
<g id="node9" class="node">
<title>ragger.backend.stub</title>
<polygon fill="#99ddff" stroke="#99ddff" points="2019,-684 1856,-684 1856,-648 2019,-648 2019,-684"/>
<text text-anchor="middle" x="1937.5" y="-662.3" font-family="Times,serif" font-size="14.00">ragger.backend.stub</text>
</g>
<!-- ragger.backend&#45;&gt;ragger.backend.stub -->
<g id="edge6" class="edge">
<title>ragger.backend&#45;&gt;ragger.backend.stub</title>
<path fill="none" stroke="black" d="M1430.08,-536.31C1478.34,-546.6 1546.26,-561.5 1605.5,-576 1696.19,-598.2 1800.05,-626.51 1867.09,-645.17"/>
<polygon fill="black" stroke="black" points="1877.12,-647.96 1866.28,-649.61 1872.31,-646.62 1867.49,-645.28 1867.49,-645.28 1867.49,-645.28 1872.31,-646.62 1868.7,-640.94 1877.12,-647.96 1877.12,-647.96"/>
</g>
<!-- ragger.firmware -->
<g id="node17" class="node">
<title>ragger.firmware</title>
<polygon fill="#aaaa00" stroke="#aaaa00" points="1065.5,-828 933.5,-828 933.5,-792 1065.5,-792 1065.5,-828"/>
<text text-anchor="middle" x="999.5" y="-806.3" font-family="Times,serif" font-size="14.00">ragger.firmware</text>
</g>
<!-- ragger.backend.interface&#45;&gt;ragger.firmware -->
<g id="edge7" class="edge">
<title>ragger.backend.interface&#45;&gt;ragger.firmware</title>
<path fill="none" stroke="black" d="M1476.96,-750.87C1363.62,-764.67 1179,-787.15 1075.68,-799.73"/>
<polygon fill="black" stroke="black" points="1065.64,-800.95 1075.02,-795.27 1070.6,-800.34 1075.56,-799.74 1075.56,-799.74 1075.56,-799.74 1070.6,-800.34 1076.11,-804.21 1065.64,-800.95 1065.64,-800.95"/>
</g>
<!-- ragger.logger -->
<g id="node28" class="node">
<title>ragger.logger</title>
<polygon fill="#77aadd" stroke="#77aadd" points="1421,-972 1308,-972 1308,-936 1421,-936 1421,-972"/>
<text text-anchor="middle" x="1364.5" y="-950.3" font-family="Times,serif" font-size="14.00">ragger.logger</text>
</g>
<!-- ragger.backend.interface&#45;&gt;ragger.logger -->
<g id="edge8" class="edge">
<title>ragger.backend.interface&#45;&gt;ragger.logger</title>
<path fill="none" stroke="black" d="M1566.27,-756.01C1550.24,-787.72 1512.1,-856.56 1463.5,-900 1449.65,-912.38 1432.39,-922.89 1416.18,-931.2"/>
<polygon fill="black" stroke="black" points="1406.79,-935.84 1413.77,-927.38 1411.28,-933.63 1415.76,-931.41 1415.76,-931.41 1415.76,-931.41 1411.28,-933.63 1417.75,-935.44 1406.79,-935.84 1406.79,-935.84"/>
</g>
<!-- ragger.utils -->
<g id="node35" class="node">
<title>ragger.utils</title>
<polygon fill="#ffaabb" stroke="#ffaabb" points="1897,-828 1798,-828 1798,-792 1897,-792 1897,-828"/>
<text text-anchor="middle" x="1847.5" y="-806.3" font-family="Times,serif" font-size="14.00">ragger.utils</text>
</g>
<!-- ragger.backend.interface&#45;&gt;ragger.utils -->
<g id="edge9" class="edge">
<title>ragger.backend.interface&#45;&gt;ragger.utils</title>
<path fill="none" stroke="black" d="M1640.93,-756.03C1685.89,-767.56 1744.75,-782.65 1788.13,-793.78"/>
<polygon fill="black" stroke="black" points="1797.98,-796.3 1787.17,-798.18 1793.13,-795.06 1788.29,-793.82 1788.29,-793.82 1788.29,-793.82 1793.13,-795.06 1789.41,-789.46 1797.98,-796.3 1797.98,-796.3"/>
</g>
<!-- ragger.backend.ledgercomm&#45;&gt;ragger.backend.ledgercomm -->
<g id="edge10" class="edge">
<title>ragger.backend.ledgercomm&#45;&gt;ragger.backend.ledgercomm</title>
<path fill="none" stroke="black" d="M1285.65,-582.99C1296.56,-585.2 1303.5,-588.87 1303.5,-594 1303.5,-597.37 1300.51,-600.11 1295.37,-602.21"/>
<polygon fill="black" stroke="black" points="1285.65,-605.01 1294.02,-597.92 1290.46,-603.63 1295.26,-602.25 1295.26,-602.25 1295.26,-602.25 1290.46,-603.63 1296.51,-606.57 1285.65,-605.01 1285.65,-605.01"/>
</g>
<!-- ragger.backend.physical_backend -->
<g id="node7" class="node">
<title>ragger.backend.physical_backend</title>
<polygon fill="#99ddff" stroke="#99ddff" points="1435.5,-684 1179.5,-684 1179.5,-648 1435.5,-648 1435.5,-684"/>
<text text-anchor="middle" x="1307.5" y="-662.3" font-family="Times,serif" font-size="14.00">ragger.backend.physical_backend</text>
</g>
<!-- ragger.backend.ledgercomm&#45;&gt;ragger.backend.physical_backend -->
<g id="edge11" class="edge">
<title>ragger.backend.ledgercomm&#45;&gt;ragger.backend.physical_backend</title>
<path fill="none" stroke="black" d="M1207.79,-612.12C1225.37,-621.45 1247.31,-633.08 1266.13,-643.06"/>
<polygon fill="black" stroke="black" points="1275.09,-647.81 1264.14,-647.1 1270.67,-645.47 1266.25,-643.13 1266.25,-643.13 1266.25,-643.13 1270.67,-645.47 1268.36,-639.15 1275.09,-647.81 1275.09,-647.81"/>
</g>
<!-- ragger.error -->
<g id="node16" class="node">
<title>ragger.error</title>
<polygon fill="#77aadd" stroke="#77aadd" points="1770.5,-972 1666.5,-972 1666.5,-936 1770.5,-936 1770.5,-972"/>
<text text-anchor="middle" x="1718.5" y="-950.3" font-family="Times,serif" font-size="14.00">ragger.error</text>
</g>
<!-- ragger.backend.ledgercomm&#45;&gt;ragger.error -->
<g id="edge12" class="edge">
<title>ragger.backend.ledgercomm&#45;&gt;ragger.error</title>
<path fill="none" stroke="black" d="M1170.14,-612.19C1165.34,-630.72 1160.47,-660.69 1170.5,-684 1188.88,-726.74 1205.84,-733.38 1246.5,-756 1301.52,-786.61 1324.41,-770.27 1383.5,-792 1494.1,-832.68 1617.38,-897.26 1678.97,-930.93"/>
<polygon fill="black" stroke="black" points="1687.96,-935.86 1677.03,-935 1683.58,-933.46 1679.19,-931.05 1679.19,-931.05 1679.19,-931.05 1683.58,-933.46 1681.36,-927.11 1687.96,-935.86 1687.96,-935.86"/>
</g>
<!-- ragger.backend.ledgercomm&#45;&gt;ragger.firmware -->
<g id="edge13" class="edge">
<title>ragger.backend.ledgercomm&#45;&gt;ragger.firmware</title>
<path fill="none" stroke="black" d="M1143.21,-612.07C1128.38,-621.17 1111.48,-633.49 1099.5,-648 1066.06,-688.51 1081.03,-712.56 1051.5,-756 1044.55,-766.22 1035.51,-776.23 1026.92,-784.74"/>
<polygon fill="black" stroke="black" points="1019.55,-791.8 1023.65,-781.63 1023.16,-788.34 1026.77,-784.88 1026.77,-784.88 1026.77,-784.88 1023.16,-788.34 1029.88,-788.13 1019.55,-791.8 1019.55,-791.8"/>
</g>
<!-- ragger.backend.ledgercomm&#45;&gt;ragger.utils -->
<g id="edge14" class="edge">
<title>ragger.backend.ledgercomm&#45;&gt;ragger.utils</title>
<path fill="none" stroke="black" d="M1285.76,-608.97C1294.8,-610.02 1303.8,-611.05 1312.5,-612 1397.04,-621.24 1616.96,-610.94 1693.5,-648 1756.24,-678.38 1806.97,-745.78 1831.5,-783.02"/>
<polygon fill="black" stroke="black" points="1837.17,-791.8 1827.96,-785.83 1834.45,-787.59 1831.74,-783.39 1831.74,-783.39 1831.74,-783.39 1834.45,-787.59 1835.52,-780.95 1837.17,-791.8 1837.17,-791.8"/>
</g>
<!-- ragger.backend.ledgerwallet&#45;&gt;ragger.backend.physical_backend -->
<g id="edge15" class="edge">
<title>ragger.backend.ledgerwallet&#45;&gt;ragger.backend.physical_backend</title>
<path fill="none" stroke="black" d="M1401.92,-612.12C1385.43,-621.36 1364.88,-632.87 1347.16,-642.79"/>
<polygon fill="black" stroke="black" points="1338.2,-647.81 1344.72,-639 1342.56,-645.37 1346.92,-642.92 1346.92,-642.92 1346.92,-642.92 1342.56,-645.37 1349.12,-646.85 1338.2,-647.81 1338.2,-647.81"/>
</g>
<!-- ragger.backend.ledgerwallet&#45;&gt;ragger.error -->
<g id="edge16" class="edge">
<title>ragger.backend.ledgerwallet&#45;&gt;ragger.error</title>
<path fill="none" stroke="black" d="M1543.06,-605.29C1604.19,-613.26 1672.03,-626.64 1693.5,-648 1768.64,-722.77 1741.84,-866.26 1726.36,-925.93"/>
<polygon fill="black" stroke="black" points="1723.72,-935.74 1721.97,-924.91 1725.02,-930.91 1726.32,-926.08 1726.32,-926.08 1726.32,-926.08 1725.02,-930.91 1730.66,-927.25 1723.72,-935.74 1723.72,-935.74"/>
</g>
<!-- ragger.backend.ledgerwallet&#45;&gt;ragger.firmware -->
<g id="edge17" class="edge">
<title>ragger.backend.ledgerwallet&#45;&gt;ragger.firmware</title>
<path fill="none" stroke="black" d="M1332.83,-612.03C1264.95,-624.16 1184.88,-639.73 1170.5,-648 1114.83,-680.02 1122.37,-713.19 1074.5,-756 1062.53,-766.71 1048.36,-777.2 1035.58,-785.98"/>
<polygon fill="black" stroke="black" points="1027,-791.77 1032.78,-782.45 1031.15,-788.97 1035.29,-786.18 1035.29,-786.18 1035.29,-786.18 1031.15,-788.97 1037.81,-789.91 1027,-791.77 1027,-791.77"/>
</g>
<!-- ragger.backend.ledgerwallet&#45;&gt;ragger.utils -->
<g id="edge18" class="edge">
<title>ragger.backend.ledgerwallet&#45;&gt;ragger.utils</title>
<path fill="none" stroke="black" d="M1543.1,-608.77C1632.32,-620.51 1746.07,-637.16 1765.5,-648 1802.38,-668.57 1808.53,-682.27 1827.5,-720 1837.25,-739.4 1842.3,-763.54 1844.88,-781.79"/>
<polygon fill="black" stroke="black" points="1846.13,-791.77 1840.42,-782.41 1845.51,-786.81 1844.88,-781.85 1844.88,-781.85 1844.88,-781.85 1845.51,-786.81 1849.35,-781.29 1846.13,-791.77 1846.13,-791.77"/>
</g>
<!-- ragger.backend.physical_backend&#45;&gt;ragger.backend.interface -->
<g id="edge19" class="edge">
<title>ragger.backend.physical_backend&#45;&gt;ragger.backend.interface</title>
<path fill="none" stroke="black" d="M1372.47,-684.03C1410.83,-694.09 1459.55,-706.86 1499.53,-717.35"/>
<polygon fill="black" stroke="black" points="1509.23,-719.89 1498.42,-721.71 1504.4,-718.62 1499.56,-717.35 1499.56,-717.35 1499.56,-717.35 1504.4,-718.62 1500.7,-713 1509.23,-719.89 1509.23,-719.89"/>
</g>
<!-- ragger.backend.physical_backend&#45;&gt;ragger.firmware -->
<g id="edge20" class="edge">
<title>ragger.backend.physical_backend&#45;&gt;ragger.firmware</title>
<path fill="none" stroke="black" d="M1274.64,-684.07C1238.79,-702.5 1179.57,-732.38 1127.5,-756 1102.95,-767.13 1075.37,-778.68 1052.11,-788.14"/>
<polygon fill="black" stroke="black" points="1042.77,-791.92 1050.35,-784 1047.4,-790.04 1052.03,-788.17 1052.03,-788.17 1052.03,-788.17 1047.4,-790.04 1053.72,-792.34 1042.77,-791.92 1042.77,-791.92"/>
</g>
<!-- ragger.gui -->
<g id="node25" class="node">
<title>ragger.gui</title>
<polygon fill="#eedd88" stroke="#eedd88" points="1345.5,-756 1255.5,-756 1255.5,-720 1345.5,-720 1345.5,-756"/>
<text text-anchor="middle" x="1300.5" y="-734.3" font-family="Times,serif" font-size="14.00">ragger.gui</text>
</g>
<!-- ragger.backend.physical_backend&#45;&gt;ragger.gui -->
<g id="edge21" class="edge">
<title>ragger.backend.physical_backend&#45;&gt;ragger.gui</title>
<path fill="none" stroke="black" d="M1305.77,-684.3C1305,-692.02 1304.07,-701.29 1303.21,-709.89"/>
<polygon fill="black" stroke="black" points="1302.21,-719.9 1298.73,-709.5 1302.71,-714.92 1303.21,-709.95 1303.21,-709.95 1303.21,-709.95 1302.71,-714.92 1307.68,-710.39 1302.21,-719.9 1302.21,-719.9"/>
</g>
<!-- ragger.navigator.instruction -->
<g id="node30" class="node">
<title>ragger.navigator.instruction</title>
<polygon fill="#ee8866" stroke="#ee8866" points="880,-900 663,-900 663,-864 880,-864 880,-900"/>
<text text-anchor="middle" x="771.5" y="-878.3" font-family="Times,serif" font-size="14.00">ragger.navigator.instruction</text>
</g>
<!-- ragger.backend.physical_backend&#45;&gt;ragger.navigator.instruction -->
<g id="edge22" class="edge">
<title>ragger.backend.physical_backend&#45;&gt;ragger.navigator.instruction</title>
<path fill="none" stroke="black" d="M1285.47,-684.08C1236.63,-721.61 1120.03,-809.44 1074.5,-828 1057.14,-835.08 967.63,-850.34 890.36,-862.68"/>
<polygon fill="black" stroke="black" points="880.04,-864.32 889.21,-858.31 884.98,-863.54 889.91,-862.75 889.91,-862.75 889.91,-862.75 884.98,-863.54 890.62,-867.19 880.04,-864.32 880.04,-864.32"/>
</g>
<!-- ragger.backend.physical_backend&#45;&gt;ragger.utils -->
<g id="edge23" class="edge">
<title>ragger.backend.physical_backend&#45;&gt;ragger.utils</title>
<path fill="none" stroke="black" d="M1331.39,-684.03C1361.57,-704.63 1415.81,-738.69 1467.5,-756 1576.54,-792.51 1711.32,-803.88 1787.54,-807.41"/>
<polygon fill="black" stroke="black" points="1797.9,-807.86 1787.71,-811.93 1792.9,-807.65 1787.91,-807.43 1787.91,-807.43 1787.91,-807.43 1792.9,-807.65 1788.1,-802.93 1797.9,-807.86 1797.9,-807.86"/>
</g>
<!-- ragger.backend.speculos&#45;&gt;ragger.backend.interface -->
<g id="edge24" class="edge">
<title>ragger.backend.speculos&#45;&gt;ragger.backend.interface</title>
<path fill="none" stroke="black" d="M1585.04,-684.3C1583.5,-692.02 1581.64,-701.29 1579.92,-709.89"/>
<polygon fill="black" stroke="black" points="1577.92,-719.9 1575.47,-709.21 1578.9,-714.99 1579.88,-710.09 1579.88,-710.09 1579.88,-710.09 1578.9,-714.99 1584.29,-710.97 1577.92,-719.9 1577.92,-719.9"/>
</g>
<!-- ragger.backend.speculos&#45;&gt;ragger.error -->
<g id="edge25" class="edge">
<title>ragger.backend.speculos&#45;&gt;ragger.error</title>
<path fill="none" stroke="black" d="M1635.76,-684.19C1652.37,-692.53 1669.6,-704.23 1680.5,-720 1724.3,-783.36 1724.27,-879.26 1721.16,-925.78"/>
<polygon fill="black" stroke="black" points="1720.37,-935.97 1716.66,-925.66 1720.76,-930.99 1721.14,-926 1721.14,-926 1721.14,-926 1720.76,-930.99 1725.63,-926.35 1720.37,-935.97 1720.37,-935.97"/>
</g>
<!-- ragger.backend.speculos&#45;&gt;ragger.firmware -->
<g id="edge26" class="edge">
<title>ragger.backend.speculos&#45;&gt;ragger.firmware</title>
<path fill="none" stroke="black" d="M1535.7,-684.06C1506.03,-693.96 1468.45,-707 1435.5,-720 1398.85,-734.46 1392.33,-744.99 1354.5,-756 1260.64,-783.32 1148.51,-797.06 1075.74,-803.6"/>
<polygon fill="black" stroke="black" points="1065.74,-804.48 1075.31,-799.12 1070.72,-804.04 1075.7,-803.6 1075.7,-803.6 1075.7,-803.6 1070.72,-804.04 1076.1,-808.09 1065.74,-804.48 1065.74,-804.48"/>
</g>
<!-- ragger.backend.speculos&#45;&gt;ragger.logger -->
<g id="edge27" class="edge">
<title>ragger.backend.speculos&#45;&gt;ragger.logger</title>
<path fill="none" stroke="black" d="M1526.56,-684.02C1505.76,-692.18 1483.74,-703.81 1467.5,-720 1408.09,-779.21 1380.17,-878.57 1369.7,-926.1"/>
<polygon fill="black" stroke="black" points="1367.61,-935.95 1365.28,-925.23 1368.65,-931.06 1369.68,-926.16 1369.68,-926.16 1369.68,-926.16 1368.65,-931.06 1374.08,-927.1 1367.61,-935.95 1367.61,-935.95"/>
</g>
<!-- ragger.backend.speculos&#45;&gt;ragger.utils -->
<g id="edge28" class="edge">
<title>ragger.backend.speculos&#45;&gt;ragger.utils</title>
<path fill="none" stroke="black" d="M1634.28,-684.04C1658.36,-693.59 1688.07,-706.32 1713.5,-720 1750.34,-739.82 1789.94,-766.92 1816.47,-785.99"/>
<polygon fill="black" stroke="black" points="1824.6,-791.88 1813.86,-789.66 1820.55,-788.95 1816.5,-786.01 1816.5,-786.01 1816.5,-786.01 1820.55,-788.95 1819.14,-782.37 1824.6,-791.88 1824.6,-791.88"/>
</g>
<!-- ragger.backend.stub&#45;&gt;ragger.backend.interface -->
<g id="edge29" class="edge">
<title>ragger.backend.stub&#45;&gt;ragger.backend.interface</title>
<path fill="none" stroke="black" d="M1855.58,-682.8C1801.43,-693.24 1730.16,-706.98 1672.93,-718.02"/>
<polygon fill="black" stroke="black" points="1662.78,-719.98 1671.75,-713.66 1667.69,-719.03 1672.6,-718.08 1672.6,-718.08 1672.6,-718.08 1667.69,-719.03 1673.45,-722.5 1662.78,-719.98 1662.78,-719.98"/>
</g>
<!-- ragger.utils.structs -->
<g id="node38" class="node">
<title>ragger.utils.structs</title>
<polygon fill="#ffaabb" stroke="#ffaabb" points="2096.5,-900 1942.5,-900 1942.5,-864 2096.5,-864 2096.5,-900"/>
<text text-anchor="middle" x="2019.5" y="-878.3" font-family="Times,serif" font-size="14.00">ragger.utils.structs</text>
</g>
<!-- ragger.backend.stub&#45;&gt;ragger.utils.structs -->
<g id="edge30" class="edge">
<title>ragger.backend.stub&#45;&gt;ragger.utils.structs</title>
<path fill="none" stroke="black" d="M1944.07,-684.15C1958.32,-721.32 1992.13,-809.56 2009.22,-854.18"/>
<polygon fill="black" stroke="black" points="2012.9,-863.77 2005.12,-856.04 2011.11,-859.1 2009.32,-854.43 2009.32,-854.43 2009.32,-854.43 2011.11,-859.1 2013.52,-852.82 2012.9,-863.77 2012.9,-863.77"/>
</g>
<!-- ragger.bip -->
<g id="node10" class="node">
<title>ragger.bip</title>
<polygon fill="#44bb99" stroke="#44bb99" points="2363.5,-36 2273.5,-36 2273.5,0 2363.5,0 2363.5,-36"/>
<text text-anchor="middle" x="2318.5" y="-14.3" font-family="Times,serif" font-size="14.00">ragger.bip</text>
</g>
<!-- ragger.bip.path -->
<g id="node11" class="node">
<title>ragger.bip.path</title>
<polygon fill="#44bb99" stroke="#44bb99" points="2309,-108 2182,-108 2182,-72 2309,-72 2309,-108"/>
<text text-anchor="middle" x="2245.5" y="-86.3" font-family="Times,serif" font-size="14.00">ragger.bip.path</text>
</g>
<!-- ragger.bip&#45;&gt;ragger.bip.path -->
<g id="edge31" class="edge">
<title>ragger.bip&#45;&gt;ragger.bip.path</title>
<path fill="none" stroke="black" d="M2300.46,-36.3C2291.44,-44.95 2280.38,-55.55 2270.56,-64.97"/>
<polygon fill="black" stroke="black" points="2263.34,-71.9 2267.44,-61.73 2266.95,-68.44 2270.56,-64.97 2270.56,-64.97 2270.56,-64.97 2266.95,-68.44 2273.67,-68.22 2263.34,-71.9 2263.34,-71.9"/>
</g>
<!-- ragger.bip.seed -->
<g id="node12" class="node">
<title>ragger.bip.seed</title>
<polygon fill="#44bb99" stroke="#44bb99" points="2455.5,-108 2327.5,-108 2327.5,-72 2455.5,-72 2455.5,-108"/>
<text text-anchor="middle" x="2391.5" y="-86.3" font-family="Times,serif" font-size="14.00">ragger.bip.seed</text>
</g>
<!-- ragger.bip&#45;&gt;ragger.bip.seed -->
<g id="edge32" class="edge">
<title>ragger.bip&#45;&gt;ragger.bip.seed</title>
<path fill="none" stroke="black" d="M2336.54,-36.3C2345.56,-44.95 2356.62,-55.55 2366.44,-64.97"/>
<polygon fill="black" stroke="black" points="2373.66,-71.9 2363.33,-68.22 2370.05,-68.44 2366.44,-64.97 2366.44,-64.97 2366.44,-64.97 2370.05,-68.44 2369.56,-61.73 2373.66,-71.9 2373.66,-71.9"/>
</g>
<!-- ragger.conftest -->
<g id="node13" class="node">
<title>ragger.conftest</title>
<polygon fill="#bbcc33" stroke="#bbcc33" points="2507,-36 2382,-36 2382,0 2507,0 2507,-36"/>
<text text-anchor="middle" x="2444.5" y="-14.3" font-family="Times,serif" font-size="14.00">ragger.conftest</text>
</g>
<!-- ragger.conftest.base_conftest -->
<g id="node14" class="node">
<title>ragger.conftest.base_conftest</title>
<polygon fill="#bbcc33" stroke="#bbcc33" points="1649,-36 1422,-36 1422,0 1649,0 1649,-36"/>
<text text-anchor="middle" x="1535.5" y="-14.3" font-family="Times,serif" font-size="14.00">ragger.conftest.base_conftest</text>
</g>
<!-- ragger.conftest.base_conftest&#45;&gt;ragger.backend -->
<g id="edge33" class="edge">
<title>ragger.conftest.base_conftest&#45;&gt;ragger.backend</title>
<path fill="none" stroke="black" d="M1649.07,-22.72C1744.52,-32.66 1865.5,-64.33 1865.5,-161 1865.5,-161 1865.5,-161 1865.5,-379 1865.5,-466.32 1579.24,-502.83 1440.35,-515.4"/>
<polygon fill="black" stroke="black" points="1430.21,-516.3 1439.77,-510.94 1435.19,-515.86 1440.17,-515.42 1440.17,-515.42 1440.17,-515.42 1435.19,-515.86 1440.56,-519.9 1430.21,-516.3 1430.21,-516.3"/>
</g>
<!-- ragger.conftest.base_conftest&#45;&gt;ragger.firmware -->
<g id="edge34" class="edge">
<title>ragger.conftest.base_conftest&#45;&gt;ragger.firmware</title>
<path fill="none" stroke="black" d="M1421.84,-19.75C1107.82,-23.31 251.5,-43.78 251.5,-161 251.5,-161 251.5,-161 251.5,-379 251.5,-479.93 327.5,-492.07 327.5,-593 327.5,-593 327.5,-593 327.5,-667 327.5,-787.57 746.82,-806.26 922.99,-808.8"/>
<polygon fill="black" stroke="black" points="933.23,-808.93 923.17,-813.3 928.23,-808.86 923.23,-808.8 923.23,-808.8 923.23,-808.8 928.23,-808.86 923.29,-804.3 933.23,-808.93 933.23,-808.93"/>
</g>
<!-- ragger.conftest.base_conftest&#45;&gt;ragger.logger -->
<g id="edge35" class="edge">
<title>ragger.conftest.base_conftest&#45;&gt;ragger.logger</title>
<path fill="none" stroke="black" d="M1421.9,-21.06C1142.87,-26.56 439.04,-43.12 336.5,-72 257.8,-94.17 175.5,-79.24 175.5,-161 175.5,-161 175.5,-161 175.5,-811 175.5,-924.93 1047.32,-947.86 1297.89,-952.1"/>
<polygon fill="black" stroke="black" points="1307.95,-952.27 1297.88,-956.6 1302.95,-952.19 1297.95,-952.1 1297.95,-952.1 1297.95,-952.1 1302.95,-952.19 1298.03,-947.61 1307.95,-952.27 1307.95,-952.27"/>
</g>
<!-- ragger.navigator -->
<g id="node29" class="node">
<title>ragger.navigator</title>
<polygon fill="#ee8866" stroke="#ee8866" points="1226.5,-108 1090.5,-108 1090.5,-72 1226.5,-72 1226.5,-108"/>
<text text-anchor="middle" x="1158.5" y="-86.3" font-family="Times,serif" font-size="14.00">ragger.navigator</text>
</g>
<!-- ragger.conftest.base_conftest&#45;&gt;ragger.navigator -->
<g id="edge36" class="edge">
<title>ragger.conftest.base_conftest&#45;&gt;ragger.navigator</title>
<path fill="none" stroke="black" d="M1443.76,-36.03C1380.27,-47.82 1296.69,-63.34 1236.43,-74.53"/>
<polygon fill="black" stroke="black" points="1226.59,-76.36 1235.6,-70.11 1231.51,-75.44 1236.43,-74.53 1236.43,-74.53 1236.43,-74.53 1231.51,-75.44 1237.25,-78.96 1226.59,-76.36 1226.59,-76.36"/>
</g>
<!-- ragger.conftest.base_conftest&#45;&gt;ragger.utils -->
<g id="edge37" class="edge">
<title>ragger.conftest.base_conftest&#45;&gt;ragger.utils</title>
<path fill="none" stroke="black" d="M1649.13,-25.42C1810.18,-37.67 2085.5,-71.69 2085.5,-161 2085.5,-161 2085.5,-161 2085.5,-667 2085.5,-749.89 1977.72,-785.53 1907.22,-799.97"/>
<polygon fill="black" stroke="black" points="1897.1,-801.95 1906.05,-795.61 1902.01,-800.99 1906.92,-800.03 1906.92,-800.03 1906.92,-800.03 1902.01,-800.99 1907.78,-804.44 1897.1,-801.95 1897.1,-801.95"/>
</g>
<!-- ragger.utils.misc -->
<g id="node36" class="node">
<title>ragger.utils.misc</title>
<polygon fill="#ffaabb" stroke="#ffaabb" points="2252,-900 2115,-900 2115,-864 2252,-864 2252,-900"/>
<text text-anchor="middle" x="2183.5" y="-878.3" font-family="Times,serif" font-size="14.00">ragger.utils.misc</text>
</g>
<!-- ragger.conftest.base_conftest&#45;&gt;ragger.utils.misc -->
<g id="edge38" class="edge">
<title>ragger.conftest.base_conftest&#45;&gt;ragger.utils.misc</title>
<path fill="none" stroke="black" d="M1649.21,-22.1C1827.7,-30.09 2153.5,-58.69 2153.5,-161 2153.5,-161 2153.5,-161 2153.5,-739 2153.5,-779.84 2165.53,-825.89 2174.35,-854.18"/>
<polygon fill="black" stroke="black" points="2177.43,-863.76 2170.09,-855.62 2175.9,-859 2174.37,-854.24 2174.37,-854.24 2174.37,-854.24 2175.9,-859 2178.65,-852.86 2177.43,-863.76 2177.43,-863.76"/>
</g>
<!-- ragger.conftest.configuration -->
<g id="node15" class="node">
<title>ragger.conftest.configuration</title>
<polygon fill="#bbcc33" stroke="#bbcc33" points="2749.5,-36 2525.5,-36 2525.5,0 2749.5,0 2749.5,-36"/>
<text text-anchor="middle" x="2637.5" y="-14.3" font-family="Times,serif" font-size="14.00">ragger.conftest.configuration</text>
</g>
<!-- ragger.firmware.structs -->
<g id="node18" class="node">
<title>ragger.firmware.structs</title>
<polygon fill="#aaaa00" stroke="#aaaa00" points="1093,-900 906,-900 906,-864 1093,-864 1093,-900"/>
<text text-anchor="middle" x="999.5" y="-878.3" font-family="Times,serif" font-size="14.00">ragger.firmware.structs</text>
</g>
<!-- ragger.firmware&#45;&gt;ragger.firmware.structs -->
<g id="edge39" class="edge">
<title>ragger.firmware&#45;&gt;ragger.firmware.structs</title>
<path fill="none" stroke="black" d="M999.5,-828.3C999.5,-836.02 999.5,-845.29 999.5,-853.89"/>
<polygon fill="black" stroke="black" points="999.5,-863.9 995,-853.9 999.5,-858.9 999.5,-853.9 999.5,-853.9 999.5,-853.9 999.5,-858.9 1004,-853.9 999.5,-863.9 999.5,-863.9"/>
</g>
<!-- ragger.firmware.touch -->
<g id="node19" class="node">
<title>ragger.firmware.touch</title>
<polygon fill="#aaaa00" stroke="#aaaa00" points="921.5,-252 745.5,-252 745.5,-216 921.5,-216 921.5,-252"/>
<text text-anchor="middle" x="833.5" y="-230.3" font-family="Times,serif" font-size="14.00">ragger.firmware.touch</text>
</g>
<!-- ragger.firmware.touch.screen -->
<g id="node23" class="node">
<title>ragger.firmware.touch.screen</title>
<polygon fill="#aaaa00" stroke="#aaaa00" points="934.5,-324 706.5,-324 706.5,-288 934.5,-288 934.5,-324"/>
<text text-anchor="middle" x="820.5" y="-302.3" font-family="Times,serif" font-size="14.00">ragger.firmware.touch.screen</text>
</g>
<!-- ragger.firmware.touch&#45;&gt;ragger.firmware.touch.screen -->
<g id="edge40" class="edge">
<title>ragger.firmware.touch&#45;&gt;ragger.firmware.touch.screen</title>
<path fill="none" stroke="black" d="M830.29,-252.3C828.85,-260.02 827.13,-269.29 825.54,-277.89"/>
<polygon fill="black" stroke="black" points="823.68,-287.9 821.08,-277.24 824.59,-282.98 825.5,-278.06 825.5,-278.06 825.5,-278.06 824.59,-282.98 829.93,-278.89 823.68,-287.9 823.68,-287.9"/>
</g>
<!-- ragger.firmware.touch.element -->
<g id="node20" class="node">
<title>ragger.firmware.touch.element</title>
<polygon fill="#aaaa00" stroke="#aaaa00" points="815,-468 576,-468 576,-432 815,-432 815,-468"/>
<text text-anchor="middle" x="695.5" y="-446.3" font-family="Times,serif" font-size="14.00">ragger.firmware.touch.element</text>
</g>
<!-- ragger.firmware.touch.element&#45;&gt;ragger.backend -->
<g id="edge41" class="edge">
<title>ragger.firmware.touch.element&#45;&gt;ragger.backend</title>
<path fill="none" stroke="black" d="M815.07,-463.47C953.51,-477.92 1177.22,-501.25 1292.53,-513.28"/>
<polygon fill="black" stroke="black" points="1302.67,-514.34 1292.26,-517.78 1297.7,-513.82 1292.72,-513.3 1292.72,-513.3 1292.72,-513.3 1297.7,-513.82 1293.19,-508.83 1302.67,-514.34 1302.67,-514.34"/>
</g>
<!-- ragger.firmware.touch.element&#45;&gt;ragger.firmware -->
<g id="edge42" class="edge">
<title>ragger.firmware.touch.element&#45;&gt;ragger.firmware</title>
<path fill="none" stroke="black" d="M611.8,-468.05C593.23,-475.89 575.75,-487.32 564.5,-504 555.56,-517.27 557.43,-525.65 564.5,-540 634.61,-682.32 818.75,-757.01 923.6,-789.15"/>
<polygon fill="black" stroke="black" points="933.18,-792.04 922.31,-793.46 928.39,-790.6 923.6,-789.15 923.6,-789.15 923.6,-789.15 928.39,-790.6 924.9,-784.85 933.18,-792.04 933.18,-792.04"/>
</g>
<!-- ragger.firmware.touch.positions -->
<g id="node22" class="node">
<title>ragger.firmware.touch.positions</title>
<polygon fill="#aaaa00" stroke="#aaaa00" points="819,-540 574,-540 574,-504 819,-504 819,-540"/>
<text text-anchor="middle" x="696.5" y="-518.3" font-family="Times,serif" font-size="14.00">ragger.firmware.touch.positions</text>
</g>
<!-- ragger.firmware.touch.element&#45;&gt;ragger.firmware.touch.positions -->
<g id="edge43" class="edge">
<title>ragger.firmware.touch.element&#45;&gt;ragger.firmware.touch.positions</title>
<path fill="none" stroke="black" d="M695.75,-468.3C695.86,-476.02 695.99,-485.29 696.11,-493.89"/>
<polygon fill="black" stroke="black" points="696.26,-503.9 691.61,-493.96 696.18,-498.9 696.11,-493.9 696.11,-493.9 696.11,-493.9 696.18,-498.9 700.61,-493.83 696.26,-503.9 696.26,-503.9"/>
</g>
<!-- ragger.firmware.touch.layouts -->
<g id="node21" class="node">
<title>ragger.firmware.touch.layouts</title>
<polygon fill="#aaaa00" stroke="#aaaa00" points="551,-396 318,-396 318,-360 551,-360 551,-396"/>
<text text-anchor="middle" x="434.5" y="-374.3" font-family="Times,serif" font-size="14.00">ragger.firmware.touch.layouts</text>
</g>
<!-- ragger.firmware.touch.layouts&#45;&gt;ragger.firmware.touch.element -->
<g id="edge44" class="edge">
<title>ragger.firmware.touch.layouts&#45;&gt;ragger.firmware.touch.element</title>
<path fill="none" stroke="black" d="M498.01,-396.03C535.43,-406.07 582.93,-418.81 621.97,-429.28"/>
<polygon fill="black" stroke="black" points="631.7,-431.89 620.88,-433.65 626.87,-430.59 622.04,-429.3 622.04,-429.3 622.04,-429.3 626.87,-430.59 623.21,-424.95 631.7,-431.89 631.7,-431.89"/>
</g>
<!-- ragger.firmware.touch.positions&#45;&gt;ragger.firmware -->
<g id="edge45" class="edge">
<title>ragger.firmware.touch.positions&#45;&gt;ragger.firmware</title>
<path fill="none" stroke="black" d="M718.28,-540.02C745.74,-562.39 793.03,-604 823.5,-648 853.41,-691.18 833.88,-719.34 871.5,-756 886.09,-770.22 905.03,-780.83 923.85,-788.66"/>
<polygon fill="black" stroke="black" points="933.36,-792.4 922.41,-792.93 928.71,-790.57 924.06,-788.74 924.06,-788.74 924.06,-788.74 928.71,-790.57 925.7,-784.55 933.36,-792.4 933.36,-792.4"/>
</g>
<!-- ragger.firmware.touch.screen&#45;&gt;ragger.backend -->
<g id="edge46" class="edge">
<title>ragger.firmware.touch.screen&#45;&gt;ragger.backend</title>
<path fill="none" stroke="black" d="M851.02,-324.04C866.68,-333.54 885.55,-346.23 900.5,-360 945.42,-401.39 932.52,-437.59 985.5,-468 1036.42,-497.23 1197.15,-511.31 1292.81,-517.26"/>
<polygon fill="black" stroke="black" points="1303,-517.88 1292.74,-521.77 1298.01,-517.58 1293.02,-517.28 1293.02,-517.28 1293.02,-517.28 1298.01,-517.58 1293.29,-512.78 1303,-517.88 1303,-517.88"/>
</g>
<!-- ragger.firmware.touch.screen&#45;&gt;ragger.firmware -->
<g id="edge47" class="edge">
<title>ragger.firmware.touch.screen&#45;&gt;ragger.firmware</title>
<path fill="none" stroke="black" d="M830.59,-324.19C836.2,-334.34 842.95,-347.59 847.5,-360 872.81,-429.03 885.5,-447.48 885.5,-521 885.5,-521 885.5,-521 885.5,-667 885.5,-707.97 884.67,-723.41 909.5,-756 919.23,-768.78 933.01,-779.06 946.86,-787.04"/>
<polygon fill="black" stroke="black" points="955.94,-791.96 945,-791.15 951.54,-789.58 947.15,-787.2 947.15,-787.2 947.15,-787.2 951.54,-789.58 949.29,-783.24 955.94,-791.96 955.94,-791.96"/>
</g>
<!-- ragger.firmware.touch.screen&#45;&gt;ragger.firmware.touch.element -->
<g id="edge48" class="edge">
<title>ragger.firmware.touch.screen&#45;&gt;ragger.firmware.touch.element</title>
<path fill="none" stroke="black" d="M828,-324.02C835.2,-343.22 843.04,-374.56 828.5,-396 819.14,-409.8 805.56,-420.01 790.6,-427.56"/>
<polygon fill="black" stroke="black" points="781.14,-431.92 788.34,-423.65 785.68,-429.83 790.22,-427.73 790.22,-427.73 790.22,-427.73 785.68,-429.83 792.11,-431.82 781.14,-431.92 781.14,-431.92"/>
</g>
<!-- ragger.firmware.touch.screen&#45;&gt;ragger.firmware.touch.layouts -->
<g id="edge49" class="edge">
<title>ragger.firmware.touch.screen&#45;&gt;ragger.firmware.touch.layouts</title>
<path fill="none" stroke="black" d="M726.57,-324.03C669.72,-334.34 597.13,-347.51 538.54,-358.13"/>
<polygon fill="black" stroke="black" points="528.52,-359.95 537.56,-353.74 533.44,-359.06 538.36,-358.17 538.36,-358.17 538.36,-358.17 533.44,-359.06 539.16,-362.59 528.52,-359.95 528.52,-359.95"/>
</g>
<!-- ragger.firmware.touch.use_cases -->
<g id="node24" class="node">
<title>ragger.firmware.touch.use_cases</title>
<polygon fill="#aaaa00" stroke="#aaaa00" points="820,-396 569,-396 569,-360 820,-360 820,-396"/>
<text text-anchor="middle" x="694.5" y="-374.3" font-family="Times,serif" font-size="14.00">ragger.firmware.touch.use_cases</text>
</g>
<!-- ragger.firmware.touch.screen&#45;&gt;ragger.firmware.touch.use_cases -->
<g id="edge50" class="edge">
<title>ragger.firmware.touch.screen&#45;&gt;ragger.firmware.touch.use_cases</title>
<path fill="none" stroke="black" d="M789.68,-324.12C773.05,-333.36 752.34,-344.87 734.48,-354.79"/>
<polygon fill="black" stroke="black" points="725.44,-359.81 732,-351.02 729.81,-357.38 734.18,-354.95 734.18,-354.95 734.18,-354.95 729.81,-357.38 736.37,-358.89 725.44,-359.81 725.44,-359.81"/>
</g>
<!-- ragger.firmware.touch.use_cases&#45;&gt;ragger.firmware.touch.element -->
<g id="edge51" class="edge">
<title>ragger.firmware.touch.use_cases&#45;&gt;ragger.firmware.touch.element</title>
<path fill="none" stroke="black" d="M694.75,-396.3C694.86,-404.02 694.99,-413.29 695.11,-421.89"/>
<polygon fill="black" stroke="black" points="695.26,-431.9 690.61,-421.96 695.18,-426.9 695.11,-421.9 695.11,-421.9 695.11,-421.9 695.18,-426.9 699.61,-421.83 695.26,-431.9 695.26,-431.9"/>
</g>
<!-- ragger.gui.process -->
<g id="node27" class="node">
<title>ragger.gui.process</title>
<polygon fill="#eedd88" stroke="#eedd88" points="1375,-828 1226,-828 1226,-792 1375,-792 1375,-828"/>
<text text-anchor="middle" x="1300.5" y="-806.3" font-family="Times,serif" font-size="14.00">ragger.gui.process</text>
</g>
<!-- ragger.gui&#45;&gt;ragger.gui.process -->
<g id="edge52" class="edge">
<title>ragger.gui&#45;&gt;ragger.gui.process</title>
<path fill="none" stroke="black" d="M1300.5,-756.3C1300.5,-764.02 1300.5,-773.29 1300.5,-781.89"/>
<polygon fill="black" stroke="black" points="1300.5,-791.9 1296,-781.9 1300.5,-786.9 1300.5,-781.9 1300.5,-781.9 1300.5,-781.9 1300.5,-786.9 1305,-781.9 1300.5,-791.9 1300.5,-791.9"/>
</g>
<!-- ragger.gui.interface -->
<g id="node26" class="node">
<title>ragger.gui.interface</title>
<polygon fill="#eedd88" stroke="#eedd88" points="1336.5,-900 1178.5,-900 1178.5,-864 1336.5,-864 1336.5,-900"/>
<text text-anchor="middle" x="1257.5" y="-878.3" font-family="Times,serif" font-size="14.00">ragger.gui.interface</text>
</g>
<!-- ragger.gui.interface&#45;&gt;ragger.logger -->
<g id="edge53" class="edge">
<title>ragger.gui.interface&#45;&gt;ragger.logger</title>
<path fill="none" stroke="black" d="M1283.68,-900.12C1297.54,-909.19 1314.74,-920.45 1329.71,-930.24"/>
<polygon fill="black" stroke="black" points="1338.22,-935.81 1327.39,-934.1 1334.04,-933.07 1329.86,-930.34 1329.86,-930.34 1329.86,-930.34 1334.04,-933.07 1332.32,-926.57 1338.22,-935.81 1338.22,-935.81"/>
</g>
<!-- ragger.gui.process&#45;&gt;ragger.gui.interface -->
<g id="edge54" class="edge">
<title>ragger.gui.process&#45;&gt;ragger.gui.interface</title>
<path fill="none" stroke="black" d="M1289.87,-828.3C1284.87,-836.44 1278.81,-846.31 1273.29,-855.3"/>
<polygon fill="black" stroke="black" points="1268.01,-863.9 1269.41,-853.02 1270.62,-859.64 1273.24,-855.37 1273.24,-855.37 1273.24,-855.37 1270.62,-859.64 1277.08,-857.73 1268.01,-863.9 1268.01,-863.9"/>
</g>
<!-- ragger.gui.process&#45;&gt;ragger.logger -->
<g id="edge55" class="edge">
<title>ragger.gui.process&#45;&gt;ragger.logger</title>
<path fill="none" stroke="black" d="M1318.79,-828.03C1328.13,-837.71 1338.89,-850.57 1345.5,-864 1355.06,-883.44 1359.83,-907.58 1362.2,-925.81"/>
<polygon fill="black" stroke="black" points="1363.33,-935.79 1357.73,-926.36 1362.77,-930.82 1362.2,-925.85 1362.2,-925.85 1362.2,-925.85 1362.77,-930.82 1366.67,-925.34 1363.33,-935.79 1363.33,-935.79"/>
</g>
<!-- ragger.gui.process&#45;&gt;ragger.navigator.instruction -->
<g id="edge56" class="edge">
<title>ragger.gui.process&#45;&gt;ragger.navigator.instruction</title>
<path fill="none" stroke="black" d="M1225.68,-825.86C1221.22,-826.62 1216.81,-827.34 1212.5,-828 1072.78,-849.42 1036.76,-846.47 896.5,-864 894.42,-864.26 892.32,-864.52 890.21,-864.79"/>
<polygon fill="black" stroke="black" points="880.22,-866.07 889.57,-860.34 885.18,-865.43 890.14,-864.8 890.14,-864.8 890.14,-864.8 885.18,-865.43 890.71,-869.26 880.22,-866.07 880.22,-866.07"/>
</g>
<!-- ragger.navigator&#45;&gt;ragger.navigator.instruction -->
<g id="edge57" class="edge">
<title>ragger.navigator&#45;&gt;ragger.navigator.instruction</title>
<path fill="none" stroke="black" d="M1090.16,-94.06C873.09,-104.69 213.5,-144.29 213.5,-233 213.5,-233 213.5,-233 213.5,-739 213.5,-806.48 273.68,-803.36 336.5,-828 392.3,-849.89 544.23,-864.91 652.8,-873.23"/>
<polygon fill="black" stroke="black" points="662.83,-873.99 652.52,-877.72 657.85,-873.61 652.86,-873.23 652.86,-873.23 652.86,-873.23 657.85,-873.61 653.2,-868.75 662.83,-873.99 662.83,-873.99"/>
</g>
<!-- ragger.navigator.nano_navigator -->
<g id="node31" class="node">
<title>ragger.navigator.nano_navigator</title>
<polygon fill="#ee8866" stroke="#ee8866" points="1387.5,-396 1139.5,-396 1139.5,-360 1387.5,-360 1387.5,-396"/>
<text text-anchor="middle" x="1263.5" y="-374.3" font-family="Times,serif" font-size="14.00">ragger.navigator.nano_navigator</text>
</g>
<!-- ragger.navigator&#45;&gt;ragger.navigator.nano_navigator -->
<g id="edge58" class="edge">
<title>ragger.navigator&#45;&gt;ragger.navigator.nano_navigator</title>
<path fill="none" stroke="black" d="M1164.75,-108.03C1182.33,-155.91 1232.27,-291.94 1253.62,-350.1"/>
<polygon fill="black" stroke="black" points="1257.15,-359.69 1249.48,-351.86 1255.42,-355 1253.7,-350.31 1253.7,-350.31 1253.7,-350.31 1255.42,-355 1257.92,-348.76 1257.15,-359.69 1257.15,-359.69"/>
</g>
<!-- ragger.navigator.navigation_scenario -->
<g id="node32" class="node">
<title>ragger.navigator.navigation_scenario</title>
<polygon fill="#ee8866" stroke="#ee8866" points="1687,-396 1406,-396 1406,-360 1687,-360 1687,-396"/>
<text text-anchor="middle" x="1546.5" y="-374.3" font-family="Times,serif" font-size="14.00">ragger.navigator.navigation_scenario</text>
</g>
<!-- ragger.navigator&#45;&gt;ragger.navigator.navigation_scenario -->
<g id="edge59" class="edge">
<title>ragger.navigator&#45;&gt;ragger.navigator.navigation_scenario</title>
<path fill="none" stroke="black" d="M1181.61,-108.03C1247.9,-156.9 1438.8,-297.61 1514.76,-353.61"/>
<polygon fill="black" stroke="black" points="1523.02,-359.69 1512.3,-357.38 1519,-356.73 1514.97,-353.76 1514.97,-353.76 1514.97,-353.76 1519,-356.73 1517.64,-350.14 1523.02,-359.69 1523.02,-359.69"/>
</g>
<!-- ragger.navigator.navigator -->
<g id="node33" class="node">
<title>ragger.navigator.navigator</title>
<polygon fill="#ee8866" stroke="#ee8866" points="1235,-468 1028,-468 1028,-432 1235,-432 1235,-468"/>
<text text-anchor="middle" x="1131.5" y="-446.3" font-family="Times,serif" font-size="14.00">ragger.navigator.navigator</text>
</g>
<!-- ragger.navigator&#45;&gt;ragger.navigator.navigator -->
<g id="edge60" class="edge">
<title>ragger.navigator&#45;&gt;ragger.navigator.navigator</title>
<path fill="none" stroke="black" d="M1148.76,-108.32C1134.99,-134.47 1111.5,-186 1111.5,-233 1111.5,-233 1111.5,-233 1111.5,-307 1111.5,-347.18 1119.45,-393.13 1125.32,-421.61"/>
<polygon fill="black" stroke="black" points="1127.45,-431.62 1120.97,-422.78 1126.41,-426.73 1125.37,-421.84 1125.37,-421.84 1125.37,-421.84 1126.41,-426.73 1129.77,-420.9 1127.45,-431.62 1127.45,-431.62"/>
</g>
<!-- ragger.navigator.touch_navigator -->
<g id="node34" class="node">
<title>ragger.navigator.touch_navigator</title>
<polygon fill="#ee8866" stroke="#ee8866" points="1083.5,-180 829.5,-180 829.5,-144 1083.5,-144 1083.5,-180"/>
<text text-anchor="middle" x="956.5" y="-158.3" font-family="Times,serif" font-size="14.00">ragger.navigator.touch_navigator</text>
</g>
<!-- ragger.navigator&#45;&gt;ragger.navigator.touch_navigator -->
<g id="edge61" class="edge">
<title>ragger.navigator&#45;&gt;ragger.navigator.touch_navigator</title>
<path fill="none" stroke="black" d="M1109.34,-108.03C1081,-117.86 1045.18,-130.27 1015.34,-140.61"/>
<polygon fill="black" stroke="black" points="1005.88,-143.89 1013.85,-136.36 1010.6,-142.25 1015.33,-140.61 1015.33,-140.61 1015.33,-140.61 1010.6,-142.25 1016.8,-144.87 1005.88,-143.89 1005.88,-143.89"/>
</g>
<!-- ragger.navigator.nano_navigator&#45;&gt;ragger.backend -->
<g id="edge62" class="edge">
<title>ragger.navigator.nano_navigator&#45;&gt;ragger.backend</title>
<path fill="none" stroke="black" d="M1275.92,-396.13C1293.87,-420.86 1327.16,-466.76 1347.99,-495.49"/>
<polygon fill="black" stroke="black" points="1354.03,-503.81 1344.52,-498.36 1351.1,-499.76 1348.16,-495.72 1348.16,-495.72 1348.16,-495.72 1351.1,-499.76 1351.8,-493.07 1354.03,-503.81 1354.03,-503.81"/>
</g>
<!-- ragger.navigator.nano_navigator&#45;&gt;ragger.firmware -->
<g id="edge63" class="edge">
<title>ragger.navigator.nano_navigator&#45;&gt;ragger.firmware</title>
<path fill="none" stroke="black" d="M1263.87,-396.26C1263.4,-415.69 1259.88,-447.23 1243.5,-468 1176.05,-553.53 1085.77,-486.63 1023.5,-576 979.72,-638.84 987.36,-735.32 994.47,-781.94"/>
<polygon fill="black" stroke="black" points="996.09,-791.88 990.04,-782.74 995.29,-786.95 994.48,-782.01 994.48,-782.01 994.48,-782.01 995.29,-786.95 998.92,-781.29 996.09,-791.88 996.09,-791.88"/>
</g>
<!-- ragger.navigator.nano_navigator&#45;&gt;ragger.navigator.navigator -->
<g id="edge64" class="edge">
<title>ragger.navigator.nano_navigator&#45;&gt;ragger.navigator.navigator</title>
<path fill="none" stroke="black" d="M1231.21,-396.12C1213.63,-405.45 1191.69,-417.08 1172.87,-427.06"/>
<polygon fill="black" stroke="black" points="1163.91,-431.81 1170.64,-423.15 1168.33,-429.47 1172.75,-427.13 1172.75,-427.13 1172.75,-427.13 1168.33,-429.47 1174.86,-431.1 1163.91,-431.81 1163.91,-431.81"/>
</g>
<!-- ragger.navigator.navigation_scenario&#45;&gt;ragger.backend -->
<g id="edge65" class="edge">
<title>ragger.navigator.navigation_scenario&#45;&gt;ragger.backend</title>
<path fill="none" stroke="black" d="M1524.79,-396.13C1492.76,-421.4 1432.74,-468.75 1396.52,-497.32"/>
<polygon fill="black" stroke="black" points="1388.29,-503.81 1393.35,-494.08 1392.21,-500.71 1396.14,-497.62 1396.14,-497.62 1396.14,-497.62 1392.21,-500.71 1398.93,-501.15 1388.29,-503.81 1388.29,-503.81"/>
</g>
<!-- ragger.navigator.navigation_scenario&#45;&gt;ragger.backend.interface -->
<g id="edge66" class="edge">
<title>ragger.navigator.navigation_scenario&#45;&gt;ragger.backend.interface</title>
<path fill="none" stroke="black" d="M1681.24,-396.09C1753.36,-413.62 1827.5,-449.12 1827.5,-521 1827.5,-521 1827.5,-521 1827.5,-595 1827.5,-665.81 1751.2,-701.67 1682.4,-719.62"/>
<polygon fill="black" stroke="black" points="1672.32,-722.14 1680.93,-715.35 1677.17,-720.92 1682.02,-719.71 1682.02,-719.71 1682.02,-719.71 1677.17,-720.92 1683.11,-724.08 1672.32,-722.14 1672.32,-722.14"/>
</g>
<!-- ragger.navigator.navigation_scenario&#45;&gt;ragger.firmware -->
<g id="edge67" class="edge">
<title>ragger.navigator.navigation_scenario&#45;&gt;ragger.firmware</title>
<path fill="none" stroke="black" d="M1503.92,-396.08C1384.84,-443.86 1056.99,-575.43 1056.5,-576 1029.71,-606.9 1010.48,-727.53 1002.97,-782.02"/>
<polygon fill="black" stroke="black" points="1001.63,-791.99 998.51,-781.48 1002.3,-787.04 1002.97,-782.08 1002.97,-782.08 1002.97,-782.08 1002.3,-787.04 1007.43,-782.68 1001.63,-791.99 1001.63,-791.99"/>
</g>
<!-- ragger.navigator.navigation_scenario&#45;&gt;ragger.navigator.navigator -->
<g id="edge68" class="edge">
<title>ragger.navigator.navigation_scenario&#45;&gt;ragger.navigator.navigator</title>
<path fill="none" stroke="black" d="M1445.51,-396.03C1384.13,-406.39 1305.7,-419.62 1242.58,-430.26"/>
<polygon fill="black" stroke="black" points="1232.58,-431.95 1241.69,-425.85 1237.51,-431.12 1242.44,-430.29 1242.44,-430.29 1242.44,-430.29 1237.51,-431.12 1243.19,-434.72 1232.58,-431.95 1232.58,-431.95"/>
</g>
<!-- ragger.navigator.navigator&#45;&gt;ragger.backend -->
<g id="edge69" class="edge">
<title>ragger.navigator.navigator&#45;&gt;ragger.backend</title>
<path fill="none" stroke="black" d="M1188.69,-468.03C1222.09,-477.99 1264.42,-490.59 1299.4,-501.01"/>
<polygon fill="black" stroke="black" points="1309.06,-503.89 1298.19,-505.35 1304.26,-502.46 1299.47,-501.03 1299.47,-501.03 1299.47,-501.03 1304.26,-502.46 1300.76,-496.72 1309.06,-503.89 1309.06,-503.89"/>
</g>
<!-- ragger.navigator.navigator&#45;&gt;ragger.firmware -->
<g id="edge70" class="edge">
<title>ragger.navigator.navigator&#45;&gt;ragger.firmware</title>
<path fill="none" stroke="black" d="M1082.33,-468.02C1032.12,-488.9 961.5,-529.55 961.5,-593 961.5,-593 961.5,-593 961.5,-667 961.5,-708.37 976.73,-754.28 987.91,-782.39"/>
<polygon fill="black" stroke="black" points="991.81,-791.91 983.85,-784.36 989.91,-787.28 988.02,-782.65 988.02,-782.65 988.02,-782.65 989.91,-787.28 992.18,-780.95 991.81,-791.91 991.81,-791.91"/>
</g>
<!-- ragger.navigator.navigator&#45;&gt;ragger.navigator.instruction -->
<g id="edge71" class="edge">
<title>ragger.navigator.navigator&#45;&gt;ragger.navigator.instruction</title>
<path fill="none" stroke="black" d="M1054.92,-468.05C1029.34,-476.16 1001.72,-487.75 979.5,-504 855.24,-594.86 796.3,-783.49 778,-853.8"/>
<polygon fill="black" stroke="black" points="775.5,-863.67 773.59,-852.87 776.73,-858.82 777.96,-853.97 777.96,-853.97 777.96,-853.97 776.73,-858.82 782.32,-855.08 775.5,-863.67 775.5,-863.67"/>
</g>
<!-- ragger.navigator.navigator&#45;&gt;ragger.utils -->
<g id="edge72" class="edge">
<title>ragger.navigator.navigator&#45;&gt;ragger.utils</title>
<path fill="none" stroke="black" d="M1235.27,-457.78C1449.83,-474.21 1930.39,-524.28 2027.5,-648 2072.75,-705.64 1972.31,-759.62 1904.02,-788.07"/>
<polygon fill="black" stroke="black" points="1894.62,-791.91 1902.17,-783.97 1899.25,-790.02 1903.88,-788.13 1903.88,-788.13 1903.88,-788.13 1899.25,-790.02 1905.58,-792.3 1894.62,-791.91 1894.62,-791.91"/>
</g>
<!-- ragger.navigator.touch_navigator&#45;&gt;ragger.backend -->
<g id="edge73" class="edge">
<title>ragger.navigator.touch_navigator&#45;&gt;ragger.backend</title>
<path fill="none" stroke="black" d="M964.05,-180.38C968.23,-190.59 973.23,-203.84 976.5,-216 1006.02,-325.64 937.65,-388.28 1018.5,-468 1056.16,-505.13 1201.97,-516.28 1292.47,-519.61"/>
<polygon fill="black" stroke="black" points="1302.68,-519.96 1292.53,-524.11 1297.68,-519.79 1292.69,-519.62 1292.69,-519.62 1292.69,-519.62 1297.68,-519.79 1292.84,-515.12 1302.68,-519.96 1302.68,-519.96"/>
</g>
<!-- ragger.navigator.touch_navigator&#45;&gt;ragger.firmware -->
<g id="edge74" class="edge">
<title>ragger.navigator.touch_navigator&#45;&gt;ragger.firmware</title>
<path fill="none" stroke="black" d="M955.21,-180.4C953,-209.94 948.26,-271.78 943.5,-324 935.51,-411.64 923.5,-432.99 923.5,-521 923.5,-521 923.5,-521 923.5,-667 923.5,-712.36 954.02,-757.25 976.38,-784.05"/>
<polygon fill="black" stroke="black" points="983.01,-791.77 973.08,-787.12 979.75,-787.98 976.49,-784.19 976.49,-784.19 976.49,-784.19 979.75,-787.98 979.9,-781.26 983.01,-791.77 983.01,-791.77"/>
</g>
<!-- ragger.navigator.touch_navigator&#45;&gt;ragger.firmware.touch -->
<g id="edge75" class="edge">
<title>ragger.navigator.touch_navigator&#45;&gt;ragger.firmware.touch</title>
<path fill="none" stroke="black" d="M926.41,-180.12C910.18,-189.36 889.96,-200.87 872.53,-210.79"/>
<polygon fill="black" stroke="black" points="863.7,-215.81 870.17,-206.95 868.05,-213.34 872.4,-210.86 872.4,-210.86 872.4,-210.86 868.05,-213.34 874.62,-214.78 863.7,-215.81 863.7,-215.81"/>
</g>
<!-- ragger.navigator.touch_navigator&#45;&gt;ragger.navigator.instruction -->
<g id="edge76" class="edge">
<title>ragger.navigator.touch_navigator&#45;&gt;ragger.navigator.instruction</title>
<path fill="none" stroke="black" d="M829.47,-164.48C635.95,-170.23 289.5,-195.78 289.5,-305 289.5,-305 289.5,-305 289.5,-739 289.5,-814.5 509.86,-852.82 652.59,-869.72"/>
<polygon fill="black" stroke="black" points="662.73,-870.9 652.28,-874.22 657.76,-870.33 652.8,-869.75 652.8,-869.75 652.8,-869.75 657.76,-870.33 653.32,-865.28 662.73,-870.9 662.73,-870.9"/>
</g>
<!-- ragger.navigator.touch_navigator&#45;&gt;ragger.navigator.navigator -->
<g id="edge77" class="edge">
<title>ragger.navigator.touch_navigator&#45;&gt;ragger.navigator.navigator</title>
<path fill="none" stroke="black" d="M979.18,-180.08C990.82,-189.69 1004.6,-202.46 1014.5,-216 1066.49,-287.12 1055.17,-318.74 1097.5,-396 1102.49,-405.11 1108.46,-414.75 1113.99,-423.29"/>
<polygon fill="black" stroke="black" points="1119.54,-431.7 1110.28,-425.83 1116.79,-427.53 1114.04,-423.36 1114.04,-423.36 1114.04,-423.36 1116.79,-427.53 1117.79,-420.88 1119.54,-431.7 1119.54,-431.7"/>
</g>
<!-- ragger.utils&#45;&gt;ragger.utils.misc -->
<g id="edge78" class="edge">
<title>ragger.utils&#45;&gt;ragger.utils.misc</title>
<path fill="none" stroke="black" d="M1897.48,-821.08C1947.35,-831.18 2026.43,-847.32 2104.59,-863.82"/>
<polygon fill="black" stroke="black" points="2114.61,-865.94 2103.89,-868.27 2109.71,-864.9 2104.82,-863.87 2104.82,-863.87 2104.82,-863.87 2109.71,-864.9 2105.75,-859.47 2114.61,-865.94 2114.61,-865.94"/>
</g>
<!-- ragger.utils.packing -->
<g id="node37" class="node">
<title>ragger.utils.packing</title>
<polygon fill="#ffaabb" stroke="#ffaabb" points="1924,-900 1765,-900 1765,-864 1924,-864 1924,-900"/>
<text text-anchor="middle" x="1844.5" y="-878.3" font-family="Times,serif" font-size="14.00">ragger.utils.packing</text>
</g>
<!-- ragger.utils&#45;&gt;ragger.utils.packing -->
<g id="edge79" class="edge">
<title>ragger.utils&#45;&gt;ragger.utils.packing</title>
<path fill="none" stroke="black" d="M1846.76,-828.3C1846.43,-836.02 1846.03,-845.29 1845.66,-853.89"/>
<polygon fill="black" stroke="black" points="1845.23,-863.9 1841.17,-853.71 1845.45,-858.9 1845.66,-853.9 1845.66,-853.9 1845.66,-853.9 1845.45,-858.9 1850.16,-854.1 1845.23,-863.9 1845.23,-863.9"/>
</g>
<!-- ragger.utils&#45;&gt;ragger.utils.structs -->
<g id="edge80" class="edge">
<title>ragger.utils&#45;&gt;ragger.utils.structs</title>
<path fill="none" stroke="black" d="M1889.58,-828.12C1913.3,-837.78 1943.12,-849.91 1968.2,-860.12"/>
<polygon fill="black" stroke="black" points="1977.56,-863.93 1966.6,-864.33 1972.93,-862.05 1968.3,-860.16 1968.3,-860.16 1968.3,-860.16 1972.93,-862.05 1969.99,-855.99 1977.56,-863.93 1977.56,-863.93"/>
</g>
<!-- ragger.utils.misc&#45;&gt;ragger.error -->
<g id="edge81" class="edge">
<title>ragger.utils.misc&#45;&gt;ragger.error</title>
<path fill="none" stroke="black" d="M2114.65,-898.31C2111.56,-898.9 2108.5,-899.47 2105.5,-900 1991.43,-920.21 1857.27,-937.05 1780.63,-946.02"/>
<polygon fill="black" stroke="black" points="1770.66,-947.17 1780.07,-941.55 1775.62,-946.6 1780.59,-946.02 1780.59,-946.02 1780.59,-946.02 1775.62,-946.6 1781.11,-950.49 1770.66,-947.17 1770.66,-947.17"/>
</g>
</g>
</svg>
