<?xml version="1.0" encoding="UTF-8" standalone="no"?>
<!DOCTYPE svg PUBLIC "-//W3C//DTD SVG 1.1//EN"
 "http://www.w3.org/Graphics/SVG/1.1/DTD/svg11.dtd">
<!-- Generated by graphviz version 2.43.0 (0)
 -->
<!-- Title: packages_generated_ragger_architecture Pages: 1 -->
<svg width="2216pt" height="908pt"
 viewBox="0.00 0.00 2215.50 908.00" xmlns="http://www.w3.org/2000/svg" xmlns:xlink="http://www.w3.org/1999/xlink">
<g id="graph0" class="graph" transform="scale(1 1) rotate(0) translate(4 904)">
<title>packages_generated_ragger_architecture</title>
<polygon fill="white" stroke="transparent" points="-4,4 -4,-904 2211.5,-904 2211.5,4 -4,4"/>
<!-- ragger -->
<g id="node1" class="node">
<title>ragger</title>
<polygon fill="aliceblue" stroke="aliceblue" points="106,-828 41,-828 41,-792 106,-792 106,-828"/>
<text text-anchor="middle" x="73.5" y="-806.3" font-family="Times,serif" font-size="14.00">ragger</text>
</g>
<!-- ragger.__version__ -->
<g id="node2" class="node">
<title>ragger.__version__</title>
<polygon fill="aliceblue" stroke="aliceblue" points="147,-900 0,-900 0,-864 147,-864 147,-900"/>
<text text-anchor="middle" x="73.5" y="-878.3" font-family="Times,serif" font-size="14.00">ragger.__version__</text>
</g>
<!-- ragger&#45;&gt;ragger.__version__ -->
<g id="edge1" class="edge">
<title>ragger&#45;&gt;ragger.__version__</title>
<path fill="none" stroke="black" d="M73.5,-828.3C73.5,-836.02 73.5,-845.29 73.5,-853.89"/>
<polygon fill="black" stroke="black" points="73.5,-863.9 69,-853.9 73.5,-858.9 73.5,-853.9 73.5,-853.9 73.5,-853.9 73.5,-858.9 78,-853.9 73.5,-863.9 73.5,-863.9"/>
</g>
<!-- ragger.logger -->
<g id="node27" class="node">
<title>ragger.logger</title>
<polygon fill="aliceblue" stroke="aliceblue" points="766,-900 653,-900 653,-864 766,-864 766,-900"/>
<text text-anchor="middle" x="709.5" y="-878.3" font-family="Times,serif" font-size="14.00">ragger.logger</text>
</g>
<!-- ragger&#45;&gt;ragger.logger -->
<g id="edge2" class="edge">
<title>ragger&#45;&gt;ragger.logger</title>
<path fill="none" stroke="black" d="M106.05,-823.99C110.84,-825.54 115.76,-826.95 120.5,-828 306.44,-869.27 532.2,-878.56 642.42,-880.54"/>
<polygon fill="black" stroke="black" points="652.72,-880.71 642.65,-885.05 647.73,-880.63 642.73,-880.55 642.73,-880.55 642.73,-880.55 647.73,-880.63 642.8,-876.05 652.72,-880.71 652.72,-880.71"/>
</g>
<!-- ragger.backend -->
<g id="node3" class="node">
<title>ragger.backend</title>
<polygon fill="antiquewhite" stroke="antiquewhite" points="1075,-468 948,-468 948,-432 1075,-432 1075,-468"/>
<text text-anchor="middle" x="1011.5" y="-446.3" font-family="Times,serif" font-size="14.00">ragger.backend</text>
</g>
<!-- ragger.backend.interface -->
<g id="node4" class="node">
<title>ragger.backend.interface</title>
<polygon fill="antiquewhite" stroke="antiquewhite" points="1122,-684 927,-684 927,-648 1122,-648 1122,-684"/>
<text text-anchor="middle" x="1024.5" y="-662.3" font-family="Times,serif" font-size="14.00">ragger.backend.interface</text>
</g>
<!-- ragger.backend&#45;&gt;ragger.backend.interface -->
<g id="edge3" class="edge">
<title>ragger.backend&#45;&gt;ragger.backend.interface</title>
<path fill="none" stroke="black" d="M1009.35,-468.04C1006.04,-497.55 1000.82,-560.01 1008.5,-612 1009.78,-620.65 1012.17,-629.85 1014.72,-638.11"/>
<polygon fill="black" stroke="black" points="1017.85,-647.63 1010.45,-639.53 1016.29,-642.88 1014.72,-638.13 1014.72,-638.13 1014.72,-638.13 1016.29,-642.88 1019,-636.72 1017.85,-647.63 1017.85,-647.63"/>
</g>
<!-- ragger.backend.ledgercomm -->
<g id="node5" class="node">
<title>ragger.backend.ledgercomm</title>
<polygon fill="antiquewhite" stroke="antiquewhite" points="943.5,-540 723.5,-540 723.5,-504 943.5,-504 943.5,-540"/>
<text text-anchor="middle" x="833.5" y="-518.3" font-family="Times,serif" font-size="14.00">ragger.backend.ledgercomm</text>
</g>
<!-- ragger.backend&#45;&gt;ragger.backend.ledgercomm -->
<g id="edge4" class="edge">
<title>ragger.backend&#45;&gt;ragger.backend.ledgercomm</title>
<path fill="none" stroke="black" d="M967.96,-468.12C943.3,-477.82 912.28,-490.02 886.25,-500.26"/>
<polygon fill="black" stroke="black" points="876.9,-503.93 884.56,-496.08 881.56,-502.1 886.21,-500.27 886.21,-500.27 886.21,-500.27 881.56,-502.1 887.86,-504.46 876.9,-503.93 876.9,-503.93"/>
</g>
<!-- ragger.backend.ledgerwallet -->
<g id="node6" class="node">
<title>ragger.backend.ledgerwallet</title>
<polygon fill="antiquewhite" stroke="antiquewhite" points="1277,-540 1056,-540 1056,-504 1277,-504 1277,-540"/>
<text text-anchor="middle" x="1166.5" y="-518.3" font-family="Times,serif" font-size="14.00">ragger.backend.ledgerwallet</text>
</g>
<!-- ragger.backend&#45;&gt;ragger.backend.ledgerwallet -->
<g id="edge5" class="edge">
<title>ragger.backend&#45;&gt;ragger.backend.ledgerwallet</title>
<path fill="none" stroke="black" d="M1049.42,-468.12C1070.51,-477.65 1096.96,-489.59 1119.37,-499.72"/>
<polygon fill="black" stroke="black" points="1128.71,-503.93 1117.74,-503.92 1124.15,-501.87 1119.59,-499.82 1119.59,-499.82 1119.59,-499.82 1124.15,-501.87 1121.44,-495.71 1128.71,-503.93 1128.71,-503.93"/>
</g>
<!-- ragger.backend.speculos -->
<g id="node8" class="node">
<title>ragger.backend.speculos</title>
<polygon fill="antiquewhite" stroke="antiquewhite" points="1431,-612 1238,-612 1238,-576 1431,-576 1431,-612"/>
<text text-anchor="middle" x="1334.5" y="-590.3" font-family="Times,serif" font-size="14.00">ragger.backend.speculos</text>
</g>
<!-- ragger.backend&#45;&gt;ragger.backend.speculos -->
<g id="edge6" class="edge">
<title>ragger.backend&#45;&gt;ragger.backend.speculos</title>
<path fill="none" stroke="black" d="M1075.02,-457.03C1145.2,-464.75 1252.65,-480.08 1285.5,-504 1306.36,-519.19 1319.38,-546.08 1326.71,-566.34"/>
<polygon fill="black" stroke="black" points="1329.95,-575.95 1322.49,-567.91 1328.35,-571.21 1326.75,-566.47 1326.75,-566.47 1326.75,-566.47 1328.35,-571.21 1331.02,-565.04 1329.95,-575.95 1329.95,-575.95"/>
</g>
<!-- ragger.backend.stub -->
<g id="node9" class="node">
<title>ragger.backend.stub</title>
<polygon fill="antiquewhite" stroke="antiquewhite" points="1181,-612 1018,-612 1018,-576 1181,-576 1181,-612"/>
<text text-anchor="middle" x="1099.5" y="-590.3" font-family="Times,serif" font-size="14.00">ragger.backend.stub</text>
</g>
<!-- ragger.backend&#45;&gt;ragger.backend.stub -->
<g id="edge7" class="edge">
<title>ragger.backend&#45;&gt;ragger.backend.stub</title>
<path fill="none" stroke="black" d="M1015.93,-468.06C1021.29,-486.74 1031.49,-517.09 1046.5,-540 1053.28,-550.35 1062.35,-560.33 1071.05,-568.78"/>
<polygon fill="black" stroke="black" points="1078.55,-575.79 1068.17,-572.25 1074.9,-572.37 1071.24,-568.96 1071.24,-568.96 1071.24,-568.96 1074.9,-572.37 1074.32,-565.67 1078.55,-575.79 1078.55,-575.79"/>
</g>
<!-- ragger.firmware -->
<g id="node17" class="node">
<title>ragger.firmware</title>
<polygon fill="cadetblue" stroke="cadetblue" points="591.5,-756 459.5,-756 459.5,-720 591.5,-720 591.5,-756"/>
<text text-anchor="middle" x="525.5" y="-734.3" font-family="Times,serif" font-size="14.00">ragger.firmware</text>
</g>
<!-- ragger.backend.interface&#45;&gt;ragger.firmware -->
<g id="edge8" class="edge">
<title>ragger.backend.interface&#45;&gt;ragger.firmware</title>
<path fill="none" stroke="black" d="M926.81,-680.7C831.56,-694.07 688.68,-714.11 601.59,-726.33"/>
<polygon fill="black" stroke="black" points="591.51,-727.74 600.79,-721.89 596.47,-727.04 601.42,-726.35 601.42,-726.35 601.42,-726.35 596.47,-727.04 602.04,-730.81 591.51,-727.74 591.51,-727.74"/>
</g>
<!-- ragger.backend.interface&#45;&gt;ragger.logger -->
<g id="edge9" class="edge">
<title>ragger.backend.interface&#45;&gt;ragger.logger</title>
<path fill="none" stroke="black" d="M1004.85,-684.08C968.71,-715.03 888.61,-781.46 814.5,-828 796.16,-839.52 774.99,-850.59 756.48,-859.61"/>
<polygon fill="black" stroke="black" points="747.36,-864 754.42,-855.61 751.86,-861.83 756.37,-859.67 756.37,-859.67 756.37,-859.67 751.86,-861.83 758.32,-863.72 747.36,-864 747.36,-864"/>
</g>
<!-- ragger.utils -->
<g id="node33" class="node">
<title>ragger.utils</title>
<polygon fill="coral" stroke="coral" points="1330,-756 1231,-756 1231,-720 1330,-720 1330,-756"/>
<text text-anchor="middle" x="1280.5" y="-734.3" font-family="Times,serif" font-size="14.00">ragger.utils</text>
</g>
<!-- ragger.backend.interface&#45;&gt;ragger.utils -->
<g id="edge10" class="edge">
<title>ragger.backend.interface&#45;&gt;ragger.utils</title>
<path fill="none" stroke="black" d="M1086.8,-684.03C1127.68,-695.21 1180.83,-709.75 1221.11,-720.76"/>
<polygon fill="black" stroke="black" points="1230.8,-723.41 1219.96,-725.11 1225.97,-722.09 1221.15,-720.77 1221.15,-720.77 1221.15,-720.77 1225.97,-722.09 1222.34,-716.43 1230.8,-723.41 1230.8,-723.41"/>
</g>
<!-- ragger.backend.ledgercomm&#45;&gt;ragger.backend.ledgercomm -->
<g id="edge11" class="edge">
<title>ragger.backend.ledgercomm&#45;&gt;ragger.backend.ledgercomm</title>
<path fill="none" stroke="black" d="M943.65,-510.99C954.56,-513.2 961.5,-516.87 961.5,-522 961.5,-525.37 958.51,-528.11 953.37,-530.21"/>
<polygon fill="black" stroke="black" points="943.65,-533.01 952.02,-525.92 948.46,-531.63 953.26,-530.25 953.26,-530.25 953.26,-530.25 948.46,-531.63 954.51,-534.57 943.65,-533.01 943.65,-533.01"/>
</g>
<!-- ragger.backend.physical_backend -->
<g id="node7" class="node">
<title>ragger.backend.physical_backend</title>
<polygon fill="antiquewhite" stroke="antiquewhite" points="961.5,-612 705.5,-612 705.5,-576 961.5,-576 961.5,-612"/>
<text text-anchor="middle" x="833.5" y="-590.3" font-family="Times,serif" font-size="14.00">ragger.backend.physical_backend</text>
</g>
<!-- ragger.backend.ledgercomm&#45;&gt;ragger.backend.physical_backend -->
<g id="edge12" class="edge">
<title>ragger.backend.ledgercomm&#45;&gt;ragger.backend.physical_backend</title>
<path fill="none" stroke="black" d="M833.5,-540.3C833.5,-548.02 833.5,-557.29 833.5,-565.89"/>
<polygon fill="black" stroke="black" points="833.5,-575.9 829,-565.9 833.5,-570.9 833.5,-565.9 833.5,-565.9 833.5,-565.9 833.5,-570.9 838,-565.9 833.5,-575.9 833.5,-575.9"/>
</g>
<!-- ragger.error -->
<g id="node16" class="node">
<title>ragger.error</title>
<polygon fill="aliceblue" stroke="aliceblue" points="1462.5,-900 1358.5,-900 1358.5,-864 1462.5,-864 1462.5,-900"/>
<text text-anchor="middle" x="1410.5" y="-878.3" font-family="Times,serif" font-size="14.00">ragger.error</text>
</g>
<!-- ragger.backend.ledgercomm&#45;&gt;ragger.error -->
<g id="edge13" class="edge">
<title>ragger.backend.ledgercomm&#45;&gt;ragger.error</title>
<path fill="none" stroke="black" d="M743.92,-540.14C725.3,-547.97 707.89,-559.38 696.5,-576 687.45,-589.2 690.18,-597.3 696.5,-612 714.88,-654.74 734.25,-657.51 772.5,-684 802.57,-704.82 817.77,-697.37 846.5,-720 895.36,-758.49 880.81,-798.38 935.5,-828 1005.28,-865.79 1235.97,-876.7 1348.15,-879.8"/>
<polygon fill="black" stroke="black" points="1358.3,-880.06 1348.19,-884.3 1353.3,-879.93 1348.31,-879.8 1348.31,-879.8 1348.31,-879.8 1353.3,-879.93 1348.42,-875.3 1358.3,-880.06 1358.3,-880.06"/>
</g>
<!-- ragger.backend.ledgercomm&#45;&gt;ragger.firmware -->
<g id="edge14" class="edge">
<title>ragger.backend.ledgercomm&#45;&gt;ragger.firmware</title>
<path fill="none" stroke="black" d="M723.35,-532.19C688.92,-539.7 652.84,-552.93 625.5,-576 585.36,-609.88 607.03,-640.56 577.5,-684 570.55,-694.22 561.51,-704.23 552.92,-712.74"/>
<polygon fill="black" stroke="black" points="545.55,-719.8 549.65,-709.63 549.16,-716.34 552.77,-712.88 552.77,-712.88 552.77,-712.88 549.16,-716.34 555.88,-716.13 545.55,-719.8 545.55,-719.8"/>
</g>
<!-- ragger.backend.ledgercomm&#45;&gt;ragger.utils -->
<g id="edge15" class="edge">
<title>ragger.backend.ledgercomm&#45;&gt;ragger.utils</title>
<path fill="none" stroke="black" d="M943.9,-534.52C1040.79,-545.43 1169.35,-562.15 1189.5,-576 1236.46,-608.27 1262.05,-673.18 1273.32,-709.96"/>
<polygon fill="black" stroke="black" points="1276.25,-719.97 1269.13,-711.64 1274.85,-715.17 1273.44,-710.37 1273.44,-710.37 1273.44,-710.37 1274.85,-715.17 1277.76,-709.11 1276.25,-719.97 1276.25,-719.97"/>
</g>
<!-- ragger.backend.ledgerwallet&#45;&gt;ragger.backend.physical_backend -->
<g id="edge16" class="edge">
<title>ragger.backend.ledgerwallet&#45;&gt;ragger.backend.physical_backend</title>
<path fill="none" stroke="black" d="M1085.46,-540.03C1036.82,-550.26 974.83,-563.29 924.51,-573.87"/>
<polygon fill="black" stroke="black" points="914.61,-575.95 923.47,-569.49 919.5,-574.92 924.4,-573.89 924.4,-573.89 924.4,-573.89 919.5,-574.92 925.32,-578.3 914.61,-575.95 914.61,-575.95"/>
</g>
<!-- ragger.backend.ledgerwallet&#45;&gt;ragger.error -->
<g id="edge17" class="edge">
<title>ragger.backend.ledgerwallet&#45;&gt;ragger.error</title>
<path fill="none" stroke="black" d="M1277,-528.58C1349.93,-534.84 1436.18,-548.08 1459.5,-576 1484.43,-605.85 1599.5,-446.87 1455.5,-828 1451.56,-838.44 1444.59,-848.25 1437.3,-856.53"/>
<polygon fill="black" stroke="black" points="1430.3,-863.96 1433.88,-853.6 1433.73,-860.32 1437.16,-856.68 1437.16,-856.68 1437.16,-856.68 1433.73,-860.32 1440.43,-859.77 1430.3,-863.96 1430.3,-863.96"/>
</g>
<!-- ragger.backend.ledgerwallet&#45;&gt;ragger.firmware -->
<g id="edge18" class="edge">
<title>ragger.backend.ledgerwallet&#45;&gt;ragger.firmware</title>
<path fill="none" stroke="black" d="M1055.88,-533.48C921.98,-546.46 712.31,-567.86 696.5,-576 639.14,-605.54 647.57,-640.96 599.5,-684 587.54,-694.71 573.43,-705.26 560.75,-714.1"/>
<polygon fill="black" stroke="black" points="552.24,-719.92 557.95,-710.56 556.37,-717.09 560.49,-714.27 560.49,-714.27 560.49,-714.27 556.37,-717.09 563.03,-717.98 552.24,-719.92 552.24,-719.92"/>
</g>
<!-- ragger.backend.ledgerwallet&#45;&gt;ragger.utils -->
<g id="edge19" class="edge">
<title>ragger.backend.ledgerwallet&#45;&gt;ragger.utils</title>
<path fill="none" stroke="black" d="M1277.19,-530.4C1343.43,-537.39 1418.69,-550.76 1439.5,-576 1483.6,-629.48 1391.38,-685.72 1329.8,-715.51"/>
<polygon fill="black" stroke="black" points="1320.58,-719.89 1327.69,-711.53 1325.1,-717.74 1329.62,-715.6 1329.62,-715.6 1329.62,-715.6 1325.1,-717.74 1331.55,-719.66 1320.58,-719.89 1320.58,-719.89"/>
</g>
<!-- ragger.backend.physical_backend&#45;&gt;ragger.backend.interface -->
<g id="edge20" class="edge">
<title>ragger.backend.physical_backend&#45;&gt;ragger.backend.interface</title>
<path fill="none" stroke="black" d="M880.22,-612.12C906.8,-621.86 940.26,-634.13 968.27,-644.39"/>
<polygon fill="black" stroke="black" points="977.93,-647.93 966.99,-648.72 973.23,-646.21 968.54,-644.49 968.54,-644.49 968.54,-644.49 973.23,-646.21 970.09,-640.27 977.93,-647.93 977.93,-647.93"/>
</g>
<!-- ragger.backend.physical_backend&#45;&gt;ragger.firmware -->
<g id="edge21" class="edge">
<title>ragger.backend.physical_backend&#45;&gt;ragger.firmware</title>
<path fill="none" stroke="black" d="M800.64,-612.07C764.79,-630.5 705.57,-660.38 653.5,-684 628.95,-695.13 601.37,-706.68 578.11,-716.14"/>
<polygon fill="black" stroke="black" points="568.77,-719.92 576.35,-712 573.4,-718.04 578.03,-716.17 578.03,-716.17 578.03,-716.17 573.4,-718.04 579.72,-720.34 568.77,-719.92 568.77,-719.92"/>
</g>
<!-- ragger.gui -->
<g id="node24" class="node">
<title>ragger.gui</title>
<polygon fill="chartreuse" stroke="chartreuse" points="871.5,-684 781.5,-684 781.5,-648 871.5,-648 871.5,-684"/>
<text text-anchor="middle" x="826.5" y="-662.3" font-family="Times,serif" font-size="14.00">ragger.gui</text>
</g>
<!-- ragger.backend.physical_backend&#45;&gt;ragger.gui -->
<g id="edge22" class="edge">
<title>ragger.backend.physical_backend&#45;&gt;ragger.gui</title>
<path fill="none" stroke="black" d="M831.77,-612.3C831,-620.02 830.07,-629.29 829.21,-637.89"/>
<polygon fill="black" stroke="black" points="828.21,-647.9 824.73,-637.5 828.71,-642.92 829.21,-637.95 829.21,-637.95 829.21,-637.95 828.71,-642.92 833.68,-638.39 828.21,-647.9 828.21,-647.9"/>
</g>
<!-- ragger.navigator.instruction -->
<g id="node29" class="node">
<title>ragger.navigator.instruction</title>
<polygon fill="chocolate" stroke="chocolate" points="395,-828 178,-828 178,-792 395,-792 395,-828"/>
<text text-anchor="middle" x="286.5" y="-806.3" font-family="Times,serif" font-size="14.00">ragger.navigator.instruction</text>
</g>
<!-- ragger.backend.physical_backend&#45;&gt;ragger.navigator.instruction -->
<g id="edge23" class="edge">
<title>ragger.backend.physical_backend&#45;&gt;ragger.navigator.instruction</title>
<path fill="none" stroke="black" d="M811.47,-612.1C762.66,-649.67 646.09,-737.57 600.5,-756 582.19,-763.4 486.5,-779.05 405.51,-791.44"/>
<polygon fill="black" stroke="black" points="395.2,-793.01 404.41,-787.05 400.15,-792.25 405.09,-791.5 405.09,-791.5 405.09,-791.5 400.15,-792.25 405.77,-795.95 395.2,-793.01 395.2,-793.01"/>
</g>
<!-- ragger.backend.physical_backend&#45;&gt;ragger.utils -->
<g id="edge24" class="edge">
<title>ragger.backend.physical_backend&#45;&gt;ragger.utils</title>
<path fill="none" stroke="black" d="M848.71,-612.3C870.51,-636.91 908.97,-679.56 917.5,-684 969.07,-710.82 1131.63,-726.34 1220.7,-733.04"/>
<polygon fill="black" stroke="black" points="1230.92,-733.79 1220.62,-737.54 1225.93,-733.42 1220.95,-733.05 1220.95,-733.05 1220.95,-733.05 1225.93,-733.42 1221.28,-728.57 1230.92,-733.79 1230.92,-733.79"/>
</g>
<!-- ragger.backend.speculos&#45;&gt;ragger.backend.interface -->
<g id="edge25" class="edge">
<title>ragger.backend.speculos&#45;&gt;ragger.backend.interface</title>
<path fill="none" stroke="black" d="M1259.06,-612.03C1213.97,-622.22 1156.55,-635.18 1109.81,-645.74"/>
<polygon fill="black" stroke="black" points="1100.01,-647.95 1108.77,-641.36 1104.88,-646.85 1109.76,-645.75 1109.76,-645.75 1109.76,-645.75 1104.88,-646.85 1110.75,-650.14 1100.01,-647.95 1100.01,-647.95"/>
</g>
<!-- ragger.backend.speculos&#45;&gt;ragger.error -->
<g id="edge26" class="edge">
<title>ragger.backend.speculos&#45;&gt;ragger.error</title>
<path fill="none" stroke="black" d="M1347.52,-612.25C1371.42,-645.09 1421.46,-719.81 1439.5,-792 1443.38,-807.52 1443.46,-812.5 1439.5,-828 1437.12,-837.3 1432.74,-846.73 1428.08,-855"/>
<polygon fill="black" stroke="black" points="1422.81,-863.78 1424.1,-852.89 1425.38,-859.5 1427.96,-855.21 1427.96,-855.21 1427.96,-855.21 1425.38,-859.5 1431.81,-857.53 1422.81,-863.78 1422.81,-863.78"/>
</g>
<!-- ragger.backend.speculos&#45;&gt;ragger.firmware -->
<g id="edge27" class="edge">
<title>ragger.backend.speculos&#45;&gt;ragger.firmware</title>
<path fill="none" stroke="black" d="M1304.18,-612.06C1265.3,-633.02 1195.16,-667.8 1130.5,-684 935.45,-732.87 879.68,-700.97 679.5,-720 654.2,-722.41 626.6,-725.35 601.84,-728.11"/>
<polygon fill="black" stroke="black" points="591.78,-729.24 601.22,-723.65 596.75,-728.68 601.72,-728.12 601.72,-728.12 601.72,-728.12 596.75,-728.68 602.22,-732.6 591.78,-729.24 591.78,-729.24"/>
</g>
<!-- ragger.backend.speculos&#45;&gt;ragger.utils -->
<g id="edge28" class="edge">
<title>ragger.backend.speculos&#45;&gt;ragger.utils</title>
<path fill="none" stroke="black" d="M1327.99,-612.13C1318.7,-636.54 1301.58,-681.57 1290.63,-710.36"/>
<polygon fill="black" stroke="black" points="1287.04,-719.81 1286.39,-708.86 1288.81,-715.14 1290.59,-710.46 1290.59,-710.46 1290.59,-710.46 1288.81,-715.14 1294.8,-712.06 1287.04,-719.81 1287.04,-719.81"/>
</g>
<!-- ragger.backend.stub&#45;&gt;ragger.backend.interface -->
<g id="edge29" class="edge">
<title>ragger.backend.stub&#45;&gt;ragger.backend.interface</title>
<path fill="none" stroke="black" d="M1080.96,-612.3C1071.7,-620.95 1060.34,-631.55 1050.24,-640.97"/>
<polygon fill="black" stroke="black" points="1042.83,-647.9 1047.07,-637.78 1046.48,-644.48 1050.14,-641.07 1050.14,-641.07 1050.14,-641.07 1046.48,-644.48 1053.21,-644.36 1042.83,-647.9 1042.83,-647.9"/>
</g>
<!-- ragger.utils.structs -->
<g id="node36" class="node">
<title>ragger.utils.structs</title>
<polygon fill="coral" stroke="coral" points="1098.5,-828 944.5,-828 944.5,-792 1098.5,-792 1098.5,-828"/>
<text text-anchor="middle" x="1021.5" y="-806.3" font-family="Times,serif" font-size="14.00">ragger.utils.structs</text>
</g>
<!-- ragger.backend.stub&#45;&gt;ragger.utils.structs -->
<g id="edge30" class="edge">
<title>ragger.backend.stub&#45;&gt;ragger.utils.structs</title>
<path fill="none" stroke="black" d="M1112.65,-612.09C1119.42,-621.99 1126.99,-635.04 1130.5,-648 1134.68,-663.44 1136.11,-669.02 1130.5,-684 1114.93,-725.54 1078.63,-762.35 1052.18,-785.08"/>
<polygon fill="black" stroke="black" points="1044.32,-791.68 1049.09,-781.8 1048.15,-788.46 1051.98,-785.25 1051.98,-785.25 1051.98,-785.25 1048.15,-788.46 1054.88,-788.7 1044.32,-791.68 1044.32,-791.68"/>
</g>
<!-- ragger.bip -->
<g id="node10" class="node">
<title>ragger.bip</title>
<polygon fill="aquamarine" stroke="aquamarine" points="1821.5,-36 1731.5,-36 1731.5,0 1821.5,0 1821.5,-36"/>
<text text-anchor="middle" x="1776.5" y="-14.3" font-family="Times,serif" font-size="14.00">ragger.bip</text>
</g>
<!-- ragger.bip.path -->
<g id="node11" class="node">
<title>ragger.bip.path</title>
<polygon fill="aquamarine" stroke="aquamarine" points="1767,-108 1640,-108 1640,-72 1767,-72 1767,-108"/>
<text text-anchor="middle" x="1703.5" y="-86.3" font-family="Times,serif" font-size="14.00">ragger.bip.path</text>
</g>
<!-- ragger.bip&#45;&gt;ragger.bip.path -->
<g id="edge31" class="edge">
<title>ragger.bip&#45;&gt;ragger.bip.path</title>
<path fill="none" stroke="black" d="M1758.46,-36.3C1749.44,-44.95 1738.38,-55.55 1728.56,-64.97"/>
<polygon fill="black" stroke="black" points="1721.34,-71.9 1725.44,-61.73 1724.95,-68.44 1728.56,-64.97 1728.56,-64.97 1728.56,-64.97 1724.95,-68.44 1731.67,-68.22 1721.34,-71.9 1721.34,-71.9"/>
</g>
<!-- ragger.bip.seed -->
<g id="node12" class="node">
<title>ragger.bip.seed</title>
<polygon fill="aquamarine" stroke="aquamarine" points="1913.5,-108 1785.5,-108 1785.5,-72 1913.5,-72 1913.5,-108"/>
<text text-anchor="middle" x="1849.5" y="-86.3" font-family="Times,serif" font-size="14.00">ragger.bip.seed</text>
</g>
<!-- ragger.bip&#45;&gt;ragger.bip.seed -->
<g id="edge32" class="edge">
<title>ragger.bip&#45;&gt;ragger.bip.seed</title>
<path fill="none" stroke="black" d="M1794.54,-36.3C1803.56,-44.95 1814.62,-55.55 1824.44,-64.97"/>
<polygon fill="black" stroke="black" points="1831.66,-71.9 1821.33,-68.22 1828.05,-68.44 1824.44,-64.97 1824.44,-64.97 1824.44,-64.97 1828.05,-68.44 1827.56,-61.73 1831.66,-71.9 1831.66,-71.9"/>
</g>
<!-- ragger.conftest -->
<g id="node13" class="node">
<title>ragger.conftest</title>
<polygon fill="burlywood" stroke="burlywood" points="1965,-36 1840,-36 1840,0 1965,0 1965,-36"/>
<text text-anchor="middle" x="1902.5" y="-14.3" font-family="Times,serif" font-size="14.00">ragger.conftest</text>
</g>
<!-- ragger.conftest.base_conftest -->
<g id="node14" class="node">
<title>ragger.conftest.base_conftest</title>
<polygon fill="burlywood" stroke="burlywood" points="1224,-36 997,-36 997,0 1224,0 1224,-36"/>
<text text-anchor="middle" x="1110.5" y="-14.3" font-family="Times,serif" font-size="14.00">ragger.conftest.base_conftest</text>
</g>
<!-- ragger.conftest.base_conftest&#45;&gt;ragger.backend -->
<g id="edge33" class="edge">
<title>ragger.conftest.base_conftest&#45;&gt;ragger.backend</title>
<path fill="none" stroke="black" d="M1143.81,-36.13C1182.91,-58.91 1242.5,-103.11 1242.5,-161 1242.5,-161 1242.5,-161 1242.5,-307 1242.5,-382.16 1152.66,-418.8 1085.04,-435.73"/>
<polygon fill="black" stroke="black" points="1075.23,-438.09 1083.9,-431.38 1080.09,-436.92 1084.96,-435.75 1084.96,-435.75 1084.96,-435.75 1080.09,-436.92 1086.01,-440.13 1075.23,-438.09 1075.23,-438.09"/>
</g>
<!-- ragger.conftest.base_conftest&#45;&gt;ragger.firmware -->
<g id="edge34" class="edge">
<title>ragger.conftest.base_conftest&#45;&gt;ragger.firmware</title>
<path fill="none" stroke="black" d="M996.89,-24.51C747.16,-38.15 172.5,-78.49 172.5,-161 172.5,-161 172.5,-161 172.5,-379 172.5,-542.83 247.03,-587.62 379.5,-684 400.2,-699.06 425.62,-710.24 449.42,-718.34"/>
<polygon fill="black" stroke="black" points="459.14,-721.52 448.24,-722.69 454.39,-719.97 449.64,-718.41 449.64,-718.41 449.64,-718.41 454.39,-719.97 451.03,-714.14 459.14,-721.52 459.14,-721.52"/>
</g>
<!-- ragger.conftest.base_conftest&#45;&gt;ragger.logger -->
<g id="edge35" class="edge">
<title>ragger.conftest.base_conftest&#45;&gt;ragger.logger</title>
<path fill="none" stroke="black" d="M996.68,-18.8C798.44,-19.66 398.37,-27.13 266.5,-72 199.52,-94.79 134.5,-90.24 134.5,-161 134.5,-161 134.5,-161 134.5,-739 134.5,-781.34 134.84,-802.31 168.5,-828 205.47,-856.21 506.25,-872.4 642.66,-878.36"/>
<polygon fill="black" stroke="black" points="652.98,-878.8 642.8,-882.87 647.99,-878.58 642.99,-878.37 642.99,-878.37 642.99,-878.37 647.99,-878.58 643.19,-873.87 652.98,-878.8 652.98,-878.8"/>
</g>
<!-- ragger.navigator -->
<g id="node28" class="node">
<title>ragger.navigator</title>
<polygon fill="chocolate" stroke="chocolate" points="1007.5,-108 871.5,-108 871.5,-72 1007.5,-72 1007.5,-108"/>
<text text-anchor="middle" x="939.5" y="-86.3" font-family="Times,serif" font-size="14.00">ragger.navigator</text>
</g>
<!-- ragger.conftest.base_conftest&#45;&gt;ragger.navigator -->
<g id="edge36" class="edge">
<title>ragger.conftest.base_conftest&#45;&gt;ragger.navigator</title>
<path fill="none" stroke="black" d="M1068.67,-36.12C1045.08,-45.78 1015.44,-57.91 990.5,-68.12"/>
<polygon fill="black" stroke="black" points="981.2,-71.93 988.75,-63.98 985.82,-70.04 990.45,-68.14 990.45,-68.14 990.45,-68.14 985.82,-70.04 992.15,-72.31 981.2,-71.93 981.2,-71.93"/>
</g>
<!-- ragger.conftest.base_conftest&#45;&gt;ragger.utils -->
<g id="edge37" class="edge">
<title>ragger.conftest.base_conftest&#45;&gt;ragger.utils</title>
<path fill="none" stroke="black" d="M1224.06,-31.05C1361.14,-48.82 1573.5,-88.12 1573.5,-161 1573.5,-161 1573.5,-161 1573.5,-595 1573.5,-697.66 1426.03,-726.13 1340.33,-734"/>
<polygon fill="black" stroke="black" points="1330.2,-734.87 1339.79,-729.53 1335.19,-734.44 1340.17,-734.02 1340.17,-734.02 1340.17,-734.02 1335.19,-734.44 1340.55,-738.5 1330.2,-734.87 1330.2,-734.87"/>
</g>
<!-- ragger.utils.misc -->
<g id="node34" class="node">
<title>ragger.utils.misc</title>
<polygon fill="coral" stroke="coral" points="1431,-828 1294,-828 1294,-792 1431,-792 1431,-828"/>
<text text-anchor="middle" x="1362.5" y="-806.3" font-family="Times,serif" font-size="14.00">ragger.utils.misc</text>
</g>
<!-- ragger.conftest.base_conftest&#45;&gt;ragger.utils.misc -->
<g id="edge38" class="edge">
<title>ragger.conftest.base_conftest&#45;&gt;ragger.utils.misc</title>
<path fill="none" stroke="black" d="M1224.19,-27.58C1321.41,-36.16 1453.07,-51.1 1501.5,-72 1559.24,-96.92 1611.5,-98.11 1611.5,-161 1611.5,-161 1611.5,-161 1611.5,-595 1611.5,-694.56 1495.6,-757.88 1421.94,-788.07"/>
<polygon fill="black" stroke="black" points="1412.29,-791.93 1419.9,-784.04 1416.93,-790.07 1421.57,-788.21 1421.57,-788.21 1421.57,-788.21 1416.93,-790.07 1423.25,-792.39 1412.29,-791.93 1412.29,-791.93"/>
</g>
<!-- ragger.conftest.configuration -->
<g id="node15" class="node">
<title>ragger.conftest.configuration</title>
<polygon fill="burlywood" stroke="burlywood" points="2207.5,-36 1983.5,-36 1983.5,0 2207.5,0 2207.5,-36"/>
<text text-anchor="middle" x="2095.5" y="-14.3" font-family="Times,serif" font-size="14.00">ragger.conftest.configuration</text>
</g>
<!-- ragger.firmware.structs -->
<g id="node23" class="node">
<title>ragger.firmware.structs</title>
<polygon fill="cadetblue" stroke="cadetblue" points="613,-828 426,-828 426,-792 613,-792 613,-828"/>
<text text-anchor="middle" x="519.5" y="-806.3" font-family="Times,serif" font-size="14.00">ragger.firmware.structs</text>
</g>
<!-- ragger.firmware&#45;&gt;ragger.firmware.structs -->
<g id="edge39" class="edge">
<title>ragger.firmware&#45;&gt;ragger.firmware.structs</title>
<path fill="none" stroke="black" d="M524.02,-756.3C523.36,-764.02 522.56,-773.29 521.82,-781.89"/>
<polygon fill="black" stroke="black" points="520.97,-791.9 517.34,-781.55 521.39,-786.91 521.82,-781.93 521.82,-781.93 521.82,-781.93 521.39,-786.91 526.3,-782.32 520.97,-791.9 520.97,-791.9"/>
</g>
<!-- ragger.firmware.stax -->
<g id="node18" class="node">
<title>ragger.firmware.stax</title>
<polygon fill="cadetblue" stroke="cadetblue" points="818,-252 651,-252 651,-216 818,-216 818,-252"/>
<text text-anchor="middle" x="734.5" y="-230.3" font-family="Times,serif" font-size="14.00">ragger.firmware.stax</text>
</g>
<!-- ragger.firmware.stax.screen -->
<g id="node21" class="node">
<title>ragger.firmware.stax.screen</title>
<polygon fill="cadetblue" stroke="cadetblue" points="824.5,-324 606.5,-324 606.5,-288 824.5,-288 824.5,-324"/>
<text text-anchor="middle" x="715.5" y="-302.3" font-family="Times,serif" font-size="14.00">ragger.firmware.stax.screen</text>
</g>
<!-- ragger.firmware.stax&#45;&gt;ragger.firmware.stax.screen -->
<g id="edge40" class="edge">
<title>ragger.firmware.stax&#45;&gt;ragger.firmware.stax.screen</title>
<path fill="none" stroke="black" d="M729.8,-252.3C727.69,-260.1 725.14,-269.49 722.78,-278.17"/>
<polygon fill="black" stroke="black" points="720.14,-287.9 718.42,-277.07 721.45,-283.07 722.76,-278.24 722.76,-278.24 722.76,-278.24 721.45,-283.07 727.11,-279.42 720.14,-287.9 720.14,-287.9"/>
</g>
<!-- ragger.firmware.stax.layouts -->
<g id="node19" class="node">
<title>ragger.firmware.stax.layouts</title>
<polygon fill="cadetblue" stroke="cadetblue" points="576,-396 353,-396 353,-360 576,-360 576,-396"/>
<text text-anchor="middle" x="464.5" y="-374.3" font-family="Times,serif" font-size="14.00">ragger.firmware.stax.layouts</text>
</g>
<!-- ragger.firmware.stax.layouts&#45;&gt;ragger.backend -->
<g id="edge41" class="edge">
<title>ragger.firmware.stax.layouts&#45;&gt;ragger.backend</title>
<path fill="none" stroke="black" d="M576.24,-394.76C579.36,-395.18 582.45,-395.6 585.5,-396 709.04,-412.36 852.93,-429.96 937.88,-440.2"/>
<polygon fill="black" stroke="black" points="947.95,-441.41 937.48,-444.68 942.98,-440.81 938.02,-440.22 938.02,-440.22 938.02,-440.22 942.98,-440.81 938.56,-435.75 947.95,-441.41 947.95,-441.41"/>
</g>
<!-- ragger.firmware.stax.layouts&#45;&gt;ragger.firmware -->
<g id="edge42" class="edge">
<title>ragger.firmware.stax.layouts&#45;&gt;ragger.firmware</title>
<path fill="none" stroke="black" d="M420.94,-396.13C405.64,-404.51 390.13,-416.26 381.5,-432 373.81,-446.03 378.3,-452.32 381.5,-468 402.37,-570.24 415.51,-597.25 473.5,-684 480.37,-694.28 489.39,-704.29 497.99,-712.8"/>
<polygon fill="black" stroke="black" points="505.37,-719.86 495.03,-716.2 501.75,-716.4 498.14,-712.95 498.14,-712.95 498.14,-712.95 501.75,-716.4 501.25,-709.69 505.37,-719.86 505.37,-719.86"/>
</g>
<!-- ragger.firmware.stax.positions -->
<g id="node20" class="node">
<title>ragger.firmware.stax.positions</title>
<polygon fill="cadetblue" stroke="cadetblue" points="626.5,-468 390.5,-468 390.5,-432 626.5,-432 626.5,-468"/>
<text text-anchor="middle" x="508.5" y="-446.3" font-family="Times,serif" font-size="14.00">ragger.firmware.stax.positions</text>
</g>
<!-- ragger.firmware.stax.layouts&#45;&gt;ragger.firmware.stax.positions -->
<g id="edge43" class="edge">
<title>ragger.firmware.stax.layouts&#45;&gt;ragger.firmware.stax.positions</title>
<path fill="none" stroke="black" d="M475.38,-396.3C480.49,-404.44 486.7,-414.31 492.34,-423.3"/>
<polygon fill="black" stroke="black" points="497.75,-431.9 488.62,-425.82 495.09,-427.66 492.43,-423.43 492.43,-423.43 492.43,-423.43 495.09,-427.66 496.24,-421.03 497.75,-431.9 497.75,-431.9"/>
</g>
<!-- ragger.firmware.stax.screen&#45;&gt;ragger.backend -->
<g id="edge44" class="edge">
<title>ragger.firmware.stax.screen&#45;&gt;ragger.backend</title>
<path fill="none" stroke="black" d="M769.89,-324.05C794.06,-332.89 822.25,-345.01 845.5,-360 865.05,-372.61 863.98,-383.34 883.5,-396 903.54,-409 927.29,-419.89 948.86,-428.35"/>
<polygon fill="black" stroke="black" points="958.27,-431.94 947.33,-432.58 953.6,-430.16 948.93,-428.38 948.93,-428.38 948.93,-428.38 953.6,-430.16 950.54,-424.17 958.27,-431.94 958.27,-431.94"/>
</g>
<!-- ragger.firmware.stax.screen&#45;&gt;ragger.firmware -->
<g id="edge45" class="edge">
<title>ragger.firmware.stax.screen&#45;&gt;ragger.firmware</title>
<path fill="none" stroke="black" d="M606.22,-307.31C508.95,-310.18 377.01,-321.38 343.5,-360 293.94,-417.12 396.48,-628.19 447.5,-684 458.09,-695.59 471.69,-705.93 484.56,-714.33"/>
<polygon fill="black" stroke="black" points="493.3,-719.83 482.44,-718.32 489.07,-717.17 484.84,-714.51 484.84,-714.51 484.84,-714.51 489.07,-717.17 487.23,-710.7 493.3,-719.83 493.3,-719.83"/>
</g>
<!-- ragger.firmware.stax.screen&#45;&gt;ragger.firmware.stax.layouts -->
<g id="edge46" class="edge">
<title>ragger.firmware.stax.screen&#45;&gt;ragger.firmware.stax.layouts</title>
<path fill="none" stroke="black" d="M654.42,-324.03C618.59,-334.03 573.14,-346.7 535.69,-357.15"/>
<polygon fill="black" stroke="black" points="525.85,-359.89 534.28,-352.87 530.67,-358.55 535.49,-357.2 535.49,-357.2 535.49,-357.2 530.67,-358.55 536.7,-361.54 525.85,-359.89 525.85,-359.89"/>
</g>
<!-- ragger.firmware.stax.use_cases -->
<g id="node22" class="node">
<title>ragger.firmware.stax.use_cases</title>
<polygon fill="cadetblue" stroke="cadetblue" points="836.5,-396 594.5,-396 594.5,-360 836.5,-360 836.5,-396"/>
<text text-anchor="middle" x="715.5" y="-374.3" font-family="Times,serif" font-size="14.00">ragger.firmware.stax.use_cases</text>
</g>
<!-- ragger.firmware.stax.screen&#45;&gt;ragger.firmware.stax.use_cases -->
<g id="edge47" class="edge">
<title>ragger.firmware.stax.screen&#45;&gt;ragger.firmware.stax.use_cases</title>
<path fill="none" stroke="black" d="M715.5,-324.3C715.5,-332.02 715.5,-341.29 715.5,-349.89"/>
<polygon fill="black" stroke="black" points="715.5,-359.9 711,-349.9 715.5,-354.9 715.5,-349.9 715.5,-349.9 715.5,-349.9 715.5,-354.9 720,-349.9 715.5,-359.9 715.5,-359.9"/>
</g>
<!-- ragger.firmware.stax.use_cases&#45;&gt;ragger.backend -->
<g id="edge48" class="edge">
<title>ragger.firmware.stax.use_cases&#45;&gt;ragger.backend</title>
<path fill="none" stroke="black" d="M787.53,-396.03C833.13,-406.82 891.92,-420.72 937.83,-431.58"/>
<polygon fill="black" stroke="black" points="947.72,-433.92 936.95,-435.99 942.85,-432.77 937.99,-431.61 937.99,-431.61 937.99,-431.61 942.85,-432.77 939.02,-427.24 947.72,-433.92 947.72,-433.92"/>
</g>
<!-- ragger.firmware.stax.use_cases&#45;&gt;ragger.firmware -->
<g id="edge49" class="edge">
<title>ragger.firmware.stax.use_cases&#45;&gt;ragger.firmware</title>
<path fill="none" stroke="black" d="M702.59,-396.06C687.73,-415.01 661.94,-445.86 635.5,-468 612.24,-487.48 600.86,-484.64 577.5,-504 544.08,-531.7 527.24,-535.54 511.5,-576 494.15,-620.59 506.13,-677.22 516.06,-710.06"/>
<polygon fill="black" stroke="black" points="519.17,-719.84 511.85,-711.68 517.66,-715.08 516.14,-710.31 516.14,-710.31 516.14,-710.31 517.66,-715.08 520.43,-708.95 519.17,-719.84 519.17,-719.84"/>
</g>
<!-- ragger.firmware.stax.use_cases&#45;&gt;ragger.firmware.stax.positions -->
<g id="edge50" class="edge">
<title>ragger.firmware.stax.use_cases&#45;&gt;ragger.firmware.stax.positions</title>
<path fill="none" stroke="black" d="M665.13,-396.03C636.08,-405.86 599.37,-418.27 568.79,-428.61"/>
<polygon fill="black" stroke="black" points="559.1,-431.89 567.13,-424.42 563.84,-430.29 568.57,-428.69 568.57,-428.69 568.57,-428.69 563.84,-430.29 570.01,-432.95 559.1,-431.89 559.1,-431.89"/>
</g>
<!-- ragger.gui.process -->
<g id="node26" class="node">
<title>ragger.gui.process</title>
<polygon fill="chartreuse" stroke="chartreuse" points="838,-756 689,-756 689,-720 838,-720 838,-756"/>
<text text-anchor="middle" x="763.5" y="-734.3" font-family="Times,serif" font-size="14.00">ragger.gui.process</text>
</g>
<!-- ragger.gui&#45;&gt;ragger.gui.process -->
<g id="edge51" class="edge">
<title>ragger.gui&#45;&gt;ragger.gui.process</title>
<path fill="none" stroke="black" d="M810.93,-684.3C803.3,-692.78 793.98,-703.14 785.62,-712.42"/>
<polygon fill="black" stroke="black" points="778.89,-719.9 782.24,-709.45 782.24,-716.18 785.58,-712.46 785.58,-712.46 785.58,-712.46 782.24,-716.18 788.93,-715.47 778.89,-719.9 778.89,-719.9"/>
</g>
<!-- ragger.gui.interface -->
<g id="node25" class="node">
<title>ragger.gui.interface</title>
<polygon fill="chartreuse" stroke="chartreuse" points="788.5,-828 630.5,-828 630.5,-792 788.5,-792 788.5,-828"/>
<text text-anchor="middle" x="709.5" y="-806.3" font-family="Times,serif" font-size="14.00">ragger.gui.interface</text>
</g>
<!-- ragger.gui.interface&#45;&gt;ragger.logger -->
<g id="edge52" class="edge">
<title>ragger.gui.interface&#45;&gt;ragger.logger</title>
<path fill="none" stroke="black" d="M709.5,-828.3C709.5,-836.02 709.5,-845.29 709.5,-853.89"/>
<polygon fill="black" stroke="black" points="709.5,-863.9 705,-853.9 709.5,-858.9 709.5,-853.9 709.5,-853.9 709.5,-853.9 709.5,-858.9 714,-853.9 709.5,-863.9 709.5,-863.9"/>
</g>
<!-- ragger.gui.process&#45;&gt;ragger.gui.interface -->
<g id="edge53" class="edge">
<title>ragger.gui.process&#45;&gt;ragger.gui.interface</title>
<path fill="none" stroke="black" d="M750.15,-756.3C743.74,-764.61 735.94,-774.72 728.89,-783.86"/>
<polygon fill="black" stroke="black" points="722.69,-791.9 725.24,-781.23 725.75,-787.94 728.8,-783.98 728.8,-783.98 728.8,-783.98 725.75,-787.94 732.37,-786.73 722.69,-791.9 722.69,-791.9"/>
</g>
<!-- ragger.gui.process&#45;&gt;ragger.logger -->
<g id="edge54" class="edge">
<title>ragger.gui.process&#45;&gt;ragger.logger</title>
<path fill="none" stroke="black" d="M778.69,-756.07C793.14,-774.5 810.85,-804.38 797.5,-828 790.16,-840.99 778.21,-851.16 765.46,-858.95"/>
<polygon fill="black" stroke="black" points="756.54,-863.97 763.05,-855.14 760.9,-861.52 765.25,-859.06 765.25,-859.06 765.25,-859.06 760.9,-861.52 767.46,-862.98 756.54,-863.97 756.54,-863.97"/>
</g>
<!-- ragger.gui.process&#45;&gt;ragger.navigator.instruction -->
<g id="edge55" class="edge">
<title>ragger.gui.process&#45;&gt;ragger.navigator.instruction</title>
<path fill="none" stroke="black" d="M688.66,-753.75C684.21,-754.54 679.8,-755.29 675.5,-756 649.19,-760.33 509.75,-779.16 405.28,-793.15"/>
<polygon fill="black" stroke="black" points="395.29,-794.49 404.6,-788.71 400.24,-793.83 405.2,-793.17 405.2,-793.17 405.2,-793.17 400.24,-793.83 405.8,-797.63 395.29,-794.49 395.29,-794.49"/>
</g>
<!-- ragger.navigator&#45;&gt;ragger.navigator -->
<g id="edge56" class="edge">
<title>ragger.navigator&#45;&gt;ragger.navigator</title>
<path fill="none" stroke="black" d="M1007.63,-77.63C1018.26,-79.48 1025.5,-83.6 1025.5,-90 1025.5,-94.1 1022.53,-97.26 1017.6,-99.5"/>
<polygon fill="black" stroke="black" points="1007.63,-102.37 1015.99,-95.28 1012.43,-100.99 1017.24,-99.6 1017.24,-99.6 1017.24,-99.6 1012.43,-100.99 1018.48,-103.92 1007.63,-102.37 1007.63,-102.37"/>
</g>
<!-- ragger.navigator&#45;&gt;ragger.navigator.instruction -->
<g id="edge57" class="edge">
<title>ragger.navigator&#45;&gt;ragger.navigator.instruction</title>
<path fill="none" stroke="black" d="M871.25,-97.13C690.02,-114.3 210.5,-166.07 210.5,-233 210.5,-233 210.5,-233 210.5,-379 210.5,-475.6 172.5,-496.4 172.5,-593 172.5,-593 172.5,-593 172.5,-667 172.5,-718 217.77,-761.12 251.26,-786.03"/>
<polygon fill="black" stroke="black" points="259.48,-791.96 248.74,-789.76 255.43,-789.04 251.37,-786.11 251.37,-786.11 251.37,-786.11 255.43,-789.04 254.01,-782.46 259.48,-791.96 259.48,-791.96"/>
</g>
<!-- ragger.navigator.nano_navigator -->
<g id="node30" class="node">
<title>ragger.navigator.nano_navigator</title>
<polygon fill="chocolate" stroke="chocolate" points="1176.5,-324 928.5,-324 928.5,-288 1176.5,-288 1176.5,-324"/>
<text text-anchor="middle" x="1052.5" y="-302.3" font-family="Times,serif" font-size="14.00">ragger.navigator.nano_navigator</text>
</g>
<!-- ragger.navigator&#45;&gt;ragger.navigator.nano_navigator -->
<g id="edge58" class="edge">
<title>ragger.navigator&#45;&gt;ragger.navigator.nano_navigator</title>
<path fill="none" stroke="black" d="M948.56,-108.15C968.27,-145.48 1015.17,-234.31 1038.63,-278.74"/>
<polygon fill="black" stroke="black" points="1043.4,-287.77 1034.75,-281.03 1041.07,-283.35 1038.73,-278.92 1038.73,-278.92 1038.73,-278.92 1041.07,-283.35 1042.71,-276.82 1043.4,-287.77 1043.4,-287.77"/>
</g>
<!-- ragger.navigator.stax_navigator -->
<g id="node32" class="node">
<title>ragger.navigator.stax_navigator</title>
<polygon fill="chocolate" stroke="chocolate" points="930.5,-180 686.5,-180 686.5,-144 930.5,-144 930.5,-180"/>
<text text-anchor="middle" x="808.5" y="-158.3" font-family="Times,serif" font-size="14.00">ragger.navigator.stax_navigator</text>
</g>
<!-- ragger.navigator&#45;&gt;ragger.navigator.stax_navigator -->
<g id="edge59" class="edge">
<title>ragger.navigator&#45;&gt;ragger.navigator.stax_navigator</title>
<path fill="none" stroke="black" d="M907.45,-108.12C890.01,-117.45 868.23,-129.08 849.56,-139.06"/>
<polygon fill="black" stroke="black" points="840.67,-143.81 847.37,-135.13 845.08,-141.45 849.49,-139.1 849.49,-139.1 849.49,-139.1 845.08,-141.45 851.61,-143.07 840.67,-143.81 840.67,-143.81"/>
</g>
<!-- ragger.navigator.nano_navigator&#45;&gt;ragger.backend -->
<g id="edge60" class="edge">
<title>ragger.navigator.nano_navigator&#45;&gt;ragger.backend</title>
<path fill="none" stroke="black" d="M1101.06,-324.03C1117.17,-332.27 1133.32,-343.94 1142.5,-360 1150.44,-373.89 1151.44,-382.73 1142.5,-396 1129.18,-415.76 1107.11,-428.15 1084.85,-435.93"/>
<polygon fill="black" stroke="black" points="1075.32,-438.98 1083.47,-431.64 1080.08,-437.46 1084.84,-435.93 1084.84,-435.93 1084.84,-435.93 1080.08,-437.46 1086.22,-440.21 1075.32,-438.98 1075.32,-438.98"/>
</g>
<!-- ragger.navigator.nano_navigator&#45;&gt;ragger.firmware -->
<g id="edge61" class="edge">
<title>ragger.navigator.nano_navigator&#45;&gt;ragger.firmware</title>
<path fill="none" stroke="black" d="M1076.3,-324.21C1099.07,-342.76 1127.35,-372.74 1108.5,-396 1059.87,-456 1013.14,-412.16 938.5,-432 837.44,-458.87 809.49,-460.28 714.5,-504 659.03,-529.53 637.75,-530.09 597.5,-576 579.03,-597.07 550.18,-670.28 535.22,-710.33"/>
<polygon fill="black" stroke="black" points="531.73,-719.74 530.99,-708.8 533.47,-715.05 535.21,-710.36 535.21,-710.36 535.21,-710.36 533.47,-715.05 539.43,-711.93 531.73,-719.74 531.73,-719.74"/>
</g>
<!-- ragger.navigator.navigator -->
<g id="node31" class="node">
<title>ragger.navigator.navigator</title>
<polygon fill="chocolate" stroke="chocolate" points="1100,-396 893,-396 893,-360 1100,-360 1100,-396"/>
<text text-anchor="middle" x="996.5" y="-374.3" font-family="Times,serif" font-size="14.00">ragger.navigator.navigator</text>
</g>
<!-- ragger.navigator.nano_navigator&#45;&gt;ragger.navigator.navigator -->
<g id="edge62" class="edge">
<title>ragger.navigator.nano_navigator&#45;&gt;ragger.navigator.navigator</title>
<path fill="none" stroke="black" d="M1038.66,-324.3C1032.01,-332.61 1023.92,-342.72 1016.61,-351.86"/>
<polygon fill="black" stroke="black" points="1010.18,-359.9 1012.92,-349.28 1013.31,-355.99 1016.43,-352.09 1016.43,-352.09 1016.43,-352.09 1013.31,-355.99 1019.94,-354.9 1010.18,-359.9 1010.18,-359.9"/>
</g>
<!-- ragger.navigator.navigator&#45;&gt;ragger.backend -->
<g id="edge63" class="edge">
<title>ragger.navigator.navigator&#45;&gt;ragger.backend</title>
<path fill="none" stroke="black" d="M1000.21,-396.3C1001.86,-404.02 1003.85,-413.29 1005.69,-421.89"/>
<polygon fill="black" stroke="black" points="1007.83,-431.9 1001.34,-423.06 1006.79,-427.01 1005.74,-422.12 1005.74,-422.12 1005.74,-422.12 1006.79,-427.01 1010.14,-421.17 1007.83,-431.9 1007.83,-431.9"/>
</g>
<!-- ragger.navigator.navigator&#45;&gt;ragger.firmware -->
<g id="edge64" class="edge">
<title>ragger.navigator.navigator&#45;&gt;ragger.firmware</title>
<path fill="none" stroke="black" d="M939.13,-396.07C839.7,-425.9 643.29,-486.07 615.5,-504 579.02,-527.53 568.18,-536.82 549.5,-576 528.85,-619.31 525.03,-676 524.81,-709.27"/>
<polygon fill="black" stroke="black" points="524.85,-719.6 520.31,-709.61 524.83,-714.6 524.81,-709.6 524.81,-709.6 524.81,-709.6 524.83,-714.6 529.31,-709.58 524.85,-719.6 524.85,-719.6"/>
</g>
<!-- ragger.navigator.navigator&#45;&gt;ragger.navigator.instruction -->
<g id="edge65" class="edge">
<title>ragger.navigator.navigator&#45;&gt;ragger.navigator.instruction</title>
<path fill="none" stroke="black" d="M892.68,-390.58C836.56,-398.67 766.64,-411.73 706.5,-432 672.97,-443.3 668,-454.01 635.5,-468 484.17,-533.16 286.5,-428.24 286.5,-593 286.5,-593 286.5,-593 286.5,-667 286.5,-707 286.5,-753.35 286.5,-781.92"/>
<polygon fill="black" stroke="black" points="286.5,-791.95 282,-781.95 286.5,-786.95 286.5,-781.95 286.5,-781.95 286.5,-781.95 286.5,-786.95 291,-781.95 286.5,-791.95 286.5,-791.95"/>
</g>
<!-- ragger.navigator.navigator&#45;&gt;ragger.utils -->
<g id="edge66" class="edge">
<title>ragger.navigator.navigator&#45;&gt;ragger.utils</title>
<path fill="none" stroke="black" d="M1100.11,-385.23C1256.67,-397.52 1535.5,-431.91 1535.5,-521 1535.5,-521 1535.5,-521 1535.5,-595 1535.5,-683.81 1415.99,-717.57 1340.6,-730.04"/>
<polygon fill="black" stroke="black" points="1330.27,-731.66 1339.45,-725.66 1335.21,-730.88 1340.15,-730.11 1340.15,-730.11 1340.15,-730.11 1335.21,-730.88 1340.85,-734.55 1330.27,-731.66 1330.27,-731.66"/>
</g>
<!-- ragger.navigator.stax_navigator&#45;&gt;ragger.backend -->
<g id="edge67" class="edge">
<title>ragger.navigator.stax_navigator&#45;&gt;ragger.backend</title>
<path fill="none" stroke="black" d="M930.73,-167.89C1017.3,-178.52 1127.88,-208.19 1185.5,-288 1205.46,-315.64 1164.17,-392.3 1160.5,-396 1140.26,-416.39 1111.67,-428.97 1084.94,-436.71"/>
<polygon fill="black" stroke="black" points="1075.19,-439.35 1083.67,-432.4 1080.02,-438.05 1084.84,-436.74 1084.84,-436.74 1084.84,-436.74 1080.02,-438.05 1086.02,-441.08 1075.19,-439.35 1075.19,-439.35"/>
</g>
<!-- ragger.navigator.stax_navigator&#45;&gt;ragger.firmware -->
<g id="edge68" class="edge">
<title>ragger.navigator.stax_navigator&#45;&gt;ragger.firmware</title>
<path fill="none" stroke="black" d="M686.44,-171.81C532.18,-186.38 286.5,-222.53 286.5,-305 286.5,-305 286.5,-305 286.5,-379 286.5,-526.53 311.1,-581.8 417.5,-684 431.16,-697.12 448.7,-707.6 465.65,-715.66"/>
<polygon fill="black" stroke="black" points="474.98,-719.89 464.02,-719.86 470.43,-717.82 465.88,-715.76 465.88,-715.76 465.88,-715.76 470.43,-717.82 467.73,-711.66 474.98,-719.89 474.98,-719.89"/>
</g>
<!-- ragger.navigator.stax_navigator&#45;&gt;ragger.firmware.stax -->
<g id="edge69" class="edge">
<title>ragger.navigator.stax_navigator&#45;&gt;ragger.firmware.stax</title>
<path fill="none" stroke="black" d="M790.21,-180.3C781.07,-188.95 769.86,-199.55 759.9,-208.97"/>
<polygon fill="black" stroke="black" points="752.58,-215.9 756.75,-205.75 756.21,-212.46 759.85,-209.02 759.85,-209.02 759.85,-209.02 756.21,-212.46 762.94,-212.29 752.58,-215.9 752.58,-215.9"/>
</g>
<!-- ragger.navigator.stax_navigator&#45;&gt;ragger.navigator.instruction -->
<g id="edge70" class="edge">
<title>ragger.navigator.stax_navigator&#45;&gt;ragger.navigator.instruction</title>
<path fill="none" stroke="black" d="M686.3,-166.53C564.78,-171.8 387.99,-184.72 327.5,-216 280.52,-240.3 248.5,-252.11 248.5,-305 248.5,-305 248.5,-305 248.5,-523 248.5,-618.86 269.74,-731.24 280.46,-781.86"/>
<polygon fill="black" stroke="black" points="282.58,-791.7 276.07,-782.87 281.52,-786.81 280.47,-781.92 280.47,-781.92 280.47,-781.92 281.52,-786.81 284.87,-780.97 282.58,-791.7 282.58,-791.7"/>
</g>
<!-- ragger.navigator.stax_navigator&#45;&gt;ragger.navigator.navigator -->
<g id="edge71" class="edge">
<title>ragger.navigator.stax_navigator&#45;&gt;ragger.navigator.navigator</title>
<path fill="none" stroke="black" d="M817.46,-180C834.42,-211.1 873.63,-278.16 919.5,-324 930.79,-335.28 944.76,-345.71 957.69,-354.28"/>
<polygon fill="black" stroke="black" points="966.43,-359.91 955.59,-358.28 962.23,-357.2 958.02,-354.5 958.02,-354.5 958.02,-354.5 962.23,-357.2 960.46,-350.71 966.43,-359.91 966.43,-359.91"/>
</g>
<!-- ragger.utils&#45;&gt;ragger.utils.misc -->
<g id="edge72" class="edge">
<title>ragger.utils&#45;&gt;ragger.utils.misc</title>
<path fill="none" stroke="black" d="M1300.77,-756.3C1311,-765.03 1323.56,-775.76 1334.68,-785.25"/>
<polygon fill="black" stroke="black" points="1342.46,-791.9 1331.94,-788.83 1338.66,-788.65 1334.86,-785.4 1334.86,-785.4 1334.86,-785.4 1338.66,-788.65 1337.78,-781.98 1342.46,-791.9 1342.46,-791.9"/>
</g>
<!-- ragger.utils.packing -->
<g id="node35" class="node">
<title>ragger.utils.packing</title>
<polygon fill="coral" stroke="coral" points="1276,-828 1117,-828 1117,-792 1276,-792 1276,-828"/>
<text text-anchor="middle" x="1196.5" y="-806.3" font-family="Times,serif" font-size="14.00">ragger.utils.packing</text>
</g>
<!-- ragger.utils&#45;&gt;ragger.utils.packing -->
<g id="edge73" class="edge">
<title>ragger.utils&#45;&gt;ragger.utils.packing</title>
<path fill="none" stroke="black" d="M1259.74,-756.3C1249.26,-765.03 1236.39,-775.76 1225,-785.25"/>
<polygon fill="black" stroke="black" points="1217.03,-791.9 1221.83,-782.04 1220.87,-788.69 1224.71,-785.49 1224.71,-785.49 1224.71,-785.49 1220.87,-788.69 1227.59,-788.95 1217.03,-791.9 1217.03,-791.9"/>
</g>
<!-- ragger.utils&#45;&gt;ragger.utils.structs -->
<g id="edge74" class="edge">
<title>ragger.utils&#45;&gt;ragger.utils.structs</title>
<path fill="none" stroke="black" d="M1230.87,-752.41C1192.22,-762.86 1138.01,-777.51 1094.43,-789.29"/>
<polygon fill="black" stroke="black" points="1084.74,-791.91 1093.22,-784.96 1089.56,-790.6 1094.39,-789.3 1094.39,-789.3 1094.39,-789.3 1089.56,-790.6 1095.57,-793.64 1084.74,-791.91 1084.74,-791.91"/>
</g>
<!-- ragger.utils.misc&#45;&gt;ragger.error -->
<g id="edge75" class="edge">
<title>ragger.utils.misc&#45;&gt;ragger.error</title>
<path fill="none" stroke="black" d="M1374.37,-828.3C1380,-836.53 1386.85,-846.52 1393.07,-855.58"/>
<polygon fill="black" stroke="black" points="1398.77,-863.9 1389.4,-858.19 1395.94,-859.77 1393.12,-855.65 1393.12,-855.65 1393.12,-855.65 1395.94,-859.77 1396.83,-853.1 1398.77,-863.9 1398.77,-863.9"/>
</g>
</g>
</svg>
