<?xml version="1.0" encoding="UTF-8" standalone="no"?>
<!DOCTYPE svg PUBLIC "-//W3C//DTD SVG 1.1//EN"
 "http://www.w3.org/Graphics/SVG/1.1/DTD/svg11.dtd">
<!-- Generated by graphviz version 2.43.0 (0)
 -->
<!-- Title: packages_generated_ragger_architecture Pages: 1 -->
<svg width="2103pt" height="836pt"
 viewBox="0.00 0.00 2103.00 836.00" xmlns="http://www.w3.org/2000/svg" xmlns:xlink="http://www.w3.org/1999/xlink">
<g id="graph0" class="graph" transform="scale(1 1) rotate(0) translate(4 832)">
<title>packages_generated_ragger_architecture</title>
<polygon fill="white" stroke="transparent" points="-4,4 -4,-832 2099,-832 2099,4 -4,4"/>
<!-- ragger -->
<g id="node1" class="node">
<title>ragger</title>
<polygon fill="aliceblue" stroke="aliceblue" points="93.5,-612 28.5,-612 28.5,-576 93.5,-576 93.5,-612"/>
<text text-anchor="middle" x="61" y="-590.3" font-family="Times,serif" font-size="14.00">ragger</text>
</g>
<!-- ragger.logger -->
<g id="node22" class="node">
<title>ragger.logger</title>
<polygon fill="aliceblue" stroke="aliceblue" points="117.5,-684 4.5,-684 4.5,-648 117.5,-648 117.5,-684"/>
<text text-anchor="middle" x="61" y="-662.3" font-family="Times,serif" font-size="14.00">ragger.logger</text>
</g>
<!-- ragger&#45;&gt;ragger.logger -->
<g id="edge1" class="edge">
<title>ragger&#45;&gt;ragger.logger</title>
<path fill="none" stroke="black" d="M61,-612.3C61,-620.02 61,-629.29 61,-637.89"/>
<polygon fill="black" stroke="black" points="61,-647.9 56.5,-637.9 61,-642.9 61,-637.9 61,-637.9 61,-637.9 61,-642.9 65.5,-637.9 61,-647.9 61,-647.9"/>
</g>
<!-- ragger.backend -->
<g id="node2" class="node">
<title>ragger.backend</title>
<polygon fill="antiquewhite" stroke="antiquewhite" points="876.5,-468 749.5,-468 749.5,-432 876.5,-432 876.5,-468"/>
<text text-anchor="middle" x="813" y="-446.3" font-family="Times,serif" font-size="14.00">ragger.backend</text>
</g>
<!-- ragger.backend.interface -->
<g id="node3" class="node">
<title>ragger.backend.interface</title>
<polygon fill="antiquewhite" stroke="antiquewhite" points="529.5,-612 334.5,-612 334.5,-576 529.5,-576 529.5,-612"/>
<text text-anchor="middle" x="432" y="-590.3" font-family="Times,serif" font-size="14.00">ragger.backend.interface</text>
</g>
<!-- ragger.backend&#45;&gt;ragger.backend.interface -->
<g id="edge2" class="edge">
<title>ragger.backend&#45;&gt;ragger.backend.interface</title>
<path fill="none" stroke="black" d="M749.36,-451.91C603.02,-454.67 252.41,-465.3 217,-504 177.34,-547.34 252.11,-570.16 324.1,-581.79"/>
<polygon fill="black" stroke="black" points="334.22,-583.35 323.65,-586.27 329.28,-582.59 324.34,-581.82 324.34,-581.82 324.34,-581.82 329.28,-582.59 325.03,-577.38 334.22,-583.35 334.22,-583.35"/>
</g>
<!-- ragger.backend.ledgercomm -->
<g id="node4" class="node">
<title>ragger.backend.ledgercomm</title>
<polygon fill="antiquewhite" stroke="antiquewhite" points="686,-540 466,-540 466,-504 686,-504 686,-540"/>
<text text-anchor="middle" x="576" y="-518.3" font-family="Times,serif" font-size="14.00">ragger.backend.ledgercomm</text>
</g>
<!-- ragger.backend&#45;&gt;ragger.backend.ledgercomm -->
<g id="edge3" class="edge">
<title>ragger.backend&#45;&gt;ragger.backend.ledgercomm</title>
<path fill="none" stroke="black" d="M755.33,-468.03C721.64,-477.99 678.95,-490.59 643.67,-501.01"/>
<polygon fill="black" stroke="black" points="633.93,-503.89 642.25,-496.74 638.73,-502.47 643.52,-501.06 643.52,-501.06 643.52,-501.06 638.73,-502.47 644.8,-505.37 633.93,-503.89 633.93,-503.89"/>
</g>
<!-- ragger.backend.ledgerwallet -->
<g id="node5" class="node">
<title>ragger.backend.ledgerwallet</title>
<polygon fill="antiquewhite" stroke="antiquewhite" points="447.5,-540 226.5,-540 226.5,-504 447.5,-504 447.5,-540"/>
<text text-anchor="middle" x="337" y="-518.3" font-family="Times,serif" font-size="14.00">ragger.backend.ledgerwallet</text>
</g>
<!-- ragger.backend&#45;&gt;ragger.backend.ledgerwallet -->
<g id="edge4" class="edge">
<title>ragger.backend&#45;&gt;ragger.backend.ledgerwallet</title>
<path fill="none" stroke="black" d="M749.3,-460.37C674.99,-471.3 550.51,-489.6 457.73,-503.25"/>
<polygon fill="black" stroke="black" points="447.72,-504.72 456.96,-498.81 452.67,-503.99 457.61,-503.26 457.61,-503.26 457.61,-503.26 452.67,-503.99 458.27,-507.71 447.72,-504.72 447.72,-504.72"/>
</g>
<!-- ragger.backend.speculos -->
<g id="node6" class="node">
<title>ragger.backend.speculos</title>
<polygon fill="antiquewhite" stroke="antiquewhite" points="915.5,-540 722.5,-540 722.5,-504 915.5,-504 915.5,-540"/>
<text text-anchor="middle" x="819" y="-518.3" font-family="Times,serif" font-size="14.00">ragger.backend.speculos</text>
</g>
<!-- ragger.backend&#45;&gt;ragger.backend.speculos -->
<g id="edge5" class="edge">
<title>ragger.backend&#45;&gt;ragger.backend.speculos</title>
<path fill="none" stroke="black" d="M814.48,-468.3C815.14,-476.02 815.94,-485.29 816.68,-493.89"/>
<polygon fill="black" stroke="black" points="817.53,-503.9 812.2,-494.32 817.11,-498.91 816.68,-493.93 816.68,-493.93 816.68,-493.93 817.11,-498.91 821.16,-493.55 817.53,-503.9 817.53,-503.9"/>
</g>
<!-- ragger.firmware -->
<g id="node14" class="node">
<title>ragger.firmware</title>
<polygon fill="cadetblue" stroke="cadetblue" points="1067,-684 935,-684 935,-648 1067,-648 1067,-684"/>
<text text-anchor="middle" x="1001" y="-662.3" font-family="Times,serif" font-size="14.00">ragger.firmware</text>
</g>
<!-- ragger.backend.interface&#45;&gt;ragger.firmware -->
<g id="edge6" class="edge">
<title>ragger.backend.interface&#45;&gt;ragger.firmware</title>
<path fill="none" stroke="black" d="M529.81,-607.03C641.63,-620.79 822.34,-643.02 924.41,-655.58"/>
<polygon fill="black" stroke="black" points="934.64,-656.84 924.17,-660.08 929.68,-656.23 924.72,-655.62 924.72,-655.62 924.72,-655.62 929.68,-656.23 925.27,-651.15 934.64,-656.84 934.64,-656.84"/>
</g>
<!-- ragger.backend.interface&#45;&gt;ragger.logger -->
<g id="edge7" class="edge">
<title>ragger.backend.interface&#45;&gt;ragger.logger</title>
<path fill="none" stroke="black" d="M341.72,-612.03C275.62,-624.51 187.39,-641.15 127.62,-652.43"/>
<polygon fill="black" stroke="black" points="117.54,-654.33 126.53,-648.06 122.45,-653.4 127.37,-652.48 127.37,-652.48 127.37,-652.48 122.45,-653.4 128.2,-656.9 117.54,-654.33 117.54,-654.33"/>
</g>
<!-- ragger.utils -->
<g id="node27" class="node">
<title>ragger.utils</title>
<polygon fill="chocolate" stroke="chocolate" points="419.5,-684 320.5,-684 320.5,-648 419.5,-648 419.5,-684"/>
<text text-anchor="middle" x="370" y="-662.3" font-family="Times,serif" font-size="14.00">ragger.utils</text>
</g>
<!-- ragger.backend.interface&#45;&gt;ragger.utils -->
<g id="edge8" class="edge">
<title>ragger.backend.interface&#45;&gt;ragger.utils</title>
<path fill="none" stroke="black" d="M416.67,-612.3C409.24,-620.7 400.18,-630.93 392.02,-640.14"/>
<polygon fill="black" stroke="black" points="385.15,-647.9 388.41,-637.43 388.46,-644.15 391.78,-640.41 391.78,-640.41 391.78,-640.41 388.46,-644.15 395.15,-643.39 385.15,-647.9 385.15,-647.9"/>
</g>
<!-- ragger.backend.ledgercomm&#45;&gt;ragger.backend.interface -->
<g id="edge9" class="edge">
<title>ragger.backend.ledgercomm&#45;&gt;ragger.backend.interface</title>
<path fill="none" stroke="black" d="M540.77,-540.12C521.42,-549.53 497.23,-561.29 476.57,-571.33"/>
<polygon fill="black" stroke="black" points="467.36,-575.81 474.39,-567.39 471.86,-573.62 476.36,-571.44 476.36,-571.44 476.36,-571.44 471.86,-573.62 478.32,-575.49 467.36,-575.81 467.36,-575.81"/>
</g>
<!-- ragger.backend.ledgercomm&#45;&gt;ragger.backend.ledgercomm -->
<g id="edge10" class="edge">
<title>ragger.backend.ledgercomm&#45;&gt;ragger.backend.ledgercomm</title>
<path fill="none" stroke="black" d="M686.15,-510.99C697.06,-513.2 704,-516.87 704,-522 704,-525.37 701.01,-528.11 695.87,-530.21"/>
<polygon fill="black" stroke="black" points="686.15,-533.01 694.52,-525.92 690.96,-531.63 695.76,-530.25 695.76,-530.25 695.76,-530.25 690.96,-531.63 697.01,-534.57 686.15,-533.01 686.15,-533.01"/>
</g>
<!-- ragger.error -->
<g id="node13" class="node">
<title>ragger.error</title>
<polygon fill="aliceblue" stroke="aliceblue" points="727,-612 623,-612 623,-576 727,-576 727,-612"/>
<text text-anchor="middle" x="675" y="-590.3" font-family="Times,serif" font-size="14.00">ragger.error</text>
</g>
<!-- ragger.backend.ledgercomm&#45;&gt;ragger.error -->
<g id="edge11" class="edge">
<title>ragger.backend.ledgercomm&#45;&gt;ragger.error</title>
<path fill="none" stroke="black" d="M600.22,-540.12C612.92,-549.11 628.66,-560.24 642.42,-569.97"/>
<polygon fill="black" stroke="black" points="650.69,-575.81 639.93,-573.71 646.61,-572.92 642.52,-570.04 642.52,-570.04 642.52,-570.04 646.61,-572.92 645.12,-566.36 650.69,-575.81 650.69,-575.81"/>
</g>
<!-- ragger.backend.ledgercomm&#45;&gt;ragger.firmware -->
<g id="edge12" class="edge">
<title>ragger.backend.ledgercomm&#45;&gt;ragger.firmware</title>
<path fill="none" stroke="black" d="M578.23,-540.16C581.88,-560.72 591.16,-594.57 614,-612 661.39,-648.15 826.16,-659.64 924.77,-663.3"/>
<polygon fill="black" stroke="black" points="934.98,-663.66 924.83,-667.8 929.99,-663.48 924.99,-663.31 924.99,-663.31 924.99,-663.31 929.99,-663.48 925.15,-658.81 934.98,-663.66 934.98,-663.66"/>
</g>
<!-- ragger.backend.ledgercomm&#45;&gt;ragger.utils -->
<g id="edge13" class="edge">
<title>ragger.backend.ledgercomm&#45;&gt;ragger.utils</title>
<path fill="none" stroke="black" d="M573.11,-540.24C568.86,-560.25 559.04,-592.93 538,-612 508.3,-638.92 464.98,-652.17 429.77,-658.69"/>
<polygon fill="black" stroke="black" points="419.6,-660.43 428.69,-654.31 424.52,-659.58 429.45,-658.74 429.45,-658.74 429.45,-658.74 424.52,-659.58 430.21,-663.18 419.6,-660.43 419.6,-660.43"/>
</g>
<!-- ragger.backend.ledgerwallet&#45;&gt;ragger.backend.interface -->
<g id="edge14" class="edge">
<title>ragger.backend.ledgerwallet&#45;&gt;ragger.backend.interface</title>
<path fill="none" stroke="black" d="M360.48,-540.3C372.56,-549.2 387.45,-560.18 400.52,-569.8"/>
<polygon fill="black" stroke="black" points="408.79,-575.9 398.07,-573.59 404.76,-572.93 400.74,-569.96 400.74,-569.96 400.74,-569.96 404.76,-572.93 403.41,-566.34 408.79,-575.9 408.79,-575.9"/>
</g>
<!-- ragger.backend.ledgerwallet&#45;&gt;ragger.error -->
<g id="edge15" class="edge">
<title>ragger.backend.ledgerwallet&#45;&gt;ragger.error</title>
<path fill="none" stroke="black" d="M419.25,-540.03C479.04,-552.42 558.7,-568.91 613.13,-580.19"/>
<polygon fill="black" stroke="black" points="622.99,-582.23 612.28,-584.61 618.09,-581.21 613.2,-580.2 613.2,-580.2 613.2,-580.2 618.09,-581.21 614.11,-575.79 622.99,-582.23 622.99,-582.23"/>
</g>
<!-- ragger.backend.ledgerwallet&#45;&gt;ragger.utils -->
<g id="edge16" class="edge">
<title>ragger.backend.ledgerwallet&#45;&gt;ragger.utils</title>
<path fill="none" stroke="black" d="M329.93,-540.26C323.5,-558.59 316.24,-588.14 325,-612 328.78,-622.3 335.56,-631.98 342.72,-640.16"/>
<polygon fill="black" stroke="black" points="349.62,-647.53 339.5,-643.31 346.2,-643.88 342.79,-640.23 342.79,-640.23 342.79,-640.23 346.2,-643.88 346.07,-637.16 349.62,-647.53 349.62,-647.53"/>
</g>
<!-- ragger.backend.speculos&#45;&gt;ragger.backend.interface -->
<g id="edge17" class="edge">
<title>ragger.backend.speculos&#45;&gt;ragger.backend.interface</title>
<path fill="none" stroke="black" d="M724.82,-540.03C667.82,-550.34 595.05,-563.51 536.31,-574.13"/>
<polygon fill="black" stroke="black" points="526.26,-575.95 535.3,-569.74 531.18,-575.06 536.1,-574.17 536.1,-574.17 536.1,-574.17 531.18,-575.06 536.9,-578.6 526.26,-575.95 526.26,-575.95"/>
</g>
<!-- ragger.backend.speculos&#45;&gt;ragger.error -->
<g id="edge18" class="edge">
<title>ragger.backend.speculos&#45;&gt;ragger.error</title>
<path fill="none" stroke="black" d="M783.77,-540.12C764.42,-549.53 740.23,-561.29 719.57,-571.33"/>
<polygon fill="black" stroke="black" points="710.36,-575.81 717.39,-567.39 714.86,-573.62 719.36,-571.44 719.36,-571.44 719.36,-571.44 714.86,-573.62 721.32,-575.49 710.36,-575.81 710.36,-575.81"/>
</g>
<!-- ragger.backend.speculos&#45;&gt;ragger.firmware -->
<g id="edge19" class="edge">
<title>ragger.backend.speculos&#45;&gt;ragger.firmware</title>
<path fill="none" stroke="black" d="M840.11,-540.28C862.31,-558.38 898.35,-587.51 930,-612 942.75,-621.87 956.96,-632.54 969.3,-641.7"/>
<polygon fill="black" stroke="black" points="977.5,-647.78 966.79,-645.44 973.48,-644.8 969.47,-641.82 969.47,-641.82 969.47,-641.82 973.48,-644.8 972.15,-638.21 977.5,-647.78 977.5,-647.78"/>
</g>
<!-- ragger.backend.speculos&#45;&gt;ragger.utils -->
<g id="edge20" class="edge">
<title>ragger.backend.speculos&#45;&gt;ragger.utils</title>
<path fill="none" stroke="black" d="M808.46,-540.02C794.6,-560.77 768.2,-595.15 736,-612 683.96,-639.23 519.38,-654.61 429.69,-661.17"/>
<polygon fill="black" stroke="black" points="419.66,-661.89 429.31,-656.68 424.65,-661.53 429.64,-661.17 429.64,-661.17 429.64,-661.17 424.65,-661.53 429.96,-665.66 419.66,-661.89 419.66,-661.89"/>
</g>
<!-- ragger.bip -->
<g id="node7" class="node">
<title>ragger.bip</title>
<polygon fill="aquamarine" stroke="aquamarine" points="1709,-36 1619,-36 1619,0 1709,0 1709,-36"/>
<text text-anchor="middle" x="1664" y="-14.3" font-family="Times,serif" font-size="14.00">ragger.bip</text>
</g>
<!-- ragger.bip.path -->
<g id="node8" class="node">
<title>ragger.bip.path</title>
<polygon fill="aquamarine" stroke="aquamarine" points="1654.5,-108 1527.5,-108 1527.5,-72 1654.5,-72 1654.5,-108"/>
<text text-anchor="middle" x="1591" y="-86.3" font-family="Times,serif" font-size="14.00">ragger.bip.path</text>
</g>
<!-- ragger.bip&#45;&gt;ragger.bip.path -->
<g id="edge21" class="edge">
<title>ragger.bip&#45;&gt;ragger.bip.path</title>
<path fill="none" stroke="black" d="M1645.96,-36.3C1636.94,-44.95 1625.88,-55.55 1616.06,-64.97"/>
<polygon fill="black" stroke="black" points="1608.84,-71.9 1612.94,-61.73 1612.45,-68.44 1616.06,-64.97 1616.06,-64.97 1616.06,-64.97 1612.45,-68.44 1619.17,-68.22 1608.84,-71.9 1608.84,-71.9"/>
</g>
<!-- ragger.bip.seed -->
<g id="node9" class="node">
<title>ragger.bip.seed</title>
<polygon fill="aquamarine" stroke="aquamarine" points="1801,-108 1673,-108 1673,-72 1801,-72 1801,-108"/>
<text text-anchor="middle" x="1737" y="-86.3" font-family="Times,serif" font-size="14.00">ragger.bip.seed</text>
</g>
<!-- ragger.bip&#45;&gt;ragger.bip.seed -->
<g id="edge22" class="edge">
<title>ragger.bip&#45;&gt;ragger.bip.seed</title>
<path fill="none" stroke="black" d="M1682.04,-36.3C1691.06,-44.95 1702.12,-55.55 1711.94,-64.97"/>
<polygon fill="black" stroke="black" points="1719.16,-71.9 1708.83,-68.22 1715.55,-68.44 1711.94,-64.97 1711.94,-64.97 1711.94,-64.97 1715.55,-68.44 1715.06,-61.73 1719.16,-71.9 1719.16,-71.9"/>
</g>
<!-- ragger.conftest -->
<g id="node10" class="node">
<title>ragger.conftest</title>
<polygon fill="burlywood" stroke="burlywood" points="1852.5,-36 1727.5,-36 1727.5,0 1852.5,0 1852.5,-36"/>
<text text-anchor="middle" x="1790" y="-14.3" font-family="Times,serif" font-size="14.00">ragger.conftest</text>
</g>
<!-- ragger.conftest.base_conftest -->
<g id="node11" class="node">
<title>ragger.conftest.base_conftest</title>
<polygon fill="burlywood" stroke="burlywood" points="711.5,-36 484.5,-36 484.5,0 711.5,0 711.5,-36"/>
<text text-anchor="middle" x="598" y="-14.3" font-family="Times,serif" font-size="14.00">ragger.conftest.base_conftest</text>
</g>
<!-- ragger.conftest.base_conftest&#45;&gt;ragger.backend -->
<g id="edge23" class="edge">
<title>ragger.conftest.base_conftest&#45;&gt;ragger.backend</title>
<path fill="none" stroke="black" d="M598,-36.05C598,-62.71 598,-115.89 598,-161 598,-161 598,-161 598,-307 598,-376.53 677.26,-413.98 739.53,-432.67"/>
<polygon fill="black" stroke="black" points="749.37,-435.51 738.51,-437.05 744.56,-434.12 739.76,-432.73 739.76,-432.73 739.76,-432.73 744.56,-434.12 741.01,-428.41 749.37,-435.51 749.37,-435.51"/>
</g>
<!-- ragger.conftest.base_conftest&#45;&gt;ragger.firmware -->
<g id="edge24" class="edge">
<title>ragger.conftest.base_conftest&#45;&gt;ragger.firmware</title>
<path fill="none" stroke="black" d="M711.66,-25.24C953.87,-40.06 1499,-82.17 1499,-161 1499,-161 1499,-161 1499,-523 1499,-579.89 1458.24,-587.29 1407,-612 1350.44,-639.28 1178.56,-654.15 1077.48,-660.74"/>
<polygon fill="black" stroke="black" points="1067.33,-661.39 1077.02,-656.26 1072.32,-661.08 1077.31,-660.76 1077.31,-660.76 1077.31,-660.76 1072.32,-661.08 1077.6,-665.25 1067.33,-661.39 1067.33,-661.39"/>
</g>
<!-- ragger.conftest.base_conftest&#45;&gt;ragger.logger -->
<g id="edge25" class="edge">
<title>ragger.conftest.base_conftest&#45;&gt;ragger.logger</title>
<path fill="none" stroke="black" d="M484.47,-22.99C311.03,-32.22 0,-62.5 0,-161 0,-161 0,-161 0,-523 0,-563.45 1.76,-575.41 19,-612 23.65,-621.88 30.47,-631.57 37.26,-639.92"/>
<polygon fill="black" stroke="black" points="43.96,-647.76 34.05,-643.08 40.72,-643.96 37.47,-640.16 37.47,-640.16 37.47,-640.16 40.72,-643.96 40.89,-637.24 43.96,-647.76 43.96,-647.76"/>
</g>
<!-- ragger.navigator -->
<g id="node23" class="node">
<title>ragger.navigator</title>
<polygon fill="chartreuse" stroke="chartreuse" points="894,-108 758,-108 758,-72 894,-72 894,-108"/>
<text text-anchor="middle" x="826" y="-86.3" font-family="Times,serif" font-size="14.00">ragger.navigator</text>
</g>
<!-- ragger.conftest.base_conftest&#45;&gt;ragger.navigator -->
<g id="edge26" class="edge">
<title>ragger.conftest.base_conftest&#45;&gt;ragger.navigator</title>
<path fill="none" stroke="black" d="M653.48,-36.03C685.76,-45.94 726.61,-58.49 760.46,-68.88"/>
<polygon fill="black" stroke="black" points="770.27,-71.89 759.39,-73.26 765.49,-70.42 760.71,-68.95 760.71,-68.95 760.71,-68.95 765.49,-70.42 762.03,-64.65 770.27,-71.89 770.27,-71.89"/>
</g>
<!-- ragger.conftest.base_conftest&#45;&gt;ragger.utils -->
<g id="edge27" class="edge">
<title>ragger.conftest.base_conftest&#45;&gt;ragger.utils</title>
<path fill="none" stroke="black" d="M484.29,-30.1C343.48,-47.06 122,-85.7 122,-161 122,-161 122,-161 122,-523 122,-609.48 236.97,-644.02 310.35,-657.27"/>
<polygon fill="black" stroke="black" points="320.41,-659 309.79,-661.74 315.48,-658.15 310.55,-657.3 310.55,-657.3 310.55,-657.3 315.48,-658.15 311.32,-652.87 320.41,-659 320.41,-659"/>
</g>
<!-- ragger.conftest.configuration -->
<g id="node12" class="node">
<title>ragger.conftest.configuration</title>
<polygon fill="burlywood" stroke="burlywood" points="2095,-36 1871,-36 1871,0 2095,0 2095,-36"/>
<text text-anchor="middle" x="1983" y="-14.3" font-family="Times,serif" font-size="14.00">ragger.conftest.configuration</text>
</g>
<!-- ragger.firmware.structs -->
<g id="node20" class="node">
<title>ragger.firmware.structs</title>
<polygon fill="cadetblue" stroke="cadetblue" points="1138.5,-756 951.5,-756 951.5,-720 1138.5,-720 1138.5,-756"/>
<text text-anchor="middle" x="1045" y="-734.3" font-family="Times,serif" font-size="14.00">ragger.firmware.structs</text>
</g>
<!-- ragger.firmware&#45;&gt;ragger.firmware.structs -->
<g id="edge28" class="edge">
<title>ragger.firmware&#45;&gt;ragger.firmware.structs</title>
<path fill="none" stroke="black" d="M1011.88,-684.3C1016.99,-692.44 1023.2,-702.31 1028.84,-711.3"/>
<polygon fill="black" stroke="black" points="1034.25,-719.9 1025.12,-713.82 1031.59,-715.66 1028.93,-711.43 1028.93,-711.43 1028.93,-711.43 1031.59,-715.66 1032.74,-709.03 1034.25,-719.9 1034.25,-719.9"/>
</g>
<!-- ragger.firmware.versions -->
<g id="node21" class="node">
<title>ragger.firmware.versions</title>
<polygon fill="cadetblue" stroke="cadetblue" points="1143.5,-828 946.5,-828 946.5,-792 1143.5,-792 1143.5,-828"/>
<text text-anchor="middle" x="1045" y="-806.3" font-family="Times,serif" font-size="14.00">ragger.firmware.versions</text>
</g>
<!-- ragger.firmware&#45;&gt;ragger.firmware.versions -->
<g id="edge29" class="edge">
<title>ragger.firmware&#45;&gt;ragger.firmware.versions</title>
<path fill="none" stroke="black" d="M973.2,-684.13C961.23,-693.16 948.5,-705.41 942,-720 935.48,-734.61 933.67,-742.34 942,-756 950.2,-769.45 963.03,-779.63 976.89,-787.28"/>
<polygon fill="black" stroke="black" points="986.1,-791.96 975.15,-791.45 981.64,-789.7 977.18,-787.43 977.18,-787.43 977.18,-787.43 981.64,-789.7 979.22,-783.42 986.1,-791.96 986.1,-791.96"/>
</g>
<!-- ragger.firmware.stax -->
<g id="node15" class="node">
<title>ragger.firmware.stax</title>
<polygon fill="cadetblue" stroke="cadetblue" points="1109.5,-252 942.5,-252 942.5,-216 1109.5,-216 1109.5,-252"/>
<text text-anchor="middle" x="1026" y="-230.3" font-family="Times,serif" font-size="14.00">ragger.firmware.stax</text>
</g>
<!-- ragger.firmware.stax.screen -->
<g id="node18" class="node">
<title>ragger.firmware.stax.screen</title>
<polygon fill="cadetblue" stroke="cadetblue" points="1148,-324 930,-324 930,-288 1148,-288 1148,-324"/>
<text text-anchor="middle" x="1039" y="-302.3" font-family="Times,serif" font-size="14.00">ragger.firmware.stax.screen</text>
</g>
<!-- ragger.firmware.stax&#45;&gt;ragger.firmware.stax.screen -->
<g id="edge30" class="edge">
<title>ragger.firmware.stax&#45;&gt;ragger.firmware.stax.screen</title>
<path fill="none" stroke="black" d="M1029.21,-252.3C1030.65,-260.02 1032.37,-269.29 1033.96,-277.89"/>
<polygon fill="black" stroke="black" points="1035.82,-287.9 1029.57,-278.89 1034.91,-282.98 1034,-278.06 1034,-278.06 1034,-278.06 1034.91,-282.98 1038.42,-277.24 1035.82,-287.9 1035.82,-287.9"/>
</g>
<!-- ragger.firmware.stax.layouts -->
<g id="node16" class="node">
<title>ragger.firmware.stax.layouts</title>
<polygon fill="cadetblue" stroke="cadetblue" points="1394.5,-396 1171.5,-396 1171.5,-360 1394.5,-360 1394.5,-396"/>
<text text-anchor="middle" x="1283" y="-374.3" font-family="Times,serif" font-size="14.00">ragger.firmware.stax.layouts</text>
</g>
<!-- ragger.firmware.stax.layouts&#45;&gt;ragger.backend -->
<g id="edge31" class="edge">
<title>ragger.firmware.stax.layouts&#45;&gt;ragger.backend</title>
<path fill="none" stroke="black" d="M1171.32,-395.63C1083.24,-408.75 962.91,-426.67 886.57,-438.04"/>
<polygon fill="black" stroke="black" points="876.56,-439.53 885.79,-433.61 881.5,-438.8 886.45,-438.06 886.45,-438.06 886.45,-438.06 881.5,-438.8 887.11,-442.51 876.56,-439.53 876.56,-439.53"/>
</g>
<!-- ragger.firmware.stax.layouts&#45;&gt;ragger.firmware -->
<g id="edge32" class="edge">
<title>ragger.firmware.stax.layouts&#45;&gt;ragger.firmware</title>
<path fill="none" stroke="black" d="M1290.46,-396.16C1297.41,-414.92 1305.04,-445.35 1293,-468 1244.27,-559.67 1131.76,-616.39 1061.49,-644.2"/>
<polygon fill="black" stroke="black" points="1051.86,-647.94 1059.56,-640.12 1056.53,-646.13 1061.19,-644.32 1061.19,-644.32 1061.19,-644.32 1056.53,-646.13 1062.82,-648.52 1051.86,-647.94 1051.86,-647.94"/>
</g>
<!-- ragger.firmware.stax.positions -->
<g id="node17" class="node">
<title>ragger.firmware.stax.positions</title>
<polygon fill="cadetblue" stroke="cadetblue" points="1284,-468 1048,-468 1048,-432 1284,-432 1284,-468"/>
<text text-anchor="middle" x="1166" y="-446.3" font-family="Times,serif" font-size="14.00">ragger.firmware.stax.positions</text>
</g>
<!-- ragger.firmware.stax.layouts&#45;&gt;ragger.firmware.stax.positions -->
<g id="edge33" class="edge">
<title>ragger.firmware.stax.layouts&#45;&gt;ragger.firmware.stax.positions</title>
<path fill="none" stroke="black" d="M1254.38,-396.12C1239.08,-405.28 1220.06,-416.66 1203.58,-426.52"/>
<polygon fill="black" stroke="black" points="1194.73,-431.81 1201,-422.81 1199.02,-429.24 1203.31,-426.68 1203.31,-426.68 1203.31,-426.68 1199.02,-429.24 1205.62,-430.54 1194.73,-431.81 1194.73,-431.81"/>
</g>
<!-- ragger.firmware.stax.positions&#45;&gt;ragger.firmware.versions -->
<g id="edge34" class="edge">
<title>ragger.firmware.stax.positions&#45;&gt;ragger.firmware.versions</title>
<path fill="none" stroke="black" d="M1166,-468.05C1166,-494.71 1166,-547.89 1166,-593 1166,-593 1166,-593 1166,-667 1166,-707.45 1171.51,-723.82 1147,-756 1136.84,-769.34 1122.35,-779.64 1107.48,-787.45"/>
<polygon fill="black" stroke="black" points="1098.2,-792 1105.2,-783.55 1102.69,-789.79 1107.18,-787.59 1107.18,-787.59 1107.18,-787.59 1102.69,-789.79 1109.16,-791.63 1098.2,-792 1098.2,-792"/>
</g>
<!-- ragger.firmware.stax.screen&#45;&gt;ragger.backend -->
<g id="edge35" class="edge">
<title>ragger.firmware.stax.screen&#45;&gt;ragger.backend</title>
<path fill="none" stroke="black" d="M979.08,-324.11C954.11,-332.75 925.51,-344.69 902,-360 875.08,-377.53 849.73,-404.27 833.03,-423.87"/>
<polygon fill="black" stroke="black" points="826.41,-431.78 829.37,-421.22 829.62,-427.95 832.83,-424.11 832.83,-424.11 832.83,-424.11 829.62,-427.95 836.28,-426.99 826.41,-431.78 826.41,-431.78"/>
</g>
<!-- ragger.firmware.stax.screen&#45;&gt;ragger.firmware -->
<g id="edge36" class="edge">
<title>ragger.firmware.stax.screen&#45;&gt;ragger.firmware</title>
<path fill="none" stroke="black" d="M1148.22,-309.58C1241.72,-314.11 1366.81,-326.48 1403,-360 1432.74,-387.55 1423,-408.46 1423,-449 1423,-449 1423,-449 1423,-523 1423,-595.09 1199.01,-637.51 1077.41,-655.23"/>
<polygon fill="black" stroke="black" points="1067.4,-656.66 1076.66,-650.79 1072.35,-655.95 1077.3,-655.24 1077.3,-655.24 1077.3,-655.24 1072.35,-655.95 1077.94,-659.69 1067.4,-656.66 1067.4,-656.66"/>
</g>
<!-- ragger.firmware.stax.screen&#45;&gt;ragger.firmware.stax.layouts -->
<g id="edge37" class="edge">
<title>ragger.firmware.stax.screen&#45;&gt;ragger.firmware.stax.layouts</title>
<path fill="none" stroke="black" d="M1098.38,-324.03C1133.06,-333.99 1177.01,-346.59 1213.33,-357.01"/>
<polygon fill="black" stroke="black" points="1223.36,-359.89 1212.5,-361.46 1218.55,-358.51 1213.74,-357.13 1213.74,-357.13 1213.74,-357.13 1218.55,-358.51 1214.99,-352.81 1223.36,-359.89 1223.36,-359.89"/>
</g>
<!-- ragger.firmware.stax.use_cases -->
<g id="node19" class="node">
<title>ragger.firmware.stax.use_cases</title>
<polygon fill="cadetblue" stroke="cadetblue" points="1153,-396 911,-396 911,-360 1153,-360 1153,-396"/>
<text text-anchor="middle" x="1032" y="-374.3" font-family="Times,serif" font-size="14.00">ragger.firmware.stax.use_cases</text>
</g>
<!-- ragger.firmware.stax.screen&#45;&gt;ragger.firmware.stax.use_cases -->
<g id="edge38" class="edge">
<title>ragger.firmware.stax.screen&#45;&gt;ragger.firmware.stax.use_cases</title>
<path fill="none" stroke="black" d="M1037.27,-324.3C1036.5,-332.02 1035.57,-341.29 1034.71,-349.89"/>
<polygon fill="black" stroke="black" points="1033.71,-359.9 1030.23,-349.5 1034.21,-354.92 1034.71,-349.95 1034.71,-349.95 1034.71,-349.95 1034.21,-354.92 1039.18,-350.39 1033.71,-359.9 1033.71,-359.9"/>
</g>
<!-- ragger.firmware.stax.use_cases&#45;&gt;ragger.backend -->
<g id="edge39" class="edge">
<title>ragger.firmware.stax.use_cases&#45;&gt;ragger.backend</title>
<path fill="none" stroke="black" d="M978.71,-396.03C947.84,-405.9 908.8,-418.38 876.37,-428.75"/>
<polygon fill="black" stroke="black" points="866.53,-431.89 874.69,-424.56 871.3,-430.37 876.06,-428.84 876.06,-428.84 876.06,-428.84 871.3,-430.37 877.43,-433.13 866.53,-431.89 866.53,-431.89"/>
</g>
<!-- ragger.firmware.stax.use_cases&#45;&gt;ragger.firmware -->
<g id="edge40" class="edge">
<title>ragger.firmware.stax.use_cases&#45;&gt;ragger.firmware</title>
<path fill="none" stroke="black" d="M1030.15,-396.03C1024.98,-443.81 1010.28,-579.38 1003.96,-637.73"/>
<polygon fill="black" stroke="black" points="1002.88,-647.69 999.48,-637.27 1003.41,-642.72 1003.95,-637.75 1003.95,-637.75 1003.95,-637.75 1003.41,-642.72 1008.43,-638.24 1002.88,-647.69 1002.88,-647.69"/>
</g>
<!-- ragger.firmware.stax.use_cases&#45;&gt;ragger.firmware.stax.positions -->
<g id="edge41" class="edge">
<title>ragger.firmware.stax.use_cases&#45;&gt;ragger.firmware.stax.positions</title>
<path fill="none" stroke="black" d="M1064.78,-396.12C1082.63,-405.45 1104.9,-417.08 1124,-427.06"/>
<polygon fill="black" stroke="black" points="1133.09,-431.81 1122.15,-431.17 1128.66,-429.5 1124.23,-427.18 1124.23,-427.18 1124.23,-427.18 1128.66,-429.5 1126.31,-423.19 1133.09,-431.81 1133.09,-431.81"/>
</g>
<!-- ragger.firmware.structs&#45;&gt;ragger.firmware.versions -->
<g id="edge42" class="edge">
<title>ragger.firmware.structs&#45;&gt;ragger.firmware.versions</title>
<path fill="none" stroke="black" d="M1045,-756.3C1045,-764.02 1045,-773.29 1045,-781.89"/>
<polygon fill="black" stroke="black" points="1045,-791.9 1040.5,-781.9 1045,-786.9 1045,-781.9 1045,-781.9 1045,-781.9 1045,-786.9 1049.5,-781.9 1045,-791.9 1045,-791.9"/>
</g>
<!-- ragger.navigator&#45;&gt;ragger.navigator -->
<g id="edge43" class="edge">
<title>ragger.navigator&#45;&gt;ragger.navigator</title>
<path fill="none" stroke="black" d="M894.13,-77.63C904.76,-79.48 912,-83.6 912,-90 912,-94.1 909.03,-97.26 904.1,-99.5"/>
<polygon fill="black" stroke="black" points="894.13,-102.37 902.49,-95.28 898.93,-100.99 903.74,-99.6 903.74,-99.6 903.74,-99.6 898.93,-100.99 904.98,-103.92 894.13,-102.37 894.13,-102.37"/>
</g>
<!-- ragger.navigator.nano_navigator -->
<g id="node24" class="node">
<title>ragger.navigator.nano_navigator</title>
<polygon fill="chartreuse" stroke="chartreuse" points="874,-324 626,-324 626,-288 874,-288 874,-324"/>
<text text-anchor="middle" x="750" y="-302.3" font-family="Times,serif" font-size="14.00">ragger.navigator.nano_navigator</text>
</g>
<!-- ragger.navigator&#45;&gt;ragger.navigator.nano_navigator -->
<g id="edge44" class="edge">
<title>ragger.navigator&#45;&gt;ragger.navigator.nano_navigator</title>
<path fill="none" stroke="black" d="M801.71,-108.18C790.49,-117.47 778.1,-129.91 771,-144 749.35,-186.97 747.23,-244.22 748.23,-277.6"/>
<polygon fill="black" stroke="black" points="748.66,-287.95 743.75,-278.15 748.45,-282.96 748.24,-277.96 748.24,-277.96 748.24,-277.96 748.45,-282.96 752.74,-277.77 748.66,-287.95 748.66,-287.95"/>
</g>
<!-- ragger.navigator.stax_navigator -->
<g id="node26" class="node">
<title>ragger.navigator.stax_navigator</title>
<polygon fill="chartreuse" stroke="chartreuse" points="1024,-180 780,-180 780,-144 1024,-144 1024,-180"/>
<text text-anchor="middle" x="902" y="-158.3" font-family="Times,serif" font-size="14.00">ragger.navigator.stax_navigator</text>
</g>
<!-- ragger.navigator&#45;&gt;ragger.navigator.stax_navigator -->
<g id="edge45" class="edge">
<title>ragger.navigator&#45;&gt;ragger.navigator.stax_navigator</title>
<path fill="none" stroke="black" d="M838.87,-108.3C847.45,-117.03 858.92,-127.76 869.78,-137.25"/>
<polygon fill="black" stroke="black" points="877.53,-143.9 867.01,-140.8 873.74,-140.64 869.94,-137.39 869.94,-137.39 869.94,-137.39 873.74,-140.64 872.87,-133.97 877.53,-143.9 877.53,-143.9"/>
</g>
<!-- ragger.navigator.nano_navigator&#45;&gt;ragger.backend -->
<g id="edge46" class="edge">
<title>ragger.navigator.nano_navigator&#45;&gt;ragger.backend</title>
<path fill="none" stroke="black" d="M757.6,-324.13C768.43,-348.54 788.41,-393.57 801.18,-422.36"/>
<polygon fill="black" stroke="black" points="805.37,-431.81 797.2,-424.49 803.35,-427.24 801.32,-422.67 801.32,-422.67 801.32,-422.67 803.35,-427.24 805.43,-420.84 805.37,-431.81 805.37,-431.81"/>
</g>
<!-- ragger.navigator.nano_navigator&#45;&gt;ragger.firmware -->
<g id="edge47" class="edge">
<title>ragger.navigator.nano_navigator&#45;&gt;ragger.firmware</title>
<path fill="none" stroke="black" d="M774.98,-324.21C817.82,-355.08 905.11,-424.14 951,-504 975.87,-547.28 989.79,-604.35 996.32,-637.62"/>
<polygon fill="black" stroke="black" points="998.18,-647.54 991.91,-638.55 997.26,-642.63 996.34,-637.72 996.34,-637.72 996.34,-637.72 997.26,-642.63 1000.76,-636.89 998.18,-647.54 998.18,-647.54"/>
</g>
<!-- ragger.navigator.navigator -->
<g id="node25" class="node">
<title>ragger.navigator.navigator</title>
<polygon fill="chartreuse" stroke="chartreuse" points="569.5,-396 362.5,-396 362.5,-360 569.5,-360 569.5,-396"/>
<text text-anchor="middle" x="466" y="-374.3" font-family="Times,serif" font-size="14.00">ragger.navigator.navigator</text>
</g>
<!-- ragger.navigator.nano_navigator&#45;&gt;ragger.navigator.navigator -->
<g id="edge48" class="edge">
<title>ragger.navigator.nano_navigator&#45;&gt;ragger.navigator.navigator</title>
<path fill="none" stroke="black" d="M680.89,-324.03C639.91,-334.13 587.83,-346.97 545.2,-357.48"/>
<polygon fill="black" stroke="black" points="535.42,-359.89 544.05,-353.13 540.28,-358.69 545.13,-357.5 545.13,-357.5 545.13,-357.5 540.28,-358.69 546.21,-361.87 535.42,-359.89 535.42,-359.89"/>
</g>
<!-- ragger.navigator.navigator&#45;&gt;ragger.backend -->
<g id="edge49" class="edge">
<title>ragger.navigator.navigator&#45;&gt;ragger.backend</title>
<path fill="none" stroke="black" d="M554.84,-396.04C607.31,-406.22 674.99,-419.55 735,-432 736.44,-432.3 737.9,-432.6 739.37,-432.91"/>
<polygon fill="black" stroke="black" points="749.17,-434.98 738.46,-437.32 744.28,-433.95 739.39,-432.91 739.39,-432.91 739.39,-432.91 744.28,-433.95 740.32,-428.51 749.17,-434.98 749.17,-434.98"/>
</g>
<!-- ragger.navigator.navigator&#45;&gt;ragger.firmware -->
<g id="edge50" class="edge">
<title>ragger.navigator.navigator&#45;&gt;ragger.firmware</title>
<path fill="none" stroke="black" d="M512.52,-396.02C566.63,-415.36 658.9,-446.98 740,-468 820.66,-488.91 859.66,-451.05 924,-504 964.02,-536.93 944.44,-565.83 968,-612 972.63,-621.08 978.31,-630.63 983.64,-639.09"/>
<polygon fill="black" stroke="black" points="989.23,-647.77 980.03,-641.8 986.52,-643.56 983.82,-639.36 983.82,-639.36 983.82,-639.36 986.52,-643.56 987.6,-636.92 989.23,-647.77 989.23,-647.77"/>
</g>
<!-- ragger.navigator.navigator&#45;&gt;ragger.utils -->
<g id="edge51" class="edge">
<title>ragger.navigator.navigator&#45;&gt;ragger.utils</title>
<path fill="none" stroke="black" d="M375.58,-396.06C315.38,-412.62 240.67,-444.38 203,-504 165.76,-562.94 255.25,-615.79 317.1,-643.83"/>
<polygon fill="black" stroke="black" points="326.39,-647.95 315.42,-648.01 321.82,-645.92 317.25,-643.9 317.25,-643.9 317.25,-643.9 321.82,-645.92 319.07,-639.78 326.39,-647.95 326.39,-647.95"/>
</g>
<!-- ragger.navigator.stax_navigator&#45;&gt;ragger.backend -->
<g id="edge52" class="edge">
<title>ragger.navigator.stax_navigator&#45;&gt;ragger.backend</title>
<path fill="none" stroke="black" d="M902.84,-180.16C903.7,-210.39 902.75,-274.61 883,-324 875.57,-342.57 866.4,-342.92 856,-360 843.73,-380.16 832.23,-404.35 824.22,-422.41"/>
<polygon fill="black" stroke="black" points="820.14,-431.76 820.02,-420.79 822.14,-427.17 824.14,-422.59 824.14,-422.59 824.14,-422.59 822.14,-427.17 828.27,-424.39 820.14,-431.76 820.14,-431.76"/>
</g>
<!-- ragger.navigator.stax_navigator&#45;&gt;ragger.firmware -->
<g id="edge53" class="edge">
<title>ragger.navigator.stax_navigator&#45;&gt;ragger.firmware</title>
<path fill="none" stroke="black" d="M1024.33,-169.57C1188.84,-181.81 1461,-215.57 1461,-305 1461,-305 1461,-305 1461,-523 1461,-586.58 1407.28,-586.58 1349,-612 1261.17,-650.31 1150.39,-661.57 1077.71,-664.55"/>
<polygon fill="black" stroke="black" points="1067.28,-664.93 1077.1,-660.07 1072.27,-664.75 1077.27,-664.57 1077.27,-664.57 1077.27,-664.57 1072.27,-664.75 1077.43,-669.06 1067.28,-664.93 1067.28,-664.93"/>
</g>
<!-- ragger.navigator.stax_navigator&#45;&gt;ragger.firmware.stax -->
<g id="edge54" class="edge">
<title>ragger.navigator.stax_navigator&#45;&gt;ragger.firmware.stax</title>
<path fill="none" stroke="black" d="M932.33,-180.12C948.7,-189.36 969.08,-200.87 986.65,-210.79"/>
<polygon fill="black" stroke="black" points="995.55,-215.81 984.63,-214.81 991.2,-213.35 986.84,-210.89 986.84,-210.89 986.84,-210.89 991.2,-213.35 989.05,-206.98 995.55,-215.81 995.55,-215.81"/>
</g>
<!-- ragger.navigator.stax_navigator&#45;&gt;ragger.navigator -->
<g id="edge55" class="edge">
<title>ragger.navigator.stax_navigator&#45;&gt;ragger.navigator</title>
<path fill="none" stroke="black" d="M889.32,-143.9C880.79,-135.2 869.33,-124.48 858.46,-114.97"/>
<polygon fill="black" stroke="black" points="850.7,-108.3 861.22,-111.4 854.5,-111.56 858.29,-114.82 858.29,-114.82 858.29,-114.82 854.5,-111.56 855.36,-118.23 850.7,-108.3 850.7,-108.3"/>
</g>
<!-- ragger.utils.misc -->
<g id="node28" class="node">
<title>ragger.utils.misc</title>
<polygon fill="chocolate" stroke="chocolate" points="272.5,-756 135.5,-756 135.5,-720 272.5,-720 272.5,-756"/>
<text text-anchor="middle" x="204" y="-734.3" font-family="Times,serif" font-size="14.00">ragger.utils.misc</text>
</g>
<!-- ragger.utils&#45;&gt;ragger.utils.misc -->
<g id="edge56" class="edge">
<title>ragger.utils&#45;&gt;ragger.utils.misc</title>
<path fill="none" stroke="black" d="M329.39,-684.12C306.6,-693.74 277.97,-705.81 253.83,-715.99"/>
<polygon fill="black" stroke="black" points="244.48,-719.93 251.94,-711.9 249.08,-717.99 253.69,-716.05 253.69,-716.05 253.69,-716.05 249.08,-717.99 255.44,-720.19 244.48,-719.93 244.48,-719.93"/>
</g>
<!-- ragger.utils.packing -->
<g id="node29" class="node">
<title>ragger.utils.packing</title>
<polygon fill="chocolate" stroke="chocolate" points="449.5,-756 290.5,-756 290.5,-720 449.5,-720 449.5,-756"/>
<text text-anchor="middle" x="370" y="-734.3" font-family="Times,serif" font-size="14.00">ragger.utils.packing</text>
</g>
<!-- ragger.utils&#45;&gt;ragger.utils.packing -->
<g id="edge57" class="edge">
<title>ragger.utils&#45;&gt;ragger.utils.packing</title>
<path fill="none" stroke="black" d="M370,-684.3C370,-692.02 370,-701.29 370,-709.89"/>
<polygon fill="black" stroke="black" points="370,-719.9 365.5,-709.9 370,-714.9 370,-709.9 370,-709.9 370,-709.9 370,-714.9 374.5,-709.9 370,-719.9 370,-719.9"/>
</g>
<!-- ragger.utils.structs -->
<g id="node30" class="node">
<title>ragger.utils.structs</title>
<polygon fill="chocolate" stroke="chocolate" points="622,-756 468,-756 468,-720 622,-720 622,-756"/>
<text text-anchor="middle" x="545" y="-734.3" font-family="Times,serif" font-size="14.00">ragger.utils.structs</text>
</g>
<!-- ragger.utils&#45;&gt;ragger.utils.structs -->
<g id="edge58" class="edge">
<title>ragger.utils&#45;&gt;ragger.utils.structs</title>
<path fill="none" stroke="black" d="M412.81,-684.12C436.95,-693.78 467.28,-705.91 492.81,-716.12"/>
<polygon fill="black" stroke="black" points="502.33,-719.93 491.37,-720.4 497.69,-718.07 493.04,-716.22 493.04,-716.22 493.04,-716.22 497.69,-718.07 494.72,-712.04 502.33,-719.93 502.33,-719.93"/>
</g>
</g>
</svg>
