<?xml version="1.0" encoding="UTF-8" standalone="no"?>
<!DOCTYPE svg PUBLIC "-//W3C//DTD SVG 1.1//EN"
 "http://www.w3.org/Graphics/SVG/1.1/DTD/svg11.dtd">
<!-- Generated by graphviz version 2.43.0 (0)
 -->
<!-- Title: packages_generated_ragger_architecture Pages: 1 -->
<svg width="2542pt" height="980pt"
 viewBox="0.00 0.00 2541.50 980.00" xmlns="http://www.w3.org/2000/svg" xmlns:xlink="http://www.w3.org/1999/xlink">
<g id="graph0" class="graph" transform="scale(1 1) rotate(0) translate(4 976)">
<title>packages_generated_ragger_architecture</title>
<polygon fill="white" stroke="transparent" points="-4,4 -4,-976 2537.5,-976 2537.5,4 -4,4"/>
<!-- ragger -->
<g id="node1" class="node">
<title>ragger</title>
<polygon fill="#77aadd" stroke="#77aadd" points="106,-36 41,-36 41,0 106,0 106,-36"/>
<text text-anchor="middle" x="73.5" y="-14.3" font-family="Times,serif" font-size="14.00">ragger</text>
</g>
<!-- ragger.__version__ -->
<g id="node2" class="node">
<title>ragger.__version__</title>
<polygon fill="#77aadd" stroke="#77aadd" points="147,-108 0,-108 0,-72 147,-72 147,-108"/>
<text text-anchor="middle" x="73.5" y="-86.3" font-family="Times,serif" font-size="14.00">ragger.__version__</text>
</g>
<!-- ragger&#45;&gt;ragger.__version__ -->
<g id="edge1" class="edge">
<title>ragger&#45;&gt;ragger.__version__</title>
<path fill="none" stroke="black" d="M73.5,-36.3C73.5,-44.02 73.5,-53.29 73.5,-61.89"/>
<polygon fill="black" stroke="black" points="73.5,-71.9 69,-61.9 73.5,-66.9 73.5,-61.9 73.5,-61.9 73.5,-61.9 73.5,-66.9 78,-61.9 73.5,-71.9 73.5,-71.9"/>
</g>
<!-- ragger.backend -->
<g id="node3" class="node">
<title>ragger.backend</title>
<polygon fill="#99ddff" stroke="#99ddff" points="1292,-540 1165,-540 1165,-504 1292,-504 1292,-540"/>
<text text-anchor="middle" x="1228.5" y="-518.3" font-family="Times,serif" font-size="14.00">ragger.backend</text>
</g>
<!-- ragger.backend.interface -->
<g id="node4" class="node">
<title>ragger.backend.interface</title>
<polygon fill="#99ddff" stroke="#99ddff" points="1553,-756 1358,-756 1358,-720 1553,-720 1553,-756"/>
<text text-anchor="middle" x="1455.5" y="-734.3" font-family="Times,serif" font-size="14.00">ragger.backend.interface</text>
</g>
<!-- ragger.backend&#45;&gt;ragger.backend.interface -->
<g id="edge2" class="edge">
<title>ragger.backend&#45;&gt;ragger.backend.interface</title>
<path fill="none" stroke="black" d="M1292.21,-532.2C1355.67,-545.31 1448.67,-576.33 1484.5,-648 1494.59,-668.18 1485.21,-692.64 1474.51,-710.81"/>
<polygon fill="black" stroke="black" points="1468.89,-719.68 1470.44,-708.82 1471.57,-715.45 1474.24,-711.23 1474.24,-711.23 1474.24,-711.23 1471.57,-715.45 1478.04,-713.64 1468.89,-719.68 1468.89,-719.68"/>
</g>
<!-- ragger.backend.ledgercomm -->
<g id="node5" class="node">
<title>ragger.backend.ledgercomm</title>
<polygon fill="#99ddff" stroke="#99ddff" points="1009.5,-612 789.5,-612 789.5,-576 1009.5,-576 1009.5,-612"/>
<text text-anchor="middle" x="899.5" y="-590.3" font-family="Times,serif" font-size="14.00">ragger.backend.ledgercomm</text>
</g>
<!-- ragger.backend&#45;&gt;ragger.backend.ledgercomm -->
<g id="edge3" class="edge">
<title>ragger.backend&#45;&gt;ragger.backend.ledgercomm</title>
<path fill="none" stroke="black" d="M1164.68,-536.58C1114.79,-547.19 1044.83,-562.08 989.29,-573.9"/>
<polygon fill="black" stroke="black" points="979.45,-575.99 988.3,-569.51 984.34,-574.95 989.23,-573.91 989.23,-573.91 989.23,-573.91 984.34,-574.95 990.17,-578.31 979.45,-575.99 979.45,-575.99"/>
</g>
<!-- ragger.backend.ledgerwallet -->
<g id="node6" class="node">
<title>ragger.backend.ledgerwallet</title>
<polygon fill="#99ddff" stroke="#99ddff" points="1358,-612 1137,-612 1137,-576 1358,-576 1358,-612"/>
<text text-anchor="middle" x="1247.5" y="-590.3" font-family="Times,serif" font-size="14.00">ragger.backend.ledgerwallet</text>
</g>
<!-- ragger.backend&#45;&gt;ragger.backend.ledgerwallet -->
<g id="edge4" class="edge">
<title>ragger.backend&#45;&gt;ragger.backend.ledgerwallet</title>
<path fill="none" stroke="black" d="M1233.2,-540.3C1235.31,-548.1 1237.86,-557.49 1240.22,-566.17"/>
<polygon fill="black" stroke="black" points="1242.86,-575.9 1235.89,-567.42 1241.55,-571.07 1240.24,-566.24 1240.24,-566.24 1240.24,-566.24 1241.55,-571.07 1244.58,-565.07 1242.86,-575.9 1242.86,-575.9"/>
</g>
<!-- ragger.backend.speculos -->
<g id="node8" class="node">
<title>ragger.backend.speculos</title>
<polygon fill="#99ddff" stroke="#99ddff" points="1476,-684 1283,-684 1283,-648 1476,-648 1476,-684"/>
<text text-anchor="middle" x="1379.5" y="-662.3" font-family="Times,serif" font-size="14.00">ragger.backend.speculos</text>
</g>
<!-- ragger.backend&#45;&gt;ragger.backend.speculos -->
<g id="edge5" class="edge">
<title>ragger.backend&#45;&gt;ragger.backend.speculos</title>
<path fill="none" stroke="black" d="M1292.26,-532.84C1319.12,-540.26 1348.31,-553.25 1366.5,-576 1380.26,-593.21 1382.8,-618.48 1382.31,-637.7"/>
<polygon fill="black" stroke="black" points="1381.76,-647.94 1377.8,-637.71 1382.03,-642.95 1382.3,-637.96 1382.3,-637.96 1382.3,-637.96 1382.03,-642.95 1386.79,-638.2 1381.76,-647.94 1381.76,-647.94"/>
</g>
<!-- ragger.backend.stub -->
<g id="node9" class="node">
<title>ragger.backend.stub</title>
<polygon fill="#99ddff" stroke="#99ddff" points="1226,-684 1063,-684 1063,-648 1226,-648 1226,-684"/>
<text text-anchor="middle" x="1144.5" y="-662.3" font-family="Times,serif" font-size="14.00">ragger.backend.stub</text>
</g>
<!-- ragger.backend&#45;&gt;ragger.backend.stub -->
<g id="edge6" class="edge">
<title>ragger.backend&#45;&gt;ragger.backend.stub</title>
<path fill="none" stroke="black" d="M1171.25,-540.04C1154.17,-548.09 1137.39,-559.65 1127.5,-576 1116.06,-594.91 1122.3,-619.88 1130.26,-638.55"/>
<polygon fill="black" stroke="black" points="1134.49,-647.68 1126.2,-640.5 1132.39,-643.14 1130.28,-638.61 1130.28,-638.61 1130.28,-638.61 1132.39,-643.14 1134.37,-636.71 1134.49,-647.68 1134.49,-647.68"/>
</g>
<!-- ragger.error -->
<g id="node16" class="node">
<title>ragger.error</title>
<polygon fill="#77aadd" stroke="#77aadd" points="1671.5,-972 1567.5,-972 1567.5,-936 1671.5,-936 1671.5,-972"/>
<text text-anchor="middle" x="1619.5" y="-950.3" font-family="Times,serif" font-size="14.00">ragger.error</text>
</g>
<!-- ragger.backend.interface&#45;&gt;ragger.error -->
<g id="edge7" class="edge">
<title>ragger.backend.interface&#45;&gt;ragger.error</title>
<path fill="none" stroke="black" d="M1484.44,-756.04C1517.56,-777.11 1570.89,-816.11 1599.5,-864 1610.7,-882.75 1615.64,-907.13 1617.81,-925.63"/>
<polygon fill="black" stroke="black" points="1618.79,-935.76 1613.35,-926.24 1618.31,-930.78 1617.83,-925.81 1617.83,-925.81 1617.83,-925.81 1618.31,-930.78 1622.31,-925.37 1618.79,-935.76 1618.79,-935.76"/>
</g>
<!-- ragger.firmware -->
<g id="node17" class="node">
<title>ragger.firmware</title>
<polygon fill="#aaaa00" stroke="#aaaa00" points="1871.5,-828 1739.5,-828 1739.5,-792 1871.5,-792 1871.5,-828"/>
<text text-anchor="middle" x="1805.5" y="-806.3" font-family="Times,serif" font-size="14.00">ragger.firmware</text>
</g>
<!-- ragger.backend.interface&#45;&gt;ragger.firmware -->
<g id="edge8" class="edge">
<title>ragger.backend.interface&#45;&gt;ragger.firmware</title>
<path fill="none" stroke="black" d="M1540.67,-756.03C1598.2,-767.54 1673.5,-782.6 1729.09,-793.72"/>
<polygon fill="black" stroke="black" points="1739.23,-795.75 1728.54,-798.2 1734.33,-794.77 1729.43,-793.79 1729.43,-793.79 1729.43,-793.79 1734.33,-794.77 1730.31,-789.37 1739.23,-795.75 1739.23,-795.75"/>
</g>
<!-- ragger.logger -->
<g id="node28" class="node">
<title>ragger.logger</title>
<polygon fill="#77aadd" stroke="#77aadd" points="405,-972 292,-972 292,-936 405,-936 405,-972"/>
<text text-anchor="middle" x="348.5" y="-950.3" font-family="Times,serif" font-size="14.00">ragger.logger</text>
</g>
<!-- ragger.backend.interface&#45;&gt;ragger.logger -->
<g id="edge9" class="edge">
<title>ragger.backend.interface&#45;&gt;ragger.logger</title>
<path fill="none" stroke="black" d="M1456.13,-756.1C1456.33,-789.88 1451.41,-864.95 1406.5,-900 1367.37,-930.54 641.52,-947.27 415.27,-951.76"/>
<polygon fill="black" stroke="black" points="405.19,-951.95 415.1,-947.26 410.19,-951.86 415.19,-951.76 415.19,-951.76 415.19,-951.76 410.19,-951.86 415.28,-956.26 405.19,-951.95 405.19,-951.95"/>
</g>
<!-- ragger.utils -->
<g id="node35" class="node">
<title>ragger.utils</title>
<polygon fill="#ffaabb" stroke="#ffaabb" points="1370,-828 1271,-828 1271,-792 1370,-792 1370,-828"/>
<text text-anchor="middle" x="1320.5" y="-806.3" font-family="Times,serif" font-size="14.00">ragger.utils</text>
</g>
<!-- ragger.backend.interface&#45;&gt;ragger.utils -->
<g id="edge10" class="edge">
<title>ragger.backend.interface&#45;&gt;ragger.utils</title>
<path fill="none" stroke="black" d="M1422.48,-756.12C1404.42,-765.49 1381.85,-777.19 1362.55,-787.2"/>
<polygon fill="black" stroke="black" points="1353.65,-791.81 1360.46,-783.21 1358.09,-789.51 1362.53,-787.21 1362.53,-787.21 1362.53,-787.21 1358.09,-789.51 1364.6,-791.2 1353.65,-791.81 1353.65,-791.81"/>
</g>
<!-- ragger.backend.ledgercomm&#45;&gt;ragger.backend.ledgercomm -->
<g id="edge11" class="edge">
<title>ragger.backend.ledgercomm&#45;&gt;ragger.backend.ledgercomm</title>
<path fill="none" stroke="black" d="M1009.65,-582.99C1020.56,-585.2 1027.5,-588.87 1027.5,-594 1027.5,-597.37 1024.51,-600.11 1019.37,-602.21"/>
<polygon fill="black" stroke="black" points="1009.65,-605.01 1018.02,-597.92 1014.46,-603.63 1019.26,-602.25 1019.26,-602.25 1019.26,-602.25 1014.46,-603.63 1020.51,-606.57 1009.65,-605.01 1009.65,-605.01"/>
</g>
<!-- ragger.backend.physical_backend -->
<g id="node7" class="node">
<title>ragger.backend.physical_backend</title>
<polygon fill="#99ddff" stroke="#99ddff" points="1044.5,-684 788.5,-684 788.5,-648 1044.5,-648 1044.5,-684"/>
<text text-anchor="middle" x="916.5" y="-662.3" font-family="Times,serif" font-size="14.00">ragger.backend.physical_backend</text>
</g>
<!-- ragger.backend.ledgercomm&#45;&gt;ragger.backend.physical_backend -->
<g id="edge12" class="edge">
<title>ragger.backend.ledgercomm&#45;&gt;ragger.backend.physical_backend</title>
<path fill="none" stroke="black" d="M903.7,-612.3C905.6,-620.1 907.88,-629.49 909.98,-638.17"/>
<polygon fill="black" stroke="black" points="912.35,-647.9 905.61,-639.24 911.17,-643.04 909.99,-638.18 909.99,-638.18 909.99,-638.18 911.17,-643.04 914.36,-637.12 912.35,-647.9 912.35,-647.9"/>
</g>
<!-- ragger.backend.ledgercomm&#45;&gt;ragger.error -->
<g id="edge13" class="edge">
<title>ragger.backend.ledgercomm&#45;&gt;ragger.error</title>
<path fill="none" stroke="black" d="M832.97,-612.07C810.88,-620.2 787.38,-631.8 769.5,-648 736.35,-678.03 722.5,-692.27 722.5,-737 722.5,-737 722.5,-737 722.5,-811 722.5,-895.65 1353.81,-938.21 1557.18,-949.72"/>
<polygon fill="black" stroke="black" points="1567.4,-950.3 1557.16,-954.23 1562.4,-950.02 1557.41,-949.74 1557.41,-949.74 1557.41,-949.74 1562.4,-950.02 1557.66,-945.24 1567.4,-950.3 1567.4,-950.3"/>
</g>
<!-- ragger.backend.ledgercomm&#45;&gt;ragger.utils -->
<g id="edge14" class="edge">
<title>ragger.backend.ledgercomm&#45;&gt;ragger.utils</title>
<path fill="none" stroke="black" d="M825.8,-612.09C807.64,-619.96 790.32,-631.4 779.5,-648 770.77,-661.41 769.66,-671.38 779.5,-684 838.53,-759.67 1133,-793.25 1260.96,-804.43"/>
<polygon fill="black" stroke="black" points="1270.99,-805.29 1260.64,-808.92 1266.01,-804.87 1261.02,-804.44 1261.02,-804.44 1261.02,-804.44 1266.01,-804.87 1261.41,-799.96 1270.99,-805.29 1270.99,-805.29"/>
</g>
<!-- ragger.backend.ledgerwallet&#45;&gt;ragger.backend.physical_backend -->
<g id="edge15" class="edge">
<title>ragger.backend.ledgerwallet&#45;&gt;ragger.backend.physical_backend</title>
<path fill="none" stroke="black" d="M1166.95,-612.03C1118.6,-622.26 1056.98,-635.29 1006.96,-645.87"/>
<polygon fill="black" stroke="black" points="997.12,-647.95 1005.97,-641.48 1002.01,-646.92 1006.91,-645.88 1006.91,-645.88 1006.91,-645.88 1002.01,-646.92 1007.84,-650.28 997.12,-647.95 997.12,-647.95"/>
</g>
<!-- ragger.backend.ledgerwallet&#45;&gt;ragger.error -->
<g id="edge16" class="edge">
<title>ragger.backend.ledgerwallet&#45;&gt;ragger.error</title>
<path fill="none" stroke="black" d="M1358.18,-611.14C1479.61,-632.04 1657.5,-673.49 1657.5,-737 1657.5,-737 1657.5,-737 1657.5,-811 1657.5,-852.37 1642.27,-898.28 1631.09,-926.39"/>
<polygon fill="black" stroke="black" points="1627.19,-935.91 1626.82,-924.95 1629.09,-931.28 1630.98,-926.65 1630.98,-926.65 1630.98,-926.65 1629.09,-931.28 1635.15,-928.36 1627.19,-935.91 1627.19,-935.91"/>
</g>
<!-- ragger.backend.ledgerwallet&#45;&gt;ragger.utils -->
<g id="edge17" class="edge">
<title>ragger.backend.ledgerwallet&#45;&gt;ragger.utils</title>
<path fill="none" stroke="black" d="M1252.1,-612.18C1257.03,-630.19 1265.25,-659.26 1273.5,-684 1284.91,-718.21 1299.81,-757.01 1309.74,-782.18"/>
<polygon fill="black" stroke="black" points="1313.54,-791.76 1305.67,-784.12 1311.7,-787.11 1309.86,-782.46 1309.86,-782.46 1309.86,-782.46 1311.7,-787.11 1314.04,-780.8 1313.54,-791.76 1313.54,-791.76"/>
</g>
<!-- ragger.backend.physical_backend&#45;&gt;ragger.backend.interface -->
<g id="edge18" class="edge">
<title>ragger.backend.physical_backend&#45;&gt;ragger.backend.interface</title>
<path fill="none" stroke="black" d="M1044.58,-683.63C1137.06,-695.64 1260.55,-711.68 1347.94,-723.03"/>
<polygon fill="black" stroke="black" points="1357.88,-724.32 1347.38,-727.5 1352.92,-723.68 1347.96,-723.03 1347.96,-723.03 1347.96,-723.03 1352.92,-723.68 1348.54,-718.57 1357.88,-724.32 1357.88,-724.32"/>
</g>
<!-- ragger.gui -->
<g id="node25" class="node">
<title>ragger.gui</title>
<polygon fill="#eedd88" stroke="#eedd88" points="336.5,-756 246.5,-756 246.5,-720 336.5,-720 336.5,-756"/>
<text text-anchor="middle" x="291.5" y="-734.3" font-family="Times,serif" font-size="14.00">ragger.gui</text>
</g>
<!-- ragger.backend.physical_backend&#45;&gt;ragger.gui -->
<g id="edge19" class="edge">
<title>ragger.backend.physical_backend&#45;&gt;ragger.gui</title>
<path fill="none" stroke="black" d="M788.14,-681.38C652.54,-696.56 445.04,-719.8 346.78,-730.81"/>
<polygon fill="black" stroke="black" points="336.76,-731.93 346.2,-726.35 341.73,-731.37 346.7,-730.82 346.7,-730.82 346.7,-730.82 341.73,-731.37 347.2,-735.29 336.76,-731.93 336.76,-731.93"/>
</g>
<!-- ragger.navigator.instruction -->
<g id="node30" class="node">
<title>ragger.navigator.instruction</title>
<polygon fill="#ee8866" stroke="#ee8866" points="663,-900 446,-900 446,-864 663,-864 663,-900"/>
<text text-anchor="middle" x="554.5" y="-878.3" font-family="Times,serif" font-size="14.00">ragger.navigator.instruction</text>
</g>
<!-- ragger.backend.physical_backend&#45;&gt;ragger.navigator.instruction -->
<g id="edge20" class="edge">
<title>ragger.backend.physical_backend&#45;&gt;ragger.navigator.instruction</title>
<path fill="none" stroke="black" d="M891.2,-684.07C845.82,-714.43 747.21,-779.21 660.5,-828 640.93,-839.01 618.78,-850.27 599.81,-859.56"/>
<polygon fill="black" stroke="black" points="590.77,-863.95 597.8,-855.53 595.27,-861.76 599.77,-859.58 599.77,-859.58 599.77,-859.58 595.27,-861.76 601.73,-863.62 590.77,-863.95 590.77,-863.95"/>
</g>
<!-- ragger.backend.physical_backend&#45;&gt;ragger.utils -->
<g id="edge21" class="edge">
<title>ragger.backend.physical_backend&#45;&gt;ragger.utils</title>
<path fill="none" stroke="black" d="M965.23,-684.13C1039.8,-710.34 1181.96,-760.31 1261.99,-788.44"/>
<polygon fill="black" stroke="black" points="1271.91,-791.92 1260.98,-792.85 1267.19,-790.26 1262.48,-788.61 1262.48,-788.61 1262.48,-788.61 1267.19,-790.26 1263.97,-784.36 1271.91,-791.92 1271.91,-791.92"/>
</g>
<!-- ragger.backend.speculos&#45;&gt;ragger.backend.interface -->
<g id="edge22" class="edge">
<title>ragger.backend.speculos&#45;&gt;ragger.backend.interface</title>
<path fill="none" stroke="black" d="M1398.29,-684.3C1407.67,-692.95 1419.18,-703.55 1429.41,-712.97"/>
<polygon fill="black" stroke="black" points="1436.93,-719.9 1426.53,-716.43 1433.25,-716.51 1429.57,-713.12 1429.57,-713.12 1429.57,-713.12 1433.25,-716.51 1432.62,-709.81 1436.93,-719.9 1436.93,-719.9"/>
</g>
<!-- ragger.backend.speculos&#45;&gt;ragger.error -->
<g id="edge23" class="edge">
<title>ragger.backend.speculos&#45;&gt;ragger.error</title>
<path fill="none" stroke="black" d="M1476.18,-677.13C1607.42,-693.1 1831.28,-728.99 1880.5,-792 1910.05,-829.83 1910.88,-862.83 1880.5,-900 1855.9,-930.09 1751.05,-943.52 1681.96,-949.19"/>
<polygon fill="black" stroke="black" points="1671.62,-950 1681.23,-944.73 1676.6,-949.61 1681.59,-949.22 1681.59,-949.22 1681.59,-949.22 1676.6,-949.61 1681.94,-953.71 1671.62,-950 1671.62,-950"/>
</g>
<!-- ragger.backend.speculos&#45;&gt;ragger.logger -->
<g id="edge24" class="edge">
<title>ragger.backend.speculos&#45;&gt;ragger.logger</title>
<path fill="none" stroke="black" d="M1335.87,-684C1225.98,-726.25 928.21,-837.1 671.5,-900 584.01,-921.44 481.02,-936.65 415.28,-945.12"/>
<polygon fill="black" stroke="black" points="405.05,-946.43 414.4,-940.7 410.01,-945.79 414.97,-945.16 414.97,-945.16 414.97,-945.16 410.01,-945.79 415.54,-949.63 405.05,-946.43 405.05,-946.43"/>
</g>
<!-- ragger.backend.speculos&#45;&gt;ragger.utils -->
<g id="edge25" class="edge">
<title>ragger.backend.speculos&#45;&gt;ragger.utils</title>
<path fill="none" stroke="black" d="M1368.14,-684.14C1361.78,-694.27 1354.03,-707.52 1348.5,-720 1339.56,-740.18 1332.2,-764.09 1327.28,-782.05"/>
<polygon fill="black" stroke="black" points="1324.67,-791.85 1322.89,-781.03 1325.95,-787.02 1327.24,-782.19 1327.24,-782.19 1327.24,-782.19 1325.95,-787.02 1331.59,-783.35 1324.67,-791.85 1324.67,-791.85"/>
</g>
<!-- ragger.backend.stub&#45;&gt;ragger.backend.interface -->
<g id="edge26" class="edge">
<title>ragger.backend.stub&#45;&gt;ragger.backend.interface</title>
<path fill="none" stroke="black" d="M1220.18,-684.03C1265.42,-694.22 1323.02,-707.18 1369.91,-717.74"/>
<polygon fill="black" stroke="black" points="1379.75,-719.95 1369,-722.14 1374.87,-718.85 1369.99,-717.75 1369.99,-717.75 1369.99,-717.75 1374.87,-718.85 1370.98,-713.36 1379.75,-719.95 1379.75,-719.95"/>
</g>
<!-- ragger.backend.stub&#45;&gt;ragger.error -->
<g id="edge27" class="edge">
<title>ragger.backend.stub&#45;&gt;ragger.error</title>
<path fill="none" stroke="black" d="M1127.56,-684.18C1088.22,-726.11 998.36,-835.02 1057.5,-900 1090.64,-936.42 1418.1,-948.32 1557.35,-951.75"/>
<polygon fill="black" stroke="black" points="1567.45,-952 1557.34,-956.25 1562.45,-951.88 1557.45,-951.76 1557.45,-951.76 1557.45,-951.76 1562.45,-951.88 1557.56,-947.26 1567.45,-952 1567.45,-952"/>
</g>
<!-- ragger.utils.structs -->
<g id="node38" class="node">
<title>ragger.utils.structs</title>
<polygon fill="#ffaabb" stroke="#ffaabb" points="1220.5,-900 1066.5,-900 1066.5,-864 1220.5,-864 1220.5,-900"/>
<text text-anchor="middle" x="1143.5" y="-878.3" font-family="Times,serif" font-size="14.00">ragger.utils.structs</text>
</g>
<!-- ragger.backend.stub&#45;&gt;ragger.utils.structs -->
<g id="edge28" class="edge">
<title>ragger.backend.stub&#45;&gt;ragger.utils.structs</title>
<path fill="none" stroke="black" d="M1144.42,-684.15C1144.25,-721.17 1143.84,-808.82 1143.63,-853.61"/>
<polygon fill="black" stroke="black" points="1143.58,-863.77 1139.13,-853.75 1143.6,-858.77 1143.63,-853.77 1143.63,-853.77 1143.63,-853.77 1143.6,-858.77 1148.13,-853.79 1143.58,-863.77 1143.58,-863.77"/>
</g>
<!-- ragger.bip -->
<g id="node10" class="node">
<title>ragger.bip</title>
<polygon fill="#44bb99" stroke="#44bb99" points="2147.5,-36 2057.5,-36 2057.5,0 2147.5,0 2147.5,-36"/>
<text text-anchor="middle" x="2102.5" y="-14.3" font-family="Times,serif" font-size="14.00">ragger.bip</text>
</g>
<!-- ragger.bip.path -->
<g id="node11" class="node">
<title>ragger.bip.path</title>
<polygon fill="#44bb99" stroke="#44bb99" points="2093,-108 1966,-108 1966,-72 2093,-72 2093,-108"/>
<text text-anchor="middle" x="2029.5" y="-86.3" font-family="Times,serif" font-size="14.00">ragger.bip.path</text>
</g>
<!-- ragger.bip&#45;&gt;ragger.bip.path -->
<g id="edge29" class="edge">
<title>ragger.bip&#45;&gt;ragger.bip.path</title>
<path fill="none" stroke="black" d="M2084.46,-36.3C2075.44,-44.95 2064.38,-55.55 2054.56,-64.97"/>
<polygon fill="black" stroke="black" points="2047.34,-71.9 2051.44,-61.73 2050.95,-68.44 2054.56,-64.97 2054.56,-64.97 2054.56,-64.97 2050.95,-68.44 2057.67,-68.22 2047.34,-71.9 2047.34,-71.9"/>
</g>
<!-- ragger.bip.seed -->
<g id="node12" class="node">
<title>ragger.bip.seed</title>
<polygon fill="#44bb99" stroke="#44bb99" points="2239.5,-108 2111.5,-108 2111.5,-72 2239.5,-72 2239.5,-108"/>
<text text-anchor="middle" x="2175.5" y="-86.3" font-family="Times,serif" font-size="14.00">ragger.bip.seed</text>
</g>
<!-- ragger.bip&#45;&gt;ragger.bip.seed -->
<g id="edge30" class="edge">
<title>ragger.bip&#45;&gt;ragger.bip.seed</title>
<path fill="none" stroke="black" d="M2120.54,-36.3C2129.56,-44.95 2140.62,-55.55 2150.44,-64.97"/>
<polygon fill="black" stroke="black" points="2157.66,-71.9 2147.33,-68.22 2154.05,-68.44 2150.44,-64.97 2150.44,-64.97 2150.44,-64.97 2154.05,-68.44 2153.56,-61.73 2157.66,-71.9 2157.66,-71.9"/>
</g>
<!-- ragger.conftest -->
<g id="node13" class="node">
<title>ragger.conftest</title>
<polygon fill="#bbcc33" stroke="#bbcc33" points="2291,-36 2166,-36 2166,0 2291,0 2291,-36"/>
<text text-anchor="middle" x="2228.5" y="-14.3" font-family="Times,serif" font-size="14.00">ragger.conftest</text>
</g>
<!-- ragger.conftest.base_conftest -->
<g id="node14" class="node">
<title>ragger.conftest.base_conftest</title>
<polygon fill="#bbcc33" stroke="#bbcc33" points="1885,-36 1658,-36 1658,0 1885,0 1885,-36"/>
<text text-anchor="middle" x="1771.5" y="-14.3" font-family="Times,serif" font-size="14.00">ragger.conftest.base_conftest</text>
</g>
<!-- ragger.conftest.base_conftest&#45;&gt;ragger.backend -->
<g id="edge31" class="edge">
<title>ragger.conftest.base_conftest&#45;&gt;ragger.backend</title>
<path fill="none" stroke="black" d="M1763.81,-36.09C1752.71,-62.38 1733.5,-114.55 1733.5,-161 1733.5,-161 1733.5,-161 1733.5,-307 1733.5,-347.54 1740.45,-365.71 1713.5,-396 1659.25,-456.98 1423.77,-495.74 1302.02,-512.08"/>
<polygon fill="black" stroke="black" points="1292.03,-513.41 1301.35,-507.63 1296.98,-512.75 1301.94,-512.09 1301.94,-512.09 1301.94,-512.09 1296.98,-512.75 1302.53,-516.55 1292.03,-513.41 1292.03,-513.41"/>
</g>
<!-- ragger.conftest.base_conftest&#45;&gt;ragger.error -->
<g id="edge32" class="edge">
<title>ragger.conftest.base_conftest&#45;&gt;ragger.error</title>
<path fill="none" stroke="black" d="M1819.07,-36.16C1868.12,-57.27 1937.5,-98.23 1937.5,-161 1937.5,-161 1937.5,-161 1937.5,-811 1937.5,-853.19 1936.77,-872.83 1904.5,-900 1871.55,-927.75 1755.21,-942.08 1681.75,-948.54"/>
<polygon fill="black" stroke="black" points="1671.69,-949.4 1681.27,-944.06 1676.67,-948.97 1681.65,-948.55 1681.65,-948.55 1681.65,-948.55 1676.67,-948.97 1682.03,-953.03 1671.69,-949.4 1671.69,-949.4"/>
</g>
<!-- ragger.conftest.base_conftest&#45;&gt;ragger.firmware -->
<g id="edge33" class="edge">
<title>ragger.conftest.base_conftest&#45;&gt;ragger.firmware</title>
<path fill="none" stroke="black" d="M1792.91,-36.14C1803.51,-45.67 1815.69,-58.35 1823.5,-72 1843.84,-107.56 1847.5,-120.03 1847.5,-161 1847.5,-161 1847.5,-161 1847.5,-667 1847.5,-708.85 1830.51,-754.9 1818.15,-782.89"/>
<polygon fill="black" stroke="black" points="1814,-791.99 1814.05,-781.03 1816.07,-787.44 1818.14,-782.89 1818.14,-782.89 1818.14,-782.89 1816.07,-787.44 1822.24,-784.76 1814,-791.99 1814,-791.99"/>
</g>
<!-- ragger.conftest.base_conftest&#45;&gt;ragger.logger -->
<g id="edge34" class="edge">
<title>ragger.conftest.base_conftest&#45;&gt;ragger.logger</title>
<path fill="none" stroke="black" d="M1658,-23.15C1293.38,-37.24 175.5,-86.5 175.5,-161 175.5,-161 175.5,-161 175.5,-811 175.5,-870.87 238.16,-910.11 288.06,-931.86"/>
<polygon fill="black" stroke="black" points="297.53,-935.85 286.57,-936.12 292.92,-933.91 288.31,-931.97 288.31,-931.97 288.31,-931.97 292.92,-933.91 290.06,-927.82 297.53,-935.85 297.53,-935.85"/>
</g>
<!-- ragger.navigator -->
<g id="node29" class="node">
<title>ragger.navigator</title>
<polygon fill="#ee8866" stroke="#ee8866" points="1425.5,-108 1289.5,-108 1289.5,-72 1425.5,-72 1425.5,-108"/>
<text text-anchor="middle" x="1357.5" y="-86.3" font-family="Times,serif" font-size="14.00">ragger.navigator</text>
</g>
<!-- ragger.conftest.base_conftest&#45;&gt;ragger.navigator -->
<g id="edge35" class="edge">
<title>ragger.conftest.base_conftest&#45;&gt;ragger.navigator</title>
<path fill="none" stroke="black" d="M1670.75,-36.03C1598.36,-48.28 1502.17,-64.54 1435.57,-75.8"/>
<polygon fill="black" stroke="black" points="1425.56,-77.49 1434.67,-71.39 1430.49,-76.66 1435.42,-75.83 1435.42,-75.83 1435.42,-75.83 1430.49,-76.66 1436.17,-80.26 1425.56,-77.49 1425.56,-77.49"/>
</g>
<!-- ragger.conftest.base_conftest&#45;&gt;ragger.utils -->
<g id="edge36" class="edge">
<title>ragger.conftest.base_conftest&#45;&gt;ragger.utils</title>
<path fill="none" stroke="black" d="M1771.5,-36.05C1771.5,-62.71 1771.5,-115.89 1771.5,-161 1771.5,-161 1771.5,-161 1771.5,-667 1771.5,-748.14 1502.55,-788.64 1380.03,-802.88"/>
<polygon fill="black" stroke="black" points="1370.05,-804.02 1379.48,-798.42 1375.02,-803.46 1379.99,-802.89 1379.99,-802.89 1379.99,-802.89 1375.02,-803.46 1380.5,-807.36 1370.05,-804.02 1370.05,-804.02"/>
</g>
<!-- ragger.utils.misc -->
<g id="node36" class="node">
<title>ragger.utils.misc</title>
<polygon fill="#ffaabb" stroke="#ffaabb" points="1591,-900 1454,-900 1454,-864 1591,-864 1591,-900"/>
<text text-anchor="middle" x="1522.5" y="-878.3" font-family="Times,serif" font-size="14.00">ragger.utils.misc</text>
</g>
<!-- ragger.conftest.base_conftest&#45;&gt;ragger.utils.misc -->
<g id="edge37" class="edge">
<title>ragger.conftest.base_conftest&#45;&gt;ragger.utils.misc</title>
<path fill="none" stroke="black" d="M1779.19,-36.09C1790.29,-62.38 1809.5,-114.55 1809.5,-161 1809.5,-161 1809.5,-161 1809.5,-667 1809.5,-726.87 1646.94,-817.84 1566.5,-859.18"/>
<polygon fill="black" stroke="black" points="1557.12,-863.97 1563.98,-855.42 1561.57,-861.7 1566.03,-859.43 1566.03,-859.43 1566.03,-859.43 1561.57,-861.7 1568.07,-863.43 1557.12,-863.97 1557.12,-863.97"/>
</g>
<!-- ragger.conftest.configuration -->
<g id="node15" class="node">
<title>ragger.conftest.configuration</title>
<polygon fill="#bbcc33" stroke="#bbcc33" points="2533.5,-36 2309.5,-36 2309.5,0 2533.5,0 2533.5,-36"/>
<text text-anchor="middle" x="2421.5" y="-14.3" font-family="Times,serif" font-size="14.00">ragger.conftest.configuration</text>
</g>
<!-- ragger.firmware.structs -->
<g id="node18" class="node">
<title>ragger.firmware.structs</title>
<polygon fill="#aaaa00" stroke="#aaaa00" points="1872,-900 1685,-900 1685,-864 1872,-864 1872,-900"/>
<text text-anchor="middle" x="1778.5" y="-878.3" font-family="Times,serif" font-size="14.00">ragger.firmware.structs</text>
</g>
<!-- ragger.firmware&#45;&gt;ragger.firmware.structs -->
<g id="edge38" class="edge">
<title>ragger.firmware&#45;&gt;ragger.firmware.structs</title>
<path fill="none" stroke="black" d="M1798.83,-828.3C1795.79,-836.19 1792.12,-845.7 1788.74,-854.45"/>
<polygon fill="black" stroke="black" points="1785.1,-863.9 1784.5,-852.95 1786.9,-859.23 1788.7,-854.57 1788.7,-854.57 1788.7,-854.57 1786.9,-859.23 1792.89,-856.19 1785.1,-863.9 1785.1,-863.9"/>
</g>
<!-- ragger.firmware.touch -->
<g id="node19" class="node">
<title>ragger.firmware.touch</title>
<polygon fill="#aaaa00" stroke="#aaaa00" points="987.5,-252 811.5,-252 811.5,-216 987.5,-216 987.5,-252"/>
<text text-anchor="middle" x="899.5" y="-230.3" font-family="Times,serif" font-size="14.00">ragger.firmware.touch</text>
</g>
<!-- ragger.firmware.touch.screen -->
<g id="node23" class="node">
<title>ragger.firmware.touch.screen</title>
<polygon fill="#aaaa00" stroke="#aaaa00" points="975.5,-324 747.5,-324 747.5,-288 975.5,-288 975.5,-324"/>
<text text-anchor="middle" x="861.5" y="-302.3" font-family="Times,serif" font-size="14.00">ragger.firmware.touch.screen</text>
</g>
<!-- ragger.firmware.touch&#45;&gt;ragger.firmware.touch.screen -->
<g id="edge39" class="edge">
<title>ragger.firmware.touch&#45;&gt;ragger.firmware.touch.screen</title>
<path fill="none" stroke="black" d="M890.11,-252.3C885.74,-260.36 880.44,-270.11 875.6,-279.02"/>
<polygon fill="black" stroke="black" points="870.79,-287.9 871.6,-276.96 873.17,-283.5 875.56,-279.11 875.56,-279.11 875.56,-279.11 873.17,-283.5 879.51,-281.25 870.79,-287.9 870.79,-287.9"/>
</g>
<!-- ragger.firmware.touch.element -->
<g id="node20" class="node">
<title>ragger.firmware.touch.element</title>
<polygon fill="#aaaa00" stroke="#aaaa00" points="827,-468 588,-468 588,-432 827,-432 827,-468"/>
<text text-anchor="middle" x="707.5" y="-446.3" font-family="Times,serif" font-size="14.00">ragger.firmware.touch.element</text>
</g>
<!-- ragger.firmware.touch.element&#45;&gt;ragger.backend -->
<g id="edge40" class="edge">
<title>ragger.firmware.touch.element&#45;&gt;ragger.backend</title>
<path fill="none" stroke="black" d="M827.03,-467.06C928.07,-480.63 1069.6,-499.65 1154.83,-511.1"/>
<polygon fill="black" stroke="black" points="1164.94,-512.46 1154.43,-515.59 1159.98,-511.79 1155.03,-511.13 1155.03,-511.13 1155.03,-511.13 1159.98,-511.79 1155.63,-506.67 1164.94,-512.46 1164.94,-512.46"/>
</g>
<!-- ragger.firmware.touch.positions -->
<g id="node22" class="node">
<title>ragger.firmware.touch.positions</title>
<polygon fill="#aaaa00" stroke="#aaaa00" points="691,-540 446,-540 446,-504 691,-504 691,-540"/>
<text text-anchor="middle" x="568.5" y="-518.3" font-family="Times,serif" font-size="14.00">ragger.firmware.touch.positions</text>
</g>
<!-- ragger.firmware.touch.element&#45;&gt;ragger.firmware.touch.positions -->
<g id="edge41" class="edge">
<title>ragger.firmware.touch.element&#45;&gt;ragger.firmware.touch.positions</title>
<path fill="none" stroke="black" d="M673.5,-468.12C654.9,-477.49 631.67,-489.19 611.79,-499.2"/>
<polygon fill="black" stroke="black" points="602.63,-503.81 609.54,-495.29 607.1,-501.56 611.57,-499.31 611.57,-499.31 611.57,-499.31 607.1,-501.56 613.59,-503.33 602.63,-503.81 602.63,-503.81"/>
</g>
<!-- ragger.firmware.touch.layouts -->
<g id="node21" class="node">
<title>ragger.firmware.touch.layouts</title>
<polygon fill="#aaaa00" stroke="#aaaa00" points="679,-396 446,-396 446,-360 679,-360 679,-396"/>
<text text-anchor="middle" x="562.5" y="-374.3" font-family="Times,serif" font-size="14.00">ragger.firmware.touch.layouts</text>
</g>
<!-- ragger.firmware.touch.layouts&#45;&gt;ragger.firmware.touch.element -->
<g id="edge42" class="edge">
<title>ragger.firmware.touch.layouts&#45;&gt;ragger.firmware.touch.element</title>
<path fill="none" stroke="black" d="M597.97,-396.12C617.62,-405.61 642.22,-417.49 663.13,-427.58"/>
<polygon fill="black" stroke="black" points="672.14,-431.93 661.18,-431.64 667.64,-429.76 663.14,-427.58 663.14,-427.58 663.14,-427.58 667.64,-429.76 665.1,-423.53 672.14,-431.93 672.14,-431.93"/>
</g>
<!-- ragger.firmware.touch.screen&#45;&gt;ragger.backend -->
<g id="edge43" class="edge">
<title>ragger.firmware.touch.screen&#45;&gt;ragger.backend</title>
<path fill="none" stroke="black" d="M934.84,-324.06C956.52,-332.04 978.88,-343.54 995.5,-360 1032.34,-396.46 1000.83,-433.49 1039.5,-468 1071.01,-496.12 1116.3,-509.44 1154.65,-515.69"/>
<polygon fill="black" stroke="black" points="1164.75,-517.2 1154.19,-520.17 1159.8,-516.46 1154.86,-515.72 1154.86,-515.72 1154.86,-515.72 1159.8,-516.46 1155.53,-511.27 1164.75,-517.2 1164.75,-517.2"/>
</g>
<!-- ragger.firmware.touch.screen&#45;&gt;ragger.firmware.touch.element -->
<g id="edge44" class="edge">
<title>ragger.firmware.touch.screen&#45;&gt;ragger.firmware.touch.element</title>
<path fill="none" stroke="black" d="M780.85,-324.09C760.57,-331.96 740.59,-343.39 726.5,-360 712.01,-377.08 707.74,-402.53 706.82,-421.85"/>
<polygon fill="black" stroke="black" points="706.6,-431.86 702.32,-421.76 706.71,-426.86 706.82,-421.86 706.82,-421.86 706.82,-421.86 706.71,-426.86 711.32,-421.95 706.6,-431.86 706.6,-431.86"/>
</g>
<!-- ragger.firmware.touch.screen&#45;&gt;ragger.firmware.touch.layouts -->
<g id="edge45" class="edge">
<title>ragger.firmware.touch.screen&#45;&gt;ragger.firmware.touch.layouts</title>
<path fill="none" stroke="black" d="M788.74,-324.03C745.34,-334.2 690.1,-347.13 645.07,-357.67"/>
<polygon fill="black" stroke="black" points="635.33,-359.95 644.04,-353.29 640.2,-358.81 645.06,-357.67 645.06,-357.67 645.06,-357.67 640.2,-358.81 646.09,-362.05 635.33,-359.95 635.33,-359.95"/>
</g>
<!-- ragger.firmware.touch.use_cases -->
<g id="node24" class="node">
<title>ragger.firmware.touch.use_cases</title>
<polygon fill="#aaaa00" stroke="#aaaa00" points="987,-396 736,-396 736,-360 987,-360 987,-396"/>
<text text-anchor="middle" x="861.5" y="-374.3" font-family="Times,serif" font-size="14.00">ragger.firmware.touch.use_cases</text>
</g>
<!-- ragger.firmware.touch.screen&#45;&gt;ragger.firmware.touch.use_cases -->
<g id="edge46" class="edge">
<title>ragger.firmware.touch.screen&#45;&gt;ragger.firmware.touch.use_cases</title>
<path fill="none" stroke="black" d="M861.5,-324.3C861.5,-332.02 861.5,-341.29 861.5,-349.89"/>
<polygon fill="black" stroke="black" points="861.5,-359.9 857,-349.9 861.5,-354.9 861.5,-349.9 861.5,-349.9 861.5,-349.9 861.5,-354.9 866,-349.9 861.5,-359.9 861.5,-359.9"/>
</g>
<!-- ragger.firmware.touch.use_cases&#45;&gt;ragger.firmware.touch.element -->
<g id="edge47" class="edge">
<title>ragger.firmware.touch.use_cases&#45;&gt;ragger.firmware.touch.element</title>
<path fill="none" stroke="black" d="M823.83,-396.12C802.87,-405.65 776.6,-417.59 754.32,-427.72"/>
<polygon fill="black" stroke="black" points="745.05,-431.93 752.29,-423.7 749.6,-429.86 754.15,-427.79 754.15,-427.79 754.15,-427.79 749.6,-429.86 756.02,-431.89 745.05,-431.93 745.05,-431.93"/>
</g>
<!-- ragger.gui.process -->
<g id="node27" class="node">
<title>ragger.gui.process</title>
<polygon fill="#eedd88" stroke="#eedd88" points="352,-828 203,-828 203,-792 352,-792 352,-828"/>
<text text-anchor="middle" x="277.5" y="-806.3" font-family="Times,serif" font-size="14.00">ragger.gui.process</text>
</g>
<!-- ragger.gui&#45;&gt;ragger.gui.process -->
<g id="edge48" class="edge">
<title>ragger.gui&#45;&gt;ragger.gui.process</title>
<path fill="none" stroke="black" d="M288.04,-756.3C286.5,-764.02 284.64,-773.29 282.92,-781.89"/>
<polygon fill="black" stroke="black" points="280.92,-791.9 278.47,-781.21 281.9,-786.99 282.88,-782.09 282.88,-782.09 282.88,-782.09 281.9,-786.99 287.29,-782.97 280.92,-791.9 280.92,-791.9"/>
</g>
<!-- ragger.gui.interface -->
<g id="node26" class="node">
<title>ragger.gui.interface</title>
<polygon fill="#eedd88" stroke="#eedd88" points="427.5,-900 269.5,-900 269.5,-864 427.5,-864 427.5,-900"/>
<text text-anchor="middle" x="348.5" y="-878.3" font-family="Times,serif" font-size="14.00">ragger.gui.interface</text>
</g>
<!-- ragger.gui.interface&#45;&gt;ragger.logger -->
<g id="edge49" class="edge">
<title>ragger.gui.interface&#45;&gt;ragger.logger</title>
<path fill="none" stroke="black" d="M348.5,-900.3C348.5,-908.02 348.5,-917.29 348.5,-925.89"/>
<polygon fill="black" stroke="black" points="348.5,-935.9 344,-925.9 348.5,-930.9 348.5,-925.9 348.5,-925.9 348.5,-925.9 348.5,-930.9 353,-925.9 348.5,-935.9 348.5,-935.9"/>
</g>
<!-- ragger.gui.process&#45;&gt;ragger.gui.interface -->
<g id="edge50" class="edge">
<title>ragger.gui.process&#45;&gt;ragger.gui.interface</title>
<path fill="none" stroke="black" d="M295.05,-828.3C303.73,-836.86 314.36,-847.34 323.85,-856.7"/>
<polygon fill="black" stroke="black" points="331.15,-863.9 320.87,-860.08 327.59,-860.39 324.03,-856.87 324.03,-856.87 324.03,-856.87 327.59,-860.39 327.19,-853.67 331.15,-863.9 331.15,-863.9"/>
</g>
<!-- ragger.gui.process&#45;&gt;ragger.logger -->
<g id="edge51" class="edge">
<title>ragger.gui.process&#45;&gt;ragger.logger</title>
<path fill="none" stroke="black" d="M267.74,-828.18C258.48,-846.96 247.73,-877.4 260.5,-900 267.84,-912.99 279.79,-923.16 292.54,-930.95"/>
<polygon fill="black" stroke="black" points="301.46,-935.97 290.54,-934.98 297.1,-933.52 292.75,-931.06 292.75,-931.06 292.75,-931.06 297.1,-933.52 294.95,-927.14 301.46,-935.97 301.46,-935.97"/>
</g>
<!-- ragger.gui.process&#45;&gt;ragger.navigator.instruction -->
<g id="edge52" class="edge">
<title>ragger.gui.process&#45;&gt;ragger.navigator.instruction</title>
<path fill="none" stroke="black" d="M344.91,-828.03C384.79,-838.11 435.46,-850.92 476.99,-861.41"/>
<polygon fill="black" stroke="black" points="486.79,-863.89 475.99,-865.8 481.94,-862.66 477.09,-861.44 477.09,-861.44 477.09,-861.44 481.94,-862.66 478.2,-857.08 486.79,-863.89 486.79,-863.89"/>
</g>
<!-- ragger.navigator&#45;&gt;ragger.navigator.instruction -->
<g id="edge53" class="edge">
<title>ragger.navigator&#45;&gt;ragger.navigator.instruction</title>
<path fill="none" stroke="black" d="M1289.12,-93.71C1066.92,-103.43 379.5,-140.94 379.5,-233 379.5,-233 379.5,-233 379.5,-739 379.5,-785.27 398.69,-797.52 433.5,-828 449,-841.57 468.52,-852.14 487.33,-860.15"/>
<polygon fill="black" stroke="black" points="496.78,-863.99 485.82,-864.39 492.15,-862.11 487.51,-860.23 487.51,-860.23 487.51,-860.23 492.15,-862.11 489.21,-856.06 496.78,-863.99 496.78,-863.99"/>
</g>
<!-- ragger.navigator.nano_navigator -->
<g id="node31" class="node">
<title>ragger.navigator.nano_navigator</title>
<polygon fill="#ee8866" stroke="#ee8866" points="1329.5,-396 1081.5,-396 1081.5,-360 1329.5,-360 1329.5,-396"/>
<text text-anchor="middle" x="1205.5" y="-374.3" font-family="Times,serif" font-size="14.00">ragger.navigator.nano_navigator</text>
</g>
<!-- ragger.navigator&#45;&gt;ragger.navigator.nano_navigator -->
<g id="edge54" class="edge">
<title>ragger.navigator&#45;&gt;ragger.navigator.nano_navigator</title>
<path fill="none" stroke="black" d="M1348.45,-108.03C1322.9,-156.11 1250.11,-293.07 1219.42,-350.81"/>
<polygon fill="black" stroke="black" points="1214.7,-359.69 1215.42,-348.75 1217.04,-355.28 1219.39,-350.86 1219.39,-350.86 1219.39,-350.86 1217.04,-355.28 1223.36,-352.98 1214.7,-359.69 1214.7,-359.69"/>
</g>
<!-- ragger.navigator.navigation_scenario -->
<g id="node32" class="node">
<title>ragger.navigator.navigation_scenario</title>
<polygon fill="#ee8866" stroke="#ee8866" points="1705,-396 1424,-396 1424,-360 1705,-360 1705,-396"/>
<text text-anchor="middle" x="1564.5" y="-374.3" font-family="Times,serif" font-size="14.00">ragger.navigator.navigation_scenario</text>
</g>
<!-- ragger.navigator&#45;&gt;ragger.navigator.navigation_scenario -->
<g id="edge55" class="edge">
<title>ragger.navigator&#45;&gt;ragger.navigator.navigation_scenario</title>
<path fill="none" stroke="black" d="M1376.19,-108.36C1386.51,-118.35 1399.27,-131.39 1409.5,-144 1466.93,-214.81 1523.45,-307 1549.53,-351.19"/>
<polygon fill="black" stroke="black" points="1554.63,-359.86 1545.68,-353.52 1552.1,-355.55 1549.56,-351.24 1549.56,-351.24 1549.56,-351.24 1552.1,-355.55 1553.45,-348.96 1554.63,-359.86 1554.63,-359.86"/>
</g>
<!-- ragger.navigator.navigator -->
<g id="node33" class="node">
<title>ragger.navigator.navigator</title>
<polygon fill="#ee8866" stroke="#ee8866" points="1461,-468 1254,-468 1254,-432 1461,-432 1461,-468"/>
<text text-anchor="middle" x="1357.5" y="-446.3" font-family="Times,serif" font-size="14.00">ragger.navigator.navigator</text>
</g>
<!-- ragger.navigator&#45;&gt;ragger.navigator.navigator -->
<g id="edge56" class="edge">
<title>ragger.navigator&#45;&gt;ragger.navigator.navigator</title>
<path fill="none" stroke="black" d="M1365.19,-108.09C1376.29,-134.38 1395.5,-186.55 1395.5,-233 1395.5,-233 1395.5,-233 1395.5,-307 1395.5,-348.37 1380.27,-394.28 1369.09,-422.39"/>
<polygon fill="black" stroke="black" points="1365.19,-431.91 1364.82,-420.95 1367.09,-427.28 1368.98,-422.65 1368.98,-422.65 1368.98,-422.65 1367.09,-427.28 1373.15,-424.36 1365.19,-431.91 1365.19,-431.91"/>
</g>
<!-- ragger.navigator.touch_navigator -->
<g id="node34" class="node">
<title>ragger.navigator.touch_navigator</title>
<polygon fill="#ee8866" stroke="#ee8866" points="1180.5,-180 926.5,-180 926.5,-144 1180.5,-144 1180.5,-180"/>
<text text-anchor="middle" x="1053.5" y="-158.3" font-family="Times,serif" font-size="14.00">ragger.navigator.touch_navigator</text>
</g>
<!-- ragger.navigator&#45;&gt;ragger.navigator.touch_navigator -->
<g id="edge57" class="edge">
<title>ragger.navigator&#45;&gt;ragger.navigator.touch_navigator</title>
<path fill="none" stroke="black" d="M1289.28,-106.71C1244.33,-117.06 1185.18,-130.68 1137.36,-141.69"/>
<polygon fill="black" stroke="black" points="1127.34,-144 1136.08,-137.37 1132.22,-142.87 1137.09,-141.75 1137.09,-141.75 1137.09,-141.75 1132.22,-142.87 1138.1,-146.14 1127.34,-144 1127.34,-144"/>
</g>
<!-- ragger.navigator.nano_navigator&#45;&gt;ragger.backend -->
<g id="edge58" class="edge">
<title>ragger.navigator.nano_navigator&#45;&gt;ragger.backend</title>
<path fill="none" stroke="black" d="M1208.27,-396.13C1212.19,-420.33 1219.4,-464.79 1224.06,-493.61"/>
<polygon fill="black" stroke="black" points="1225.72,-503.81 1219.67,-494.66 1224.92,-498.88 1224.12,-493.94 1224.12,-493.94 1224.12,-493.94 1224.92,-498.88 1228.56,-493.22 1225.72,-503.81 1225.72,-503.81"/>
</g>
<!-- ragger.navigator.nano_navigator&#45;&gt;ragger.navigator.navigator -->
<g id="edge59" class="edge">
<title>ragger.navigator.nano_navigator&#45;&gt;ragger.navigator.navigator</title>
<path fill="none" stroke="black" d="M1242.68,-396.12C1263.37,-405.65 1289.3,-417.59 1311.28,-427.72"/>
<polygon fill="black" stroke="black" points="1320.44,-431.93 1309.47,-431.84 1315.9,-429.84 1311.35,-427.75 1311.35,-427.75 1311.35,-427.75 1315.9,-429.84 1313.24,-423.66 1320.44,-431.93 1320.44,-431.93"/>
</g>
<!-- ragger.navigator.navigation_scenario&#45;&gt;ragger.backend -->
<g id="edge60" class="edge">
<title>ragger.navigator.navigation_scenario&#45;&gt;ragger.backend</title>
<path fill="none" stroke="black" d="M1551.05,-396.32C1534.23,-416.73 1503.5,-450.1 1469.5,-468 1417.37,-495.45 1351.7,-508.7 1302.08,-515.09"/>
<polygon fill="black" stroke="black" points="1292.06,-516.31 1301.44,-510.63 1297.02,-515.71 1301.99,-515.1 1301.99,-515.1 1301.99,-515.1 1297.02,-515.71 1302.53,-519.57 1292.06,-516.31 1292.06,-516.31"/>
</g>
<!-- ragger.navigator.navigation_scenario&#45;&gt;ragger.backend.interface -->
<g id="edge61" class="edge">
<title>ragger.navigator.navigation_scenario&#45;&gt;ragger.backend.interface</title>
<path fill="none" stroke="black" d="M1563.96,-396.17C1561.83,-444.18 1551.47,-582.95 1501.5,-684 1496.51,-694.1 1489.12,-703.81 1481.72,-712.11"/>
<polygon fill="black" stroke="black" points="1474.7,-719.59 1478.26,-709.22 1478.12,-715.94 1481.54,-712.3 1481.54,-712.3 1481.54,-712.3 1478.12,-715.94 1484.82,-715.38 1474.7,-719.59 1474.7,-719.59"/>
</g>
<!-- ragger.navigator.navigation_scenario&#45;&gt;ragger.navigator.navigator -->
<g id="edge62" class="edge">
<title>ragger.navigator.navigation_scenario&#45;&gt;ragger.navigator.navigator</title>
<path fill="none" stroke="black" d="M1514.13,-396.03C1485.08,-405.86 1448.37,-418.27 1417.79,-428.61"/>
<polygon fill="black" stroke="black" points="1408.1,-431.89 1416.13,-424.42 1412.84,-430.29 1417.57,-428.69 1417.57,-428.69 1417.57,-428.69 1412.84,-430.29 1419.01,-432.95 1408.1,-431.89 1408.1,-431.89"/>
</g>
<!-- ragger.navigator.navigator&#45;&gt;ragger.backend -->
<g id="edge63" class="edge">
<title>ragger.navigator.navigator&#45;&gt;ragger.backend</title>
<path fill="none" stroke="black" d="M1325.94,-468.12C1308.84,-477.4 1287.52,-488.97 1269.18,-498.92"/>
<polygon fill="black" stroke="black" points="1260.18,-503.81 1266.82,-495.09 1264.57,-501.43 1268.97,-499.04 1268.97,-499.04 1268.97,-499.04 1264.57,-501.43 1271.11,-503 1260.18,-503.81 1260.18,-503.81"/>
</g>
<!-- ragger.navigator.navigator&#45;&gt;ragger.navigator.instruction -->
<g id="edge64" class="edge">
<title>ragger.navigator.navigator&#45;&gt;ragger.navigator.instruction</title>
<path fill="none" stroke="black" d="M1253.84,-451.92C1131.48,-457.6 926.25,-481.92 780.5,-576 669.31,-647.78 593.49,-794.63 565.98,-854.6"/>
<polygon fill="black" stroke="black" points="561.83,-863.78 561.84,-852.82 563.89,-859.23 565.95,-854.67 565.95,-854.67 565.95,-854.67 563.89,-859.23 570.05,-856.52 561.83,-863.78 561.83,-863.78"/>
</g>
<!-- ragger.navigator.navigator&#45;&gt;ragger.utils -->
<g id="edge65" class="edge">
<title>ragger.navigator.navigator&#45;&gt;ragger.utils</title>
<path fill="none" stroke="black" d="M1461.21,-452.71C1560.56,-460.5 1695.5,-490.05 1695.5,-593 1695.5,-593 1695.5,-593 1695.5,-667 1695.5,-733.6 1486.04,-779.97 1380.2,-799.14"/>
<polygon fill="black" stroke="black" points="1370.3,-800.91 1379.35,-794.72 1375.22,-800.03 1380.14,-799.15 1380.14,-799.15 1380.14,-799.15 1375.22,-800.03 1380.93,-803.58 1370.3,-800.91 1370.3,-800.91"/>
</g>
<!-- ragger.navigator.touch_navigator&#45;&gt;ragger.backend -->
<g id="edge66" class="edge">
<title>ragger.navigator.touch_navigator&#45;&gt;ragger.backend</title>
<path fill="none" stroke="black" d="M1053.5,-180.05C1053.5,-206.71 1053.5,-259.89 1053.5,-305 1053.5,-305 1053.5,-305 1053.5,-379 1053.5,-439.22 1116.76,-478.36 1167.21,-500"/>
<polygon fill="black" stroke="black" points="1176.47,-503.84 1165.51,-504.16 1171.85,-501.92 1167.23,-500 1167.23,-500 1167.23,-500 1171.85,-501.92 1168.95,-495.85 1176.47,-503.84 1176.47,-503.84"/>
</g>
<!-- ragger.navigator.touch_navigator&#45;&gt;ragger.firmware.touch -->
<g id="edge67" class="edge">
<title>ragger.navigator.touch_navigator&#45;&gt;ragger.firmware.touch</title>
<path fill="none" stroke="black" d="M1015.83,-180.12C994.87,-189.65 968.6,-201.59 946.32,-211.72"/>
<polygon fill="black" stroke="black" points="937.05,-215.93 944.29,-207.7 941.6,-213.86 946.15,-211.79 946.15,-211.79 946.15,-211.79 941.6,-213.86 948.02,-215.89 937.05,-215.93 937.05,-215.93"/>
</g>
<!-- ragger.navigator.touch_navigator&#45;&gt;ragger.navigator.instruction -->
<g id="edge68" class="edge">
<title>ragger.navigator.touch_navigator&#45;&gt;ragger.navigator.instruction</title>
<path fill="none" stroke="black" d="M926.32,-165.86C740.72,-173.55 417.5,-201.76 417.5,-305 417.5,-305 417.5,-305 417.5,-739 417.5,-793.46 470.33,-835.04 510.38,-858.74"/>
<polygon fill="black" stroke="black" points="519.22,-863.81 508.31,-862.74 514.88,-861.32 510.54,-858.83 510.54,-858.83 510.54,-858.83 514.88,-861.32 512.78,-854.93 519.22,-863.81 519.22,-863.81"/>
</g>
<!-- ragger.navigator.touch_navigator&#45;&gt;ragger.navigator.navigator -->
<g id="edge69" class="edge">
<title>ragger.navigator.touch_navigator&#45;&gt;ragger.navigator.navigator</title>
<path fill="none" stroke="black" d="M1095.95,-180.04C1159.34,-207.78 1277.76,-268.92 1338.5,-360 1350.72,-378.33 1355.27,-403.09 1356.87,-421.84"/>
<polygon fill="black" stroke="black" points="1357.5,-431.82 1352.38,-422.13 1357.19,-426.83 1356.87,-421.84 1356.87,-421.84 1356.87,-421.84 1357.19,-426.83 1361.36,-421.56 1357.5,-431.82 1357.5,-431.82"/>
</g>
<!-- ragger.utils&#45;&gt;ragger.utils.misc -->
<g id="edge70" class="edge">
<title>ragger.utils&#45;&gt;ragger.utils.misc</title>
<path fill="none" stroke="black" d="M1369.66,-828.03C1398,-837.86 1433.82,-850.27 1463.66,-860.61"/>
<polygon fill="black" stroke="black" points="1473.12,-863.89 1462.2,-864.87 1468.4,-862.25 1463.67,-860.61 1463.67,-860.61 1463.67,-860.61 1468.4,-862.25 1465.15,-856.36 1473.12,-863.89 1473.12,-863.89"/>
</g>
<!-- ragger.utils.packing -->
<g id="node37" class="node">
<title>ragger.utils.packing</title>
<polygon fill="#ffaabb" stroke="#ffaabb" points="1398,-900 1239,-900 1239,-864 1398,-864 1398,-900"/>
<text text-anchor="middle" x="1318.5" y="-878.3" font-family="Times,serif" font-size="14.00">ragger.utils.packing</text>
</g>
<!-- ragger.utils&#45;&gt;ragger.utils.packing -->
<g id="edge71" class="edge">
<title>ragger.utils&#45;&gt;ragger.utils.packing</title>
<path fill="none" stroke="black" d="M1320.01,-828.3C1319.79,-836.02 1319.52,-845.29 1319.27,-853.89"/>
<polygon fill="black" stroke="black" points="1318.99,-863.9 1314.78,-853.77 1319.13,-858.9 1319.27,-853.9 1319.27,-853.9 1319.27,-853.9 1319.13,-858.9 1323.77,-854.03 1318.99,-863.9 1318.99,-863.9"/>
</g>
<!-- ragger.utils&#45;&gt;ragger.utils.structs -->
<g id="edge72" class="edge">
<title>ragger.utils&#45;&gt;ragger.utils.structs</title>
<path fill="none" stroke="black" d="M1277.2,-828.12C1252.79,-837.78 1222.1,-849.91 1196.29,-860.12"/>
<polygon fill="black" stroke="black" points="1186.66,-863.93 1194.3,-856.07 1191.31,-862.09 1195.96,-860.25 1195.96,-860.25 1195.96,-860.25 1191.31,-862.09 1197.61,-864.44 1186.66,-863.93 1186.66,-863.93"/>
</g>
<!-- ragger.utils.misc&#45;&gt;ragger.error -->
<g id="edge73" class="edge">
<title>ragger.utils.misc&#45;&gt;ragger.error</title>
<path fill="none" stroke="black" d="M1546.48,-900.3C1558.81,-909.2 1574.02,-920.18 1587.35,-929.8"/>
<polygon fill="black" stroke="black" points="1595.8,-935.9 1585.06,-933.69 1591.74,-932.97 1587.69,-930.04 1587.69,-930.04 1587.69,-930.04 1591.74,-932.97 1590.32,-926.39 1595.8,-935.9 1595.8,-935.9"/>
</g>
</g>
</svg>
