<?xml version="1.0" encoding="UTF-8" standalone="no"?>
<!DOCTYPE svg PUBLIC "-//W3C//DTD SVG 1.1//EN"
 "http://www.w3.org/Graphics/SVG/1.1/DTD/svg11.dtd">
<!-- Generated by graphviz version 2.43.0 (0)
 -->
<!-- Title: packages_generated_ragger_architecture Pages: 1 -->
<svg width="2371pt" height="836pt"
 viewBox="0.00 0.00 2370.50 836.00" xmlns="http://www.w3.org/2000/svg" xmlns:xlink="http://www.w3.org/1999/xlink">
<g id="graph0" class="graph" transform="scale(1 1) rotate(0) translate(4 832)">
<title>packages_generated_ragger_architecture</title>
<polygon fill="white" stroke="transparent" points="-4,4 -4,-832 2366.5,-832 2366.5,4 -4,4"/>
<!-- ragger -->
<g id="node1" class="node">
<title>ragger</title>
<polygon fill="aliceblue" stroke="aliceblue" points="113,-612 48,-612 48,-576 113,-576 113,-612"/>
<text text-anchor="middle" x="80.5" y="-590.3" font-family="Times,serif" font-size="14.00">ragger</text>
</g>
<!-- ragger.logger -->
<g id="node23" class="node">
<title>ragger.logger</title>
<polygon fill="aliceblue" stroke="aliceblue" points="113,-684 0,-684 0,-648 113,-648 113,-684"/>
<text text-anchor="middle" x="56.5" y="-662.3" font-family="Times,serif" font-size="14.00">ragger.logger</text>
</g>
<!-- ragger&#45;&gt;ragger.logger -->
<g id="edge1" class="edge">
<title>ragger&#45;&gt;ragger.logger</title>
<path fill="none" stroke="black" d="M74.57,-612.3C71.89,-620.1 68.67,-629.49 65.7,-638.17"/>
<polygon fill="black" stroke="black" points="62.36,-647.9 61.35,-636.98 63.99,-643.17 65.61,-638.44 65.61,-638.44 65.61,-638.44 63.99,-643.17 69.86,-639.9 62.36,-647.9 62.36,-647.9"/>
</g>
<!-- ragger.backend -->
<g id="node2" class="node">
<title>ragger.backend</title>
<polygon fill="antiquewhite" stroke="antiquewhite" points="957,-468 830,-468 830,-432 957,-432 957,-468"/>
<text text-anchor="middle" x="893.5" y="-446.3" font-family="Times,serif" font-size="14.00">ragger.backend</text>
</g>
<!-- ragger.backend.interface -->
<g id="node3" class="node">
<title>ragger.backend.interface</title>
<polygon fill="antiquewhite" stroke="antiquewhite" points="733,-612 538,-612 538,-576 733,-576 733,-612"/>
<text text-anchor="middle" x="635.5" y="-590.3" font-family="Times,serif" font-size="14.00">ragger.backend.interface</text>
</g>
<!-- ragger.backend&#45;&gt;ragger.backend.interface -->
<g id="edge2" class="edge">
<title>ragger.backend&#45;&gt;ragger.backend.interface</title>
<path fill="none" stroke="black" d="M829.74,-456.49C788.32,-462.7 734.9,-475.9 695.5,-504 673.34,-519.81 656.93,-546.56 646.93,-566.61"/>
<polygon fill="black" stroke="black" points="642.53,-575.84 642.77,-564.88 644.68,-571.33 646.83,-566.82 646.83,-566.82 646.83,-566.82 644.68,-571.33 650.89,-568.75 642.53,-575.84 642.53,-575.84"/>
</g>
<!-- ragger.backend.ledgercomm -->
<g id="node4" class="node">
<title>ragger.backend.ledgercomm</title>
<polygon fill="antiquewhite" stroke="antiquewhite" points="924.5,-540 704.5,-540 704.5,-504 924.5,-504 924.5,-540"/>
<text text-anchor="middle" x="814.5" y="-518.3" font-family="Times,serif" font-size="14.00">ragger.backend.ledgercomm</text>
</g>
<!-- ragger.backend&#45;&gt;ragger.backend.ledgercomm -->
<g id="edge3" class="edge">
<title>ragger.backend&#45;&gt;ragger.backend.ledgercomm</title>
<path fill="none" stroke="black" d="M873.97,-468.3C864.12,-477.03 852.01,-487.76 841.3,-497.25"/>
<polygon fill="black" stroke="black" points="833.8,-503.9 838.3,-493.9 837.55,-500.58 841.29,-497.26 841.29,-497.26 841.29,-497.26 837.55,-500.58 844.27,-500.63 833.8,-503.9 833.8,-503.9"/>
</g>
<!-- ragger.backend.ledgerwallet -->
<g id="node5" class="node">
<title>ragger.backend.ledgerwallet</title>
<polygon fill="antiquewhite" stroke="antiquewhite" points="648,-540 427,-540 427,-504 648,-504 648,-540"/>
<text text-anchor="middle" x="537.5" y="-518.3" font-family="Times,serif" font-size="14.00">ragger.backend.ledgerwallet</text>
</g>
<!-- ragger.backend&#45;&gt;ragger.backend.ledgerwallet -->
<g id="edge4" class="edge">
<title>ragger.backend&#45;&gt;ragger.backend.ledgerwallet</title>
<path fill="none" stroke="black" d="M829.85,-463.51C775.37,-474.23 696.1,-489.82 633.84,-502.06"/>
<polygon fill="black" stroke="black" points="624,-503.99 632.94,-497.65 628.91,-503.03 633.81,-502.06 633.81,-502.06 633.81,-502.06 628.91,-503.03 634.68,-506.48 624,-503.99 624,-503.99"/>
</g>
<!-- ragger.backend.speculos -->
<g id="node6" class="node">
<title>ragger.backend.speculos</title>
<polygon fill="antiquewhite" stroke="antiquewhite" points="1154,-540 961,-540 961,-504 1154,-504 1154,-540"/>
<text text-anchor="middle" x="1057.5" y="-518.3" font-family="Times,serif" font-size="14.00">ragger.backend.speculos</text>
</g>
<!-- ragger.backend&#45;&gt;ragger.backend.speculos -->
<g id="edge5" class="edge">
<title>ragger.backend&#45;&gt;ragger.backend.speculos</title>
<path fill="none" stroke="black" d="M933.62,-468.12C956.14,-477.74 984.42,-489.81 1008.27,-499.99"/>
<polygon fill="black" stroke="black" points="1017.51,-503.93 1006.55,-504.14 1012.91,-501.97 1008.31,-500.01 1008.31,-500.01 1008.31,-500.01 1012.91,-501.97 1010.08,-495.87 1017.51,-503.93 1017.51,-503.93"/>
</g>
<!-- ragger.backend.stub -->
<g id="node7" class="node">
<title>ragger.backend.stub</title>
<polygon fill="antiquewhite" stroke="antiquewhite" points="409,-540 246,-540 246,-504 409,-504 409,-540"/>
<text text-anchor="middle" x="327.5" y="-518.3" font-family="Times,serif" font-size="14.00">ragger.backend.stub</text>
</g>
<!-- ragger.backend&#45;&gt;ragger.backend.stub -->
<g id="edge6" class="edge">
<title>ragger.backend&#45;&gt;ragger.backend.stub</title>
<path fill="none" stroke="black" d="M829.78,-456.55C740.25,-464.68 571.92,-481.24 419.39,-503.77"/>
<polygon fill="black" stroke="black" points="409.37,-505.26 418.6,-499.34 414.32,-504.53 419.26,-503.79 419.26,-503.79 419.26,-503.79 414.32,-504.53 419.93,-508.24 409.37,-505.26 409.37,-505.26"/>
</g>
<!-- ragger.firmware -->
<g id="node15" class="node">
<title>ragger.firmware</title>
<polygon fill="cadetblue" stroke="cadetblue" points="1324.5,-684 1192.5,-684 1192.5,-648 1324.5,-648 1324.5,-684"/>
<text text-anchor="middle" x="1258.5" y="-662.3" font-family="Times,serif" font-size="14.00">ragger.firmware</text>
</g>
<!-- ragger.backend.interface&#45;&gt;ragger.firmware -->
<g id="edge7" class="edge">
<title>ragger.backend.interface&#45;&gt;ragger.firmware</title>
<path fill="none" stroke="black" d="M733.09,-606.62C748.61,-608.44 764.49,-610.28 779.5,-612 921.66,-628.26 1087.65,-646.45 1182.19,-656.73"/>
<polygon fill="black" stroke="black" points="1192.23,-657.82 1181.81,-661.22 1187.26,-657.28 1182.29,-656.74 1182.29,-656.74 1182.29,-656.74 1187.26,-657.28 1182.78,-652.27 1192.23,-657.82 1192.23,-657.82"/>
</g>
<!-- ragger.backend.interface&#45;&gt;ragger.logger -->
<g id="edge8" class="edge">
<title>ragger.backend.interface&#45;&gt;ragger.logger</title>
<path fill="none" stroke="black" d="M537.94,-606.8C420.16,-621.03 225.24,-644.6 123.3,-656.92"/>
<polygon fill="black" stroke="black" points="113.14,-658.15 122.52,-652.49 118.1,-657.55 123.06,-656.95 123.06,-656.95 123.06,-656.95 118.1,-657.55 123.6,-661.42 113.14,-658.15 113.14,-658.15"/>
</g>
<!-- ragger.utils -->
<g id="node28" class="node">
<title>ragger.utils</title>
<polygon fill="chocolate" stroke="chocolate" points="560,-684 461,-684 461,-648 560,-648 560,-684"/>
<text text-anchor="middle" x="510.5" y="-662.3" font-family="Times,serif" font-size="14.00">ragger.utils</text>
</g>
<!-- ragger.backend.interface&#45;&gt;ragger.utils -->
<g id="edge9" class="edge">
<title>ragger.backend.interface&#45;&gt;ragger.utils</title>
<path fill="none" stroke="black" d="M604.92,-612.12C588.43,-621.36 567.88,-632.87 550.16,-642.79"/>
<polygon fill="black" stroke="black" points="541.2,-647.81 547.72,-639 545.56,-645.37 549.92,-642.92 549.92,-642.92 549.92,-642.92 545.56,-645.37 552.12,-646.85 541.2,-647.81 541.2,-647.81"/>
</g>
<!-- ragger.backend.ledgercomm&#45;&gt;ragger.backend.interface -->
<g id="edge10" class="edge">
<title>ragger.backend.ledgercomm&#45;&gt;ragger.backend.interface</title>
<path fill="none" stroke="black" d="M770.71,-540.12C745.92,-549.82 714.72,-562.02 688.54,-572.26"/>
<polygon fill="black" stroke="black" points="679.15,-575.93 686.82,-568.1 683.8,-574.11 688.46,-572.29 688.46,-572.29 688.46,-572.29 683.8,-574.11 690.1,-576.48 679.15,-575.93 679.15,-575.93"/>
</g>
<!-- ragger.backend.ledgercomm&#45;&gt;ragger.backend.ledgercomm -->
<g id="edge11" class="edge">
<title>ragger.backend.ledgercomm&#45;&gt;ragger.backend.ledgercomm</title>
<path fill="none" stroke="black" d="M924.65,-510.99C935.56,-513.2 942.5,-516.87 942.5,-522 942.5,-525.37 939.51,-528.11 934.37,-530.21"/>
<polygon fill="black" stroke="black" points="924.65,-533.01 933.02,-525.92 929.46,-531.63 934.26,-530.25 934.26,-530.25 934.26,-530.25 929.46,-531.63 935.51,-534.57 924.65,-533.01 924.65,-533.01"/>
</g>
<!-- ragger.error -->
<g id="node14" class="node">
<title>ragger.error</title>
<polygon fill="aliceblue" stroke="aliceblue" points="892.5,-612 788.5,-612 788.5,-576 892.5,-576 892.5,-612"/>
<text text-anchor="middle" x="840.5" y="-590.3" font-family="Times,serif" font-size="14.00">ragger.error</text>
</g>
<!-- ragger.backend.ledgercomm&#45;&gt;ragger.error -->
<g id="edge12" class="edge">
<title>ragger.backend.ledgercomm&#45;&gt;ragger.error</title>
<path fill="none" stroke="black" d="M820.93,-540.3C823.86,-548.19 827.39,-557.7 830.64,-566.45"/>
<polygon fill="black" stroke="black" points="834.15,-575.9 826.45,-568.09 832.41,-571.21 830.67,-566.52 830.67,-566.52 830.67,-566.52 832.41,-571.21 834.88,-564.95 834.15,-575.9 834.15,-575.9"/>
</g>
<!-- ragger.backend.ledgercomm&#45;&gt;ragger.firmware -->
<g id="edge13" class="edge">
<title>ragger.backend.ledgercomm&#45;&gt;ragger.firmware</title>
<path fill="none" stroke="black" d="M868.06,-540.13C950.42,-566.47 1107.84,-616.81 1195.54,-644.86"/>
<polygon fill="black" stroke="black" points="1205.1,-647.92 1194.2,-649.16 1200.34,-646.4 1195.57,-644.88 1195.57,-644.88 1195.57,-644.88 1200.34,-646.4 1196.95,-640.59 1205.1,-647.92 1205.1,-647.92"/>
</g>
<!-- ragger.backend.ledgercomm&#45;&gt;ragger.utils -->
<g id="edge14" class="edge">
<title>ragger.backend.ledgercomm&#45;&gt;ragger.utils</title>
<path fill="none" stroke="black" d="M802.51,-540.14C786.01,-563.26 756.62,-602.63 741.5,-612 689.42,-644.27 619.77,-656.93 570.61,-661.88"/>
<polygon fill="black" stroke="black" points="560.44,-662.82 569.99,-657.41 565.42,-662.36 570.4,-661.9 570.4,-661.9 570.4,-661.9 565.42,-662.36 570.82,-666.38 560.44,-662.82 560.44,-662.82"/>
</g>
<!-- ragger.backend.ledgerwallet&#45;&gt;ragger.backend.interface -->
<g id="edge15" class="edge">
<title>ragger.backend.ledgerwallet&#45;&gt;ragger.backend.interface</title>
<path fill="none" stroke="black" d="M561.47,-540.12C574.05,-549.11 589.63,-560.24 603.25,-569.97"/>
<polygon fill="black" stroke="black" points="611.43,-575.81 600.68,-573.66 607.37,-572.9 603.3,-570 603.3,-570 603.3,-570 607.37,-572.9 605.91,-566.34 611.43,-575.81 611.43,-575.81"/>
</g>
<!-- ragger.backend.ledgerwallet&#45;&gt;ragger.error -->
<g id="edge16" class="edge">
<title>ragger.backend.ledgerwallet&#45;&gt;ragger.error</title>
<path fill="none" stroke="black" d="M611.23,-540.03C662.42,-551.86 729.86,-567.44 778.33,-578.64"/>
<polygon fill="black" stroke="black" points="788.37,-580.96 777.61,-583.09 783.5,-579.83 778.63,-578.71 778.63,-578.71 778.63,-578.71 783.5,-579.83 779.64,-574.32 788.37,-580.96 788.37,-580.96"/>
</g>
<!-- ragger.backend.ledgerwallet&#45;&gt;ragger.utils -->
<g id="edge17" class="edge">
<title>ragger.backend.ledgerwallet&#45;&gt;ragger.utils</title>
<path fill="none" stroke="black" d="M534.24,-540.13C529.64,-564.33 521.19,-608.79 515.71,-637.61"/>
<polygon fill="black" stroke="black" points="513.77,-647.81 511.22,-637.15 514.7,-642.9 515.64,-637.99 515.64,-637.99 515.64,-637.99 514.7,-642.9 520.06,-638.83 513.77,-647.81 513.77,-647.81"/>
</g>
<!-- ragger.backend.speculos&#45;&gt;ragger.backend.interface -->
<g id="edge18" class="edge">
<title>ragger.backend.speculos&#45;&gt;ragger.backend.interface</title>
<path fill="none" stroke="black" d="M960.95,-539.02C896.04,-549.78 810.4,-563.99 743.27,-575.12"/>
<polygon fill="black" stroke="black" points="733.08,-576.81 742.21,-570.74 738.01,-576 742.95,-575.18 742.95,-575.18 742.95,-575.18 738.01,-576 743.68,-579.62 733.08,-576.81 733.08,-576.81"/>
</g>
<!-- ragger.backend.speculos&#45;&gt;ragger.error -->
<g id="edge19" class="edge">
<title>ragger.backend.speculos&#45;&gt;ragger.error</title>
<path fill="none" stroke="black" d="M1004.69,-540.03C973.88,-549.97 934.85,-562.56 902.57,-572.98"/>
<polygon fill="black" stroke="black" points="892.79,-576.13 900.93,-568.78 897.55,-574.6 902.31,-573.06 902.31,-573.06 902.31,-573.06 897.55,-574.6 903.69,-577.34 892.79,-576.13 892.79,-576.13"/>
</g>
<!-- ragger.backend.speculos&#45;&gt;ragger.firmware -->
<g id="edge20" class="edge">
<title>ragger.backend.speculos&#45;&gt;ragger.firmware</title>
<path fill="none" stroke="black" d="M1077.29,-540.31C1098.98,-558.94 1135.16,-588.99 1168.5,-612 1184.22,-622.85 1202.24,-633.74 1218.01,-642.81"/>
<polygon fill="black" stroke="black" points="1226.99,-647.92 1216.08,-646.89 1222.65,-645.45 1218.3,-642.97 1218.3,-642.97 1218.3,-642.97 1222.65,-645.45 1220.53,-639.06 1226.99,-647.92 1226.99,-647.92"/>
</g>
<!-- ragger.backend.speculos&#45;&gt;ragger.utils -->
<g id="edge21" class="edge">
<title>ragger.backend.speculos&#45;&gt;ragger.utils</title>
<path fill="none" stroke="black" d="M1034.29,-540.08C1004.95,-560.73 952.15,-594.84 901.5,-612 788.49,-650.28 648.26,-661 570.16,-663.95"/>
<polygon fill="black" stroke="black" points="560.02,-664.3 569.86,-659.46 565.02,-664.13 570.02,-663.95 570.02,-663.95 570.02,-663.95 565.02,-664.13 570.17,-668.45 560.02,-664.3 560.02,-664.3"/>
</g>
<!-- ragger.backend.stub&#45;&gt;ragger.backend.interface -->
<g id="edge22" class="edge">
<title>ragger.backend.stub&#45;&gt;ragger.backend.interface</title>
<path fill="none" stroke="black" d="M402.45,-540.03C447.16,-550.2 504.06,-563.13 550.45,-573.67"/>
<polygon fill="black" stroke="black" points="560.48,-575.95 549.73,-578.12 555.6,-574.84 550.73,-573.73 550.73,-573.73 550.73,-573.73 555.6,-574.84 551.73,-569.35 560.48,-575.95 560.48,-575.95"/>
</g>
<!-- ragger.utils.structs -->
<g id="node31" class="node">
<title>ragger.utils.structs</title>
<polygon fill="chocolate" stroke="chocolate" points="273.5,-756 119.5,-756 119.5,-720 273.5,-720 273.5,-756"/>
<text text-anchor="middle" x="196.5" y="-734.3" font-family="Times,serif" font-size="14.00">ragger.utils.structs</text>
</g>
<!-- ragger.backend.stub&#45;&gt;ragger.utils.structs -->
<g id="edge23" class="edge">
<title>ragger.backend.stub&#45;&gt;ragger.utils.structs</title>
<path fill="none" stroke="black" d="M317,-540.15C294.1,-577.56 239.55,-666.68 212.4,-711.02"/>
<polygon fill="black" stroke="black" points="207.05,-719.77 208.43,-708.89 209.66,-715.5 212.27,-711.24 212.27,-711.24 212.27,-711.24 209.66,-715.5 216.11,-713.59 207.05,-719.77 207.05,-719.77"/>
</g>
<!-- ragger.bip -->
<g id="node8" class="node">
<title>ragger.bip</title>
<polygon fill="aquamarine" stroke="aquamarine" points="1976.5,-36 1886.5,-36 1886.5,0 1976.5,0 1976.5,-36"/>
<text text-anchor="middle" x="1931.5" y="-14.3" font-family="Times,serif" font-size="14.00">ragger.bip</text>
</g>
<!-- ragger.bip.path -->
<g id="node9" class="node">
<title>ragger.bip.path</title>
<polygon fill="aquamarine" stroke="aquamarine" points="1922,-108 1795,-108 1795,-72 1922,-72 1922,-108"/>
<text text-anchor="middle" x="1858.5" y="-86.3" font-family="Times,serif" font-size="14.00">ragger.bip.path</text>
</g>
<!-- ragger.bip&#45;&gt;ragger.bip.path -->
<g id="edge24" class="edge">
<title>ragger.bip&#45;&gt;ragger.bip.path</title>
<path fill="none" stroke="black" d="M1913.46,-36.3C1904.44,-44.95 1893.38,-55.55 1883.56,-64.97"/>
<polygon fill="black" stroke="black" points="1876.34,-71.9 1880.44,-61.73 1879.95,-68.44 1883.56,-64.97 1883.56,-64.97 1883.56,-64.97 1879.95,-68.44 1886.67,-68.22 1876.34,-71.9 1876.34,-71.9"/>
</g>
<!-- ragger.bip.seed -->
<g id="node10" class="node">
<title>ragger.bip.seed</title>
<polygon fill="aquamarine" stroke="aquamarine" points="2068.5,-108 1940.5,-108 1940.5,-72 2068.5,-72 2068.5,-108"/>
<text text-anchor="middle" x="2004.5" y="-86.3" font-family="Times,serif" font-size="14.00">ragger.bip.seed</text>
</g>
<!-- ragger.bip&#45;&gt;ragger.bip.seed -->
<g id="edge25" class="edge">
<title>ragger.bip&#45;&gt;ragger.bip.seed</title>
<path fill="none" stroke="black" d="M1949.54,-36.3C1958.56,-44.95 1969.62,-55.55 1979.44,-64.97"/>
<polygon fill="black" stroke="black" points="1986.66,-71.9 1976.33,-68.22 1983.05,-68.44 1979.44,-64.97 1979.44,-64.97 1979.44,-64.97 1983.05,-68.44 1982.56,-61.73 1986.66,-71.9 1986.66,-71.9"/>
</g>
<!-- ragger.conftest -->
<g id="node11" class="node">
<title>ragger.conftest</title>
<polygon fill="burlywood" stroke="burlywood" points="2120,-36 1995,-36 1995,0 2120,0 2120,-36"/>
<text text-anchor="middle" x="2057.5" y="-14.3" font-family="Times,serif" font-size="14.00">ragger.conftest</text>
</g>
<!-- ragger.conftest.base_conftest -->
<g id="node12" class="node">
<title>ragger.conftest.base_conftest</title>
<polygon fill="burlywood" stroke="burlywood" points="809,-36 582,-36 582,0 809,0 809,-36"/>
<text text-anchor="middle" x="695.5" y="-14.3" font-family="Times,serif" font-size="14.00">ragger.conftest.base_conftest</text>
</g>
<!-- ragger.conftest.base_conftest&#45;&gt;ragger.backend -->
<g id="edge26" class="edge">
<title>ragger.conftest.base_conftest&#45;&gt;ragger.backend</title>
<path fill="none" stroke="black" d="M695.5,-36.05C695.5,-62.71 695.5,-115.89 695.5,-161 695.5,-161 695.5,-161 695.5,-307 695.5,-347.45 687.03,-366.31 714.5,-396 741.36,-425.03 783.29,-438.43 819.81,-444.5"/>
<polygon fill="black" stroke="black" points="829.95,-446.02 819.39,-448.98 825.01,-445.28 820.06,-444.53 820.06,-444.53 820.06,-444.53 825.01,-445.28 820.73,-440.08 829.95,-446.02 829.95,-446.02"/>
</g>
<!-- ragger.conftest.base_conftest&#45;&gt;ragger.firmware -->
<g id="edge27" class="edge">
<title>ragger.conftest.base_conftest&#45;&gt;ragger.firmware</title>
<path fill="none" stroke="black" d="M809.1,-22.32C1084.74,-31.89 1766.5,-65.22 1766.5,-161 1766.5,-161 1766.5,-161 1766.5,-523 1766.5,-586.23 1713.64,-587.13 1655.5,-612 1599.39,-636.01 1433.57,-652.01 1334.87,-659.7"/>
<polygon fill="black" stroke="black" points="1324.66,-660.48 1334.28,-655.23 1329.64,-660.1 1334.63,-659.72 1334.63,-659.72 1334.63,-659.72 1329.64,-660.1 1334.97,-664.2 1324.66,-660.48 1324.66,-660.48"/>
</g>
<!-- ragger.conftest.base_conftest&#45;&gt;ragger.logger -->
<g id="edge28" class="edge">
<title>ragger.conftest.base_conftest&#45;&gt;ragger.logger</title>
<path fill="none" stroke="black" d="M581.97,-19.77C389.42,-24.19 19.5,-47.45 19.5,-161 19.5,-161 19.5,-161 19.5,-523 19.5,-564.29 34.33,-610.23 45.22,-638.37"/>
<polygon fill="black" stroke="black" points="49.01,-647.89 41.13,-640.26 47.16,-643.24 45.31,-638.6 45.31,-638.6 45.31,-638.6 47.16,-643.24 49.49,-636.93 49.01,-647.89 49.01,-647.89"/>
</g>
<!-- ragger.navigator -->
<g id="node24" class="node">
<title>ragger.navigator</title>
<polygon fill="chartreuse" stroke="chartreuse" points="990.5,-108 854.5,-108 854.5,-72 990.5,-72 990.5,-108"/>
<text text-anchor="middle" x="922.5" y="-86.3" font-family="Times,serif" font-size="14.00">ragger.navigator</text>
</g>
<!-- ragger.conftest.base_conftest&#45;&gt;ragger.navigator -->
<g id="edge29" class="edge">
<title>ragger.conftest.base_conftest&#45;&gt;ragger.navigator</title>
<path fill="none" stroke="black" d="M750.74,-36.03C782.87,-45.94 823.55,-58.49 857.25,-68.88"/>
<polygon fill="black" stroke="black" points="867.01,-71.89 856.13,-73.24 862.23,-70.42 857.46,-68.94 857.46,-68.94 857.46,-68.94 862.23,-70.42 858.78,-64.64 867.01,-71.89 867.01,-71.89"/>
</g>
<!-- ragger.conftest.base_conftest&#45;&gt;ragger.utils -->
<g id="edge30" class="edge">
<title>ragger.conftest.base_conftest&#45;&gt;ragger.utils</title>
<path fill="none" stroke="black" d="M581.94,-27.39C430.02,-41.8 179.5,-78.13 179.5,-161 179.5,-161 179.5,-161 179.5,-523 179.5,-639.74 355.55,-661.73 450.86,-665.08"/>
<polygon fill="black" stroke="black" points="460.95,-665.38 450.82,-669.58 455.95,-665.23 450.95,-665.08 450.95,-665.08 450.95,-665.08 455.95,-665.23 451.08,-660.59 460.95,-665.38 460.95,-665.38"/>
</g>
<!-- ragger.conftest.configuration -->
<g id="node13" class="node">
<title>ragger.conftest.configuration</title>
<polygon fill="burlywood" stroke="burlywood" points="2362.5,-36 2138.5,-36 2138.5,0 2362.5,0 2362.5,-36"/>
<text text-anchor="middle" x="2250.5" y="-14.3" font-family="Times,serif" font-size="14.00">ragger.conftest.configuration</text>
</g>
<!-- ragger.firmware.structs -->
<g id="node21" class="node">
<title>ragger.firmware.structs</title>
<polygon fill="cadetblue" stroke="cadetblue" points="1352,-756 1165,-756 1165,-720 1352,-720 1352,-756"/>
<text text-anchor="middle" x="1258.5" y="-734.3" font-family="Times,serif" font-size="14.00">ragger.firmware.structs</text>
</g>
<!-- ragger.firmware&#45;&gt;ragger.firmware.structs -->
<g id="edge31" class="edge">
<title>ragger.firmware&#45;&gt;ragger.firmware.structs</title>
<path fill="none" stroke="black" d="M1258.5,-684.3C1258.5,-692.02 1258.5,-701.29 1258.5,-709.89"/>
<polygon fill="black" stroke="black" points="1258.5,-719.9 1254,-709.9 1258.5,-714.9 1258.5,-709.9 1258.5,-709.9 1258.5,-709.9 1258.5,-714.9 1263,-709.9 1258.5,-719.9 1258.5,-719.9"/>
</g>
<!-- ragger.firmware.versions -->
<g id="node22" class="node">
<title>ragger.firmware.versions</title>
<polygon fill="cadetblue" stroke="cadetblue" points="1478,-828 1281,-828 1281,-792 1478,-792 1478,-828"/>
<text text-anchor="middle" x="1379.5" y="-806.3" font-family="Times,serif" font-size="14.00">ragger.firmware.versions</text>
</g>
<!-- ragger.firmware&#45;&gt;ragger.firmware.versions -->
<g id="edge32" class="edge">
<title>ragger.firmware&#45;&gt;ragger.firmware.versions</title>
<path fill="none" stroke="black" d="M1311.7,-684C1329.65,-692.22 1348.23,-703.89 1360.5,-720 1373.93,-737.63 1378.35,-762.65 1379.59,-781.68"/>
<polygon fill="black" stroke="black" points="1380,-791.82 1375.1,-782.01 1379.8,-786.82 1379.6,-781.83 1379.6,-781.83 1379.6,-781.83 1379.8,-786.82 1384.1,-781.65 1380,-791.82 1380,-791.82"/>
</g>
<!-- ragger.firmware.stax -->
<g id="node16" class="node">
<title>ragger.firmware.stax</title>
<polygon fill="cadetblue" stroke="cadetblue" points="1402,-252 1235,-252 1235,-216 1402,-216 1402,-252"/>
<text text-anchor="middle" x="1318.5" y="-230.3" font-family="Times,serif" font-size="14.00">ragger.firmware.stax</text>
</g>
<!-- ragger.firmware.stax.screen -->
<g id="node19" class="node">
<title>ragger.firmware.stax.screen</title>
<polygon fill="cadetblue" stroke="cadetblue" points="1446.5,-324 1228.5,-324 1228.5,-288 1446.5,-288 1446.5,-324"/>
<text text-anchor="middle" x="1337.5" y="-302.3" font-family="Times,serif" font-size="14.00">ragger.firmware.stax.screen</text>
</g>
<!-- ragger.firmware.stax&#45;&gt;ragger.firmware.stax.screen -->
<g id="edge33" class="edge">
<title>ragger.firmware.stax&#45;&gt;ragger.firmware.stax.screen</title>
<path fill="none" stroke="black" d="M1323.2,-252.3C1325.31,-260.1 1327.86,-269.49 1330.22,-278.17"/>
<polygon fill="black" stroke="black" points="1332.86,-287.9 1325.89,-279.42 1331.55,-283.07 1330.24,-278.24 1330.24,-278.24 1330.24,-278.24 1331.55,-283.07 1334.58,-277.07 1332.86,-287.9 1332.86,-287.9"/>
</g>
<!-- ragger.firmware.stax.layouts -->
<g id="node17" class="node">
<title>ragger.firmware.stax.layouts</title>
<polygon fill="cadetblue" stroke="cadetblue" points="1700,-396 1477,-396 1477,-360 1700,-360 1700,-396"/>
<text text-anchor="middle" x="1588.5" y="-374.3" font-family="Times,serif" font-size="14.00">ragger.firmware.stax.layouts</text>
</g>
<!-- ragger.firmware.stax.layouts&#45;&gt;ragger.backend -->
<g id="edge34" class="edge">
<title>ragger.firmware.stax.layouts&#45;&gt;ragger.backend</title>
<path fill="none" stroke="black" d="M1476.78,-394.89C1473.65,-395.27 1470.56,-395.64 1467.5,-396 1288.38,-416.84 1077.04,-434.6 967.58,-443.29"/>
<polygon fill="black" stroke="black" points="957.31,-444.1 966.92,-438.83 962.29,-443.71 967.28,-443.32 967.28,-443.32 967.28,-443.32 962.29,-443.71 967.63,-447.8 957.31,-444.1 957.31,-444.1"/>
</g>
<!-- ragger.firmware.stax.layouts&#45;&gt;ragger.firmware -->
<g id="edge35" class="edge">
<title>ragger.firmware.stax.layouts&#45;&gt;ragger.firmware</title>
<path fill="none" stroke="black" d="M1588.66,-396.29C1588.03,-415.44 1584.49,-446.48 1569.5,-468 1506.89,-557.92 1388.66,-615.75 1317.39,-644.15"/>
<polygon fill="black" stroke="black" points="1307.66,-647.96 1315.33,-640.12 1312.31,-646.14 1316.97,-644.31 1316.97,-644.31 1316.97,-644.31 1312.31,-646.14 1318.61,-648.51 1307.66,-647.96 1307.66,-647.96"/>
</g>
<!-- ragger.firmware.stax.positions -->
<g id="node18" class="node">
<title>ragger.firmware.stax.positions</title>
<polygon fill="cadetblue" stroke="cadetblue" points="1560.5,-468 1324.5,-468 1324.5,-432 1560.5,-432 1560.5,-468"/>
<text text-anchor="middle" x="1442.5" y="-446.3" font-family="Times,serif" font-size="14.00">ragger.firmware.stax.positions</text>
</g>
<!-- ragger.firmware.stax.layouts&#45;&gt;ragger.firmware.stax.positions -->
<g id="edge36" class="edge">
<title>ragger.firmware.stax.layouts&#45;&gt;ragger.firmware.stax.positions</title>
<path fill="none" stroke="black" d="M1552.78,-396.12C1533,-405.61 1508.23,-417.49 1487.17,-427.58"/>
<polygon fill="black" stroke="black" points="1478.1,-431.93 1485.17,-423.55 1482.61,-429.77 1487.12,-427.61 1487.12,-427.61 1487.12,-427.61 1482.61,-429.77 1489.06,-431.67 1478.1,-431.93 1478.1,-431.93"/>
</g>
<!-- ragger.firmware.stax.positions&#45;&gt;ragger.firmware.versions -->
<g id="edge37" class="edge">
<title>ragger.firmware.stax.positions&#45;&gt;ragger.firmware.versions</title>
<path fill="none" stroke="black" d="M1440.13,-468.01C1436.63,-494.62 1430.5,-547.72 1430.5,-593 1430.5,-593 1430.5,-593 1430.5,-667 1430.5,-709.41 1410.1,-754.98 1395.1,-782.74"/>
<polygon fill="black" stroke="black" points="1390.07,-791.79 1391,-780.86 1392.5,-787.42 1394.93,-783.05 1394.93,-783.05 1394.93,-783.05 1392.5,-787.42 1398.86,-785.24 1390.07,-791.79 1390.07,-791.79"/>
</g>
<!-- ragger.firmware.stax.screen&#45;&gt;ragger.backend -->
<g id="edge38" class="edge">
<title>ragger.firmware.stax.screen&#45;&gt;ragger.backend</title>
<path fill="none" stroke="black" d="M1292.87,-324.14C1243.32,-342.89 1160.77,-373.3 1088.5,-396 1048.73,-408.49 1003.86,-420.81 967.2,-430.42"/>
<polygon fill="black" stroke="black" points="957.09,-433.05 965.63,-426.18 961.93,-431.79 966.77,-430.53 966.77,-430.53 966.77,-430.53 961.93,-431.79 967.91,-434.88 957.09,-433.05 957.09,-433.05"/>
</g>
<!-- ragger.firmware.stax.screen&#45;&gt;ragger.firmware -->
<g id="edge39" class="edge">
<title>ragger.firmware.stax.screen&#45;&gt;ragger.firmware</title>
<path fill="none" stroke="black" d="M1446.96,-309.22C1542.44,-313.49 1671.34,-325.67 1708.5,-360 1738.28,-387.51 1728.5,-408.46 1728.5,-449 1728.5,-449 1728.5,-449 1728.5,-523 1728.5,-604.21 1468.14,-643.19 1334.98,-657.82"/>
<polygon fill="black" stroke="black" points="1324.84,-658.92 1334.3,-653.37 1329.81,-658.38 1334.78,-657.84 1334.78,-657.84 1334.78,-657.84 1329.81,-658.38 1335.27,-662.32 1324.84,-658.92 1324.84,-658.92"/>
</g>
<!-- ragger.firmware.stax.screen&#45;&gt;ragger.firmware.stax.layouts -->
<g id="edge40" class="edge">
<title>ragger.firmware.stax.screen&#45;&gt;ragger.firmware.stax.layouts</title>
<path fill="none" stroke="black" d="M1398.58,-324.03C1434.41,-334.03 1479.86,-346.7 1517.31,-357.15"/>
<polygon fill="black" stroke="black" points="1527.15,-359.89 1516.3,-361.54 1522.33,-358.55 1517.51,-357.2 1517.51,-357.2 1517.51,-357.2 1522.33,-358.55 1518.72,-352.87 1527.15,-359.89 1527.15,-359.89"/>
</g>
<!-- ragger.firmware.stax.use_cases -->
<g id="node20" class="node">
<title>ragger.firmware.stax.use_cases</title>
<polygon fill="cadetblue" stroke="cadetblue" points="1458.5,-396 1216.5,-396 1216.5,-360 1458.5,-360 1458.5,-396"/>
<text text-anchor="middle" x="1337.5" y="-374.3" font-family="Times,serif" font-size="14.00">ragger.firmware.stax.use_cases</text>
</g>
<!-- ragger.firmware.stax.screen&#45;&gt;ragger.firmware.stax.use_cases -->
<g id="edge41" class="edge">
<title>ragger.firmware.stax.screen&#45;&gt;ragger.firmware.stax.use_cases</title>
<path fill="none" stroke="black" d="M1337.5,-324.3C1337.5,-332.02 1337.5,-341.29 1337.5,-349.89"/>
<polygon fill="black" stroke="black" points="1337.5,-359.9 1333,-349.9 1337.5,-354.9 1337.5,-349.9 1337.5,-349.9 1337.5,-349.9 1337.5,-354.9 1342,-349.9 1337.5,-359.9 1337.5,-359.9"/>
</g>
<!-- ragger.firmware.stax.use_cases&#45;&gt;ragger.backend -->
<g id="edge42" class="edge">
<title>ragger.firmware.stax.use_cases&#45;&gt;ragger.backend</title>
<path fill="none" stroke="black" d="M1229.45,-396.03C1148.23,-408.84 1039.08,-426.05 967.55,-437.33"/>
<polygon fill="black" stroke="black" points="957.27,-438.95 966.45,-432.94 962.21,-438.17 967.15,-437.39 967.15,-437.39 967.15,-437.39 962.21,-438.17 967.85,-441.83 957.27,-438.95 957.27,-438.95"/>
</g>
<!-- ragger.firmware.stax.use_cases&#45;&gt;ragger.firmware -->
<g id="edge43" class="edge">
<title>ragger.firmware.stax.use_cases&#45;&gt;ragger.firmware</title>
<path fill="none" stroke="black" d="M1329.45,-396.4C1324.94,-406.62 1319.44,-419.87 1315.5,-432 1290.1,-510.23 1292.56,-532.23 1272.5,-612 1270.38,-620.44 1267.99,-629.61 1265.79,-637.91"/>
<polygon fill="black" stroke="black" points="1263.14,-647.84 1261.37,-637.02 1264.43,-643.01 1265.72,-638.18 1265.72,-638.18 1265.72,-638.18 1264.43,-643.01 1270.07,-639.34 1263.14,-647.84 1263.14,-647.84"/>
</g>
<!-- ragger.firmware.stax.use_cases&#45;&gt;ragger.firmware.stax.positions -->
<g id="edge44" class="edge">
<title>ragger.firmware.stax.use_cases&#45;&gt;ragger.firmware.stax.positions</title>
<path fill="none" stroke="black" d="M1363.19,-396.12C1376.79,-405.19 1393.67,-416.45 1408.36,-426.24"/>
<polygon fill="black" stroke="black" points="1416.72,-431.81 1405.9,-430.01 1412.56,-429.04 1408.39,-426.26 1408.39,-426.26 1408.39,-426.26 1412.56,-429.04 1410.89,-422.52 1416.72,-431.81 1416.72,-431.81"/>
</g>
<!-- ragger.firmware.structs&#45;&gt;ragger.firmware.versions -->
<g id="edge45" class="edge">
<title>ragger.firmware.structs&#45;&gt;ragger.firmware.versions</title>
<path fill="none" stroke="black" d="M1288.1,-756.12C1304.07,-765.36 1323.96,-776.87 1341.11,-786.79"/>
<polygon fill="black" stroke="black" points="1349.79,-791.81 1338.88,-790.7 1345.46,-789.31 1341.13,-786.8 1341.13,-786.8 1341.13,-786.8 1345.46,-789.31 1343.38,-782.91 1349.79,-791.81 1349.79,-791.81"/>
</g>
<!-- ragger.navigator.nano_navigator -->
<g id="node25" class="node">
<title>ragger.navigator.nano_navigator</title>
<polygon fill="chartreuse" stroke="chartreuse" points="1046.5,-324 798.5,-324 798.5,-288 1046.5,-288 1046.5,-324"/>
<text text-anchor="middle" x="922.5" y="-302.3" font-family="Times,serif" font-size="14.00">ragger.navigator.nano_navigator</text>
</g>
<!-- ragger.navigator&#45;&gt;ragger.navigator.nano_navigator -->
<g id="edge46" class="edge">
<title>ragger.navigator&#45;&gt;ragger.navigator.nano_navigator</title>
<path fill="none" stroke="black" d="M922.5,-108.15C922.5,-145.17 922.5,-232.82 922.5,-277.61"/>
<polygon fill="black" stroke="black" points="922.5,-287.77 918,-277.77 922.5,-282.77 922.5,-277.77 922.5,-277.77 922.5,-277.77 922.5,-282.77 927,-277.77 922.5,-287.77 922.5,-287.77"/>
</g>
<!-- ragger.navigator.navigator -->
<g id="node26" class="node">
<title>ragger.navigator.navigator</title>
<polygon fill="chartreuse" stroke="chartreuse" points="931,-396 724,-396 724,-360 931,-360 931,-396"/>
<text text-anchor="middle" x="827.5" y="-374.3" font-family="Times,serif" font-size="14.00">ragger.navigator.navigator</text>
</g>
<!-- ragger.navigator&#45;&gt;ragger.navigator.navigator -->
<g id="edge47" class="edge">
<title>ragger.navigator&#45;&gt;ragger.navigator.navigator</title>
<path fill="none" stroke="black" d="M905.59,-108.07C875.25,-140.07 812.56,-212.63 789.5,-288 784.82,-303.3 784.6,-308.77 789.5,-324 792.69,-333.92 798.5,-343.56 804.63,-351.83"/>
<polygon fill="black" stroke="black" points="811.04,-359.92 801.3,-354.88 807.93,-356 804.82,-352.08 804.82,-352.08 804.82,-352.08 807.93,-356 808.35,-349.29 811.04,-359.92 811.04,-359.92"/>
</g>
<!-- ragger.navigator.stax_navigator -->
<g id="node27" class="node">
<title>ragger.navigator.stax_navigator</title>
<polygon fill="chartreuse" stroke="chartreuse" points="1196.5,-180 952.5,-180 952.5,-144 1196.5,-144 1196.5,-180"/>
<text text-anchor="middle" x="1074.5" y="-158.3" font-family="Times,serif" font-size="14.00">ragger.navigator.stax_navigator</text>
</g>
<!-- ragger.navigator&#45;&gt;ragger.navigator.stax_navigator -->
<g id="edge48" class="edge">
<title>ragger.navigator&#45;&gt;ragger.navigator.stax_navigator</title>
<path fill="none" stroke="black" d="M953.79,-108.12C973.56,-117.69 999.52,-129.7 1022.32,-139.85"/>
<polygon fill="black" stroke="black" points="1031.55,-143.93 1020.58,-144 1026.97,-141.91 1022.4,-139.89 1022.4,-139.89 1022.4,-139.89 1026.97,-141.91 1024.22,-135.77 1031.55,-143.93 1031.55,-143.93"/>
</g>
<!-- ragger.navigator.nano_navigator&#45;&gt;ragger.backend -->
<g id="edge49" class="edge">
<title>ragger.navigator.nano_navigator&#45;&gt;ragger.backend</title>
<path fill="none" stroke="black" d="M931.15,-324.19C939.13,-342.47 948.47,-371.98 939.5,-396 935.62,-406.38 928.7,-416.07 921.38,-424.26"/>
<polygon fill="black" stroke="black" points="914.32,-431.62 917.99,-421.28 917.78,-428.01 921.24,-424.4 921.24,-424.4 921.24,-424.4 917.78,-428.01 924.49,-427.51 914.32,-431.62 914.32,-431.62"/>
</g>
<!-- ragger.navigator.nano_navigator&#45;&gt;ragger.firmware -->
<g id="edge50" class="edge">
<title>ragger.navigator.nano_navigator&#45;&gt;ragger.firmware</title>
<path fill="none" stroke="black" d="M956.52,-324.18C1012.05,-353.79 1122.49,-419.48 1187.5,-504 1219.57,-545.69 1240.62,-604.14 1250.97,-637.94"/>
<polygon fill="black" stroke="black" points="1253.83,-647.59 1246.67,-639.28 1252.41,-642.79 1250.98,-638 1250.98,-638 1250.98,-638 1252.41,-642.79 1255.3,-636.72 1253.83,-647.59 1253.83,-647.59"/>
</g>
<!-- ragger.navigator.nano_navigator&#45;&gt;ragger.navigator.navigator -->
<g id="edge51" class="edge">
<title>ragger.navigator.nano_navigator&#45;&gt;ragger.navigator.navigator</title>
<path fill="none" stroke="black" d="M899.02,-324.3C886.94,-333.2 872.05,-344.18 858.98,-353.8"/>
<polygon fill="black" stroke="black" points="850.71,-359.9 856.09,-350.34 854.74,-356.93 858.76,-353.96 858.76,-353.96 858.76,-353.96 854.74,-356.93 861.43,-357.59 850.71,-359.9 850.71,-359.9"/>
</g>
<!-- ragger.navigator.navigator&#45;&gt;ragger.backend -->
<g id="edge52" class="edge">
<title>ragger.navigator.navigator&#45;&gt;ragger.backend</title>
<path fill="none" stroke="black" d="M843.81,-396.3C851.81,-404.78 861.57,-415.14 870.32,-424.42"/>
<polygon fill="black" stroke="black" points="877.37,-431.9 867.24,-427.71 873.94,-428.26 870.51,-424.62 870.51,-424.62 870.51,-424.62 873.94,-428.26 873.79,-421.53 877.37,-431.9 877.37,-431.9"/>
</g>
<!-- ragger.navigator.navigator&#45;&gt;ragger.firmware -->
<g id="edge53" class="edge">
<title>ragger.navigator.navigator&#45;&gt;ragger.firmware</title>
<path fill="none" stroke="black" d="M931.16,-395.02C1004.11,-411.19 1099.58,-442.93 1162.5,-504 1199.69,-540.1 1178.04,-568.68 1206.5,-612 1213.29,-622.33 1222.29,-632.36 1230.89,-640.86"/>
<polygon fill="black" stroke="black" points="1238.28,-647.91 1227.94,-644.27 1234.66,-644.46 1231.05,-641.01 1231.05,-641.01 1231.05,-641.01 1234.66,-644.46 1234.15,-637.75 1238.28,-647.91 1238.28,-647.91"/>
</g>
<!-- ragger.navigator.navigator&#45;&gt;ragger.utils -->
<g id="edge54" class="edge">
<title>ragger.navigator.navigator&#45;&gt;ragger.utils</title>
<path fill="none" stroke="black" d="M723.91,-385.64C571.08,-397.83 296.72,-429.71 236.5,-504 170.75,-585.11 351.95,-634.29 450.92,-654.41"/>
<polygon fill="black" stroke="black" points="460.81,-656.39 450.12,-658.84 455.91,-655.41 451,-654.43 451,-654.43 451,-654.43 455.91,-655.41 451.88,-650.02 460.81,-656.39 460.81,-656.39"/>
</g>
<!-- ragger.navigator.stax_navigator&#45;&gt;ragger.backend -->
<g id="edge55" class="edge">
<title>ragger.navigator.stax_navigator&#45;&gt;ragger.backend</title>
<path fill="none" stroke="black" d="M1076.62,-180.31C1079.56,-211.32 1081.86,-277.47 1055.5,-324 1028.83,-371.07 976.56,-406.37 938.59,-427.25"/>
<polygon fill="black" stroke="black" points="929.75,-431.99 936.43,-423.3 934.16,-429.63 938.56,-427.27 938.56,-427.27 938.56,-427.27 934.16,-429.63 940.69,-431.23 929.75,-431.99 929.75,-431.99"/>
</g>
<!-- ragger.navigator.stax_navigator&#45;&gt;ragger.firmware -->
<g id="edge56" class="edge">
<title>ragger.navigator.stax_navigator&#45;&gt;ragger.firmware</title>
<path fill="none" stroke="black" d="M1083.31,-180.19C1111.43,-235.82 1199.83,-416.6 1244.5,-576 1250.19,-596.3 1253.77,-619.9 1255.88,-637.69"/>
<polygon fill="black" stroke="black" points="1256.99,-647.68 1251.42,-638.24 1256.44,-642.71 1255.89,-637.74 1255.89,-637.74 1255.89,-637.74 1256.44,-642.71 1260.36,-637.25 1256.99,-647.68 1256.99,-647.68"/>
</g>
<!-- ragger.navigator.stax_navigator&#45;&gt;ragger.firmware.stax -->
<g id="edge57" class="edge">
<title>ragger.navigator.stax_navigator&#45;&gt;ragger.firmware.stax</title>
<path fill="none" stroke="black" d="M1133.88,-180.03C1168.56,-189.99 1212.51,-202.59 1248.83,-213.01"/>
<polygon fill="black" stroke="black" points="1258.86,-215.89 1248,-217.46 1254.05,-214.51 1249.24,-213.13 1249.24,-213.13 1249.24,-213.13 1254.05,-214.51 1250.49,-208.81 1258.86,-215.89 1258.86,-215.89"/>
</g>
<!-- ragger.navigator.stax_navigator&#45;&gt;ragger.navigator -->
<g id="edge58" class="edge">
<title>ragger.navigator.stax_navigator&#45;&gt;ragger.navigator</title>
<path fill="none" stroke="black" d="M1043.33,-143.93C1023.57,-134.37 997.63,-122.37 974.81,-112.21"/>
<polygon fill="black" stroke="black" points="965.58,-108.12 976.55,-108.05 970.15,-110.15 974.73,-112.17 974.73,-112.17 974.73,-112.17 970.15,-110.15 972.91,-116.28 965.58,-108.12 965.58,-108.12"/>
</g>
<!-- ragger.utils.misc -->
<g id="node29" class="node">
<title>ragger.utils.misc</title>
<polygon fill="chocolate" stroke="chocolate" points="690,-756 553,-756 553,-720 690,-720 690,-756"/>
<text text-anchor="middle" x="621.5" y="-734.3" font-family="Times,serif" font-size="14.00">ragger.utils.misc</text>
</g>
<!-- ragger.utils&#45;&gt;ragger.utils.misc -->
<g id="edge59" class="edge">
<title>ragger.utils&#45;&gt;ragger.utils.misc</title>
<path fill="none" stroke="black" d="M537.65,-684.12C552.03,-693.19 569.88,-704.45 585.41,-714.24"/>
<polygon fill="black" stroke="black" points="594.24,-719.81 583.38,-718.28 590.01,-717.14 585.78,-714.48 585.78,-714.48 585.78,-714.48 590.01,-717.14 588.18,-710.67 594.24,-719.81 594.24,-719.81"/>
</g>
<!-- ragger.utils.packing -->
<g id="node30" class="node">
<title>ragger.utils.packing</title>
<polygon fill="chocolate" stroke="chocolate" points="535,-756 376,-756 376,-720 535,-720 535,-756"/>
<text text-anchor="middle" x="455.5" y="-734.3" font-family="Times,serif" font-size="14.00">ragger.utils.packing</text>
</g>
<!-- ragger.utils&#45;&gt;ragger.utils.packing -->
<g id="edge60" class="edge">
<title>ragger.utils&#45;&gt;ragger.utils.packing</title>
<path fill="none" stroke="black" d="M496.9,-684.3C490.38,-692.61 482.43,-702.72 475.25,-711.86"/>
<polygon fill="black" stroke="black" points="468.94,-719.9 471.58,-709.25 472.03,-715.96 475.12,-712.03 475.12,-712.03 475.12,-712.03 472.03,-715.96 478.66,-714.81 468.94,-719.9 468.94,-719.9"/>
</g>
<!-- ragger.utils&#45;&gt;ragger.utils.structs -->
<g id="edge61" class="edge">
<title>ragger.utils&#45;&gt;ragger.utils.structs</title>
<path fill="none" stroke="black" d="M460.75,-678.09C413.01,-688.73 339.94,-705.02 282.73,-717.78"/>
<polygon fill="black" stroke="black" points="272.97,-719.95 281.75,-713.38 277.85,-718.87 282.73,-717.78 282.73,-717.78 282.73,-717.78 277.85,-718.87 283.71,-722.17 272.97,-719.95 272.97,-719.95"/>
</g>
</g>
</svg>
