<?xml version="1.0" encoding="UTF-8" standalone="no"?>
<!DOCTYPE svg PUBLIC "-//W3C//DTD SVG 1.1//EN"
 "http://www.w3.org/Graphics/SVG/1.1/DTD/svg11.dtd">
<!-- Generated by graphviz version 2.43.0 (0)
 -->
<!-- Title: packages_generated_ragger_architecture Pages: 1 -->
<svg width="1343pt" height="764pt"
 viewBox="0.00 0.00 1343.14 764.00" xmlns="http://www.w3.org/2000/svg" xmlns:xlink="http://www.w3.org/1999/xlink">
<g id="graph0" class="graph" transform="scale(1 1) rotate(0) translate(4 760)">
<title>packages_generated_ragger_architecture</title>
<polygon fill="white" stroke="transparent" points="-4,4 -4,-760 1339.14,-760 1339.14,4 -4,4"/>
<!-- ragger -->
<g id="node1" class="node">
<title>ragger</title>
<polygon fill="aliceblue" stroke="aliceblue" points="79.64,-540 14.64,-540 14.64,-504 79.64,-504 79.64,-540"/>
<text text-anchor="middle" x="47.14" y="-518.3" font-family="Times,serif" font-size="14.00">ragger</text>
</g>
<!-- ragger.logger -->
<g id="node19" class="node">
<title>ragger.logger</title>
<polygon fill="aliceblue" stroke="aliceblue" points="197.64,-612 84.64,-612 84.64,-576 197.64,-576 197.64,-612"/>
<text text-anchor="middle" x="141.14" y="-590.3" font-family="Times,serif" font-size="14.00">ragger.logger</text>
</g>
<!-- ragger&#45;&gt;ragger.logger -->
<g id="edge1" class="edge">
<title>ragger&#45;&gt;ragger.logger</title>
<path fill="none" stroke="black" d="M70.38,-540.3C82.33,-549.2 97.06,-560.18 109.99,-569.8"/>
<polygon fill="black" stroke="black" points="118.17,-575.9 107.46,-573.53 114.16,-572.91 110.15,-569.92 110.15,-569.92 110.15,-569.92 114.16,-572.91 112.84,-566.31 118.17,-575.9 118.17,-575.9"/>
</g>
<!-- ragger.backend -->
<g id="node2" class="node">
<title>ragger.backend</title>
<polygon fill="antiquewhite" stroke="antiquewhite" points="705.64,-396 578.64,-396 578.64,-360 705.64,-360 705.64,-396"/>
<text text-anchor="middle" x="642.14" y="-374.3" font-family="Times,serif" font-size="14.00">ragger.backend</text>
</g>
<!-- ragger.backend.interface -->
<g id="node3" class="node">
<title>ragger.backend.interface</title>
<polygon fill="antiquewhite" stroke="antiquewhite" points="645.64,-540 450.64,-540 450.64,-504 645.64,-504 645.64,-540"/>
<text text-anchor="middle" x="548.14" y="-518.3" font-family="Times,serif" font-size="14.00">ragger.backend.interface</text>
</g>
<!-- ragger.backend&#45;&gt;ragger.backend.interface -->
<g id="edge2" class="edge">
<title>ragger.backend&#45;&gt;ragger.backend.interface</title>
<path fill="none" stroke="black" d="M607.36,-396.06C592.83,-404.87 577.06,-416.96 567.14,-432 555.07,-450.3 550.5,-474.91 548.85,-493.62"/>
<polygon fill="black" stroke="black" points="548.18,-503.85 544.34,-493.58 548.51,-498.86 548.84,-493.87 548.84,-493.87 548.84,-493.87 548.51,-498.86 553.33,-494.17 548.18,-503.85 548.18,-503.85"/>
</g>
<!-- ragger.backend.ledgercomm -->
<g id="node4" class="node">
<title>ragger.backend.ledgercomm</title>
<polygon fill="antiquewhite" stroke="antiquewhite" points="1036.14,-468 816.14,-468 816.14,-432 1036.14,-432 1036.14,-468"/>
<text text-anchor="middle" x="926.14" y="-446.3" font-family="Times,serif" font-size="14.00">ragger.backend.ledgercomm</text>
</g>
<!-- ragger.backend&#45;&gt;ragger.backend.ledgercomm -->
<g id="edge3" class="edge">
<title>ragger.backend&#45;&gt;ragger.backend.ledgercomm</title>
<path fill="none" stroke="black" d="M705.88,-394.71C747.69,-405.01 802.66,-418.57 847.23,-429.55"/>
<polygon fill="black" stroke="black" points="857.16,-432 846.37,-433.97 852.3,-430.8 847.45,-429.6 847.45,-429.6 847.45,-429.6 852.3,-430.8 848.52,-425.23 857.16,-432 857.16,-432"/>
</g>
<!-- ragger.backend.ledgerwallet -->
<g id="node5" class="node">
<title>ragger.backend.ledgerwallet</title>
<polygon fill="antiquewhite" stroke="antiquewhite" points="797.64,-468 576.64,-468 576.64,-432 797.64,-432 797.64,-468"/>
<text text-anchor="middle" x="687.14" y="-446.3" font-family="Times,serif" font-size="14.00">ragger.backend.ledgerwallet</text>
</g>
<!-- ragger.backend&#45;&gt;ragger.backend.ledgerwallet -->
<g id="edge4" class="edge">
<title>ragger.backend&#45;&gt;ragger.backend.ledgerwallet</title>
<path fill="none" stroke="black" d="M653.26,-396.3C658.5,-404.44 664.84,-414.31 670.62,-423.3"/>
<polygon fill="black" stroke="black" points="676.15,-431.9 666.95,-425.92 673.44,-427.69 670.74,-423.48 670.74,-423.48 670.74,-423.48 673.44,-427.69 674.52,-421.05 676.15,-431.9 676.15,-431.9"/>
</g>
<!-- ragger.backend.speculos -->
<g id="node6" class="node">
<title>ragger.backend.speculos</title>
<polygon fill="antiquewhite" stroke="antiquewhite" points="519.64,-468 326.64,-468 326.64,-432 519.64,-432 519.64,-468"/>
<text text-anchor="middle" x="423.14" y="-446.3" font-family="Times,serif" font-size="14.00">ragger.backend.speculos</text>
</g>
<!-- ragger.backend&#45;&gt;ragger.backend.speculos -->
<g id="edge5" class="edge">
<title>ragger.backend&#45;&gt;ragger.backend.speculos</title>
<path fill="none" stroke="black" d="M588.85,-396.03C557.98,-405.9 518.94,-418.38 486.51,-428.75"/>
<polygon fill="black" stroke="black" points="476.67,-431.89 484.83,-424.56 481.44,-430.37 486.2,-428.84 486.2,-428.84 486.2,-428.84 481.44,-430.37 487.57,-433.13 476.67,-431.89 476.67,-431.89"/>
</g>
<!-- ragger.firmware -->
<g id="node11" class="node">
<title>ragger.firmware</title>
<polygon fill="burlywood" stroke="burlywood" points="396.14,-612 264.14,-612 264.14,-576 396.14,-576 396.14,-612"/>
<text text-anchor="middle" x="330.14" y="-590.3" font-family="Times,serif" font-size="14.00">ragger.firmware</text>
</g>
<!-- ragger.backend.interface&#45;&gt;ragger.firmware -->
<g id="edge6" class="edge">
<title>ragger.backend.interface&#45;&gt;ragger.firmware</title>
<path fill="none" stroke="black" d="M495.09,-540.03C464.37,-549.9 425.51,-562.38 393.22,-572.75"/>
<polygon fill="black" stroke="black" points="383.43,-575.89 391.57,-568.55 388.19,-574.36 392.95,-572.83 392.95,-572.83 392.95,-572.83 388.19,-574.36 394.33,-577.12 383.43,-575.89 383.43,-575.89"/>
</g>
<!-- ragger.backend.interface&#45;&gt;ragger.logger -->
<g id="edge7" class="edge">
<title>ragger.backend.interface&#45;&gt;ragger.logger</title>
<path fill="none" stroke="black" d="M450.4,-539.81C375.34,-552.72 273.71,-570.2 207.79,-581.54"/>
<polygon fill="black" stroke="black" points="197.92,-583.23 207.02,-577.1 202.85,-582.39 207.78,-581.54 207.78,-581.54 207.78,-581.54 202.85,-582.39 208.54,-585.97 197.92,-583.23 197.92,-583.23"/>
</g>
<!-- ragger.utils -->
<g id="node24" class="node">
<title>ragger.utils</title>
<polygon fill="chartreuse" stroke="chartreuse" points="883.64,-612 784.64,-612 784.64,-576 883.64,-576 883.64,-612"/>
<text text-anchor="middle" x="834.14" y="-590.3" font-family="Times,serif" font-size="14.00">ragger.utils</text>
</g>
<!-- ragger.backend.interface&#45;&gt;ragger.utils -->
<g id="edge8" class="edge">
<title>ragger.backend.interface&#45;&gt;ragger.utils</title>
<path fill="none" stroke="black" d="M617.74,-540.03C665.8,-551.8 729.04,-567.28 774.73,-578.46"/>
<polygon fill="black" stroke="black" points="784.49,-580.85 773.71,-582.84 779.64,-579.66 774.78,-578.47 774.78,-578.47 774.78,-578.47 779.64,-579.66 775.85,-574.1 784.49,-580.85 784.49,-580.85"/>
</g>
<!-- ragger.backend.ledgercomm&#45;&gt;ragger.backend.interface -->
<g id="edge9" class="edge">
<title>ragger.backend.ledgercomm&#45;&gt;ragger.backend.interface</title>
<path fill="none" stroke="black" d="M834.16,-468.03C778.6,-478.32 707.69,-491.45 650.38,-502.07"/>
<polygon fill="black" stroke="black" points="640.21,-503.95 649.22,-497.7 645.13,-503.04 650.04,-502.13 650.04,-502.13 650.04,-502.13 645.13,-503.04 650.86,-506.55 640.21,-503.95 640.21,-503.95"/>
</g>
<!-- ragger.backend.ledgercomm&#45;&gt;ragger.backend.ledgercomm -->
<g id="edge10" class="edge">
<title>ragger.backend.ledgercomm&#45;&gt;ragger.backend.ledgercomm</title>
<path fill="none" stroke="black" d="M1036.29,-438.99C1047.2,-441.2 1054.14,-444.87 1054.14,-450 1054.14,-453.37 1051.15,-456.11 1046.02,-458.21"/>
<polygon fill="black" stroke="black" points="1036.29,-461.01 1044.66,-453.92 1041.1,-459.63 1045.9,-458.25 1045.9,-458.25 1045.9,-458.25 1041.1,-459.63 1047.15,-462.57 1036.29,-461.01 1036.29,-461.01"/>
</g>
<!-- ragger.error -->
<g id="node10" class="node">
<title>ragger.error</title>
<polygon fill="aliceblue" stroke="aliceblue" points="768.14,-540 664.14,-540 664.14,-504 768.14,-504 768.14,-540"/>
<text text-anchor="middle" x="716.14" y="-518.3" font-family="Times,serif" font-size="14.00">ragger.error</text>
</g>
<!-- ragger.backend.ledgercomm&#45;&gt;ragger.error -->
<g id="edge11" class="edge">
<title>ragger.backend.ledgercomm&#45;&gt;ragger.error</title>
<path fill="none" stroke="black" d="M875.04,-468.03C845.57,-477.86 808.33,-490.27 777.31,-500.61"/>
<polygon fill="black" stroke="black" points="767.47,-503.89 775.54,-496.46 772.22,-502.31 776.96,-500.73 776.96,-500.73 776.96,-500.73 772.22,-502.31 778.38,-505 767.47,-503.89 767.47,-503.89"/>
</g>
<!-- ragger.backend.ledgercomm&#45;&gt;ragger.firmware -->
<g id="edge12" class="edge">
<title>ragger.backend.ledgercomm&#45;&gt;ragger.firmware</title>
<path fill="none" stroke="black" d="M904.39,-468.06C876.6,-488.86 826.2,-523.29 777.14,-540 652.13,-582.57 497.39,-592.03 406.63,-593.55"/>
<polygon fill="black" stroke="black" points="396.43,-593.69 406.37,-589.05 401.43,-593.62 406.43,-593.55 406.43,-593.55 406.43,-593.55 401.43,-593.62 406.49,-598.05 396.43,-593.69 396.43,-593.69"/>
</g>
<!-- ragger.backend.ledgercomm&#45;&gt;ragger.utils -->
<g id="edge13" class="edge">
<title>ragger.backend.ledgercomm&#45;&gt;ragger.utils</title>
<path fill="none" stroke="black" d="M915.04,-468.13C899.09,-492.76 869.54,-538.36 850.91,-567.12"/>
<polygon fill="black" stroke="black" points="845.28,-575.81 846.94,-564.97 848,-571.61 850.72,-567.42 850.72,-567.42 850.72,-567.42 848,-571.61 854.49,-569.87 845.28,-575.81 845.28,-575.81"/>
</g>
<!-- ragger.backend.ledgerwallet&#45;&gt;ragger.backend.interface -->
<g id="edge14" class="edge">
<title>ragger.backend.ledgerwallet&#45;&gt;ragger.backend.interface</title>
<path fill="none" stroke="black" d="M653.14,-468.12C634.54,-477.49 611.31,-489.19 591.44,-499.2"/>
<polygon fill="black" stroke="black" points="582.28,-503.81 589.18,-495.29 586.74,-501.56 591.21,-499.31 591.21,-499.31 591.21,-499.31 586.74,-501.56 593.23,-503.33 582.28,-503.81 582.28,-503.81"/>
</g>
<!-- ragger.backend.ledgerwallet&#45;&gt;ragger.error -->
<g id="edge15" class="edge">
<title>ragger.backend.ledgerwallet&#45;&gt;ragger.error</title>
<path fill="none" stroke="black" d="M694.31,-468.3C697.58,-476.19 701.52,-485.7 705.14,-494.45"/>
<polygon fill="black" stroke="black" points="709.06,-503.9 701.07,-496.38 707.14,-499.28 705.23,-494.66 705.23,-494.66 705.23,-494.66 707.14,-499.28 709.38,-492.93 709.06,-503.9 709.06,-503.9"/>
</g>
<!-- ragger.backend.ledgerwallet&#45;&gt;ragger.utils -->
<g id="edge16" class="edge">
<title>ragger.backend.ledgerwallet&#45;&gt;ragger.utils</title>
<path fill="none" stroke="black" d="M724.86,-468.12C742.09,-477.16 761.99,-489.41 777.14,-504 796.02,-522.19 811.58,-547.79 821.64,-566.87"/>
<polygon fill="black" stroke="black" points="826.27,-575.92 817.71,-569.06 823.99,-571.46 821.72,-567.01 821.72,-567.01 821.72,-567.01 823.99,-571.46 825.72,-564.96 826.27,-575.92 826.27,-575.92"/>
</g>
<!-- ragger.backend.speculos&#45;&gt;ragger.backend.interface -->
<g id="edge17" class="edge">
<title>ragger.backend.speculos&#45;&gt;ragger.backend.interface</title>
<path fill="none" stroke="black" d="M453.72,-468.12C470.21,-477.36 490.76,-488.87 508.48,-498.79"/>
<polygon fill="black" stroke="black" points="517.45,-503.81 506.52,-502.85 513.08,-501.37 508.72,-498.92 508.72,-498.92 508.72,-498.92 513.08,-501.37 510.92,-495 517.45,-503.81 517.45,-503.81"/>
</g>
<!-- ragger.backend.speculos&#45;&gt;ragger.error -->
<g id="edge18" class="edge">
<title>ragger.backend.speculos&#45;&gt;ragger.error</title>
<path fill="none" stroke="black" d="M501.13,-468.04C545.99,-478.05 603.37,-491.22 654.14,-504 654.24,-504.03 654.34,-504.05 654.45,-504.08"/>
<polygon fill="black" stroke="black" points="664.09,-506.56 653.28,-508.42 659.25,-505.31 654.4,-504.07 654.4,-504.07 654.4,-504.07 659.25,-505.31 655.52,-499.71 664.09,-506.56 664.09,-506.56"/>
</g>
<!-- ragger.backend.speculos&#45;&gt;ragger.firmware -->
<g id="edge19" class="edge">
<title>ragger.backend.speculos&#45;&gt;ragger.firmware</title>
<path fill="none" stroke="black" d="M411.92,-468.13C395.79,-492.76 365.92,-538.36 347.09,-567.12"/>
<polygon fill="black" stroke="black" points="341.4,-575.81 343.11,-564.98 344.14,-571.63 346.88,-567.45 346.88,-567.45 346.88,-567.45 344.14,-571.63 350.64,-569.91 341.4,-575.81 341.4,-575.81"/>
</g>
<!-- ragger.backend.speculos&#45;&gt;ragger.utils -->
<g id="edge20" class="edge">
<title>ragger.backend.speculos&#45;&gt;ragger.utils</title>
<path fill="none" stroke="black" d="M421.25,-468.18C420.06,-488.44 421.58,-521.68 441.14,-540 488.16,-584.03 676.42,-592.01 774.32,-593.12"/>
<polygon fill="black" stroke="black" points="784.36,-593.21 774.32,-597.62 779.36,-593.16 774.36,-593.12 774.36,-593.12 774.36,-593.12 779.36,-593.16 774.41,-588.62 784.36,-593.21 784.36,-593.21"/>
</g>
<!-- ragger.bip -->
<g id="node7" class="node">
<title>ragger.bip</title>
<polygon fill="aquamarine" stroke="aquamarine" points="1243.14,-36 1153.14,-36 1153.14,0 1243.14,0 1243.14,-36"/>
<text text-anchor="middle" x="1198.14" y="-14.3" font-family="Times,serif" font-size="14.00">ragger.bip</text>
</g>
<!-- ragger.bip.path -->
<g id="node8" class="node">
<title>ragger.bip.path</title>
<polygon fill="aquamarine" stroke="aquamarine" points="1188.64,-108 1061.64,-108 1061.64,-72 1188.64,-72 1188.64,-108"/>
<text text-anchor="middle" x="1125.14" y="-86.3" font-family="Times,serif" font-size="14.00">ragger.bip.path</text>
</g>
<!-- ragger.bip&#45;&gt;ragger.bip.path -->
<g id="edge21" class="edge">
<title>ragger.bip&#45;&gt;ragger.bip.path</title>
<path fill="none" stroke="black" d="M1180.1,-36.3C1171.08,-44.95 1160.02,-55.55 1150.2,-64.97"/>
<polygon fill="black" stroke="black" points="1142.98,-71.9 1147.08,-61.73 1146.59,-68.44 1150.2,-64.97 1150.2,-64.97 1150.2,-64.97 1146.59,-68.44 1153.31,-68.22 1142.98,-71.9 1142.98,-71.9"/>
</g>
<!-- ragger.bip.seed -->
<g id="node9" class="node">
<title>ragger.bip.seed</title>
<polygon fill="aquamarine" stroke="aquamarine" points="1335.14,-108 1207.14,-108 1207.14,-72 1335.14,-72 1335.14,-108"/>
<text text-anchor="middle" x="1271.14" y="-86.3" font-family="Times,serif" font-size="14.00">ragger.bip.seed</text>
</g>
<!-- ragger.bip&#45;&gt;ragger.bip.seed -->
<g id="edge22" class="edge">
<title>ragger.bip&#45;&gt;ragger.bip.seed</title>
<path fill="none" stroke="black" d="M1216.19,-36.3C1225.2,-44.95 1236.26,-55.55 1246.08,-64.97"/>
<polygon fill="black" stroke="black" points="1253.3,-71.9 1242.97,-68.22 1249.69,-68.44 1246.09,-64.97 1246.09,-64.97 1246.09,-64.97 1249.69,-68.44 1249.2,-61.73 1253.3,-71.9 1253.3,-71.9"/>
</g>
<!-- ragger.firmware.structs -->
<g id="node17" class="node">
<title>ragger.firmware.structs</title>
<polygon fill="burlywood" stroke="burlywood" points="423.64,-684 236.64,-684 236.64,-648 423.64,-648 423.64,-684"/>
<text text-anchor="middle" x="330.14" y="-662.3" font-family="Times,serif" font-size="14.00">ragger.firmware.structs</text>
</g>
<!-- ragger.firmware&#45;&gt;ragger.firmware.structs -->
<g id="edge23" class="edge">
<title>ragger.firmware&#45;&gt;ragger.firmware.structs</title>
<path fill="none" stroke="black" d="M330.14,-612.3C330.14,-620.02 330.14,-629.29 330.14,-637.89"/>
<polygon fill="black" stroke="black" points="330.14,-647.9 325.64,-637.9 330.14,-642.9 330.14,-637.9 330.14,-637.9 330.14,-637.9 330.14,-642.9 334.64,-637.9 330.14,-647.9 330.14,-647.9"/>
</g>
<!-- ragger.firmware.versions -->
<g id="node18" class="node">
<title>ragger.firmware.versions</title>
<polygon fill="burlywood" stroke="burlywood" points="307.64,-756 110.64,-756 110.64,-720 307.64,-720 307.64,-756"/>
<text text-anchor="middle" x="209.14" y="-734.3" font-family="Times,serif" font-size="14.00">ragger.firmware.versions</text>
</g>
<!-- ragger.firmware&#45;&gt;ragger.firmware.versions -->
<g id="edge24" class="edge">
<title>ragger.firmware&#45;&gt;ragger.firmware.versions</title>
<path fill="none" stroke="black" d="M275.8,-612.07C257.83,-620.25 239.33,-631.88 227.14,-648 213.8,-665.63 209.68,-690.66 208.67,-709.69"/>
<polygon fill="black" stroke="black" points="208.4,-719.82 204.17,-709.7 208.53,-714.82 208.67,-709.83 208.67,-709.83 208.67,-709.83 208.53,-714.82 213.17,-709.95 208.4,-719.82 208.4,-719.82"/>
</g>
<!-- ragger.firmware.stax -->
<g id="node12" class="node">
<title>ragger.firmware.stax</title>
<polygon fill="burlywood" stroke="burlywood" points="600.64,-180 433.64,-180 433.64,-144 600.64,-144 600.64,-180"/>
<text text-anchor="middle" x="517.14" y="-158.3" font-family="Times,serif" font-size="14.00">ragger.firmware.stax</text>
</g>
<!-- ragger.firmware.stax.screen -->
<g id="node15" class="node">
<title>ragger.firmware.stax.screen</title>
<polygon fill="burlywood" stroke="burlywood" points="592.14,-252 374.14,-252 374.14,-216 592.14,-216 592.14,-252"/>
<text text-anchor="middle" x="483.14" y="-230.3" font-family="Times,serif" font-size="14.00">ragger.firmware.stax.screen</text>
</g>
<!-- ragger.firmware.stax&#45;&gt;ragger.firmware.stax.screen -->
<g id="edge25" class="edge">
<title>ragger.firmware.stax&#45;&gt;ragger.firmware.stax.screen</title>
<path fill="none" stroke="black" d="M508.74,-180.3C504.87,-188.27 500.19,-197.9 495.9,-206.74"/>
<polygon fill="black" stroke="black" points="491.45,-215.9 491.77,-204.93 493.63,-211.4 495.82,-206.9 495.82,-206.9 495.82,-206.9 493.63,-211.4 499.87,-208.87 491.45,-215.9 491.45,-215.9"/>
</g>
<!-- ragger.firmware.stax.layouts -->
<g id="node13" class="node">
<title>ragger.firmware.stax.layouts</title>
<polygon fill="burlywood" stroke="burlywood" points="594.64,-324 371.64,-324 371.64,-288 594.64,-288 594.64,-324"/>
<text text-anchor="middle" x="483.14" y="-302.3" font-family="Times,serif" font-size="14.00">ragger.firmware.stax.layouts</text>
</g>
<!-- ragger.firmware.stax.layouts&#45;&gt;ragger.backend -->
<g id="edge26" class="edge">
<title>ragger.firmware.stax.layouts&#45;&gt;ragger.backend</title>
<path fill="none" stroke="black" d="M522.04,-324.12C543.77,-333.69 571.05,-345.7 594.11,-355.85"/>
<polygon fill="black" stroke="black" points="603.37,-359.93 592.41,-360.02 598.8,-357.92 594.22,-355.9 594.22,-355.9 594.22,-355.9 598.8,-357.92 596.03,-351.78 603.37,-359.93 603.37,-359.93"/>
</g>
<!-- ragger.firmware.stax.layouts&#45;&gt;ragger.firmware -->
<g id="edge27" class="edge">
<title>ragger.firmware.stax.layouts&#45;&gt;ragger.firmware</title>
<path fill="none" stroke="black" d="M457.96,-324.1C413.45,-354.59 324.83,-416.58 317.14,-432 295.59,-475.21 308.91,-533.13 319.94,-566.42"/>
<polygon fill="black" stroke="black" points="323.25,-575.92 315.71,-567.96 321.61,-571.2 319.96,-566.48 319.96,-566.48 319.96,-566.48 321.61,-571.2 324.21,-565 323.25,-575.92 323.25,-575.92"/>
</g>
<!-- ragger.firmware.stax.positions -->
<g id="node14" class="node">
<title>ragger.firmware.stax.positions</title>
<polygon fill="burlywood" stroke="burlywood" points="315.14,-396 79.14,-396 79.14,-360 315.14,-360 315.14,-396"/>
<text text-anchor="middle" x="197.14" y="-374.3" font-family="Times,serif" font-size="14.00">ragger.firmware.stax.positions</text>
</g>
<!-- ragger.firmware.stax.layouts&#45;&gt;ragger.firmware.stax.positions -->
<g id="edge28" class="edge">
<title>ragger.firmware.stax.layouts&#45;&gt;ragger.firmware.stax.positions</title>
<path fill="none" stroke="black" d="M413.54,-324.03C372.28,-334.13 319.83,-346.97 276.9,-357.48"/>
<polygon fill="black" stroke="black" points="267.05,-359.89 275.69,-353.14 271.91,-358.7 276.76,-357.51 276.76,-357.51 276.76,-357.51 271.91,-358.7 277.83,-361.88 267.05,-359.89 267.05,-359.89"/>
</g>
<!-- ragger.firmware.stax.positions&#45;&gt;ragger.firmware.versions -->
<g id="edge29" class="edge">
<title>ragger.firmware.stax.positions&#45;&gt;ragger.firmware.versions</title>
<path fill="none" stroke="black" d="M142.75,-396.07C76.45,-420.27 -23.45,-469.56 5.14,-540 37.64,-620.04 121.42,-682.91 170.92,-714.54"/>
<polygon fill="black" stroke="black" points="179.45,-719.9 168.59,-718.39 175.22,-717.24 170.98,-714.58 170.98,-714.58 170.98,-714.58 175.22,-717.24 173.38,-710.77 179.45,-719.9 179.45,-719.9"/>
</g>
<!-- ragger.firmware.stax.screen&#45;&gt;ragger.backend -->
<g id="edge30" class="edge">
<title>ragger.firmware.stax.screen&#45;&gt;ragger.backend</title>
<path fill="none" stroke="black" d="M544.6,-252.09C565.23,-260.26 587.06,-271.87 603.14,-288 620.1,-305.01 630.26,-330.64 635.94,-350.03"/>
<polygon fill="black" stroke="black" points="638.58,-359.79 631.62,-351.32 637.27,-354.97 635.97,-350.14 635.97,-350.14 635.97,-350.14 637.27,-354.97 640.31,-348.97 638.58,-359.79 638.58,-359.79"/>
</g>
<!-- ragger.firmware.stax.screen&#45;&gt;ragger.firmware -->
<g id="edge31" class="edge">
<title>ragger.firmware.stax.screen&#45;&gt;ragger.firmware</title>
<path fill="none" stroke="black" d="M418.61,-252.07C398.31,-260.14 377.27,-271.69 362.14,-288 327.53,-325.3 345.5,-349.82 324.14,-396 316.37,-412.81 307.98,-414.12 303.14,-432 290.61,-478.34 291.94,-493.33 303.14,-540 305.35,-549.19 309.43,-558.59 313.76,-566.87"/>
<polygon fill="black" stroke="black" points="318.67,-575.67 309.87,-569.13 316.24,-571.3 313.8,-566.94 313.8,-566.94 313.8,-566.94 316.24,-571.3 317.73,-564.74 318.67,-575.67 318.67,-575.67"/>
</g>
<!-- ragger.firmware.stax.screen&#45;&gt;ragger.firmware.stax.layouts -->
<g id="edge32" class="edge">
<title>ragger.firmware.stax.screen&#45;&gt;ragger.firmware.stax.layouts</title>
<path fill="none" stroke="black" d="M483.14,-252.3C483.14,-260.02 483.14,-269.29 483.14,-277.89"/>
<polygon fill="black" stroke="black" points="483.14,-287.9 478.64,-277.9 483.14,-282.9 483.14,-277.9 483.14,-277.9 483.14,-277.9 483.14,-282.9 487.64,-277.9 483.14,-287.9 483.14,-287.9"/>
</g>
<!-- ragger.firmware.stax.use_cases -->
<g id="node16" class="node">
<title>ragger.firmware.stax.use_cases</title>
<polygon fill="burlywood" stroke="burlywood" points="315.14,-324 73.14,-324 73.14,-288 315.14,-288 315.14,-324"/>
<text text-anchor="middle" x="194.14" y="-302.3" font-family="Times,serif" font-size="14.00">ragger.firmware.stax.use_cases</text>
</g>
<!-- ragger.firmware.stax.screen&#45;&gt;ragger.firmware.stax.use_cases -->
<g id="edge33" class="edge">
<title>ragger.firmware.stax.screen&#45;&gt;ragger.firmware.stax.use_cases</title>
<path fill="none" stroke="black" d="M412.81,-252.03C371.04,-262.15 317.92,-275.02 274.49,-285.54"/>
<polygon fill="black" stroke="black" points="264.53,-287.95 273.19,-281.22 269.39,-286.77 274.25,-285.6 274.25,-285.6 274.25,-285.6 269.39,-286.77 275.31,-289.97 264.53,-287.95 264.53,-287.95"/>
</g>
<!-- ragger.firmware.stax.use_cases&#45;&gt;ragger.backend -->
<g id="edge34" class="edge">
<title>ragger.firmware.stax.use_cases&#45;&gt;ragger.backend</title>
<path fill="none" stroke="black" d="M303.16,-324.03C385.53,-336.91 496.37,-354.22 568.52,-365.5"/>
<polygon fill="black" stroke="black" points="578.44,-367.05 567.86,-369.95 573.5,-366.27 568.56,-365.5 568.56,-365.5 568.56,-365.5 573.5,-366.27 569.25,-361.06 578.44,-367.05 578.44,-367.05"/>
</g>
<!-- ragger.firmware.stax.use_cases&#45;&gt;ragger.firmware -->
<g id="edge35" class="edge">
<title>ragger.firmware.stax.use_cases&#45;&gt;ragger.firmware</title>
<path fill="none" stroke="black" d="M116.75,-324.12C98.46,-331.97 81.1,-343.39 70.14,-360 61.33,-373.35 63.29,-381.54 70.14,-396 111.84,-483.99 214.79,-542.64 277.92,-571.68"/>
<polygon fill="black" stroke="black" points="287.32,-575.92 276.35,-575.91 282.76,-573.86 278.2,-571.81 278.2,-571.81 278.2,-571.81 282.76,-573.86 280.05,-567.71 287.32,-575.92 287.32,-575.92"/>
</g>
<!-- ragger.firmware.stax.use_cases&#45;&gt;ragger.firmware.stax.positions -->
<g id="edge36" class="edge">
<title>ragger.firmware.stax.use_cases&#45;&gt;ragger.firmware.stax.positions</title>
<path fill="none" stroke="black" d="M194.88,-324.3C195.21,-332.02 195.61,-341.29 195.98,-349.89"/>
<polygon fill="black" stroke="black" points="196.41,-359.9 191.48,-350.1 196.19,-354.9 195.98,-349.9 195.98,-349.9 195.98,-349.9 196.19,-354.9 200.48,-349.71 196.41,-359.9 196.41,-359.9"/>
</g>
<!-- ragger.firmware.structs&#45;&gt;ragger.firmware.versions -->
<g id="edge37" class="edge">
<title>ragger.firmware.structs&#45;&gt;ragger.firmware.versions</title>
<path fill="none" stroke="black" d="M300.54,-684.12C284.57,-693.36 264.68,-704.87 247.54,-714.79"/>
<polygon fill="black" stroke="black" points="238.85,-719.81 245.26,-710.91 243.18,-717.31 247.51,-714.8 247.51,-714.8 247.51,-714.8 243.18,-717.31 249.76,-718.7 238.85,-719.81 238.85,-719.81"/>
</g>
<!-- ragger.navigator -->
<g id="node20" class="node">
<title>ragger.navigator</title>
<polygon fill="cadetblue" stroke="cadetblue" points="850.14,-36 714.14,-36 714.14,0 850.14,0 850.14,-36"/>
<text text-anchor="middle" x="782.14" y="-14.3" font-family="Times,serif" font-size="14.00">ragger.navigator</text>
</g>
<!-- ragger.navigator.nano_navigator -->
<g id="node21" class="node">
<title>ragger.navigator.nano_navigator</title>
<polygon fill="cadetblue" stroke="cadetblue" points="982.14,-252 734.14,-252 734.14,-216 982.14,-216 982.14,-252"/>
<text text-anchor="middle" x="858.14" y="-230.3" font-family="Times,serif" font-size="14.00">ragger.navigator.nano_navigator</text>
</g>
<!-- ragger.navigator&#45;&gt;ragger.navigator.nano_navigator -->
<g id="edge38" class="edge">
<title>ragger.navigator&#45;&gt;ragger.navigator.nano_navigator</title>
<path fill="none" stroke="black" d="M788.23,-36.15C801.43,-73.32 832.77,-161.56 848.62,-206.18"/>
<polygon fill="black" stroke="black" points="852.02,-215.77 844.43,-207.85 850.35,-211.06 848.67,-206.34 848.67,-206.34 848.67,-206.34 850.35,-211.06 852.91,-204.84 852.02,-215.77 852.02,-215.77"/>
</g>
<!-- ragger.navigator.navigator -->
<g id="node22" class="node">
<title>ragger.navigator.navigator</title>
<polygon fill="cadetblue" stroke="cadetblue" points="1242.64,-324 1035.64,-324 1035.64,-288 1242.64,-288 1242.64,-324"/>
<text text-anchor="middle" x="1139.14" y="-302.3" font-family="Times,serif" font-size="14.00">ragger.navigator.navigator</text>
</g>
<!-- ragger.navigator&#45;&gt;ragger.navigator.navigator -->
<g id="edge39" class="edge">
<title>ragger.navigator&#45;&gt;ragger.navigator.navigator</title>
<path fill="none" stroke="black" d="M803.4,-36.03C864.28,-84.8 1039.33,-225.04 1109.51,-281.27"/>
<polygon fill="black" stroke="black" points="1117.54,-287.69 1106.92,-284.95 1113.64,-284.57 1109.73,-281.44 1109.73,-281.44 1109.73,-281.44 1113.64,-284.57 1112.55,-277.93 1117.54,-287.69 1117.54,-287.69"/>
</g>
<!-- ragger.navigator.stax_navigator -->
<g id="node23" class="node">
<title>ragger.navigator.stax_navigator</title>
<polygon fill="cadetblue" stroke="cadetblue" points="783.14,-108 539.14,-108 539.14,-72 783.14,-72 783.14,-108"/>
<text text-anchor="middle" x="661.14" y="-86.3" font-family="Times,serif" font-size="14.00">ragger.navigator.stax_navigator</text>
</g>
<!-- ragger.navigator&#45;&gt;ragger.navigator.stax_navigator -->
<g id="edge40" class="edge">
<title>ragger.navigator&#45;&gt;ragger.navigator.stax_navigator</title>
<path fill="none" stroke="black" d="M746.64,-36.12C729.87,-45.28 710.04,-56.66 693.66,-66.52"/>
<polygon fill="black" stroke="black" points="684.95,-71.81 691.16,-62.77 689.22,-69.21 693.49,-66.61 693.49,-66.61 693.49,-66.61 689.22,-69.21 695.83,-70.46 684.95,-71.81 684.95,-71.81"/>
</g>
<!-- ragger.navigator.nano_navigator&#45;&gt;ragger.backend -->
<g id="edge41" class="edge">
<title>ragger.navigator.nano_navigator&#45;&gt;ragger.backend</title>
<path fill="none" stroke="black" d="M832.09,-252.13C793.25,-277.66 720.1,-325.75 676.79,-354.22"/>
<polygon fill="black" stroke="black" points="668.29,-359.81 674.17,-350.56 672.47,-357.06 676.64,-354.32 676.64,-354.32 676.64,-354.32 672.47,-357.06 679.12,-358.08 668.29,-359.81 668.29,-359.81"/>
</g>
<!-- ragger.navigator.nano_navigator&#45;&gt;ragger.firmware -->
<g id="edge42" class="edge">
<title>ragger.navigator.nano_navigator&#45;&gt;ragger.firmware</title>
<path fill="none" stroke="black" d="M894.43,-252.11C968.85,-289.52 1126.65,-382.12 1063.14,-468 985.99,-572.32 578.05,-589.88 406.37,-592.62"/>
<polygon fill="black" stroke="black" points="396.15,-592.77 406.09,-588.12 401.15,-592.69 406.15,-592.62 406.15,-592.62 406.15,-592.62 401.15,-592.69 406.22,-597.12 396.15,-592.77 396.15,-592.77"/>
</g>
<!-- ragger.navigator.nano_navigator&#45;&gt;ragger.navigator.navigator -->
<g id="edge43" class="edge">
<title>ragger.navigator.nano_navigator&#45;&gt;ragger.navigator.navigator</title>
<path fill="none" stroke="black" d="M926.52,-252.03C966.98,-262.11 1018.38,-274.92 1060.51,-285.41"/>
<polygon fill="black" stroke="black" points="1070.45,-287.89 1059.66,-289.84 1065.6,-286.68 1060.75,-285.47 1060.75,-285.47 1060.75,-285.47 1065.6,-286.68 1061.84,-281.11 1070.45,-287.89 1070.45,-287.89"/>
</g>
<!-- ragger.navigator.navigator&#45;&gt;ragger.backend -->
<g id="edge44" class="edge">
<title>ragger.navigator.navigator&#45;&gt;ragger.backend</title>
<path fill="none" stroke="black" d="M1035.56,-321.59C940.01,-335.05 800.54,-354.69 715.87,-366.62"/>
<polygon fill="black" stroke="black" points="705.83,-368.03 715.1,-362.18 710.78,-367.33 715.73,-366.64 715.73,-366.64 715.73,-366.64 710.78,-367.33 716.36,-371.09 705.83,-368.03 705.83,-368.03"/>
</g>
<!-- ragger.navigator.navigator&#45;&gt;ragger.firmware -->
<g id="edge45" class="edge">
<title>ragger.navigator.navigator&#45;&gt;ragger.firmware</title>
<path fill="none" stroke="black" d="M1142.14,-324.05C1148.73,-367.65 1159.21,-483.71 1096.14,-540 1070.67,-562.73 595.46,-583.02 406.6,-590.22"/>
<polygon fill="black" stroke="black" points="396.47,-590.6 406.29,-585.73 401.46,-590.42 406.46,-590.23 406.46,-590.23 406.46,-590.23 401.46,-590.42 406.63,-594.72 396.47,-590.6 396.47,-590.6"/>
</g>
<!-- ragger.navigator.navigator&#45;&gt;ragger.utils -->
<g id="edge46" class="edge">
<title>ragger.navigator.navigator&#45;&gt;ragger.utils</title>
<path fill="none" stroke="black" d="M1145.26,-324.18C1159.14,-366.58 1187.86,-477.33 1134.14,-540 1103.75,-575.45 972.56,-587.21 894.08,-591.1"/>
<polygon fill="black" stroke="black" points="883.84,-591.58 893.62,-586.61 888.84,-591.34 893.83,-591.11 893.83,-591.11 893.83,-591.11 888.84,-591.34 894.04,-595.6 883.84,-591.58 883.84,-591.58"/>
</g>
<!-- ragger.navigator.stax_navigator&#45;&gt;ragger.backend -->
<g id="edge47" class="edge">
<title>ragger.navigator.stax_navigator&#45;&gt;ragger.backend</title>
<path fill="none" stroke="black" d="M660.01,-108.03C656.84,-155.71 647.87,-290.82 643.98,-349.37"/>
<polygon fill="black" stroke="black" points="643.29,-359.69 639.46,-349.42 643.62,-354.7 643.95,-349.72 643.95,-349.72 643.95,-349.72 643.62,-354.7 648.44,-350.01 643.29,-359.69 643.29,-359.69"/>
</g>
<!-- ragger.navigator.stax_navigator&#45;&gt;ragger.firmware -->
<g id="edge48" class="edge">
<title>ragger.navigator.stax_navigator&#45;&gt;ragger.firmware</title>
<path fill="none" stroke="black" d="M538.88,-93.14C351.09,-99.79 13.14,-126.54 13.14,-233 13.14,-233 13.14,-233 13.14,-379 13.14,-476.5 78.62,-489.7 162.14,-540 190.15,-556.87 224.07,-568.89 254.07,-577.17"/>
<polygon fill="black" stroke="black" points="264.08,-579.84 253.26,-581.62 259.25,-578.55 254.42,-577.27 254.42,-577.27 254.42,-577.27 259.25,-578.55 255.58,-572.92 264.08,-579.84 264.08,-579.84"/>
</g>
<!-- ragger.navigator.stax_navigator&#45;&gt;ragger.firmware.stax -->
<g id="edge49" class="edge">
<title>ragger.navigator.stax_navigator&#45;&gt;ragger.firmware.stax</title>
<path fill="none" stroke="black" d="M625.91,-108.12C606.56,-117.53 582.37,-129.29 561.71,-139.33"/>
<polygon fill="black" stroke="black" points="552.5,-143.81 559.53,-135.39 557,-141.62 561.5,-139.44 561.5,-139.44 561.5,-139.44 557,-141.62 563.46,-143.49 552.5,-143.81 552.5,-143.81"/>
</g>
<!-- ragger.navigator.stax_navigator&#45;&gt;ragger.navigator -->
<g id="edge50" class="edge">
<title>ragger.navigator.stax_navigator&#45;&gt;ragger.navigator</title>
<path fill="none" stroke="black" d="M696.76,-71.81C713.55,-62.65 733.38,-51.26 749.74,-41.41"/>
<polygon fill="black" stroke="black" points="758.44,-36.12 752.23,-45.17 754.17,-38.72 749.9,-41.32 749.9,-41.32 749.9,-41.32 754.17,-38.72 747.56,-37.48 758.44,-36.12 758.44,-36.12"/>
</g>
<!-- ragger.utils.misc -->
<g id="node25" class="node">
<title>ragger.utils.misc</title>
<polygon fill="chartreuse" stroke="chartreuse" points="736.64,-684 599.64,-684 599.64,-648 736.64,-648 736.64,-684"/>
<text text-anchor="middle" x="668.14" y="-662.3" font-family="Times,serif" font-size="14.00">ragger.utils.misc</text>
</g>
<!-- ragger.utils&#45;&gt;ragger.utils.misc -->
<g id="edge51" class="edge">
<title>ragger.utils&#45;&gt;ragger.utils.misc</title>
<path fill="none" stroke="black" d="M793.53,-612.12C770.74,-621.74 742.11,-633.81 717.97,-643.99"/>
<polygon fill="black" stroke="black" points="708.62,-647.93 716.08,-639.9 713.22,-645.99 717.83,-644.05 717.83,-644.05 717.83,-644.05 713.22,-645.99 719.58,-648.19 708.62,-647.93 708.62,-647.93"/>
</g>
<!-- ragger.utils.packing -->
<g id="node26" class="node">
<title>ragger.utils.packing</title>
<polygon fill="chartreuse" stroke="chartreuse" points="913.64,-684 754.64,-684 754.64,-648 913.64,-648 913.64,-684"/>
<text text-anchor="middle" x="834.14" y="-662.3" font-family="Times,serif" font-size="14.00">ragger.utils.packing</text>
</g>
<!-- ragger.utils&#45;&gt;ragger.utils.packing -->
<g id="edge52" class="edge">
<title>ragger.utils&#45;&gt;ragger.utils.packing</title>
<path fill="none" stroke="black" d="M834.14,-612.3C834.14,-620.02 834.14,-629.29 834.14,-637.89"/>
<polygon fill="black" stroke="black" points="834.14,-647.9 829.64,-637.9 834.14,-642.9 834.14,-637.9 834.14,-637.9 834.14,-637.9 834.14,-642.9 838.64,-637.9 834.14,-647.9 834.14,-647.9"/>
</g>
<!-- ragger.utils.structs -->
<g id="node27" class="node">
<title>ragger.utils.structs</title>
<polygon fill="chartreuse" stroke="chartreuse" points="1086.14,-684 932.14,-684 932.14,-648 1086.14,-648 1086.14,-684"/>
<text text-anchor="middle" x="1009.14" y="-662.3" font-family="Times,serif" font-size="14.00">ragger.utils.structs</text>
</g>
<!-- ragger.utils&#45;&gt;ragger.utils.structs -->
<g id="edge53" class="edge">
<title>ragger.utils&#45;&gt;ragger.utils.structs</title>
<path fill="none" stroke="black" d="M876.95,-612.12C901.09,-621.78 931.42,-633.91 956.95,-644.12"/>
<polygon fill="black" stroke="black" points="966.47,-647.93 955.51,-648.4 961.83,-646.07 957.19,-644.22 957.19,-644.22 957.19,-644.22 961.83,-646.07 958.86,-640.04 966.47,-647.93 966.47,-647.93"/>
</g>
</g>
</svg>
