<?xml version="1.0" encoding="UTF-8" standalone="no"?>
<!DOCTYPE svg PUBLIC "-//W3C//DTD SVG 1.1//EN"
 "http://www.w3.org/Graphics/SVG/1.1/DTD/svg11.dtd">
<!-- Generated by graphviz version 2.43.0 (0)
 -->
<!-- Title: packages_generated_ragger_architecture Pages: 1 -->
<svg width="2543pt" height="980pt"
 viewBox="0.00 0.00 2542.50 980.00" xmlns="http://www.w3.org/2000/svg" xmlns:xlink="http://www.w3.org/1999/xlink">
<g id="graph0" class="graph" transform="scale(1 1) rotate(0) translate(4 976)">
<title>packages_generated_ragger_architecture</title>
<polygon fill="white" stroke="transparent" points="-4,4 -4,-976 2538.5,-976 2538.5,4 -4,4"/>
<!-- ragger -->
<g id="node1" class="node">
<title>ragger</title>
<polygon fill="#77aadd" stroke="#77aadd" points="106,-900 41,-900 41,-864 106,-864 106,-900"/>
<text text-anchor="middle" x="73.5" y="-878.3" font-family="Times,serif" font-size="14.00">ragger</text>
</g>
<!-- ragger.__version__ -->
<g id="node2" class="node">
<title>ragger.__version__</title>
<polygon fill="#77aadd" stroke="#77aadd" points="147,-972 0,-972 0,-936 147,-936 147,-972"/>
<text text-anchor="middle" x="73.5" y="-950.3" font-family="Times,serif" font-size="14.00">ragger.__version__</text>
</g>
<!-- ragger&#45;&gt;ragger.__version__ -->
<g id="edge1" class="edge">
<title>ragger&#45;&gt;ragger.__version__</title>
<path fill="none" stroke="black" d="M73.5,-900.3C73.5,-908.02 73.5,-917.29 73.5,-925.89"/>
<polygon fill="black" stroke="black" points="73.5,-935.9 69,-925.9 73.5,-930.9 73.5,-925.9 73.5,-925.9 73.5,-925.9 73.5,-930.9 78,-925.9 73.5,-935.9 73.5,-935.9"/>
</g>
<!-- ragger.logger -->
<g id="node28" class="node">
<title>ragger.logger</title>
<polygon fill="#77aadd" stroke="#77aadd" points="1125,-972 1012,-972 1012,-936 1125,-936 1125,-972"/>
<text text-anchor="middle" x="1068.5" y="-950.3" font-family="Times,serif" font-size="14.00">ragger.logger</text>
</g>
<!-- ragger&#45;&gt;ragger.logger -->
<g id="edge2" class="edge">
<title>ragger&#45;&gt;ragger.logger</title>
<path fill="none" stroke="black" d="M106.02,-896.14C110.81,-897.67 115.74,-899.03 120.5,-900 289.31,-934.48 814.57,-947.99 1001.57,-951.78"/>
<polygon fill="black" stroke="black" points="1011.8,-951.99 1001.72,-956.29 1006.81,-951.89 1001.81,-951.79 1001.81,-951.79 1001.81,-951.79 1006.81,-951.89 1001.9,-947.29 1011.8,-951.99 1011.8,-951.99"/>
</g>
<!-- ragger.backend -->
<g id="node3" class="node">
<title>ragger.backend</title>
<polygon fill="#99ddff" stroke="#99ddff" points="1326,-540 1199,-540 1199,-504 1326,-504 1326,-540"/>
<text text-anchor="middle" x="1262.5" y="-518.3" font-family="Times,serif" font-size="14.00">ragger.backend</text>
</g>
<!-- ragger.backend.interface -->
<g id="node4" class="node">
<title>ragger.backend.interface</title>
<polygon fill="#99ddff" stroke="#99ddff" points="1515,-756 1320,-756 1320,-720 1515,-720 1515,-756"/>
<text text-anchor="middle" x="1417.5" y="-734.3" font-family="Times,serif" font-size="14.00">ragger.backend.interface</text>
</g>
<!-- ragger.backend&#45;&gt;ragger.backend.interface -->
<g id="edge3" class="edge">
<title>ragger.backend&#45;&gt;ragger.backend.interface</title>
<path fill="none" stroke="black" d="M1268.92,-540.2C1277.38,-560.48 1294.21,-593.73 1319.5,-612 1371.93,-649.87 1420.82,-596.92 1460.5,-648 1475.7,-667.57 1460.08,-693.37 1443.57,-712.15"/>
<polygon fill="black" stroke="black" points="1436.52,-719.73 1440.03,-709.35 1439.92,-716.07 1443.33,-712.41 1443.33,-712.41 1443.33,-712.41 1439.92,-716.07 1446.62,-715.47 1436.52,-719.73 1436.52,-719.73"/>
</g>
<!-- ragger.backend.ledgercomm -->
<g id="node5" class="node">
<title>ragger.backend.ledgercomm</title>
<polygon fill="#99ddff" stroke="#99ddff" points="1216.5,-612 996.5,-612 996.5,-576 1216.5,-576 1216.5,-612"/>
<text text-anchor="middle" x="1106.5" y="-590.3" font-family="Times,serif" font-size="14.00">ragger.backend.ledgercomm</text>
</g>
<!-- ragger.backend&#45;&gt;ragger.backend.ledgercomm -->
<g id="edge4" class="edge">
<title>ragger.backend&#45;&gt;ragger.backend.ledgercomm</title>
<path fill="none" stroke="black" d="M1224.34,-540.12C1203.11,-549.65 1176.49,-561.59 1153.93,-571.72"/>
<polygon fill="black" stroke="black" points="1144.54,-575.93 1151.82,-567.73 1149.1,-573.88 1153.66,-571.84 1153.66,-571.84 1153.66,-571.84 1149.1,-573.88 1155.5,-575.94 1144.54,-575.93 1144.54,-575.93"/>
</g>
<!-- ragger.backend.ledgerwallet -->
<g id="node6" class="node">
<title>ragger.backend.ledgerwallet</title>
<polygon fill="#99ddff" stroke="#99ddff" points="1550,-612 1329,-612 1329,-576 1550,-576 1550,-612"/>
<text text-anchor="middle" x="1439.5" y="-590.3" font-family="Times,serif" font-size="14.00">ragger.backend.ledgerwallet</text>
</g>
<!-- ragger.backend&#45;&gt;ragger.backend.ledgerwallet -->
<g id="edge5" class="edge">
<title>ragger.backend&#45;&gt;ragger.backend.ledgerwallet</title>
<path fill="none" stroke="black" d="M1305.8,-540.12C1330.21,-549.78 1360.9,-561.91 1386.71,-572.12"/>
<polygon fill="black" stroke="black" points="1396.34,-575.93 1385.39,-576.44 1391.69,-574.09 1387.04,-572.25 1387.04,-572.25 1387.04,-572.25 1391.69,-574.09 1388.7,-568.07 1396.34,-575.93 1396.34,-575.93"/>
</g>
<!-- ragger.backend.speculos -->
<g id="node8" class="node">
<title>ragger.backend.speculos</title>
<polygon fill="#99ddff" stroke="#99ddff" points="1452,-684 1259,-684 1259,-648 1452,-648 1452,-684"/>
<text text-anchor="middle" x="1355.5" y="-662.3" font-family="Times,serif" font-size="14.00">ragger.backend.speculos</text>
</g>
<!-- ragger.backend&#45;&gt;ragger.backend.speculos -->
<g id="edge6" class="edge">
<title>ragger.backend&#45;&gt;ragger.backend.speculos</title>
<path fill="none" stroke="black" d="M1263.84,-540.08C1266.02,-559.05 1271.73,-589.92 1286.5,-612 1294.26,-623.61 1305.42,-633.74 1316.5,-641.95"/>
<polygon fill="black" stroke="black" points="1324.9,-647.85 1314.13,-645.79 1320.81,-644.98 1316.72,-642.11 1316.72,-642.11 1316.72,-642.11 1320.81,-644.98 1319.3,-638.42 1324.9,-647.85 1324.9,-647.85"/>
</g>
<!-- ragger.backend.stub -->
<g id="node9" class="node">
<title>ragger.backend.stub</title>
<polygon fill="#99ddff" stroke="#99ddff" points="1786,-684 1623,-684 1623,-648 1786,-648 1786,-684"/>
<text text-anchor="middle" x="1704.5" y="-662.3" font-family="Times,serif" font-size="14.00">ragger.backend.stub</text>
</g>
<!-- ragger.backend&#45;&gt;ragger.backend.stub -->
<g id="edge7" class="edge">
<title>ragger.backend&#45;&gt;ragger.backend.stub</title>
<path fill="none" stroke="black" d="M1326.19,-525.17C1388.08,-529.36 1483.45,-541.45 1558.5,-576 1581.45,-586.57 1581.4,-598.1 1602.5,-612 1619.96,-623.5 1640.2,-634.46 1658.03,-643.4"/>
<polygon fill="black" stroke="black" points="1667.11,-647.88 1656.15,-647.49 1662.63,-645.67 1658.15,-643.45 1658.15,-643.45 1658.15,-643.45 1662.63,-645.67 1660.14,-639.42 1667.11,-647.88 1667.11,-647.88"/>
</g>
<!-- ragger.firmware -->
<g id="node17" class="node">
<title>ragger.firmware</title>
<polygon fill="#aaaa00" stroke="#aaaa00" points="870.5,-828 738.5,-828 738.5,-792 870.5,-792 870.5,-828"/>
<text text-anchor="middle" x="804.5" y="-806.3" font-family="Times,serif" font-size="14.00">ragger.firmware</text>
</g>
<!-- ragger.backend.interface&#45;&gt;ragger.firmware -->
<g id="edge8" class="edge">
<title>ragger.backend.interface&#45;&gt;ragger.firmware</title>
<path fill="none" stroke="black" d="M1319.69,-750.17C1197.75,-764.09 991.89,-787.6 880.9,-800.28"/>
<polygon fill="black" stroke="black" points="870.79,-801.43 880.21,-795.82 875.76,-800.86 880.72,-800.3 880.72,-800.3 880.72,-800.3 875.76,-800.86 881.24,-804.77 870.79,-801.43 870.79,-801.43"/>
</g>
<!-- ragger.backend.interface&#45;&gt;ragger.logger -->
<g id="edge9" class="edge">
<title>ragger.backend.interface&#45;&gt;ragger.logger</title>
<path fill="none" stroke="black" d="M1405.52,-756.22C1381.64,-789.22 1324.78,-861.51 1259.5,-900 1221.4,-922.46 1173.42,-935.73 1135.08,-943.37"/>
<polygon fill="black" stroke="black" points="1125.05,-945.29 1134.02,-938.99 1129.96,-944.35 1134.87,-943.41 1134.87,-943.41 1134.87,-943.41 1129.96,-944.35 1135.71,-947.83 1125.05,-945.29 1125.05,-945.29"/>
</g>
<!-- ragger.utils -->
<g id="node35" class="node">
<title>ragger.utils</title>
<polygon fill="#ffaabb" stroke="#ffaabb" points="1649,-828 1550,-828 1550,-792 1649,-792 1649,-828"/>
<text text-anchor="middle" x="1599.5" y="-806.3" font-family="Times,serif" font-size="14.00">ragger.utils</text>
</g>
<!-- ragger.backend.interface&#45;&gt;ragger.utils -->
<g id="edge10" class="edge">
<title>ragger.backend.interface&#45;&gt;ragger.utils</title>
<path fill="none" stroke="black" d="M1462.02,-756.12C1487.23,-765.82 1518.95,-778.02 1545.57,-788.26"/>
<polygon fill="black" stroke="black" points="1555.12,-791.93 1544.17,-792.54 1550.46,-790.14 1545.79,-788.34 1545.79,-788.34 1545.79,-788.34 1550.46,-790.14 1547.4,-784.14 1555.12,-791.93 1555.12,-791.93"/>
</g>
<!-- ragger.backend.ledgercomm&#45;&gt;ragger.backend.ledgercomm -->
<g id="edge11" class="edge">
<title>ragger.backend.ledgercomm&#45;&gt;ragger.backend.ledgercomm</title>
<path fill="none" stroke="black" d="M1216.65,-582.99C1227.56,-585.2 1234.5,-588.87 1234.5,-594 1234.5,-597.37 1231.51,-600.11 1226.37,-602.21"/>
<polygon fill="black" stroke="black" points="1216.65,-605.01 1225.02,-597.92 1221.46,-603.63 1226.26,-602.25 1226.26,-602.25 1226.26,-602.25 1221.46,-603.63 1227.51,-606.57 1216.65,-605.01 1216.65,-605.01"/>
</g>
<!-- ragger.backend.physical_backend -->
<g id="node7" class="node">
<title>ragger.backend.physical_backend</title>
<polygon fill="#99ddff" stroke="#99ddff" points="1240.5,-684 984.5,-684 984.5,-648 1240.5,-648 1240.5,-684"/>
<text text-anchor="middle" x="1112.5" y="-662.3" font-family="Times,serif" font-size="14.00">ragger.backend.physical_backend</text>
</g>
<!-- ragger.backend.ledgercomm&#45;&gt;ragger.backend.physical_backend -->
<g id="edge12" class="edge">
<title>ragger.backend.ledgercomm&#45;&gt;ragger.backend.physical_backend</title>
<path fill="none" stroke="black" d="M1107.98,-612.3C1108.64,-620.02 1109.44,-629.29 1110.18,-637.89"/>
<polygon fill="black" stroke="black" points="1111.03,-647.9 1105.7,-638.32 1110.61,-642.91 1110.18,-637.93 1110.18,-637.93 1110.18,-637.93 1110.61,-642.91 1114.66,-637.55 1111.03,-647.9 1111.03,-647.9"/>
</g>
<!-- ragger.error -->
<g id="node16" class="node">
<title>ragger.error</title>
<polygon fill="#77aadd" stroke="#77aadd" points="1661.5,-972 1557.5,-972 1557.5,-936 1661.5,-936 1661.5,-972"/>
<text text-anchor="middle" x="1609.5" y="-950.3" font-family="Times,serif" font-size="14.00">ragger.error</text>
</g>
<!-- ragger.backend.ledgercomm&#45;&gt;ragger.error -->
<g id="edge13" class="edge">
<title>ragger.backend.ledgercomm&#45;&gt;ragger.error</title>
<path fill="none" stroke="black" d="M1022.8,-612.05C1004.23,-619.89 986.75,-631.32 975.5,-648 966.56,-661.27 967.78,-669.99 975.5,-684 1004.43,-736.48 1035.35,-730.34 1089.5,-756 1135.22,-777.67 1150.9,-772.28 1197.5,-792 1293.43,-832.59 1308.26,-862.67 1405.5,-900 1451.89,-917.81 1506.47,-931.64 1547.5,-940.7"/>
<polygon fill="black" stroke="black" points="1557.36,-942.84 1546.63,-945.11 1552.47,-941.78 1547.58,-940.72 1547.58,-940.72 1547.58,-940.72 1552.47,-941.78 1548.54,-936.32 1557.36,-942.84 1557.36,-942.84"/>
</g>
<!-- ragger.backend.ledgercomm&#45;&gt;ragger.firmware -->
<g id="edge14" class="edge">
<title>ragger.backend.ledgercomm&#45;&gt;ragger.firmware</title>
<path fill="none" stroke="black" d="M996.35,-605.54C963.87,-613.19 930.19,-626.16 904.5,-648 864.48,-682.02 886.03,-712.56 856.5,-756 849.55,-766.22 840.51,-776.23 831.92,-784.74"/>
<polygon fill="black" stroke="black" points="824.55,-791.8 828.65,-781.63 828.16,-788.34 831.77,-784.88 831.77,-784.88 831.77,-784.88 828.16,-788.34 834.88,-788.13 824.55,-791.8 824.55,-791.8"/>
</g>
<!-- ragger.backend.ledgercomm&#45;&gt;ragger.utils -->
<g id="edge15" class="edge">
<title>ragger.backend.ledgercomm&#45;&gt;ragger.utils</title>
<path fill="none" stroke="black" d="M1216.64,-605.53C1303.74,-614.96 1417.57,-630.05 1460.5,-648 1509.7,-668.58 1522.61,-678.82 1556.5,-720 1571.85,-738.64 1583.31,-763.68 1590.53,-782.45"/>
<polygon fill="black" stroke="black" points="1594.01,-791.89 1586.33,-784.06 1592.28,-787.2 1590.55,-782.51 1590.55,-782.51 1590.55,-782.51 1592.28,-787.2 1594.77,-780.95 1594.01,-791.89 1594.01,-791.89"/>
</g>
<!-- ragger.backend.ledgerwallet&#45;&gt;ragger.backend.physical_backend -->
<g id="edge16" class="edge">
<title>ragger.backend.ledgerwallet&#45;&gt;ragger.backend.physical_backend</title>
<path fill="none" stroke="black" d="M1359.92,-612.03C1312.26,-622.24 1251.54,-635.24 1202.18,-645.8"/>
<polygon fill="black" stroke="black" points="1192.15,-647.95 1200.98,-641.46 1197.04,-646.9 1201.93,-645.86 1201.93,-645.86 1201.93,-645.86 1197.04,-646.9 1202.87,-650.26 1192.15,-647.95 1192.15,-647.95"/>
</g>
<!-- ragger.backend.ledgerwallet&#45;&gt;ragger.error -->
<g id="edge17" class="edge">
<title>ragger.backend.ledgerwallet&#45;&gt;ragger.error</title>
<path fill="none" stroke="black" d="M1550.13,-601.64C1638.9,-608.76 1754.97,-622.63 1794.5,-648 1834.23,-673.51 1852.5,-689.79 1852.5,-737 1852.5,-737 1852.5,-737 1852.5,-811 1852.5,-851.45 1861.78,-871.09 1833.5,-900 1811.26,-922.74 1730.06,-937.69 1671.83,-945.75"/>
<polygon fill="black" stroke="black" points="1661.61,-947.13 1670.92,-941.33 1666.56,-946.46 1671.52,-945.79 1671.52,-945.79 1671.52,-945.79 1666.56,-946.46 1672.12,-950.25 1661.61,-947.13 1661.61,-947.13"/>
</g>
<!-- ragger.backend.ledgerwallet&#45;&gt;ragger.firmware -->
<g id="edge18" class="edge">
<title>ragger.backend.ledgerwallet&#45;&gt;ragger.firmware</title>
<path fill="none" stroke="black" d="M1328.86,-605.65C1196.61,-618.68 991.05,-639.98 975.5,-648 918.17,-677.59 926.57,-712.96 878.5,-756 866.54,-766.71 852.43,-777.26 839.75,-786.1"/>
<polygon fill="black" stroke="black" points="831.24,-791.92 836.95,-782.56 835.37,-789.09 839.49,-786.27 839.49,-786.27 839.49,-786.27 835.37,-789.09 842.03,-789.98 831.24,-791.92 831.24,-791.92"/>
</g>
<!-- ragger.backend.ledgerwallet&#45;&gt;ragger.utils -->
<g id="edge19" class="edge">
<title>ragger.backend.ledgerwallet&#45;&gt;ragger.utils</title>
<path fill="none" stroke="black" d="M1512.88,-612.13C1533.78,-620.08 1555.05,-631.55 1570.5,-648 1604.51,-684.21 1605.58,-746.1 1602.85,-781.67"/>
<polygon fill="black" stroke="black" points="1601.91,-791.81 1598.35,-781.43 1602.37,-786.83 1602.83,-781.85 1602.83,-781.85 1602.83,-781.85 1602.37,-786.83 1607.32,-782.26 1601.91,-791.81 1601.91,-791.81"/>
</g>
<!-- ragger.backend.physical_backend&#45;&gt;ragger.backend.interface -->
<g id="edge20" class="edge">
<title>ragger.backend.physical_backend&#45;&gt;ragger.backend.interface</title>
<path fill="none" stroke="black" d="M1186.72,-684.03C1230.99,-694.2 1287.34,-707.13 1333.28,-717.67"/>
<polygon fill="black" stroke="black" points="1343.21,-719.95 1332.46,-722.1 1338.34,-718.83 1333.46,-717.71 1333.46,-717.71 1333.46,-717.71 1338.34,-718.83 1334.47,-713.33 1343.21,-719.95 1343.21,-719.95"/>
</g>
<!-- ragger.backend.physical_backend&#45;&gt;ragger.firmware -->
<g id="edge21" class="edge">
<title>ragger.backend.physical_backend&#45;&gt;ragger.firmware</title>
<path fill="none" stroke="black" d="M1079.64,-684.07C1043.79,-702.5 984.57,-732.38 932.5,-756 907.95,-767.13 880.37,-778.68 857.11,-788.14"/>
<polygon fill="black" stroke="black" points="847.77,-791.92 855.35,-784 852.4,-790.04 857.03,-788.17 857.03,-788.17 857.03,-788.17 852.4,-790.04 858.72,-792.34 847.77,-791.92 847.77,-791.92"/>
</g>
<!-- ragger.gui -->
<g id="node25" class="node">
<title>ragger.gui</title>
<polygon fill="#eedd88" stroke="#eedd88" points="1188.5,-756 1098.5,-756 1098.5,-720 1188.5,-720 1188.5,-756"/>
<text text-anchor="middle" x="1143.5" y="-734.3" font-family="Times,serif" font-size="14.00">ragger.gui</text>
</g>
<!-- ragger.backend.physical_backend&#45;&gt;ragger.gui -->
<g id="edge22" class="edge">
<title>ragger.backend.physical_backend&#45;&gt;ragger.gui</title>
<path fill="none" stroke="black" d="M1120.16,-684.3C1123.69,-692.27 1127.96,-701.9 1131.87,-710.74"/>
<polygon fill="black" stroke="black" points="1135.93,-719.9 1127.76,-712.57 1133.9,-715.32 1131.88,-710.75 1131.88,-710.75 1131.88,-710.75 1133.9,-715.32 1135.99,-708.93 1135.93,-719.9 1135.93,-719.9"/>
</g>
<!-- ragger.navigator.instruction -->
<g id="node30" class="node">
<title>ragger.navigator.instruction</title>
<polygon fill="#ee8866" stroke="#ee8866" points="395,-900 178,-900 178,-864 395,-864 395,-900"/>
<text text-anchor="middle" x="286.5" y="-878.3" font-family="Times,serif" font-size="14.00">ragger.navigator.instruction</text>
</g>
<!-- ragger.backend.physical_backend&#45;&gt;ragger.navigator.instruction -->
<g id="edge23" class="edge">
<title>ragger.backend.physical_backend&#45;&gt;ragger.navigator.instruction</title>
<path fill="none" stroke="black" d="M1095.05,-684.01C1058.59,-718.34 970.19,-795.4 879.5,-828 795.11,-858.34 552.7,-871.9 405.24,-877.49"/>
<polygon fill="black" stroke="black" points="395.23,-877.86 405.06,-872.99 400.23,-877.67 405.22,-877.49 405.22,-877.49 405.22,-877.49 400.23,-877.67 405.39,-881.98 395.23,-877.86 395.23,-877.86"/>
</g>
<!-- ragger.backend.physical_backend&#45;&gt;ragger.utils -->
<g id="edge24" class="edge">
<title>ragger.backend.physical_backend&#45;&gt;ragger.utils</title>
<path fill="none" stroke="black" d="M1144.15,-684.11C1182.48,-704.15 1249.51,-737.01 1310.5,-756 1387.8,-780.07 1480.34,-794.67 1539.51,-802.29"/>
<polygon fill="black" stroke="black" points="1549.79,-803.58 1539.31,-806.8 1544.83,-802.96 1539.87,-802.33 1539.87,-802.33 1539.87,-802.33 1544.83,-802.96 1540.44,-797.87 1549.79,-803.58 1549.79,-803.58"/>
</g>
<!-- ragger.backend.speculos&#45;&gt;ragger.backend.interface -->
<g id="edge25" class="edge">
<title>ragger.backend.speculos&#45;&gt;ragger.backend.interface</title>
<path fill="none" stroke="black" d="M1370.83,-684.3C1378.26,-692.7 1387.32,-702.93 1395.48,-712.14"/>
<polygon fill="black" stroke="black" points="1402.35,-719.9 1392.35,-715.39 1399.04,-716.15 1395.72,-712.41 1395.72,-712.41 1395.72,-712.41 1399.04,-716.15 1399.09,-709.43 1402.35,-719.9 1402.35,-719.9"/>
</g>
<!-- ragger.backend.speculos&#45;&gt;ragger.error -->
<g id="edge26" class="edge">
<title>ragger.backend.speculos&#45;&gt;ragger.error</title>
<path fill="none" stroke="black" d="M1335.12,-684.47C1325.69,-693.91 1315.49,-706.4 1310.5,-720 1304.98,-735.02 1303.71,-741.51 1310.5,-756 1355.7,-852.43 1474.29,-908.02 1547.82,-934.24"/>
<polygon fill="black" stroke="black" points="1557.44,-937.6 1546.51,-938.55 1552.72,-935.95 1548,-934.31 1548,-934.31 1548,-934.31 1552.72,-935.95 1549.48,-930.06 1557.44,-937.6 1557.44,-937.6"/>
</g>
<!-- ragger.backend.speculos&#45;&gt;ragger.firmware -->
<g id="edge27" class="edge">
<title>ragger.backend.speculos&#45;&gt;ragger.firmware</title>
<path fill="none" stroke="black" d="M1258.75,-683.06C1207.98,-692.3 1144.97,-705.04 1089.5,-720 1041.87,-732.85 1031.51,-741.03 984.5,-756 948.34,-767.52 907.81,-779.53 874.38,-789.2"/>
<polygon fill="black" stroke="black" points="864.7,-791.99 873.06,-784.9 869.51,-790.6 874.31,-789.22 874.31,-789.22 874.31,-789.22 869.51,-790.6 875.56,-793.54 864.7,-791.99 864.7,-791.99"/>
</g>
<!-- ragger.backend.speculos&#45;&gt;ragger.logger -->
<g id="edge28" class="edge">
<title>ragger.backend.speculos&#45;&gt;ragger.logger</title>
<path fill="none" stroke="black" d="M1335.59,-684.1C1324.93,-693.9 1312.07,-706.85 1302.5,-720 1249.65,-792.65 1277.58,-840.24 1210.5,-900 1189.33,-918.86 1160.83,-931.23 1134.92,-939.24"/>
<polygon fill="black" stroke="black" points="1125.14,-942.09 1133.47,-934.97 1129.93,-940.69 1134.73,-939.29 1134.73,-939.29 1134.73,-939.29 1129.93,-940.69 1136,-943.61 1125.14,-942.09 1125.14,-942.09"/>
</g>
<!-- ragger.backend.speculos&#45;&gt;ragger.utils -->
<g id="edge29" class="edge">
<title>ragger.backend.speculos&#45;&gt;ragger.utils</title>
<path fill="none" stroke="black" d="M1441.22,-684.11C1468.96,-692.17 1498.89,-703.71 1523.5,-720 1548.44,-736.51 1569.83,-763.47 1583.5,-783.39"/>
<polygon fill="black" stroke="black" points="1589.05,-791.72 1579.76,-785.89 1586.28,-787.56 1583.51,-783.4 1583.51,-783.4 1583.51,-783.4 1586.28,-787.56 1587.25,-780.9 1589.05,-791.72 1589.05,-791.72"/>
</g>
<!-- ragger.backend.stub&#45;&gt;ragger.backend.interface -->
<g id="edge30" class="edge">
<title>ragger.backend.stub&#45;&gt;ragger.backend.interface</title>
<path fill="none" stroke="black" d="M1634.66,-684.03C1593.25,-694.13 1540.62,-706.97 1497.54,-717.48"/>
<polygon fill="black" stroke="black" points="1487.65,-719.89 1496.3,-713.15 1492.51,-718.7 1497.37,-717.52 1497.37,-717.52 1497.37,-717.52 1492.51,-718.7 1498.44,-721.89 1487.65,-719.89 1487.65,-719.89"/>
</g>
<!-- ragger.utils.structs -->
<g id="node38" class="node">
<title>ragger.utils.structs</title>
<polygon fill="#ffaabb" stroke="#ffaabb" points="1824.5,-900 1670.5,-900 1670.5,-864 1824.5,-864 1824.5,-900"/>
<text text-anchor="middle" x="1747.5" y="-878.3" font-family="Times,serif" font-size="14.00">ragger.utils.structs</text>
</g>
<!-- ragger.backend.stub&#45;&gt;ragger.utils.structs -->
<g id="edge31" class="edge">
<title>ragger.backend.stub&#45;&gt;ragger.utils.structs</title>
<path fill="none" stroke="black" d="M1707.95,-684.15C1715.4,-721.25 1733.07,-809.19 1742.05,-853.9"/>
<polygon fill="black" stroke="black" points="1744.04,-863.77 1737.66,-854.85 1743.05,-858.87 1742.07,-853.96 1742.07,-853.96 1742.07,-853.96 1743.05,-858.87 1746.48,-853.08 1744.04,-863.77 1744.04,-863.77"/>
</g>
<!-- ragger.bip -->
<g id="node10" class="node">
<title>ragger.bip</title>
<polygon fill="#44bb99" stroke="#44bb99" points="2148.5,-36 2058.5,-36 2058.5,0 2148.5,0 2148.5,-36"/>
<text text-anchor="middle" x="2103.5" y="-14.3" font-family="Times,serif" font-size="14.00">ragger.bip</text>
</g>
<!-- ragger.bip.path -->
<g id="node11" class="node">
<title>ragger.bip.path</title>
<polygon fill="#44bb99" stroke="#44bb99" points="2094,-108 1967,-108 1967,-72 2094,-72 2094,-108"/>
<text text-anchor="middle" x="2030.5" y="-86.3" font-family="Times,serif" font-size="14.00">ragger.bip.path</text>
</g>
<!-- ragger.bip&#45;&gt;ragger.bip.path -->
<g id="edge32" class="edge">
<title>ragger.bip&#45;&gt;ragger.bip.path</title>
<path fill="none" stroke="black" d="M2085.46,-36.3C2076.44,-44.95 2065.38,-55.55 2055.56,-64.97"/>
<polygon fill="black" stroke="black" points="2048.34,-71.9 2052.44,-61.73 2051.95,-68.44 2055.56,-64.97 2055.56,-64.97 2055.56,-64.97 2051.95,-68.44 2058.67,-68.22 2048.34,-71.9 2048.34,-71.9"/>
</g>
<!-- ragger.bip.seed -->
<g id="node12" class="node">
<title>ragger.bip.seed</title>
<polygon fill="#44bb99" stroke="#44bb99" points="2240.5,-108 2112.5,-108 2112.5,-72 2240.5,-72 2240.5,-108"/>
<text text-anchor="middle" x="2176.5" y="-86.3" font-family="Times,serif" font-size="14.00">ragger.bip.seed</text>
</g>
<!-- ragger.bip&#45;&gt;ragger.bip.seed -->
<g id="edge33" class="edge">
<title>ragger.bip&#45;&gt;ragger.bip.seed</title>
<path fill="none" stroke="black" d="M2121.54,-36.3C2130.56,-44.95 2141.62,-55.55 2151.44,-64.97"/>
<polygon fill="black" stroke="black" points="2158.66,-71.9 2148.33,-68.22 2155.05,-68.44 2151.44,-64.97 2151.44,-64.97 2151.44,-64.97 2155.05,-68.44 2154.56,-61.73 2158.66,-71.9 2158.66,-71.9"/>
</g>
<!-- ragger.conftest -->
<g id="node13" class="node">
<title>ragger.conftest</title>
<polygon fill="#bbcc33" stroke="#bbcc33" points="2292,-36 2167,-36 2167,0 2292,0 2292,-36"/>
<text text-anchor="middle" x="2229.5" y="-14.3" font-family="Times,serif" font-size="14.00">ragger.conftest</text>
</g>
<!-- ragger.conftest.base_conftest -->
<g id="node14" class="node">
<title>ragger.conftest.base_conftest</title>
<polygon fill="#bbcc33" stroke="#bbcc33" points="1478,-36 1251,-36 1251,0 1478,0 1478,-36"/>
<text text-anchor="middle" x="1364.5" y="-14.3" font-family="Times,serif" font-size="14.00">ragger.conftest.base_conftest</text>
</g>
<!-- ragger.conftest.base_conftest&#45;&gt;ragger.backend -->
<g id="edge34" class="edge">
<title>ragger.conftest.base_conftest&#45;&gt;ragger.backend</title>
<path fill="none" stroke="black" d="M1478.3,-23.05C1573.03,-33.26 1692.5,-65.13 1692.5,-161 1692.5,-161 1692.5,-161 1692.5,-379 1692.5,-453.08 1459.48,-495.04 1336.51,-512.03"/>
<polygon fill="black" stroke="black" points="1326.41,-513.4 1335.71,-507.6 1331.37,-512.73 1336.32,-512.06 1336.32,-512.06 1336.32,-512.06 1331.37,-512.73 1336.93,-516.52 1326.41,-513.4 1326.41,-513.4"/>
</g>
<!-- ragger.conftest.base_conftest&#45;&gt;ragger.firmware -->
<g id="edge35" class="edge">
<title>ragger.conftest.base_conftest&#45;&gt;ragger.firmware</title>
<path fill="none" stroke="black" d="M1250.75,-20.75C952.8,-26.84 172.5,-53.08 172.5,-161 172.5,-161 172.5,-161 172.5,-235 172.5,-331.6 210.5,-352.4 210.5,-449 210.5,-449 210.5,-449 210.5,-595 210.5,-703.33 292.65,-716.44 393.5,-756 452.75,-779.24 626.41,-795.67 728.04,-803.61"/>
<polygon fill="black" stroke="black" points="738.25,-804.39 727.93,-808.11 733.26,-804.01 728.28,-803.62 728.28,-803.62 728.28,-803.62 733.26,-804.01 728.63,-799.14 738.25,-804.39 738.25,-804.39"/>
</g>
<!-- ragger.conftest.base_conftest&#45;&gt;ragger.logger -->
<g id="edge36" class="edge">
<title>ragger.conftest.base_conftest&#45;&gt;ragger.logger</title>
<path fill="none" stroke="black" d="M1250.94,-20.56C986.01,-24.75 342.54,-38.3 250.5,-72 189.48,-94.34 134.5,-96.02 134.5,-161 134.5,-161 134.5,-161 134.5,-811 134.5,-853.34 134.34,-874.97 168.5,-900 235.17,-948.85 804.51,-953.17 1001.64,-953.19"/>
<polygon fill="black" stroke="black" points="1011.86,-953.18 1001.86,-957.69 1006.86,-953.18 1001.86,-953.19 1001.86,-953.19 1001.86,-953.19 1006.86,-953.18 1001.86,-948.69 1011.86,-953.18 1011.86,-953.18"/>
</g>
<!-- ragger.navigator -->
<g id="node29" class="node">
<title>ragger.navigator</title>
<polygon fill="#ee8866" stroke="#ee8866" points="1151.5,-108 1015.5,-108 1015.5,-72 1151.5,-72 1151.5,-108"/>
<text text-anchor="middle" x="1083.5" y="-86.3" font-family="Times,serif" font-size="14.00">ragger.navigator</text>
</g>
<!-- ragger.conftest.base_conftest&#45;&gt;ragger.navigator -->
<g id="edge37" class="edge">
<title>ragger.conftest.base_conftest&#45;&gt;ragger.navigator</title>
<path fill="none" stroke="black" d="M1296.12,-36.03C1255.51,-46.15 1203.88,-59.01 1161.66,-69.53"/>
<polygon fill="black" stroke="black" points="1151.7,-72.01 1160.32,-65.23 1156.55,-70.8 1161.4,-69.59 1161.4,-69.59 1161.4,-69.59 1156.55,-70.8 1162.49,-73.96 1151.7,-72.01 1151.7,-72.01"/>
</g>
<!-- ragger.conftest.base_conftest&#45;&gt;ragger.utils -->
<g id="edge38" class="edge">
<title>ragger.conftest.base_conftest&#45;&gt;ragger.utils</title>
<path fill="none" stroke="black" d="M1478.31,-26.81C1632.98,-40.6 1890.5,-76.28 1890.5,-161 1890.5,-161 1890.5,-161 1890.5,-595 1890.5,-708.86 1744.13,-768.86 1659,-794.12"/>
<polygon fill="black" stroke="black" points="1649.19,-796.96 1657.55,-789.86 1654,-795.57 1658.8,-794.18 1658.8,-794.18 1658.8,-794.18 1654,-795.57 1660.05,-798.5 1649.19,-796.96 1649.19,-796.96"/>
</g>
<!-- ragger.utils.misc -->
<g id="node36" class="node">
<title>ragger.utils.misc</title>
<polygon fill="#ffaabb" stroke="#ffaabb" points="2018,-900 1881,-900 1881,-864 2018,-864 2018,-900"/>
<text text-anchor="middle" x="1949.5" y="-878.3" font-family="Times,serif" font-size="14.00">ragger.utils.misc</text>
</g>
<!-- ragger.conftest.base_conftest&#45;&gt;ragger.utils.misc -->
<g id="edge39" class="edge">
<title>ragger.conftest.base_conftest&#45;&gt;ragger.utils.misc</title>
<path fill="none" stroke="black" d="M1478.22,-25.56C1592.04,-33.32 1758.6,-48.27 1818.5,-72 1880.23,-96.46 1938.5,-94.6 1938.5,-161 1938.5,-161 1938.5,-161 1938.5,-739 1938.5,-779.12 1942.92,-825.43 1946.16,-853.97"/>
<polygon fill="black" stroke="black" points="1947.33,-863.98 1941.7,-854.57 1946.75,-859.02 1946.17,-854.05 1946.17,-854.05 1946.17,-854.05 1946.75,-859.02 1950.64,-853.53 1947.33,-863.98 1947.33,-863.98"/>
</g>
<!-- ragger.conftest.configuration -->
<g id="node15" class="node">
<title>ragger.conftest.configuration</title>
<polygon fill="#bbcc33" stroke="#bbcc33" points="2534.5,-36 2310.5,-36 2310.5,0 2534.5,0 2534.5,-36"/>
<text text-anchor="middle" x="2422.5" y="-14.3" font-family="Times,serif" font-size="14.00">ragger.conftest.configuration</text>
</g>
<!-- ragger.firmware.structs -->
<g id="node18" class="node">
<title>ragger.firmware.structs</title>
<polygon fill="#aaaa00" stroke="#aaaa00" points="898,-900 711,-900 711,-864 898,-864 898,-900"/>
<text text-anchor="middle" x="804.5" y="-878.3" font-family="Times,serif" font-size="14.00">ragger.firmware.structs</text>
</g>
<!-- ragger.firmware&#45;&gt;ragger.firmware.structs -->
<g id="edge40" class="edge">
<title>ragger.firmware&#45;&gt;ragger.firmware.structs</title>
<path fill="none" stroke="black" d="M804.5,-828.3C804.5,-836.02 804.5,-845.29 804.5,-853.89"/>
<polygon fill="black" stroke="black" points="804.5,-863.9 800,-853.9 804.5,-858.9 804.5,-853.9 804.5,-853.9 804.5,-853.9 804.5,-858.9 809,-853.9 804.5,-863.9 804.5,-863.9"/>
</g>
<!-- ragger.firmware.touch -->
<g id="node19" class="node">
<title>ragger.firmware.touch</title>
<polygon fill="#aaaa00" stroke="#aaaa00" points="880.5,-252 704.5,-252 704.5,-216 880.5,-216 880.5,-252"/>
<text text-anchor="middle" x="792.5" y="-230.3" font-family="Times,serif" font-size="14.00">ragger.firmware.touch</text>
</g>
<!-- ragger.firmware.touch.screen -->
<g id="node23" class="node">
<title>ragger.firmware.touch.screen</title>
<polygon fill="#aaaa00" stroke="#aaaa00" points="871.5,-324 643.5,-324 643.5,-288 871.5,-288 871.5,-324"/>
<text text-anchor="middle" x="757.5" y="-302.3" font-family="Times,serif" font-size="14.00">ragger.firmware.touch.screen</text>
</g>
<!-- ragger.firmware.touch&#45;&gt;ragger.firmware.touch.screen -->
<g id="edge41" class="edge">
<title>ragger.firmware.touch&#45;&gt;ragger.firmware.touch.screen</title>
<path fill="none" stroke="black" d="M783.85,-252.3C779.86,-260.27 775.05,-269.9 770.63,-278.74"/>
<polygon fill="black" stroke="black" points="766.05,-287.9 766.5,-276.94 768.29,-283.42 770.52,-278.95 770.52,-278.95 770.52,-278.95 768.29,-283.42 774.55,-280.96 766.05,-287.9 766.05,-287.9"/>
</g>
<!-- ragger.firmware.touch.element -->
<g id="node20" class="node">
<title>ragger.firmware.touch.element</title>
<polygon fill="#aaaa00" stroke="#aaaa00" points="714,-468 475,-468 475,-432 714,-432 714,-468"/>
<text text-anchor="middle" x="594.5" y="-446.3" font-family="Times,serif" font-size="14.00">ragger.firmware.touch.element</text>
</g>
<!-- ragger.firmware.touch.element&#45;&gt;ragger.backend -->
<g id="edge42" class="edge">
<title>ragger.firmware.touch.element&#45;&gt;ragger.backend</title>
<path fill="none" stroke="black" d="M714.31,-463.55C852.07,-477.99 1073.92,-501.24 1188.59,-513.25"/>
<polygon fill="black" stroke="black" points="1198.67,-514.31 1188.26,-517.74 1193.7,-513.79 1188.72,-513.27 1188.72,-513.27 1188.72,-513.27 1193.7,-513.79 1189.19,-508.79 1198.67,-514.31 1198.67,-514.31"/>
</g>
<!-- ragger.firmware.touch.element&#45;&gt;ragger.firmware -->
<g id="edge43" class="edge">
<title>ragger.firmware.touch.element&#45;&gt;ragger.firmware</title>
<path fill="none" stroke="black" d="M516.65,-468.04C496.46,-475.92 476.49,-487.37 462.5,-504 436.45,-534.94 443.5,-552.55 443.5,-593 443.5,-593 443.5,-593 443.5,-667 443.5,-727.68 622.34,-773.29 728.27,-794.98"/>
<polygon fill="black" stroke="black" points="738.29,-797 727.59,-799.43 733.39,-796.01 728.49,-795.02 728.49,-795.02 728.49,-795.02 733.39,-796.01 729.38,-790.61 738.29,-797 738.29,-797"/>
</g>
<!-- ragger.firmware.touch.positions -->
<g id="node22" class="node">
<title>ragger.firmware.touch.positions</title>
<polygon fill="#aaaa00" stroke="#aaaa00" points="717,-540 472,-540 472,-504 717,-504 717,-540"/>
<text text-anchor="middle" x="594.5" y="-518.3" font-family="Times,serif" font-size="14.00">ragger.firmware.touch.positions</text>
</g>
<!-- ragger.firmware.touch.element&#45;&gt;ragger.firmware.touch.positions -->
<g id="edge44" class="edge">
<title>ragger.firmware.touch.element&#45;&gt;ragger.firmware.touch.positions</title>
<path fill="none" stroke="black" d="M594.5,-468.3C594.5,-476.02 594.5,-485.29 594.5,-493.89"/>
<polygon fill="black" stroke="black" points="594.5,-503.9 590,-493.9 594.5,-498.9 594.5,-493.9 594.5,-493.9 594.5,-493.9 594.5,-498.9 599,-493.9 594.5,-503.9 594.5,-503.9"/>
</g>
<!-- ragger.firmware.touch.layouts -->
<g id="node21" class="node">
<title>ragger.firmware.touch.layouts</title>
<polygon fill="#aaaa00" stroke="#aaaa00" points="856,-396 623,-396 623,-360 856,-360 856,-396"/>
<text text-anchor="middle" x="739.5" y="-374.3" font-family="Times,serif" font-size="14.00">ragger.firmware.touch.layouts</text>
</g>
<!-- ragger.firmware.touch.layouts&#45;&gt;ragger.firmware.touch.element -->
<g id="edge45" class="edge">
<title>ragger.firmware.touch.layouts&#45;&gt;ragger.firmware.touch.element</title>
<path fill="none" stroke="black" d="M704.03,-396.12C684.38,-405.61 659.78,-417.49 638.87,-427.58"/>
<polygon fill="black" stroke="black" points="629.86,-431.93 636.9,-423.53 634.36,-429.76 638.86,-427.58 638.86,-427.58 638.86,-427.58 634.36,-429.76 640.82,-431.64 629.86,-431.93 629.86,-431.93"/>
</g>
<!-- ragger.firmware.touch.positions&#45;&gt;ragger.firmware -->
<g id="edge46" class="edge">
<title>ragger.firmware.touch.positions&#45;&gt;ragger.firmware</title>
<path fill="none" stroke="black" d="M599.64,-540.19C612.78,-581.69 651.06,-688.86 714.5,-756 726.15,-768.33 741.31,-778.73 755.86,-786.96"/>
<polygon fill="black" stroke="black" points="764.8,-791.8 753.86,-791 760.4,-789.42 756.01,-787.04 756.01,-787.04 756.01,-787.04 760.4,-789.42 758.15,-783.08 764.8,-791.8 764.8,-791.8"/>
</g>
<!-- ragger.firmware.touch.screen&#45;&gt;ragger.backend -->
<g id="edge47" class="edge">
<title>ragger.firmware.touch.screen&#45;&gt;ragger.backend</title>
<path fill="none" stroke="black" d="M835.41,-324.06C857.86,-332.01 881,-343.49 898.5,-360 936.72,-396.04 904.98,-435.82 946.5,-468 983.34,-496.55 1107.36,-510.44 1188.64,-516.62"/>
<polygon fill="black" stroke="black" points="1198.82,-517.37 1188.52,-521.12 1193.83,-517 1188.85,-516.63 1188.85,-516.63 1188.85,-516.63 1193.83,-517 1189.18,-512.15 1198.82,-517.37 1198.82,-517.37"/>
</g>
<!-- ragger.firmware.touch.screen&#45;&gt;ragger.firmware -->
<g id="edge48" class="edge">
<title>ragger.firmware.touch.screen&#45;&gt;ragger.firmware</title>
<path fill="none" stroke="black" d="M819.75,-324.05C837.25,-332.02 854.28,-343.53 864.5,-360 894.42,-408.21 857.98,-373.27 795.5,-576 785.82,-607.42 782.3,-615.34 778.5,-648 772.94,-695.71 771.81,-709.17 782.5,-756 784.54,-764.94 787.96,-774.29 791.49,-782.62"/>
<polygon fill="black" stroke="black" points="795.63,-791.82 787.43,-784.55 793.58,-787.26 791.53,-782.7 791.53,-782.7 791.53,-782.7 793.58,-787.26 795.64,-780.86 795.63,-791.82 795.63,-791.82"/>
</g>
<!-- ragger.firmware.touch.screen&#45;&gt;ragger.firmware.touch.element -->
<g id="edge49" class="edge">
<title>ragger.firmware.touch.screen&#45;&gt;ragger.firmware.touch.element</title>
<path fill="none" stroke="black" d="M668.94,-324.01C648.21,-331.85 627.98,-343.29 613.5,-360 598.83,-376.92 594.58,-402.39 593.71,-421.75"/>
<polygon fill="black" stroke="black" points="593.53,-431.79 589.21,-421.71 593.62,-426.79 593.71,-421.79 593.71,-421.79 593.71,-421.79 593.62,-426.79 598.21,-421.87 593.53,-431.79 593.53,-431.79"/>
</g>
<!-- ragger.firmware.touch.screen&#45;&gt;ragger.firmware.touch.layouts -->
<g id="edge50" class="edge">
<title>ragger.firmware.touch.screen&#45;&gt;ragger.firmware.touch.layouts</title>
<path fill="none" stroke="black" d="M753.05,-324.3C751.05,-332.1 748.63,-341.49 746.4,-350.17"/>
<polygon fill="black" stroke="black" points="743.9,-359.9 742.03,-349.09 745.14,-355.05 746.39,-350.21 746.39,-350.21 746.39,-350.21 745.14,-355.05 750.75,-351.33 743.9,-359.9 743.9,-359.9"/>
</g>
<!-- ragger.firmware.touch.use_cases -->
<g id="node24" class="node">
<title>ragger.firmware.touch.use_cases</title>
<polygon fill="#aaaa00" stroke="#aaaa00" points="566,-396 315,-396 315,-360 566,-360 566,-396"/>
<text text-anchor="middle" x="440.5" y="-374.3" font-family="Times,serif" font-size="14.00">ragger.firmware.touch.use_cases</text>
</g>
<!-- ragger.firmware.touch.screen&#45;&gt;ragger.firmware.touch.use_cases -->
<g id="edge51" class="edge">
<title>ragger.firmware.touch.screen&#45;&gt;ragger.firmware.touch.use_cases</title>
<path fill="none" stroke="black" d="M680.36,-324.03C634.25,-334.22 575.53,-347.18 527.74,-357.74"/>
<polygon fill="black" stroke="black" points="517.71,-359.95 526.51,-353.4 522.59,-358.87 527.48,-357.79 527.48,-357.79 527.48,-357.79 522.59,-358.87 528.45,-362.19 517.71,-359.95 517.71,-359.95"/>
</g>
<!-- ragger.firmware.touch.use_cases&#45;&gt;ragger.firmware.touch.element -->
<g id="edge52" class="edge">
<title>ragger.firmware.touch.use_cases&#45;&gt;ragger.firmware.touch.element</title>
<path fill="none" stroke="black" d="M478.17,-396.12C499.13,-405.65 525.4,-417.59 547.68,-427.72"/>
<polygon fill="black" stroke="black" points="556.95,-431.93 545.98,-431.89 552.4,-429.86 547.85,-427.79 547.85,-427.79 547.85,-427.79 552.4,-429.86 549.71,-423.7 556.95,-431.93 556.95,-431.93"/>
</g>
<!-- ragger.gui.process -->
<g id="node27" class="node">
<title>ragger.gui.process</title>
<polygon fill="#eedd88" stroke="#eedd88" points="1189,-828 1040,-828 1040,-792 1189,-792 1189,-828"/>
<text text-anchor="middle" x="1114.5" y="-806.3" font-family="Times,serif" font-size="14.00">ragger.gui.process</text>
</g>
<!-- ragger.gui&#45;&gt;ragger.gui.process -->
<g id="edge53" class="edge">
<title>ragger.gui&#45;&gt;ragger.gui.process</title>
<path fill="none" stroke="black" d="M1136.33,-756.3C1133.07,-764.19 1129.13,-773.7 1125.5,-782.45"/>
<polygon fill="black" stroke="black" points="1121.59,-791.9 1121.26,-780.93 1123.5,-787.28 1125.41,-782.66 1125.41,-782.66 1125.41,-782.66 1123.5,-787.28 1129.57,-784.38 1121.59,-791.9 1121.59,-791.9"/>
</g>
<!-- ragger.gui.interface -->
<g id="node26" class="node">
<title>ragger.gui.interface</title>
<polygon fill="#eedd88" stroke="#eedd88" points="1201.5,-900 1043.5,-900 1043.5,-864 1201.5,-864 1201.5,-900"/>
<text text-anchor="middle" x="1122.5" y="-878.3" font-family="Times,serif" font-size="14.00">ragger.gui.interface</text>
</g>
<!-- ragger.gui.interface&#45;&gt;ragger.logger -->
<g id="edge54" class="edge">
<title>ragger.gui.interface&#45;&gt;ragger.logger</title>
<path fill="none" stroke="black" d="M1109.15,-900.3C1102.74,-908.61 1094.94,-918.72 1087.89,-927.86"/>
<polygon fill="black" stroke="black" points="1081.69,-935.9 1084.24,-925.23 1084.75,-931.94 1087.8,-927.98 1087.8,-927.98 1087.8,-927.98 1084.75,-931.94 1091.37,-930.73 1081.69,-935.9 1081.69,-935.9"/>
</g>
<!-- ragger.gui.process&#45;&gt;ragger.gui.interface -->
<g id="edge55" class="edge">
<title>ragger.gui.process&#45;&gt;ragger.gui.interface</title>
<path fill="none" stroke="black" d="M1116.48,-828.3C1117.36,-836.02 1118.42,-845.29 1119.4,-853.89"/>
<polygon fill="black" stroke="black" points="1120.55,-863.9 1114.94,-854.47 1119.98,-858.93 1119.41,-853.96 1119.41,-853.96 1119.41,-853.96 1119.98,-858.93 1123.88,-853.45 1120.55,-863.9 1120.55,-863.9"/>
</g>
<!-- ragger.gui.process&#45;&gt;ragger.logger -->
<g id="edge56" class="edge">
<title>ragger.gui.process&#45;&gt;ragger.logger</title>
<path fill="none" stroke="black" d="M1073.32,-828C1058.29,-836.46 1042.93,-848.29 1034.5,-864 1023.54,-884.41 1034.75,-909.13 1047.16,-927.34"/>
<polygon fill="black" stroke="black" points="1053.25,-935.7 1043.72,-930.27 1050.3,-931.66 1047.36,-927.62 1047.36,-927.62 1047.36,-927.62 1050.3,-931.66 1051,-924.97 1053.25,-935.7 1053.25,-935.7"/>
</g>
<!-- ragger.gui.process&#45;&gt;ragger.navigator.instruction -->
<g id="edge57" class="edge">
<title>ragger.gui.process&#45;&gt;ragger.navigator.instruction</title>
<path fill="none" stroke="black" d="M1039.71,-826.08C1035.25,-826.78 1030.82,-827.43 1026.5,-828 808.43,-856.77 551.99,-870.74 405.43,-876.85"/>
<polygon fill="black" stroke="black" points="395.06,-877.28 404.87,-872.37 400.06,-877.08 405.06,-876.87 405.06,-876.87 405.06,-876.87 400.06,-877.08 405.24,-881.37 395.06,-877.28 395.06,-877.28"/>
</g>
<!-- ragger.navigator&#45;&gt;ragger.navigator.instruction -->
<g id="edge58" class="edge">
<title>ragger.navigator&#45;&gt;ragger.navigator.instruction</title>
<path fill="none" stroke="black" d="M1015.22,-92.76C840.02,-98.6 380.31,-122.65 265.5,-216 178.99,-286.34 172.5,-337.5 172.5,-449 172.5,-449 172.5,-449 172.5,-739 172.5,-790 217.77,-833.12 251.26,-858.03"/>
<polygon fill="black" stroke="black" points="259.48,-863.96 248.74,-861.76 255.43,-861.04 251.37,-858.11 251.37,-858.11 251.37,-858.11 255.43,-861.04 254.01,-854.46 259.48,-863.96 259.48,-863.96"/>
</g>
<!-- ragger.navigator.nano_navigator -->
<g id="node31" class="node">
<title>ragger.navigator.nano_navigator</title>
<polygon fill="#ee8866" stroke="#ee8866" points="1312.5,-396 1064.5,-396 1064.5,-360 1312.5,-360 1312.5,-396"/>
<text text-anchor="middle" x="1188.5" y="-374.3" font-family="Times,serif" font-size="14.00">ragger.navigator.nano_navigator</text>
</g>
<!-- ragger.navigator&#45;&gt;ragger.navigator.nano_navigator -->
<g id="edge59" class="edge">
<title>ragger.navigator&#45;&gt;ragger.navigator.nano_navigator</title>
<path fill="none" stroke="black" d="M1089.75,-108.03C1107.33,-155.91 1157.27,-291.94 1178.62,-350.1"/>
<polygon fill="black" stroke="black" points="1182.15,-359.69 1174.48,-351.86 1180.42,-355 1178.7,-350.31 1178.7,-350.31 1178.7,-350.31 1180.42,-355 1182.92,-348.76 1182.15,-359.69 1182.15,-359.69"/>
</g>
<!-- ragger.navigator.navigation_scenario -->
<g id="node32" class="node">
<title>ragger.navigator.navigation_scenario</title>
<polygon fill="#ee8866" stroke="#ee8866" points="1612,-396 1331,-396 1331,-360 1612,-360 1612,-396"/>
<text text-anchor="middle" x="1471.5" y="-374.3" font-family="Times,serif" font-size="14.00">ragger.navigator.navigation_scenario</text>
</g>
<!-- ragger.navigator&#45;&gt;ragger.navigator.navigation_scenario -->
<g id="edge60" class="edge">
<title>ragger.navigator&#45;&gt;ragger.navigator.navigation_scenario</title>
<path fill="none" stroke="black" d="M1106.61,-108.03C1172.9,-156.9 1363.8,-297.61 1439.76,-353.61"/>
<polygon fill="black" stroke="black" points="1448.02,-359.69 1437.3,-357.38 1444,-356.73 1439.97,-353.76 1439.97,-353.76 1439.97,-353.76 1444,-356.73 1442.64,-350.14 1448.02,-359.69 1448.02,-359.69"/>
</g>
<!-- ragger.navigator.navigator -->
<g id="node33" class="node">
<title>ragger.navigator.navigator</title>
<polygon fill="#ee8866" stroke="#ee8866" points="1196,-468 989,-468 989,-432 1196,-432 1196,-468"/>
<text text-anchor="middle" x="1092.5" y="-446.3" font-family="Times,serif" font-size="14.00">ragger.navigator.navigator</text>
</g>
<!-- ragger.navigator&#45;&gt;ragger.navigator.navigator -->
<g id="edge61" class="edge">
<title>ragger.navigator&#45;&gt;ragger.navigator.navigator</title>
<path fill="none" stroke="black" d="M1073.76,-108.32C1059.99,-134.47 1036.5,-186 1036.5,-233 1036.5,-233 1036.5,-233 1036.5,-307 1036.5,-347.45 1039.38,-358.9 1055.5,-396 1059.68,-405.62 1065.75,-415.29 1071.76,-423.68"/>
<polygon fill="black" stroke="black" points="1077.93,-431.91 1068.33,-426.61 1074.93,-427.91 1071.93,-423.91 1071.93,-423.91 1071.93,-423.91 1074.93,-427.91 1075.53,-421.21 1077.93,-431.91 1077.93,-431.91"/>
</g>
<!-- ragger.navigator.touch_navigator -->
<g id="node34" class="node">
<title>ragger.navigator.touch_navigator</title>
<polygon fill="#ee8866" stroke="#ee8866" points="937.5,-180 683.5,-180 683.5,-144 937.5,-144 937.5,-180"/>
<text text-anchor="middle" x="810.5" y="-158.3" font-family="Times,serif" font-size="14.00">ragger.navigator.touch_navigator</text>
</g>
<!-- ragger.navigator&#45;&gt;ragger.navigator.touch_navigator -->
<g id="edge62" class="edge">
<title>ragger.navigator&#45;&gt;ragger.navigator.touch_navigator</title>
<path fill="none" stroke="black" d="M1017.07,-108.03C977.84,-118.09 928.03,-130.86 887.15,-141.35"/>
<polygon fill="black" stroke="black" points="877.23,-143.89 885.8,-137.05 882.08,-142.65 886.92,-141.41 886.92,-141.41 886.92,-141.41 882.08,-142.65 888.04,-145.76 877.23,-143.89 877.23,-143.89"/>
</g>
<!-- ragger.navigator.nano_navigator&#45;&gt;ragger.backend -->
<g id="edge63" class="edge">
<title>ragger.navigator.nano_navigator&#45;&gt;ragger.backend</title>
<path fill="none" stroke="black" d="M1208.82,-396.06C1219.07,-405.65 1230.91,-418.42 1238.5,-432 1249.27,-451.27 1255.4,-475.61 1258.77,-493.96"/>
<polygon fill="black" stroke="black" points="1260.44,-503.99 1254.36,-494.87 1259.62,-499.06 1258.8,-494.13 1258.8,-494.13 1258.8,-494.13 1259.62,-499.06 1263.23,-493.39 1260.44,-503.99 1260.44,-503.99"/>
</g>
<!-- ragger.navigator.nano_navigator&#45;&gt;ragger.firmware -->
<g id="edge64" class="edge">
<title>ragger.navigator.nano_navigator&#45;&gt;ragger.firmware</title>
<path fill="none" stroke="black" d="M1198.57,-396.34C1208.26,-415.55 1219.42,-446.63 1204.5,-468 1177.94,-506.05 1149.85,-487.46 1106.5,-504 976.49,-553.59 899.76,-528.48 828.5,-648 803.69,-689.62 801.35,-747.7 802.5,-781.53"/>
<polygon fill="black" stroke="black" points="802.98,-791.61 798.01,-781.83 802.74,-786.62 802.51,-781.62 802.51,-781.62 802.51,-781.62 802.74,-786.62 807,-781.41 802.98,-791.61 802.98,-791.61"/>
</g>
<!-- ragger.navigator.nano_navigator&#45;&gt;ragger.navigator.navigator -->
<g id="edge65" class="edge">
<title>ragger.navigator.nano_navigator&#45;&gt;ragger.navigator.navigator</title>
<path fill="none" stroke="black" d="M1164.77,-396.3C1152.56,-405.2 1137.51,-416.18 1124.32,-425.8"/>
<polygon fill="black" stroke="black" points="1115.96,-431.9 1121.39,-422.37 1120,-428.95 1124.04,-426 1124.04,-426 1124.04,-426 1120,-428.95 1126.69,-429.64 1115.96,-431.9 1115.96,-431.9"/>
</g>
<!-- ragger.navigator.navigation_scenario&#45;&gt;ragger.backend -->
<g id="edge66" class="edge">
<title>ragger.navigator.navigation_scenario&#45;&gt;ragger.backend</title>
<path fill="none" stroke="black" d="M1446.29,-396.13C1408.79,-421.61 1338.23,-469.55 1296.29,-498.04"/>
<polygon fill="black" stroke="black" points="1287.8,-503.81 1293.54,-494.47 1291.94,-501 1296.07,-498.19 1296.07,-498.19 1296.07,-498.19 1291.94,-501 1298.6,-501.91 1287.8,-503.81 1287.8,-503.81"/>
</g>
<!-- ragger.navigator.navigation_scenario&#45;&gt;ragger.backend.interface -->
<g id="edge67" class="edge">
<title>ragger.navigator.navigation_scenario&#45;&gt;ragger.backend.interface</title>
<path fill="none" stroke="black" d="M1487.21,-396.25C1520.77,-435.27 1593.63,-533.11 1558.5,-612 1538.22,-657.54 1492.12,-693.15 1458.13,-714.52"/>
<polygon fill="black" stroke="black" points="1449.34,-719.91 1455.51,-710.85 1453.6,-717.3 1457.86,-714.69 1457.86,-714.69 1457.86,-714.69 1453.6,-717.3 1460.21,-718.52 1449.34,-719.91 1449.34,-719.91"/>
</g>
<!-- ragger.navigator.navigation_scenario&#45;&gt;ragger.firmware -->
<g id="edge68" class="edge">
<title>ragger.navigator.navigation_scenario&#45;&gt;ragger.firmware</title>
<path fill="none" stroke="black" d="M1428.33,-396.08C1402.29,-406.41 1368.46,-419.89 1338.5,-432 1182.18,-495.21 1136.88,-497.78 987.5,-576 935.41,-603.28 914.74,-603.33 876.5,-648 842.04,-688.26 821.26,-747.68 811.42,-781.95"/>
<polygon fill="black" stroke="black" points="808.71,-791.73 807.04,-780.89 810.05,-786.91 811.38,-782.09 811.38,-782.09 811.38,-782.09 810.05,-786.91 815.72,-783.29 808.71,-791.73 808.71,-791.73"/>
</g>
<!-- ragger.navigator.navigation_scenario&#45;&gt;ragger.navigator.navigator -->
<g id="edge69" class="edge">
<title>ragger.navigator.navigation_scenario&#45;&gt;ragger.navigator.navigator</title>
<path fill="none" stroke="black" d="M1379.27,-396.03C1323.45,-406.34 1252.18,-419.51 1194.65,-430.13"/>
<polygon fill="black" stroke="black" points="1184.81,-431.95 1193.83,-425.71 1189.73,-431.04 1194.65,-430.13 1194.65,-430.13 1194.65,-430.13 1189.73,-431.04 1195.46,-434.56 1184.81,-431.95 1184.81,-431.95"/>
</g>
<!-- ragger.navigator.navigator&#45;&gt;ragger.backend -->
<g id="edge70" class="edge">
<title>ragger.navigator.navigator&#45;&gt;ragger.backend</title>
<path fill="none" stroke="black" d="M1134.09,-468.12C1157.53,-477.78 1187,-489.91 1211.8,-500.12"/>
<polygon fill="black" stroke="black" points="1221.05,-503.93 1210.09,-504.29 1216.42,-502.03 1211.8,-500.12 1211.8,-500.12 1211.8,-500.12 1216.42,-502.03 1213.51,-495.96 1221.05,-503.93 1221.05,-503.93"/>
</g>
<!-- ragger.navigator.navigator&#45;&gt;ragger.firmware -->
<g id="edge71" class="edge">
<title>ragger.navigator.navigator&#45;&gt;ragger.firmware</title>
<path fill="none" stroke="black" d="M1026.1,-468.06C967.12,-486.19 881.92,-520.11 826.5,-576 769.06,-633.93 779.99,-675.09 790.5,-756 791.6,-764.49 793.66,-773.57 795.87,-781.76"/>
<polygon fill="black" stroke="black" points="798.68,-791.56 791.59,-783.19 797.3,-786.75 795.92,-781.95 795.92,-781.95 795.92,-781.95 797.3,-786.75 800.24,-780.71 798.68,-791.56 798.68,-791.56"/>
</g>
<!-- ragger.navigator.navigator&#45;&gt;ragger.navigator.instruction -->
<g id="edge72" class="edge">
<title>ragger.navigator.navigator&#45;&gt;ragger.navigator.instruction</title>
<path fill="none" stroke="black" d="M988.97,-457C815.7,-467.43 483.73,-489.2 462.5,-504 340.21,-589.28 300.71,-782.12 289.99,-853.64"/>
<polygon fill="black" stroke="black" points="288.56,-863.66 285.52,-853.12 289.26,-858.71 289.97,-853.76 289.97,-853.76 289.97,-853.76 289.26,-858.71 294.43,-854.4 288.56,-863.66 288.56,-863.66"/>
</g>
<!-- ragger.navigator.navigator&#45;&gt;ragger.utils -->
<g id="edge73" class="edge">
<title>ragger.navigator.navigator&#45;&gt;ragger.utils</title>
<path fill="none" stroke="black" d="M1196.04,-464.11C1374.01,-489.07 1725.53,-549.87 1794.5,-648 1803.7,-661.09 1802.18,-669.96 1794.5,-684 1777.89,-714.37 1695.43,-760.43 1643.2,-787.33"/>
<polygon fill="black" stroke="black" points="1634.14,-791.97 1640.99,-783.41 1638.59,-789.69 1643.04,-787.41 1643.04,-787.41 1643.04,-787.41 1638.59,-789.69 1645.09,-791.42 1634.14,-791.97 1634.14,-791.97"/>
</g>
<!-- ragger.navigator.touch_navigator&#45;&gt;ragger.backend -->
<g id="edge74" class="edge">
<title>ragger.navigator.touch_navigator&#45;&gt;ragger.backend</title>
<path fill="none" stroke="black" d="M850.7,-180.06C895.13,-201.92 960.5,-244.4 960.5,-305 960.5,-305 960.5,-305 960.5,-379 960.5,-419.45 950.54,-439.76 979.5,-468 1008.6,-496.37 1114.9,-510.08 1188.6,-516.31"/>
<polygon fill="black" stroke="black" points="1198.77,-517.14 1188.44,-520.81 1193.79,-516.74 1188.8,-516.33 1188.8,-516.33 1188.8,-516.33 1193.79,-516.74 1189.17,-511.84 1198.77,-517.14 1198.77,-517.14"/>
</g>
<!-- ragger.navigator.touch_navigator&#45;&gt;ragger.firmware -->
<g id="edge75" class="edge">
<title>ragger.navigator.touch_navigator&#45;&gt;ragger.firmware</title>
<path fill="none" stroke="black" d="M683.32,-172.17C528.23,-186.92 286.5,-223.06 286.5,-305 286.5,-305 286.5,-305 286.5,-595 286.5,-711.2 386.2,-709.06 492.5,-756 568.36,-789.5 663.21,-801.92 728.3,-806.47"/>
<polygon fill="black" stroke="black" points="738.48,-807.14 728.21,-810.98 733.49,-806.81 728.5,-806.49 728.5,-806.49 728.5,-806.49 733.49,-806.81 728.8,-802 738.48,-807.14 738.48,-807.14"/>
</g>
<!-- ragger.navigator.touch_navigator&#45;&gt;ragger.firmware.touch -->
<g id="edge76" class="edge">
<title>ragger.navigator.touch_navigator&#45;&gt;ragger.firmware.touch</title>
<path fill="none" stroke="black" d="M806.05,-180.3C804.05,-188.1 801.63,-197.49 799.4,-206.17"/>
<polygon fill="black" stroke="black" points="796.9,-215.9 795.03,-205.09 798.14,-211.05 799.39,-206.21 799.39,-206.21 799.39,-206.21 798.14,-211.05 803.75,-207.33 796.9,-215.9 796.9,-215.9"/>
</g>
<!-- ragger.navigator.touch_navigator&#45;&gt;ragger.navigator.instruction -->
<g id="edge77" class="edge">
<title>ragger.navigator.touch_navigator&#45;&gt;ragger.navigator.instruction</title>
<path fill="none" stroke="black" d="M683.25,-166.68C561.41,-172.04 387.5,-184.99 327.5,-216 280.51,-240.29 248.5,-252.11 248.5,-305 248.5,-305 248.5,-305 248.5,-739 248.5,-780.37 263.73,-826.28 274.91,-854.39"/>
<polygon fill="black" stroke="black" points="278.81,-863.91 270.85,-856.36 276.91,-859.28 275.02,-854.65 275.02,-854.65 275.02,-854.65 276.91,-859.28 279.18,-852.95 278.81,-863.91 278.81,-863.91"/>
</g>
<!-- ragger.navigator.touch_navigator&#45;&gt;ragger.navigator.navigator -->
<g id="edge78" class="edge">
<title>ragger.navigator.touch_navigator&#45;&gt;ragger.navigator.navigator</title>
<path fill="none" stroke="black" d="M916.07,-180.14C937.75,-187.99 958.74,-199.4 974.5,-216 1031.5,-276.05 976.32,-327.28 1022.5,-396 1030.36,-407.7 1041.67,-417.85 1052.91,-426.06"/>
<polygon fill="black" stroke="black" points="1061.44,-431.95 1050.66,-429.97 1057.33,-429.11 1053.21,-426.27 1053.21,-426.27 1053.21,-426.27 1057.33,-429.11 1055.77,-422.57 1061.44,-431.95 1061.44,-431.95"/>
</g>
<!-- ragger.utils&#45;&gt;ragger.utils.misc -->
<g id="edge79" class="edge">
<title>ragger.utils&#45;&gt;ragger.utils.misc</title>
<path fill="none" stroke="black" d="M1649.27,-820.95C1706.99,-832.5 1802.86,-851.67 1870.72,-865.24"/>
<polygon fill="black" stroke="black" points="1880.94,-867.29 1870.25,-869.74 1876.04,-866.31 1871.14,-865.33 1871.14,-865.33 1871.14,-865.33 1876.04,-866.31 1872.02,-860.91 1880.94,-867.29 1880.94,-867.29"/>
</g>
<!-- ragger.utils.packing -->
<g id="node37" class="node">
<title>ragger.utils.packing</title>
<polygon fill="#ffaabb" stroke="#ffaabb" points="1652,-900 1493,-900 1493,-864 1652,-864 1652,-900"/>
<text text-anchor="middle" x="1572.5" y="-878.3" font-family="Times,serif" font-size="14.00">ragger.utils.packing</text>
</g>
<!-- ragger.utils&#45;&gt;ragger.utils.packing -->
<g id="edge80" class="edge">
<title>ragger.utils&#45;&gt;ragger.utils.packing</title>
<path fill="none" stroke="black" d="M1592.83,-828.3C1589.79,-836.19 1586.12,-845.7 1582.74,-854.45"/>
<polygon fill="black" stroke="black" points="1579.1,-863.9 1578.5,-852.95 1580.9,-859.23 1582.7,-854.57 1582.7,-854.57 1582.7,-854.57 1580.9,-859.23 1586.89,-856.19 1579.1,-863.9 1579.1,-863.9"/>
</g>
<!-- ragger.utils&#45;&gt;ragger.utils.structs -->
<g id="edge81" class="edge">
<title>ragger.utils&#45;&gt;ragger.utils.structs</title>
<path fill="none" stroke="black" d="M1635.7,-828.12C1655.76,-837.61 1680.87,-849.49 1702.21,-859.58"/>
<polygon fill="black" stroke="black" points="1711.41,-863.93 1700.45,-863.72 1706.89,-861.79 1702.37,-859.66 1702.37,-859.66 1702.37,-859.66 1706.89,-861.79 1704.3,-855.59 1711.41,-863.93 1711.41,-863.93"/>
</g>
<!-- ragger.utils.misc&#45;&gt;ragger.error -->
<g id="edge82" class="edge">
<title>ragger.utils.misc&#45;&gt;ragger.error</title>
<path fill="none" stroke="black" d="M1880.7,-897.17C1819.43,-909.78 1730.6,-928.07 1671.49,-940.24"/>
<polygon fill="black" stroke="black" points="1661.54,-942.29 1670.43,-935.86 1666.44,-941.28 1671.34,-940.27 1671.34,-940.27 1671.34,-940.27 1666.44,-941.28 1672.25,-944.68 1661.54,-942.29 1661.54,-942.29"/>
</g>
</g>
</svg>
