<?xml version="1.0" encoding="UTF-8" standalone="no"?>
<!DOCTYPE svg PUBLIC "-//W3C//DTD SVG 1.1//EN"
 "http://www.w3.org/Graphics/SVG/1.1/DTD/svg11.dtd">
<!-- Generated by graphviz version 2.43.0 (0)
 -->
<!-- Title: packages_generated_ragger_architecture Pages: 1 -->
<svg width="2383pt" height="908pt"
 viewBox="0.00 0.00 2382.50 908.00" xmlns="http://www.w3.org/2000/svg" xmlns:xlink="http://www.w3.org/1999/xlink">
<g id="graph0" class="graph" transform="scale(1 1) rotate(0) translate(4 904)">
<title>packages_generated_ragger_architecture</title>
<polygon fill="white" stroke="transparent" points="-4,4 -4,-904 2378.5,-904 2378.5,4 -4,4"/>
<!-- ragger -->
<g id="node1" class="node">
<title>ragger</title>
<polygon fill="aliceblue" stroke="aliceblue" points="1171,-828 1106,-828 1106,-792 1171,-792 1171,-828"/>
<text text-anchor="middle" x="1138.5" y="-806.3" font-family="Times,serif" font-size="14.00">ragger</text>
</g>
<!-- ragger.logger -->
<g id="node27" class="node">
<title>ragger.logger</title>
<polygon fill="aliceblue" stroke="aliceblue" points="1134,-900 1021,-900 1021,-864 1134,-864 1134,-900"/>
<text text-anchor="middle" x="1077.5" y="-878.3" font-family="Times,serif" font-size="14.00">ragger.logger</text>
</g>
<!-- ragger&#45;&gt;ragger.logger -->
<g id="edge1" class="edge">
<title>ragger&#45;&gt;ragger.logger</title>
<path fill="none" stroke="black" d="M1123.42,-828.3C1116.11,-836.7 1107.19,-846.93 1099.16,-856.14"/>
<polygon fill="black" stroke="black" points="1092.41,-863.9 1095.58,-853.4 1095.69,-860.13 1098.98,-856.36 1098.98,-856.36 1098.98,-856.36 1095.69,-860.13 1102.37,-859.31 1092.41,-863.9 1092.41,-863.9"/>
</g>
<!-- ragger.backend -->
<g id="node2" class="node">
<title>ragger.backend</title>
<polygon fill="antiquewhite" stroke="antiquewhite" points="1150,-468 1023,-468 1023,-432 1150,-432 1150,-468"/>
<text text-anchor="middle" x="1086.5" y="-446.3" font-family="Times,serif" font-size="14.00">ragger.backend</text>
</g>
<!-- ragger.backend.interface -->
<g id="node3" class="node">
<title>ragger.backend.interface</title>
<polygon fill="antiquewhite" stroke="antiquewhite" points="1171,-684 976,-684 976,-648 1171,-648 1171,-684"/>
<text text-anchor="middle" x="1073.5" y="-662.3" font-family="Times,serif" font-size="14.00">ragger.backend.interface</text>
</g>
<!-- ragger.backend&#45;&gt;ragger.backend.interface -->
<g id="edge2" class="edge">
<title>ragger.backend&#45;&gt;ragger.backend.interface</title>
<path fill="none" stroke="black" d="M1085.46,-468.15C1083.21,-505.17 1077.88,-592.82 1075.16,-637.61"/>
<polygon fill="black" stroke="black" points="1074.55,-647.77 1070.66,-637.51 1074.85,-642.78 1075.15,-637.79 1075.15,-637.79 1075.15,-637.79 1074.85,-642.78 1079.65,-638.06 1074.55,-647.77 1074.55,-647.77"/>
</g>
<!-- ragger.backend.ledgercomm -->
<g id="node4" class="node">
<title>ragger.backend.ledgercomm</title>
<polygon fill="antiquewhite" stroke="antiquewhite" points="915.5,-540 695.5,-540 695.5,-504 915.5,-504 915.5,-540"/>
<text text-anchor="middle" x="805.5" y="-518.3" font-family="Times,serif" font-size="14.00">ragger.backend.ledgercomm</text>
</g>
<!-- ragger.backend&#45;&gt;ragger.backend.ledgercomm -->
<g id="edge3" class="edge">
<title>ragger.backend&#45;&gt;ragger.backend.ledgercomm</title>
<path fill="none" stroke="black" d="M1022.74,-466.88C981.49,-477.16 927.51,-490.61 883.68,-501.52"/>
<polygon fill="black" stroke="black" points="873.92,-503.96 882.54,-497.17 878.77,-502.75 883.62,-501.54 883.62,-501.54 883.62,-501.54 878.77,-502.75 884.71,-505.91 873.92,-503.96 873.92,-503.96"/>
</g>
<!-- ragger.backend.ledgerwallet -->
<g id="node5" class="node">
<title>ragger.backend.ledgerwallet</title>
<polygon fill="antiquewhite" stroke="antiquewhite" points="677,-540 456,-540 456,-504 677,-504 677,-540"/>
<text text-anchor="middle" x="566.5" y="-518.3" font-family="Times,serif" font-size="14.00">ragger.backend.ledgerwallet</text>
</g>
<!-- ragger.backend&#45;&gt;ragger.backend.ledgerwallet -->
<g id="edge4" class="edge">
<title>ragger.backend&#45;&gt;ragger.backend.ledgerwallet</title>
<path fill="none" stroke="black" d="M1022.74,-459.27C945.86,-469.28 812.45,-486.78 687.45,-503.88"/>
<polygon fill="black" stroke="black" points="677.32,-505.26 686.62,-499.45 682.27,-504.59 687.23,-503.91 687.23,-503.91 687.23,-503.91 682.27,-504.59 687.84,-508.37 677.32,-505.26 677.32,-505.26"/>
</g>
<!-- ragger.backend.speculos -->
<g id="node7" class="node">
<title>ragger.backend.speculos</title>
<polygon fill="antiquewhite" stroke="antiquewhite" points="1044,-612 851,-612 851,-576 1044,-576 1044,-612"/>
<text text-anchor="middle" x="947.5" y="-590.3" font-family="Times,serif" font-size="14.00">ragger.backend.speculos</text>
</g>
<!-- ragger.backend&#45;&gt;ragger.backend.speculos -->
<g id="edge5" class="edge">
<title>ragger.backend&#45;&gt;ragger.backend.speculos</title>
<path fill="none" stroke="black" d="M1069.73,-468.13C1045.21,-493.18 999.43,-539.95 971.39,-568.59"/>
<polygon fill="black" stroke="black" points="964.33,-575.81 968.11,-565.52 967.82,-572.24 971.32,-568.66 971.32,-568.66 971.32,-568.66 967.82,-572.24 974.54,-571.81 964.33,-575.81 964.33,-575.81"/>
</g>
<!-- ragger.backend.stub -->
<g id="node8" class="node">
<title>ragger.backend.stub</title>
<polygon fill="antiquewhite" stroke="antiquewhite" points="1264,-612 1101,-612 1101,-576 1264,-576 1264,-612"/>
<text text-anchor="middle" x="1182.5" y="-590.3" font-family="Times,serif" font-size="14.00">ragger.backend.stub</text>
</g>
<!-- ragger.backend&#45;&gt;ragger.backend.stub -->
<g id="edge6" class="edge">
<title>ragger.backend&#45;&gt;ragger.backend.stub</title>
<path fill="none" stroke="black" d="M1098.08,-468.13C1114.8,-492.86 1145.83,-538.76 1165.25,-567.49"/>
<polygon fill="black" stroke="black" points="1170.88,-575.81 1161.55,-570.05 1168.08,-571.67 1165.28,-567.53 1165.28,-567.53 1165.28,-567.53 1168.08,-571.67 1169.01,-565.01 1170.88,-575.81 1170.88,-575.81"/>
</g>
<!-- ragger.firmware -->
<g id="node16" class="node">
<title>ragger.firmware</title>
<polygon fill="cadetblue" stroke="cadetblue" points="1510.5,-756 1378.5,-756 1378.5,-720 1510.5,-720 1510.5,-756"/>
<text text-anchor="middle" x="1444.5" y="-734.3" font-family="Times,serif" font-size="14.00">ragger.firmware</text>
</g>
<!-- ragger.backend.interface&#45;&gt;ragger.firmware -->
<g id="edge7" class="edge">
<title>ragger.backend.interface&#45;&gt;ragger.firmware</title>
<path fill="none" stroke="black" d="M1163.78,-684.03C1226.43,-695.86 1308.97,-711.43 1368.31,-722.62"/>
<polygon fill="black" stroke="black" points="1378.36,-724.52 1367.7,-727.09 1373.45,-723.59 1368.54,-722.67 1368.54,-722.67 1368.54,-722.67 1373.45,-723.59 1369.37,-718.25 1378.36,-724.52 1378.36,-724.52"/>
</g>
<!-- ragger.backend.interface&#45;&gt;ragger.logger -->
<g id="edge8" class="edge">
<title>ragger.backend.interface&#45;&gt;ragger.logger</title>
<path fill="none" stroke="black" d="M1073.82,-684.15C1074.51,-721.17 1076.15,-808.82 1076.99,-853.61"/>
<polygon fill="black" stroke="black" points="1077.18,-863.77 1072.49,-853.85 1077.08,-858.77 1076.99,-853.77 1076.99,-853.77 1076.99,-853.77 1077.08,-858.77 1081.49,-853.69 1077.18,-863.77 1077.18,-863.77"/>
</g>
<!-- ragger.utils -->
<g id="node33" class="node">
<title>ragger.utils</title>
<polygon fill="coral" stroke="coral" points="597,-756 498,-756 498,-720 597,-720 597,-756"/>
<text text-anchor="middle" x="547.5" y="-734.3" font-family="Times,serif" font-size="14.00">ragger.utils</text>
</g>
<!-- ragger.backend.interface&#45;&gt;ragger.utils -->
<g id="edge9" class="edge">
<title>ragger.backend.interface&#45;&gt;ragger.utils</title>
<path fill="none" stroke="black" d="M975.8,-680C867.66,-694.39 696.83,-717.13 607.08,-729.07"/>
<polygon fill="black" stroke="black" points="597.08,-730.4 606.4,-724.62 602.03,-729.74 606.99,-729.08 606.99,-729.08 606.99,-729.08 602.03,-729.74 607.58,-733.54 597.08,-730.4 597.08,-730.4"/>
</g>
<!-- ragger.backend.ledgercomm&#45;&gt;ragger.backend.ledgercomm -->
<g id="edge10" class="edge">
<title>ragger.backend.ledgercomm&#45;&gt;ragger.backend.ledgercomm</title>
<path fill="none" stroke="black" d="M915.65,-510.99C926.56,-513.2 933.5,-516.87 933.5,-522 933.5,-525.37 930.51,-528.11 925.37,-530.21"/>
<polygon fill="black" stroke="black" points="915.65,-533.01 924.02,-525.92 920.46,-531.63 925.26,-530.25 925.26,-530.25 925.26,-530.25 920.46,-531.63 926.51,-534.57 915.65,-533.01 915.65,-533.01"/>
</g>
<!-- ragger.backend.physical_backend -->
<g id="node6" class="node">
<title>ragger.backend.physical_backend</title>
<polygon fill="antiquewhite" stroke="antiquewhite" points="832.5,-612 576.5,-612 576.5,-576 832.5,-576 832.5,-612"/>
<text text-anchor="middle" x="704.5" y="-590.3" font-family="Times,serif" font-size="14.00">ragger.backend.physical_backend</text>
</g>
<!-- ragger.backend.ledgercomm&#45;&gt;ragger.backend.physical_backend -->
<g id="edge11" class="edge">
<title>ragger.backend.ledgercomm&#45;&gt;ragger.backend.physical_backend</title>
<path fill="none" stroke="black" d="M780.79,-540.12C767.83,-549.11 751.77,-560.24 737.73,-569.97"/>
<polygon fill="black" stroke="black" points="729.3,-575.81 734.96,-566.42 733.41,-572.96 737.52,-570.11 737.52,-570.11 737.52,-570.11 733.41,-572.96 740.08,-573.81 729.3,-575.81 729.3,-575.81"/>
</g>
<!-- ragger.error -->
<g id="node15" class="node">
<title>ragger.error</title>
<polygon fill="aliceblue" stroke="aliceblue" points="471.5,-900 367.5,-900 367.5,-864 471.5,-864 471.5,-900"/>
<text text-anchor="middle" x="419.5" y="-878.3" font-family="Times,serif" font-size="14.00">ragger.error</text>
</g>
<!-- ragger.backend.ledgercomm&#45;&gt;ragger.error -->
<g id="edge12" class="edge">
<title>ragger.backend.ledgercomm&#45;&gt;ragger.error</title>
<path fill="none" stroke="black" d="M697.37,-540.04C631.13,-551.33 556.75,-565.87 544.5,-576 456.5,-648.8 429.74,-793.46 422.21,-853.69"/>
<polygon fill="black" stroke="black" points="421.02,-863.92 417.71,-853.47 421.6,-858.95 422.18,-853.99 422.18,-853.99 422.18,-853.99 421.6,-858.95 426.65,-854.51 421.02,-863.92 421.02,-863.92"/>
</g>
<!-- ragger.backend.ledgercomm&#45;&gt;ragger.firmware -->
<g id="edge13" class="edge">
<title>ragger.backend.ledgercomm&#45;&gt;ragger.firmware</title>
<path fill="none" stroke="black" d="M915.67,-527.94C1063.24,-535.45 1310.57,-551.51 1344.5,-576 1387.09,-606.75 1362.97,-640.56 1392.5,-684 1399.45,-694.22 1408.49,-704.23 1417.08,-712.74"/>
<polygon fill="black" stroke="black" points="1424.45,-719.8 1414.12,-716.13 1420.84,-716.34 1417.23,-712.88 1417.23,-712.88 1417.23,-712.88 1420.84,-716.34 1420.35,-709.63 1424.45,-719.8 1424.45,-719.8"/>
</g>
<!-- ragger.backend.ledgercomm&#45;&gt;ragger.utils -->
<g id="edge14" class="edge">
<title>ragger.backend.ledgercomm&#45;&gt;ragger.utils</title>
<path fill="none" stroke="black" d="M703.69,-540.06C643.5,-551.11 577.16,-565.37 567.5,-576 534.37,-612.46 537.17,-674.25 542.28,-709.74"/>
<polygon fill="black" stroke="black" points="543.9,-719.86 537.87,-710.69 543.1,-714.92 542.31,-709.98 542.31,-709.98 542.31,-709.98 543.1,-714.92 546.76,-709.27 543.9,-719.86 543.9,-719.86"/>
</g>
<!-- ragger.backend.ledgerwallet&#45;&gt;ragger.backend.physical_backend -->
<g id="edge15" class="edge">
<title>ragger.backend.ledgerwallet&#45;&gt;ragger.backend.physical_backend</title>
<path fill="none" stroke="black" d="M600.26,-540.12C618.72,-549.49 641.78,-561.19 661.52,-571.2"/>
<polygon fill="black" stroke="black" points="670.61,-575.81 659.66,-575.3 666.15,-573.55 661.69,-571.29 661.69,-571.29 661.69,-571.29 666.15,-573.55 663.73,-567.27 670.61,-575.81 670.61,-575.81"/>
</g>
<!-- ragger.backend.ledgerwallet&#45;&gt;ragger.error -->
<g id="edge16" class="edge">
<title>ragger.backend.ledgerwallet&#45;&gt;ragger.error</title>
<path fill="none" stroke="black" d="M507.18,-540.07C488.94,-548.14 470.52,-559.69 458.5,-576 396,-660.76 406.67,-796.02 414.85,-853.6"/>
<polygon fill="black" stroke="black" points="416.38,-863.74 410.44,-854.52 415.63,-858.79 414.89,-853.85 414.89,-853.85 414.89,-853.85 415.63,-858.79 419.34,-853.18 416.38,-863.74 416.38,-863.74"/>
</g>
<!-- ragger.backend.ledgerwallet&#45;&gt;ragger.firmware -->
<g id="edge17" class="edge">
<title>ragger.backend.ledgerwallet&#45;&gt;ragger.firmware</title>
<path fill="none" stroke="black" d="M677.28,-539.02C680.39,-539.36 683.46,-539.69 686.5,-540 816.3,-553.16 1154.33,-520.71 1272.5,-576 1332.3,-603.98 1325.35,-639.92 1374.5,-684 1386.01,-694.32 1399.38,-704.78 1411.33,-713.65"/>
<polygon fill="black" stroke="black" points="1419.74,-719.8 1409.01,-717.52 1415.71,-716.85 1411.67,-713.89 1411.67,-713.89 1411.67,-713.89 1415.71,-716.85 1414.33,-710.26 1419.74,-719.8 1419.74,-719.8"/>
</g>
<!-- ragger.backend.ledgerwallet&#45;&gt;ragger.utils -->
<g id="edge18" class="edge">
<title>ragger.backend.ledgerwallet&#45;&gt;ragger.utils</title>
<path fill="none" stroke="black" d="M552.94,-540.03C545.94,-549.91 538.13,-562.95 534.5,-576 521.79,-621.63 531.51,-677.13 539.6,-709.62"/>
<polygon fill="black" stroke="black" points="542.24,-719.71 535.35,-711.17 540.97,-714.87 539.71,-710.03 539.71,-710.03 539.71,-710.03 540.97,-714.87 544.06,-708.89 542.24,-719.71 542.24,-719.71"/>
</g>
<!-- ragger.backend.physical_backend&#45;&gt;ragger.backend.interface -->
<g id="edge19" class="edge">
<title>ragger.backend.physical_backend&#45;&gt;ragger.backend.interface</title>
<path fill="none" stroke="black" d="M794.3,-612.03C848.53,-622.32 917.75,-635.45 973.69,-646.07"/>
<polygon fill="black" stroke="black" points="983.62,-647.95 972.96,-650.51 978.71,-647.02 973.8,-646.09 973.8,-646.09 973.8,-646.09 978.71,-647.02 974.64,-641.66 983.62,-647.95 983.62,-647.95"/>
</g>
<!-- ragger.backend.physical_backend&#45;&gt;ragger.firmware -->
<g id="edge20" class="edge">
<title>ragger.backend.physical_backend&#45;&gt;ragger.firmware</title>
<path fill="none" stroke="black" d="M768.9,-612.03C803.25,-621.62 846.03,-634.38 883.5,-648 921.29,-661.73 927.64,-673.67 966.5,-684 1105.08,-720.84 1272.85,-732.1 1368.28,-735.53"/>
<polygon fill="black" stroke="black" points="1378.42,-735.87 1368.27,-740.03 1373.42,-735.7 1368.42,-735.53 1368.42,-735.53 1368.42,-735.53 1373.42,-735.7 1368.58,-731.04 1378.42,-735.87 1378.42,-735.87"/>
</g>
<!-- ragger.gui -->
<g id="node24" class="node">
<title>ragger.gui</title>
<polygon fill="chartreuse" stroke="chartreuse" points="874.5,-684 784.5,-684 784.5,-648 874.5,-648 874.5,-684"/>
<text text-anchor="middle" x="829.5" y="-662.3" font-family="Times,serif" font-size="14.00">ragger.gui</text>
</g>
<!-- ragger.backend.physical_backend&#45;&gt;ragger.gui -->
<g id="edge21" class="edge">
<title>ragger.backend.physical_backend&#45;&gt;ragger.gui</title>
<path fill="none" stroke="black" d="M735.08,-612.12C751.57,-621.36 772.12,-632.87 789.84,-642.79"/>
<polygon fill="black" stroke="black" points="798.8,-647.81 787.88,-646.85 794.44,-645.37 790.08,-642.92 790.08,-642.92 790.08,-642.92 794.44,-645.37 792.28,-639 798.8,-647.81 798.8,-647.81"/>
</g>
<!-- ragger.navigator.instruction -->
<g id="node29" class="node">
<title>ragger.navigator.instruction</title>
<polygon fill="chocolate" stroke="chocolate" points="217,-828 0,-828 0,-792 217,-792 217,-828"/>
<text text-anchor="middle" x="108.5" y="-806.3" font-family="Times,serif" font-size="14.00">ragger.navigator.instruction</text>
</g>
<!-- ragger.backend.physical_backend&#45;&gt;ragger.navigator.instruction -->
<g id="edge22" class="edge">
<title>ragger.backend.physical_backend&#45;&gt;ragger.navigator.instruction</title>
<path fill="none" stroke="black" d="M657.66,-612.03C576.46,-641.52 404.25,-703.95 258.5,-756 228.25,-766.8 194.53,-778.73 166.74,-788.53"/>
<polygon fill="black" stroke="black" points="157.17,-791.9 165.1,-784.33 161.88,-790.24 166.6,-788.57 166.6,-788.57 166.6,-788.57 161.88,-790.24 168.1,-792.82 157.17,-791.9 157.17,-791.9"/>
</g>
<!-- ragger.backend.physical_backend&#45;&gt;ragger.utils -->
<g id="edge23" class="edge">
<title>ragger.backend.physical_backend&#45;&gt;ragger.utils</title>
<path fill="none" stroke="black" d="M685.56,-612.13C657.74,-637.29 605.72,-684.35 574.08,-712.96"/>
<polygon fill="black" stroke="black" points="566.51,-719.81 570.9,-709.77 570.21,-716.46 573.92,-713.1 573.92,-713.1 573.92,-713.1 570.21,-716.46 576.94,-716.44 566.51,-719.81 566.51,-719.81"/>
</g>
<!-- ragger.backend.speculos&#45;&gt;ragger.backend.interface -->
<g id="edge24" class="edge">
<title>ragger.backend.speculos&#45;&gt;ragger.backend.interface</title>
<path fill="none" stroke="black" d="M978.32,-612.12C994.95,-621.36 1015.66,-632.87 1033.52,-642.79"/>
<polygon fill="black" stroke="black" points="1042.56,-647.81 1031.63,-646.89 1038.19,-645.38 1033.82,-642.95 1033.82,-642.95 1033.82,-642.95 1038.19,-645.38 1036,-639.02 1042.56,-647.81 1042.56,-647.81"/>
</g>
<!-- ragger.backend.speculos&#45;&gt;ragger.error -->
<g id="edge25" class="edge">
<title>ragger.backend.speculos&#45;&gt;ragger.error</title>
<path fill="none" stroke="black" d="M950.92,-612.02C959.11,-653.07 979.4,-756.79 982.5,-792 983.9,-807.94 993.27,-816.17 982.5,-828 949.3,-864.48 621.25,-876.35 481.76,-879.76"/>
<polygon fill="black" stroke="black" points="471.65,-880 481.54,-875.27 476.64,-879.88 481.64,-879.76 481.64,-879.76 481.64,-879.76 476.64,-879.88 481.75,-884.26 471.65,-880 471.65,-880"/>
</g>
<!-- ragger.backend.speculos&#45;&gt;ragger.firmware -->
<g id="edge26" class="edge">
<title>ragger.backend.speculos&#45;&gt;ragger.firmware</title>
<path fill="none" stroke="black" d="M1031.22,-612.02C1075.56,-621.57 1130.78,-634.29 1179.5,-648 1252.73,-668.61 1335.63,-697.34 1388.91,-716.53"/>
<polygon fill="black" stroke="black" points="1398.5,-720 1387.57,-720.83 1393.8,-718.3 1389.1,-716.6 1389.1,-716.6 1389.1,-716.6 1393.8,-718.3 1390.62,-712.37 1398.5,-720 1398.5,-720"/>
</g>
<!-- ragger.backend.speculos&#45;&gt;ragger.utils -->
<g id="edge27" class="edge">
<title>ragger.backend.speculos&#45;&gt;ragger.utils</title>
<path fill="none" stroke="black" d="M888.24,-612.09C854.92,-621.99 812.68,-635.04 775.5,-648 713.88,-669.49 644.14,-697.22 598.2,-715.98"/>
<polygon fill="black" stroke="black" points="588.76,-719.84 596.31,-711.89 593.39,-717.95 598.02,-716.05 598.02,-716.05 598.02,-716.05 593.39,-717.95 599.72,-720.22 588.76,-719.84 588.76,-719.84"/>
</g>
<!-- ragger.backend.stub&#45;&gt;ragger.backend.interface -->
<g id="edge28" class="edge">
<title>ragger.backend.stub&#45;&gt;ragger.backend.interface</title>
<path fill="none" stroke="black" d="M1155.84,-612.12C1141.72,-621.19 1124.19,-632.45 1108.94,-642.24"/>
<polygon fill="black" stroke="black" points="1100.27,-647.81 1106.25,-638.62 1104.47,-645.11 1108.68,-642.41 1108.68,-642.41 1108.68,-642.41 1104.47,-645.11 1111.11,-646.19 1100.27,-647.81 1100.27,-647.81"/>
</g>
<!-- ragger.utils.structs -->
<g id="node36" class="node">
<title>ragger.utils.structs</title>
<polygon fill="coral" stroke="coral" points="797.5,-828 643.5,-828 643.5,-792 797.5,-792 797.5,-828"/>
<text text-anchor="middle" x="720.5" y="-806.3" font-family="Times,serif" font-size="14.00">ragger.utils.structs</text>
</g>
<!-- ragger.backend.stub&#45;&gt;ragger.utils.structs -->
<g id="edge29" class="edge">
<title>ragger.backend.stub&#45;&gt;ragger.utils.structs</title>
<path fill="none" stroke="black" d="M1187.37,-612.08C1191.83,-631.64 1195.56,-663.59 1179.5,-684 1156.27,-713.52 934.2,-764.22 807.67,-791.08"/>
<polygon fill="black" stroke="black" points="797.61,-793.21 806.46,-786.74 802.5,-792.18 807.39,-791.14 807.39,-791.14 807.39,-791.14 802.5,-792.18 808.32,-795.55 797.61,-793.21 797.61,-793.21"/>
</g>
<!-- ragger.bip -->
<g id="node9" class="node">
<title>ragger.bip</title>
<polygon fill="aquamarine" stroke="aquamarine" points="1988.5,-36 1898.5,-36 1898.5,0 1988.5,0 1988.5,-36"/>
<text text-anchor="middle" x="1943.5" y="-14.3" font-family="Times,serif" font-size="14.00">ragger.bip</text>
</g>
<!-- ragger.bip.path -->
<g id="node10" class="node">
<title>ragger.bip.path</title>
<polygon fill="aquamarine" stroke="aquamarine" points="1934,-108 1807,-108 1807,-72 1934,-72 1934,-108"/>
<text text-anchor="middle" x="1870.5" y="-86.3" font-family="Times,serif" font-size="14.00">ragger.bip.path</text>
</g>
<!-- ragger.bip&#45;&gt;ragger.bip.path -->
<g id="edge30" class="edge">
<title>ragger.bip&#45;&gt;ragger.bip.path</title>
<path fill="none" stroke="black" d="M1925.46,-36.3C1916.44,-44.95 1905.38,-55.55 1895.56,-64.97"/>
<polygon fill="black" stroke="black" points="1888.34,-71.9 1892.44,-61.73 1891.95,-68.44 1895.56,-64.97 1895.56,-64.97 1895.56,-64.97 1891.95,-68.44 1898.67,-68.22 1888.34,-71.9 1888.34,-71.9"/>
</g>
<!-- ragger.bip.seed -->
<g id="node11" class="node">
<title>ragger.bip.seed</title>
<polygon fill="aquamarine" stroke="aquamarine" points="2080.5,-108 1952.5,-108 1952.5,-72 2080.5,-72 2080.5,-108"/>
<text text-anchor="middle" x="2016.5" y="-86.3" font-family="Times,serif" font-size="14.00">ragger.bip.seed</text>
</g>
<!-- ragger.bip&#45;&gt;ragger.bip.seed -->
<g id="edge31" class="edge">
<title>ragger.bip&#45;&gt;ragger.bip.seed</title>
<path fill="none" stroke="black" d="M1961.54,-36.3C1970.56,-44.95 1981.62,-55.55 1991.44,-64.97"/>
<polygon fill="black" stroke="black" points="1998.66,-71.9 1988.33,-68.22 1995.05,-68.44 1991.44,-64.97 1991.44,-64.97 1991.44,-64.97 1995.05,-68.44 1994.56,-61.73 1998.66,-71.9 1998.66,-71.9"/>
</g>
<!-- ragger.conftest -->
<g id="node12" class="node">
<title>ragger.conftest</title>
<polygon fill="burlywood" stroke="burlywood" points="2132,-36 2007,-36 2007,0 2132,0 2132,-36"/>
<text text-anchor="middle" x="2069.5" y="-14.3" font-family="Times,serif" font-size="14.00">ragger.conftest</text>
</g>
<!-- ragger.conftest.base_conftest -->
<g id="node13" class="node">
<title>ragger.conftest.base_conftest</title>
<polygon fill="burlywood" stroke="burlywood" points="1048,-36 821,-36 821,0 1048,0 1048,-36"/>
<text text-anchor="middle" x="934.5" y="-14.3" font-family="Times,serif" font-size="14.00">ragger.conftest.base_conftest</text>
</g>
<!-- ragger.conftest.base_conftest&#45;&gt;ragger.backend -->
<g id="edge32" class="edge">
<title>ragger.conftest.base_conftest&#45;&gt;ragger.backend</title>
<path fill="none" stroke="black" d="M975.63,-36.1C1020.65,-57.88 1086.5,-100.15 1086.5,-161 1086.5,-161 1086.5,-161 1086.5,-307 1086.5,-347 1086.5,-393.35 1086.5,-421.92"/>
<polygon fill="black" stroke="black" points="1086.5,-431.95 1082,-421.95 1086.5,-426.95 1086.5,-421.95 1086.5,-421.95 1086.5,-421.95 1086.5,-426.95 1091,-421.95 1086.5,-431.95 1086.5,-431.95"/>
</g>
<!-- ragger.conftest.base_conftest&#45;&gt;ragger.firmware -->
<g id="edge33" class="edge">
<title>ragger.conftest.base_conftest&#45;&gt;ragger.firmware</title>
<path fill="none" stroke="black" d="M1048.33,-26.49C1278.7,-43.18 1778.5,-87.82 1778.5,-161 1778.5,-161 1778.5,-161 1778.5,-595 1778.5,-706.21 1619.73,-731.57 1521.12,-736.6"/>
<polygon fill="black" stroke="black" points="1510.89,-737.06 1520.67,-732.11 1515.88,-736.83 1520.88,-736.61 1520.88,-736.61 1520.88,-736.61 1515.88,-736.83 1521.08,-741.1 1510.89,-737.06 1510.89,-737.06"/>
</g>
<!-- ragger.conftest.base_conftest&#45;&gt;ragger.logger -->
<g id="edge34" class="edge">
<title>ragger.conftest.base_conftest&#45;&gt;ragger.logger</title>
<path fill="none" stroke="black" d="M994.36,-36.04C1050.05,-55.99 1124.5,-95.01 1124.5,-161 1124.5,-161 1124.5,-161 1124.5,-307 1124.5,-482.76 1292.5,-489.24 1292.5,-665 1292.5,-665 1292.5,-665 1292.5,-739 1292.5,-811.08 1207.33,-848.68 1144.2,-866.65"/>
<polygon fill="black" stroke="black" points="1134.27,-869.36 1142.73,-862.38 1139.09,-868.04 1143.92,-866.72 1143.92,-866.72 1143.92,-866.72 1139.09,-868.04 1145.1,-871.06 1134.27,-869.36 1134.27,-869.36"/>
</g>
<!-- ragger.navigator -->
<g id="node28" class="node">
<title>ragger.navigator</title>
<polygon fill="chocolate" stroke="chocolate" points="850.5,-108 714.5,-108 714.5,-72 850.5,-72 850.5,-108"/>
<text text-anchor="middle" x="782.5" y="-86.3" font-family="Times,serif" font-size="14.00">ragger.navigator</text>
</g>
<!-- ragger.conftest.base_conftest&#45;&gt;ragger.navigator -->
<g id="edge35" class="edge">
<title>ragger.conftest.base_conftest&#45;&gt;ragger.navigator</title>
<path fill="none" stroke="black" d="M897.32,-36.12C876.63,-45.65 850.7,-57.59 828.72,-67.72"/>
<polygon fill="black" stroke="black" points="819.56,-71.93 826.76,-63.66 824.1,-69.84 828.65,-67.75 828.65,-67.75 828.65,-67.75 824.1,-69.84 830.53,-71.84 819.56,-71.93 819.56,-71.93"/>
</g>
<!-- ragger.conftest.base_conftest&#45;&gt;ragger.utils -->
<g id="edge36" class="edge">
<title>ragger.conftest.base_conftest&#45;&gt;ragger.utils</title>
<path fill="none" stroke="black" d="M820.7,-24.07C652.84,-34.69 358.5,-66.76 358.5,-161 358.5,-161 358.5,-161 358.5,-595 358.5,-660.82 432.67,-699.9 488.08,-719.91"/>
<polygon fill="black" stroke="black" points="497.84,-723.31 486.92,-724.27 493.12,-721.67 488.4,-720.02 488.4,-720.02 488.4,-720.02 493.12,-721.67 489.88,-715.77 497.84,-723.31 497.84,-723.31"/>
</g>
<!-- ragger.utils.misc -->
<g id="node34" class="node">
<title>ragger.utils.misc</title>
<polygon fill="coral" stroke="coral" points="372,-828 235,-828 235,-792 372,-792 372,-828"/>
<text text-anchor="middle" x="303.5" y="-806.3" font-family="Times,serif" font-size="14.00">ragger.utils.misc</text>
</g>
<!-- ragger.conftest.base_conftest&#45;&gt;ragger.utils.misc -->
<g id="edge37" class="edge">
<title>ragger.conftest.base_conftest&#45;&gt;ragger.utils.misc</title>
<path fill="none" stroke="black" d="M820.95,-19.27C625.08,-22.84 244.5,-44.74 244.5,-161 244.5,-161 244.5,-161 244.5,-379 244.5,-532.78 282,-714.65 297.2,-782.09"/>
<polygon fill="black" stroke="black" points="299.44,-791.91 292.83,-783.16 298.33,-787.04 297.22,-782.16 297.22,-782.16 297.22,-782.16 298.33,-787.04 301.61,-781.16 299.44,-791.91 299.44,-791.91"/>
</g>
<!-- ragger.conftest.configuration -->
<g id="node14" class="node">
<title>ragger.conftest.configuration</title>
<polygon fill="burlywood" stroke="burlywood" points="2374.5,-36 2150.5,-36 2150.5,0 2374.5,0 2374.5,-36"/>
<text text-anchor="middle" x="2262.5" y="-14.3" font-family="Times,serif" font-size="14.00">ragger.conftest.configuration</text>
</g>
<!-- ragger.firmware.structs -->
<g id="node22" class="node">
<title>ragger.firmware.structs</title>
<polygon fill="cadetblue" stroke="cadetblue" points="1659,-828 1472,-828 1472,-792 1659,-792 1659,-828"/>
<text text-anchor="middle" x="1565.5" y="-806.3" font-family="Times,serif" font-size="14.00">ragger.firmware.structs</text>
</g>
<!-- ragger.firmware&#45;&gt;ragger.firmware.structs -->
<g id="edge38" class="edge">
<title>ragger.firmware&#45;&gt;ragger.firmware.structs</title>
<path fill="none" stroke="black" d="M1474.1,-756.12C1490.07,-765.36 1509.96,-776.87 1527.11,-786.79"/>
<polygon fill="black" stroke="black" points="1535.79,-791.81 1524.88,-790.7 1531.46,-789.31 1527.13,-786.8 1527.13,-786.8 1527.13,-786.8 1531.46,-789.31 1529.38,-782.91 1535.79,-791.81 1535.79,-791.81"/>
</g>
<!-- ragger.firmware.versions -->
<g id="node23" class="node">
<title>ragger.firmware.versions</title>
<polygon fill="cadetblue" stroke="cadetblue" points="1664,-900 1467,-900 1467,-864 1664,-864 1664,-900"/>
<text text-anchor="middle" x="1565.5" y="-878.3" font-family="Times,serif" font-size="14.00">ragger.firmware.versions</text>
</g>
<!-- ragger.firmware&#45;&gt;ragger.firmware.versions -->
<g id="edge39" class="edge">
<title>ragger.firmware&#45;&gt;ragger.firmware.versions</title>
<path fill="none" stroke="black" d="M1443.76,-756.18C1443.8,-775.53 1446.62,-807 1462.5,-828 1472.6,-841.35 1487.01,-851.62 1501.88,-859.4"/>
<polygon fill="black" stroke="black" points="1511.15,-863.93 1500.19,-863.59 1506.66,-861.74 1502.17,-859.55 1502.17,-859.55 1502.17,-859.55 1506.66,-861.74 1504.14,-855.5 1511.15,-863.93 1511.15,-863.93"/>
</g>
<!-- ragger.firmware.stax -->
<g id="node17" class="node">
<title>ragger.firmware.stax</title>
<polygon fill="cadetblue" stroke="cadetblue" points="1353,-252 1186,-252 1186,-216 1353,-216 1353,-252"/>
<text text-anchor="middle" x="1269.5" y="-230.3" font-family="Times,serif" font-size="14.00">ragger.firmware.stax</text>
</g>
<!-- ragger.firmware.stax.screen -->
<g id="node20" class="node">
<title>ragger.firmware.stax.screen</title>
<polygon fill="cadetblue" stroke="cadetblue" points="1411.5,-324 1193.5,-324 1193.5,-288 1411.5,-288 1411.5,-324"/>
<text text-anchor="middle" x="1302.5" y="-302.3" font-family="Times,serif" font-size="14.00">ragger.firmware.stax.screen</text>
</g>
<!-- ragger.firmware.stax&#45;&gt;ragger.firmware.stax.screen -->
<g id="edge40" class="edge">
<title>ragger.firmware.stax&#45;&gt;ragger.firmware.stax.screen</title>
<path fill="none" stroke="black" d="M1277.66,-252.3C1281.41,-260.27 1285.95,-269.9 1290.12,-278.74"/>
<polygon fill="black" stroke="black" points="1294.44,-287.9 1286.1,-280.77 1292.3,-283.37 1290.17,-278.85 1290.17,-278.85 1290.17,-278.85 1292.3,-283.37 1294.24,-276.93 1294.44,-287.9 1294.44,-287.9"/>
</g>
<!-- ragger.firmware.stax.layouts -->
<g id="node18" class="node">
<title>ragger.firmware.stax.layouts</title>
<polygon fill="cadetblue" stroke="cadetblue" points="1414,-396 1191,-396 1191,-360 1414,-360 1414,-396"/>
<text text-anchor="middle" x="1302.5" y="-374.3" font-family="Times,serif" font-size="14.00">ragger.firmware.stax.layouts</text>
</g>
<!-- ragger.firmware.stax.layouts&#45;&gt;ragger.backend -->
<g id="edge41" class="edge">
<title>ragger.firmware.stax.layouts&#45;&gt;ragger.backend</title>
<path fill="none" stroke="black" d="M1249.94,-396.03C1219.49,-405.9 1180.99,-418.38 1149,-428.75"/>
<polygon fill="black" stroke="black" points="1139.3,-431.89 1147.42,-424.53 1144.06,-430.35 1148.81,-428.81 1148.81,-428.81 1148.81,-428.81 1144.06,-430.35 1150.2,-433.09 1139.3,-431.89 1139.3,-431.89"/>
</g>
<!-- ragger.firmware.stax.layouts&#45;&gt;ragger.firmware -->
<g id="edge42" class="edge">
<title>ragger.firmware.stax.layouts&#45;&gt;ragger.firmware</title>
<path fill="none" stroke="black" d="M1318.46,-396.04C1355.26,-435.79 1444.02,-534.39 1458.5,-576 1474.23,-621.19 1462.79,-677.62 1453.4,-710.26"/>
<polygon fill="black" stroke="black" points="1450.46,-719.98 1449.04,-709.11 1451.9,-715.19 1453.35,-710.41 1453.35,-710.41 1453.35,-710.41 1451.9,-715.19 1457.66,-711.71 1450.46,-719.98 1450.46,-719.98"/>
</g>
<!-- ragger.firmware.stax.positions -->
<g id="node19" class="node">
<title>ragger.firmware.stax.positions</title>
<polygon fill="cadetblue" stroke="cadetblue" points="1636.5,-468 1400.5,-468 1400.5,-432 1636.5,-432 1636.5,-468"/>
<text text-anchor="middle" x="1518.5" y="-446.3" font-family="Times,serif" font-size="14.00">ragger.firmware.stax.positions</text>
</g>
<!-- ragger.firmware.stax.layouts&#45;&gt;ragger.firmware.stax.positions -->
<g id="edge43" class="edge">
<title>ragger.firmware.stax.layouts&#45;&gt;ragger.firmware.stax.positions</title>
<path fill="none" stroke="black" d="M1355.06,-396.03C1385.51,-405.9 1424.01,-418.38 1456,-428.75"/>
<polygon fill="black" stroke="black" points="1465.7,-431.89 1454.8,-433.09 1460.94,-430.35 1456.19,-428.81 1456.19,-428.81 1456.19,-428.81 1460.94,-430.35 1457.58,-424.53 1465.7,-431.89 1465.7,-431.89"/>
</g>
<!-- ragger.firmware.stax.positions&#45;&gt;ragger.firmware.versions -->
<g id="edge44" class="edge">
<title>ragger.firmware.stax.positions&#45;&gt;ragger.firmware.versions</title>
<path fill="none" stroke="black" d="M1529.14,-468.24C1558.44,-516.87 1639.95,-660.14 1667.5,-792 1670.77,-807.66 1675.81,-814.32 1667.5,-828 1659.34,-841.43 1646.55,-851.62 1632.75,-859.28"/>
<polygon fill="black" stroke="black" points="1623.57,-863.96 1630.44,-855.41 1628.03,-861.69 1632.48,-859.42 1632.48,-859.42 1632.48,-859.42 1628.03,-861.69 1634.53,-863.42 1623.57,-863.96 1623.57,-863.96"/>
</g>
<!-- ragger.firmware.stax.screen&#45;&gt;ragger.backend -->
<g id="edge45" class="edge">
<title>ragger.firmware.stax.screen&#45;&gt;ragger.backend</title>
<path fill="none" stroke="black" d="M1253.45,-324.08C1230.64,-333.1 1203.71,-345.36 1181.5,-360 1153.8,-378.26 1126.64,-404.84 1108.5,-424.19"/>
<polygon fill="black" stroke="black" points="1101.54,-431.74 1105.01,-421.34 1104.93,-428.06 1108.32,-424.39 1108.32,-424.39 1108.32,-424.39 1104.93,-428.06 1111.62,-427.44 1101.54,-431.74 1101.54,-431.74"/>
</g>
<!-- ragger.firmware.stax.screen&#45;&gt;ragger.firmware -->
<g id="edge46" class="edge">
<title>ragger.firmware.stax.screen&#45;&gt;ragger.firmware</title>
<path fill="none" stroke="black" d="M1411.68,-308.61C1510.09,-312.41 1645.06,-324.23 1683.5,-360 1713.11,-387.55 1702.5,-408.55 1702.5,-449 1702.5,-449 1702.5,-449 1702.5,-595 1702.5,-678.79 1596.76,-713.5 1520.66,-727.62"/>
<polygon fill="black" stroke="black" points="1510.61,-729.4 1519.67,-723.23 1515.53,-728.53 1520.45,-727.66 1520.45,-727.66 1520.45,-727.66 1515.53,-728.53 1521.24,-732.09 1510.61,-729.4 1510.61,-729.4"/>
</g>
<!-- ragger.firmware.stax.screen&#45;&gt;ragger.firmware.stax.layouts -->
<g id="edge47" class="edge">
<title>ragger.firmware.stax.screen&#45;&gt;ragger.firmware.stax.layouts</title>
<path fill="none" stroke="black" d="M1302.5,-324.3C1302.5,-332.02 1302.5,-341.29 1302.5,-349.89"/>
<polygon fill="black" stroke="black" points="1302.5,-359.9 1298,-349.9 1302.5,-354.9 1302.5,-349.9 1302.5,-349.9 1302.5,-349.9 1302.5,-354.9 1307,-349.9 1302.5,-359.9 1302.5,-359.9"/>
</g>
<!-- ragger.firmware.stax.use_cases -->
<g id="node21" class="node">
<title>ragger.firmware.stax.use_cases</title>
<polygon fill="cadetblue" stroke="cadetblue" points="1674.5,-396 1432.5,-396 1432.5,-360 1674.5,-360 1674.5,-396"/>
<text text-anchor="middle" x="1553.5" y="-374.3" font-family="Times,serif" font-size="14.00">ragger.firmware.stax.use_cases</text>
</g>
<!-- ragger.firmware.stax.screen&#45;&gt;ragger.firmware.stax.use_cases -->
<g id="edge48" class="edge">
<title>ragger.firmware.stax.screen&#45;&gt;ragger.firmware.stax.use_cases</title>
<path fill="none" stroke="black" d="M1363.58,-324.03C1399.41,-334.03 1444.86,-346.7 1482.31,-357.15"/>
<polygon fill="black" stroke="black" points="1492.15,-359.89 1481.3,-361.54 1487.33,-358.55 1482.51,-357.2 1482.51,-357.2 1482.51,-357.2 1487.33,-358.55 1483.72,-352.87 1492.15,-359.89 1492.15,-359.89"/>
</g>
<!-- ragger.firmware.stax.use_cases&#45;&gt;ragger.backend -->
<g id="edge49" class="edge">
<title>ragger.firmware.stax.use_cases&#45;&gt;ragger.backend</title>
<path fill="none" stroke="black" d="M1439.86,-396.03C1352.96,-409.06 1235.67,-426.64 1160.55,-437.9"/>
<polygon fill="black" stroke="black" points="1150.24,-439.45 1159.46,-433.51 1155.18,-438.71 1160.12,-437.96 1160.12,-437.96 1160.12,-437.96 1155.18,-438.71 1160.79,-442.41 1150.24,-439.45 1150.24,-439.45"/>
</g>
<!-- ragger.firmware.stax.use_cases&#45;&gt;ragger.firmware -->
<g id="edge50" class="edge">
<title>ragger.firmware.stax.use_cases&#45;&gt;ragger.firmware</title>
<path fill="none" stroke="black" d="M1599.88,-396.23C1616.59,-404.62 1634.11,-416.35 1645.5,-432 1669.3,-464.7 1664.5,-480.55 1664.5,-521 1664.5,-521 1664.5,-521 1664.5,-595 1664.5,-665.48 1583.81,-702.68 1520.16,-721.05"/>
<polygon fill="black" stroke="black" points="1510.51,-723.73 1518.94,-716.72 1515.32,-722.39 1520.14,-721.05 1520.14,-721.05 1520.14,-721.05 1515.32,-722.39 1521.35,-725.39 1510.51,-723.73 1510.51,-723.73"/>
</g>
<!-- ragger.firmware.stax.use_cases&#45;&gt;ragger.firmware.stax.positions -->
<g id="edge51" class="edge">
<title>ragger.firmware.stax.use_cases&#45;&gt;ragger.firmware.stax.positions</title>
<path fill="none" stroke="black" d="M1544.85,-396.3C1540.86,-404.27 1536.05,-413.9 1531.63,-422.74"/>
<polygon fill="black" stroke="black" points="1527.05,-431.9 1527.5,-420.94 1529.29,-427.42 1531.52,-422.95 1531.52,-422.95 1531.52,-422.95 1529.29,-427.42 1535.55,-424.96 1527.05,-431.9 1527.05,-431.9"/>
</g>
<!-- ragger.firmware.structs&#45;&gt;ragger.firmware.versions -->
<g id="edge52" class="edge">
<title>ragger.firmware.structs&#45;&gt;ragger.firmware.versions</title>
<path fill="none" stroke="black" d="M1565.5,-828.3C1565.5,-836.02 1565.5,-845.29 1565.5,-853.89"/>
<polygon fill="black" stroke="black" points="1565.5,-863.9 1561,-853.9 1565.5,-858.9 1565.5,-853.9 1565.5,-853.9 1565.5,-853.9 1565.5,-858.9 1570,-853.9 1565.5,-863.9 1565.5,-863.9"/>
</g>
<!-- ragger.gui.process -->
<g id="node26" class="node">
<title>ragger.gui.process</title>
<polygon fill="chartreuse" stroke="chartreuse" points="912,-756 763,-756 763,-720 912,-720 912,-756"/>
<text text-anchor="middle" x="837.5" y="-734.3" font-family="Times,serif" font-size="14.00">ragger.gui.process</text>
</g>
<!-- ragger.gui&#45;&gt;ragger.gui.process -->
<g id="edge53" class="edge">
<title>ragger.gui&#45;&gt;ragger.gui.process</title>
<path fill="none" stroke="black" d="M831.48,-684.3C832.36,-692.02 833.42,-701.29 834.4,-709.89"/>
<polygon fill="black" stroke="black" points="835.55,-719.9 829.94,-710.47 834.98,-714.93 834.41,-709.96 834.41,-709.96 834.41,-709.96 834.98,-714.93 838.88,-709.45 835.55,-719.9 835.55,-719.9"/>
</g>
<!-- ragger.gui.interface -->
<g id="node25" class="node">
<title>ragger.gui.interface</title>
<polygon fill="chartreuse" stroke="chartreuse" points="973.5,-828 815.5,-828 815.5,-792 973.5,-792 973.5,-828"/>
<text text-anchor="middle" x="894.5" y="-806.3" font-family="Times,serif" font-size="14.00">ragger.gui.interface</text>
</g>
<!-- ragger.gui.interface&#45;&gt;ragger.logger -->
<g id="edge54" class="edge">
<title>ragger.gui.interface&#45;&gt;ragger.logger</title>
<path fill="none" stroke="black" d="M939.27,-828.12C964.62,-837.82 996.51,-850.02 1023.27,-860.26"/>
<polygon fill="black" stroke="black" points="1032.88,-863.93 1021.93,-864.56 1028.21,-862.15 1023.54,-860.36 1023.54,-860.36 1023.54,-860.36 1028.21,-862.15 1025.15,-856.16 1032.88,-863.93 1032.88,-863.93"/>
</g>
<!-- ragger.gui.process&#45;&gt;ragger.gui.interface -->
<g id="edge55" class="edge">
<title>ragger.gui.process&#45;&gt;ragger.gui.interface</title>
<path fill="none" stroke="black" d="M851.59,-756.3C858.42,-764.7 866.76,-774.93 874.26,-784.14"/>
<polygon fill="black" stroke="black" points="880.57,-791.9 870.77,-786.98 877.42,-788.02 874.26,-784.14 874.26,-784.14 874.26,-784.14 877.42,-788.02 877.75,-781.3 880.57,-791.9 880.57,-791.9"/>
</g>
<!-- ragger.gui.process&#45;&gt;ragger.logger -->
<g id="edge56" class="edge">
<title>ragger.gui.process&#45;&gt;ragger.logger</title>
<path fill="none" stroke="black" d="M901.05,-756.09C927.36,-764.7 957.5,-776.62 982.5,-792 1010.92,-809.49 1038.16,-836.41 1056.13,-856.07"/>
<polygon fill="black" stroke="black" points="1063,-863.73 1052.98,-859.29 1059.67,-860.01 1056.33,-856.29 1056.33,-856.29 1056.33,-856.29 1059.67,-860.01 1059.68,-853.28 1063,-863.73 1063,-863.73"/>
</g>
<!-- ragger.gui.process&#45;&gt;ragger.navigator.instruction -->
<g id="edge57" class="edge">
<title>ragger.gui.process&#45;&gt;ragger.navigator.instruction</title>
<path fill="none" stroke="black" d="M762.85,-744.92C627.37,-755.75 344.85,-778.76 227.33,-791.84"/>
<polygon fill="black" stroke="black" points="217.15,-793 226.58,-787.4 222.12,-792.43 227.08,-791.87 227.08,-791.87 227.08,-791.87 222.12,-792.43 227.59,-796.34 217.15,-793 217.15,-793"/>
</g>
<!-- ragger.navigator&#45;&gt;ragger.navigator.instruction -->
<g id="edge58" class="edge">
<title>ragger.navigator&#45;&gt;ragger.navigator.instruction</title>
<path fill="none" stroke="black" d="M714.27,-106.65C686.99,-114.96 656.25,-127.04 631.5,-144 366.2,-325.78 172.13,-683.09 121.52,-782.68"/>
<polygon fill="black" stroke="black" points="116.94,-791.76 117.42,-780.8 119.19,-787.29 121.44,-782.83 121.44,-782.83 121.44,-782.83 119.19,-787.29 125.46,-784.85 116.94,-791.76 116.94,-791.76"/>
</g>
<!-- ragger.navigator.nano_navigator -->
<g id="node30" class="node">
<title>ragger.navigator.nano_navigator</title>
<polygon fill="chocolate" stroke="chocolate" points="1058.5,-324 810.5,-324 810.5,-288 1058.5,-288 1058.5,-324"/>
<text text-anchor="middle" x="934.5" y="-302.3" font-family="Times,serif" font-size="14.00">ragger.navigator.nano_navigator</text>
</g>
<!-- ragger.navigator&#45;&gt;ragger.navigator.nano_navigator -->
<g id="edge59" class="edge">
<title>ragger.navigator&#45;&gt;ragger.navigator.nano_navigator</title>
<path fill="none" stroke="black" d="M850.73,-103.85C874.06,-111.64 898.12,-124.1 913.5,-144 943.37,-182.64 942.43,-242.72 938.7,-277.52"/>
<polygon fill="black" stroke="black" points="937.42,-287.87 934.18,-277.4 938.03,-282.91 938.65,-277.95 938.65,-277.95 938.65,-277.95 938.03,-282.91 943.11,-278.5 937.42,-287.87 937.42,-287.87"/>
</g>
<!-- ragger.navigator.navigator -->
<g id="node31" class="node">
<title>ragger.navigator.navigator</title>
<polygon fill="chocolate" stroke="chocolate" points="754,-396 547,-396 547,-360 754,-360 754,-396"/>
<text text-anchor="middle" x="650.5" y="-374.3" font-family="Times,serif" font-size="14.00">ragger.navigator.navigator</text>
</g>
<!-- ragger.navigator&#45;&gt;ragger.navigator.navigator -->
<g id="edge60" class="edge">
<title>ragger.navigator&#45;&gt;ragger.navigator.navigator</title>
<path fill="none" stroke="black" d="M714.27,-102.41C690.35,-110.04 665.88,-122.77 651.5,-144 608.69,-207.21 628.46,-303.85 641.8,-350.28"/>
<polygon fill="black" stroke="black" points="644.69,-359.92 637.51,-351.63 643.25,-355.13 641.82,-350.34 641.82,-350.34 641.82,-350.34 643.25,-355.13 646.13,-349.05 644.69,-359.92 644.69,-359.92"/>
</g>
<!-- ragger.navigator.stax_navigator -->
<g id="node32" class="node">
<title>ragger.navigator.stax_navigator</title>
<polygon fill="chocolate" stroke="chocolate" points="904.5,-180 660.5,-180 660.5,-144 904.5,-144 904.5,-180"/>
<text text-anchor="middle" x="782.5" y="-158.3" font-family="Times,serif" font-size="14.00">ragger.navigator.stax_navigator</text>
</g>
<!-- ragger.navigator&#45;&gt;ragger.navigator.stax_navigator -->
<g id="edge61" class="edge">
<title>ragger.navigator&#45;&gt;ragger.navigator.stax_navigator</title>
<path fill="none" stroke="black" d="M782.5,-108.3C782.5,-116.02 782.5,-125.29 782.5,-133.89"/>
<polygon fill="black" stroke="black" points="782.5,-143.9 778,-133.9 782.5,-138.9 782.5,-133.9 782.5,-133.9 782.5,-133.9 782.5,-138.9 787,-133.9 782.5,-143.9 782.5,-143.9"/>
</g>
<!-- ragger.navigator.nano_navigator&#45;&gt;ragger.backend -->
<g id="edge62" class="edge">
<title>ragger.navigator.nano_navigator&#45;&gt;ragger.backend</title>
<path fill="none" stroke="black" d="M952.83,-324.13C979.77,-349.29 1030.14,-396.35 1060.77,-424.96"/>
<polygon fill="black" stroke="black" points="1068.1,-431.81 1057.72,-428.27 1064.45,-428.4 1060.79,-424.98 1060.79,-424.98 1060.79,-424.98 1064.45,-428.4 1063.86,-421.7 1068.1,-431.81 1068.1,-431.81"/>
</g>
<!-- ragger.navigator.nano_navigator&#45;&gt;ragger.firmware -->
<g id="edge63" class="edge">
<title>ragger.navigator.nano_navigator&#45;&gt;ragger.firmware</title>
<path fill="none" stroke="black" d="M985.15,-324.06C1078.79,-357.96 1280.19,-442.28 1398.5,-576 1432.02,-613.88 1441.22,-674.65 1443.68,-709.69"/>
<polygon fill="black" stroke="black" points="1444.25,-719.68 1439.19,-709.95 1443.96,-714.69 1443.68,-709.7 1443.68,-709.7 1443.68,-709.7 1443.96,-714.69 1448.17,-709.44 1444.25,-719.68 1444.25,-719.68"/>
</g>
<!-- ragger.navigator.nano_navigator&#45;&gt;ragger.navigator.navigator -->
<g id="edge64" class="edge">
<title>ragger.navigator.nano_navigator&#45;&gt;ragger.navigator.navigator</title>
<path fill="none" stroke="black" d="M865.39,-324.03C824.41,-334.13 772.33,-346.97 729.7,-357.48"/>
<polygon fill="black" stroke="black" points="719.92,-359.89 728.55,-353.13 724.78,-358.69 729.63,-357.5 729.63,-357.5 729.63,-357.5 724.78,-358.69 730.71,-361.87 719.92,-359.89 719.92,-359.89"/>
</g>
<!-- ragger.navigator.navigator&#45;&gt;ragger.backend -->
<g id="edge65" class="edge">
<title>ragger.navigator.navigator&#45;&gt;ragger.backend</title>
<path fill="none" stroke="black" d="M754.25,-393.99C850.95,-408.03 983.85,-427.5 1008.5,-432 1009.95,-432.26 1011.41,-432.54 1012.88,-432.82"/>
<polygon fill="black" stroke="black" points="1022.72,-434.73 1012.04,-437.24 1017.81,-433.78 1012.9,-432.82 1012.9,-432.82 1012.9,-432.82 1017.81,-433.78 1013.77,-428.4 1022.72,-434.73 1022.72,-434.73"/>
</g>
<!-- ragger.navigator.navigator&#45;&gt;ragger.firmware -->
<g id="edge66" class="edge">
<title>ragger.navigator.navigator&#45;&gt;ragger.firmware</title>
<path fill="none" stroke="black" d="M719.14,-396.04C894.52,-439.8 1347.08,-554.22 1372.5,-576 1393.88,-594.32 1421.7,-669.41 1435.67,-710.25"/>
<polygon fill="black" stroke="black" points="1438.92,-719.84 1431.45,-711.81 1437.32,-715.1 1435.71,-710.36 1435.71,-710.36 1435.71,-710.36 1437.32,-715.1 1439.98,-708.92 1438.92,-719.84 1438.92,-719.84"/>
</g>
<!-- ragger.navigator.navigator&#45;&gt;ragger.navigator.instruction -->
<g id="edge67" class="edge">
<title>ragger.navigator.navigator&#45;&gt;ragger.navigator.instruction</title>
<path fill="none" stroke="black" d="M557.03,-396.12C528.14,-404.11 497.18,-415.61 471.5,-432 399.56,-477.9 397.02,-508.74 344.5,-576 284.71,-652.57 294.5,-693.06 220.5,-756 205.15,-769.05 186.04,-779.65 167.97,-787.84"/>
<polygon fill="black" stroke="black" points="158.65,-791.91 166.02,-783.79 163.23,-789.91 167.81,-787.91 167.81,-787.91 167.81,-787.91 163.23,-789.91 169.61,-792.04 158.65,-791.91 158.65,-791.91"/>
</g>
<!-- ragger.navigator.navigator&#45;&gt;ragger.utils -->
<g id="edge68" class="edge">
<title>ragger.navigator.navigator&#45;&gt;ragger.utils</title>
<path fill="none" stroke="black" d="M594.04,-396.14C545.23,-414.29 477.76,-448.19 446.5,-504 405.75,-576.76 480.35,-669.19 522.09,-712.51"/>
<polygon fill="black" stroke="black" points="529.23,-719.77 519.01,-715.79 525.72,-716.2 522.22,-712.64 522.22,-712.64 522.22,-712.64 525.72,-716.2 525.43,-709.48 529.23,-719.77 529.23,-719.77"/>
</g>
<!-- ragger.navigator.stax_navigator&#45;&gt;ragger.backend -->
<g id="edge69" class="edge">
<title>ragger.navigator.stax_navigator&#45;&gt;ragger.backend</title>
<path fill="none" stroke="black" d="M779.44,-180.01C774.73,-211.72 769.34,-280.57 801.5,-324 828.85,-360.93 945.7,-403.97 1021.02,-428.7"/>
<polygon fill="black" stroke="black" points="1030.91,-431.92 1020,-433.1 1026.15,-430.37 1021.4,-428.82 1021.4,-428.82 1021.4,-428.82 1026.15,-430.37 1022.79,-424.54 1030.91,-431.92 1030.91,-431.92"/>
</g>
<!-- ragger.navigator.stax_navigator&#45;&gt;ragger.firmware -->
<g id="edge70" class="edge">
<title>ragger.navigator.stax_navigator&#45;&gt;ragger.firmware</title>
<path fill="none" stroke="black" d="M904.8,-168.59C1163.07,-182.04 1740.5,-221.46 1740.5,-305 1740.5,-305 1740.5,-305 1740.5,-595 1740.5,-692.45 1608.46,-723.07 1520.76,-732.66"/>
<polygon fill="black" stroke="black" points="1510.56,-733.71 1520.05,-728.21 1515.53,-733.2 1520.51,-732.69 1520.51,-732.69 1520.51,-732.69 1515.53,-733.2 1520.97,-737.16 1510.56,-733.71 1510.56,-733.71"/>
</g>
<!-- ragger.navigator.stax_navigator&#45;&gt;ragger.firmware.stax -->
<g id="edge71" class="edge">
<title>ragger.navigator.stax_navigator&#45;&gt;ragger.firmware.stax</title>
<path fill="none" stroke="black" d="M901.01,-180.03C985.35,-192.16 1097.13,-208.22 1175.38,-219.47"/>
<polygon fill="black" stroke="black" points="1185.71,-220.96 1175.17,-223.99 1180.76,-220.25 1175.81,-219.53 1175.81,-219.53 1175.81,-219.53 1180.76,-220.25 1176.45,-215.08 1185.71,-220.96 1185.71,-220.96"/>
</g>
<!-- ragger.navigator.stax_navigator&#45;&gt;ragger.navigator.instruction -->
<g id="edge72" class="edge">
<title>ragger.navigator.stax_navigator&#45;&gt;ragger.navigator.instruction</title>
<path fill="none" stroke="black" d="M754.13,-180.14C690.27,-219.53 532.21,-321.64 421.5,-432 294.77,-558.33 309.77,-630.22 182.5,-756 171.36,-767.01 157.75,-777.44 145.26,-786.09"/>
<polygon fill="black" stroke="black" points="136.83,-791.78 142.6,-782.45 140.97,-788.98 145.12,-786.18 145.12,-786.18 145.12,-786.18 140.97,-788.98 147.64,-789.91 136.83,-791.78 136.83,-791.78"/>
</g>
<!-- ragger.navigator.stax_navigator&#45;&gt;ragger.navigator.navigator -->
<g id="edge73" class="edge">
<title>ragger.navigator.stax_navigator&#45;&gt;ragger.navigator.navigator</title>
<path fill="none" stroke="black" d="M771.92,-180.15C748.85,-217.56 693.88,-306.68 666.53,-351.02"/>
<polygon fill="black" stroke="black" points="661.13,-359.77 662.55,-348.89 663.75,-355.51 666.38,-351.26 666.38,-351.26 666.38,-351.26 663.75,-355.51 670.21,-353.62 661.13,-359.77 661.13,-359.77"/>
</g>
<!-- ragger.utils&#45;&gt;ragger.utils.misc -->
<g id="edge74" class="edge">
<title>ragger.utils&#45;&gt;ragger.utils.misc</title>
<path fill="none" stroke="black" d="M497.83,-753.25C461.79,-763.59 412.56,-777.71 372.67,-789.16"/>
<polygon fill="black" stroke="black" points="363.01,-791.93 371.38,-784.84 367.81,-790.55 372.62,-789.17 372.62,-789.17 372.62,-789.17 367.81,-790.55 373.86,-793.5 363.01,-791.93 363.01,-791.93"/>
</g>
<!-- ragger.utils.packing -->
<g id="node35" class="node">
<title>ragger.utils.packing</title>
<polygon fill="coral" stroke="coral" points="625,-828 466,-828 466,-792 625,-792 625,-828"/>
<text text-anchor="middle" x="545.5" y="-806.3" font-family="Times,serif" font-size="14.00">ragger.utils.packing</text>
</g>
<!-- ragger.utils&#45;&gt;ragger.utils.packing -->
<g id="edge75" class="edge">
<title>ragger.utils&#45;&gt;ragger.utils.packing</title>
<path fill="none" stroke="black" d="M547.01,-756.3C546.79,-764.02 546.52,-773.29 546.27,-781.89"/>
<polygon fill="black" stroke="black" points="545.99,-791.9 541.78,-781.77 546.13,-786.9 546.27,-781.9 546.27,-781.9 546.27,-781.9 546.13,-786.9 550.77,-782.03 545.99,-791.9 545.99,-791.9"/>
</g>
<!-- ragger.utils&#45;&gt;ragger.utils.structs -->
<g id="edge76" class="edge">
<title>ragger.utils&#45;&gt;ragger.utils.structs</title>
<path fill="none" stroke="black" d="M589.82,-756.12C613.68,-765.78 643.67,-777.91 668.9,-788.12"/>
<polygon fill="black" stroke="black" points="678.32,-791.93 667.36,-792.35 673.68,-790.06 669.05,-788.18 669.05,-788.18 669.05,-788.18 673.68,-790.06 670.73,-784.01 678.32,-791.93 678.32,-791.93"/>
</g>
<!-- ragger.utils.misc&#45;&gt;ragger.error -->
<g id="edge77" class="edge">
<title>ragger.utils.misc&#45;&gt;ragger.error</title>
<path fill="none" stroke="black" d="M331.88,-828.12C347.04,-837.28 365.91,-848.66 382.24,-858.52"/>
<polygon fill="black" stroke="black" points="391.01,-863.81 380.13,-862.5 386.73,-861.23 382.45,-858.64 382.45,-858.64 382.45,-858.64 386.73,-861.23 384.78,-854.79 391.01,-863.81 391.01,-863.81"/>
</g>
</g>
</svg>
