<?xml version="1.0" encoding="UTF-8" standalone="no"?>
<!DOCTYPE svg PUBLIC "-//W3C//DTD SVG 1.1//EN"
 "http://www.w3.org/Graphics/SVG/1.1/DTD/svg11.dtd">
<!-- Generated by graphviz version 2.43.0 (0)
 -->
<!-- Title: packages_generated_ragger_architecture Pages: 1 -->
<svg width="2491pt" height="908pt"
 viewBox="0.00 0.00 2490.50 908.00" xmlns="http://www.w3.org/2000/svg" xmlns:xlink="http://www.w3.org/1999/xlink">
<g id="graph0" class="graph" transform="scale(1 1) rotate(0) translate(4 904)">
<title>packages_generated_ragger_architecture</title>
<polygon fill="white" stroke="transparent" points="-4,4 -4,-904 2486.5,-904 2486.5,4 -4,4"/>
<!-- ragger -->
<g id="node1" class="node">
<title>ragger</title>
<polygon fill="aliceblue" stroke="aliceblue" points="570,-828 505,-828 505,-792 570,-792 570,-828"/>
<text text-anchor="middle" x="537.5" y="-806.3" font-family="Times,serif" font-size="14.00">ragger</text>
</g>
<!-- ragger.__version__ -->
<g id="node2" class="node">
<title>ragger.__version__</title>
<polygon fill="aliceblue" stroke="aliceblue" points="611,-900 464,-900 464,-864 611,-864 611,-900"/>
<text text-anchor="middle" x="537.5" y="-878.3" font-family="Times,serif" font-size="14.00">ragger.__version__</text>
</g>
<!-- ragger&#45;&gt;ragger.__version__ -->
<g id="edge1" class="edge">
<title>ragger&#45;&gt;ragger.__version__</title>
<path fill="none" stroke="black" d="M537.5,-828.3C537.5,-836.02 537.5,-845.29 537.5,-853.89"/>
<polygon fill="black" stroke="black" points="537.5,-863.9 533,-853.9 537.5,-858.9 537.5,-853.9 537.5,-853.9 537.5,-853.9 537.5,-858.9 542,-853.9 537.5,-863.9 537.5,-863.9"/>
</g>
<!-- ragger.logger -->
<g id="node28" class="node">
<title>ragger.logger</title>
<polygon fill="aliceblue" stroke="aliceblue" points="831,-900 718,-900 718,-864 831,-864 831,-900"/>
<text text-anchor="middle" x="774.5" y="-878.3" font-family="Times,serif" font-size="14.00">ragger.logger</text>
</g>
<!-- ragger&#45;&gt;ragger.logger -->
<g id="edge2" class="edge">
<title>ragger&#45;&gt;ragger.logger</title>
<path fill="none" stroke="black" d="M570.38,-824.74C573.44,-825.89 576.52,-827 579.5,-828 621.62,-842.19 669.8,-855.31 707.73,-864.95"/>
<polygon fill="black" stroke="black" points="717.65,-867.45 706.85,-869.37 712.8,-866.23 707.95,-865.01 707.95,-865.01 707.95,-865.01 712.8,-866.23 709.05,-860.64 717.65,-867.45 717.65,-867.45"/>
</g>
<!-- ragger.backend -->
<g id="node3" class="node">
<title>ragger.backend</title>
<polygon fill="antiquewhite" stroke="antiquewhite" points="1110,-468 983,-468 983,-432 1110,-432 1110,-468"/>
<text text-anchor="middle" x="1046.5" y="-446.3" font-family="Times,serif" font-size="14.00">ragger.backend</text>
</g>
<!-- ragger.backend.interface -->
<g id="node4" class="node">
<title>ragger.backend.interface</title>
<polygon fill="antiquewhite" stroke="antiquewhite" points="1015,-684 820,-684 820,-648 1015,-648 1015,-684"/>
<text text-anchor="middle" x="917.5" y="-662.3" font-family="Times,serif" font-size="14.00">ragger.backend.interface</text>
</g>
<!-- ragger.backend&#45;&gt;ragger.backend.interface -->
<g id="edge3" class="edge">
<title>ragger.backend&#45;&gt;ragger.backend.interface</title>
<path fill="none" stroke="black" d="M1031.9,-468.35C1012.7,-491.74 978.69,-535.15 955.5,-576 944.14,-596 934.07,-620.06 927.15,-638.12"/>
<polygon fill="black" stroke="black" points="923.55,-647.73 922.84,-636.78 925.3,-643.04 927.06,-638.36 927.06,-638.36 927.06,-638.36 925.3,-643.04 931.27,-639.94 923.55,-647.73 923.55,-647.73"/>
</g>
<!-- ragger.backend.ledgercomm -->
<g id="node5" class="node">
<title>ragger.backend.ledgercomm</title>
<polygon fill="antiquewhite" stroke="antiquewhite" points="810.5,-540 590.5,-540 590.5,-504 810.5,-504 810.5,-540"/>
<text text-anchor="middle" x="700.5" y="-518.3" font-family="Times,serif" font-size="14.00">ragger.backend.ledgercomm</text>
</g>
<!-- ragger.backend&#45;&gt;ragger.backend.ledgercomm -->
<g id="edge4" class="edge">
<title>ragger.backend&#45;&gt;ragger.backend.ledgercomm</title>
<path fill="none" stroke="black" d="M982.64,-463.92C929.83,-474.6 854.09,-489.93 794.38,-502.01"/>
<polygon fill="black" stroke="black" points="784.56,-503.99 793.47,-497.6 789.46,-503 794.36,-502.01 794.36,-502.01 794.36,-502.01 789.46,-503 795.26,-506.42 784.56,-503.99 784.56,-503.99"/>
</g>
<!-- ragger.backend.ledgerwallet -->
<g id="node6" class="node">
<title>ragger.backend.ledgerwallet</title>
<polygon fill="antiquewhite" stroke="antiquewhite" points="572,-540 351,-540 351,-504 572,-504 572,-540"/>
<text text-anchor="middle" x="461.5" y="-518.3" font-family="Times,serif" font-size="14.00">ragger.backend.ledgerwallet</text>
</g>
<!-- ragger.backend&#45;&gt;ragger.backend.ledgerwallet -->
<g id="edge5" class="edge">
<title>ragger.backend&#45;&gt;ragger.backend.ledgerwallet</title>
<path fill="none" stroke="black" d="M982.88,-457.7C895.27,-467.04 732.29,-484.87 582.6,-503.88"/>
<polygon fill="black" stroke="black" points="572.31,-505.19 581.66,-499.46 577.27,-504.56 582.23,-503.93 582.23,-503.93 582.23,-503.93 577.27,-504.56 582.8,-508.39 572.31,-505.19 572.31,-505.19"/>
</g>
<!-- ragger.backend.speculos -->
<g id="node8" class="node">
<title>ragger.backend.speculos</title>
<polygon fill="antiquewhite" stroke="antiquewhite" points="908,-612 715,-612 715,-576 908,-576 908,-612"/>
<text text-anchor="middle" x="811.5" y="-590.3" font-family="Times,serif" font-size="14.00">ragger.backend.speculos</text>
</g>
<!-- ragger.backend&#45;&gt;ragger.backend.speculos -->
<g id="edge6" class="edge">
<title>ragger.backend&#45;&gt;ragger.backend.speculos</title>
<path fill="none" stroke="black" d="M998.21,-468.1C974.63,-477.32 946.3,-489.74 922.5,-504 890.99,-522.88 858.62,-549.87 837.03,-569.16"/>
<polygon fill="black" stroke="black" points="829.59,-575.9 833.99,-565.85 833.3,-572.54 837.01,-569.19 837.01,-569.19 837.01,-569.19 833.3,-572.54 840.03,-572.53 829.59,-575.9 829.59,-575.9"/>
</g>
<!-- ragger.backend.stub -->
<g id="node9" class="node">
<title>ragger.backend.stub</title>
<polygon fill="antiquewhite" stroke="antiquewhite" points="1128,-612 965,-612 965,-576 1128,-576 1128,-612"/>
<text text-anchor="middle" x="1046.5" y="-590.3" font-family="Times,serif" font-size="14.00">ragger.backend.stub</text>
</g>
<!-- ragger.backend&#45;&gt;ragger.backend.stub -->
<g id="edge7" class="edge">
<title>ragger.backend&#45;&gt;ragger.backend.stub</title>
<path fill="none" stroke="black" d="M1046.5,-468.13C1046.5,-492.33 1046.5,-536.79 1046.5,-565.61"/>
<polygon fill="black" stroke="black" points="1046.5,-575.81 1042,-565.81 1046.5,-570.81 1046.5,-565.81 1046.5,-565.81 1046.5,-565.81 1046.5,-570.81 1051,-565.81 1046.5,-575.81 1046.5,-575.81"/>
</g>
<!-- ragger.firmware -->
<g id="node17" class="node">
<title>ragger.firmware</title>
<polygon fill="cadetblue" stroke="cadetblue" points="1393.5,-756 1261.5,-756 1261.5,-720 1393.5,-720 1393.5,-756"/>
<text text-anchor="middle" x="1327.5" y="-734.3" font-family="Times,serif" font-size="14.00">ragger.firmware</text>
</g>
<!-- ragger.backend.interface&#45;&gt;ragger.firmware -->
<g id="edge8" class="edge">
<title>ragger.backend.interface&#45;&gt;ragger.firmware</title>
<path fill="none" stroke="black" d="M1015.18,-683.68C1087.5,-696.02 1184.63,-712.61 1251.27,-723.98"/>
<polygon fill="black" stroke="black" points="1261.28,-725.69 1250.67,-728.45 1256.35,-724.85 1251.42,-724.01 1251.42,-724.01 1251.42,-724.01 1256.35,-724.85 1252.18,-719.58 1261.28,-725.69 1261.28,-725.69"/>
</g>
<!-- ragger.backend.interface&#45;&gt;ragger.logger -->
<g id="edge9" class="edge">
<title>ragger.backend.interface&#45;&gt;ragger.logger</title>
<path fill="none" stroke="black" d="M932.44,-684.25C957.86,-715.75 1003.57,-783.43 969.5,-828 953.8,-848.53 891.57,-862.99 841.58,-871.56"/>
<polygon fill="black" stroke="black" points="831.44,-873.25 840.56,-867.17 836.37,-872.43 841.3,-871.6 841.3,-871.6 841.3,-871.6 836.37,-872.43 842.04,-876.04 831.44,-873.25 831.44,-873.25"/>
</g>
<!-- ragger.utils -->
<g id="node34" class="node">
<title>ragger.utils</title>
<polygon fill="coral" stroke="coral" points="772,-756 673,-756 673,-720 772,-720 772,-756"/>
<text text-anchor="middle" x="722.5" y="-734.3" font-family="Times,serif" font-size="14.00">ragger.utils</text>
</g>
<!-- ragger.backend.interface&#45;&gt;ragger.utils -->
<g id="edge10" class="edge">
<title>ragger.backend.interface&#45;&gt;ragger.utils</title>
<path fill="none" stroke="black" d="M869.8,-684.12C842.55,-693.91 808.2,-706.23 779.53,-716.53"/>
<polygon fill="black" stroke="black" points="770.05,-719.93 777.94,-712.32 774.75,-718.24 779.46,-716.55 779.46,-716.55 779.46,-716.55 774.75,-718.24 780.98,-720.79 770.05,-719.93 770.05,-719.93"/>
</g>
<!-- ragger.backend.ledgercomm&#45;&gt;ragger.backend.ledgercomm -->
<g id="edge11" class="edge">
<title>ragger.backend.ledgercomm&#45;&gt;ragger.backend.ledgercomm</title>
<path fill="none" stroke="black" d="M810.65,-510.99C821.56,-513.2 828.5,-516.87 828.5,-522 828.5,-525.37 825.51,-528.11 820.37,-530.21"/>
<polygon fill="black" stroke="black" points="810.65,-533.01 819.02,-525.92 815.46,-531.63 820.26,-530.25 820.26,-530.25 820.26,-530.25 815.46,-531.63 821.51,-534.57 810.65,-533.01 810.65,-533.01"/>
</g>
<!-- ragger.backend.physical_backend -->
<g id="node7" class="node">
<title>ragger.backend.physical_backend</title>
<polygon fill="antiquewhite" stroke="antiquewhite" points="658.5,-612 402.5,-612 402.5,-576 658.5,-576 658.5,-612"/>
<text text-anchor="middle" x="530.5" y="-590.3" font-family="Times,serif" font-size="14.00">ragger.backend.physical_backend</text>
</g>
<!-- ragger.backend.ledgercomm&#45;&gt;ragger.backend.physical_backend -->
<g id="edge12" class="edge">
<title>ragger.backend.ledgercomm&#45;&gt;ragger.backend.physical_backend</title>
<path fill="none" stroke="black" d="M658.91,-540.12C635.47,-549.78 606,-561.91 581.2,-572.12"/>
<polygon fill="black" stroke="black" points="571.95,-575.93 579.49,-567.96 576.58,-574.03 581.2,-572.12 581.2,-572.12 581.2,-572.12 576.58,-574.03 582.91,-576.29 571.95,-575.93 571.95,-575.93"/>
</g>
<!-- ragger.error -->
<g id="node16" class="node">
<title>ragger.error</title>
<polygon fill="aliceblue" stroke="aliceblue" points="354.5,-900 250.5,-900 250.5,-864 354.5,-864 354.5,-900"/>
<text text-anchor="middle" x="302.5" y="-878.3" font-family="Times,serif" font-size="14.00">ragger.error</text>
</g>
<!-- ragger.backend.ledgercomm&#45;&gt;ragger.error -->
<g id="edge13" class="edge">
<title>ragger.backend.ledgercomm&#45;&gt;ragger.error</title>
<path fill="none" stroke="black" d="M590.18,-539.38C505.33,-552.4 401.26,-569.47 393.5,-576 354.51,-608.82 329.07,-742.62 316.5,-792 311.3,-812.43 307.69,-836.02 305.45,-853.78"/>
<polygon fill="black" stroke="black" points="304.25,-863.75 300.97,-853.28 304.85,-858.78 305.44,-853.82 305.44,-853.82 305.44,-853.82 304.85,-858.78 309.91,-854.35 304.25,-863.75 304.25,-863.75"/>
</g>
<!-- ragger.backend.ledgercomm&#45;&gt;ragger.firmware -->
<g id="edge14" class="edge">
<title>ragger.backend.ledgercomm&#45;&gt;ragger.firmware</title>
<path fill="none" stroke="black" d="M810.77,-529.78C949.8,-539.05 1174.82,-556.75 1208.5,-576 1222.79,-584.17 1281.1,-668.42 1310.45,-711.67"/>
<polygon fill="black" stroke="black" points="1316.08,-719.99 1306.75,-714.23 1313.28,-715.85 1310.48,-711.71 1310.48,-711.71 1310.48,-711.71 1313.28,-715.85 1314.2,-709.18 1316.08,-719.99 1316.08,-719.99"/>
</g>
<!-- ragger.backend.ledgercomm&#45;&gt;ragger.utils -->
<g id="edge15" class="edge">
<title>ragger.backend.ledgercomm&#45;&gt;ragger.utils</title>
<path fill="none" stroke="black" d="M701.06,-540.09C701.74,-558.03 703.11,-587.04 705.5,-612 708.74,-645.76 714.28,-684.43 718.15,-709.7"/>
<polygon fill="black" stroke="black" points="719.7,-719.66 713.72,-710.47 718.93,-714.72 718.17,-709.78 718.17,-709.78 718.17,-709.78 718.93,-714.72 722.61,-709.09 719.7,-719.66 719.7,-719.66"/>
</g>
<!-- ragger.backend.ledgerwallet&#45;&gt;ragger.backend.physical_backend -->
<g id="edge16" class="edge">
<title>ragger.backend.ledgerwallet&#45;&gt;ragger.backend.physical_backend</title>
<path fill="none" stroke="black" d="M478.56,-540.3C487,-548.86 497.32,-559.34 506.54,-568.7"/>
<polygon fill="black" stroke="black" points="513.64,-575.9 503.42,-571.93 510.13,-572.33 506.62,-568.77 506.62,-568.77 506.62,-568.77 510.13,-572.33 509.82,-565.61 513.64,-575.9 513.64,-575.9"/>
</g>
<!-- ragger.backend.ledgerwallet&#45;&gt;ragger.error -->
<g id="edge17" class="edge">
<title>ragger.backend.ledgerwallet&#45;&gt;ragger.error</title>
<path fill="none" stroke="black" d="M428.76,-540.01C412.98,-549.26 394.49,-561.71 380.5,-576 327.69,-629.92 321.36,-651.12 290.5,-720 270.51,-764.63 256.06,-780.98 269.5,-828 272.21,-837.49 277.17,-846.94 282.43,-855.17"/>
<polygon fill="black" stroke="black" points="288.17,-863.57 278.82,-857.85 285.35,-859.44 282.53,-855.31 282.53,-855.31 282.53,-855.31 285.35,-859.44 286.25,-852.77 288.17,-863.57 288.17,-863.57"/>
</g>
<!-- ragger.backend.ledgerwallet&#45;&gt;ragger.firmware -->
<g id="edge18" class="edge">
<title>ragger.backend.ledgerwallet&#45;&gt;ragger.firmware</title>
<path fill="none" stroke="black" d="M572.29,-539.01C575.39,-539.36 578.47,-539.69 581.5,-540 704.44,-552.68 1021.85,-529.83 1136.5,-576 1205.55,-603.8 1207.58,-636.04 1264.5,-684 1275.82,-693.54 1288.3,-704.04 1299.14,-713.16"/>
<polygon fill="black" stroke="black" points="1307.07,-719.82 1296.52,-716.83 1303.24,-716.6 1299.41,-713.39 1299.41,-713.39 1299.41,-713.39 1303.24,-716.6 1302.31,-709.94 1307.07,-719.82 1307.07,-719.82"/>
</g>
<!-- ragger.backend.ledgerwallet&#45;&gt;ragger.utils -->
<g id="edge19" class="edge">
<title>ragger.backend.ledgerwallet&#45;&gt;ragger.utils</title>
<path fill="none" stroke="black" d="M428.14,-540.14C414.79,-548.91 400.86,-560.94 393.5,-576 371.17,-621.72 390.46,-653.91 431.5,-684 449.92,-697.5 583.25,-717.83 662.9,-728.98"/>
<polygon fill="black" stroke="black" points="672.82,-730.36 662.29,-733.44 667.86,-729.67 662.91,-728.98 662.91,-728.98 662.91,-728.98 667.86,-729.67 663.53,-724.52 672.82,-730.36 672.82,-730.36"/>
</g>
<!-- ragger.backend.physical_backend&#45;&gt;ragger.backend.interface -->
<g id="edge20" class="edge">
<title>ragger.backend.physical_backend&#45;&gt;ragger.backend.interface</title>
<path fill="none" stroke="black" d="M624.68,-612.03C681.68,-622.34 754.45,-635.51 813.19,-646.13"/>
<polygon fill="black" stroke="black" points="823.24,-647.95 812.6,-650.6 818.32,-647.06 813.4,-646.17 813.4,-646.17 813.4,-646.17 818.32,-647.06 814.2,-641.74 823.24,-647.95 823.24,-647.95"/>
</g>
<!-- ragger.backend.physical_backend&#45;&gt;ragger.firmware -->
<g id="edge21" class="edge">
<title>ragger.backend.physical_backend&#45;&gt;ragger.firmware</title>
<path fill="none" stroke="black" d="M658.76,-607.63C798.96,-621.61 1006.16,-642.86 1023.5,-648 1057.42,-658.06 1061.22,-671.99 1094.5,-684 1145.57,-702.44 1205.33,-715.88 1251.55,-724.61"/>
<polygon fill="black" stroke="black" points="1261.49,-726.46 1250.84,-729.06 1256.57,-725.54 1251.66,-724.63 1251.66,-724.63 1251.66,-724.63 1256.57,-725.54 1252.48,-720.21 1261.49,-726.46 1261.49,-726.46"/>
</g>
<!-- ragger.gui -->
<g id="node25" class="node">
<title>ragger.gui</title>
<polygon fill="chartreuse" stroke="chartreuse" points="530.5,-684 440.5,-684 440.5,-648 530.5,-648 530.5,-684"/>
<text text-anchor="middle" x="485.5" y="-662.3" font-family="Times,serif" font-size="14.00">ragger.gui</text>
</g>
<!-- ragger.backend.physical_backend&#45;&gt;ragger.gui -->
<g id="edge22" class="edge">
<title>ragger.backend.physical_backend&#45;&gt;ragger.gui</title>
<path fill="none" stroke="black" d="M519.38,-612.3C514.14,-620.44 507.8,-630.31 502.02,-639.3"/>
<polygon fill="black" stroke="black" points="496.5,-647.9 498.12,-637.05 499.2,-643.69 501.9,-639.48 501.9,-639.48 501.9,-639.48 499.2,-643.69 505.69,-641.92 496.5,-647.9 496.5,-647.9"/>
</g>
<!-- ragger.navigator.instruction -->
<g id="node30" class="node">
<title>ragger.navigator.instruction</title>
<polygon fill="chocolate" stroke="chocolate" points="217,-828 0,-828 0,-792 217,-792 217,-828"/>
<text text-anchor="middle" x="108.5" y="-806.3" font-family="Times,serif" font-size="14.00">ragger.navigator.instruction</text>
</g>
<!-- ragger.backend.physical_backend&#45;&gt;ragger.navigator.instruction -->
<g id="edge23" class="edge">
<title>ragger.backend.physical_backend&#45;&gt;ragger.navigator.instruction</title>
<path fill="none" stroke="black" d="M496.68,-612.15C420.42,-650.82 235.21,-744.74 151.2,-787.35"/>
<polygon fill="black" stroke="black" points="142.19,-791.92 149.07,-783.38 146.65,-789.65 151.11,-787.39 151.11,-787.39 151.11,-787.39 146.65,-789.65 153.14,-791.41 142.19,-791.92 142.19,-791.92"/>
</g>
<!-- ragger.backend.physical_backend&#45;&gt;ragger.utils -->
<g id="edge24" class="edge">
<title>ragger.backend.physical_backend&#45;&gt;ragger.utils</title>
<path fill="none" stroke="black" d="M553.66,-612.13C587.97,-637.5 652.39,-685.15 690.97,-713.68"/>
<polygon fill="black" stroke="black" points="699.26,-719.81 688.54,-717.48 695.24,-716.84 691.22,-713.86 691.22,-713.86 691.22,-713.86 695.24,-716.84 693.89,-710.25 699.26,-719.81 699.26,-719.81"/>
</g>
<!-- ragger.backend.speculos&#45;&gt;ragger.backend.interface -->
<g id="edge25" class="edge">
<title>ragger.backend.speculos&#45;&gt;ragger.backend.interface</title>
<path fill="none" stroke="black" d="M837.43,-612.12C851.16,-621.19 868.21,-632.45 883.04,-642.24"/>
<polygon fill="black" stroke="black" points="891.47,-647.81 880.65,-646.05 887.3,-645.05 883.13,-642.3 883.13,-642.3 883.13,-642.3 887.3,-645.05 885.6,-638.54 891.47,-647.81 891.47,-647.81"/>
</g>
<!-- ragger.backend.speculos&#45;&gt;ragger.error -->
<g id="edge26" class="edge">
<title>ragger.backend.speculos&#45;&gt;ragger.error</title>
<path fill="none" stroke="black" d="M759.23,-612.08C655.28,-646.07 432.38,-718.98 430.5,-720 385.45,-744.37 371.49,-751.21 340.5,-792 326.26,-810.74 316.23,-835.61 310.06,-854.3"/>
<polygon fill="black" stroke="black" points="307.03,-863.97 305.73,-853.08 308.53,-859.2 310.02,-854.43 310.02,-854.43 310.02,-854.43 308.53,-859.2 314.32,-855.77 307.03,-863.97 307.03,-863.97"/>
</g>
<!-- ragger.backend.speculos&#45;&gt;ragger.firmware -->
<g id="edge27" class="edge">
<title>ragger.backend.speculos&#45;&gt;ragger.firmware</title>
<path fill="none" stroke="black" d="M908.12,-608.68C963.28,-617.58 1033.4,-630.76 1094.5,-648 1160.2,-666.54 1233.33,-695.99 1279.84,-715.89"/>
<polygon fill="black" stroke="black" points="1289.06,-719.86 1278.09,-720.04 1284.47,-717.88 1279.87,-715.91 1279.87,-715.91 1279.87,-715.91 1284.47,-717.88 1281.65,-711.77 1289.06,-719.86 1289.06,-719.86"/>
</g>
<!-- ragger.backend.speculos&#45;&gt;ragger.utils -->
<g id="edge28" class="edge">
<title>ragger.backend.speculos&#45;&gt;ragger.utils</title>
<path fill="none" stroke="black" d="M800.76,-612.13C785.33,-636.76 756.74,-682.36 738.72,-711.12"/>
<polygon fill="black" stroke="black" points="733.27,-719.81 734.77,-708.95 735.93,-715.57 738.58,-711.34 738.58,-711.34 738.58,-711.34 735.93,-715.57 742.4,-713.73 733.27,-719.81 733.27,-719.81"/>
</g>
<!-- ragger.backend.stub&#45;&gt;ragger.backend.interface -->
<g id="edge29" class="edge">
<title>ragger.backend.stub&#45;&gt;ragger.backend.interface</title>
<path fill="none" stroke="black" d="M1014.94,-612.12C997.84,-621.4 976.52,-632.97 958.18,-642.92"/>
<polygon fill="black" stroke="black" points="949.18,-647.81 955.82,-639.09 953.57,-645.43 957.97,-643.04 957.97,-643.04 957.97,-643.04 953.57,-645.43 960.11,-647 949.18,-647.81 949.18,-647.81"/>
</g>
<!-- ragger.utils.structs -->
<g id="node37" class="node">
<title>ragger.utils.structs</title>
<polygon fill="coral" stroke="coral" points="1170.5,-828 1016.5,-828 1016.5,-792 1170.5,-792 1170.5,-828"/>
<text text-anchor="middle" x="1093.5" y="-806.3" font-family="Times,serif" font-size="14.00">ragger.utils.structs</text>
</g>
<!-- ragger.backend.stub&#45;&gt;ragger.utils.structs -->
<g id="edge30" class="edge">
<title>ragger.backend.stub&#45;&gt;ragger.utils.structs</title>
<path fill="none" stroke="black" d="M1050.27,-612.15C1058.41,-649.25 1077.73,-737.19 1087.55,-781.9"/>
<polygon fill="black" stroke="black" points="1089.72,-791.77 1083.17,-782.97 1088.64,-786.88 1087.57,-782 1087.57,-782 1087.57,-782 1088.64,-786.88 1091.97,-781.03 1089.72,-791.77 1089.72,-791.77"/>
</g>
<!-- ragger.bip -->
<g id="node10" class="node">
<title>ragger.bip</title>
<polygon fill="aquamarine" stroke="aquamarine" points="2096.5,-36 2006.5,-36 2006.5,0 2096.5,0 2096.5,-36"/>
<text text-anchor="middle" x="2051.5" y="-14.3" font-family="Times,serif" font-size="14.00">ragger.bip</text>
</g>
<!-- ragger.bip.path -->
<g id="node11" class="node">
<title>ragger.bip.path</title>
<polygon fill="aquamarine" stroke="aquamarine" points="2042,-108 1915,-108 1915,-72 2042,-72 2042,-108"/>
<text text-anchor="middle" x="1978.5" y="-86.3" font-family="Times,serif" font-size="14.00">ragger.bip.path</text>
</g>
<!-- ragger.bip&#45;&gt;ragger.bip.path -->
<g id="edge31" class="edge">
<title>ragger.bip&#45;&gt;ragger.bip.path</title>
<path fill="none" stroke="black" d="M2033.46,-36.3C2024.44,-44.95 2013.38,-55.55 2003.56,-64.97"/>
<polygon fill="black" stroke="black" points="1996.34,-71.9 2000.44,-61.73 1999.95,-68.44 2003.56,-64.97 2003.56,-64.97 2003.56,-64.97 1999.95,-68.44 2006.67,-68.22 1996.34,-71.9 1996.34,-71.9"/>
</g>
<!-- ragger.bip.seed -->
<g id="node12" class="node">
<title>ragger.bip.seed</title>
<polygon fill="aquamarine" stroke="aquamarine" points="2188.5,-108 2060.5,-108 2060.5,-72 2188.5,-72 2188.5,-108"/>
<text text-anchor="middle" x="2124.5" y="-86.3" font-family="Times,serif" font-size="14.00">ragger.bip.seed</text>
</g>
<!-- ragger.bip&#45;&gt;ragger.bip.seed -->
<g id="edge32" class="edge">
<title>ragger.bip&#45;&gt;ragger.bip.seed</title>
<path fill="none" stroke="black" d="M2069.54,-36.3C2078.56,-44.95 2089.62,-55.55 2099.44,-64.97"/>
<polygon fill="black" stroke="black" points="2106.66,-71.9 2096.33,-68.22 2103.05,-68.44 2099.44,-64.97 2099.44,-64.97 2099.44,-64.97 2103.05,-68.44 2102.56,-61.73 2106.66,-71.9 2106.66,-71.9"/>
</g>
<!-- ragger.conftest -->
<g id="node13" class="node">
<title>ragger.conftest</title>
<polygon fill="burlywood" stroke="burlywood" points="2240,-36 2115,-36 2115,0 2240,0 2240,-36"/>
<text text-anchor="middle" x="2177.5" y="-14.3" font-family="Times,serif" font-size="14.00">ragger.conftest</text>
</g>
<!-- ragger.conftest.base_conftest -->
<g id="node14" class="node">
<title>ragger.conftest.base_conftest</title>
<polygon fill="burlywood" stroke="burlywood" points="1251,-36 1024,-36 1024,0 1251,0 1251,-36"/>
<text text-anchor="middle" x="1137.5" y="-14.3" font-family="Times,serif" font-size="14.00">ragger.conftest.base_conftest</text>
</g>
<!-- ragger.conftest.base_conftest&#45;&gt;ragger.backend -->
<g id="edge33" class="edge">
<title>ragger.conftest.base_conftest&#45;&gt;ragger.backend</title>
<path fill="none" stroke="black" d="M1133.66,-36.39C1128.1,-63.06 1118.5,-115.73 1118.5,-161 1118.5,-161 1118.5,-161 1118.5,-307 1118.5,-351.65 1089.84,-396.48 1068.68,-423.49"/>
<polygon fill="black" stroke="black" points="1062.12,-431.62 1064.91,-421.01 1065.26,-427.73 1068.41,-423.84 1068.41,-423.84 1068.41,-423.84 1065.26,-427.73 1071.91,-426.66 1062.12,-431.62 1062.12,-431.62"/>
</g>
<!-- ragger.conftest.base_conftest&#45;&gt;ragger.firmware -->
<g id="edge34" class="edge">
<title>ragger.conftest.base_conftest&#45;&gt;ragger.firmware</title>
<path fill="none" stroke="black" d="M1251.26,-28.96C1460.79,-48.86 1886.5,-97.14 1886.5,-161 1886.5,-161 1886.5,-161 1886.5,-595 1886.5,-651.89 1845.95,-659.72 1794.5,-684 1727.08,-715.82 1517.96,-729.22 1403.79,-734.28"/>
<polygon fill="black" stroke="black" points="1393.72,-734.72 1403.51,-729.79 1398.71,-734.5 1403.71,-734.28 1403.71,-734.28 1403.71,-734.28 1398.71,-734.5 1403.9,-738.78 1393.72,-734.72 1393.72,-734.72"/>
</g>
<!-- ragger.conftest.base_conftest&#45;&gt;ragger.logger -->
<g id="edge35" class="edge">
<title>ragger.conftest.base_conftest&#45;&gt;ragger.logger</title>
<path fill="none" stroke="black" d="M1159.06,-36.22C1187.09,-60.72 1232.5,-108.5 1232.5,-161 1232.5,-161 1232.5,-161 1232.5,-523 1232.5,-660.59 1278.81,-732.77 1179.5,-828 1132.43,-873.14 943.93,-880.77 841.53,-881.5"/>
<polygon fill="black" stroke="black" points="831.29,-881.55 841.27,-877 836.29,-881.52 841.29,-881.5 841.29,-881.5 841.29,-881.5 836.29,-881.52 841.31,-886 831.29,-881.55 831.29,-881.55"/>
</g>
<!-- ragger.navigator -->
<g id="node29" class="node">
<title>ragger.navigator</title>
<polygon fill="chocolate" stroke="chocolate" points="882.5,-108 746.5,-108 746.5,-72 882.5,-72 882.5,-108"/>
<text text-anchor="middle" x="814.5" y="-86.3" font-family="Times,serif" font-size="14.00">ragger.navigator</text>
</g>
<!-- ragger.conftest.base_conftest&#45;&gt;ragger.navigator -->
<g id="edge36" class="edge">
<title>ragger.conftest.base_conftest&#45;&gt;ragger.navigator</title>
<path fill="none" stroke="black" d="M1058.9,-36.03C1008.39,-46.98 943.05,-61.14 892.63,-72.07"/>
<polygon fill="black" stroke="black" points="882.76,-74.21 891.58,-67.69 887.64,-73.15 892.53,-72.09 892.53,-72.09 892.53,-72.09 887.64,-73.15 893.48,-76.49 882.76,-74.21 882.76,-74.21"/>
</g>
<!-- ragger.conftest.base_conftest&#45;&gt;ragger.utils -->
<g id="edge37" class="edge">
<title>ragger.conftest.base_conftest&#45;&gt;ragger.utils</title>
<path fill="none" stroke="black" d="M1141.34,-36.39C1146.9,-63.06 1156.5,-115.73 1156.5,-161 1156.5,-161 1156.5,-161 1156.5,-523 1156.5,-563.54 1159.8,-578.82 1136.5,-612 1102.27,-660.73 1079,-662.42 1023.5,-684 943.39,-715.14 844.15,-728.1 782.06,-733.41"/>
<polygon fill="black" stroke="black" points="772.05,-734.23 781.65,-728.93 777.03,-733.82 782.01,-733.41 782.01,-733.41 782.01,-733.41 777.03,-733.82 782.38,-737.9 772.05,-734.23 772.05,-734.23"/>
</g>
<!-- ragger.utils.misc -->
<g id="node35" class="node">
<title>ragger.utils.misc</title>
<polygon fill="coral" stroke="coral" points="487,-828 350,-828 350,-792 487,-792 487,-828"/>
<text text-anchor="middle" x="418.5" y="-806.3" font-family="Times,serif" font-size="14.00">ragger.utils.misc</text>
</g>
<!-- ragger.conftest.base_conftest&#45;&gt;ragger.utils.misc -->
<g id="edge38" class="edge">
<title>ragger.conftest.base_conftest&#45;&gt;ragger.utils.misc</title>
<path fill="none" stroke="black" d="M1023.96,-24.23C771.27,-37.39 184.5,-77 184.5,-161 184.5,-161 184.5,-161 184.5,-379 184.5,-552.2 332.78,-722.13 393.27,-784.25"/>
<polygon fill="black" stroke="black" points="400.53,-791.62 390.3,-787.65 397.02,-788.05 393.51,-784.49 393.51,-784.49 393.51,-784.49 397.02,-788.05 396.71,-781.33 400.53,-791.62 400.53,-791.62"/>
</g>
<!-- ragger.conftest.configuration -->
<g id="node15" class="node">
<title>ragger.conftest.configuration</title>
<polygon fill="burlywood" stroke="burlywood" points="2482.5,-36 2258.5,-36 2258.5,0 2482.5,0 2482.5,-36"/>
<text text-anchor="middle" x="2370.5" y="-14.3" font-family="Times,serif" font-size="14.00">ragger.conftest.configuration</text>
</g>
<!-- ragger.firmware.structs -->
<g id="node23" class="node">
<title>ragger.firmware.structs</title>
<polygon fill="cadetblue" stroke="cadetblue" points="1503,-828 1316,-828 1316,-792 1503,-792 1503,-828"/>
<text text-anchor="middle" x="1409.5" y="-806.3" font-family="Times,serif" font-size="14.00">ragger.firmware.structs</text>
</g>
<!-- ragger.firmware&#45;&gt;ragger.firmware.structs -->
<g id="edge39" class="edge">
<title>ragger.firmware&#45;&gt;ragger.firmware.structs</title>
<path fill="none" stroke="black" d="M1347.77,-756.3C1358,-765.03 1370.56,-775.76 1381.68,-785.25"/>
<polygon fill="black" stroke="black" points="1389.46,-791.9 1378.94,-788.83 1385.66,-788.65 1381.86,-785.4 1381.86,-785.4 1381.86,-785.4 1385.66,-788.65 1384.78,-781.98 1389.46,-791.9 1389.46,-791.9"/>
</g>
<!-- ragger.firmware.versions -->
<g id="node24" class="node">
<title>ragger.firmware.versions</title>
<polygon fill="cadetblue" stroke="cadetblue" points="1508,-900 1311,-900 1311,-864 1508,-864 1508,-900"/>
<text text-anchor="middle" x="1409.5" y="-878.3" font-family="Times,serif" font-size="14.00">ragger.firmware.versions</text>
</g>
<!-- ragger.firmware&#45;&gt;ragger.firmware.versions -->
<g id="edge40" class="edge">
<title>ragger.firmware&#45;&gt;ragger.firmware.versions</title>
<path fill="none" stroke="black" d="M1316.25,-756.27C1305.53,-775.13 1292.86,-805.64 1306.5,-828 1314.7,-841.45 1327.53,-851.63 1341.39,-859.28"/>
<polygon fill="black" stroke="black" points="1350.6,-863.96 1339.65,-863.45 1346.14,-861.7 1341.68,-859.43 1341.68,-859.43 1341.68,-859.43 1346.14,-861.7 1343.72,-855.42 1350.6,-863.96 1350.6,-863.96"/>
</g>
<!-- ragger.firmware.stax -->
<g id="node18" class="node">
<title>ragger.firmware.stax</title>
<polygon fill="cadetblue" stroke="cadetblue" points="1012,-252 845,-252 845,-216 1012,-216 1012,-252"/>
<text text-anchor="middle" x="928.5" y="-230.3" font-family="Times,serif" font-size="14.00">ragger.firmware.stax</text>
</g>
<!-- ragger.firmware.stax.screen -->
<g id="node21" class="node">
<title>ragger.firmware.stax.screen</title>
<polygon fill="cadetblue" stroke="cadetblue" points="1519.5,-324 1301.5,-324 1301.5,-288 1519.5,-288 1519.5,-324"/>
<text text-anchor="middle" x="1410.5" y="-302.3" font-family="Times,serif" font-size="14.00">ragger.firmware.stax.screen</text>
</g>
<!-- ragger.firmware.stax&#45;&gt;ragger.firmware.stax.screen -->
<g id="edge41" class="edge">
<title>ragger.firmware.stax&#45;&gt;ragger.firmware.stax.screen</title>
<path fill="none" stroke="black" d="M1012.22,-249.43C1017.73,-250.32 1023.19,-251.18 1028.5,-252 1116.37,-265.56 1215.86,-279.31 1291.27,-289.41"/>
<polygon fill="black" stroke="black" points="1301.28,-290.75 1290.78,-293.88 1296.33,-290.09 1291.37,-289.42 1291.37,-289.42 1291.37,-289.42 1296.33,-290.09 1291.97,-284.96 1301.28,-290.75 1301.28,-290.75"/>
</g>
<!-- ragger.firmware.stax.layouts -->
<g id="node19" class="node">
<title>ragger.firmware.stax.layouts</title>
<polygon fill="cadetblue" stroke="cadetblue" points="1522,-396 1299,-396 1299,-360 1522,-360 1522,-396"/>
<text text-anchor="middle" x="1410.5" y="-374.3" font-family="Times,serif" font-size="14.00">ragger.firmware.stax.layouts</text>
</g>
<!-- ragger.firmware.stax.layouts&#45;&gt;ragger.backend -->
<g id="edge42" class="edge">
<title>ragger.firmware.stax.layouts&#45;&gt;ragger.backend</title>
<path fill="none" stroke="black" d="M1321.92,-396.03C1260.05,-407.93 1178.43,-423.63 1120.13,-434.84"/>
<polygon fill="black" stroke="black" points="1110.25,-436.74 1119.22,-430.43 1115.16,-435.8 1120.07,-434.85 1120.07,-434.85 1120.07,-434.85 1115.16,-435.8 1120.92,-439.27 1110.25,-436.74 1110.25,-436.74"/>
</g>
<!-- ragger.firmware.stax.layouts&#45;&gt;ragger.firmware -->
<g id="edge43" class="edge">
<title>ragger.firmware.stax.layouts&#45;&gt;ragger.firmware</title>
<path fill="none" stroke="black" d="M1405.24,-396.3C1397.64,-422.86 1384.5,-475.39 1384.5,-521 1384.5,-521 1384.5,-521 1384.5,-595 1384.5,-635.97 1376.84,-646.43 1360.5,-684 1356.5,-693.2 1351.08,-702.67 1345.79,-711.02"/>
<polygon fill="black" stroke="black" points="1340.17,-719.57 1341.9,-708.74 1342.92,-715.39 1345.66,-711.21 1345.66,-711.21 1345.66,-711.21 1342.92,-715.39 1349.43,-713.68 1340.17,-719.57 1340.17,-719.57"/>
</g>
<!-- ragger.firmware.stax.positions -->
<g id="node20" class="node">
<title>ragger.firmware.stax.positions</title>
<polygon fill="cadetblue" stroke="cadetblue" points="1648.5,-468 1412.5,-468 1412.5,-432 1648.5,-432 1648.5,-468"/>
<text text-anchor="middle" x="1530.5" y="-446.3" font-family="Times,serif" font-size="14.00">ragger.firmware.stax.positions</text>
</g>
<!-- ragger.firmware.stax.layouts&#45;&gt;ragger.firmware.stax.positions -->
<g id="edge44" class="edge">
<title>ragger.firmware.stax.layouts&#45;&gt;ragger.firmware.stax.positions</title>
<path fill="none" stroke="black" d="M1439.86,-396.12C1455.55,-405.28 1475.06,-416.66 1491.95,-426.52"/>
<polygon fill="black" stroke="black" points="1501.03,-431.81 1490.13,-430.66 1496.71,-429.29 1492.39,-426.77 1492.39,-426.77 1492.39,-426.77 1496.71,-429.29 1494.66,-422.88 1501.03,-431.81 1501.03,-431.81"/>
</g>
<!-- ragger.firmware.stax.positions&#45;&gt;ragger.firmware.versions -->
<g id="edge45" class="edge">
<title>ragger.firmware.stax.positions&#45;&gt;ragger.firmware.versions</title>
<path fill="none" stroke="black" d="M1530.5,-468.05C1530.5,-494.71 1530.5,-547.89 1530.5,-593 1530.5,-593 1530.5,-593 1530.5,-739 1530.5,-779.45 1536.01,-795.82 1511.5,-828 1501.34,-841.34 1486.85,-851.64 1471.98,-859.45"/>
<polygon fill="black" stroke="black" points="1462.7,-864 1469.7,-855.55 1467.19,-861.79 1471.68,-859.59 1471.68,-859.59 1471.68,-859.59 1467.19,-861.79 1473.66,-863.63 1462.7,-864 1462.7,-864"/>
</g>
<!-- ragger.firmware.stax.screen&#45;&gt;ragger.backend -->
<g id="edge46" class="edge">
<title>ragger.firmware.stax.screen&#45;&gt;ragger.backend</title>
<path fill="none" stroke="black" d="M1366.59,-324.13C1299.55,-350.28 1171.84,-400.1 1099.66,-428.26"/>
<polygon fill="black" stroke="black" points="1090.28,-431.92 1097.96,-424.09 1094.94,-430.1 1099.6,-428.29 1099.6,-428.29 1099.6,-428.29 1094.94,-430.1 1101.23,-432.48 1090.28,-431.92 1090.28,-431.92"/>
</g>
<!-- ragger.firmware.stax.screen&#45;&gt;ragger.firmware -->
<g id="edge47" class="edge">
<title>ragger.firmware.stax.screen&#45;&gt;ragger.firmware</title>
<path fill="none" stroke="black" d="M1519.85,-315.83C1625.29,-325.35 1771.76,-341.63 1791.5,-360 1821.11,-387.55 1810.5,-408.55 1810.5,-449 1810.5,-449 1810.5,-449 1810.5,-595 1810.5,-678.78 1539.65,-716.71 1403.6,-730.48"/>
<polygon fill="black" stroke="black" points="1393.65,-731.47 1403.15,-726 1398.62,-730.98 1403.6,-730.48 1403.6,-730.48 1403.6,-730.48 1398.62,-730.98 1404.04,-734.96 1393.65,-731.47 1393.65,-731.47"/>
</g>
<!-- ragger.firmware.stax.screen&#45;&gt;ragger.firmware.stax.layouts -->
<g id="edge48" class="edge">
<title>ragger.firmware.stax.screen&#45;&gt;ragger.firmware.stax.layouts</title>
<path fill="none" stroke="black" d="M1410.5,-324.3C1410.5,-332.02 1410.5,-341.29 1410.5,-349.89"/>
<polygon fill="black" stroke="black" points="1410.5,-359.9 1406,-349.9 1410.5,-354.9 1410.5,-349.9 1410.5,-349.9 1410.5,-349.9 1410.5,-354.9 1415,-349.9 1410.5,-359.9 1410.5,-359.9"/>
</g>
<!-- ragger.firmware.stax.use_cases -->
<g id="node22" class="node">
<title>ragger.firmware.stax.use_cases</title>
<polygon fill="cadetblue" stroke="cadetblue" points="1782.5,-396 1540.5,-396 1540.5,-360 1782.5,-360 1782.5,-396"/>
<text text-anchor="middle" x="1661.5" y="-374.3" font-family="Times,serif" font-size="14.00">ragger.firmware.stax.use_cases</text>
</g>
<!-- ragger.firmware.stax.screen&#45;&gt;ragger.firmware.stax.use_cases -->
<g id="edge49" class="edge">
<title>ragger.firmware.stax.screen&#45;&gt;ragger.firmware.stax.use_cases</title>
<path fill="none" stroke="black" d="M1471.58,-324.03C1507.41,-334.03 1552.86,-346.7 1590.31,-357.15"/>
<polygon fill="black" stroke="black" points="1600.15,-359.89 1589.3,-361.54 1595.33,-358.55 1590.51,-357.2 1590.51,-357.2 1590.51,-357.2 1595.33,-358.55 1591.72,-352.87 1600.15,-359.89 1600.15,-359.89"/>
</g>
<!-- ragger.firmware.stax.use_cases&#45;&gt;ragger.backend -->
<g id="edge50" class="edge">
<title>ragger.firmware.stax.use_cases&#45;&gt;ragger.backend</title>
<path fill="none" stroke="black" d="M1540.18,-394.83C1536.92,-395.23 1533.69,-395.62 1530.5,-396 1385.34,-413.36 1215.41,-431.46 1120.44,-441.37"/>
<polygon fill="black" stroke="black" points="1110.36,-442.42 1119.84,-436.91 1115.33,-441.9 1120.3,-441.38 1120.3,-441.38 1120.3,-441.38 1115.33,-441.9 1120.77,-445.86 1110.36,-442.42 1110.36,-442.42"/>
</g>
<!-- ragger.firmware.stax.use_cases&#45;&gt;ragger.firmware -->
<g id="edge51" class="edge">
<title>ragger.firmware.stax.use_cases&#45;&gt;ragger.firmware</title>
<path fill="none" stroke="black" d="M1664.54,-396.43C1668.92,-423.14 1676.5,-475.88 1676.5,-521 1676.5,-521 1676.5,-521 1676.5,-595 1676.5,-653.48 1506.26,-699.54 1403.58,-722"/>
<polygon fill="black" stroke="black" points="1393.55,-724.17 1402.38,-717.66 1398.44,-723.11 1403.33,-722.05 1403.33,-722.05 1403.33,-722.05 1398.44,-723.11 1404.28,-726.45 1393.55,-724.17 1393.55,-724.17"/>
</g>
<!-- ragger.firmware.stax.use_cases&#45;&gt;ragger.firmware.stax.positions -->
<g id="edge52" class="edge">
<title>ragger.firmware.stax.use_cases&#45;&gt;ragger.firmware.stax.positions</title>
<path fill="none" stroke="black" d="M1629.45,-396.12C1612.01,-405.45 1590.23,-417.08 1571.56,-427.06"/>
<polygon fill="black" stroke="black" points="1562.67,-431.81 1569.37,-423.13 1567.08,-429.45 1571.49,-427.1 1571.49,-427.1 1571.49,-427.1 1567.08,-429.45 1573.61,-431.07 1562.67,-431.81 1562.67,-431.81"/>
</g>
<!-- ragger.firmware.structs&#45;&gt;ragger.firmware.versions -->
<g id="edge53" class="edge">
<title>ragger.firmware.structs&#45;&gt;ragger.firmware.versions</title>
<path fill="none" stroke="black" d="M1409.5,-828.3C1409.5,-836.02 1409.5,-845.29 1409.5,-853.89"/>
<polygon fill="black" stroke="black" points="1409.5,-863.9 1405,-853.9 1409.5,-858.9 1409.5,-853.9 1409.5,-853.9 1409.5,-853.9 1409.5,-858.9 1414,-853.9 1409.5,-863.9 1409.5,-863.9"/>
</g>
<!-- ragger.gui.process -->
<g id="node27" class="node">
<title>ragger.gui.process</title>
<polygon fill="chartreuse" stroke="chartreuse" points="589,-756 440,-756 440,-720 589,-720 589,-756"/>
<text text-anchor="middle" x="514.5" y="-734.3" font-family="Times,serif" font-size="14.00">ragger.gui.process</text>
</g>
<!-- ragger.gui&#45;&gt;ragger.gui.process -->
<g id="edge54" class="edge">
<title>ragger.gui&#45;&gt;ragger.gui.process</title>
<path fill="none" stroke="black" d="M492.67,-684.3C495.93,-692.19 499.87,-701.7 503.5,-710.45"/>
<polygon fill="black" stroke="black" points="507.41,-719.9 499.43,-712.38 505.5,-715.28 503.59,-710.66 503.59,-710.66 503.59,-710.66 505.5,-715.28 507.74,-708.93 507.41,-719.9 507.41,-719.9"/>
</g>
<!-- ragger.gui.interface -->
<g id="node26" class="node">
<title>ragger.gui.interface</title>
<polygon fill="chartreuse" stroke="chartreuse" points="746.5,-828 588.5,-828 588.5,-792 746.5,-792 746.5,-828"/>
<text text-anchor="middle" x="667.5" y="-806.3" font-family="Times,serif" font-size="14.00">ragger.gui.interface</text>
</g>
<!-- ragger.gui.interface&#45;&gt;ragger.logger -->
<g id="edge55" class="edge">
<title>ragger.gui.interface&#45;&gt;ragger.logger</title>
<path fill="none" stroke="black" d="M693.68,-828.12C707.54,-837.19 724.74,-848.45 739.71,-858.24"/>
<polygon fill="black" stroke="black" points="748.22,-863.81 737.39,-862.1 744.04,-861.07 739.86,-858.34 739.86,-858.34 739.86,-858.34 744.04,-861.07 742.32,-854.57 748.22,-863.81 748.22,-863.81"/>
</g>
<!-- ragger.gui.process&#45;&gt;ragger.gui.interface -->
<g id="edge56" class="edge">
<title>ragger.gui.process&#45;&gt;ragger.gui.interface</title>
<path fill="none" stroke="black" d="M551.93,-756.12C572.75,-765.65 598.85,-777.59 620.98,-787.72"/>
<polygon fill="black" stroke="black" points="630.19,-791.93 619.23,-791.86 625.65,-789.85 621.1,-787.77 621.1,-787.77 621.1,-787.77 625.65,-789.85 622.97,-783.68 630.19,-791.93 630.19,-791.93"/>
</g>
<!-- ragger.gui.process&#45;&gt;ragger.logger -->
<g id="edge57" class="edge">
<title>ragger.gui.process&#45;&gt;ragger.logger</title>
<path fill="none" stroke="black" d="M589.23,-746.58C651.09,-754.41 732.44,-768.79 755.5,-792 771.38,-807.98 775.47,-833.77 775.97,-853.48"/>
<polygon fill="black" stroke="black" points="775.93,-863.71 771.47,-853.69 775.95,-858.71 775.97,-853.71 775.97,-853.71 775.97,-853.71 775.95,-858.71 780.47,-853.73 775.93,-863.71 775.93,-863.71"/>
</g>
<!-- ragger.gui.process&#45;&gt;ragger.navigator.instruction -->
<g id="edge58" class="edge">
<title>ragger.gui.process&#45;&gt;ragger.navigator.instruction</title>
<path fill="none" stroke="black" d="M439.56,-751.92C377.21,-762.67 287.62,-778.12 217.36,-790.23"/>
<polygon fill="black" stroke="black" points="207.14,-791.99 216.23,-785.86 212.07,-791.14 216.99,-790.29 216.99,-790.29 216.99,-790.29 212.07,-791.14 217.76,-794.73 207.14,-791.99 207.14,-791.99"/>
</g>
<!-- ragger.navigator&#45;&gt;ragger.navigator.instruction -->
<g id="edge59" class="edge">
<title>ragger.navigator&#45;&gt;ragger.navigator.instruction</title>
<path fill="none" stroke="black" d="M746.49,-99.63C569.54,-126.25 108.5,-224.11 108.5,-521 108.5,-521 108.5,-521 108.5,-667 108.5,-707 108.5,-753.35 108.5,-781.92"/>
<polygon fill="black" stroke="black" points="108.5,-791.95 104,-781.95 108.5,-786.95 108.5,-781.95 108.5,-781.95 108.5,-781.95 108.5,-786.95 113,-781.95 108.5,-791.95 108.5,-791.95"/>
</g>
<!-- ragger.navigator.nano_navigator -->
<g id="node31" class="node">
<title>ragger.navigator.nano_navigator</title>
<polygon fill="chocolate" stroke="chocolate" points="1090.5,-324 842.5,-324 842.5,-288 1090.5,-288 1090.5,-324"/>
<text text-anchor="middle" x="966.5" y="-302.3" font-family="Times,serif" font-size="14.00">ragger.navigator.nano_navigator</text>
</g>
<!-- ragger.navigator&#45;&gt;ragger.navigator.nano_navigator -->
<g id="edge60" class="edge">
<title>ragger.navigator&#45;&gt;ragger.navigator.nano_navigator</title>
<path fill="none" stroke="black" d="M879.06,-108.03C929.84,-125.5 995.98,-158.47 1020.5,-216 1026.77,-230.72 1026.69,-237.25 1020.5,-252 1015.86,-263.05 1007.67,-272.96 999.04,-281.14"/>
<polygon fill="black" stroke="black" points="991.43,-287.86 995.94,-277.87 995.18,-284.55 998.92,-281.24 998.92,-281.24 998.92,-281.24 995.18,-284.55 1001.9,-284.61 991.43,-287.86 991.43,-287.86"/>
</g>
<!-- ragger.navigator.navigator -->
<g id="node32" class="node">
<title>ragger.navigator.navigator</title>
<polygon fill="chocolate" stroke="chocolate" points="786,-396 579,-396 579,-360 786,-360 786,-396"/>
<text text-anchor="middle" x="682.5" y="-374.3" font-family="Times,serif" font-size="14.00">ragger.navigator.navigator</text>
</g>
<!-- ragger.navigator&#45;&gt;ragger.navigator.navigator -->
<g id="edge61" class="edge">
<title>ragger.navigator&#45;&gt;ragger.navigator.navigator</title>
<path fill="none" stroke="black" d="M746.27,-102.41C722.35,-110.04 697.88,-122.77 683.5,-144 640.69,-207.21 660.46,-303.85 673.8,-350.28"/>
<polygon fill="black" stroke="black" points="676.69,-359.92 669.51,-351.63 675.25,-355.13 673.82,-350.34 673.82,-350.34 673.82,-350.34 675.25,-355.13 678.13,-349.05 676.69,-359.92 676.69,-359.92"/>
</g>
<!-- ragger.navigator.stax_navigator -->
<g id="node33" class="node">
<title>ragger.navigator.stax_navigator</title>
<polygon fill="chocolate" stroke="chocolate" points="936.5,-180 692.5,-180 692.5,-144 936.5,-144 936.5,-180"/>
<text text-anchor="middle" x="814.5" y="-158.3" font-family="Times,serif" font-size="14.00">ragger.navigator.stax_navigator</text>
</g>
<!-- ragger.navigator&#45;&gt;ragger.navigator.stax_navigator -->
<g id="edge62" class="edge">
<title>ragger.navigator&#45;&gt;ragger.navigator.stax_navigator</title>
<path fill="none" stroke="black" d="M814.5,-108.3C814.5,-116.02 814.5,-125.29 814.5,-133.89"/>
<polygon fill="black" stroke="black" points="814.5,-143.9 810,-133.9 814.5,-138.9 814.5,-133.9 814.5,-133.9 814.5,-133.9 814.5,-138.9 819,-133.9 814.5,-143.9 814.5,-143.9"/>
</g>
<!-- ragger.navigator.nano_navigator&#45;&gt;ragger.backend -->
<g id="edge63" class="edge">
<title>ragger.navigator.nano_navigator&#45;&gt;ragger.backend</title>
<path fill="none" stroke="black" d="M976.15,-324.13C989.96,-348.65 1015.5,-393.97 1031.71,-422.74"/>
<polygon fill="black" stroke="black" points="1036.82,-431.81 1027.99,-425.31 1034.36,-427.45 1031.91,-423.1 1031.91,-423.1 1031.91,-423.1 1034.36,-427.45 1035.83,-420.89 1036.82,-431.81 1036.82,-431.81"/>
</g>
<!-- ragger.navigator.nano_navigator&#45;&gt;ragger.firmware -->
<g id="edge64" class="edge">
<title>ragger.navigator.nano_navigator&#45;&gt;ragger.firmware</title>
<path fill="none" stroke="black" d="M990.19,-324.28C1044.09,-364.35 1178.28,-468.43 1269.5,-576 1294.53,-605.52 1305.26,-611.63 1318.5,-648 1325.71,-667.79 1327.8,-691.59 1328.18,-709.6"/>
<polygon fill="black" stroke="black" points="1328.23,-719.71 1323.68,-709.74 1328.21,-714.71 1328.18,-709.71 1328.18,-709.71 1328.18,-709.71 1328.21,-714.71 1332.68,-709.69 1328.23,-719.71 1328.23,-719.71"/>
</g>
<!-- ragger.navigator.nano_navigator&#45;&gt;ragger.navigator.navigator -->
<g id="edge65" class="edge">
<title>ragger.navigator.nano_navigator&#45;&gt;ragger.navigator.navigator</title>
<path fill="none" stroke="black" d="M897.39,-324.03C856.41,-334.13 804.33,-346.97 761.7,-357.48"/>
<polygon fill="black" stroke="black" points="751.92,-359.89 760.55,-353.13 756.78,-358.69 761.63,-357.5 761.63,-357.5 761.63,-357.5 756.78,-358.69 762.71,-361.87 751.92,-359.89 751.92,-359.89"/>
</g>
<!-- ragger.navigator.navigator&#45;&gt;ragger.backend -->
<g id="edge66" class="edge">
<title>ragger.navigator.navigator&#45;&gt;ragger.backend</title>
<path fill="none" stroke="black" d="M778.63,-396.04C834.2,-406.08 905.38,-419.28 968.5,-432 969.94,-432.29 971.4,-432.59 972.87,-432.89"/>
<polygon fill="black" stroke="black" points="982.68,-434.92 971.98,-437.3 977.79,-433.91 972.89,-432.89 972.89,-432.89 972.89,-432.89 977.79,-433.91 973.8,-428.49 982.68,-434.92 982.68,-434.92"/>
</g>
<!-- ragger.navigator.navigator&#45;&gt;ragger.firmware -->
<g id="edge67" class="edge">
<title>ragger.navigator.navigator&#45;&gt;ragger.firmware</title>
<path fill="none" stroke="black" d="M735.68,-396.02C866.24,-438.05 1194.99,-545.58 1237.5,-576 1283.6,-608.99 1308.98,-673.34 1320.25,-709.91"/>
<polygon fill="black" stroke="black" points="1323.18,-719.86 1316.04,-711.54 1321.77,-715.07 1320.36,-710.27 1320.36,-710.27 1320.36,-710.27 1321.77,-715.07 1324.68,-709 1323.18,-719.86 1323.18,-719.86"/>
</g>
<!-- ragger.navigator.navigator&#45;&gt;ragger.navigator.instruction -->
<g id="edge68" class="edge">
<title>ragger.navigator.navigator&#45;&gt;ragger.navigator.instruction</title>
<path fill="none" stroke="black" d="M578.71,-379.51C432.76,-386.32 184.5,-422.91 184.5,-593 184.5,-593 184.5,-593 184.5,-667 184.5,-707.97 180.84,-720.44 160.5,-756 154.46,-766.56 145.81,-776.53 137.29,-784.92"/>
<polygon fill="black" stroke="black" points="129.91,-791.86 134.11,-781.73 133.55,-788.43 137.2,-785.01 137.2,-785.01 137.2,-785.01 133.55,-788.43 140.28,-788.29 129.91,-791.86 129.91,-791.86"/>
</g>
<!-- ragger.navigator.navigator&#45;&gt;ragger.utils -->
<g id="edge69" class="edge">
<title>ragger.navigator.navigator&#45;&gt;ragger.utils</title>
<path fill="none" stroke="black" d="M580.6,-396.05C466.84,-418.04 298.5,-460.76 298.5,-521 298.5,-521 298.5,-521 298.5,-595 298.5,-652.53 340.91,-658.53 392.5,-684 404.52,-689.94 571.19,-714.93 662.94,-728.36"/>
<polygon fill="black" stroke="black" points="672.93,-729.82 662.39,-732.83 667.98,-729.1 663.04,-728.38 663.04,-728.38 663.04,-728.38 667.98,-729.1 663.69,-723.92 672.93,-729.82 672.93,-729.82"/>
</g>
<!-- ragger.navigator.stax_navigator&#45;&gt;ragger.backend -->
<g id="edge70" class="edge">
<title>ragger.navigator.stax_navigator&#45;&gt;ragger.backend</title>
<path fill="none" stroke="black" d="M811.87,-180.16C807.99,-211.53 804.09,-279 833.5,-324 867.58,-376.16 931.6,-409.38 980.59,-428.35"/>
<polygon fill="black" stroke="black" points="990.17,-431.96 979.23,-432.65 985.49,-430.2 980.81,-428.44 980.81,-428.44 980.81,-428.44 985.49,-430.2 982.4,-424.23 990.17,-431.96 990.17,-431.96"/>
</g>
<!-- ragger.navigator.stax_navigator&#45;&gt;ragger.firmware -->
<g id="edge71" class="edge">
<title>ragger.navigator.stax_navigator&#45;&gt;ragger.firmware</title>
<path fill="none" stroke="black" d="M936.68,-171.51C1174.69,-190.51 1688.39,-244.12 1816.5,-360 1847.67,-388.2 1848.5,-406.97 1848.5,-449 1848.5,-449 1848.5,-449 1848.5,-595 1848.5,-658.93 1794.43,-659.21 1735.5,-684 1677.34,-708.47 1505.12,-724.41 1403.98,-731.94"/>
<polygon fill="black" stroke="black" points="1393.82,-732.68 1403.46,-727.46 1398.81,-732.31 1403.79,-731.95 1403.79,-731.95 1403.79,-731.95 1398.81,-732.31 1404.12,-736.44 1393.82,-732.68 1393.82,-732.68"/>
</g>
<!-- ragger.navigator.stax_navigator&#45;&gt;ragger.firmware.stax -->
<g id="edge72" class="edge">
<title>ragger.navigator.stax_navigator&#45;&gt;ragger.firmware.stax</title>
<path fill="none" stroke="black" d="M842.39,-180.12C857.29,-189.28 875.83,-200.66 891.88,-210.52"/>
<polygon fill="black" stroke="black" points="900.51,-215.81 889.63,-214.41 896.24,-213.19 891.98,-210.58 891.98,-210.58 891.98,-210.58 896.24,-213.19 894.34,-206.74 900.51,-215.81 900.51,-215.81"/>
</g>
<!-- ragger.navigator.stax_navigator&#45;&gt;ragger.navigator.instruction -->
<g id="edge73" class="edge">
<title>ragger.navigator.stax_navigator&#45;&gt;ragger.navigator.instruction</title>
<path fill="none" stroke="black" d="M757.83,-180.05C596.54,-230.27 146.5,-382.76 146.5,-521 146.5,-521 146.5,-521 146.5,-667 146.5,-708.37 131.27,-754.28 120.09,-782.39"/>
<polygon fill="black" stroke="black" points="116.19,-791.91 115.82,-780.95 118.09,-787.28 119.98,-782.65 119.98,-782.65 119.98,-782.65 118.09,-787.28 124.15,-784.36 116.19,-791.91 116.19,-791.91"/>
</g>
<!-- ragger.navigator.stax_navigator&#45;&gt;ragger.navigator.navigator -->
<g id="edge74" class="edge">
<title>ragger.navigator.stax_navigator&#45;&gt;ragger.navigator.navigator</title>
<path fill="none" stroke="black" d="M803.92,-180.15C780.85,-217.56 725.88,-306.68 698.53,-351.02"/>
<polygon fill="black" stroke="black" points="693.13,-359.77 694.55,-348.89 695.75,-355.51 698.38,-351.26 698.38,-351.26 698.38,-351.26 695.75,-355.51 702.21,-353.62 693.13,-359.77 693.13,-359.77"/>
</g>
<!-- ragger.utils&#45;&gt;ragger.utils.misc -->
<g id="edge75" class="edge">
<title>ragger.utils&#45;&gt;ragger.utils.misc</title>
<path fill="none" stroke="black" d="M672.98,-750.4C625.29,-761.38 552.39,-778.17 496.83,-790.96"/>
<polygon fill="black" stroke="black" points="487.02,-793.22 495.75,-786.59 491.89,-792.1 496.76,-790.98 496.76,-790.98 496.76,-790.98 491.89,-792.1 497.77,-795.36 487.02,-793.22 487.02,-793.22"/>
</g>
<!-- ragger.utils.packing -->
<g id="node36" class="node">
<title>ragger.utils.packing</title>
<polygon fill="coral" stroke="coral" points="961,-828 802,-828 802,-792 961,-792 961,-828"/>
<text text-anchor="middle" x="881.5" y="-806.3" font-family="Times,serif" font-size="14.00">ragger.utils.packing</text>
</g>
<!-- ragger.utils&#45;&gt;ragger.utils.packing -->
<g id="edge76" class="edge">
<title>ragger.utils&#45;&gt;ragger.utils.packing</title>
<path fill="none" stroke="black" d="M761.4,-756.12C783.13,-765.69 810.4,-777.7 833.46,-787.85"/>
<polygon fill="black" stroke="black" points="842.73,-791.93 831.77,-792.02 838.15,-789.92 833.58,-787.9 833.58,-787.9 833.58,-787.9 838.15,-789.92 835.39,-783.78 842.73,-791.93 842.73,-791.93"/>
</g>
<!-- ragger.utils&#45;&gt;ragger.utils.structs -->
<g id="edge77" class="edge">
<title>ragger.utils&#45;&gt;ragger.utils.structs</title>
<path fill="none" stroke="black" d="M772.15,-748.37C831.93,-759.65 933.38,-778.79 1006.31,-792.55"/>
<polygon fill="black" stroke="black" points="1016.4,-794.45 1005.74,-797.02 1011.49,-793.53 1006.58,-792.6 1006.58,-792.6 1006.58,-792.6 1011.49,-793.53 1007.41,-788.18 1016.4,-794.45 1016.4,-794.45"/>
</g>
<!-- ragger.utils.misc&#45;&gt;ragger.error -->
<g id="edge78" class="edge">
<title>ragger.utils.misc&#45;&gt;ragger.error</title>
<path fill="none" stroke="black" d="M390.12,-828.12C374.96,-837.28 356.09,-848.66 339.76,-858.52"/>
<polygon fill="black" stroke="black" points="330.99,-863.81 337.22,-854.79 335.27,-861.23 339.55,-858.64 339.55,-858.64 339.55,-858.64 335.27,-861.23 341.87,-862.5 330.99,-863.81 330.99,-863.81"/>
</g>
</g>
</svg>
