<?xml version="1.0" encoding="UTF-8" standalone="no"?>
<!DOCTYPE svg PUBLIC "-//W3C//DTD SVG 1.1//EN"
 "http://www.w3.org/Graphics/SVG/1.1/DTD/svg11.dtd">
<!-- Generated by graphviz version 2.43.0 (0)
 -->
<!-- Title: packages_generated_ragger_architecture Pages: 1 -->
<svg width="2208pt" height="908pt"
 viewBox="0.00 0.00 2207.50 908.00" xmlns="http://www.w3.org/2000/svg" xmlns:xlink="http://www.w3.org/1999/xlink">
<g id="graph0" class="graph" transform="scale(1 1) rotate(0) translate(4 904)">
<title>packages_generated_ragger_architecture</title>
<polygon fill="white" stroke="transparent" points="-4,4 -4,-904 2203.5,-904 2203.5,4 -4,4"/>
<!-- ragger -->
<g id="node1" class="node">
<title>ragger</title>
<polygon fill="#77aadd" stroke="#77aadd" points="106,-828 41,-828 41,-792 106,-792 106,-828"/>
<text text-anchor="middle" x="73.5" y="-806.3" font-family="Times,serif" font-size="14.00">ragger</text>
</g>
<!-- ragger.__version__ -->
<g id="node2" class="node">
<title>ragger.__version__</title>
<polygon fill="#77aadd" stroke="#77aadd" points="147,-900 0,-900 0,-864 147,-864 147,-900"/>
<text text-anchor="middle" x="73.5" y="-878.3" font-family="Times,serif" font-size="14.00">ragger.__version__</text>
</g>
<!-- ragger&#45;&gt;ragger.__version__ -->
<g id="edge1" class="edge">
<title>ragger&#45;&gt;ragger.__version__</title>
<path fill="none" stroke="black" d="M73.5,-828.3C73.5,-836.02 73.5,-845.29 73.5,-853.89"/>
<polygon fill="black" stroke="black" points="73.5,-863.9 69,-853.9 73.5,-858.9 73.5,-853.9 73.5,-853.9 73.5,-853.9 73.5,-858.9 78,-853.9 73.5,-863.9 73.5,-863.9"/>
</g>
<!-- ragger.logger -->
<g id="node27" class="node">
<title>ragger.logger</title>
<polygon fill="#77aadd" stroke="#77aadd" points="669,-900 556,-900 556,-864 669,-864 669,-900"/>
<text text-anchor="middle" x="612.5" y="-878.3" font-family="Times,serif" font-size="14.00">ragger.logger</text>
</g>
<!-- ragger&#45;&gt;ragger.logger -->
<g id="edge2" class="edge">
<title>ragger&#45;&gt;ragger.logger</title>
<path fill="none" stroke="black" d="M106.07,-823.91C110.85,-825.48 115.77,-826.91 120.5,-828 269.91,-862.54 450.16,-874.68 545.6,-878.87"/>
<polygon fill="black" stroke="black" points="555.69,-879.29 545.51,-883.37 550.7,-879.08 545.7,-878.87 545.7,-878.87 545.7,-878.87 550.7,-879.08 545.89,-874.37 555.69,-879.29 555.69,-879.29"/>
</g>
<!-- ragger.backend -->
<g id="node3" class="node">
<title>ragger.backend</title>
<polygon fill="#99ddff" stroke="#99ddff" points="890,-468 763,-468 763,-432 890,-432 890,-468"/>
<text text-anchor="middle" x="826.5" y="-446.3" font-family="Times,serif" font-size="14.00">ragger.backend</text>
</g>
<!-- ragger.backend.interface -->
<g id="node4" class="node">
<title>ragger.backend.interface</title>
<polygon fill="#99ddff" stroke="#99ddff" points="899,-684 704,-684 704,-648 899,-648 899,-684"/>
<text text-anchor="middle" x="801.5" y="-662.3" font-family="Times,serif" font-size="14.00">ragger.backend.interface</text>
</g>
<!-- ragger.backend&#45;&gt;ragger.backend.interface -->
<g id="edge3" class="edge">
<title>ragger.backend&#45;&gt;ragger.backend.interface</title>
<path fill="none" stroke="black" d="M816.61,-468.15C800.98,-497.31 773.22,-558.61 782.5,-612 784.02,-620.76 786.86,-629.99 789.89,-638.25"/>
<polygon fill="black" stroke="black" points="793.61,-647.75 785.77,-640.07 791.79,-643.09 789.96,-638.43 789.96,-638.43 789.96,-638.43 791.79,-643.09 794.16,-636.79 793.61,-647.75 793.61,-647.75"/>
</g>
<!-- ragger.backend.ledgercomm -->
<g id="node5" class="node">
<title>ragger.backend.ledgercomm</title>
<polygon fill="#99ddff" stroke="#99ddff" points="1322.5,-540 1102.5,-540 1102.5,-504 1322.5,-504 1322.5,-540"/>
<text text-anchor="middle" x="1212.5" y="-518.3" font-family="Times,serif" font-size="14.00">ragger.backend.ledgercomm</text>
</g>
<!-- ragger.backend&#45;&gt;ragger.backend.ledgercomm -->
<g id="edge4" class="edge">
<title>ragger.backend&#45;&gt;ragger.backend.ledgercomm</title>
<path fill="none" stroke="black" d="M890.24,-462.56C949.53,-473.31 1038.94,-489.52 1108.55,-502.15"/>
<polygon fill="black" stroke="black" points="1118.67,-503.98 1108.03,-506.63 1113.75,-503.09 1108.83,-502.2 1108.83,-502.2 1108.83,-502.2 1113.75,-503.09 1109.63,-497.77 1118.67,-503.98 1118.67,-503.98"/>
</g>
<!-- ragger.backend.ledgerwallet -->
<g id="node6" class="node">
<title>ragger.backend.ledgerwallet</title>
<polygon fill="#99ddff" stroke="#99ddff" points="1084,-540 863,-540 863,-504 1084,-504 1084,-540"/>
<text text-anchor="middle" x="973.5" y="-518.3" font-family="Times,serif" font-size="14.00">ragger.backend.ledgerwallet</text>
</g>
<!-- ragger.backend&#45;&gt;ragger.backend.ledgerwallet -->
<g id="edge5" class="edge">
<title>ragger.backend&#45;&gt;ragger.backend.ledgerwallet</title>
<path fill="none" stroke="black" d="M862.46,-468.12C882.38,-477.61 907.32,-489.49 928.52,-499.58"/>
<polygon fill="black" stroke="black" points="937.66,-503.93 926.69,-503.7 933.14,-501.78 928.63,-499.63 928.63,-499.63 928.63,-499.63 933.14,-501.78 930.56,-495.57 937.66,-503.93 937.66,-503.93"/>
</g>
<!-- ragger.backend.speculos -->
<g id="node8" class="node">
<title>ragger.backend.speculos</title>
<polygon fill="#99ddff" stroke="#99ddff" points="735,-612 542,-612 542,-576 735,-576 735,-612"/>
<text text-anchor="middle" x="638.5" y="-590.3" font-family="Times,serif" font-size="14.00">ragger.backend.speculos</text>
</g>
<!-- ragger.backend&#45;&gt;ragger.backend.speculos -->
<g id="edge6" class="edge">
<title>ragger.backend&#45;&gt;ragger.backend.speculos</title>
<path fill="none" stroke="black" d="M800.5,-468.2C785.42,-478.36 766.17,-491.61 749.5,-504 720.72,-525.4 688.89,-551.15 666.72,-569.43"/>
<polygon fill="black" stroke="black" points="659.01,-575.81 663.85,-565.97 662.86,-572.62 666.72,-569.43 666.72,-569.43 666.72,-569.43 662.86,-572.62 669.58,-572.9 659.01,-575.81 659.01,-575.81"/>
</g>
<!-- ragger.backend.stub -->
<g id="node9" class="node">
<title>ragger.backend.stub</title>
<polygon fill="#99ddff" stroke="#99ddff" points="955,-612 792,-612 792,-576 955,-576 955,-612"/>
<text text-anchor="middle" x="873.5" y="-590.3" font-family="Times,serif" font-size="14.00">ragger.backend.stub</text>
</g>
<!-- ragger.backend&#45;&gt;ragger.backend.stub -->
<g id="edge7" class="edge">
<title>ragger.backend&#45;&gt;ragger.backend.stub</title>
<path fill="none" stroke="black" d="M831.34,-468.17C836.51,-486.17 845.08,-515.23 853.5,-540 856.46,-548.7 859.92,-558.11 863.13,-566.55"/>
<polygon fill="black" stroke="black" points="866.72,-575.92 858.94,-568.2 864.93,-571.25 863.14,-566.58 863.14,-566.58 863.14,-566.58 864.93,-571.25 867.34,-564.97 866.72,-575.92 866.72,-575.92"/>
</g>
<!-- ragger.firmware -->
<g id="node17" class="node">
<title>ragger.firmware</title>
<polygon fill="#aaaa00" stroke="#aaaa00" points="484.5,-756 352.5,-756 352.5,-720 484.5,-720 484.5,-756"/>
<text text-anchor="middle" x="418.5" y="-734.3" font-family="Times,serif" font-size="14.00">ragger.firmware</text>
</g>
<!-- ragger.backend.interface&#45;&gt;ragger.firmware -->
<g id="edge8" class="edge">
<title>ragger.backend.interface&#45;&gt;ragger.firmware</title>
<path fill="none" stroke="black" d="M708.3,-684.03C642.75,-696.01 556.13,-711.85 494.71,-723.07"/>
<polygon fill="black" stroke="black" points="484.69,-724.9 493.72,-718.68 489.61,-724 494.53,-723.1 494.53,-723.1 494.53,-723.1 489.61,-724 495.34,-727.53 484.69,-724.9 484.69,-724.9"/>
</g>
<!-- ragger.backend.interface&#45;&gt;ragger.logger -->
<g id="edge9" class="edge">
<title>ragger.backend.interface&#45;&gt;ragger.logger</title>
<path fill="none" stroke="black" d="M773.55,-684.15C740.35,-705.73 685.12,-745.64 650.5,-792 636.5,-810.74 626.49,-835.42 620.27,-854.04"/>
<polygon fill="black" stroke="black" points="617.2,-863.68 615.95,-852.78 618.72,-858.91 620.24,-854.15 620.24,-854.15 620.24,-854.15 618.72,-858.91 624.52,-855.51 617.2,-863.68 617.2,-863.68"/>
</g>
<!-- ragger.utils -->
<g id="node34" class="node">
<title>ragger.utils</title>
<polygon fill="#ffaabb" stroke="#ffaabb" points="1306,-756 1207,-756 1207,-720 1306,-720 1306,-756"/>
<text text-anchor="middle" x="1256.5" y="-734.3" font-family="Times,serif" font-size="14.00">ragger.utils</text>
</g>
<!-- ragger.backend.interface&#45;&gt;ragger.utils -->
<g id="edge10" class="edge">
<title>ragger.backend.interface&#45;&gt;ragger.utils</title>
<path fill="none" stroke="black" d="M899.23,-681.53C969.45,-692.03 1066.35,-706.66 1151.5,-720 1166.18,-722.3 1181.99,-724.83 1196.79,-727.22"/>
<polygon fill="black" stroke="black" points="1206.84,-728.85 1196.25,-731.7 1201.91,-728.05 1196.97,-727.25 1196.97,-727.25 1196.97,-727.25 1201.91,-728.05 1197.69,-722.81 1206.84,-728.85 1206.84,-728.85"/>
</g>
<!-- ragger.backend.ledgercomm&#45;&gt;ragger.backend.ledgercomm -->
<g id="edge11" class="edge">
<title>ragger.backend.ledgercomm&#45;&gt;ragger.backend.ledgercomm</title>
<path fill="none" stroke="black" d="M1322.65,-510.99C1333.56,-513.2 1340.5,-516.87 1340.5,-522 1340.5,-525.37 1337.51,-528.11 1332.37,-530.21"/>
<polygon fill="black" stroke="black" points="1322.65,-533.01 1331.02,-525.92 1327.46,-531.63 1332.26,-530.25 1332.26,-530.25 1332.26,-530.25 1327.46,-531.63 1333.51,-534.57 1322.65,-533.01 1322.65,-533.01"/>
</g>
<!-- ragger.backend.physical_backend -->
<g id="node7" class="node">
<title>ragger.backend.physical_backend</title>
<polygon fill="#99ddff" stroke="#99ddff" points="1267.5,-612 1011.5,-612 1011.5,-576 1267.5,-576 1267.5,-612"/>
<text text-anchor="middle" x="1139.5" y="-590.3" font-family="Times,serif" font-size="14.00">ragger.backend.physical_backend</text>
</g>
<!-- ragger.backend.ledgercomm&#45;&gt;ragger.backend.physical_backend -->
<g id="edge12" class="edge">
<title>ragger.backend.ledgercomm&#45;&gt;ragger.backend.physical_backend</title>
<path fill="none" stroke="black" d="M1194.46,-540.3C1185.44,-548.95 1174.38,-559.55 1164.56,-568.97"/>
<polygon fill="black" stroke="black" points="1157.34,-575.9 1161.44,-565.73 1160.95,-572.44 1164.56,-568.97 1164.56,-568.97 1164.56,-568.97 1160.95,-572.44 1167.67,-572.22 1157.34,-575.9 1157.34,-575.9"/>
</g>
<!-- ragger.error -->
<g id="node16" class="node">
<title>ragger.error</title>
<polygon fill="#77aadd" stroke="#77aadd" points="1313.5,-900 1209.5,-900 1209.5,-864 1313.5,-864 1313.5,-900"/>
<text text-anchor="middle" x="1261.5" y="-878.3" font-family="Times,serif" font-size="14.00">ragger.error</text>
</g>
<!-- ragger.backend.ledgercomm&#45;&gt;ragger.error -->
<g id="edge13" class="edge">
<title>ragger.backend.ledgercomm&#45;&gt;ragger.error</title>
<path fill="none" stroke="black" d="M1255.16,-540.11C1382.56,-592.36 1747.36,-750.99 1679.5,-828 1656.37,-854.24 1434.44,-870.86 1323.71,-877.58"/>
<polygon fill="black" stroke="black" points="1313.67,-878.18 1323.38,-873.09 1318.66,-877.88 1323.65,-877.59 1323.65,-877.59 1323.65,-877.59 1318.66,-877.88 1323.92,-882.08 1313.67,-878.18 1313.67,-878.18"/>
</g>
<!-- ragger.backend.ledgercomm&#45;&gt;ragger.firmware -->
<g id="edge14" class="edge">
<title>ragger.backend.ledgercomm&#45;&gt;ragger.firmware</title>
<path fill="none" stroke="black" d="M1102.36,-538.94C1099.04,-539.31 1095.74,-539.67 1092.5,-540 1030.48,-546.38 585.2,-542.67 532.5,-576 486.09,-605.35 505.77,-640.32 472.5,-684 464.73,-694.21 455.03,-704.34 446,-712.97"/>
<polygon fill="black" stroke="black" points="438.63,-719.83 442.88,-709.72 442.29,-716.42 445.95,-713.01 445.95,-713.01 445.95,-713.01 442.29,-716.42 449.02,-716.31 438.63,-719.83 438.63,-719.83"/>
</g>
<!-- ragger.backend.ledgercomm&#45;&gt;ragger.utils -->
<g id="edge15" class="edge">
<title>ragger.backend.ledgercomm&#45;&gt;ragger.utils</title>
<path fill="none" stroke="black" d="M1266.52,-540.04C1283.27,-548.15 1299.86,-559.74 1309.5,-576 1333.99,-617.28 1327.87,-639.65 1309.5,-684 1304.96,-694.97 1296.91,-704.86 1288.45,-713.04"/>
<polygon fill="black" stroke="black" points="1280.98,-719.77 1285.39,-709.73 1284.69,-716.42 1288.41,-713.07 1288.41,-713.07 1288.41,-713.07 1284.69,-716.42 1291.42,-716.42 1280.98,-719.77 1280.98,-719.77"/>
</g>
<!-- ragger.backend.ledgerwallet&#45;&gt;ragger.backend.physical_backend -->
<g id="edge16" class="edge">
<title>ragger.backend.ledgerwallet&#45;&gt;ragger.backend.physical_backend</title>
<path fill="none" stroke="black" d="M1014.11,-540.12C1036.9,-549.74 1065.53,-561.81 1089.67,-571.99"/>
<polygon fill="black" stroke="black" points="1099.02,-575.93 1088.06,-576.19 1094.42,-573.99 1089.81,-572.05 1089.81,-572.05 1089.81,-572.05 1094.42,-573.99 1091.56,-567.9 1099.02,-575.93 1099.02,-575.93"/>
</g>
<!-- ragger.backend.ledgerwallet&#45;&gt;ragger.error -->
<g id="edge17" class="edge">
<title>ragger.backend.ledgerwallet&#45;&gt;ragger.error</title>
<path fill="none" stroke="black" d="M971.66,-540.07C969.71,-557.99 966.5,-586.99 963.5,-612 951.99,-707.85 878.04,-754.38 940.5,-828 972.99,-866.3 1115.24,-876.96 1199.08,-879.91"/>
<polygon fill="black" stroke="black" points="1209.25,-880.23 1199.11,-884.41 1204.26,-880.07 1199.26,-879.91 1199.26,-879.91 1199.26,-879.91 1204.26,-880.07 1199.41,-875.41 1209.25,-880.23 1209.25,-880.23"/>
</g>
<!-- ragger.backend.ledgerwallet&#45;&gt;ragger.firmware -->
<g id="edge18" class="edge">
<title>ragger.backend.ledgerwallet&#45;&gt;ragger.firmware</title>
<path fill="none" stroke="black" d="M862.78,-522.94C741.11,-524.99 555.46,-535.03 499.5,-576 457.12,-607.03 476.11,-637.59 451.5,-684 446.73,-693 441.01,-702.54 435.69,-711"/>
<polygon fill="black" stroke="black" points="430.13,-719.69 431.72,-708.84 432.82,-715.48 435.52,-711.27 435.52,-711.27 435.52,-711.27 432.82,-715.48 439.31,-713.7 430.13,-719.69 430.13,-719.69"/>
</g>
<!-- ragger.backend.ledgerwallet&#45;&gt;ragger.utils -->
<g id="edge19" class="edge">
<title>ragger.backend.ledgerwallet&#45;&gt;ragger.utils</title>
<path fill="none" stroke="black" d="M1084.28,-538.98C1168.17,-551.62 1270.09,-568.37 1276.5,-576 1308.3,-613.85 1287.1,-675.47 1270.62,-710.48"/>
<polygon fill="black" stroke="black" points="1266.15,-719.61 1266.51,-708.65 1268.35,-715.12 1270.55,-710.63 1270.55,-710.63 1270.55,-710.63 1268.35,-715.12 1274.59,-712.61 1266.15,-719.61 1266.15,-719.61"/>
</g>
<!-- ragger.backend.physical_backend&#45;&gt;ragger.backend.interface -->
<g id="edge20" class="edge">
<title>ragger.backend.physical_backend&#45;&gt;ragger.backend.interface</title>
<path fill="none" stroke="black" d="M1057.25,-612.03C1007.88,-622.26 944.95,-635.29 893.88,-645.87"/>
<polygon fill="black" stroke="black" points="883.83,-647.95 892.71,-641.52 888.72,-646.94 893.62,-645.92 893.62,-645.92 893.62,-645.92 888.72,-646.94 894.53,-650.33 883.83,-647.95 883.83,-647.95"/>
</g>
<!-- ragger.backend.physical_backend&#45;&gt;ragger.firmware -->
<g id="edge21" class="edge">
<title>ragger.backend.physical_backend&#45;&gt;ragger.firmware</title>
<path fill="none" stroke="black" d="M1103.86,-612.01C1059.1,-632.58 979.41,-666.62 907.5,-684 764.2,-718.63 591.79,-730.66 494.7,-734.82"/>
<polygon fill="black" stroke="black" points="484.68,-735.23 494.48,-730.32 489.67,-735.02 494.67,-734.82 494.67,-734.82 494.67,-734.82 489.67,-735.02 494.86,-739.31 484.68,-735.23 484.68,-735.23"/>
</g>
<!-- ragger.gui -->
<g id="node24" class="node">
<title>ragger.gui</title>
<polygon fill="#eedd88" stroke="#eedd88" points="1148.5,-684 1058.5,-684 1058.5,-648 1148.5,-648 1148.5,-684"/>
<text text-anchor="middle" x="1103.5" y="-662.3" font-family="Times,serif" font-size="14.00">ragger.gui</text>
</g>
<!-- ragger.backend.physical_backend&#45;&gt;ragger.gui -->
<g id="edge22" class="edge">
<title>ragger.backend.physical_backend&#45;&gt;ragger.gui</title>
<path fill="none" stroke="black" d="M1130.6,-612.3C1126.5,-620.27 1121.55,-629.9 1117.01,-638.74"/>
<polygon fill="black" stroke="black" points="1112.3,-647.9 1112.87,-636.94 1114.58,-643.45 1116.87,-639 1116.87,-639 1116.87,-639 1114.58,-643.45 1120.87,-641.06 1112.3,-647.9 1112.3,-647.9"/>
</g>
<!-- ragger.navigator.instruction -->
<g id="node29" class="node">
<title>ragger.navigator.instruction</title>
<polygon fill="#ee8866" stroke="#ee8866" points="1516,-828 1299,-828 1299,-792 1516,-792 1516,-828"/>
<text text-anchor="middle" x="1407.5" y="-806.3" font-family="Times,serif" font-size="14.00">ragger.navigator.instruction</text>
</g>
<!-- ragger.backend.physical_backend&#45;&gt;ragger.navigator.instruction -->
<g id="edge23" class="edge">
<title>ragger.backend.physical_backend&#45;&gt;ragger.navigator.instruction</title>
<path fill="none" stroke="black" d="M1145.46,-612.22C1159.7,-653.22 1194.7,-753.46 1197.5,-756 1212.49,-769.59 1252,-781.12 1292.75,-789.92"/>
<polygon fill="black" stroke="black" points="1302.56,-791.98 1291.85,-794.33 1297.67,-790.95 1292.78,-789.92 1292.78,-789.92 1292.78,-789.92 1297.67,-790.95 1293.7,-785.52 1302.56,-791.98 1302.56,-791.98"/>
</g>
<!-- ragger.backend.physical_backend&#45;&gt;ragger.utils -->
<g id="edge24" class="edge">
<title>ragger.backend.physical_backend&#45;&gt;ragger.utils</title>
<path fill="none" stroke="black" d="M1157.5,-612.06C1167.83,-622.17 1180.83,-635.42 1191.5,-648 1208.83,-668.44 1226.66,-693.16 1239.25,-711.35"/>
<polygon fill="black" stroke="black" points="1244.98,-719.71 1235.62,-714.01 1242.16,-715.59 1239.33,-711.47 1239.33,-711.47 1239.33,-711.47 1242.16,-715.59 1243.04,-708.92 1244.98,-719.71 1244.98,-719.71"/>
</g>
<!-- ragger.backend.speculos&#45;&gt;ragger.backend.interface -->
<g id="edge25" class="edge">
<title>ragger.backend.speculos&#45;&gt;ragger.backend.interface</title>
<path fill="none" stroke="black" d="M678.37,-612.12C700.66,-621.69 728.62,-633.7 752.26,-643.85"/>
<polygon fill="black" stroke="black" points="761.76,-647.93 750.79,-648.12 757.16,-645.96 752.57,-643.99 752.57,-643.99 752.57,-643.99 757.16,-645.96 754.34,-639.85 761.76,-647.93 761.76,-647.93"/>
</g>
<!-- ragger.backend.speculos&#45;&gt;ragger.error -->
<g id="edge26" class="edge">
<title>ragger.backend.speculos&#45;&gt;ragger.error</title>
<path fill="none" stroke="black" d="M638.39,-612.06C639.1,-631.31 642.84,-662.69 658.5,-684 677.43,-709.75 877.33,-817.45 907.5,-828 1005.76,-862.37 1127,-874.45 1199.07,-878.7"/>
<polygon fill="black" stroke="black" points="1209.34,-879.27 1199.11,-883.21 1204.35,-878.99 1199.36,-878.72 1199.36,-878.72 1199.36,-878.72 1204.35,-878.99 1199.61,-874.22 1209.34,-879.27 1209.34,-879.27"/>
</g>
<!-- ragger.backend.speculos&#45;&gt;ragger.firmware -->
<g id="edge27" class="edge">
<title>ragger.backend.speculos&#45;&gt;ragger.firmware</title>
<path fill="none" stroke="black" d="M619.84,-612.14C598.53,-631.16 562.15,-662.07 527.5,-684 508.86,-695.8 487.2,-706.82 468.13,-715.73"/>
<polygon fill="black" stroke="black" points="459,-719.92 466.21,-711.66 463.54,-717.83 468.09,-715.75 468.09,-715.75 468.09,-715.75 463.54,-717.83 469.96,-719.84 459,-719.92 459,-719.92"/>
</g>
<!-- ragger.backend.speculos&#45;&gt;ragger.logger -->
<g id="edge28" class="edge">
<title>ragger.backend.speculos&#45;&gt;ragger.logger</title>
<path fill="none" stroke="black" d="M632.91,-612.47C629.88,-622.71 626.38,-635.96 624.5,-648 612.98,-721.79 611.83,-810.15 612.09,-853.82"/>
<polygon fill="black" stroke="black" points="612.18,-863.92 607.59,-853.96 612.13,-858.92 612.09,-853.92 612.09,-853.92 612.09,-853.92 612.13,-858.92 616.59,-853.88 612.18,-863.92 612.18,-863.92"/>
</g>
<!-- ragger.backend.speculos&#45;&gt;ragger.utils -->
<g id="edge29" class="edge">
<title>ragger.backend.speculos&#45;&gt;ragger.utils</title>
<path fill="none" stroke="black" d="M643.95,-612.21C651.59,-633.16 667.63,-667.75 694.5,-684 781.67,-736.71 1050.36,-707.85 1151.5,-720 1166.25,-721.77 1182.09,-724.11 1196.89,-726.48"/>
<polygon fill="black" stroke="black" points="1206.94,-728.12 1196.35,-730.95 1202.01,-727.32 1197.08,-726.51 1197.08,-726.51 1197.08,-726.51 1202.01,-727.32 1197.8,-722.07 1206.94,-728.12 1206.94,-728.12"/>
</g>
<!-- ragger.backend.stub&#45;&gt;ragger.backend.interface -->
<g id="edge30" class="edge">
<title>ragger.backend.stub&#45;&gt;ragger.backend.interface</title>
<path fill="none" stroke="black" d="M855.7,-612.3C846.9,-620.86 836.12,-631.34 826.5,-640.7"/>
<polygon fill="black" stroke="black" points="819.09,-647.9 823.13,-637.7 822.68,-644.41 826.26,-640.92 826.26,-640.92 826.26,-640.92 822.68,-644.41 829.4,-644.15 819.09,-647.9 819.09,-647.9"/>
</g>
<!-- ragger.utils.structs -->
<g id="node37" class="node">
<title>ragger.utils.structs</title>
<polygon fill="#ffaabb" stroke="#ffaabb" points="1103.5,-828 949.5,-828 949.5,-792 1103.5,-792 1103.5,-828"/>
<text text-anchor="middle" x="1026.5" y="-806.3" font-family="Times,serif" font-size="14.00">ragger.utils.structs</text>
</g>
<!-- ragger.backend.stub&#45;&gt;ragger.utils.structs -->
<g id="edge31" class="edge">
<title>ragger.backend.stub&#45;&gt;ragger.utils.structs</title>
<path fill="none" stroke="black" d="M884.8,-612.18C904.47,-641.91 946.54,-704.69 984.5,-756 991.27,-765.16 998.94,-774.98 1005.86,-783.66"/>
<polygon fill="black" stroke="black" points="1012.2,-791.56 1002.43,-786.58 1009.07,-787.66 1005.94,-783.76 1005.94,-783.76 1005.94,-783.76 1009.07,-787.66 1009.45,-780.95 1012.2,-791.56 1012.2,-791.56"/>
</g>
<!-- ragger.bip -->
<g id="node10" class="node">
<title>ragger.bip</title>
<polygon fill="#44bb99" stroke="#44bb99" points="1813.5,-36 1723.5,-36 1723.5,0 1813.5,0 1813.5,-36"/>
<text text-anchor="middle" x="1768.5" y="-14.3" font-family="Times,serif" font-size="14.00">ragger.bip</text>
</g>
<!-- ragger.bip.path -->
<g id="node11" class="node">
<title>ragger.bip.path</title>
<polygon fill="#44bb99" stroke="#44bb99" points="1759,-108 1632,-108 1632,-72 1759,-72 1759,-108"/>
<text text-anchor="middle" x="1695.5" y="-86.3" font-family="Times,serif" font-size="14.00">ragger.bip.path</text>
</g>
<!-- ragger.bip&#45;&gt;ragger.bip.path -->
<g id="edge32" class="edge">
<title>ragger.bip&#45;&gt;ragger.bip.path</title>
<path fill="none" stroke="black" d="M1750.46,-36.3C1741.44,-44.95 1730.38,-55.55 1720.56,-64.97"/>
<polygon fill="black" stroke="black" points="1713.34,-71.9 1717.44,-61.73 1716.95,-68.44 1720.56,-64.97 1720.56,-64.97 1720.56,-64.97 1716.95,-68.44 1723.67,-68.22 1713.34,-71.9 1713.34,-71.9"/>
</g>
<!-- ragger.bip.seed -->
<g id="node12" class="node">
<title>ragger.bip.seed</title>
<polygon fill="#44bb99" stroke="#44bb99" points="1905.5,-108 1777.5,-108 1777.5,-72 1905.5,-72 1905.5,-108"/>
<text text-anchor="middle" x="1841.5" y="-86.3" font-family="Times,serif" font-size="14.00">ragger.bip.seed</text>
</g>
<!-- ragger.bip&#45;&gt;ragger.bip.seed -->
<g id="edge33" class="edge">
<title>ragger.bip&#45;&gt;ragger.bip.seed</title>
<path fill="none" stroke="black" d="M1786.54,-36.3C1795.56,-44.95 1806.62,-55.55 1816.44,-64.97"/>
<polygon fill="black" stroke="black" points="1823.66,-71.9 1813.33,-68.22 1820.05,-68.44 1816.44,-64.97 1816.44,-64.97 1816.44,-64.97 1820.05,-68.44 1819.56,-61.73 1823.66,-71.9 1823.66,-71.9"/>
</g>
<!-- ragger.conftest -->
<g id="node13" class="node">
<title>ragger.conftest</title>
<polygon fill="#bbcc33" stroke="#bbcc33" points="1957,-36 1832,-36 1832,0 1957,0 1957,-36"/>
<text text-anchor="middle" x="1894.5" y="-14.3" font-family="Times,serif" font-size="14.00">ragger.conftest</text>
</g>
<!-- ragger.conftest.base_conftest -->
<g id="node14" class="node">
<title>ragger.conftest.base_conftest</title>
<polygon fill="#bbcc33" stroke="#bbcc33" points="1199,-36 972,-36 972,0 1199,0 1199,-36"/>
<text text-anchor="middle" x="1085.5" y="-14.3" font-family="Times,serif" font-size="14.00">ragger.conftest.base_conftest</text>
</g>
<!-- ragger.conftest.base_conftest&#45;&gt;ragger.backend -->
<g id="edge34" class="edge">
<title>ragger.conftest.base_conftest&#45;&gt;ragger.backend</title>
<path fill="none" stroke="black" d="M1028.99,-36.12C978.86,-54.41 907.94,-88.53 870.5,-144 811.59,-231.28 817.26,-364.63 823.02,-421.63"/>
<polygon fill="black" stroke="black" points="824.12,-431.66 818.56,-422.21 823.58,-426.69 823.03,-421.72 823.03,-421.72 823.03,-421.72 823.58,-426.69 827.51,-421.23 824.12,-431.66 824.12,-431.66"/>
</g>
<!-- ragger.conftest.base_conftest&#45;&gt;ragger.firmware -->
<g id="edge35" class="edge">
<title>ragger.conftest.base_conftest&#45;&gt;ragger.firmware</title>
<path fill="none" stroke="black" d="M971.71,-25.01C726.97,-39.45 172.5,-80.99 172.5,-161 172.5,-161 172.5,-161 172.5,-595 172.5,-640.15 185.97,-656.13 221.5,-684 255.85,-710.95 302.8,-724.23 342.25,-730.76"/>
<polygon fill="black" stroke="black" points="352.36,-732.32 341.79,-735.25 347.42,-731.56 342.48,-730.8 342.48,-730.8 342.48,-730.8 347.42,-731.56 343.16,-726.35 352.36,-732.32 352.36,-732.32"/>
</g>
<!-- ragger.conftest.base_conftest&#45;&gt;ragger.logger -->
<g id="edge36" class="edge">
<title>ragger.conftest.base_conftest&#45;&gt;ragger.logger</title>
<path fill="none" stroke="black" d="M971.91,-18.88C777.85,-19.92 391.08,-27.71 263.5,-72 197.7,-94.84 134.5,-91.35 134.5,-161 134.5,-161 134.5,-161 134.5,-739 134.5,-823.79 414.4,-861.97 545.83,-875.22"/>
<polygon fill="black" stroke="black" points="555.79,-876.2 545.4,-879.69 550.81,-875.71 545.84,-875.22 545.84,-875.22 545.84,-875.22 550.81,-875.71 546.28,-870.74 555.79,-876.2 555.79,-876.2"/>
</g>
<!-- ragger.navigator -->
<g id="node28" class="node">
<title>ragger.navigator</title>
<polygon fill="#ee8866" stroke="#ee8866" points="1303.5,-108 1167.5,-108 1167.5,-72 1303.5,-72 1303.5,-108"/>
<text text-anchor="middle" x="1235.5" y="-86.3" font-family="Times,serif" font-size="14.00">ragger.navigator</text>
</g>
<!-- ragger.conftest.base_conftest&#45;&gt;ragger.navigator -->
<g id="edge37" class="edge">
<title>ragger.conftest.base_conftest&#45;&gt;ragger.navigator</title>
<path fill="none" stroke="black" d="M1122.19,-36.12C1142.52,-45.61 1167.97,-57.49 1189.6,-67.58"/>
<polygon fill="black" stroke="black" points="1198.93,-71.93 1187.96,-71.78 1194.39,-69.82 1189.86,-67.7 1189.86,-67.7 1189.86,-67.7 1194.39,-69.82 1191.77,-63.62 1198.93,-71.93 1198.93,-71.93"/>
</g>
<!-- ragger.conftest.base_conftest&#45;&gt;ragger.utils -->
<g id="edge38" class="edge">
<title>ragger.conftest.base_conftest&#45;&gt;ragger.utils</title>
<path fill="none" stroke="black" d="M1199.25,-29.81C1341.2,-46.52 1565.5,-84.96 1565.5,-161 1565.5,-161 1565.5,-161 1565.5,-523 1565.5,-643.13 1405.7,-701.15 1315.93,-724.27"/>
<polygon fill="black" stroke="black" points="1306.15,-726.72 1314.75,-719.93 1311,-725.51 1315.85,-724.29 1315.85,-724.29 1315.85,-724.29 1311,-725.51 1316.94,-728.66 1306.15,-726.72 1306.15,-726.72"/>
</g>
<!-- ragger.utils.misc -->
<g id="node35" class="node">
<title>ragger.utils.misc</title>
<polygon fill="#ffaabb" stroke="#ffaabb" points="1671,-828 1534,-828 1534,-792 1671,-792 1671,-828"/>
<text text-anchor="middle" x="1602.5" y="-806.3" font-family="Times,serif" font-size="14.00">ragger.utils.misc</text>
</g>
<!-- ragger.conftest.base_conftest&#45;&gt;ragger.utils.misc -->
<g id="edge39" class="edge">
<title>ragger.conftest.base_conftest&#45;&gt;ragger.utils.misc</title>
<path fill="none" stroke="black" d="M1199.28,-27.12C1300.28,-35.55 1439.53,-50.53 1490.5,-72 1549.42,-96.81 1603.5,-97.07 1603.5,-161 1603.5,-161 1603.5,-161 1603.5,-667 1603.5,-707 1603.1,-753.35 1602.8,-781.92"/>
<polygon fill="black" stroke="black" points="1602.7,-791.95 1598.3,-781.9 1602.75,-786.95 1602.8,-781.95 1602.8,-781.95 1602.8,-781.95 1602.75,-786.95 1607.3,-782 1602.7,-791.95 1602.7,-791.95"/>
</g>
<!-- ragger.conftest.configuration -->
<g id="node15" class="node">
<title>ragger.conftest.configuration</title>
<polygon fill="#bbcc33" stroke="#bbcc33" points="2199.5,-36 1975.5,-36 1975.5,0 2199.5,0 2199.5,-36"/>
<text text-anchor="middle" x="2087.5" y="-14.3" font-family="Times,serif" font-size="14.00">ragger.conftest.configuration</text>
</g>
<!-- ragger.firmware.structs -->
<g id="node23" class="node">
<title>ragger.firmware.structs</title>
<polygon fill="#aaaa00" stroke="#aaaa00" points="512,-828 325,-828 325,-792 512,-792 512,-828"/>
<text text-anchor="middle" x="418.5" y="-806.3" font-family="Times,serif" font-size="14.00">ragger.firmware.structs</text>
</g>
<!-- ragger.firmware&#45;&gt;ragger.firmware.structs -->
<g id="edge40" class="edge">
<title>ragger.firmware&#45;&gt;ragger.firmware.structs</title>
<path fill="none" stroke="black" d="M418.5,-756.3C418.5,-764.02 418.5,-773.29 418.5,-781.89"/>
<polygon fill="black" stroke="black" points="418.5,-791.9 414,-781.9 418.5,-786.9 418.5,-781.9 418.5,-781.9 418.5,-781.9 418.5,-786.9 423,-781.9 418.5,-791.9 418.5,-791.9"/>
</g>
<!-- ragger.firmware.stax -->
<g id="node18" class="node">
<title>ragger.firmware.stax</title>
<polygon fill="#aaaa00" stroke="#aaaa00" points="773,-252 606,-252 606,-216 773,-216 773,-252"/>
<text text-anchor="middle" x="689.5" y="-230.3" font-family="Times,serif" font-size="14.00">ragger.firmware.stax</text>
</g>
<!-- ragger.firmware.stax.screen -->
<g id="node21" class="node">
<title>ragger.firmware.stax.screen</title>
<polygon fill="#aaaa00" stroke="#aaaa00" points="757.5,-324 539.5,-324 539.5,-288 757.5,-288 757.5,-324"/>
<text text-anchor="middle" x="648.5" y="-302.3" font-family="Times,serif" font-size="14.00">ragger.firmware.stax.screen</text>
</g>
<!-- ragger.firmware.stax&#45;&gt;ragger.firmware.stax.screen -->
<g id="edge41" class="edge">
<title>ragger.firmware.stax&#45;&gt;ragger.firmware.stax.screen</title>
<path fill="none" stroke="black" d="M679.37,-252.3C674.65,-260.36 668.94,-270.11 663.72,-279.02"/>
<polygon fill="black" stroke="black" points="658.52,-287.9 659.69,-276.99 661.05,-283.58 663.57,-279.27 663.57,-279.27 663.57,-279.27 661.05,-283.58 667.46,-281.54 658.52,-287.9 658.52,-287.9"/>
</g>
<!-- ragger.firmware.stax.layouts -->
<g id="node19" class="node">
<title>ragger.firmware.stax.layouts</title>
<polygon fill="#aaaa00" stroke="#aaaa00" points="760,-396 537,-396 537,-360 760,-360 760,-396"/>
<text text-anchor="middle" x="648.5" y="-374.3" font-family="Times,serif" font-size="14.00">ragger.firmware.stax.layouts</text>
</g>
<!-- ragger.firmware.stax.layouts&#45;&gt;ragger.backend -->
<g id="edge42" class="edge">
<title>ragger.firmware.stax.layouts&#45;&gt;ragger.backend</title>
<path fill="none" stroke="black" d="M692.04,-396.12C716.7,-405.82 747.72,-418.02 773.75,-428.26"/>
<polygon fill="black" stroke="black" points="783.1,-431.93 772.14,-432.46 778.44,-430.1 773.79,-428.27 773.79,-428.27 773.79,-428.27 778.44,-430.1 775.44,-424.08 783.1,-431.93 783.1,-431.93"/>
</g>
<!-- ragger.firmware.stax.layouts&#45;&gt;ragger.firmware -->
<g id="edge43" class="edge">
<title>ragger.firmware.stax.layouts&#45;&gt;ragger.firmware</title>
<path fill="none" stroke="black" d="M636.46,-396.05C621.05,-416.51 592.39,-450.26 559.5,-468 490,-505.49 435.36,-442.76 385.5,-504 334.99,-566.03 363.51,-607.08 385.5,-684 388.21,-693.49 393.17,-702.94 398.43,-711.17"/>
<polygon fill="black" stroke="black" points="404.17,-719.57 394.82,-713.85 401.35,-715.44 398.53,-711.31 398.53,-711.31 398.53,-711.31 401.35,-715.44 402.25,-708.77 404.17,-719.57 404.17,-719.57"/>
</g>
<!-- ragger.firmware.stax.positions -->
<g id="node20" class="node">
<title>ragger.firmware.stax.positions</title>
<polygon fill="#aaaa00" stroke="#aaaa00" points="550.5,-468 314.5,-468 314.5,-432 550.5,-432 550.5,-468"/>
<text text-anchor="middle" x="432.5" y="-446.3" font-family="Times,serif" font-size="14.00">ragger.firmware.stax.positions</text>
</g>
<!-- ragger.firmware.stax.layouts&#45;&gt;ragger.firmware.stax.positions -->
<g id="edge44" class="edge">
<title>ragger.firmware.stax.layouts&#45;&gt;ragger.firmware.stax.positions</title>
<path fill="none" stroke="black" d="M595.94,-396.03C565.49,-405.9 526.99,-418.38 495,-428.75"/>
<polygon fill="black" stroke="black" points="485.3,-431.89 493.42,-424.53 490.06,-430.35 494.81,-428.81 494.81,-428.81 494.81,-428.81 490.06,-430.35 496.2,-433.09 485.3,-431.89 485.3,-431.89"/>
</g>
<!-- ragger.firmware.stax.screen&#45;&gt;ragger.backend -->
<g id="edge45" class="edge">
<title>ragger.firmware.stax.screen&#45;&gt;ragger.backend</title>
<path fill="none" stroke="black" d="M704.57,-324.04C726.15,-332.48 750.02,-344.29 768.5,-360 788.69,-377.17 804.49,-403.11 814.47,-422.56"/>
<polygon fill="black" stroke="black" points="819.02,-431.79 810.56,-424.81 816.81,-427.31 814.6,-422.82 814.6,-422.82 814.6,-422.82 816.81,-427.31 818.63,-420.84 819.02,-431.79 819.02,-431.79"/>
</g>
<!-- ragger.firmware.stax.screen&#45;&gt;ragger.firmware -->
<g id="edge46" class="edge">
<title>ragger.firmware.stax.screen&#45;&gt;ragger.firmware</title>
<path fill="none" stroke="black" d="M539.32,-308.61C440.91,-312.41 305.94,-324.23 267.5,-360 237.89,-387.55 248.5,-408.55 248.5,-449 248.5,-449 248.5,-449 248.5,-595 248.5,-641.27 267.93,-653.25 302.5,-684 317.5,-697.35 336.43,-707.89 354.63,-715.94"/>
<polygon fill="black" stroke="black" points="364.05,-719.92 353.09,-720.17 359.44,-717.97 354.84,-716.03 354.84,-716.03 354.84,-716.03 359.44,-717.97 356.59,-711.88 364.05,-719.92 364.05,-719.92"/>
</g>
<!-- ragger.firmware.stax.screen&#45;&gt;ragger.firmware.stax.layouts -->
<g id="edge47" class="edge">
<title>ragger.firmware.stax.screen&#45;&gt;ragger.firmware.stax.layouts</title>
<path fill="none" stroke="black" d="M648.5,-324.3C648.5,-332.02 648.5,-341.29 648.5,-349.89"/>
<polygon fill="black" stroke="black" points="648.5,-359.9 644,-349.9 648.5,-354.9 648.5,-349.9 648.5,-349.9 648.5,-349.9 648.5,-354.9 653,-349.9 648.5,-359.9 648.5,-359.9"/>
</g>
<!-- ragger.firmware.stax.use_cases -->
<g id="node22" class="node">
<title>ragger.firmware.stax.use_cases</title>
<polygon fill="#aaaa00" stroke="#aaaa00" points="518.5,-396 276.5,-396 276.5,-360 518.5,-360 518.5,-396"/>
<text text-anchor="middle" x="397.5" y="-374.3" font-family="Times,serif" font-size="14.00">ragger.firmware.stax.use_cases</text>
</g>
<!-- ragger.firmware.stax.screen&#45;&gt;ragger.firmware.stax.use_cases -->
<g id="edge48" class="edge">
<title>ragger.firmware.stax.screen&#45;&gt;ragger.firmware.stax.use_cases</title>
<path fill="none" stroke="black" d="M587.42,-324.03C551.59,-334.03 506.14,-346.7 468.69,-357.15"/>
<polygon fill="black" stroke="black" points="458.85,-359.89 467.28,-352.87 463.67,-358.55 468.49,-357.2 468.49,-357.2 468.49,-357.2 463.67,-358.55 469.7,-361.54 458.85,-359.89 458.85,-359.89"/>
</g>
<!-- ragger.firmware.stax.use_cases&#45;&gt;ragger.backend -->
<g id="edge49" class="edge">
<title>ragger.firmware.stax.use_cases&#45;&gt;ragger.backend</title>
<path fill="none" stroke="black" d="M501.9,-396.03C579.55,-408.71 683.62,-425.69 752.76,-436.97"/>
<polygon fill="black" stroke="black" points="762.7,-438.59 752.1,-441.42 757.76,-437.78 752.83,-436.98 752.83,-436.98 752.83,-436.98 757.76,-437.78 753.55,-432.54 762.7,-438.59 762.7,-438.59"/>
</g>
<!-- ragger.firmware.stax.use_cases&#45;&gt;ragger.firmware -->
<g id="edge50" class="edge">
<title>ragger.firmware.stax.use_cases&#45;&gt;ragger.firmware</title>
<path fill="none" stroke="black" d="M351.12,-396.23C334.41,-404.62 316.89,-416.35 305.5,-432 281.7,-464.7 286.5,-480.55 286.5,-521 286.5,-521 286.5,-521 286.5,-595 286.5,-648.6 337.57,-690.46 376.18,-714.45"/>
<polygon fill="black" stroke="black" points="385.19,-719.87 374.3,-718.57 380.91,-717.29 376.62,-714.71 376.62,-714.71 376.62,-714.71 380.91,-717.29 378.94,-710.86 385.19,-719.87 385.19,-719.87"/>
</g>
<!-- ragger.firmware.stax.use_cases&#45;&gt;ragger.firmware.stax.positions -->
<g id="edge51" class="edge">
<title>ragger.firmware.stax.use_cases&#45;&gt;ragger.firmware.stax.positions</title>
<path fill="none" stroke="black" d="M406.15,-396.3C410.14,-404.27 414.95,-413.9 419.37,-422.74"/>
<polygon fill="black" stroke="black" points="423.95,-431.9 415.45,-424.96 421.71,-427.42 419.48,-422.95 419.48,-422.95 419.48,-422.95 421.71,-427.42 423.5,-420.94 423.95,-431.9 423.95,-431.9"/>
</g>
<!-- ragger.gui.process -->
<g id="node26" class="node">
<title>ragger.gui.process</title>
<polygon fill="#eedd88" stroke="#eedd88" points="1143,-756 994,-756 994,-720 1143,-720 1143,-756"/>
<text text-anchor="middle" x="1068.5" y="-734.3" font-family="Times,serif" font-size="14.00">ragger.gui.process</text>
</g>
<!-- ragger.gui&#45;&gt;ragger.gui.process -->
<g id="edge52" class="edge">
<title>ragger.gui&#45;&gt;ragger.gui.process</title>
<path fill="none" stroke="black" d="M1094.85,-684.3C1090.86,-692.27 1086.05,-701.9 1081.63,-710.74"/>
<polygon fill="black" stroke="black" points="1077.05,-719.9 1077.5,-708.94 1079.29,-715.42 1081.52,-710.95 1081.52,-710.95 1081.52,-710.95 1079.29,-715.42 1085.55,-712.96 1077.05,-719.9 1077.05,-719.9"/>
</g>
<!-- ragger.gui.interface -->
<g id="node25" class="node">
<title>ragger.gui.interface</title>
<polygon fill="#eedd88" stroke="#eedd88" points="817.5,-828 659.5,-828 659.5,-792 817.5,-792 817.5,-828"/>
<text text-anchor="middle" x="738.5" y="-806.3" font-family="Times,serif" font-size="14.00">ragger.gui.interface</text>
</g>
<!-- ragger.gui.interface&#45;&gt;ragger.logger -->
<g id="edge53" class="edge">
<title>ragger.gui.interface&#45;&gt;ragger.logger</title>
<path fill="none" stroke="black" d="M707.68,-828.12C691.05,-837.36 670.34,-848.87 652.48,-858.79"/>
<polygon fill="black" stroke="black" points="643.44,-863.81 650,-855.02 647.81,-861.38 652.18,-858.95 652.18,-858.95 652.18,-858.95 647.81,-861.38 654.37,-862.89 643.44,-863.81 643.44,-863.81"/>
</g>
<!-- ragger.gui.process&#45;&gt;ragger.gui.interface -->
<g id="edge54" class="edge">
<title>ragger.gui.process&#45;&gt;ragger.gui.interface</title>
<path fill="none" stroke="black" d="M993.62,-754.88C944.31,-765.34 879.52,-779.09 827.56,-790.11"/>
<polygon fill="black" stroke="black" points="817.69,-792.2 826.54,-785.73 822.58,-791.17 827.47,-790.13 827.47,-790.13 827.47,-790.13 822.58,-791.17 828.4,-794.53 817.69,-792.2 817.69,-792.2"/>
</g>
<!-- ragger.gui.process&#45;&gt;ragger.logger -->
<g id="edge55" class="edge">
<title>ragger.gui.process&#45;&gt;ragger.logger</title>
<path fill="none" stroke="black" d="M1026.57,-756.01C978.69,-775.07 897.76,-806.14 826.5,-828 777.72,-842.96 721.71,-856.71 679.23,-866.46"/>
<polygon fill="black" stroke="black" points="669.28,-868.72 678.04,-862.11 674.16,-867.61 679.03,-866.5 679.03,-866.5 679.03,-866.5 674.16,-867.61 680.03,-870.89 669.28,-868.72 669.28,-868.72"/>
</g>
<!-- ragger.gui.process&#45;&gt;ragger.navigator.instruction -->
<g id="edge56" class="edge">
<title>ragger.gui.process&#45;&gt;ragger.navigator.instruction</title>
<path fill="none" stroke="black" d="M1143.31,-754.45C1193.98,-764.91 1261.26,-778.8 1315.24,-789.95"/>
<polygon fill="black" stroke="black" points="1325.16,-792 1314.45,-794.38 1320.26,-790.99 1315.36,-789.97 1315.36,-789.97 1315.36,-789.97 1320.26,-790.99 1316.27,-785.57 1325.16,-792 1325.16,-792"/>
</g>
<!-- ragger.navigator&#45;&gt;ragger.navigator.instruction -->
<g id="edge57" class="edge">
<title>ragger.navigator&#45;&gt;ragger.navigator.instruction</title>
<path fill="none" stroke="black" d="M1303.51,-97.81C1369.42,-105.67 1463.44,-120.59 1491.5,-144 1524.26,-171.33 1527.5,-190.33 1527.5,-233 1527.5,-233 1527.5,-233 1527.5,-523 1527.5,-632.2 1501.53,-659.99 1449.5,-756 1444.16,-765.86 1436.96,-775.73 1430.03,-784.24"/>
<polygon fill="black" stroke="black" points="1423.54,-791.94 1426.55,-781.4 1426.76,-788.12 1429.99,-784.3 1429.99,-784.3 1429.99,-784.3 1426.76,-788.12 1433.43,-787.2 1423.54,-791.94 1423.54,-791.94"/>
</g>
<!-- ragger.navigator.nano_navigator -->
<g id="node30" class="node">
<title>ragger.navigator.nano_navigator</title>
<polygon fill="#ee8866" stroke="#ee8866" points="1240.5,-324 992.5,-324 992.5,-288 1240.5,-288 1240.5,-324"/>
<text text-anchor="middle" x="1116.5" y="-302.3" font-family="Times,serif" font-size="14.00">ragger.navigator.nano_navigator</text>
</g>
<!-- ragger.navigator&#45;&gt;ragger.navigator.nano_navigator -->
<g id="edge58" class="edge">
<title>ragger.navigator&#45;&gt;ragger.navigator.nano_navigator</title>
<path fill="none" stroke="black" d="M1208.05,-108.05C1195.1,-117.3 1180.36,-129.75 1170.5,-144 1141.74,-185.57 1127.29,-243.67 1120.87,-277.52"/>
<polygon fill="black" stroke="black" points="1119.06,-287.6 1116.4,-276.96 1119.94,-282.68 1120.83,-277.76 1120.83,-277.76 1120.83,-277.76 1119.94,-282.68 1125.26,-278.55 1119.06,-287.6 1119.06,-287.6"/>
</g>
<!-- ragger.navigator.navigation_scenario -->
<g id="node31" class="node">
<title>ragger.navigator.navigation_scenario</title>
<polygon fill="#ee8866" stroke="#ee8866" points="1461,-180 1180,-180 1180,-144 1461,-144 1461,-180"/>
<text text-anchor="middle" x="1320.5" y="-158.3" font-family="Times,serif" font-size="14.00">ragger.navigator.navigation_scenario</text>
</g>
<!-- ragger.navigator&#45;&gt;ragger.navigator.navigation_scenario -->
<g id="edge59" class="edge">
<title>ragger.navigator&#45;&gt;ragger.navigator.navigation_scenario</title>
<path fill="none" stroke="black" d="M1256.51,-108.3C1267.22,-117.12 1280.39,-127.97 1292,-137.53"/>
<polygon fill="black" stroke="black" points="1299.73,-143.9 1289.15,-141.01 1295.87,-140.72 1292.01,-137.54 1292.01,-137.54 1292.01,-137.54 1295.87,-140.72 1294.87,-134.06 1299.73,-143.9 1299.73,-143.9"/>
</g>
<!-- ragger.navigator.navigator -->
<g id="node32" class="node">
<title>ragger.navigator.navigator</title>
<polygon fill="#ee8866" stroke="#ee8866" points="1426,-396 1219,-396 1219,-360 1426,-360 1426,-396"/>
<text text-anchor="middle" x="1322.5" y="-374.3" font-family="Times,serif" font-size="14.00">ragger.navigator.navigator</text>
</g>
<!-- ragger.navigator&#45;&gt;ragger.navigator.navigator -->
<g id="edge60" class="edge">
<title>ragger.navigator&#45;&gt;ragger.navigator.navigator</title>
<path fill="none" stroke="black" d="M1303.68,-97.12C1365.17,-104.22 1449.03,-118.37 1469.5,-144 1526.69,-215.59 1415.96,-310.52 1356.61,-353.76"/>
<polygon fill="black" stroke="black" points="1348.25,-359.76 1353.75,-350.27 1352.31,-356.84 1356.37,-353.93 1356.37,-353.93 1356.37,-353.93 1352.31,-356.84 1359,-357.59 1348.25,-359.76 1348.25,-359.76"/>
</g>
<!-- ragger.navigator.stax_navigator -->
<g id="node33" class="node">
<title>ragger.navigator.stax_navigator</title>
<polygon fill="#ee8866" stroke="#ee8866" points="1123.5,-180 879.5,-180 879.5,-144 1123.5,-144 1123.5,-180"/>
<text text-anchor="middle" x="1001.5" y="-158.3" font-family="Times,serif" font-size="14.00">ragger.navigator.stax_navigator</text>
</g>
<!-- ragger.navigator&#45;&gt;ragger.navigator.stax_navigator -->
<g id="edge61" class="edge">
<title>ragger.navigator&#45;&gt;ragger.navigator.stax_navigator</title>
<path fill="none" stroke="black" d="M1178.56,-108.03C1145.29,-117.99 1103.14,-130.59 1068.31,-141.01"/>
<polygon fill="black" stroke="black" points="1058.7,-143.89 1066.99,-136.71 1063.49,-142.46 1068.28,-141.02 1068.28,-141.02 1068.28,-141.02 1063.49,-142.46 1069.57,-145.33 1058.7,-143.89 1058.7,-143.89"/>
</g>
<!-- ragger.navigator.nano_navigator&#45;&gt;ragger.backend -->
<g id="edge62" class="edge">
<title>ragger.navigator.nano_navigator&#45;&gt;ragger.backend</title>
<path fill="none" stroke="black" d="M1081.82,-324.11C1045.41,-342.06 986.46,-371.08 935.5,-396 914.29,-406.37 890.72,-417.84 870.95,-427.44"/>
<polygon fill="black" stroke="black" points="861.86,-431.85 868.89,-423.44 866.36,-429.67 870.86,-427.49 870.86,-427.49 870.86,-427.49 866.36,-429.67 872.82,-431.53 861.86,-431.85 861.86,-431.85"/>
</g>
<!-- ragger.navigator.nano_navigator&#45;&gt;ragger.firmware -->
<g id="edge63" class="edge">
<title>ragger.navigator.nano_navigator&#45;&gt;ragger.firmware</title>
<path fill="none" stroke="black" d="M1053.37,-324.01C901.79,-366.07 523.61,-478.6 439.5,-576 407.44,-613.12 409.26,-674.16 413.72,-709.45"/>
<polygon fill="black" stroke="black" points="415.15,-719.52 409.29,-710.26 414.44,-714.57 413.74,-709.62 413.74,-709.62 413.74,-709.62 414.44,-714.57 418.2,-708.99 415.15,-719.52 415.15,-719.52"/>
</g>
<!-- ragger.navigator.nano_navigator&#45;&gt;ragger.navigator.navigator -->
<g id="edge64" class="edge">
<title>ragger.navigator.nano_navigator&#45;&gt;ragger.navigator.navigator</title>
<path fill="none" stroke="black" d="M1166.63,-324.03C1195.54,-333.86 1232.07,-346.27 1262.5,-356.61"/>
<polygon fill="black" stroke="black" points="1272.15,-359.89 1261.23,-360.93 1267.41,-358.28 1262.68,-356.67 1262.68,-356.67 1262.68,-356.67 1267.41,-358.28 1264.12,-352.41 1272.15,-359.89 1272.15,-359.89"/>
</g>
<!-- ragger.navigator.navigation_scenario&#45;&gt;ragger.navigator.navigator -->
<g id="edge65" class="edge">
<title>ragger.navigator.navigation_scenario&#45;&gt;ragger.navigator.navigator</title>
<path fill="none" stroke="black" d="M1320.88,-180.18C1321.09,-190.56 1321.35,-204.04 1321.5,-216 1322.09,-262.75 1322.33,-317.15 1322.43,-349.24"/>
<polygon fill="black" stroke="black" points="1322.46,-359.61 1317.94,-349.62 1322.45,-354.61 1322.44,-349.61 1322.44,-349.61 1322.44,-349.61 1322.45,-354.61 1326.94,-349.59 1322.46,-359.61 1322.46,-359.61"/>
</g>
<!-- ragger.navigator.navigator&#45;&gt;ragger.backend -->
<g id="edge66" class="edge">
<title>ragger.navigator.navigator&#45;&gt;ragger.backend</title>
<path fill="none" stroke="black" d="M1218.62,-389.59C1133.82,-398.85 1011.02,-413.68 904.5,-432 903.05,-432.25 901.58,-432.51 900.11,-432.77"/>
<polygon fill="black" stroke="black" points="890.26,-434.62 899.26,-428.35 895.17,-433.7 900.09,-432.78 900.09,-432.78 900.09,-432.78 895.17,-433.7 900.92,-437.2 890.26,-434.62 890.26,-434.62"/>
</g>
<!-- ragger.navigator.navigator&#45;&gt;ragger.firmware -->
<g id="edge67" class="edge">
<title>ragger.navigator.navigator&#45;&gt;ragger.firmware</title>
<path fill="none" stroke="black" d="M1244.09,-396.01C1035.71,-441.34 482.97,-562.57 468.5,-576 430.88,-610.92 421.34,-673.54 419.06,-709.53"/>
<polygon fill="black" stroke="black" points="418.56,-719.79 414.55,-709.58 418.81,-714.79 419.05,-709.8 419.05,-709.8 419.05,-709.8 418.81,-714.79 423.54,-710.02 418.56,-719.79 418.56,-719.79"/>
</g>
<!-- ragger.navigator.navigator&#45;&gt;ragger.navigator.instruction -->
<g id="edge68" class="edge">
<title>ragger.navigator.navigator&#45;&gt;ragger.navigator.instruction</title>
<path fill="none" stroke="black" d="M1341.81,-396.18C1367.44,-420.99 1409.5,-469.54 1409.5,-521 1409.5,-521 1409.5,-521 1409.5,-667 1409.5,-707.01 1408.7,-753.35 1408.11,-781.92"/>
<polygon fill="black" stroke="black" points="1407.9,-791.95 1403.61,-781.86 1408,-786.95 1408.11,-781.95 1408.11,-781.95 1408.11,-781.95 1408,-786.95 1412.61,-782.05 1407.9,-791.95 1407.9,-791.95"/>
</g>
<!-- ragger.navigator.navigator&#45;&gt;ragger.utils -->
<g id="edge69" class="edge">
<title>ragger.navigator.navigator&#45;&gt;ragger.utils</title>
<path fill="none" stroke="black" d="M1332.65,-396.27C1347.01,-422.36 1371.5,-473.8 1371.5,-521 1371.5,-521 1371.5,-521 1371.5,-595 1371.5,-638.55 1358.24,-650.42 1330.5,-684 1320.94,-695.57 1308.3,-705.85 1296.16,-714.2"/>
<polygon fill="black" stroke="black" points="1287.47,-719.93 1293.34,-710.67 1291.65,-717.18 1295.82,-714.43 1295.82,-714.43 1295.82,-714.43 1291.65,-717.18 1298.3,-718.18 1287.47,-719.93 1287.47,-719.93"/>
</g>
<!-- ragger.navigator.stax_navigator&#45;&gt;ragger.backend -->
<g id="edge70" class="edge">
<title>ragger.navigator.stax_navigator&#45;&gt;ragger.backend</title>
<path fill="none" stroke="black" d="M994.54,-180.06C977.85,-219.95 932.86,-321.57 878.5,-396 871.15,-406.06 861.93,-416.09 853.31,-424.66"/>
<polygon fill="black" stroke="black" points="845.95,-431.79 850,-421.6 849.54,-428.31 853.13,-424.83 853.13,-424.83 853.13,-424.83 849.54,-428.31 856.26,-428.07 845.95,-431.79 845.95,-431.79"/>
</g>
<!-- ragger.navigator.stax_navigator&#45;&gt;ragger.firmware -->
<g id="edge71" class="edge">
<title>ragger.navigator.stax_navigator&#45;&gt;ragger.firmware</title>
<path fill="none" stroke="black" d="M879.21,-172.52C657.18,-191.46 210.5,-237.9 210.5,-305 210.5,-305 210.5,-305 210.5,-595 210.5,-640.59 226.28,-655.05 261.5,-684 284.56,-702.96 314.72,-715.25 342.44,-723.17"/>
<polygon fill="black" stroke="black" points="352.12,-725.8 341.29,-727.53 347.3,-724.49 342.47,-723.18 342.47,-723.18 342.47,-723.18 347.3,-724.49 343.65,-718.84 352.12,-725.8 352.12,-725.8"/>
</g>
<!-- ragger.navigator.stax_navigator&#45;&gt;ragger.firmware.stax -->
<g id="edge72" class="edge">
<title>ragger.navigator.stax_navigator&#45;&gt;ragger.firmware.stax</title>
<path fill="none" stroke="black" d="M925.58,-180.03C880.19,-190.22 822.4,-203.18 775.36,-213.74"/>
<polygon fill="black" stroke="black" points="765.49,-215.95 774.27,-209.37 770.37,-214.86 775.25,-213.76 775.25,-213.76 775.25,-213.76 770.37,-214.86 776.24,-218.15 765.49,-215.95 765.49,-215.95"/>
</g>
<!-- ragger.navigator.stax_navigator&#45;&gt;ragger.navigator.instruction -->
<g id="edge73" class="edge">
<title>ragger.navigator.stax_navigator&#45;&gt;ragger.navigator.instruction</title>
<path fill="none" stroke="black" d="M1123.68,-179.85C1227.88,-201.58 1370.64,-250.6 1434.5,-360 1516.47,-500.42 1447.25,-709.43 1418.54,-782.58"/>
<polygon fill="black" stroke="black" points="1414.78,-791.98 1414.32,-781.02 1416.64,-787.33 1418.5,-782.69 1418.5,-782.69 1418.5,-782.69 1416.64,-787.33 1422.67,-784.36 1414.78,-791.98 1414.78,-791.98"/>
</g>
<!-- ragger.navigator.stax_navigator&#45;&gt;ragger.navigator.navigator -->
<g id="edge74" class="edge">
<title>ragger.navigator.stax_navigator&#45;&gt;ragger.navigator.navigator</title>
<path fill="none" stroke="black" d="M1049.22,-180.12C1101.82,-200.49 1187.22,-238.11 1249.5,-288 1272.09,-306.09 1292.48,-332.2 1305.93,-351.46"/>
<polygon fill="black" stroke="black" points="1311.61,-359.77 1302.26,-354.05 1308.79,-355.64 1305.97,-351.51 1305.97,-351.51 1305.97,-351.51 1308.79,-355.64 1309.69,-348.98 1311.61,-359.77 1311.61,-359.77"/>
</g>
<!-- ragger.utils&#45;&gt;ragger.utils.misc -->
<g id="edge75" class="edge">
<title>ragger.utils&#45;&gt;ragger.utils.misc</title>
<path fill="none" stroke="black" d="M1306.45,-748.58C1358.21,-758.57 1441.73,-774.88 1523.63,-791.84"/>
<polygon fill="black" stroke="black" points="1533.61,-793.91 1522.91,-796.28 1528.72,-792.89 1523.82,-791.88 1523.82,-791.88 1523.82,-791.88 1528.72,-792.89 1524.73,-787.47 1533.61,-793.91 1533.61,-793.91"/>
</g>
<!-- ragger.utils.packing -->
<g id="node36" class="node">
<title>ragger.utils.packing</title>
<polygon fill="#ffaabb" stroke="#ffaabb" points="1281,-828 1122,-828 1122,-792 1281,-792 1281,-828"/>
<text text-anchor="middle" x="1201.5" y="-806.3" font-family="Times,serif" font-size="14.00">ragger.utils.packing</text>
</g>
<!-- ragger.utils&#45;&gt;ragger.utils.packing -->
<g id="edge76" class="edge">
<title>ragger.utils&#45;&gt;ragger.utils.packing</title>
<path fill="none" stroke="black" d="M1242.9,-756.3C1236.38,-764.61 1228.43,-774.72 1221.25,-783.86"/>
<polygon fill="black" stroke="black" points="1214.94,-791.9 1217.58,-781.25 1218.03,-787.96 1221.12,-784.03 1221.12,-784.03 1221.12,-784.03 1218.03,-787.96 1224.66,-786.81 1214.94,-791.9 1214.94,-791.9"/>
</g>
<!-- ragger.utils&#45;&gt;ragger.utils.structs -->
<g id="edge77" class="edge">
<title>ragger.utils&#45;&gt;ragger.utils.structs</title>
<path fill="none" stroke="black" d="M1206.88,-754.1C1173.3,-764.32 1128.58,-777.93 1092.07,-789.04"/>
<polygon fill="black" stroke="black" points="1082.5,-791.96 1090.75,-784.74 1087.28,-790.5 1092.06,-789.05 1092.06,-789.05 1092.06,-789.05 1087.28,-790.5 1093.37,-793.35 1082.5,-791.96 1082.5,-791.96"/>
</g>
<!-- ragger.utils.misc&#45;&gt;ragger.error -->
<g id="edge78" class="edge">
<title>ragger.utils.misc&#45;&gt;ragger.error</title>
<path fill="none" stroke="black" d="M1533.61,-826.08C1530.53,-826.73 1527.48,-827.37 1524.5,-828 1455.98,-842.37 1377.25,-858.14 1323.93,-868.71"/>
<polygon fill="black" stroke="black" points="1313.94,-870.68 1322.88,-864.33 1318.85,-869.71 1323.75,-868.74 1323.75,-868.74 1323.75,-868.74 1318.85,-869.71 1324.63,-873.16 1313.94,-870.68 1313.94,-870.68"/>
</g>
</g>
</svg>
