<?xml version="1.0" encoding="UTF-8" standalone="no"?>
<!DOCTYPE svg PUBLIC "-//W3C//DTD SVG 1.1//EN"
 "http://www.w3.org/Graphics/SVG/1.1/DTD/svg11.dtd">
<!-- Generated by graphviz version 2.43.0 (0)
 -->
<!-- Title: packages_generated_ragger_architecture Pages: 1 -->
<svg width="2807pt" height="980pt"
 viewBox="0.00 0.00 2807.00 980.00" xmlns="http://www.w3.org/2000/svg" xmlns:xlink="http://www.w3.org/1999/xlink">
<g id="graph0" class="graph" transform="scale(1 1) rotate(0) translate(4 976)">
<title>packages_generated_ragger_architecture</title>
<polygon fill="white" stroke="transparent" points="-4,4 -4,-976 2803,-976 2803,4 -4,4"/>
<!-- ragger -->
<g id="node1" class="node">
<title>ragger</title>
<polygon fill="#77aadd" stroke="#77aadd" points="106,-36 41,-36 41,0 106,0 106,-36"/>
<text text-anchor="middle" x="73.5" y="-14.3" font-family="Times,serif" font-size="14.00">ragger</text>
</g>
<!-- ragger.__version__ -->
<g id="node2" class="node">
<title>ragger.__version__</title>
<polygon fill="#77aadd" stroke="#77aadd" points="147,-108 0,-108 0,-72 147,-72 147,-108"/>
<text text-anchor="middle" x="73.5" y="-86.3" font-family="Times,serif" font-size="14.00">ragger.__version__</text>
</g>
<!-- ragger&#45;&gt;ragger.__version__ -->
<g id="edge1" class="edge">
<title>ragger&#45;&gt;ragger.__version__</title>
<path fill="none" stroke="black" d="M73.5,-36.3C73.5,-44.02 73.5,-53.29 73.5,-61.89"/>
<polygon fill="black" stroke="black" points="73.5,-71.9 69,-61.9 73.5,-66.9 73.5,-61.9 73.5,-61.9 73.5,-61.9 73.5,-66.9 78,-61.9 73.5,-71.9 73.5,-71.9"/>
</g>
<!-- ragger.backend -->
<g id="node3" class="node">
<title>ragger.backend</title>
<polygon fill="#99ddff" stroke="#99ddff" points="1253,-540 1126,-540 1126,-504 1253,-504 1253,-540"/>
<text text-anchor="middle" x="1189.5" y="-518.3" font-family="Times,serif" font-size="14.00">ragger.backend</text>
</g>
<!-- ragger.backend.interface -->
<g id="node4" class="node">
<title>ragger.backend.interface</title>
<polygon fill="#99ddff" stroke="#99ddff" points="1543,-756 1348,-756 1348,-720 1543,-720 1543,-756"/>
<text text-anchor="middle" x="1445.5" y="-734.3" font-family="Times,serif" font-size="14.00">ragger.backend.interface</text>
</g>
<!-- ragger.backend&#45;&gt;ragger.backend.interface -->
<g id="edge2" class="edge">
<title>ragger.backend&#45;&gt;ragger.backend.interface</title>
<path fill="none" stroke="black" d="M1253.23,-536.54C1310.74,-552.49 1392.03,-585.2 1430.5,-648 1441.86,-666.54 1445.31,-691.13 1446.09,-709.77"/>
<polygon fill="black" stroke="black" points="1446.28,-719.96 1441.59,-710.04 1446.19,-714.96 1446.09,-709.96 1446.09,-709.96 1446.09,-709.96 1446.19,-714.96 1450.59,-709.88 1446.28,-719.96 1446.28,-719.96"/>
</g>
<!-- ragger.backend.ledgercomm -->
<g id="node5" class="node">
<title>ragger.backend.ledgercomm</title>
<polygon fill="#99ddff" stroke="#99ddff" points="1042.5,-612 822.5,-612 822.5,-576 1042.5,-576 1042.5,-612"/>
<text text-anchor="middle" x="932.5" y="-590.3" font-family="Times,serif" font-size="14.00">ragger.backend.ledgercomm</text>
</g>
<!-- ragger.backend&#45;&gt;ragger.backend.ledgercomm -->
<g id="edge3" class="edge">
<title>ragger.backend&#45;&gt;ragger.backend.ledgercomm</title>
<path fill="none" stroke="black" d="M1126.96,-540.03C1090.27,-550.03 1043.74,-562.7 1005.39,-573.15"/>
<polygon fill="black" stroke="black" points="995.32,-575.89 1003.79,-568.92 1000.15,-574.58 1004.97,-573.26 1004.97,-573.26 1004.97,-573.26 1000.15,-574.58 1006.15,-577.6 995.32,-575.89 995.32,-575.89"/>
</g>
<!-- ragger.backend.ledgerwallet -->
<g id="node6" class="node">
<title>ragger.backend.ledgerwallet</title>
<polygon fill="#99ddff" stroke="#99ddff" points="1300,-612 1079,-612 1079,-576 1300,-576 1300,-612"/>
<text text-anchor="middle" x="1189.5" y="-590.3" font-family="Times,serif" font-size="14.00">ragger.backend.ledgerwallet</text>
</g>
<!-- ragger.backend&#45;&gt;ragger.backend.ledgerwallet -->
<g id="edge4" class="edge">
<title>ragger.backend&#45;&gt;ragger.backend.ledgerwallet</title>
<path fill="none" stroke="black" d="M1189.5,-540.3C1189.5,-548.02 1189.5,-557.29 1189.5,-565.89"/>
<polygon fill="black" stroke="black" points="1189.5,-575.9 1185,-565.9 1189.5,-570.9 1189.5,-565.9 1189.5,-565.9 1189.5,-565.9 1189.5,-570.9 1194,-565.9 1189.5,-575.9 1189.5,-575.9"/>
</g>
<!-- ragger.backend.speculos -->
<g id="node8" class="node">
<title>ragger.backend.speculos</title>
<polygon fill="#99ddff" stroke="#99ddff" points="1786,-684 1593,-684 1593,-648 1786,-648 1786,-684"/>
<text text-anchor="middle" x="1689.5" y="-662.3" font-family="Times,serif" font-size="14.00">ragger.backend.speculos</text>
</g>
<!-- ragger.backend&#45;&gt;ragger.backend.speculos -->
<g id="edge5" class="edge">
<title>ragger.backend&#45;&gt;ragger.backend.speculos</title>
<path fill="none" stroke="black" d="M1253.1,-531.81C1309.35,-540.42 1393.31,-555.26 1464.5,-576 1527.94,-594.49 1598.38,-623.86 1643.25,-643.76"/>
<polygon fill="black" stroke="black" points="1652.43,-647.86 1641.46,-647.89 1647.86,-645.82 1643.3,-643.78 1643.3,-643.78 1643.3,-643.78 1647.86,-645.82 1645.13,-639.67 1652.43,-647.86 1652.43,-647.86"/>
</g>
<!-- ragger.backend.stub -->
<g id="node9" class="node">
<title>ragger.backend.stub</title>
<polygon fill="#99ddff" stroke="#99ddff" points="1422,-684 1259,-684 1259,-648 1422,-648 1422,-684"/>
<text text-anchor="middle" x="1340.5" y="-662.3" font-family="Times,serif" font-size="14.00">ragger.backend.stub</text>
</g>
<!-- ragger.backend&#45;&gt;ragger.backend.stub -->
<g id="edge6" class="edge">
<title>ragger.backend&#45;&gt;ragger.backend.stub</title>
<path fill="none" stroke="black" d="M1252.3,-540.09C1272.44,-548.19 1293.42,-559.76 1308.5,-576 1324.34,-593.05 1332.45,-618.51 1336.53,-637.83"/>
<polygon fill="black" stroke="black" points="1338.41,-647.85 1332.14,-638.85 1337.49,-642.93 1336.57,-638.02 1336.57,-638.02 1336.57,-638.02 1337.49,-642.93 1340.99,-637.19 1338.41,-647.85 1338.41,-647.85"/>
</g>
<!-- ragger.error -->
<g id="node16" class="node">
<title>ragger.error</title>
<polygon fill="#77aadd" stroke="#77aadd" points="847.5,-972 743.5,-972 743.5,-936 847.5,-936 847.5,-972"/>
<text text-anchor="middle" x="795.5" y="-950.3" font-family="Times,serif" font-size="14.00">ragger.error</text>
</g>
<!-- ragger.backend.interface&#45;&gt;ragger.error -->
<g id="edge7" class="edge">
<title>ragger.backend.interface&#45;&gt;ragger.error</title>
<path fill="none" stroke="black" d="M1456.51,-756.15C1475.88,-788.71 1510.68,-859.8 1473.5,-900 1432.17,-944.69 1017.46,-951.77 857.75,-952.84"/>
<polygon fill="black" stroke="black" points="847.6,-952.9 857.57,-948.34 852.6,-952.87 857.6,-952.84 857.6,-952.84 857.6,-952.84 852.6,-952.87 857.63,-957.34 847.6,-952.9 847.6,-952.9"/>
</g>
<!-- ragger.firmware -->
<g id="node17" class="node">
<title>ragger.firmware</title>
<polygon fill="#aaaa00" stroke="#aaaa00" points="1876.5,-828 1744.5,-828 1744.5,-792 1876.5,-792 1876.5,-828"/>
<text text-anchor="middle" x="1810.5" y="-806.3" font-family="Times,serif" font-size="14.00">ragger.firmware</text>
</g>
<!-- ragger.backend.interface&#45;&gt;ragger.firmware -->
<g id="edge8" class="edge">
<title>ragger.backend.interface&#45;&gt;ragger.firmware</title>
<path fill="none" stroke="black" d="M1534.32,-756.03C1595.56,-767.78 1676.11,-783.23 1734.4,-794.41"/>
<polygon fill="black" stroke="black" points="1744.29,-796.3 1733.62,-798.84 1739.38,-795.36 1734.47,-794.42 1734.47,-794.42 1734.47,-794.42 1739.38,-795.36 1735.31,-790 1744.29,-796.3 1744.29,-796.3"/>
</g>
<!-- ragger.logger -->
<g id="node28" class="node">
<title>ragger.logger</title>
<polygon fill="#77aadd" stroke="#77aadd" points="1727,-972 1614,-972 1614,-936 1727,-936 1727,-972"/>
<text text-anchor="middle" x="1670.5" y="-950.3" font-family="Times,serif" font-size="14.00">ragger.logger</text>
</g>
<!-- ragger.backend.interface&#45;&gt;ragger.logger -->
<g id="edge9" class="edge">
<title>ragger.backend.interface&#45;&gt;ragger.logger</title>
<path fill="none" stroke="black" d="M1465.83,-756.12C1477.82,-766.36 1493.21,-779.72 1506.5,-792 1557.51,-839.12 1614.97,-896.59 1646.52,-928.55"/>
<polygon fill="black" stroke="black" points="1653.6,-935.73 1643.37,-931.77 1650.09,-932.17 1646.58,-928.61 1646.58,-928.61 1646.58,-928.61 1650.09,-932.17 1649.78,-925.45 1653.6,-935.73 1653.6,-935.73"/>
</g>
<!-- ragger.utils -->
<g id="node37" class="node">
<title>ragger.utils</title>
<polygon fill="#dddddd" stroke="#dddddd" points="1231,-828 1132,-828 1132,-792 1231,-792 1231,-828"/>
<text text-anchor="middle" x="1181.5" y="-806.3" font-family="Times,serif" font-size="14.00">ragger.utils</text>
</g>
<!-- ragger.backend.interface&#45;&gt;ragger.utils -->
<g id="edge10" class="edge">
<title>ragger.backend.interface&#45;&gt;ragger.utils</title>
<path fill="none" stroke="black" d="M1381.26,-756.03C1338.44,-767.39 1282.58,-782.2 1240.82,-793.27"/>
<polygon fill="black" stroke="black" points="1231.06,-795.86 1239.58,-788.95 1235.9,-794.58 1240.73,-793.3 1240.73,-793.3 1240.73,-793.3 1235.9,-794.58 1241.88,-797.64 1231.06,-795.86 1231.06,-795.86"/>
</g>
<!-- ragger.backend.ledgercomm&#45;&gt;ragger.backend.ledgercomm -->
<g id="edge11" class="edge">
<title>ragger.backend.ledgercomm&#45;&gt;ragger.backend.ledgercomm</title>
<path fill="none" stroke="black" d="M1042.65,-582.99C1053.56,-585.2 1060.5,-588.87 1060.5,-594 1060.5,-597.37 1057.51,-600.11 1052.37,-602.21"/>
<polygon fill="black" stroke="black" points="1042.65,-605.01 1051.02,-597.92 1047.46,-603.63 1052.26,-602.25 1052.26,-602.25 1052.26,-602.25 1047.46,-603.63 1053.51,-606.57 1042.65,-605.01 1042.65,-605.01"/>
</g>
<!-- ragger.backend.physical_backend -->
<g id="node7" class="node">
<title>ragger.backend.physical_backend</title>
<polygon fill="#99ddff" stroke="#99ddff" points="1164.5,-684 908.5,-684 908.5,-648 1164.5,-648 1164.5,-684"/>
<text text-anchor="middle" x="1036.5" y="-662.3" font-family="Times,serif" font-size="14.00">ragger.backend.physical_backend</text>
</g>
<!-- ragger.backend.ledgercomm&#45;&gt;ragger.backend.physical_backend -->
<g id="edge12" class="edge">
<title>ragger.backend.ledgercomm&#45;&gt;ragger.backend.physical_backend</title>
<path fill="none" stroke="black" d="M957.94,-612.12C971.29,-621.11 987.82,-632.24 1002.28,-641.97"/>
<polygon fill="black" stroke="black" points="1010.96,-647.81 1000.15,-645.96 1006.81,-645.02 1002.67,-642.23 1002.67,-642.23 1002.67,-642.23 1006.81,-645.02 1005.18,-638.49 1010.96,-647.81 1010.96,-647.81"/>
</g>
<!-- ragger.backend.ledgercomm&#45;&gt;ragger.error -->
<g id="edge13" class="edge">
<title>ragger.backend.ledgercomm&#45;&gt;ragger.error</title>
<path fill="none" stroke="black" d="M822.25,-602.67C735.62,-615.41 629.5,-648.99 629.5,-737 629.5,-737 629.5,-737 629.5,-811 629.5,-869.84 690.48,-909.52 738.52,-931.65"/>
<polygon fill="black" stroke="black" points="747.93,-935.84 736.97,-935.88 743.36,-933.81 738.8,-931.77 738.8,-931.77 738.8,-931.77 743.36,-933.81 740.63,-927.66 747.93,-935.84 747.93,-935.84"/>
</g>
<!-- ragger.backend.ledgercomm&#45;&gt;ragger.utils -->
<g id="edge14" class="edge">
<title>ragger.backend.ledgercomm&#45;&gt;ragger.utils</title>
<path fill="none" stroke="black" d="M917.33,-612.1C902.67,-630.82 884.67,-661.21 899.5,-684 948.6,-759.47 1054.83,-789.72 1121.98,-801.6"/>
<polygon fill="black" stroke="black" points="1132,-803.29 1121.39,-806.07 1127.07,-802.46 1122.14,-801.63 1122.14,-801.63 1122.14,-801.63 1127.07,-802.46 1122.88,-797.19 1132,-803.29 1132,-803.29"/>
</g>
<!-- ragger.backend.ledgerwallet&#45;&gt;ragger.backend.physical_backend -->
<g id="edge15" class="edge">
<title>ragger.backend.ledgerwallet&#45;&gt;ragger.backend.physical_backend</title>
<path fill="none" stroke="black" d="M1152.07,-612.12C1131.25,-621.65 1105.15,-633.59 1083.02,-643.72"/>
<polygon fill="black" stroke="black" points="1073.81,-647.93 1081.03,-639.68 1078.35,-645.85 1082.9,-643.77 1082.9,-643.77 1082.9,-643.77 1078.35,-645.85 1084.77,-647.86 1073.81,-647.93 1073.81,-647.93"/>
</g>
<!-- ragger.backend.ledgerwallet&#45;&gt;ragger.error -->
<g id="edge16" class="edge">
<title>ragger.backend.ledgerwallet&#45;&gt;ragger.error</title>
<path fill="none" stroke="black" d="M1081.12,-612.06C1005.85,-624.38 916.18,-640.17 899.5,-648 854.38,-669.18 846.78,-682.88 813.5,-720 762.15,-777.27 739.79,-790.38 717.5,-864 712.86,-879.31 710.01,-885.86 717.5,-900 724.1,-912.46 735.08,-922.53 746.75,-930.41"/>
<polygon fill="black" stroke="black" points="755.32,-935.77 744.45,-934.29 751.08,-933.12 746.84,-930.47 746.84,-930.47 746.84,-930.47 751.08,-933.12 749.23,-926.65 755.32,-935.77 755.32,-935.77"/>
</g>
<!-- ragger.backend.ledgerwallet&#45;&gt;ragger.utils -->
<g id="edge17" class="edge">
<title>ragger.backend.ledgerwallet&#45;&gt;ragger.utils</title>
<path fill="none" stroke="black" d="M1188.86,-612.15C1187.48,-649.17 1184.2,-736.82 1182.52,-781.61"/>
<polygon fill="black" stroke="black" points="1182.14,-791.77 1178.02,-781.61 1182.33,-786.77 1182.52,-781.77 1182.52,-781.77 1182.52,-781.77 1182.33,-786.77 1187.01,-781.94 1182.14,-791.77 1182.14,-791.77"/>
</g>
<!-- ragger.backend.physical_backend&#45;&gt;ragger.backend.interface -->
<g id="edge18" class="edge">
<title>ragger.backend.physical_backend&#45;&gt;ragger.backend.interface</title>
<path fill="none" stroke="black" d="M1136.03,-684.03C1197.08,-694.48 1275.25,-707.86 1337.76,-718.56"/>
<polygon fill="black" stroke="black" points="1347.65,-720.25 1337.03,-723 1342.72,-719.41 1337.79,-718.57 1337.79,-718.57 1337.79,-718.57 1342.72,-719.41 1338.55,-714.13 1347.65,-720.25 1347.65,-720.25"/>
</g>
<!-- ragger.gui -->
<g id="node25" class="node">
<title>ragger.gui</title>
<polygon fill="#eedd88" stroke="#eedd88" points="912.5,-756 822.5,-756 822.5,-720 912.5,-720 912.5,-756"/>
<text text-anchor="middle" x="867.5" y="-734.3" font-family="Times,serif" font-size="14.00">ragger.gui</text>
</g>
<!-- ragger.backend.physical_backend&#45;&gt;ragger.gui -->
<g id="edge19" class="edge">
<title>ragger.backend.physical_backend&#45;&gt;ragger.gui</title>
<path fill="none" stroke="black" d="M995.16,-684.12C971.95,-693.74 942.81,-705.81 918.23,-715.99"/>
<polygon fill="black" stroke="black" points="908.71,-719.93 916.22,-711.95 913.33,-718.02 917.95,-716.1 917.95,-716.1 917.95,-716.1 913.33,-718.02 919.67,-720.26 908.71,-719.93 908.71,-719.93"/>
</g>
<!-- ragger.navigator.instruction -->
<g id="node30" class="node">
<title>ragger.navigator.instruction</title>
<polygon fill="#ee8866" stroke="#ee8866" points="601,-900 384,-900 384,-864 601,-864 601,-900"/>
<text text-anchor="middle" x="492.5" y="-878.3" font-family="Times,serif" font-size="14.00">ragger.navigator.instruction</text>
</g>
<!-- ragger.backend.physical_backend&#45;&gt;ragger.navigator.instruction -->
<g id="edge20" class="edge">
<title>ragger.backend.physical_backend&#45;&gt;ragger.navigator.instruction</title>
<path fill="none" stroke="black" d="M942.22,-684.04C901.9,-692.7 854.71,-704.67 813.5,-720 715.87,-756.32 698.89,-781.87 605.5,-828 583.77,-838.73 559.45,-850.21 538.96,-859.72"/>
<polygon fill="black" stroke="black" points="529.83,-863.95 537.02,-855.66 534.37,-861.85 538.91,-859.75 538.91,-859.75 538.91,-859.75 534.37,-861.85 540.8,-863.83 529.83,-863.95 529.83,-863.95"/>
</g>
<!-- ragger.backend.physical_backend&#45;&gt;ragger.utils -->
<g id="edge21" class="edge">
<title>ragger.backend.physical_backend&#45;&gt;ragger.utils</title>
<path fill="none" stroke="black" d="M1053.99,-684.13C1079.57,-709.18 1127.33,-755.95 1156.58,-784.59"/>
<polygon fill="black" stroke="black" points="1163.95,-791.81 1153.65,-788.03 1160.38,-788.31 1156.8,-784.81 1156.8,-784.81 1156.8,-784.81 1160.38,-788.31 1159.95,-781.6 1163.95,-791.81 1163.95,-791.81"/>
</g>
<!-- ragger.backend.speculos&#45;&gt;ragger.backend.interface -->
<g id="edge22" class="edge">
<title>ragger.backend.speculos&#45;&gt;ragger.backend.interface</title>
<path fill="none" stroke="black" d="M1630.12,-684.03C1595.44,-693.99 1551.49,-706.59 1515.17,-717.01"/>
<polygon fill="black" stroke="black" points="1505.14,-719.89 1513.51,-712.81 1509.95,-718.51 1514.76,-717.13 1514.76,-717.13 1514.76,-717.13 1509.95,-718.51 1516,-721.46 1505.14,-719.89 1505.14,-719.89"/>
</g>
<!-- ragger.backend.speculos&#45;&gt;ragger.error -->
<g id="edge23" class="edge">
<title>ragger.backend.speculos&#45;&gt;ragger.error</title>
<path fill="none" stroke="black" d="M1682.33,-684.24C1661.73,-731.04 1597.26,-859.6 1495.5,-900 1380.45,-945.67 1007.27,-952.23 858.03,-953"/>
<polygon fill="black" stroke="black" points="847.67,-953.04 857.65,-948.5 852.67,-953.02 857.67,-953 857.67,-953 857.67,-953 852.67,-953.02 857.69,-957.5 847.67,-953.04 847.67,-953.04"/>
</g>
<!-- ragger.backend.speculos&#45;&gt;ragger.logger -->
<g id="edge24" class="edge">
<title>ragger.backend.speculos&#45;&gt;ragger.logger</title>
<path fill="none" stroke="black" d="M1688.37,-684.03C1685.2,-731.71 1676.23,-866.82 1672.34,-925.37"/>
<polygon fill="black" stroke="black" points="1671.65,-935.69 1667.82,-925.42 1671.98,-930.7 1672.31,-925.72 1672.31,-925.72 1672.31,-925.72 1671.98,-930.7 1676.8,-926.01 1671.65,-935.69 1671.65,-935.69"/>
</g>
<!-- ragger.backend.speculos&#45;&gt;ragger.utils -->
<g id="edge25" class="edge">
<title>ragger.backend.speculos&#45;&gt;ragger.utils</title>
<path fill="none" stroke="black" d="M1669.07,-684.28C1643.4,-704.96 1597.17,-738.94 1551.5,-756 1447,-795.04 1315.99,-805.55 1241.21,-808.24"/>
<polygon fill="black" stroke="black" points="1231.04,-808.57 1240.89,-803.75 1236.03,-808.41 1241.03,-808.24 1241.03,-808.24 1241.03,-808.24 1236.03,-808.41 1241.18,-812.74 1231.04,-808.57 1231.04,-808.57"/>
</g>
<!-- ragger.utils.coverage -->
<g id="node38" class="node">
<title>ragger.utils.coverage</title>
<polygon fill="#dddddd" stroke="#dddddd" points="2008.5,-756 1840.5,-756 1840.5,-720 2008.5,-720 2008.5,-756"/>
<text text-anchor="middle" x="1924.5" y="-734.3" font-family="Times,serif" font-size="14.00">ragger.utils.coverage</text>
</g>
<!-- ragger.backend.speculos&#45;&gt;ragger.utils.coverage -->
<g id="edge26" class="edge">
<title>ragger.backend.speculos&#45;&gt;ragger.utils.coverage</title>
<path fill="none" stroke="black" d="M1746.69,-684.03C1780.09,-693.99 1822.42,-706.59 1857.4,-717.01"/>
<polygon fill="black" stroke="black" points="1867.06,-719.89 1856.19,-721.35 1862.26,-718.46 1857.47,-717.03 1857.47,-717.03 1857.47,-717.03 1862.26,-718.46 1858.76,-712.72 1867.06,-719.89 1867.06,-719.89"/>
</g>
<!-- ragger.backend.stub&#45;&gt;ragger.backend.interface -->
<g id="edge27" class="edge">
<title>ragger.backend.stub&#45;&gt;ragger.backend.interface</title>
<path fill="none" stroke="black" d="M1366.19,-684.12C1379.79,-693.19 1396.67,-704.45 1411.36,-714.24"/>
<polygon fill="black" stroke="black" points="1419.72,-719.81 1408.9,-718.01 1415.56,-717.04 1411.39,-714.26 1411.39,-714.26 1411.39,-714.26 1415.56,-717.04 1413.89,-710.52 1419.72,-719.81 1419.72,-719.81"/>
</g>
<!-- ragger.backend.stub&#45;&gt;ragger.error -->
<g id="edge28" class="edge">
<title>ragger.backend.stub&#45;&gt;ragger.error</title>
<path fill="none" stroke="black" d="M1337.3,-684.13C1327.79,-733.08 1298.22,-871.8 1263.5,-900 1232.63,-925.08 978.32,-942.65 858.06,-949.64"/>
<polygon fill="black" stroke="black" points="847.9,-950.23 857.62,-945.16 852.89,-949.94 857.88,-949.65 857.88,-949.65 857.88,-949.65 852.89,-949.94 858.14,-954.15 847.9,-950.23 847.9,-950.23"/>
</g>
<!-- ragger.utils.structs -->
<g id="node41" class="node">
<title>ragger.utils.structs</title>
<polygon fill="#dddddd" stroke="#dddddd" points="1464.5,-900 1310.5,-900 1310.5,-864 1464.5,-864 1464.5,-900"/>
<text text-anchor="middle" x="1387.5" y="-878.3" font-family="Times,serif" font-size="14.00">ragger.utils.structs</text>
</g>
<!-- ragger.backend.stub&#45;&gt;ragger.utils.structs -->
<g id="edge29" class="edge">
<title>ragger.backend.stub&#45;&gt;ragger.utils.structs</title>
<path fill="none" stroke="black" d="M1339.69,-684.18C1339.24,-694.55 1338.73,-708.03 1338.5,-720 1338.2,-736 1335.53,-740.28 1338.5,-756 1345.23,-791.59 1361.84,-830.02 1373.86,-854.74"/>
<polygon fill="black" stroke="black" points="1378.37,-863.82 1369.89,-856.86 1376.14,-859.34 1373.92,-854.86 1373.92,-854.86 1373.92,-854.86 1376.14,-859.34 1377.95,-852.86 1378.37,-863.82 1378.37,-863.82"/>
</g>
<!-- ragger.bip -->
<g id="node10" class="node">
<title>ragger.bip</title>
<polygon fill="#44bb99" stroke="#44bb99" points="2246.5,-36 2156.5,-36 2156.5,0 2246.5,0 2246.5,-36"/>
<text text-anchor="middle" x="2201.5" y="-14.3" font-family="Times,serif" font-size="14.00">ragger.bip</text>
</g>
<!-- ragger.bip.path -->
<g id="node11" class="node">
<title>ragger.bip.path</title>
<polygon fill="#44bb99" stroke="#44bb99" points="2192,-108 2065,-108 2065,-72 2192,-72 2192,-108"/>
<text text-anchor="middle" x="2128.5" y="-86.3" font-family="Times,serif" font-size="14.00">ragger.bip.path</text>
</g>
<!-- ragger.bip&#45;&gt;ragger.bip.path -->
<g id="edge30" class="edge">
<title>ragger.bip&#45;&gt;ragger.bip.path</title>
<path fill="none" stroke="black" d="M2183.46,-36.3C2174.44,-44.95 2163.38,-55.55 2153.56,-64.97"/>
<polygon fill="black" stroke="black" points="2146.34,-71.9 2150.44,-61.73 2149.95,-68.44 2153.56,-64.97 2153.56,-64.97 2153.56,-64.97 2149.95,-68.44 2156.67,-68.22 2146.34,-71.9 2146.34,-71.9"/>
</g>
<!-- ragger.bip.seed -->
<g id="node12" class="node">
<title>ragger.bip.seed</title>
<polygon fill="#44bb99" stroke="#44bb99" points="2338.5,-108 2210.5,-108 2210.5,-72 2338.5,-72 2338.5,-108"/>
<text text-anchor="middle" x="2274.5" y="-86.3" font-family="Times,serif" font-size="14.00">ragger.bip.seed</text>
</g>
<!-- ragger.bip&#45;&gt;ragger.bip.seed -->
<g id="edge31" class="edge">
<title>ragger.bip&#45;&gt;ragger.bip.seed</title>
<path fill="none" stroke="black" d="M2219.54,-36.3C2228.56,-44.95 2239.62,-55.55 2249.44,-64.97"/>
<polygon fill="black" stroke="black" points="2256.66,-71.9 2246.33,-68.22 2253.05,-68.44 2249.44,-64.97 2249.44,-64.97 2249.44,-64.97 2253.05,-68.44 2252.56,-61.73 2256.66,-71.9 2256.66,-71.9"/>
</g>
<!-- ragger.conftest -->
<g id="node13" class="node">
<title>ragger.conftest</title>
<polygon fill="#bbcc33" stroke="#bbcc33" points="2390,-36 2265,-36 2265,0 2390,0 2390,-36"/>
<text text-anchor="middle" x="2327.5" y="-14.3" font-family="Times,serif" font-size="14.00">ragger.conftest</text>
</g>
<!-- ragger.conftest.base_conftest -->
<g id="node14" class="node">
<title>ragger.conftest.base_conftest</title>
<polygon fill="#bbcc33" stroke="#bbcc33" points="1719,-36 1492,-36 1492,0 1719,0 1719,-36"/>
<text text-anchor="middle" x="1605.5" y="-14.3" font-family="Times,serif" font-size="14.00">ragger.conftest.base_conftest</text>
</g>
<!-- ragger.conftest.base_conftest&#45;&gt;ragger.backend -->
<g id="edge32" class="edge">
<title>ragger.conftest.base_conftest&#45;&gt;ragger.backend</title>
<path fill="none" stroke="black" d="M1597.81,-36.09C1586.71,-62.38 1567.5,-114.55 1567.5,-161 1567.5,-161 1567.5,-161 1567.5,-379 1567.5,-443.33 1373.24,-488.4 1263.24,-508.77"/>
<polygon fill="black" stroke="black" points="1253.2,-510.6 1262.22,-504.38 1258.11,-509.7 1263.03,-508.81 1263.03,-508.81 1263.03,-508.81 1258.11,-509.7 1263.84,-513.23 1253.2,-510.6 1253.2,-510.6"/>
</g>
<!-- ragger.conftest.base_conftest&#45;&gt;ragger.error -->
<g id="edge33" class="edge">
<title>ragger.conftest.base_conftest&#45;&gt;ragger.error</title>
<path fill="none" stroke="black" d="M1491.78,-20.42C1198.32,-24.53 430.69,-38.41 320.5,-72 248.17,-94.05 175.5,-85.38 175.5,-161 175.5,-161 175.5,-161 175.5,-811 175.5,-924.55 575.6,-947.3 732.98,-951.86"/>
<polygon fill="black" stroke="black" points="743.44,-952.14 733.32,-956.37 738.44,-952.01 733.44,-951.87 733.44,-951.87 733.44,-951.87 738.44,-952.01 733.57,-947.37 743.44,-952.14 743.44,-952.14"/>
</g>
<!-- ragger.conftest.base_conftest&#45;&gt;ragger.firmware -->
<g id="edge34" class="edge">
<title>ragger.conftest.base_conftest&#45;&gt;ragger.firmware</title>
<path fill="none" stroke="black" d="M1677.13,-36.02C1737.63,-55.17 1814.5,-92.9 1814.5,-161 1814.5,-161 1814.5,-161 1814.5,-595 1814.5,-662.06 1812.51,-740.91 1811.34,-781.61"/>
<polygon fill="black" stroke="black" points="1811.04,-791.8 1806.84,-781.68 1811.19,-786.81 1811.33,-781.81 1811.33,-781.81 1811.33,-781.81 1811.19,-786.81 1815.83,-781.94 1811.04,-791.8 1811.04,-791.8"/>
</g>
<!-- ragger.conftest.base_conftest&#45;&gt;ragger.logger -->
<g id="edge35" class="edge">
<title>ragger.conftest.base_conftest&#45;&gt;ragger.logger</title>
<path fill="none" stroke="black" d="M1719.02,-33.68C1846.72,-53.45 2036.5,-94.08 2036.5,-161 2036.5,-161 2036.5,-161 2036.5,-811 2036.5,-870.5 1989.76,-873.48 1936.5,-900 1873.4,-931.42 1793.15,-944.21 1737.38,-949.42"/>
<polygon fill="black" stroke="black" points="1727.26,-950.31 1736.83,-944.96 1732.24,-949.87 1737.22,-949.44 1737.22,-949.44 1737.22,-949.44 1732.24,-949.87 1737.62,-953.92 1727.26,-950.31 1727.26,-950.31"/>
</g>
<!-- ragger.navigator -->
<g id="node29" class="node">
<title>ragger.navigator</title>
<polygon fill="#ee8866" stroke="#ee8866" points="1183.5,-108 1047.5,-108 1047.5,-72 1183.5,-72 1183.5,-108"/>
<text text-anchor="middle" x="1115.5" y="-86.3" font-family="Times,serif" font-size="14.00">ragger.navigator</text>
</g>
<!-- ragger.conftest.base_conftest&#45;&gt;ragger.navigator -->
<g id="edge36" class="edge">
<title>ragger.conftest.base_conftest&#45;&gt;ragger.navigator</title>
<path fill="none" stroke="black" d="M1491.85,-35.24C1400.35,-48.31 1274.14,-66.34 1193.67,-77.83"/>
<polygon fill="black" stroke="black" points="1183.6,-79.27 1192.86,-73.4 1188.55,-78.56 1193.5,-77.86 1193.5,-77.86 1193.5,-77.86 1188.55,-78.56 1194.14,-82.31 1183.6,-79.27 1183.6,-79.27"/>
</g>
<!-- ragger.conftest.base_conftest&#45;&gt;ragger.utils -->
<g id="edge37" class="edge">
<title>ragger.conftest.base_conftest&#45;&gt;ragger.utils</title>
<path fill="none" stroke="black" d="M1605.5,-36.05C1605.5,-62.71 1605.5,-115.89 1605.5,-161 1605.5,-161 1605.5,-161 1605.5,-379 1605.5,-442.93 1542.78,-428.52 1492.5,-468 1410.82,-532.13 1393.86,-552.86 1308.5,-612 1283.25,-629.5 1269.55,-624.73 1249.5,-648 1231.42,-668.99 1204.53,-741.95 1190.6,-782.06"/>
<polygon fill="black" stroke="black" points="1187.28,-791.73 1186.27,-780.81 1188.9,-787.01 1190.53,-782.28 1190.53,-782.28 1190.53,-782.28 1188.9,-787.01 1194.78,-783.74 1187.28,-791.73 1187.28,-791.73"/>
</g>
<!-- ragger.conftest.base_conftest&#45;&gt;ragger.utils.coverage -->
<g id="edge38" class="edge">
<title>ragger.conftest.base_conftest&#45;&gt;ragger.utils.coverage</title>
<path fill="none" stroke="black" d="M1719.39,-31.27C1797.65,-46.76 1887.5,-81.79 1887.5,-161 1887.5,-161 1887.5,-161 1887.5,-595 1887.5,-636.29 1902.33,-682.23 1913.22,-710.37"/>
<polygon fill="black" stroke="black" points="1917.01,-719.89 1909.13,-712.26 1915.16,-715.24 1913.31,-710.6 1913.31,-710.6 1913.31,-710.6 1915.16,-715.24 1917.49,-708.93 1917.01,-719.89 1917.01,-719.89"/>
</g>
<!-- ragger.utils.misc -->
<g id="node39" class="node">
<title>ragger.utils.misc</title>
<polygon fill="#dddddd" stroke="#dddddd" points="864,-900 727,-900 727,-864 864,-864 864,-900"/>
<text text-anchor="middle" x="795.5" y="-878.3" font-family="Times,serif" font-size="14.00">ragger.utils.misc</text>
</g>
<!-- ragger.conftest.base_conftest&#45;&gt;ragger.utils.misc -->
<g id="edge39" class="edge">
<title>ragger.conftest.base_conftest&#45;&gt;ragger.utils.misc</title>
<path fill="none" stroke="black" d="M1491.81,-19.08C1165.88,-20.8 251.5,-36.69 251.5,-161 251.5,-161 251.5,-161 251.5,-307 251.5,-418.83 278.45,-451.26 346.5,-540 408.53,-620.89 666.84,-795.88 760.98,-858.3"/>
<polygon fill="black" stroke="black" points="769.57,-863.99 758.74,-862.22 765.4,-861.23 761.23,-858.47 761.23,-858.47 761.23,-858.47 765.4,-861.23 763.71,-854.72 769.57,-863.99 769.57,-863.99"/>
</g>
<!-- ragger.conftest.base_conftest&#45;&gt;ragger.utils.structs -->
<g id="edge40" class="edge">
<title>ragger.conftest.base_conftest&#45;&gt;ragger.utils.structs</title>
<path fill="none" stroke="black" d="M1613.19,-36.09C1624.29,-62.38 1643.5,-114.55 1643.5,-161 1643.5,-161 1643.5,-161 1643.5,-379 1643.5,-400.56 1563.3,-737.96 1551.5,-756 1521.5,-801.84 1468.76,-837.54 1431.19,-858.85"/>
<polygon fill="black" stroke="black" points="1421.99,-863.95 1428.55,-855.17 1426.36,-861.53 1430.74,-859.1 1430.74,-859.1 1430.74,-859.1 1426.36,-861.53 1432.92,-863.04 1421.99,-863.95 1421.99,-863.95"/>
</g>
<!-- ragger.conftest.configuration -->
<g id="node15" class="node">
<title>ragger.conftest.configuration</title>
<polygon fill="#bbcc33" stroke="#bbcc33" points="2632.5,-36 2408.5,-36 2408.5,0 2632.5,0 2632.5,-36"/>
<text text-anchor="middle" x="2520.5" y="-14.3" font-family="Times,serif" font-size="14.00">ragger.conftest.configuration</text>
</g>
<!-- ragger.firmware.structs -->
<g id="node18" class="node">
<title>ragger.firmware.structs</title>
<polygon fill="#aaaa00" stroke="#aaaa00" points="1904,-900 1717,-900 1717,-864 1904,-864 1904,-900"/>
<text text-anchor="middle" x="1810.5" y="-878.3" font-family="Times,serif" font-size="14.00">ragger.firmware.structs</text>
</g>
<!-- ragger.firmware&#45;&gt;ragger.firmware.structs -->
<g id="edge41" class="edge">
<title>ragger.firmware&#45;&gt;ragger.firmware.structs</title>
<path fill="none" stroke="black" d="M1810.5,-828.3C1810.5,-836.02 1810.5,-845.29 1810.5,-853.89"/>
<polygon fill="black" stroke="black" points="1810.5,-863.9 1806,-853.9 1810.5,-858.9 1810.5,-853.9 1810.5,-853.9 1810.5,-853.9 1810.5,-858.9 1815,-853.9 1810.5,-863.9 1810.5,-863.9"/>
</g>
<!-- ragger.firmware.touch -->
<g id="node19" class="node">
<title>ragger.firmware.touch</title>
<polygon fill="#aaaa00" stroke="#aaaa00" points="859.5,-252 683.5,-252 683.5,-216 859.5,-216 859.5,-252"/>
<text text-anchor="middle" x="771.5" y="-230.3" font-family="Times,serif" font-size="14.00">ragger.firmware.touch</text>
</g>
<!-- ragger.firmware.touch.screen -->
<g id="node23" class="node">
<title>ragger.firmware.touch.screen</title>
<polygon fill="#aaaa00" stroke="#aaaa00" points="847.5,-324 619.5,-324 619.5,-288 847.5,-288 847.5,-324"/>
<text text-anchor="middle" x="733.5" y="-302.3" font-family="Times,serif" font-size="14.00">ragger.firmware.touch.screen</text>
</g>
<!-- ragger.firmware.touch&#45;&gt;ragger.firmware.touch.screen -->
<g id="edge42" class="edge">
<title>ragger.firmware.touch&#45;&gt;ragger.firmware.touch.screen</title>
<path fill="none" stroke="black" d="M762.11,-252.3C757.74,-260.36 752.44,-270.11 747.6,-279.02"/>
<polygon fill="black" stroke="black" points="742.79,-287.9 743.6,-276.96 745.17,-283.5 747.56,-279.11 747.56,-279.11 747.56,-279.11 745.17,-283.5 751.51,-281.25 742.79,-287.9 742.79,-287.9"/>
</g>
<!-- ragger.firmware.touch.element -->
<g id="node20" class="node">
<title>ragger.firmware.touch.element</title>
<polygon fill="#aaaa00" stroke="#aaaa00" points="699,-468 460,-468 460,-432 699,-432 699,-468"/>
<text text-anchor="middle" x="579.5" y="-446.3" font-family="Times,serif" font-size="14.00">ragger.firmware.touch.element</text>
</g>
<!-- ragger.firmware.touch.element&#45;&gt;ragger.backend -->
<g id="edge43" class="edge">
<title>ragger.firmware.touch.element&#45;&gt;ragger.backend</title>
<path fill="none" stroke="black" d="M699.29,-464.75C823.03,-478.95 1012.22,-500.66 1115.65,-512.53"/>
<polygon fill="black" stroke="black" points="1125.69,-513.68 1115.25,-517.01 1120.73,-513.11 1115.76,-512.54 1115.76,-512.54 1115.76,-512.54 1120.73,-513.11 1116.27,-508.07 1125.69,-513.68 1125.69,-513.68"/>
</g>
<!-- ragger.firmware.touch.positions -->
<g id="node22" class="node">
<title>ragger.firmware.touch.positions</title>
<polygon fill="#aaaa00" stroke="#aaaa00" points="601,-540 356,-540 356,-504 601,-504 601,-540"/>
<text text-anchor="middle" x="478.5" y="-518.3" font-family="Times,serif" font-size="14.00">ragger.firmware.touch.positions</text>
</g>
<!-- ragger.firmware.touch.element&#45;&gt;ragger.firmware.touch.positions -->
<g id="edge44" class="edge">
<title>ragger.firmware.touch.element&#45;&gt;ragger.firmware.touch.positions</title>
<path fill="none" stroke="black" d="M554.79,-468.12C541.83,-477.11 525.77,-488.24 511.73,-497.97"/>
<polygon fill="black" stroke="black" points="503.3,-503.81 508.96,-494.42 507.41,-500.96 511.52,-498.11 511.52,-498.11 511.52,-498.11 507.41,-500.96 514.08,-501.81 503.3,-503.81 503.3,-503.81"/>
</g>
<!-- ragger.firmware.touch.layouts -->
<g id="node21" class="node">
<title>ragger.firmware.touch.layouts</title>
<polygon fill="#aaaa00" stroke="#aaaa00" points="551,-396 318,-396 318,-360 551,-360 551,-396"/>
<text text-anchor="middle" x="434.5" y="-374.3" font-family="Times,serif" font-size="14.00">ragger.firmware.touch.layouts</text>
</g>
<!-- ragger.firmware.touch.layouts&#45;&gt;ragger.firmware.touch.element -->
<g id="edge45" class="edge">
<title>ragger.firmware.touch.layouts&#45;&gt;ragger.firmware.touch.element</title>
<path fill="none" stroke="black" d="M469.97,-396.12C489.62,-405.61 514.22,-417.49 535.13,-427.58"/>
<polygon fill="black" stroke="black" points="544.14,-431.93 533.18,-431.64 539.64,-429.76 535.14,-427.58 535.14,-427.58 535.14,-427.58 539.64,-429.76 537.1,-423.53 544.14,-431.93 544.14,-431.93"/>
</g>
<!-- ragger.firmware.touch.screen&#45;&gt;ragger.backend -->
<g id="edge46" class="edge">
<title>ragger.firmware.touch.screen&#45;&gt;ragger.backend</title>
<path fill="none" stroke="black" d="M808.29,-324.05C829.66,-331.99 851.47,-343.48 867.5,-360 903.04,-396.63 867.62,-434.94 906.5,-468 937.37,-494.25 1042.64,-508.51 1115.7,-515.44"/>
<polygon fill="black" stroke="black" points="1125.78,-516.36 1115.41,-519.93 1120.8,-515.91 1115.82,-515.45 1115.82,-515.45 1115.82,-515.45 1120.8,-515.91 1116.24,-510.97 1125.78,-516.36 1125.78,-516.36"/>
</g>
<!-- ragger.firmware.touch.screen&#45;&gt;ragger.firmware.touch.element -->
<g id="edge47" class="edge">
<title>ragger.firmware.touch.screen&#45;&gt;ragger.firmware.touch.element</title>
<path fill="none" stroke="black" d="M652.85,-324.09C632.57,-331.96 612.59,-343.39 598.5,-360 584.01,-377.08 579.74,-402.53 578.82,-421.85"/>
<polygon fill="black" stroke="black" points="578.6,-431.86 574.32,-421.76 578.71,-426.86 578.82,-421.86 578.82,-421.86 578.82,-421.86 578.71,-426.86 583.32,-421.95 578.6,-431.86 578.6,-431.86"/>
</g>
<!-- ragger.firmware.touch.screen&#45;&gt;ragger.firmware.touch.layouts -->
<g id="edge48" class="edge">
<title>ragger.firmware.touch.screen&#45;&gt;ragger.firmware.touch.layouts</title>
<path fill="none" stroke="black" d="M660.74,-324.03C617.34,-334.2 562.1,-347.13 517.07,-357.67"/>
<polygon fill="black" stroke="black" points="507.33,-359.95 516.04,-353.29 512.2,-358.81 517.06,-357.67 517.06,-357.67 517.06,-357.67 512.2,-358.81 518.09,-362.05 507.33,-359.95 507.33,-359.95"/>
</g>
<!-- ragger.firmware.touch.use_cases -->
<g id="node24" class="node">
<title>ragger.firmware.touch.use_cases</title>
<polygon fill="#aaaa00" stroke="#aaaa00" points="859,-396 608,-396 608,-360 859,-360 859,-396"/>
<text text-anchor="middle" x="733.5" y="-374.3" font-family="Times,serif" font-size="14.00">ragger.firmware.touch.use_cases</text>
</g>
<!-- ragger.firmware.touch.screen&#45;&gt;ragger.firmware.touch.use_cases -->
<g id="edge49" class="edge">
<title>ragger.firmware.touch.screen&#45;&gt;ragger.firmware.touch.use_cases</title>
<path fill="none" stroke="black" d="M733.5,-324.3C733.5,-332.02 733.5,-341.29 733.5,-349.89"/>
<polygon fill="black" stroke="black" points="733.5,-359.9 729,-349.9 733.5,-354.9 733.5,-349.9 733.5,-349.9 733.5,-349.9 733.5,-354.9 738,-349.9 733.5,-359.9 733.5,-359.9"/>
</g>
<!-- ragger.firmware.touch.use_cases&#45;&gt;ragger.firmware.touch.element -->
<g id="edge50" class="edge">
<title>ragger.firmware.touch.use_cases&#45;&gt;ragger.firmware.touch.element</title>
<path fill="none" stroke="black" d="M695.83,-396.12C674.87,-405.65 648.6,-417.59 626.32,-427.72"/>
<polygon fill="black" stroke="black" points="617.05,-431.93 624.29,-423.7 621.6,-429.86 626.15,-427.79 626.15,-427.79 626.15,-427.79 621.6,-429.86 628.02,-431.89 617.05,-431.93 617.05,-431.93"/>
</g>
<!-- ragger.gui.process -->
<g id="node27" class="node">
<title>ragger.gui.process</title>
<polygon fill="#eedd88" stroke="#eedd88" points="989,-828 840,-828 840,-792 989,-792 989,-828"/>
<text text-anchor="middle" x="914.5" y="-806.3" font-family="Times,serif" font-size="14.00">ragger.gui.process</text>
</g>
<!-- ragger.gui&#45;&gt;ragger.gui.process -->
<g id="edge51" class="edge">
<title>ragger.gui&#45;&gt;ragger.gui.process</title>
<path fill="none" stroke="black" d="M879.12,-756.3C884.64,-764.53 891.35,-774.52 897.43,-783.58"/>
<polygon fill="black" stroke="black" points="903.02,-791.9 893.71,-786.1 900.23,-787.74 897.44,-783.59 897.44,-783.59 897.44,-783.59 900.23,-787.74 901.18,-781.08 903.02,-791.9 903.02,-791.9"/>
</g>
<!-- ragger.gui.interface -->
<g id="node26" class="node">
<title>ragger.gui.interface</title>
<polygon fill="#eedd88" stroke="#eedd88" points="1040.5,-900 882.5,-900 882.5,-864 1040.5,-864 1040.5,-900"/>
<text text-anchor="middle" x="961.5" y="-878.3" font-family="Times,serif" font-size="14.00">ragger.gui.interface</text>
</g>
<!-- ragger.gui.interface&#45;&gt;ragger.logger -->
<g id="edge52" class="edge">
<title>ragger.gui.interface&#45;&gt;ragger.logger</title>
<path fill="none" stroke="black" d="M1040.57,-897.98C1045.27,-898.71 1049.95,-899.39 1054.5,-900 1253.35,-926.67 1490.22,-942.65 1603.57,-949.33"/>
<polygon fill="black" stroke="black" points="1613.83,-949.93 1603.58,-953.84 1608.83,-949.64 1603.84,-949.35 1603.84,-949.35 1603.84,-949.35 1608.83,-949.64 1604.1,-944.85 1613.83,-949.93 1613.83,-949.93"/>
</g>
<!-- ragger.gui.process&#45;&gt;ragger.gui.interface -->
<g id="edge53" class="edge">
<title>ragger.gui.process&#45;&gt;ragger.gui.interface</title>
<path fill="none" stroke="black" d="M926.12,-828.3C931.64,-836.53 938.35,-846.52 944.43,-855.58"/>
<polygon fill="black" stroke="black" points="950.02,-863.9 940.71,-858.1 947.23,-859.74 944.44,-855.59 944.44,-855.59 944.44,-855.59 947.23,-859.74 948.18,-853.08 950.02,-863.9 950.02,-863.9"/>
</g>
<!-- ragger.gui.process&#45;&gt;ragger.logger -->
<g id="edge54" class="edge">
<title>ragger.gui.process&#45;&gt;ragger.logger</title>
<path fill="none" stroke="black" d="M972.43,-828.05C997.26,-836.77 1025.91,-848.78 1049.5,-864 1068.78,-876.44 1065.66,-890.41 1086.5,-900 1176.98,-941.62 1470.28,-950.58 1603.53,-952.49"/>
<polygon fill="black" stroke="black" points="1613.61,-952.63 1603.55,-956.99 1608.61,-952.56 1603.61,-952.49 1603.61,-952.49 1603.61,-952.49 1608.61,-952.56 1603.67,-947.99 1613.61,-952.63 1613.61,-952.63"/>
</g>
<!-- ragger.gui.process&#45;&gt;ragger.navigator.instruction -->
<g id="edge55" class="edge">
<title>ragger.gui.process&#45;&gt;ragger.navigator.instruction</title>
<path fill="none" stroke="black" d="M839.54,-823.43C774.49,-834.22 679.36,-850.01 605.14,-862.32"/>
<polygon fill="black" stroke="black" points="595.27,-863.95 604.4,-857.88 600.21,-863.13 605.14,-862.32 605.14,-862.32 605.14,-862.32 600.21,-863.13 605.88,-866.75 595.27,-863.95 595.27,-863.95"/>
</g>
<!-- ragger.navigator&#45;&gt;ragger.navigator -->
<g id="edge56" class="edge">
<title>ragger.navigator&#45;&gt;ragger.navigator</title>
<path fill="none" stroke="black" d="M1183.63,-77.63C1194.26,-79.48 1201.5,-83.6 1201.5,-90 1201.5,-94.1 1198.53,-97.26 1193.6,-99.5"/>
<polygon fill="black" stroke="black" points="1183.63,-102.37 1191.99,-95.28 1188.43,-100.99 1193.24,-99.6 1193.24,-99.6 1193.24,-99.6 1188.43,-100.99 1194.48,-103.92 1183.63,-102.37 1183.63,-102.37"/>
</g>
<!-- ragger.navigator&#45;&gt;ragger.navigator.instruction -->
<g id="edge57" class="edge">
<title>ragger.navigator&#45;&gt;ragger.navigator.instruction</title>
<path fill="none" stroke="black" d="M1047.33,-94.55C837.2,-106.39 213.5,-148.63 213.5,-233 213.5,-233 213.5,-233 213.5,-739 213.5,-815.46 297.76,-850.77 373.67,-867.06"/>
<polygon fill="black" stroke="black" points="383.83,-869.14 373.13,-871.55 378.93,-868.14 374.04,-867.14 374.04,-867.14 374.04,-867.14 378.93,-868.14 374.94,-862.73 383.83,-869.14 383.83,-869.14"/>
</g>
<!-- ragger.navigator.nano_navigator -->
<g id="node31" class="node">
<title>ragger.navigator.nano_navigator</title>
<polygon fill="#ee8866" stroke="#ee8866" points="1239.5,-396 991.5,-396 991.5,-360 1239.5,-360 1239.5,-396"/>
<text text-anchor="middle" x="1115.5" y="-374.3" font-family="Times,serif" font-size="14.00">ragger.navigator.nano_navigator</text>
</g>
<!-- ragger.navigator&#45;&gt;ragger.navigator.nano_navigator -->
<g id="edge58" class="edge">
<title>ragger.navigator&#45;&gt;ragger.navigator.nano_navigator</title>
<path fill="none" stroke="black" d="M1115.5,-108.03C1115.5,-155.71 1115.5,-290.82 1115.5,-349.37"/>
<polygon fill="black" stroke="black" points="1115.5,-359.69 1111,-349.69 1115.5,-354.69 1115.5,-349.69 1115.5,-349.69 1115.5,-349.69 1115.5,-354.69 1120,-349.69 1115.5,-359.69 1115.5,-359.69"/>
</g>
<!-- ragger.navigator.navigation_scenario -->
<g id="node32" class="node">
<title>ragger.navigator.navigation_scenario</title>
<polygon fill="#ee8866" stroke="#ee8866" points="1539,-396 1258,-396 1258,-360 1539,-360 1539,-396"/>
<text text-anchor="middle" x="1398.5" y="-374.3" font-family="Times,serif" font-size="14.00">ragger.navigator.navigation_scenario</text>
</g>
<!-- ragger.navigator&#45;&gt;ragger.navigator.navigation_scenario -->
<g id="edge59" class="edge">
<title>ragger.navigator&#45;&gt;ragger.navigator.navigation_scenario</title>
<path fill="none" stroke="black" d="M1132.36,-108.03C1180.41,-156.6 1318.25,-295.9 1374.33,-352.58"/>
<polygon fill="black" stroke="black" points="1381.38,-359.69 1371.14,-355.75 1377.86,-356.14 1374.34,-352.59 1374.34,-352.59 1374.34,-352.59 1377.86,-356.14 1377.54,-349.42 1381.38,-359.69 1381.38,-359.69"/>
</g>
<!-- ragger.navigator.touch_navigator -->
<g id="node34" class="node">
<title>ragger.navigator.touch_navigator</title>
<polygon fill="#ee8866" stroke="#ee8866" points="1052.5,-180 798.5,-180 798.5,-144 1052.5,-144 1052.5,-180"/>
<text text-anchor="middle" x="925.5" y="-158.3" font-family="Times,serif" font-size="14.00">ragger.navigator.touch_navigator</text>
</g>
<!-- ragger.navigator&#45;&gt;ragger.navigator.touch_navigator -->
<g id="edge60" class="edge">
<title>ragger.navigator&#45;&gt;ragger.navigator.touch_navigator</title>
<path fill="none" stroke="black" d="M1069.02,-108.12C1042.58,-117.86 1009.3,-130.13 981.44,-140.39"/>
<polygon fill="black" stroke="black" points="971.83,-143.93 979.66,-136.25 976.52,-142.2 981.21,-140.47 981.21,-140.47 981.21,-140.47 976.52,-142.2 982.77,-144.7 971.83,-143.93 971.83,-143.93"/>
</g>
<!-- ragger.navigator.nano_navigator&#45;&gt;ragger.backend -->
<g id="edge61" class="edge">
<title>ragger.navigator.nano_navigator&#45;&gt;ragger.backend</title>
<path fill="none" stroke="black" d="M1135.82,-396.06C1146.07,-405.65 1157.91,-418.42 1165.5,-432 1176.27,-451.27 1182.4,-475.61 1185.77,-493.96"/>
<polygon fill="black" stroke="black" points="1187.44,-503.99 1181.36,-494.87 1186.62,-499.06 1185.8,-494.13 1185.8,-494.13 1185.8,-494.13 1186.62,-499.06 1190.23,-493.39 1187.44,-503.99 1187.44,-503.99"/>
</g>
<!-- ragger.navigator.navigator -->
<g id="node33" class="node">
<title>ragger.navigator.navigator</title>
<polygon fill="#ee8866" stroke="#ee8866" points="1123,-468 916,-468 916,-432 1123,-432 1123,-468"/>
<text text-anchor="middle" x="1019.5" y="-446.3" font-family="Times,serif" font-size="14.00">ragger.navigator.navigator</text>
</g>
<!-- ragger.navigator.nano_navigator&#45;&gt;ragger.navigator.navigator -->
<g id="edge62" class="edge">
<title>ragger.navigator.nano_navigator&#45;&gt;ragger.navigator.navigator</title>
<path fill="none" stroke="black" d="M1091.77,-396.3C1079.56,-405.2 1064.51,-416.18 1051.32,-425.8"/>
<polygon fill="black" stroke="black" points="1042.96,-431.9 1048.39,-422.37 1047,-428.95 1051.04,-426 1051.04,-426 1051.04,-426 1047,-428.95 1053.69,-429.64 1042.96,-431.9 1042.96,-431.9"/>
</g>
<!-- ragger.navigator.navigation_scenario&#45;&gt;ragger.backend -->
<g id="edge63" class="edge">
<title>ragger.navigator.navigation_scenario&#45;&gt;ragger.backend</title>
<path fill="none" stroke="black" d="M1373.29,-396.13C1335.79,-421.61 1265.23,-469.55 1223.29,-498.04"/>
<polygon fill="black" stroke="black" points="1214.8,-503.81 1220.54,-494.47 1218.94,-501 1223.07,-498.19 1223.07,-498.19 1223.07,-498.19 1218.94,-501 1225.6,-501.91 1214.8,-503.81 1214.8,-503.81"/>
</g>
<!-- ragger.navigator.navigation_scenario&#45;&gt;ragger.backend.interface -->
<g id="edge64" class="edge">
<title>ragger.navigator.navigation_scenario&#45;&gt;ragger.backend.interface</title>
<path fill="none" stroke="black" d="M1430.47,-396.19C1468.38,-419.18 1526.5,-463.75 1526.5,-521 1526.5,-521 1526.5,-521 1526.5,-595 1526.5,-641.04 1493.98,-685.75 1470.15,-712.33"/>
<polygon fill="black" stroke="black" points="1463.08,-719.98 1466.56,-709.58 1466.47,-716.31 1469.86,-712.63 1469.86,-712.63 1469.86,-712.63 1466.47,-716.31 1473.17,-715.69 1463.08,-719.98 1463.08,-719.98"/>
</g>
<!-- ragger.navigator.navigation_scenario&#45;&gt;ragger.navigator.navigator -->
<g id="edge65" class="edge">
<title>ragger.navigator.navigation_scenario&#45;&gt;ragger.navigator.navigator</title>
<path fill="none" stroke="black" d="M1306.27,-396.03C1250.45,-406.34 1179.18,-419.51 1121.65,-430.13"/>
<polygon fill="black" stroke="black" points="1111.81,-431.95 1120.83,-425.71 1116.73,-431.04 1121.65,-430.13 1121.65,-430.13 1121.65,-430.13 1116.73,-431.04 1122.46,-434.56 1111.81,-431.95 1111.81,-431.95"/>
</g>
<!-- ragger.navigator.navigator&#45;&gt;ragger.backend -->
<g id="edge66" class="edge">
<title>ragger.navigator.navigator&#45;&gt;ragger.backend</title>
<path fill="none" stroke="black" d="M1061.09,-468.12C1084.53,-477.78 1114,-489.91 1138.8,-500.12"/>
<polygon fill="black" stroke="black" points="1148.05,-503.93 1137.09,-504.29 1143.42,-502.03 1138.8,-500.12 1138.8,-500.12 1138.8,-500.12 1143.42,-502.03 1140.51,-495.96 1148.05,-503.93 1148.05,-503.93"/>
</g>
<!-- ragger.navigator.navigator&#45;&gt;ragger.navigator.instruction -->
<g id="edge67" class="edge">
<title>ragger.navigator.navigator&#45;&gt;ragger.navigator.instruction</title>
<path fill="none" stroke="black" d="M915.88,-467.41C881.13,-475.44 842.98,-487.15 810.5,-504 652.61,-585.9 541.57,-783.12 505.31,-854.58"/>
<polygon fill="black" stroke="black" points="500.7,-863.8 501.15,-852.85 502.93,-859.33 505.17,-854.86 505.17,-854.86 505.17,-854.86 502.93,-859.33 509.2,-856.87 500.7,-863.8 500.7,-863.8"/>
</g>
<!-- ragger.navigator.navigator&#45;&gt;ragger.utils -->
<g id="edge68" class="edge">
<title>ragger.navigator.navigator&#45;&gt;ragger.utils</title>
<path fill="none" stroke="black" d="M936.36,-468.05C872.26,-486.62 794.5,-523.48 794.5,-593 794.5,-593 794.5,-593 794.5,-667 794.5,-707.45 783.95,-728.38 813.5,-756 835.64,-776.7 1023.44,-795.56 1121.86,-804.13"/>
<polygon fill="black" stroke="black" points="1131.96,-805 1121.61,-808.63 1126.98,-804.57 1122,-804.15 1122,-804.15 1122,-804.15 1126.98,-804.57 1122.38,-799.66 1131.96,-805 1131.96,-805"/>
</g>
<!-- ragger.navigator.touch_navigator&#45;&gt;ragger.backend -->
<g id="edge69" class="edge">
<title>ragger.navigator.touch_navigator&#45;&gt;ragger.backend</title>
<path fill="none" stroke="black" d="M928.65,-180.26C938.17,-231.56 966.91,-380.45 982.5,-396 1030.74,-444.1 1075.86,-392.68 1131.5,-432 1153.5,-447.55 1169.28,-474.34 1178.78,-494.47"/>
<polygon fill="black" stroke="black" points="1182.93,-503.74 1174.73,-496.46 1180.89,-499.18 1178.84,-494.62 1178.84,-494.62 1178.84,-494.62 1180.89,-499.18 1182.95,-492.78 1182.93,-503.74 1182.93,-503.74"/>
</g>
<!-- ragger.navigator.touch_navigator&#45;&gt;ragger.firmware.touch -->
<g id="edge70" class="edge">
<title>ragger.navigator.touch_navigator&#45;&gt;ragger.firmware.touch</title>
<path fill="none" stroke="black" d="M887.83,-180.12C866.87,-189.65 840.6,-201.59 818.32,-211.72"/>
<polygon fill="black" stroke="black" points="809.05,-215.93 816.29,-207.7 813.6,-213.86 818.15,-211.79 818.15,-211.79 818.15,-211.79 813.6,-213.86 820.02,-215.89 809.05,-215.93 809.05,-215.93"/>
</g>
<!-- ragger.navigator.touch_navigator&#45;&gt;ragger.navigator.instruction -->
<g id="edge71" class="edge">
<title>ragger.navigator.touch_navigator&#45;&gt;ragger.navigator.instruction</title>
<path fill="none" stroke="black" d="M798.32,-165.86C612.72,-173.55 289.5,-201.76 289.5,-305 289.5,-305 289.5,-305 289.5,-739 289.5,-802.86 357.79,-840.41 415.16,-860.69"/>
<polygon fill="black" stroke="black" points="424.62,-863.92 413.7,-864.95 419.89,-862.31 415.16,-860.69 415.16,-860.69 415.16,-860.69 419.89,-862.31 416.61,-856.43 424.62,-863.92 424.62,-863.92"/>
</g>
<!-- ragger.navigator.touch_navigator&#45;&gt;ragger.navigator.navigator -->
<g id="edge72" class="edge">
<title>ragger.navigator.touch_navigator&#45;&gt;ragger.navigator.navigator</title>
<path fill="none" stroke="black" d="M922.87,-180.17C917.56,-220.73 909.21,-324.42 949.5,-396 956.23,-407.96 966.89,-418.07 977.88,-426.14"/>
<polygon fill="black" stroke="black" points="986.28,-431.91 975.49,-429.96 982.16,-429.08 978.04,-426.25 978.04,-426.25 978.04,-426.25 982.16,-429.08 980.59,-422.54 986.28,-431.91 986.28,-431.91"/>
</g>
<!-- ragger.pki -->
<g id="node35" class="node">
<title>ragger.pki</title>
<polygon fill="#ffaabb" stroke="#ffaabb" points="2740,-36 2651,-36 2651,0 2740,0 2740,-36"/>
<text text-anchor="middle" x="2695.5" y="-14.3" font-family="Times,serif" font-size="14.00">ragger.pki</text>
</g>
<!-- ragger.pki.signing_partner -->
<g id="node36" class="node">
<title>ragger.pki.signing_partner</title>
<polygon fill="#ffaabb" stroke="#ffaabb" points="2799,-108 2592,-108 2592,-72 2799,-72 2799,-108"/>
<text text-anchor="middle" x="2695.5" y="-86.3" font-family="Times,serif" font-size="14.00">ragger.pki.signing_partner</text>
</g>
<!-- ragger.pki&#45;&gt;ragger.pki.signing_partner -->
<g id="edge73" class="edge">
<title>ragger.pki&#45;&gt;ragger.pki.signing_partner</title>
<path fill="none" stroke="black" d="M2695.5,-36.3C2695.5,-44.02 2695.5,-53.29 2695.5,-61.89"/>
<polygon fill="black" stroke="black" points="2695.5,-71.9 2691,-61.9 2695.5,-66.9 2695.5,-61.9 2695.5,-61.9 2695.5,-61.9 2695.5,-66.9 2700,-61.9 2695.5,-71.9 2695.5,-71.9"/>
</g>
<!-- ragger.utils&#45;&gt;ragger.utils.misc -->
<g id="edge74" class="edge">
<title>ragger.utils&#45;&gt;ragger.utils.misc</title>
<path fill="none" stroke="black" d="M1131.77,-818.86C1072.8,-828.34 971.32,-845.14 874.34,-863.88"/>
<polygon fill="black" stroke="black" points="864.37,-865.82 873.33,-859.49 869.28,-864.86 874.19,-863.91 874.19,-863.91 874.19,-863.91 869.28,-864.86 875.04,-868.33 864.37,-865.82 864.37,-865.82"/>
</g>
<!-- ragger.utils.packing -->
<g id="node40" class="node">
<title>ragger.utils.packing</title>
<polygon fill="#dddddd" stroke="#dddddd" points="1255,-900 1096,-900 1096,-864 1255,-864 1255,-900"/>
<text text-anchor="middle" x="1175.5" y="-878.3" font-family="Times,serif" font-size="14.00">ragger.utils.packing</text>
</g>
<!-- ragger.utils&#45;&gt;ragger.utils.packing -->
<g id="edge75" class="edge">
<title>ragger.utils&#45;&gt;ragger.utils.packing</title>
<path fill="none" stroke="black" d="M1180.02,-828.3C1179.36,-836.02 1178.56,-845.29 1177.82,-853.89"/>
<polygon fill="black" stroke="black" points="1176.97,-863.9 1173.34,-853.55 1177.39,-858.91 1177.82,-853.93 1177.82,-853.93 1177.82,-853.93 1177.39,-858.91 1182.3,-854.32 1176.97,-863.9 1176.97,-863.9"/>
</g>
<!-- ragger.utils&#45;&gt;ragger.utils.structs -->
<g id="edge76" class="edge">
<title>ragger.utils&#45;&gt;ragger.utils.structs</title>
<path fill="none" stroke="black" d="M1231.1,-827.86C1260.11,-837.71 1296.92,-850.22 1327.55,-860.63"/>
<polygon fill="black" stroke="black" points="1337.25,-863.93 1326.34,-864.97 1332.52,-862.32 1327.79,-860.71 1327.79,-860.71 1327.79,-860.71 1332.52,-862.32 1329.23,-856.45 1337.25,-863.93 1337.25,-863.93"/>
</g>
<!-- ragger.utils.coverage&#45;&gt;ragger.logger -->
<g id="edge77" class="edge">
<title>ragger.utils.coverage&#45;&gt;ragger.logger</title>
<path fill="none" stroke="black" d="M1929.12,-756.03C1936.77,-788.38 1947.96,-859.15 1912.5,-900 1889.89,-926.05 1800.59,-940.27 1737.06,-947.25"/>
<polygon fill="black" stroke="black" points="1727.1,-948.31 1736.57,-942.77 1732.07,-947.78 1737.04,-947.25 1737.04,-947.25 1737.04,-947.25 1732.07,-947.78 1737.52,-951.72 1727.1,-948.31 1727.1,-948.31"/>
</g>
<!-- ragger.utils.misc&#45;&gt;ragger.error -->
<g id="edge78" class="edge">
<title>ragger.utils.misc&#45;&gt;ragger.error</title>
<path fill="none" stroke="black" d="M795.5,-900.3C795.5,-908.02 795.5,-917.29 795.5,-925.89"/>
<polygon fill="black" stroke="black" points="795.5,-935.9 791,-925.9 795.5,-930.9 795.5,-925.9 795.5,-925.9 795.5,-925.9 795.5,-930.9 800,-925.9 795.5,-935.9 795.5,-935.9"/>
</g>
</g>
</svg>
