<?xml version="1.0" encoding="UTF-8" standalone="no"?>
<!DOCTYPE svg PUBLIC "-//W3C//DTD SVG 1.1//EN"
 "http://www.w3.org/Graphics/SVG/1.1/DTD/svg11.dtd">
<!-- Generated by graphviz version 2.43.0 (0)
 -->
<!-- Title: packages_generated_ragger_architecture Pages: 1 -->
<svg width="1201pt" height="620pt"
 viewBox="0.00 0.00 1201.00 620.00" xmlns="http://www.w3.org/2000/svg" xmlns:xlink="http://www.w3.org/1999/xlink">
<g id="graph0" class="graph" transform="scale(1 1) rotate(0) translate(4 616)">
<title>packages_generated_ragger_architecture</title>
<polygon fill="white" stroke="transparent" points="-4,4 -4,-616 1197,-616 1197,4 -4,4"/>
<!-- ragger -->
<g id="node1" class="node">
<title>ragger</title>
<polygon fill="aliceblue" stroke="aliceblue" points="578,-396 513,-396 513,-360 578,-360 578,-396"/>
<text text-anchor="middle" x="545.5" y="-374.3" font-family="Times,serif" font-size="14.00">ragger</text>
</g>
<!-- ragger.error -->
<g id="node12" class="node">
<title>ragger.error</title>
<polygon fill="aliceblue" stroke="aliceblue" points="556.5,-468 452.5,-468 452.5,-432 556.5,-432 556.5,-468"/>
<text text-anchor="middle" x="504.5" y="-446.3" font-family="Times,serif" font-size="14.00">ragger.error</text>
</g>
<!-- ragger&#45;&gt;ragger.error -->
<g id="edge1" class="edge">
<title>ragger&#45;&gt;ragger.error</title>
<path fill="none" stroke="black" d="M535.37,-396.3C530.65,-404.36 524.94,-414.11 519.72,-423.02"/>
<polygon fill="black" stroke="black" points="514.52,-431.9 515.69,-420.99 517.05,-427.58 519.57,-423.27 519.57,-423.27 519.57,-423.27 517.05,-427.58 523.46,-425.54 514.52,-431.9 514.52,-431.9"/>
</g>
<!-- ragger.firmware -->
<g id="node13" class="node">
<title>ragger.firmware</title>
<polygon fill="burlywood" stroke="burlywood" points="1068.5,-468 936.5,-468 936.5,-432 1068.5,-432 1068.5,-468"/>
<text text-anchor="middle" x="1002.5" y="-446.3" font-family="Times,serif" font-size="14.00">ragger.firmware</text>
</g>
<!-- ragger&#45;&gt;ragger.firmware -->
<g id="edge2" class="edge">
<title>ragger&#45;&gt;ragger.firmware</title>
<path fill="none" stroke="black" d="M578.37,-384.03C650.59,-395.1 824.73,-421.77 925.99,-437.28"/>
<polygon fill="black" stroke="black" points="936.16,-438.84 925.6,-441.77 931.22,-438.08 926.28,-437.32 926.28,-437.32 926.28,-437.32 931.22,-438.08 926.96,-432.88 936.16,-438.84 936.16,-438.84"/>
</g>
<!-- ragger.utils -->
<g id="node19" class="node">
<title>ragger.utils</title>
<polygon fill="chartreuse" stroke="chartreuse" points="706,-468 607,-468 607,-432 706,-432 706,-468"/>
<text text-anchor="middle" x="656.5" y="-446.3" font-family="Times,serif" font-size="14.00">ragger.utils</text>
</g>
<!-- ragger&#45;&gt;ragger.utils -->
<g id="edge3" class="edge">
<title>ragger&#45;&gt;ragger.utils</title>
<path fill="none" stroke="black" d="M572.65,-396.12C587.03,-405.19 604.88,-416.45 620.41,-426.24"/>
<polygon fill="black" stroke="black" points="629.24,-431.81 618.38,-430.28 625.01,-429.14 620.78,-426.48 620.78,-426.48 620.78,-426.48 625.01,-429.14 623.18,-422.67 629.24,-431.81 629.24,-431.81"/>
</g>
<!-- ragger.backend -->
<g id="node2" class="node">
<title>ragger.backend</title>
<polygon fill="antiquewhite" stroke="antiquewhite" points="880,-252 753,-252 753,-216 880,-216 880,-252"/>
<text text-anchor="middle" x="816.5" y="-230.3" font-family="Times,serif" font-size="14.00">ragger.backend</text>
</g>
<!-- ragger.backend.interface -->
<g id="node3" class="node">
<title>ragger.backend.interface</title>
<polygon fill="antiquewhite" stroke="antiquewhite" points="867,-396 672,-396 672,-360 867,-360 867,-396"/>
<text text-anchor="middle" x="769.5" y="-374.3" font-family="Times,serif" font-size="14.00">ragger.backend.interface</text>
</g>
<!-- ragger.backend&#45;&gt;ragger.backend.interface -->
<g id="edge4" class="edge">
<title>ragger.backend&#45;&gt;ragger.backend.interface</title>
<path fill="none" stroke="black" d="M880.11,-243.94C906.79,-251.18 935.33,-264.28 951.5,-288 960.51,-301.22 961.1,-311.2 951.5,-324 941.3,-337.6 909.69,-348.85 875.62,-357.44"/>
<polygon fill="black" stroke="black" points="865.48,-359.9 874.13,-353.17 870.34,-358.72 875.19,-357.54 875.19,-357.54 875.19,-357.54 870.34,-358.72 876.26,-361.91 865.48,-359.9 865.48,-359.9"/>
</g>
<!-- ragger.backend.ledgercomm -->
<g id="node4" class="node">
<title>ragger.backend.ledgercomm</title>
<polygon fill="antiquewhite" stroke="antiquewhite" points="924.5,-324 704.5,-324 704.5,-288 924.5,-288 924.5,-324"/>
<text text-anchor="middle" x="814.5" y="-302.3" font-family="Times,serif" font-size="14.00">ragger.backend.ledgercomm</text>
</g>
<!-- ragger.backend&#45;&gt;ragger.backend.ledgercomm -->
<g id="edge5" class="edge">
<title>ragger.backend&#45;&gt;ragger.backend.ledgercomm</title>
<path fill="none" stroke="black" d="M816.01,-252.3C815.79,-260.02 815.52,-269.29 815.27,-277.89"/>
<polygon fill="black" stroke="black" points="814.99,-287.9 810.78,-277.77 815.13,-282.9 815.27,-277.9 815.27,-277.9 815.27,-277.9 815.13,-282.9 819.77,-278.03 814.99,-287.9 814.99,-287.9"/>
</g>
<!-- ragger.backend.ledgerwallet -->
<g id="node5" class="node">
<title>ragger.backend.ledgerwallet</title>
<polygon fill="antiquewhite" stroke="antiquewhite" points="475,-324 254,-324 254,-288 475,-288 475,-324"/>
<text text-anchor="middle" x="364.5" y="-302.3" font-family="Times,serif" font-size="14.00">ragger.backend.ledgerwallet</text>
</g>
<!-- ragger.backend&#45;&gt;ragger.backend.ledgerwallet -->
<g id="edge6" class="edge">
<title>ragger.backend&#45;&gt;ragger.backend.ledgerwallet</title>
<path fill="none" stroke="black" d="M752.7,-244.88C683.29,-255.63 570.75,-273.06 484.67,-286.39"/>
<polygon fill="black" stroke="black" points="474.58,-287.95 483.77,-281.98 479.52,-287.19 484.46,-286.42 484.46,-286.42 484.46,-286.42 479.52,-287.19 485.15,-290.87 474.58,-287.95 474.58,-287.95"/>
</g>
<!-- ragger.backend.speculos -->
<g id="node6" class="node">
<title>ragger.backend.speculos</title>
<polygon fill="antiquewhite" stroke="antiquewhite" points="686,-324 493,-324 493,-288 686,-288 686,-324"/>
<text text-anchor="middle" x="589.5" y="-302.3" font-family="Times,serif" font-size="14.00">ragger.backend.speculos</text>
</g>
<!-- ragger.backend&#45;&gt;ragger.backend.speculos -->
<g id="edge7" class="edge">
<title>ragger.backend&#45;&gt;ragger.backend.speculos</title>
<path fill="none" stroke="black" d="M761.26,-252.03C729.13,-261.94 688.45,-274.49 654.75,-284.88"/>
<polygon fill="black" stroke="black" points="644.99,-287.89 653.22,-280.64 649.77,-286.42 654.54,-284.94 654.54,-284.94 654.54,-284.94 649.77,-286.42 655.87,-289.24 644.99,-287.89 644.99,-287.89"/>
</g>
<!-- ragger.backend.interface&#45;&gt;ragger.firmware -->
<g id="edge8" class="edge">
<title>ragger.backend.interface&#45;&gt;ragger.firmware</title>
<path fill="none" stroke="black" d="M826.2,-396.03C859.18,-405.94 900.93,-418.49 935.53,-428.88"/>
<polygon fill="black" stroke="black" points="945.55,-431.89 934.67,-433.32 940.76,-430.45 935.97,-429.01 935.97,-429.01 935.97,-429.01 940.76,-430.45 937.26,-424.7 945.55,-431.89 945.55,-431.89"/>
</g>
<!-- ragger.backend.interface&#45;&gt;ragger.utils -->
<g id="edge9" class="edge">
<title>ragger.backend.interface&#45;&gt;ragger.utils</title>
<path fill="none" stroke="black" d="M741.86,-396.12C727.08,-405.28 708.71,-416.66 692.8,-426.52"/>
<polygon fill="black" stroke="black" points="684.25,-431.81 690.38,-422.72 688.5,-429.18 692.75,-426.54 692.75,-426.54 692.75,-426.54 688.5,-429.18 695.12,-430.37 684.25,-431.81 684.25,-431.81"/>
</g>
<!-- ragger.backend.ledgercomm&#45;&gt;ragger -->
<g id="edge10" class="edge">
<title>ragger.backend.ledgercomm&#45;&gt;ragger</title>
<path fill="none" stroke="black" d="M733.51,-324.03C691.19,-333.51 638.72,-346.17 592.5,-360 591.05,-360.44 589.57,-360.89 588.08,-361.36"/>
<polygon fill="black" stroke="black" points="578.21,-364.63 586.29,-357.22 582.96,-363.06 587.7,-361.49 587.7,-361.49 587.7,-361.49 582.96,-363.06 589.12,-365.76 578.21,-364.63 578.21,-364.63"/>
</g>
<!-- ragger.backend.ledgercomm&#45;&gt;ragger.backend.interface -->
<g id="edge11" class="edge">
<title>ragger.backend.ledgercomm&#45;&gt;ragger.backend.interface</title>
<path fill="none" stroke="black" d="M803.38,-324.3C798.14,-332.44 791.8,-342.31 786.02,-351.3"/>
<polygon fill="black" stroke="black" points="780.5,-359.9 782.12,-349.05 783.2,-355.69 785.9,-351.48 785.9,-351.48 785.9,-351.48 783.2,-355.69 789.69,-353.92 780.5,-359.9 780.5,-359.9"/>
</g>
<!-- ragger.backend.ledgercomm&#45;&gt;ragger.backend.ledgercomm -->
<g id="edge12" class="edge">
<title>ragger.backend.ledgercomm&#45;&gt;ragger.backend.ledgercomm</title>
<path fill="none" stroke="black" d="M924.65,-294.99C935.56,-297.2 942.5,-300.87 942.5,-306 942.5,-309.37 939.51,-312.11 934.37,-314.21"/>
<polygon fill="black" stroke="black" points="924.65,-317.01 933.02,-309.92 929.46,-315.63 934.26,-314.25 934.26,-314.25 934.26,-314.25 929.46,-315.63 935.51,-318.57 924.65,-317.01 924.65,-317.01"/>
</g>
<!-- ragger.backend.ledgercomm&#45;&gt;ragger.error -->
<g id="edge13" class="edge">
<title>ragger.backend.ledgercomm&#45;&gt;ragger.error</title>
<path fill="none" stroke="black" d="M758.73,-324.02C729.84,-333.47 694.27,-346.11 663.5,-360 619.8,-379.72 572.12,-407.28 540.49,-426.49"/>
<polygon fill="black" stroke="black" points="531.61,-431.92 537.79,-422.86 535.88,-429.31 540.14,-426.7 540.14,-426.7 540.14,-426.7 535.88,-429.31 542.49,-430.54 531.61,-431.92 531.61,-431.92"/>
</g>
<!-- ragger.backend.ledgercomm&#45;&gt;ragger.firmware -->
<g id="edge14" class="edge">
<title>ragger.backend.ledgercomm&#45;&gt;ragger.firmware</title>
<path fill="none" stroke="black" d="M841.26,-324.06C856.77,-334.16 876.52,-347.41 893.5,-360 921.87,-381.03 952.95,-406.68 974.64,-425.03"/>
<polygon fill="black" stroke="black" points="982.46,-431.69 971.93,-428.64 978.65,-428.45 974.84,-425.21 974.84,-425.21 974.84,-425.21 978.65,-428.45 977.76,-421.78 982.46,-431.69 982.46,-431.69"/>
</g>
<!-- ragger.backend.ledgercomm&#45;&gt;ragger.utils -->
<g id="edge15" class="edge">
<title>ragger.backend.ledgercomm&#45;&gt;ragger.utils</title>
<path fill="none" stroke="black" d="M844,-324.06C856.48,-333.01 869.69,-345.21 876.5,-360 883.2,-374.53 886.4,-383.43 876.5,-396 856.86,-420.93 774.4,-435.5 716.22,-442.86"/>
<polygon fill="black" stroke="black" points="706.03,-444.11 715.4,-438.43 710.99,-443.5 715.95,-442.89 715.95,-442.89 715.95,-442.89 710.99,-443.5 716.5,-447.36 706.03,-444.11 706.03,-444.11"/>
</g>
<!-- ragger.backend.ledgerwallet&#45;&gt;ragger -->
<g id="edge16" class="edge">
<title>ragger.backend.ledgerwallet&#45;&gt;ragger</title>
<path fill="none" stroke="black" d="M408.78,-324.12C437.52,-335.24 474.76,-349.64 503.12,-360.61"/>
<polygon fill="black" stroke="black" points="512.75,-364.33 501.8,-364.92 508.09,-362.53 503.42,-360.73 503.42,-360.73 503.42,-360.73 508.09,-362.53 505.05,-356.53 512.75,-364.33 512.75,-364.33"/>
</g>
<!-- ragger.backend.ledgerwallet&#45;&gt;ragger.backend.interface -->
<g id="edge17" class="edge">
<title>ragger.backend.ledgerwallet&#45;&gt;ragger.backend.interface</title>
<path fill="none" stroke="black" d="M463.06,-324.03C523.16,-334.42 600.03,-347.71 661.75,-358.38"/>
<polygon fill="black" stroke="black" points="671.91,-360.13 661.29,-362.86 666.98,-359.28 662.05,-358.43 662.05,-358.43 662.05,-358.43 666.98,-359.28 662.82,-353.99 671.91,-360.13 671.91,-360.13"/>
</g>
<!-- ragger.backend.ledgerwallet&#45;&gt;ragger.error -->
<g id="edge18" class="edge">
<title>ragger.backend.ledgerwallet&#45;&gt;ragger.error</title>
<path fill="none" stroke="black" d="M372.69,-324.29C382.38,-343.44 399.95,-374.48 421.5,-396 433.21,-407.69 447.93,-418.12 461.71,-426.57"/>
<polygon fill="black" stroke="black" points="470.59,-431.83 459.69,-430.6 466.29,-429.28 461.99,-426.73 461.99,-426.73 461.99,-426.73 466.29,-429.28 464.28,-422.86 470.59,-431.83 470.59,-431.83"/>
</g>
<!-- ragger.backend.ledgerwallet&#45;&gt;ragger.utils -->
<g id="edge19" class="edge">
<title>ragger.backend.ledgerwallet&#45;&gt;ragger.utils</title>
<path fill="none" stroke="black" d="M387.8,-324.19C414.82,-343.55 461.21,-375.04 504.5,-396 533.98,-410.27 568.32,-422.58 596.89,-431.74"/>
<polygon fill="black" stroke="black" points="606.74,-434.84 595.85,-436.13 601.97,-433.34 597.2,-431.84 597.2,-431.84 597.2,-431.84 601.97,-433.34 598.56,-427.54 606.74,-434.84 606.74,-434.84"/>
</g>
<!-- ragger.backend.speculos&#45;&gt;ragger -->
<g id="edge20" class="edge">
<title>ragger.backend.speculos&#45;&gt;ragger</title>
<path fill="none" stroke="black" d="M578.62,-324.3C573.51,-332.44 567.3,-342.31 561.66,-351.3"/>
<polygon fill="black" stroke="black" points="556.25,-359.9 557.76,-349.03 558.91,-355.66 561.57,-351.43 561.57,-351.43 561.57,-351.43 558.91,-355.66 565.38,-353.82 556.25,-359.9 556.25,-359.9"/>
</g>
<!-- ragger.backend.speculos&#45;&gt;ragger.backend.interface -->
<g id="edge21" class="edge">
<title>ragger.backend.speculos&#45;&gt;ragger.backend.interface</title>
<path fill="none" stroke="black" d="M633.53,-324.12C658.47,-333.82 689.84,-346.02 716.16,-356.26"/>
<polygon fill="black" stroke="black" points="725.61,-359.93 714.66,-360.5 720.95,-358.12 716.29,-356.31 716.29,-356.31 716.29,-356.31 720.95,-358.12 717.92,-352.11 725.61,-359.93 725.61,-359.93"/>
</g>
<!-- ragger.backend.speculos&#45;&gt;ragger.error -->
<g id="edge22" class="edge">
<title>ragger.backend.speculos&#45;&gt;ragger.error</title>
<path fill="none" stroke="black" d="M544.47,-324.14C528.95,-332.47 513.28,-344.19 504.5,-360 494.11,-378.72 494.97,-403.25 497.94,-421.82"/>
<polygon fill="black" stroke="black" points="499.81,-431.71 493.53,-422.72 498.88,-426.79 497.95,-421.88 497.95,-421.88 497.95,-421.88 498.88,-426.79 502.38,-421.05 499.81,-431.71 499.81,-431.71"/>
</g>
<!-- ragger.backend.speculos&#45;&gt;ragger.firmware -->
<g id="edge23" class="edge">
<title>ragger.backend.speculos&#45;&gt;ragger.firmware</title>
<path fill="none" stroke="black" d="M686.22,-323.32C766.2,-337.06 868.02,-355.22 876.5,-360 895.15,-370.51 891.84,-382.56 908.5,-396 923.13,-407.8 940.72,-418.49 956.72,-427.13"/>
<polygon fill="black" stroke="black" points="965.92,-431.97 954.97,-431.29 961.49,-429.64 957.07,-427.31 957.07,-427.31 957.07,-427.31 961.49,-429.64 959.16,-423.33 965.92,-431.97 965.92,-431.97"/>
</g>
<!-- ragger.backend.speculos&#45;&gt;ragger.utils -->
<g id="edge24" class="edge">
<title>ragger.backend.speculos&#45;&gt;ragger.utils</title>
<path fill="none" stroke="black" d="M597.58,-324.13C609.15,-348.65 630.53,-393.97 644.11,-422.74"/>
<polygon fill="black" stroke="black" points="648.39,-431.81 640.05,-424.69 646.26,-427.29 644.12,-422.77 644.12,-422.77 644.12,-422.77 646.26,-427.29 648.19,-420.85 648.39,-431.81 648.39,-431.81"/>
</g>
<!-- ragger.bip -->
<g id="node7" class="node">
<title>ragger.bip</title>
<polygon fill="aquamarine" stroke="aquamarine" points="216.5,-252 126.5,-252 126.5,-216 216.5,-216 216.5,-252"/>
<text text-anchor="middle" x="171.5" y="-230.3" font-family="Times,serif" font-size="14.00">ragger.bip</text>
</g>
<!-- ragger.bip.seed -->
<g id="node10" class="node">
<title>ragger.bip.seed</title>
<polygon fill="aquamarine" stroke="aquamarine" points="235.5,-324 107.5,-324 107.5,-288 235.5,-288 235.5,-324"/>
<text text-anchor="middle" x="171.5" y="-302.3" font-family="Times,serif" font-size="14.00">ragger.bip.seed</text>
</g>
<!-- ragger.bip&#45;&gt;ragger.bip.seed -->
<g id="edge25" class="edge">
<title>ragger.bip&#45;&gt;ragger.bip.seed</title>
<path fill="none" stroke="black" d="M171.5,-252.3C171.5,-260.02 171.5,-269.29 171.5,-277.89"/>
<polygon fill="black" stroke="black" points="171.5,-287.9 167,-277.9 171.5,-282.9 171.5,-277.9 171.5,-277.9 171.5,-277.9 171.5,-282.9 176,-277.9 171.5,-287.9 171.5,-287.9"/>
</g>
<!-- ragger.bip.coins -->
<g id="node8" class="node">
<title>ragger.bip.coins</title>
<polygon fill="aquamarine" stroke="aquamarine" points="276,-396 145,-396 145,-360 276,-360 276,-396"/>
<text text-anchor="middle" x="210.5" y="-374.3" font-family="Times,serif" font-size="14.00">ragger.bip.coins</text>
</g>
<!-- ragger.bip.utils -->
<g id="node11" class="node">
<title>ragger.bip.utils</title>
<polygon fill="aquamarine" stroke="aquamarine" points="200.5,-468 74.5,-468 74.5,-432 200.5,-432 200.5,-468"/>
<text text-anchor="middle" x="137.5" y="-446.3" font-family="Times,serif" font-size="14.00">ragger.bip.utils</text>
</g>
<!-- ragger.bip.coins&#45;&gt;ragger.bip.utils -->
<g id="edge26" class="edge">
<title>ragger.bip.coins&#45;&gt;ragger.bip.utils</title>
<path fill="none" stroke="black" d="M192.46,-396.3C183.44,-404.95 172.38,-415.55 162.56,-424.97"/>
<polygon fill="black" stroke="black" points="155.34,-431.9 159.44,-421.73 158.95,-428.44 162.56,-424.97 162.56,-424.97 162.56,-424.97 158.95,-428.44 165.67,-428.22 155.34,-431.9 155.34,-431.9"/>
</g>
<!-- ragger.bip.path -->
<g id="node9" class="node">
<title>ragger.bip.path</title>
<polygon fill="aquamarine" stroke="aquamarine" points="127,-396 0,-396 0,-360 127,-360 127,-396"/>
<text text-anchor="middle" x="63.5" y="-374.3" font-family="Times,serif" font-size="14.00">ragger.bip.path</text>
</g>
<!-- ragger.bip.path&#45;&gt;ragger.bip.utils -->
<g id="edge27" class="edge">
<title>ragger.bip.path&#45;&gt;ragger.bip.utils</title>
<path fill="none" stroke="black" d="M81.79,-396.3C90.93,-404.95 102.14,-415.55 112.1,-424.97"/>
<polygon fill="black" stroke="black" points="119.42,-431.9 109.06,-428.29 115.79,-428.46 112.15,-425.02 112.15,-425.02 112.15,-425.02 115.79,-428.46 115.25,-421.75 119.42,-431.9 119.42,-431.9"/>
</g>
<!-- ragger.bip.seed&#45;&gt;ragger -->
<g id="edge28" class="edge">
<title>ragger.bip.seed&#45;&gt;ragger</title>
<path fill="none" stroke="black" d="M235.63,-321.94C238.97,-322.65 242.27,-323.34 245.5,-324 336.94,-342.57 444.81,-360.71 503.05,-370.2"/>
<polygon fill="black" stroke="black" points="512.99,-371.81 502.4,-374.65 508.05,-371.01 503.12,-370.21 503.12,-370.21 503.12,-370.21 508.05,-371.01 503.84,-365.77 512.99,-371.81 512.99,-371.81"/>
</g>
<!-- ragger.bip.seed&#45;&gt;ragger.bip.coins -->
<g id="edge29" class="edge">
<title>ragger.bip.seed&#45;&gt;ragger.bip.coins</title>
<path fill="none" stroke="black" d="M181.14,-324.3C185.63,-332.36 191.06,-342.11 196.02,-351.02"/>
<polygon fill="black" stroke="black" points="200.97,-359.9 192.17,-353.35 198.54,-355.53 196.1,-351.16 196.1,-351.16 196.1,-351.16 198.54,-355.53 200.03,-348.97 200.97,-359.9 200.97,-359.9"/>
</g>
<!-- ragger.bip.seed&#45;&gt;ragger.bip.path -->
<g id="edge30" class="edge">
<title>ragger.bip.seed&#45;&gt;ragger.bip.path</title>
<path fill="none" stroke="black" d="M145.08,-324.12C131.09,-333.19 113.72,-344.45 98.61,-354.24"/>
<polygon fill="black" stroke="black" points="90.02,-359.81 95.97,-350.6 94.22,-357.09 98.41,-354.37 98.41,-354.37 98.41,-354.37 94.22,-357.09 100.86,-358.15 90.02,-359.81 90.02,-359.81"/>
</g>
<!-- ragger.firmware.structs -->
<g id="node14" class="node">
<title>ragger.firmware.structs</title>
<polygon fill="burlywood" stroke="burlywood" points="1193,-540 1006,-540 1006,-504 1193,-504 1193,-540"/>
<text text-anchor="middle" x="1099.5" y="-518.3" font-family="Times,serif" font-size="14.00">ragger.firmware.structs</text>
</g>
<!-- ragger.firmware&#45;&gt;ragger.firmware.structs -->
<g id="edge31" class="edge">
<title>ragger.firmware&#45;&gt;ragger.firmware.structs</title>
<path fill="none" stroke="black" d="M1026.48,-468.3C1038.81,-477.2 1054.02,-488.18 1067.35,-497.8"/>
<polygon fill="black" stroke="black" points="1075.8,-503.9 1065.06,-501.69 1071.74,-500.97 1067.69,-498.04 1067.69,-498.04 1067.69,-498.04 1071.74,-500.97 1070.32,-494.39 1075.8,-503.9 1075.8,-503.9"/>
</g>
<!-- ragger.firmware.versions -->
<g id="node15" class="node">
<title>ragger.firmware.versions</title>
<polygon fill="burlywood" stroke="burlywood" points="1137,-612 940,-612 940,-576 1137,-576 1137,-612"/>
<text text-anchor="middle" x="1038.5" y="-590.3" font-family="Times,serif" font-size="14.00">ragger.firmware.versions</text>
</g>
<!-- ragger.firmware&#45;&gt;ragger.firmware.versions -->
<g id="edge32" class="edge">
<title>ragger.firmware&#45;&gt;ragger.firmware.versions</title>
<path fill="none" stroke="black" d="M997.77,-468.25C993.6,-486.57 989.34,-516.13 997.5,-540 1000.94,-550.07 1007.16,-559.72 1013.73,-567.95"/>
<polygon fill="black" stroke="black" points="1020.33,-575.68 1010.42,-571 1017.08,-571.88 1013.84,-568.07 1013.84,-568.07 1013.84,-568.07 1017.08,-571.88 1017.26,-565.15 1020.33,-575.68 1020.33,-575.68"/>
</g>
<!-- ragger.firmware.structs&#45;&gt;ragger.firmware.versions -->
<g id="edge33" class="edge">
<title>ragger.firmware.structs&#45;&gt;ragger.firmware.versions</title>
<path fill="none" stroke="black" d="M1084.42,-540.3C1077.11,-548.7 1068.19,-558.93 1060.16,-568.14"/>
<polygon fill="black" stroke="black" points="1053.41,-575.9 1056.58,-565.4 1056.69,-572.13 1059.98,-568.36 1059.98,-568.36 1059.98,-568.36 1056.69,-572.13 1063.37,-571.31 1053.41,-575.9 1053.41,-575.9"/>
</g>
<!-- ragger.navigator -->
<g id="node16" class="node">
<title>ragger.navigator</title>
<polygon fill="cadetblue" stroke="cadetblue" points="1029.5,-36 893.5,-36 893.5,0 1029.5,0 1029.5,-36"/>
<text text-anchor="middle" x="961.5" y="-14.3" font-family="Times,serif" font-size="14.00">ragger.navigator</text>
</g>
<!-- ragger.navigator.nano_navigator -->
<g id="node17" class="node">
<title>ragger.navigator.nano_navigator</title>
<polygon fill="cadetblue" stroke="cadetblue" points="1009.5,-108 761.5,-108 761.5,-72 1009.5,-72 1009.5,-108"/>
<text text-anchor="middle" x="885.5" y="-86.3" font-family="Times,serif" font-size="14.00">ragger.navigator.nano_navigator</text>
</g>
<!-- ragger.navigator&#45;&gt;ragger.navigator.nano_navigator -->
<g id="edge34" class="edge">
<title>ragger.navigator&#45;&gt;ragger.navigator.nano_navigator</title>
<path fill="none" stroke="black" d="M942.71,-36.3C933.33,-44.95 921.82,-55.55 911.59,-64.97"/>
<polygon fill="black" stroke="black" points="904.07,-71.9 908.38,-61.81 907.75,-68.51 911.43,-65.12 911.43,-65.12 911.43,-65.12 907.75,-68.51 914.47,-68.43 904.07,-71.9 904.07,-71.9"/>
</g>
<!-- ragger.navigator.navigator -->
<g id="node18" class="node">
<title>ragger.navigator.navigator</title>
<polygon fill="cadetblue" stroke="cadetblue" points="1056,-180 849,-180 849,-144 1056,-144 1056,-180"/>
<text text-anchor="middle" x="952.5" y="-158.3" font-family="Times,serif" font-size="14.00">ragger.navigator.navigator</text>
</g>
<!-- ragger.navigator&#45;&gt;ragger.navigator.navigator -->
<g id="edge35" class="edge">
<title>ragger.navigator&#45;&gt;ragger.navigator.navigator</title>
<path fill="none" stroke="black" d="M988.08,-36.09C999.74,-45.19 1012.19,-57.51 1018.5,-72 1024.89,-86.67 1025.42,-93.57 1018.5,-108 1012.83,-119.82 1003.11,-129.83 992.84,-137.86"/>
<polygon fill="black" stroke="black" points="984.55,-143.88 990,-134.36 988.6,-140.94 992.65,-138 992.65,-138 992.65,-138 988.6,-140.94 995.29,-141.65 984.55,-143.88 984.55,-143.88"/>
</g>
<!-- ragger.navigator.nano_navigator&#45;&gt;ragger.backend -->
<g id="edge36" class="edge">
<title>ragger.navigator.nano_navigator&#45;&gt;ragger.backend</title>
<path fill="none" stroke="black" d="M867.5,-108.17C858.24,-117.9 847.46,-130.75 840.5,-144 830.3,-163.42 824.14,-187.57 820.62,-205.81"/>
<polygon fill="black" stroke="black" points="818.84,-215.78 816.17,-205.15 819.72,-210.86 820.6,-205.94 820.6,-205.94 820.6,-205.94 819.72,-210.86 825.03,-206.73 818.84,-215.78 818.84,-215.78"/>
</g>
<!-- ragger.navigator.nano_navigator&#45;&gt;ragger.firmware -->
<g id="edge37" class="edge">
<title>ragger.navigator.nano_navigator&#45;&gt;ragger.firmware</title>
<path fill="none" stroke="black" d="M1008.86,-108.13C1030.1,-116.06 1050.22,-127.51 1065.5,-144 1092.99,-173.67 1084.5,-192.55 1084.5,-233 1084.5,-233 1084.5,-233 1084.5,-307 1084.5,-353.12 1051.66,-397.74 1027.54,-424.28"/>
<polygon fill="black" stroke="black" points="1020.7,-431.6 1024.25,-421.22 1024.11,-427.95 1027.53,-424.3 1027.53,-424.3 1027.53,-424.3 1024.11,-427.95 1030.82,-427.37 1020.7,-431.6 1020.7,-431.6"/>
</g>
<!-- ragger.navigator.nano_navigator&#45;&gt;ragger.navigator.navigator -->
<g id="edge38" class="edge">
<title>ragger.navigator.nano_navigator&#45;&gt;ragger.navigator.navigator</title>
<path fill="none" stroke="black" d="M902.06,-108.3C910.18,-116.78 920.09,-127.14 928.97,-136.42"/>
<polygon fill="black" stroke="black" points="936.13,-143.9 925.96,-139.78 932.67,-140.28 929.21,-136.67 929.21,-136.67 929.21,-136.67 932.67,-140.28 932.47,-133.56 936.13,-143.9 936.13,-143.9"/>
</g>
<!-- ragger.navigator.navigator&#45;&gt;ragger.backend -->
<g id="edge39" class="edge">
<title>ragger.navigator.navigator&#45;&gt;ragger.backend</title>
<path fill="none" stroke="black" d="M919.23,-180.12C901.04,-189.49 878.31,-201.19 858.86,-211.2"/>
<polygon fill="black" stroke="black" points="849.9,-215.81 856.73,-207.23 854.34,-213.52 858.79,-211.23 858.79,-211.23 858.79,-211.23 854.34,-213.52 860.85,-215.23 849.9,-215.81 849.9,-215.81"/>
</g>
<!-- ragger.navigator.navigator&#45;&gt;ragger.firmware -->
<g id="edge40" class="edge">
<title>ragger.navigator.navigator&#45;&gt;ragger.firmware</title>
<path fill="none" stroke="black" d="M987.18,-180.17C1000.81,-188.87 1014.97,-200.85 1022.5,-216 1056.36,-284.1 1029.95,-377.3 1013.35,-422.4"/>
<polygon fill="black" stroke="black" points="1009.79,-431.78 1009.14,-420.83 1011.56,-427.1 1013.34,-422.43 1013.34,-422.43 1013.34,-422.43 1011.56,-427.1 1017.55,-424.03 1009.79,-431.78 1009.79,-431.78"/>
</g>
<!-- ragger.navigator.navigator&#45;&gt;ragger.utils -->
<g id="edge41" class="edge">
<title>ragger.navigator.navigator&#45;&gt;ragger.utils</title>
<path fill="none" stroke="black" d="M959.49,-180.28C970.67,-210.68 989.32,-275.16 968.5,-324 950.38,-366.51 934.22,-374.15 893.5,-396 837.89,-425.84 766.28,-438.91 716.4,-444.61"/>
<polygon fill="black" stroke="black" points="706.41,-445.69 715.87,-440.14 711.38,-445.15 716.35,-444.61 716.35,-444.61 716.35,-444.61 711.38,-445.15 716.84,-449.09 706.41,-445.69 706.41,-445.69"/>
</g>
<!-- ragger.utils.misc -->
<g id="node20" class="node">
<title>ragger.utils.misc</title>
<polygon fill="chartreuse" stroke="chartreuse" points="399,-540 262,-540 262,-504 399,-504 399,-540"/>
<text text-anchor="middle" x="330.5" y="-518.3" font-family="Times,serif" font-size="14.00">ragger.utils.misc</text>
</g>
<!-- ragger.utils&#45;&gt;ragger.utils.misc -->
<g id="edge42" class="edge">
<title>ragger.utils&#45;&gt;ragger.utils.misc</title>
<path fill="none" stroke="black" d="M606.61,-461.6C558.67,-471.8 483.91,-487.74 409.43,-503.8"/>
<polygon fill="black" stroke="black" points="399.4,-505.97 408.23,-499.46 404.29,-504.91 409.18,-503.86 409.18,-503.86 409.18,-503.86 404.29,-504.91 410.12,-508.26 399.4,-505.97 399.4,-505.97"/>
</g>
<!-- ragger.utils.packing -->
<g id="node21" class="node">
<title>ragger.utils.packing</title>
<polygon fill="chartreuse" stroke="chartreuse" points="576,-540 417,-540 417,-504 576,-504 576,-540"/>
<text text-anchor="middle" x="496.5" y="-518.3" font-family="Times,serif" font-size="14.00">ragger.utils.packing</text>
</g>
<!-- ragger.utils&#45;&gt;ragger.utils.packing -->
<g id="edge43" class="edge">
<title>ragger.utils&#45;&gt;ragger.utils.packing</title>
<path fill="none" stroke="black" d="M617.36,-468.12C595.49,-477.69 568.04,-489.7 544.84,-499.85"/>
<polygon fill="black" stroke="black" points="535.51,-503.93 542.87,-495.8 540.09,-501.93 544.67,-499.92 544.67,-499.92 544.67,-499.92 540.09,-501.93 546.48,-504.05 535.51,-503.93 535.51,-503.93"/>
</g>
<!-- ragger.utils.path -->
<g id="node22" class="node">
<title>ragger.utils.path</title>
<polygon fill="chartreuse" stroke="chartreuse" points="730.5,-540 594.5,-540 594.5,-504 730.5,-504 730.5,-540"/>
<text text-anchor="middle" x="662.5" y="-518.3" font-family="Times,serif" font-size="14.00">ragger.utils.path</text>
</g>
<!-- ragger.utils&#45;&gt;ragger.utils.path -->
<g id="edge44" class="edge">
<title>ragger.utils&#45;&gt;ragger.utils.path</title>
<path fill="none" stroke="black" d="M657.98,-468.3C658.64,-476.02 659.44,-485.29 660.18,-493.89"/>
<polygon fill="black" stroke="black" points="661.03,-503.9 655.7,-494.32 660.61,-498.91 660.18,-493.93 660.18,-493.93 660.18,-493.93 660.61,-498.91 664.66,-493.55 661.03,-503.9 661.03,-503.9"/>
</g>
<!-- ragger.utils.structs -->
<g id="node23" class="node">
<title>ragger.utils.structs</title>
<polygon fill="chartreuse" stroke="chartreuse" points="902.5,-540 748.5,-540 748.5,-504 902.5,-504 902.5,-540"/>
<text text-anchor="middle" x="825.5" y="-518.3" font-family="Times,serif" font-size="14.00">ragger.utils.structs</text>
</g>
<!-- ragger.utils&#45;&gt;ragger.utils.structs -->
<g id="edge45" class="edge">
<title>ragger.utils&#45;&gt;ragger.utils.structs</title>
<path fill="none" stroke="black" d="M697.84,-468.12C721.05,-477.74 750.19,-489.81 774.77,-499.99"/>
<polygon fill="black" stroke="black" points="784.29,-503.93 773.33,-504.26 779.67,-502.02 775.05,-500.1 775.05,-500.1 775.05,-500.1 779.67,-502.02 776.78,-495.95 784.29,-503.93 784.29,-503.93"/>
</g>
</g>
</svg>
