<?xml version="1.0" encoding="UTF-8" standalone="no"?>
<!DOCTYPE svg PUBLIC "-//W3C//DTD SVG 1.1//EN"
 "http://www.w3.org/Graphics/SVG/1.1/DTD/svg11.dtd">
<!-- Generated by graphviz version 2.43.0 (0)
 -->
<!-- Title: packages_generated_ragger_architecture Pages: 1 -->
<svg width="1137pt" height="764pt"
 viewBox="0.00 0.00 1136.50 764.00" xmlns="http://www.w3.org/2000/svg" xmlns:xlink="http://www.w3.org/1999/xlink">
<g id="graph0" class="graph" transform="scale(1 1) rotate(0) translate(4 760)">
<title>packages_generated_ragger_architecture</title>
<polygon fill="white" stroke="transparent" points="-4,4 -4,-760 1132.5,-760 1132.5,4 -4,4"/>
<!-- ragger -->
<g id="node1" class="node">
<title>ragger</title>
<polygon fill="aliceblue" stroke="aliceblue" points="731,-540 666,-540 666,-504 731,-504 731,-540"/>
<text text-anchor="middle" x="698.5" y="-518.3" font-family="Times,serif" font-size="14.00">ragger</text>
</g>
<!-- ragger.backend -->
<g id="node2" class="node">
<title>ragger.backend</title>
<polygon fill="antiquewhite" stroke="antiquewhite" points="489,-396 362,-396 362,-360 489,-360 489,-396"/>
<text text-anchor="middle" x="425.5" y="-374.3" font-family="Times,serif" font-size="14.00">ragger.backend</text>
</g>
<!-- ragger.backend.interface -->
<g id="node3" class="node">
<title>ragger.backend.interface</title>
<polygon fill="antiquewhite" stroke="antiquewhite" points="525,-540 330,-540 330,-504 525,-504 525,-540"/>
<text text-anchor="middle" x="427.5" y="-518.3" font-family="Times,serif" font-size="14.00">ragger.backend.interface</text>
</g>
<!-- ragger.backend&#45;&gt;ragger.backend.interface -->
<g id="edge1" class="edge">
<title>ragger.backend&#45;&gt;ragger.backend.interface</title>
<path fill="none" stroke="black" d="M361.87,-387.69C299.07,-399.03 216.97,-422.96 250.5,-468 260.52,-481.47 291.94,-492.78 325.58,-501.45"/>
<polygon fill="black" stroke="black" points="335.59,-503.94 324.8,-505.89 330.74,-502.73 325.88,-501.53 325.88,-501.53 325.88,-501.53 330.74,-502.73 326.97,-497.16 335.59,-503.94 335.59,-503.94"/>
</g>
<!-- ragger.backend.ledgercomm -->
<g id="node4" class="node">
<title>ragger.backend.ledgercomm</title>
<polygon fill="antiquewhite" stroke="antiquewhite" points="930.5,-468 710.5,-468 710.5,-432 930.5,-432 930.5,-468"/>
<text text-anchor="middle" x="820.5" y="-446.3" font-family="Times,serif" font-size="14.00">ragger.backend.ledgercomm</text>
</g>
<!-- ragger.backend&#45;&gt;ragger.backend.ledgercomm -->
<g id="edge2" class="edge">
<title>ragger.backend&#45;&gt;ragger.backend.ledgercomm</title>
<path fill="none" stroke="black" d="M489.4,-390.32C550.09,-401.08 642.45,-417.45 714.22,-430.17"/>
<polygon fill="black" stroke="black" points="724.2,-431.94 713.57,-434.62 719.28,-431.06 714.36,-430.19 714.36,-430.19 714.36,-430.19 719.28,-431.06 715.14,-425.76 724.2,-431.94 724.2,-431.94"/>
</g>
<!-- ragger.backend.ledgerwallet -->
<g id="node5" class="node">
<title>ragger.backend.ledgerwallet</title>
<polygon fill="antiquewhite" stroke="antiquewhite" points="481,-468 260,-468 260,-432 481,-432 481,-468"/>
<text text-anchor="middle" x="370.5" y="-446.3" font-family="Times,serif" font-size="14.00">ragger.backend.ledgerwallet</text>
</g>
<!-- ragger.backend&#45;&gt;ragger.backend.ledgerwallet -->
<g id="edge3" class="edge">
<title>ragger.backend&#45;&gt;ragger.backend.ledgerwallet</title>
<path fill="none" stroke="black" d="M411.9,-396.3C405.38,-404.61 397.43,-414.72 390.25,-423.86"/>
<polygon fill="black" stroke="black" points="383.94,-431.9 386.58,-421.25 387.03,-427.96 390.12,-424.03 390.12,-424.03 390.12,-424.03 387.03,-427.96 393.66,-426.81 383.94,-431.9 383.94,-431.9"/>
</g>
<!-- ragger.backend.speculos -->
<g id="node6" class="node">
<title>ragger.backend.speculos</title>
<polygon fill="antiquewhite" stroke="antiquewhite" points="692,-468 499,-468 499,-432 692,-432 692,-468"/>
<text text-anchor="middle" x="595.5" y="-446.3" font-family="Times,serif" font-size="14.00">ragger.backend.speculos</text>
</g>
<!-- ragger.backend&#45;&gt;ragger.backend.speculos -->
<g id="edge4" class="edge">
<title>ragger.backend&#45;&gt;ragger.backend.speculos</title>
<path fill="none" stroke="black" d="M467.09,-396.12C490.53,-405.78 520,-417.91 544.8,-428.12"/>
<polygon fill="black" stroke="black" points="554.05,-431.93 543.09,-432.29 549.42,-430.03 544.8,-428.12 544.8,-428.12 544.8,-428.12 549.42,-430.03 546.51,-423.96 554.05,-431.93 554.05,-431.93"/>
</g>
<!-- ragger.firmware -->
<g id="node11" class="node">
<title>ragger.firmware</title>
<polygon fill="burlywood" stroke="burlywood" points="927.5,-612 795.5,-612 795.5,-576 927.5,-576 927.5,-612"/>
<text text-anchor="middle" x="861.5" y="-590.3" font-family="Times,serif" font-size="14.00">ragger.firmware</text>
</g>
<!-- ragger.backend.interface&#45;&gt;ragger.firmware -->
<g id="edge5" class="edge">
<title>ragger.backend.interface&#45;&gt;ragger.firmware</title>
<path fill="none" stroke="black" d="M525.17,-538.75C603.95,-551.46 713.19,-569.08 785.53,-580.75"/>
<polygon fill="black" stroke="black" points="795.49,-582.35 784.9,-585.2 790.55,-581.56 785.62,-580.76 785.62,-580.76 785.62,-580.76 790.55,-581.56 786.33,-576.32 795.49,-582.35 795.49,-582.35"/>
</g>
<!-- ragger.utils -->
<g id="node23" class="node">
<title>ragger.utils</title>
<polygon fill="chartreuse" stroke="chartreuse" points="352,-612 253,-612 253,-576 352,-576 352,-612"/>
<text text-anchor="middle" x="302.5" y="-590.3" font-family="Times,serif" font-size="14.00">ragger.utils</text>
</g>
<!-- ragger.backend.interface&#45;&gt;ragger.utils -->
<g id="edge6" class="edge">
<title>ragger.backend.interface&#45;&gt;ragger.utils</title>
<path fill="none" stroke="black" d="M396.92,-540.12C380.43,-549.36 359.88,-560.87 342.16,-570.79"/>
<polygon fill="black" stroke="black" points="333.2,-575.81 339.72,-567 337.56,-573.37 341.92,-570.92 341.92,-570.92 341.92,-570.92 337.56,-573.37 344.12,-574.85 333.2,-575.81 333.2,-575.81"/>
</g>
<!-- ragger.backend.ledgercomm&#45;&gt;ragger -->
<g id="edge7" class="edge">
<title>ragger.backend.ledgercomm&#45;&gt;ragger</title>
<path fill="none" stroke="black" d="M790.66,-468.12C774.56,-477.36 754.5,-488.87 737.21,-498.79"/>
<polygon fill="black" stroke="black" points="728.46,-503.81 734.89,-494.93 732.8,-501.32 737.13,-498.83 737.13,-498.83 737.13,-498.83 732.8,-501.32 739.37,-502.74 728.46,-503.81 728.46,-503.81"/>
</g>
<!-- ragger.backend.ledgercomm&#45;&gt;ragger.backend.interface -->
<g id="edge8" class="edge">
<title>ragger.backend.ledgercomm&#45;&gt;ragger.backend.interface</title>
<path fill="none" stroke="black" d="M724.86,-468.03C666.98,-478.34 593.08,-491.51 533.43,-502.13"/>
<polygon fill="black" stroke="black" points="523.22,-503.95 532.28,-497.77 528.15,-503.07 533.07,-502.2 533.07,-502.2 533.07,-502.2 528.15,-503.07 533.86,-506.63 523.22,-503.95 523.22,-503.95"/>
</g>
<!-- ragger.backend.ledgercomm&#45;&gt;ragger.backend.ledgercomm -->
<g id="edge9" class="edge">
<title>ragger.backend.ledgercomm&#45;&gt;ragger.backend.ledgercomm</title>
<path fill="none" stroke="black" d="M930.65,-438.99C941.56,-441.2 948.5,-444.87 948.5,-450 948.5,-453.37 945.51,-456.11 940.37,-458.21"/>
<polygon fill="black" stroke="black" points="930.65,-461.01 939.02,-453.92 935.46,-459.63 940.26,-458.25 940.26,-458.25 940.26,-458.25 935.46,-459.63 941.51,-462.57 930.65,-461.01 930.65,-461.01"/>
</g>
<!-- ragger.error -->
<g id="node10" class="node">
<title>ragger.error</title>
<polygon fill="aliceblue" stroke="aliceblue" points="647.5,-540 543.5,-540 543.5,-504 647.5,-504 647.5,-540"/>
<text text-anchor="middle" x="595.5" y="-518.3" font-family="Times,serif" font-size="14.00">ragger.error</text>
</g>
<!-- ragger.backend.ledgercomm&#45;&gt;ragger.error -->
<g id="edge10" class="edge">
<title>ragger.backend.ledgercomm&#45;&gt;ragger.error</title>
<path fill="none" stroke="black" d="M765.75,-468.03C733.07,-478.2 691.48,-491.14 657.58,-501.69"/>
<polygon fill="black" stroke="black" points="647.78,-504.73 656,-497.47 652.56,-503.25 657.33,-501.76 657.33,-501.76 657.33,-501.76 652.56,-503.25 658.67,-506.06 647.78,-504.73 647.78,-504.73"/>
</g>
<!-- ragger.backend.ledgercomm&#45;&gt;ragger.firmware -->
<g id="edge11" class="edge">
<title>ragger.backend.ledgercomm&#45;&gt;ragger.firmware</title>
<path fill="none" stroke="black" d="M825.45,-468.13C832.46,-492.44 845.38,-537.18 853.7,-565.99"/>
<polygon fill="black" stroke="black" points="856.54,-575.81 849.44,-567.45 855.15,-571.01 853.76,-566.2 853.76,-566.2 853.76,-566.2 855.15,-571.01 858.09,-564.95 856.54,-575.81 856.54,-575.81"/>
</g>
<!-- ragger.backend.ledgercomm&#45;&gt;ragger.utils -->
<g id="edge12" class="edge">
<title>ragger.backend.ledgercomm&#45;&gt;ragger.utils</title>
<path fill="none" stroke="black" d="M810.37,-468.13C797.02,-489.01 771.43,-523.52 739.5,-540 675.09,-573.25 466.21,-586.32 362.32,-590.87"/>
<polygon fill="black" stroke="black" points="352.3,-591.29 362.1,-586.37 357.29,-591.08 362.29,-590.87 362.29,-590.87 362.29,-590.87 357.29,-591.08 362.48,-595.36 352.3,-591.29 352.3,-591.29"/>
</g>
<!-- ragger.backend.ledgerwallet&#45;&gt;ragger -->
<g id="edge13" class="edge">
<title>ragger.backend.ledgerwallet&#45;&gt;ragger</title>
<path fill="none" stroke="black" d="M474.73,-468.06C537.11,-478.67 611.3,-492.1 655.85,-504.2"/>
<polygon fill="black" stroke="black" points="665.71,-507 654.86,-508.59 660.9,-505.63 656.09,-504.26 656.09,-504.26 656.09,-504.26 660.9,-505.63 657.32,-499.93 665.71,-507 665.71,-507"/>
</g>
<!-- ragger.backend.ledgerwallet&#45;&gt;ragger.backend.interface -->
<g id="edge14" class="edge">
<title>ragger.backend.ledgerwallet&#45;&gt;ragger.backend.interface</title>
<path fill="none" stroke="black" d="M384.59,-468.3C391.42,-476.7 399.76,-486.93 407.26,-496.14"/>
<polygon fill="black" stroke="black" points="413.57,-503.9 403.77,-498.98 410.42,-500.02 407.26,-496.14 407.26,-496.14 407.26,-496.14 410.42,-500.02 410.75,-493.3 413.57,-503.9 413.57,-503.9"/>
</g>
<!-- ragger.backend.ledgerwallet&#45;&gt;ragger.error -->
<g id="edge15" class="edge">
<title>ragger.backend.ledgerwallet&#45;&gt;ragger.error</title>
<path fill="none" stroke="black" d="M425.25,-468.03C457.93,-478.2 499.52,-491.14 533.42,-501.69"/>
<polygon fill="black" stroke="black" points="543.22,-504.73 532.33,-506.06 538.44,-503.25 533.67,-501.76 533.67,-501.76 533.67,-501.76 538.44,-503.25 535,-497.47 543.22,-504.73 543.22,-504.73"/>
</g>
<!-- ragger.backend.ledgerwallet&#45;&gt;ragger.utils -->
<g id="edge16" class="edge">
<title>ragger.backend.ledgerwallet&#45;&gt;ragger.utils</title>
<path fill="none" stroke="black" d="M327.88,-468.01C312.63,-476.42 297.09,-488.22 288.5,-504 278.04,-523.21 283.19,-548 290.01,-566.53"/>
<polygon fill="black" stroke="black" points="293.77,-575.85 285.86,-568.26 291.9,-571.21 290.03,-566.58 290.03,-566.58 290.03,-566.58 291.9,-571.21 294.2,-564.89 293.77,-575.85 293.77,-575.85"/>
</g>
<!-- ragger.backend.speculos&#45;&gt;ragger -->
<g id="edge17" class="edge">
<title>ragger.backend.speculos&#45;&gt;ragger</title>
<path fill="none" stroke="black" d="M620.7,-468.12C633.91,-477.11 650.29,-488.24 664.61,-497.97"/>
<polygon fill="black" stroke="black" points="673.21,-503.81 662.41,-501.91 669.07,-501 664.94,-498.19 664.94,-498.19 664.94,-498.19 669.07,-501 667.47,-494.47 673.21,-503.81 673.21,-503.81"/>
</g>
<!-- ragger.backend.speculos&#45;&gt;ragger.backend.interface -->
<g id="edge18" class="edge">
<title>ragger.backend.speculos&#45;&gt;ragger.backend.interface</title>
<path fill="none" stroke="black" d="M554.4,-468.12C531.33,-477.74 502.36,-489.81 477.93,-499.99"/>
<polygon fill="black" stroke="black" points="468.46,-503.93 475.96,-495.93 473.08,-502.01 477.69,-500.09 477.69,-500.09 477.69,-500.09 473.08,-502.01 479.43,-504.24 468.46,-503.93 468.46,-503.93"/>
</g>
<!-- ragger.backend.speculos&#45;&gt;ragger.error -->
<g id="edge19" class="edge">
<title>ragger.backend.speculos&#45;&gt;ragger.error</title>
<path fill="none" stroke="black" d="M595.5,-468.3C595.5,-476.02 595.5,-485.29 595.5,-493.89"/>
<polygon fill="black" stroke="black" points="595.5,-503.9 591,-493.9 595.5,-498.9 595.5,-493.9 595.5,-493.9 595.5,-493.9 595.5,-498.9 600,-493.9 595.5,-503.9 595.5,-503.9"/>
</g>
<!-- ragger.backend.speculos&#45;&gt;ragger.firmware -->
<g id="edge20" class="edge">
<title>ragger.backend.speculos&#45;&gt;ragger.firmware</title>
<path fill="none" stroke="black" d="M652.8,-468.01C679.86,-477.06 712.14,-489.35 739.5,-504 774.03,-522.48 809.8,-549.7 833.61,-569.17"/>
<polygon fill="black" stroke="black" points="841.51,-575.7 830.94,-572.79 837.66,-572.51 833.81,-569.33 833.81,-569.33 833.81,-569.33 837.66,-572.51 836.68,-565.86 841.51,-575.7 841.51,-575.7"/>
</g>
<!-- ragger.backend.speculos&#45;&gt;ragger.utils -->
<g id="edge21" class="edge">
<title>ragger.backend.speculos&#45;&gt;ragger.utils</title>
<path fill="none" stroke="black" d="M498.71,-467.04C422.15,-480.15 327.04,-497.52 320.5,-504 304.53,-519.82 300.77,-545.63 300.57,-565.39"/>
<polygon fill="black" stroke="black" points="300.77,-575.65 296.07,-565.74 300.67,-570.65 300.57,-565.65 300.57,-565.65 300.57,-565.65 300.67,-570.65 305.07,-565.56 300.77,-575.65 300.77,-575.65"/>
</g>
<!-- ragger.bip -->
<g id="node7" class="node">
<title>ragger.bip</title>
<polygon fill="aquamarine" stroke="aquamarine" points="857.5,-36 767.5,-36 767.5,0 857.5,0 857.5,-36"/>
<text text-anchor="middle" x="812.5" y="-14.3" font-family="Times,serif" font-size="14.00">ragger.bip</text>
</g>
<!-- ragger.bip.path -->
<g id="node8" class="node">
<title>ragger.bip.path</title>
<polygon fill="aquamarine" stroke="aquamarine" points="803,-108 676,-108 676,-72 803,-72 803,-108"/>
<text text-anchor="middle" x="739.5" y="-86.3" font-family="Times,serif" font-size="14.00">ragger.bip.path</text>
</g>
<!-- ragger.bip&#45;&gt;ragger.bip.path -->
<g id="edge22" class="edge">
<title>ragger.bip&#45;&gt;ragger.bip.path</title>
<path fill="none" stroke="black" d="M794.46,-36.3C785.44,-44.95 774.38,-55.55 764.56,-64.97"/>
<polygon fill="black" stroke="black" points="757.34,-71.9 761.44,-61.73 760.95,-68.44 764.56,-64.97 764.56,-64.97 764.56,-64.97 760.95,-68.44 767.67,-68.22 757.34,-71.9 757.34,-71.9"/>
</g>
<!-- ragger.bip.seed -->
<g id="node9" class="node">
<title>ragger.bip.seed</title>
<polygon fill="aquamarine" stroke="aquamarine" points="949.5,-108 821.5,-108 821.5,-72 949.5,-72 949.5,-108"/>
<text text-anchor="middle" x="885.5" y="-86.3" font-family="Times,serif" font-size="14.00">ragger.bip.seed</text>
</g>
<!-- ragger.bip&#45;&gt;ragger.bip.seed -->
<g id="edge23" class="edge">
<title>ragger.bip&#45;&gt;ragger.bip.seed</title>
<path fill="none" stroke="black" d="M830.54,-36.3C839.56,-44.95 850.62,-55.55 860.44,-64.97"/>
<polygon fill="black" stroke="black" points="867.66,-71.9 857.33,-68.22 864.05,-68.44 860.44,-64.97 860.44,-64.97 860.44,-64.97 864.05,-68.44 863.56,-61.73 867.66,-71.9 867.66,-71.9"/>
</g>
<!-- ragger.firmware.structs -->
<g id="node17" class="node">
<title>ragger.firmware.structs</title>
<polygon fill="burlywood" stroke="burlywood" points="1076,-684 889,-684 889,-648 1076,-648 1076,-684"/>
<text text-anchor="middle" x="982.5" y="-662.3" font-family="Times,serif" font-size="14.00">ragger.firmware.structs</text>
</g>
<!-- ragger.firmware&#45;&gt;ragger.firmware.structs -->
<g id="edge24" class="edge">
<title>ragger.firmware&#45;&gt;ragger.firmware.structs</title>
<path fill="none" stroke="black" d="M891.1,-612.12C907.07,-621.36 926.96,-632.87 944.11,-642.79"/>
<polygon fill="black" stroke="black" points="952.79,-647.81 941.88,-646.7 948.46,-645.31 944.13,-642.8 944.13,-642.8 944.13,-642.8 948.46,-645.31 946.38,-638.91 952.79,-647.81 952.79,-647.81"/>
</g>
<!-- ragger.firmware.versions -->
<g id="node18" class="node">
<title>ragger.firmware.versions</title>
<polygon fill="burlywood" stroke="burlywood" points="1081,-756 884,-756 884,-720 1081,-720 1081,-756"/>
<text text-anchor="middle" x="982.5" y="-734.3" font-family="Times,serif" font-size="14.00">ragger.firmware.versions</text>
</g>
<!-- ragger.firmware&#45;&gt;ragger.firmware.versions -->
<g id="edge25" class="edge">
<title>ragger.firmware&#45;&gt;ragger.firmware.versions</title>
<path fill="none" stroke="black" d="M861,-612.18C861.3,-631.53 864.51,-663.01 880.5,-684 890.66,-697.34 905.15,-707.64 920.02,-715.45"/>
<polygon fill="black" stroke="black" points="929.3,-720 918.34,-719.63 924.81,-717.79 920.32,-715.59 920.32,-715.59 920.32,-715.59 924.81,-717.79 922.3,-711.55 929.3,-720 929.3,-720"/>
</g>
<!-- ragger.firmware.fatstacks -->
<g id="node12" class="node">
<title>ragger.firmware.fatstacks</title>
<polygon fill="burlywood" stroke="burlywood" points="674,-180 473,-180 473,-144 674,-144 674,-180"/>
<text text-anchor="middle" x="573.5" y="-158.3" font-family="Times,serif" font-size="14.00">ragger.firmware.fatstacks</text>
</g>
<!-- ragger.firmware.fatstacks.screen -->
<g id="node15" class="node">
<title>ragger.firmware.fatstacks.screen</title>
<polygon fill="burlywood" stroke="burlywood" points="737,-252 484,-252 484,-216 737,-216 737,-252"/>
<text text-anchor="middle" x="610.5" y="-230.3" font-family="Times,serif" font-size="14.00">ragger.firmware.fatstacks.screen</text>
</g>
<!-- ragger.firmware.fatstacks&#45;&gt;ragger.firmware.fatstacks.screen -->
<g id="edge26" class="edge">
<title>ragger.firmware.fatstacks&#45;&gt;ragger.firmware.fatstacks.screen</title>
<path fill="none" stroke="black" d="M582.65,-180.3C586.9,-188.36 592.06,-198.11 596.77,-207.02"/>
<polygon fill="black" stroke="black" points="601.46,-215.9 592.81,-209.16 599.12,-211.48 596.79,-207.05 596.79,-207.05 596.79,-207.05 599.12,-211.48 600.76,-204.95 601.46,-215.9 601.46,-215.9"/>
</g>
<!-- ragger.firmware.fatstacks.layouts -->
<g id="node13" class="node">
<title>ragger.firmware.fatstacks.layouts</title>
<polygon fill="burlywood" stroke="burlywood" points="1024,-324 767,-324 767,-288 1024,-288 1024,-324"/>
<text text-anchor="middle" x="895.5" y="-302.3" font-family="Times,serif" font-size="14.00">ragger.firmware.fatstacks.layouts</text>
</g>
<!-- ragger.firmware.fatstacks.layouts&#45;&gt;ragger.backend -->
<g id="edge27" class="edge">
<title>ragger.firmware.fatstacks.layouts&#45;&gt;ragger.backend</title>
<path fill="none" stroke="black" d="M781.13,-324.03C693.36,-337.11 574.8,-354.76 499.22,-366.02"/>
<polygon fill="black" stroke="black" points="489.31,-367.5 498.54,-361.57 494.26,-366.76 499.2,-366.02 499.2,-366.02 499.2,-366.02 494.26,-366.76 499.87,-370.47 489.31,-367.5 489.31,-367.5"/>
</g>
<!-- ragger.firmware.fatstacks.layouts&#45;&gt;ragger.firmware -->
<g id="edge28" class="edge">
<title>ragger.firmware.fatstacks.layouts&#45;&gt;ragger.firmware</title>
<path fill="none" stroke="black" d="M951.94,-324.04C968.94,-332.11 985.67,-343.67 995.5,-360 1015.72,-393.6 1064.21,-434.05 990.5,-540 977.85,-558.18 957.77,-570.14 937.18,-578"/>
<polygon fill="black" stroke="black" points="927.71,-581.33 935.65,-573.76 932.42,-579.67 937.14,-578.01 937.14,-578.01 937.14,-578.01 932.42,-579.67 938.63,-582.25 927.71,-581.33 927.71,-581.33"/>
</g>
<!-- ragger.firmware.fatstacks.positions -->
<g id="node14" class="node">
<title>ragger.firmware.fatstacks.positions</title>
<polygon fill="burlywood" stroke="burlywood" points="986.5,-396 716.5,-396 716.5,-360 986.5,-360 986.5,-396"/>
<text text-anchor="middle" x="851.5" y="-374.3" font-family="Times,serif" font-size="14.00">ragger.firmware.fatstacks.positions</text>
</g>
<!-- ragger.firmware.fatstacks.layouts&#45;&gt;ragger.firmware.fatstacks.positions -->
<g id="edge29" class="edge">
<title>ragger.firmware.fatstacks.layouts&#45;&gt;ragger.firmware.fatstacks.positions</title>
<path fill="none" stroke="black" d="M884.62,-324.3C879.51,-332.44 873.3,-342.31 867.66,-351.3"/>
<polygon fill="black" stroke="black" points="862.25,-359.9 863.76,-349.03 864.91,-355.66 867.57,-351.43 867.57,-351.43 867.57,-351.43 864.91,-355.66 871.38,-353.82 862.25,-359.9 862.25,-359.9"/>
</g>
<!-- ragger.firmware.fatstacks.positions&#45;&gt;ragger.firmware.versions -->
<g id="edge30" class="edge">
<title>ragger.firmware.fatstacks.positions&#45;&gt;ragger.firmware.versions</title>
<path fill="none" stroke="black" d="M981.89,-396.07C1053.73,-413.61 1128.5,-449.13 1128.5,-521 1128.5,-521 1128.5,-521 1128.5,-595 1128.5,-638.93 1116.17,-652.55 1085.5,-684 1072.82,-697 1056.28,-707.42 1040.17,-715.47"/>
<polygon fill="black" stroke="black" points="1030.77,-719.93 1037.87,-711.58 1035.28,-717.79 1039.8,-715.64 1039.8,-715.64 1039.8,-715.64 1035.28,-717.79 1041.73,-719.71 1030.77,-719.93 1030.77,-719.93"/>
</g>
<!-- ragger.firmware.fatstacks.screen&#45;&gt;ragger.backend -->
<g id="edge31" class="edge">
<title>ragger.firmware.fatstacks.screen&#45;&gt;ragger.backend</title>
<path fill="none" stroke="black" d="M526.86,-252.08C504.17,-259.97 481.06,-271.42 463.5,-288 446,-304.52 436.19,-330.42 430.94,-350.03"/>
<polygon fill="black" stroke="black" points="428.53,-359.9 426.53,-349.12 429.71,-355.05 430.9,-350.19 430.9,-350.19 430.9,-350.19 429.71,-355.05 435.27,-351.25 428.53,-359.9 428.53,-359.9"/>
</g>
<!-- ragger.firmware.fatstacks.screen&#45;&gt;ragger.firmware -->
<g id="edge32" class="edge">
<title>ragger.firmware.fatstacks.screen&#45;&gt;ragger.firmware</title>
<path fill="none" stroke="black" d="M737.13,-235.15C845.79,-238.02 991.34,-249.31 1033.5,-288 1063.3,-315.35 1052.5,-336.55 1052.5,-377 1052.5,-377 1052.5,-377 1052.5,-451 1052.5,-494.01 1045.96,-510.67 1014.5,-540 993.35,-559.72 964.49,-572.15 937.54,-579.96"/>
<polygon fill="black" stroke="black" points="927.71,-582.64 936.18,-575.67 932.53,-581.32 937.36,-580.01 937.36,-580.01 937.36,-580.01 932.53,-581.32 938.54,-584.35 927.71,-582.64 927.71,-582.64"/>
</g>
<!-- ragger.firmware.fatstacks.screen&#45;&gt;ragger.firmware.fatstacks.layouts -->
<g id="edge33" class="edge">
<title>ragger.firmware.fatstacks.screen&#45;&gt;ragger.firmware.fatstacks.layouts</title>
<path fill="none" stroke="black" d="M679.85,-252.03C720.97,-262.13 773.24,-274.97 816.02,-285.48"/>
<polygon fill="black" stroke="black" points="825.83,-287.89 815.05,-289.87 820.98,-286.7 816.12,-285.5 816.12,-285.5 816.12,-285.5 820.98,-286.7 817.2,-281.13 825.83,-287.89 825.83,-287.89"/>
</g>
<!-- ragger.firmware.fatstacks.use_cases -->
<g id="node16" class="node">
<title>ragger.firmware.fatstacks.use_cases</title>
<polygon fill="burlywood" stroke="burlywood" points="748.5,-324 472.5,-324 472.5,-288 748.5,-288 748.5,-324"/>
<text text-anchor="middle" x="610.5" y="-302.3" font-family="Times,serif" font-size="14.00">ragger.firmware.fatstacks.use_cases</text>
</g>
<!-- ragger.firmware.fatstacks.screen&#45;&gt;ragger.firmware.fatstacks.use_cases -->
<g id="edge34" class="edge">
<title>ragger.firmware.fatstacks.screen&#45;&gt;ragger.firmware.fatstacks.use_cases</title>
<path fill="none" stroke="black" d="M610.5,-252.3C610.5,-260.02 610.5,-269.29 610.5,-277.89"/>
<polygon fill="black" stroke="black" points="610.5,-287.9 606,-277.9 610.5,-282.9 610.5,-277.9 610.5,-277.9 610.5,-277.9 610.5,-282.9 615,-277.9 610.5,-287.9 610.5,-287.9"/>
</g>
<!-- ragger.firmware.fatstacks.use_cases&#45;&gt;ragger.backend -->
<g id="edge35" class="edge">
<title>ragger.firmware.fatstacks.use_cases&#45;&gt;ragger.backend</title>
<path fill="none" stroke="black" d="M565.24,-324.12C539.5,-333.86 507.09,-346.13 479.96,-356.39"/>
<polygon fill="black" stroke="black" points="470.61,-359.93 478.37,-352.18 475.29,-358.16 479.96,-356.39 479.96,-356.39 479.96,-356.39 475.29,-358.16 481.55,-360.6 470.61,-359.93 470.61,-359.93"/>
</g>
<!-- ragger.firmware.fatstacks.use_cases&#45;&gt;ragger.firmware -->
<g id="edge36" class="edge">
<title>ragger.firmware.fatstacks.use_cases&#45;&gt;ragger.firmware</title>
<path fill="none" stroke="black" d="M623.5,-324.02C640.4,-344.77 671.98,-379.16 707.5,-396 758.22,-420.05 920.75,-389.58 957.5,-432 995.48,-475.84 934.05,-536.67 893.22,-569.59"/>
<polygon fill="black" stroke="black" points="885.11,-575.98 890.18,-566.25 889.04,-572.88 892.96,-569.79 892.96,-569.79 892.96,-569.79 889.04,-572.88 895.75,-573.32 885.11,-575.98 885.11,-575.98"/>
</g>
<!-- ragger.firmware.fatstacks.use_cases&#45;&gt;ragger.firmware.fatstacks.positions -->
<g id="edge37" class="edge">
<title>ragger.firmware.fatstacks.use_cases&#45;&gt;ragger.firmware.fatstacks.positions</title>
<path fill="none" stroke="black" d="M669.15,-324.03C703.41,-333.99 746.82,-346.59 782.69,-357.01"/>
<polygon fill="black" stroke="black" points="792.59,-359.89 781.73,-361.42 787.79,-358.49 782.99,-357.1 782.99,-357.1 782.99,-357.1 787.79,-358.49 784.24,-352.78 792.59,-359.89 792.59,-359.89"/>
</g>
<!-- ragger.firmware.structs&#45;&gt;ragger.firmware.versions -->
<g id="edge38" class="edge">
<title>ragger.firmware.structs&#45;&gt;ragger.firmware.versions</title>
<path fill="none" stroke="black" d="M982.5,-684.3C982.5,-692.02 982.5,-701.29 982.5,-709.89"/>
<polygon fill="black" stroke="black" points="982.5,-719.9 978,-709.9 982.5,-714.9 982.5,-709.9 982.5,-709.9 982.5,-709.9 982.5,-714.9 987,-709.9 982.5,-719.9 982.5,-719.9"/>
</g>
<!-- ragger.navigator -->
<g id="node19" class="node">
<title>ragger.navigator</title>
<polygon fill="cadetblue" stroke="cadetblue" points="586.5,-36 450.5,-36 450.5,0 586.5,0 586.5,-36"/>
<text text-anchor="middle" x="518.5" y="-14.3" font-family="Times,serif" font-size="14.00">ragger.navigator</text>
</g>
<!-- ragger.navigator&#45;&gt;ragger.navigator -->
<g id="edge39" class="edge">
<title>ragger.navigator&#45;&gt;ragger.navigator</title>
<path fill="none" stroke="black" d="M586.63,-5.63C597.26,-7.48 604.5,-11.6 604.5,-18 604.5,-22.1 601.53,-25.26 596.6,-27.5"/>
<polygon fill="black" stroke="black" points="586.63,-30.37 594.99,-23.28 591.43,-28.99 596.24,-27.6 596.24,-27.6 596.24,-27.6 591.43,-28.99 597.48,-31.92 586.63,-30.37 586.63,-30.37"/>
</g>
<!-- ragger.navigator.fatstacks_navigator -->
<g id="node20" class="node">
<title>ragger.navigator.fatstacks_navigator</title>
<polygon fill="cadetblue" stroke="cadetblue" points="657.5,-108 379.5,-108 379.5,-72 657.5,-72 657.5,-108"/>
<text text-anchor="middle" x="518.5" y="-86.3" font-family="Times,serif" font-size="14.00">ragger.navigator.fatstacks_navigator</text>
</g>
<!-- ragger.navigator&#45;&gt;ragger.navigator.fatstacks_navigator -->
<g id="edge40" class="edge">
<title>ragger.navigator&#45;&gt;ragger.navigator.fatstacks_navigator</title>
<path fill="none" stroke="black" d="M512.58,-36.3C511.79,-44.02 511.56,-53.29 511.9,-61.89"/>
<polygon fill="black" stroke="black" points="512.6,-71.9 507.42,-62.23 512.26,-66.91 511.91,-61.92 511.91,-61.92 511.91,-61.92 512.26,-66.91 516.4,-61.61 512.6,-71.9 512.6,-71.9"/>
</g>
<!-- ragger.navigator.nano_navigator -->
<g id="node21" class="node">
<title>ragger.navigator.nano_navigator</title>
<polygon fill="cadetblue" stroke="cadetblue" points="361.5,-252 113.5,-252 113.5,-216 361.5,-216 361.5,-252"/>
<text text-anchor="middle" x="237.5" y="-230.3" font-family="Times,serif" font-size="14.00">ragger.navigator.nano_navigator</text>
</g>
<!-- ragger.navigator&#45;&gt;ragger.navigator.nano_navigator -->
<g id="edge41" class="edge">
<title>ragger.navigator&#45;&gt;ragger.navigator.nano_navigator</title>
<path fill="none" stroke="black" d="M450.37,-35.03C423.9,-43.32 394.29,-55.3 370.5,-72 317.93,-108.91 274.42,-171.84 252.61,-207.1"/>
<polygon fill="black" stroke="black" points="247.3,-215.85 248.64,-204.97 249.89,-211.58 252.49,-207.31 252.49,-207.31 252.49,-207.31 249.89,-211.58 256.33,-209.64 247.3,-215.85 247.3,-215.85"/>
</g>
<!-- ragger.navigator.fatstacks_navigator&#45;&gt;ragger.backend -->
<g id="edge42" class="edge">
<title>ragger.navigator.fatstacks_navigator&#45;&gt;ragger.backend</title>
<path fill="none" stroke="black" d="M494.82,-108.12C483.61,-117.47 471.05,-129.99 463.5,-144 427.19,-211.32 423.63,-304.3 424.36,-349.76"/>
<polygon fill="black" stroke="black" points="424.61,-360 419.87,-350.11 424.49,-355 424.37,-350 424.37,-350 424.37,-350 424.49,-355 428.86,-349.89 424.61,-360 424.61,-360"/>
</g>
<!-- ragger.navigator.fatstacks_navigator&#45;&gt;ragger.firmware -->
<g id="edge43" class="edge">
<title>ragger.navigator.fatstacks_navigator&#45;&gt;ragger.firmware</title>
<path fill="none" stroke="black" d="M633.91,-108.01C801,-134.24 1090.5,-186.41 1090.5,-233 1090.5,-233 1090.5,-233 1090.5,-451 1090.5,-495.94 1077.43,-511.72 1042.5,-540 1012.85,-564 972.7,-577.13 937.75,-584.32"/>
<polygon fill="black" stroke="black" points="927.57,-586.28 936.54,-579.97 932.48,-585.33 937.39,-584.39 937.39,-584.39 937.39,-584.39 932.48,-585.33 938.24,-588.81 927.57,-586.28 927.57,-586.28"/>
</g>
<!-- ragger.navigator.fatstacks_navigator&#45;&gt;ragger.firmware.fatstacks -->
<g id="edge44" class="edge">
<title>ragger.navigator.fatstacks_navigator&#45;&gt;ragger.firmware.fatstacks</title>
<path fill="none" stroke="black" d="M532.1,-108.3C538.62,-116.61 546.57,-126.72 553.75,-135.86"/>
<polygon fill="black" stroke="black" points="560.06,-143.9 550.34,-138.81 556.97,-139.96 553.88,-136.03 553.88,-136.03 553.88,-136.03 556.97,-139.96 557.42,-133.25 560.06,-143.9 560.06,-143.9"/>
</g>
<!-- ragger.navigator.fatstacks_navigator&#45;&gt;ragger.navigator -->
<g id="edge45" class="edge">
<title>ragger.navigator.fatstacks_navigator&#45;&gt;ragger.navigator</title>
<path fill="none" stroke="black" d="M524.4,-71.9C525.2,-64.21 525.44,-54.95 525.1,-46.33"/>
<polygon fill="black" stroke="black" points="524.42,-36.3 529.59,-45.97 524.76,-41.29 525.1,-46.28 525.1,-46.28 525.1,-46.28 524.76,-41.29 520.61,-46.59 524.42,-36.3 524.42,-36.3"/>
</g>
<!-- ragger.navigator.nano_navigator&#45;&gt;ragger.backend -->
<g id="edge46" class="edge">
<title>ragger.navigator.nano_navigator&#45;&gt;ragger.backend</title>
<path fill="none" stroke="black" d="M260.18,-252.13C293.77,-277.5 356.85,-325.15 394.63,-353.68"/>
<polygon fill="black" stroke="black" points="402.74,-359.81 392.05,-357.37 398.75,-356.8 394.76,-353.78 394.76,-353.78 394.76,-353.78 398.75,-356.8 397.48,-350.19 402.74,-359.81 402.74,-359.81"/>
</g>
<!-- ragger.navigator.nano_navigator&#45;&gt;ragger.firmware -->
<g id="edge47" class="edge">
<title>ragger.navigator.nano_navigator&#45;&gt;ragger.firmware</title>
<path fill="none" stroke="black" d="M233.15,-252.09C223.91,-292.05 205.79,-393.78 239.5,-468 259.42,-511.85 276.37,-520.71 320.5,-540 401.95,-575.61 656.52,-587.51 785.29,-591.31"/>
<polygon fill="black" stroke="black" points="795.47,-591.61 785.34,-595.82 790.47,-591.46 785.47,-591.32 785.47,-591.32 785.47,-591.32 790.47,-591.46 785.6,-586.82 795.47,-591.61 795.47,-591.61"/>
</g>
<!-- ragger.navigator.navigator -->
<g id="node22" class="node">
<title>ragger.navigator.navigator</title>
<polygon fill="cadetblue" stroke="cadetblue" points="207,-324 0,-324 0,-288 207,-288 207,-324"/>
<text text-anchor="middle" x="103.5" y="-302.3" font-family="Times,serif" font-size="14.00">ragger.navigator.navigator</text>
</g>
<!-- ragger.navigator.nano_navigator&#45;&gt;ragger.navigator.navigator -->
<g id="edge48" class="edge">
<title>ragger.navigator.nano_navigator&#45;&gt;ragger.navigator.navigator</title>
<path fill="none" stroke="black" d="M204.72,-252.12C186.87,-261.45 164.6,-273.08 145.5,-283.06"/>
<polygon fill="black" stroke="black" points="136.41,-287.81 143.19,-279.19 140.84,-285.5 145.27,-283.18 145.27,-283.18 145.27,-283.18 140.84,-285.5 147.35,-287.17 136.41,-287.81 136.41,-287.81"/>
</g>
<!-- ragger.navigator.navigator&#45;&gt;ragger.backend -->
<g id="edge49" class="edge">
<title>ragger.navigator.navigator&#45;&gt;ragger.backend</title>
<path fill="none" stroke="black" d="M181.86,-324.03C233.69,-335.3 301.2,-349.98 352.01,-361.02"/>
<polygon fill="black" stroke="black" points="361.94,-363.18 351.21,-365.46 357.06,-362.12 352.17,-361.06 352.17,-361.06 352.17,-361.06 357.06,-362.12 353.13,-356.66 361.94,-363.18 361.94,-363.18"/>
</g>
<!-- ragger.navigator.navigator&#45;&gt;ragger.firmware -->
<g id="edge50" class="edge">
<title>ragger.navigator.navigator&#45;&gt;ragger.firmware</title>
<path fill="none" stroke="black" d="M105.03,-324.14C109.98,-368.46 129.85,-487.1 203.5,-540 249.78,-573.24 621.29,-586.82 784.76,-591.23"/>
<polygon fill="black" stroke="black" points="795.22,-591.5 785.11,-595.74 790.23,-591.37 785.23,-591.24 785.23,-591.24 785.23,-591.24 790.23,-591.37 785.35,-586.74 795.22,-591.5 795.22,-591.5"/>
</g>
<!-- ragger.navigator.navigator&#45;&gt;ragger.utils -->
<g id="edge51" class="edge">
<title>ragger.navigator.navigator&#45;&gt;ragger.utils</title>
<path fill="none" stroke="black" d="M99.53,-324.01C90.82,-366.04 74.71,-476 127.5,-540 155.31,-573.72 203.83,-586.5 242.74,-591.11"/>
<polygon fill="black" stroke="black" points="252.92,-592.16 242.51,-595.61 247.95,-591.65 242.97,-591.13 242.97,-591.13 242.97,-591.13 247.95,-591.65 243.43,-586.66 252.92,-592.16 252.92,-592.16"/>
</g>
<!-- ragger.utils.misc -->
<g id="node24" class="node">
<title>ragger.utils.misc</title>
<polygon fill="chartreuse" stroke="chartreuse" points="535,-684 398,-684 398,-648 535,-648 535,-684"/>
<text text-anchor="middle" x="466.5" y="-662.3" font-family="Times,serif" font-size="14.00">ragger.utils.misc</text>
</g>
<!-- ragger.utils&#45;&gt;ragger.utils.misc -->
<g id="edge52" class="edge">
<title>ragger.utils&#45;&gt;ragger.utils.misc</title>
<path fill="none" stroke="black" d="M342.62,-612.12C365.14,-621.74 393.42,-633.81 417.27,-643.99"/>
<polygon fill="black" stroke="black" points="426.51,-647.93 415.55,-648.14 421.91,-645.97 417.31,-644.01 417.31,-644.01 417.31,-644.01 421.91,-645.97 419.08,-639.87 426.51,-647.93 426.51,-647.93"/>
</g>
<!-- ragger.utils.packing -->
<g id="node25" class="node">
<title>ragger.utils.packing</title>
<polygon fill="chartreuse" stroke="chartreuse" points="207,-684 48,-684 48,-648 207,-648 207,-684"/>
<text text-anchor="middle" x="127.5" y="-662.3" font-family="Times,serif" font-size="14.00">ragger.utils.packing</text>
</g>
<!-- ragger.utils&#45;&gt;ragger.utils.packing -->
<g id="edge53" class="edge">
<title>ragger.utils&#45;&gt;ragger.utils.packing</title>
<path fill="none" stroke="black" d="M259.69,-612.12C235.55,-621.78 205.22,-633.91 179.69,-644.12"/>
<polygon fill="black" stroke="black" points="170.17,-647.93 177.78,-640.04 174.81,-646.07 179.46,-644.22 179.46,-644.22 179.46,-644.22 174.81,-646.07 181.13,-648.4 170.17,-647.93 170.17,-647.93"/>
</g>
<!-- ragger.utils.structs -->
<g id="node26" class="node">
<title>ragger.utils.structs</title>
<polygon fill="chartreuse" stroke="chartreuse" points="379.5,-684 225.5,-684 225.5,-648 379.5,-648 379.5,-684"/>
<text text-anchor="middle" x="302.5" y="-662.3" font-family="Times,serif" font-size="14.00">ragger.utils.structs</text>
</g>
<!-- ragger.utils&#45;&gt;ragger.utils.structs -->
<g id="edge54" class="edge">
<title>ragger.utils&#45;&gt;ragger.utils.structs</title>
<path fill="none" stroke="black" d="M302.5,-612.3C302.5,-620.02 302.5,-629.29 302.5,-637.89"/>
<polygon fill="black" stroke="black" points="302.5,-647.9 298,-637.9 302.5,-642.9 302.5,-637.9 302.5,-637.9 302.5,-637.9 302.5,-642.9 307,-637.9 302.5,-647.9 302.5,-647.9"/>
</g>
</g>
</svg>
