<?xml version="1.0" encoding="UTF-8" standalone="no"?>
<!DOCTYPE svg PUBLIC "-//W3C//DTD SVG 1.1//EN"
 "http://www.w3.org/Graphics/SVG/1.1/DTD/svg11.dtd">
<!-- Generated by graphviz version 2.43.0 (0)
 -->
<!-- Title: packages_generated_ragger_architecture Pages: 1 -->
<svg width="1177pt" height="620pt"
 viewBox="0.00 0.00 1176.50 620.00" xmlns="http://www.w3.org/2000/svg" xmlns:xlink="http://www.w3.org/1999/xlink">
<g id="graph0" class="graph" transform="scale(1 1) rotate(0) translate(4 616)">
<title>packages_generated_ragger_architecture</title>
<polygon fill="white" stroke="transparent" points="-4,4 -4,-616 1172.5,-616 1172.5,4 -4,4"/>
<!-- ragger -->
<g id="node1" class="node">
<title>ragger</title>
<polygon fill="aliceblue" stroke="aliceblue" points="348,-396 283,-396 283,-360 348,-360 348,-396"/>
<text text-anchor="middle" x="315.5" y="-374.3" font-family="Times,serif" font-size="14.00">ragger</text>
</g>
<!-- ragger.backend -->
<g id="node2" class="node">
<title>ragger.backend</title>
<polygon fill="antiquewhite" stroke="antiquewhite" points="700,-252 573,-252 573,-216 700,-216 700,-252"/>
<text text-anchor="middle" x="636.5" y="-230.3" font-family="Times,serif" font-size="14.00">ragger.backend</text>
</g>
<!-- ragger.backend.interface -->
<g id="node3" class="node">
<title>ragger.backend.interface</title>
<polygon fill="antiquewhite" stroke="antiquewhite" points="759,-396 564,-396 564,-360 759,-360 759,-396"/>
<text text-anchor="middle" x="661.5" y="-374.3" font-family="Times,serif" font-size="14.00">ragger.backend.interface</text>
</g>
<!-- ragger.backend&#45;&gt;ragger.backend.interface -->
<g id="edge1" class="edge">
<title>ragger.backend&#45;&gt;ragger.backend.interface</title>
<path fill="none" stroke="black" d="M700.07,-240.02C732.46,-246.17 769.2,-259.49 789.5,-288 798.78,-301.03 798.39,-310.7 789.5,-324 780.26,-337.83 766.67,-348.05 751.76,-355.61"/>
<polygon fill="black" stroke="black" points="742.33,-359.98 749.51,-351.69 746.87,-357.88 751.4,-355.78 751.4,-355.78 751.4,-355.78 746.87,-357.88 753.3,-359.86 742.33,-359.98 742.33,-359.98"/>
</g>
<!-- ragger.backend.ledgercomm -->
<g id="node4" class="node">
<title>ragger.backend.ledgercomm</title>
<polygon fill="antiquewhite" stroke="antiquewhite" points="762.5,-324 542.5,-324 542.5,-288 762.5,-288 762.5,-324"/>
<text text-anchor="middle" x="652.5" y="-302.3" font-family="Times,serif" font-size="14.00">ragger.backend.ledgercomm</text>
</g>
<!-- ragger.backend&#45;&gt;ragger.backend.ledgercomm -->
<g id="edge2" class="edge">
<title>ragger.backend&#45;&gt;ragger.backend.ledgercomm</title>
<path fill="none" stroke="black" d="M640.46,-252.3C642.22,-260.02 644.34,-269.29 646.3,-277.89"/>
<polygon fill="black" stroke="black" points="648.59,-287.9 641.98,-279.15 647.48,-283.02 646.36,-278.15 646.36,-278.15 646.36,-278.15 647.48,-283.02 650.75,-277.14 648.59,-287.9 648.59,-287.9"/>
</g>
<!-- ragger.backend.ledgerwallet -->
<g id="node5" class="node">
<title>ragger.backend.ledgerwallet</title>
<polygon fill="antiquewhite" stroke="antiquewhite" points="313,-324 92,-324 92,-288 313,-288 313,-324"/>
<text text-anchor="middle" x="202.5" y="-302.3" font-family="Times,serif" font-size="14.00">ragger.backend.ledgerwallet</text>
</g>
<!-- ragger.backend&#45;&gt;ragger.backend.ledgerwallet -->
<g id="edge3" class="edge">
<title>ragger.backend&#45;&gt;ragger.backend.ledgerwallet</title>
<path fill="none" stroke="black" d="M572.93,-245.25C506.32,-256 400.23,-273.11 318.62,-286.27"/>
<polygon fill="black" stroke="black" points="308.29,-287.94 317.44,-281.9 313.22,-287.14 318.16,-286.35 318.16,-286.35 318.16,-286.35 313.22,-287.14 318.88,-290.79 308.29,-287.94 308.29,-287.94"/>
</g>
<!-- ragger.backend.speculos -->
<g id="node6" class="node">
<title>ragger.backend.speculos</title>
<polygon fill="antiquewhite" stroke="antiquewhite" points="524,-324 331,-324 331,-288 524,-288 524,-324"/>
<text text-anchor="middle" x="427.5" y="-302.3" font-family="Times,serif" font-size="14.00">ragger.backend.speculos</text>
</g>
<!-- ragger.backend&#45;&gt;ragger.backend.speculos -->
<g id="edge4" class="edge">
<title>ragger.backend&#45;&gt;ragger.backend.speculos</title>
<path fill="none" stroke="black" d="M585.64,-252.03C556.31,-261.86 519.25,-274.27 488.38,-284.61"/>
<polygon fill="black" stroke="black" points="478.59,-287.89 486.64,-280.45 483.33,-286.3 488.07,-284.71 488.07,-284.71 488.07,-284.71 483.33,-286.3 489.5,-288.98 478.59,-287.89 478.59,-287.89"/>
</g>
<!-- ragger.firmware -->
<g id="node11" class="node">
<title>ragger.firmware</title>
<polygon fill="burlywood" stroke="burlywood" points="852.5,-468 720.5,-468 720.5,-432 852.5,-432 852.5,-468"/>
<text text-anchor="middle" x="786.5" y="-446.3" font-family="Times,serif" font-size="14.00">ragger.firmware</text>
</g>
<!-- ragger.backend.interface&#45;&gt;ragger.firmware -->
<g id="edge5" class="edge">
<title>ragger.backend.interface&#45;&gt;ragger.firmware</title>
<path fill="none" stroke="black" d="M692.08,-396.12C708.57,-405.36 729.12,-416.87 746.84,-426.79"/>
<polygon fill="black" stroke="black" points="755.8,-431.81 744.88,-430.85 751.44,-429.37 747.08,-426.92 747.08,-426.92 747.08,-426.92 751.44,-429.37 749.28,-423 755.8,-431.81 755.8,-431.81"/>
</g>
<!-- ragger.utils -->
<g id="node17" class="node">
<title>ragger.utils</title>
<polygon fill="chartreuse" stroke="chartreuse" points="304,-468 205,-468 205,-432 304,-432 304,-468"/>
<text text-anchor="middle" x="254.5" y="-446.3" font-family="Times,serif" font-size="14.00">ragger.utils</text>
</g>
<!-- ragger.backend.interface&#45;&gt;ragger.utils -->
<g id="edge6" class="edge">
<title>ragger.backend.interface&#45;&gt;ragger.utils</title>
<path fill="none" stroke="black" d="M563.75,-395.81C486.06,-409.17 379.89,-427.43 314.33,-438.71"/>
<polygon fill="black" stroke="black" points="304.17,-440.46 313.26,-434.33 309.1,-439.61 314.02,-438.76 314.02,-438.76 314.02,-438.76 309.1,-439.61 314.79,-443.2 304.17,-440.46 304.17,-440.46"/>
</g>
<!-- ragger.backend.ledgercomm&#45;&gt;ragger -->
<g id="edge7" class="edge">
<title>ragger.backend.ledgercomm&#45;&gt;ragger</title>
<path fill="none" stroke="black" d="M544.24,-324.05C479.89,-334.61 403.6,-348 358.07,-360.23"/>
<polygon fill="black" stroke="black" points="348.29,-362.98 356.7,-355.94 353.1,-361.63 357.91,-360.27 357.91,-360.27 357.91,-360.27 353.1,-361.63 359.13,-364.6 348.29,-362.98 348.29,-362.98"/>
</g>
<!-- ragger.backend.ledgercomm&#45;&gt;ragger.backend.interface -->
<g id="edge8" class="edge">
<title>ragger.backend.ledgercomm&#45;&gt;ragger.backend.interface</title>
<path fill="none" stroke="black" d="M654.72,-324.3C655.72,-332.02 656.91,-341.29 658.01,-349.89"/>
<polygon fill="black" stroke="black" points="659.3,-359.9 653.56,-350.55 658.66,-354.94 658.03,-349.98 658.03,-349.98 658.03,-349.98 658.66,-354.94 662.49,-349.4 659.3,-359.9 659.3,-359.9"/>
</g>
<!-- ragger.backend.ledgercomm&#45;&gt;ragger.backend.ledgercomm -->
<g id="edge9" class="edge">
<title>ragger.backend.ledgercomm&#45;&gt;ragger.backend.ledgercomm</title>
<path fill="none" stroke="black" d="M762.65,-294.99C773.56,-297.2 780.5,-300.87 780.5,-306 780.5,-309.37 777.51,-312.11 772.37,-314.21"/>
<polygon fill="black" stroke="black" points="762.65,-317.01 771.02,-309.92 767.46,-315.63 772.26,-314.25 772.26,-314.25 772.26,-314.25 767.46,-315.63 773.51,-318.57 762.65,-317.01 762.65,-317.01"/>
</g>
<!-- ragger.error -->
<g id="node10" class="node">
<title>ragger.error</title>
<polygon fill="aliceblue" stroke="aliceblue" points="470.5,-396 366.5,-396 366.5,-360 470.5,-360 470.5,-396"/>
<text text-anchor="middle" x="418.5" y="-374.3" font-family="Times,serif" font-size="14.00">ragger.error</text>
</g>
<!-- ragger.backend.ledgercomm&#45;&gt;ragger.error -->
<g id="edge10" class="edge">
<title>ragger.backend.ledgercomm&#45;&gt;ragger.error</title>
<path fill="none" stroke="black" d="M595.56,-324.03C560.81,-334.43 516.37,-347.72 480.7,-358.39"/>
<polygon fill="black" stroke="black" points="470.89,-361.33 479.18,-354.15 475.68,-359.9 480.47,-358.46 480.47,-358.46 480.47,-358.46 475.68,-359.9 481.76,-362.77 470.89,-361.33 470.89,-361.33"/>
</g>
<!-- ragger.backend.ledgercomm&#45;&gt;ragger.firmware -->
<g id="edge11" class="edge">
<title>ragger.backend.ledgercomm&#45;&gt;ragger.firmware</title>
<path fill="none" stroke="black" d="M715.97,-324.04C735.05,-332.07 754.39,-343.6 767.5,-360 781.34,-377.31 785.72,-402.36 786.85,-421.48"/>
<polygon fill="black" stroke="black" points="787.18,-431.68 782.36,-421.83 787.02,-426.68 786.85,-421.69 786.85,-421.69 786.85,-421.69 787.02,-426.68 791.35,-421.54 787.18,-431.68 787.18,-431.68"/>
</g>
<!-- ragger.backend.ledgercomm&#45;&gt;ragger.utils -->
<g id="edge12" class="edge">
<title>ragger.backend.ledgercomm&#45;&gt;ragger.utils</title>
<path fill="none" stroke="black" d="M621.61,-324.05C579.92,-346.85 507.63,-385.63 479.5,-396 425.07,-416.07 360.36,-430.37 314.34,-439.02"/>
<polygon fill="black" stroke="black" points="304.23,-440.89 313.25,-434.65 309.15,-439.98 314.07,-439.07 314.07,-439.07 314.07,-439.07 309.15,-439.98 314.88,-443.5 304.23,-440.89 304.23,-440.89"/>
</g>
<!-- ragger.backend.ledgerwallet&#45;&gt;ragger -->
<g id="edge13" class="edge">
<title>ragger.backend.ledgerwallet&#45;&gt;ragger</title>
<path fill="none" stroke="black" d="M230.14,-324.12C244.92,-333.28 263.29,-344.66 279.2,-354.52"/>
<polygon fill="black" stroke="black" points="287.75,-359.81 276.88,-358.37 283.5,-357.18 279.25,-354.54 279.25,-354.54 279.25,-354.54 283.5,-357.18 281.62,-350.72 287.75,-359.81 287.75,-359.81"/>
</g>
<!-- ragger.backend.ledgerwallet&#45;&gt;ragger.backend.interface -->
<g id="edge14" class="edge">
<title>ragger.backend.ledgerwallet&#45;&gt;ragger.backend.interface</title>
<path fill="none" stroke="black" d="M313.03,-323.86C385.99,-334.98 481.13,-349.49 553.57,-360.54"/>
<polygon fill="black" stroke="black" points="563.63,-362.07 553.07,-365.02 558.69,-361.32 553.75,-360.57 553.75,-360.57 553.75,-360.57 558.69,-361.32 554.42,-356.12 563.63,-362.07 563.63,-362.07"/>
</g>
<!-- ragger.backend.ledgerwallet&#45;&gt;ragger.error -->
<g id="edge15" class="edge">
<title>ragger.backend.ledgerwallet&#45;&gt;ragger.error</title>
<path fill="none" stroke="black" d="M255.06,-324.03C285.73,-333.97 324.58,-346.56 356.71,-356.98"/>
<polygon fill="black" stroke="black" points="366.45,-360.13 355.55,-361.33 361.69,-358.59 356.94,-357.05 356.94,-357.05 356.94,-357.05 361.69,-358.59 358.32,-352.77 366.45,-360.13 366.45,-360.13"/>
</g>
<!-- ragger.backend.ledgerwallet&#45;&gt;ragger.utils -->
<g id="edge16" class="edge">
<title>ragger.backend.ledgerwallet&#45;&gt;ragger.utils</title>
<path fill="none" stroke="black" d="M208.77,-324.13C217.71,-348.54 234.2,-393.57 244.75,-422.36"/>
<polygon fill="black" stroke="black" points="248.21,-431.81 240.54,-423.97 246.49,-427.12 244.77,-422.42 244.77,-422.42 244.77,-422.42 246.49,-427.12 248.99,-420.87 248.21,-431.81 248.21,-431.81"/>
</g>
<!-- ragger.backend.speculos&#45;&gt;ragger -->
<g id="edge17" class="edge">
<title>ragger.backend.speculos&#45;&gt;ragger</title>
<path fill="none" stroke="black" d="M400.1,-324.12C385.59,-333.19 367.58,-344.45 351.91,-354.24"/>
<polygon fill="black" stroke="black" points="343,-359.81 349.1,-350.69 347.24,-357.16 351.48,-354.51 351.48,-354.51 351.48,-354.51 347.24,-357.16 353.87,-358.33 343,-359.81 343,-359.81"/>
</g>
<!-- ragger.backend.speculos&#45;&gt;ragger.backend.interface -->
<g id="edge18" class="edge">
<title>ragger.backend.speculos&#45;&gt;ragger.backend.interface</title>
<path fill="none" stroke="black" d="M484.44,-324.03C517.71,-333.99 559.86,-346.59 594.69,-357.01"/>
<polygon fill="black" stroke="black" points="604.3,-359.89 593.43,-361.33 599.51,-358.46 594.72,-357.02 594.72,-357.02 594.72,-357.02 599.51,-358.46 596.01,-352.71 604.3,-359.89 604.3,-359.89"/>
</g>
<!-- ragger.backend.speculos&#45;&gt;ragger.error -->
<g id="edge19" class="edge">
<title>ragger.backend.speculos&#45;&gt;ragger.error</title>
<path fill="none" stroke="black" d="M425.28,-324.3C424.28,-332.02 423.09,-341.29 421.99,-349.89"/>
<polygon fill="black" stroke="black" points="420.7,-359.9 417.51,-349.4 421.34,-354.94 421.97,-349.98 421.97,-349.98 421.97,-349.98 421.34,-354.94 426.44,-350.55 420.7,-359.9 420.7,-359.9"/>
</g>
<!-- ragger.backend.speculos&#45;&gt;ragger.firmware -->
<g id="edge20" class="edge">
<title>ragger.backend.speculos&#45;&gt;ragger.firmware</title>
<path fill="none" stroke="black" d="M446.71,-324.09C470.39,-344.27 512.67,-377.42 554.5,-396 604.1,-418.03 663.89,-431.4 710.34,-439.21"/>
<polygon fill="black" stroke="black" points="720.34,-440.84 709.75,-443.67 715.41,-440.03 710.47,-439.23 710.47,-439.23 710.47,-439.23 715.41,-440.03 711.2,-434.79 720.34,-440.84 720.34,-440.84"/>
</g>
<!-- ragger.backend.speculos&#45;&gt;ragger.utils -->
<g id="edge21" class="edge">
<title>ragger.backend.speculos&#45;&gt;ragger.utils</title>
<path fill="none" stroke="black" d="M330.88,-323.55C309.42,-331.4 288.59,-342.96 273.5,-360 258.65,-376.77 254.42,-402.25 253.6,-421.66"/>
<polygon fill="black" stroke="black" points="253.45,-431.72 249.1,-421.66 253.53,-426.72 253.6,-421.73 253.6,-421.73 253.6,-421.73 253.53,-426.72 258.1,-421.79 253.45,-431.72 253.45,-431.72"/>
</g>
<!-- ragger.bip -->
<g id="node7" class="node">
<title>ragger.bip</title>
<polygon fill="aquamarine" stroke="aquamarine" points="1076.5,-36 986.5,-36 986.5,0 1076.5,0 1076.5,-36"/>
<text text-anchor="middle" x="1031.5" y="-14.3" font-family="Times,serif" font-size="14.00">ragger.bip</text>
</g>
<!-- ragger.bip.path -->
<g id="node8" class="node">
<title>ragger.bip.path</title>
<polygon fill="aquamarine" stroke="aquamarine" points="1022,-108 895,-108 895,-72 1022,-72 1022,-108"/>
<text text-anchor="middle" x="958.5" y="-86.3" font-family="Times,serif" font-size="14.00">ragger.bip.path</text>
</g>
<!-- ragger.bip&#45;&gt;ragger.bip.path -->
<g id="edge22" class="edge">
<title>ragger.bip&#45;&gt;ragger.bip.path</title>
<path fill="none" stroke="black" d="M1013.46,-36.3C1004.44,-44.95 993.38,-55.55 983.56,-64.97"/>
<polygon fill="black" stroke="black" points="976.34,-71.9 980.44,-61.73 979.95,-68.44 983.56,-64.97 983.56,-64.97 983.56,-64.97 979.95,-68.44 986.67,-68.22 976.34,-71.9 976.34,-71.9"/>
</g>
<!-- ragger.bip.seed -->
<g id="node9" class="node">
<title>ragger.bip.seed</title>
<polygon fill="aquamarine" stroke="aquamarine" points="1168.5,-108 1040.5,-108 1040.5,-72 1168.5,-72 1168.5,-108"/>
<text text-anchor="middle" x="1104.5" y="-86.3" font-family="Times,serif" font-size="14.00">ragger.bip.seed</text>
</g>
<!-- ragger.bip&#45;&gt;ragger.bip.seed -->
<g id="edge23" class="edge">
<title>ragger.bip&#45;&gt;ragger.bip.seed</title>
<path fill="none" stroke="black" d="M1049.54,-36.3C1058.56,-44.95 1069.62,-55.55 1079.44,-64.97"/>
<polygon fill="black" stroke="black" points="1086.66,-71.9 1076.33,-68.22 1083.05,-68.44 1079.44,-64.97 1079.44,-64.97 1079.44,-64.97 1083.05,-68.44 1082.56,-61.73 1086.66,-71.9 1086.66,-71.9"/>
</g>
<!-- ragger.firmware.structs -->
<g id="node12" class="node">
<title>ragger.firmware.structs</title>
<polygon fill="burlywood" stroke="burlywood" points="820,-540 633,-540 633,-504 820,-504 820,-540"/>
<text text-anchor="middle" x="726.5" y="-518.3" font-family="Times,serif" font-size="14.00">ragger.firmware.structs</text>
</g>
<!-- ragger.firmware&#45;&gt;ragger.firmware.structs -->
<g id="edge24" class="edge">
<title>ragger.firmware&#45;&gt;ragger.firmware.structs</title>
<path fill="none" stroke="black" d="M771.67,-468.3C764.48,-476.7 755.7,-486.93 747.81,-496.14"/>
<polygon fill="black" stroke="black" points="741.16,-503.9 744.25,-493.37 744.41,-500.1 747.67,-496.3 747.67,-496.3 747.67,-496.3 744.41,-500.1 751.09,-499.23 741.16,-503.9 741.16,-503.9"/>
</g>
<!-- ragger.firmware.versions -->
<g id="node13" class="node">
<title>ragger.firmware.versions</title>
<polygon fill="burlywood" stroke="burlywood" points="885,-612 688,-612 688,-576 885,-576 885,-612"/>
<text text-anchor="middle" x="786.5" y="-590.3" font-family="Times,serif" font-size="14.00">ragger.firmware.versions</text>
</g>
<!-- ragger.firmware&#45;&gt;ragger.firmware.versions -->
<g id="edge25" class="edge">
<title>ragger.firmware&#45;&gt;ragger.firmware.versions</title>
<path fill="none" stroke="black" d="M805.1,-468.24C814.03,-477.8 823.79,-490.47 828.5,-504 833.76,-519.11 833.76,-524.89 828.5,-540 824.97,-550.14 818.59,-559.81 811.86,-568.04"/>
<polygon fill="black" stroke="black" points="805.1,-575.76 808.31,-565.27 808.4,-572 811.69,-568.23 811.69,-568.23 811.69,-568.23 808.4,-572 815.08,-571.2 805.1,-575.76 805.1,-575.76"/>
</g>
<!-- ragger.firmware.structs&#45;&gt;ragger.firmware.versions -->
<g id="edge26" class="edge">
<title>ragger.firmware.structs&#45;&gt;ragger.firmware.versions</title>
<path fill="none" stroke="black" d="M741.33,-540.3C748.52,-548.7 757.3,-558.93 765.19,-568.14"/>
<polygon fill="black" stroke="black" points="771.84,-575.9 761.91,-571.23 768.59,-572.1 765.33,-568.3 765.33,-568.3 765.33,-568.3 768.59,-572.1 768.75,-565.37 771.84,-575.9 771.84,-575.9"/>
</g>
<!-- ragger.navigator -->
<g id="node14" class="node">
<title>ragger.navigator</title>
<polygon fill="cadetblue" stroke="cadetblue" points="820.5,-36 684.5,-36 684.5,0 820.5,0 820.5,-36"/>
<text text-anchor="middle" x="752.5" y="-14.3" font-family="Times,serif" font-size="14.00">ragger.navigator</text>
</g>
<!-- ragger.navigator&#45;&gt;ragger.navigator -->
<g id="edge27" class="edge">
<title>ragger.navigator&#45;&gt;ragger.navigator</title>
<path fill="none" stroke="black" d="M820.63,-5.63C831.26,-7.48 838.5,-11.6 838.5,-18 838.5,-22.1 835.53,-25.26 830.6,-27.5"/>
<polygon fill="black" stroke="black" points="820.63,-30.37 828.99,-23.28 825.43,-28.99 830.24,-27.6 830.24,-27.6 830.24,-27.6 825.43,-28.99 831.48,-31.92 820.63,-30.37 820.63,-30.37"/>
</g>
<!-- ragger.navigator.nano_navigator -->
<g id="node15" class="node">
<title>ragger.navigator.nano_navigator</title>
<polygon fill="cadetblue" stroke="cadetblue" points="876.5,-108 628.5,-108 628.5,-72 876.5,-72 876.5,-108"/>
<text text-anchor="middle" x="752.5" y="-86.3" font-family="Times,serif" font-size="14.00">ragger.navigator.nano_navigator</text>
</g>
<!-- ragger.navigator&#45;&gt;ragger.navigator.nano_navigator -->
<g id="edge28" class="edge">
<title>ragger.navigator&#45;&gt;ragger.navigator.nano_navigator</title>
<path fill="none" stroke="black" d="M752.5,-36.3C752.5,-44.02 752.5,-53.29 752.5,-61.89"/>
<polygon fill="black" stroke="black" points="752.5,-71.9 748,-61.9 752.5,-66.9 752.5,-61.9 752.5,-61.9 752.5,-61.9 752.5,-66.9 757,-61.9 752.5,-71.9 752.5,-71.9"/>
</g>
<!-- ragger.navigator.nano_navigator&#45;&gt;ragger.backend -->
<g id="edge29" class="edge">
<title>ragger.navigator.nano_navigator&#45;&gt;ragger.backend</title>
<path fill="none" stroke="black" d="M686.01,-108.02C667.96,-115.96 650.41,-127.45 639.5,-144 627.63,-161.99 627.8,-186.78 630.42,-205.63"/>
<polygon fill="black" stroke="black" points="632.11,-215.68 626.01,-206.57 631.28,-210.75 630.45,-205.82 630.45,-205.82 630.45,-205.82 631.28,-210.75 634.89,-205.07 632.11,-215.68 632.11,-215.68"/>
</g>
<!-- ragger.navigator.nano_navigator&#45;&gt;ragger.firmware -->
<g id="edge30" class="edge">
<title>ragger.navigator.nano_navigator&#45;&gt;ragger.firmware</title>
<path fill="none" stroke="black" d="M813.36,-108.09C832.22,-116.15 851.46,-127.71 864.5,-144 889.83,-175.65 884.5,-192.46 884.5,-233 884.5,-233 884.5,-233 884.5,-307 884.5,-355.46 845.36,-399.39 816.55,-425.15"/>
<polygon fill="black" stroke="black" points="808.74,-431.92 813.34,-421.97 812.51,-428.65 816.29,-425.37 816.29,-425.37 816.29,-425.37 812.51,-428.65 819.24,-428.77 808.74,-431.92 808.74,-431.92"/>
</g>
<!-- ragger.navigator.navigator -->
<g id="node16" class="node">
<title>ragger.navigator.navigator</title>
<polygon fill="cadetblue" stroke="cadetblue" points="856,-180 649,-180 649,-144 856,-144 856,-180"/>
<text text-anchor="middle" x="752.5" y="-158.3" font-family="Times,serif" font-size="14.00">ragger.navigator.navigator</text>
</g>
<!-- ragger.navigator.nano_navigator&#45;&gt;ragger.navigator.navigator -->
<g id="edge31" class="edge">
<title>ragger.navigator.nano_navigator&#45;&gt;ragger.navigator.navigator</title>
<path fill="none" stroke="black" d="M752.5,-108.3C752.5,-116.02 752.5,-125.29 752.5,-133.89"/>
<polygon fill="black" stroke="black" points="752.5,-143.9 748,-133.9 752.5,-138.9 752.5,-133.9 752.5,-133.9 752.5,-133.9 752.5,-138.9 757,-133.9 752.5,-143.9 752.5,-143.9"/>
</g>
<!-- ragger.navigator.navigator&#45;&gt;ragger.backend -->
<g id="edge32" class="edge">
<title>ragger.navigator.navigator&#45;&gt;ragger.backend</title>
<path fill="none" stroke="black" d="M724.12,-180.12C708.96,-189.28 690.09,-200.66 673.76,-210.52"/>
<polygon fill="black" stroke="black" points="664.99,-215.81 671.22,-206.79 669.27,-213.23 673.55,-210.64 673.55,-210.64 673.55,-210.64 669.27,-213.23 675.87,-214.5 664.99,-215.81 664.99,-215.81"/>
</g>
<!-- ragger.navigator.navigator&#45;&gt;ragger.firmware -->
<g id="edge33" class="edge">
<title>ragger.navigator.navigator&#45;&gt;ragger.firmware</title>
<path fill="none" stroke="black" d="M762.74,-180.03C776.14,-203.4 798.91,-247.16 807.5,-288 817.34,-334.8 804.92,-390.27 795.42,-422.37"/>
<polygon fill="black" stroke="black" points="792.47,-431.93 791.11,-421.05 793.94,-427.16 795.41,-422.38 795.41,-422.38 795.41,-422.38 793.94,-427.16 799.71,-423.7 792.47,-431.93 792.47,-431.93"/>
</g>
<!-- ragger.navigator.navigator&#45;&gt;ragger.utils -->
<g id="edge34" class="edge">
<title>ragger.navigator.navigator&#45;&gt;ragger.utils</title>
<path fill="none" stroke="black" d="M648.81,-166.77C478.98,-175.35 153.29,-202.78 82.5,-288 36.54,-343.33 134.88,-398.61 200.96,-427.81"/>
<polygon fill="black" stroke="black" points="210.46,-431.92 199.49,-432.08 205.87,-429.93 201.28,-427.95 201.28,-427.95 201.28,-427.95 205.87,-429.93 203.07,-423.82 210.46,-431.92 210.46,-431.92"/>
</g>
<!-- ragger.utils.misc -->
<g id="node18" class="node">
<title>ragger.utils.misc</title>
<polygon fill="chartreuse" stroke="chartreuse" points="487,-540 350,-540 350,-504 487,-504 487,-540"/>
<text text-anchor="middle" x="418.5" y="-518.3" font-family="Times,serif" font-size="14.00">ragger.utils.misc</text>
</g>
<!-- ragger.utils&#45;&gt;ragger.utils.misc -->
<g id="edge35" class="edge">
<title>ragger.utils&#45;&gt;ragger.utils.misc</title>
<path fill="none" stroke="black" d="M294.62,-468.12C317.14,-477.74 345.42,-489.81 369.27,-499.99"/>
<polygon fill="black" stroke="black" points="378.51,-503.93 367.55,-504.14 373.91,-501.97 369.31,-500.01 369.31,-500.01 369.31,-500.01 373.91,-501.97 371.08,-495.87 378.51,-503.93 378.51,-503.93"/>
</g>
<!-- ragger.utils.packing -->
<g id="node19" class="node">
<title>ragger.utils.packing</title>
<polygon fill="chartreuse" stroke="chartreuse" points="159,-540 0,-540 0,-504 159,-504 159,-540"/>
<text text-anchor="middle" x="79.5" y="-518.3" font-family="Times,serif" font-size="14.00">ragger.utils.packing</text>
</g>
<!-- ragger.utils&#45;&gt;ragger.utils.packing -->
<g id="edge36" class="edge">
<title>ragger.utils&#45;&gt;ragger.utils.packing</title>
<path fill="none" stroke="black" d="M211.69,-468.12C187.55,-477.78 157.22,-489.91 131.69,-500.12"/>
<polygon fill="black" stroke="black" points="122.17,-503.93 129.78,-496.04 126.81,-502.07 131.46,-500.22 131.46,-500.22 131.46,-500.22 126.81,-502.07 133.13,-504.4 122.17,-503.93 122.17,-503.93"/>
</g>
<!-- ragger.utils.structs -->
<g id="node20" class="node">
<title>ragger.utils.structs</title>
<polygon fill="chartreuse" stroke="chartreuse" points="331.5,-540 177.5,-540 177.5,-504 331.5,-504 331.5,-540"/>
<text text-anchor="middle" x="254.5" y="-518.3" font-family="Times,serif" font-size="14.00">ragger.utils.structs</text>
</g>
<!-- ragger.utils&#45;&gt;ragger.utils.structs -->
<g id="edge37" class="edge">
<title>ragger.utils&#45;&gt;ragger.utils.structs</title>
<path fill="none" stroke="black" d="M254.5,-468.3C254.5,-476.02 254.5,-485.29 254.5,-493.89"/>
<polygon fill="black" stroke="black" points="254.5,-503.9 250,-493.9 254.5,-498.9 254.5,-493.9 254.5,-493.9 254.5,-493.9 254.5,-498.9 259,-493.9 254.5,-503.9 254.5,-503.9"/>
</g>
</g>
</svg>
