<?xml version="1.0" encoding="UTF-8" standalone="no"?>
<!DOCTYPE svg PUBLIC "-//W3C//DTD SVG 1.1//EN"
 "http://www.w3.org/Graphics/SVG/1.1/DTD/svg11.dtd">
<!-- Generated by graphviz version 2.43.0 (0)
 -->
<!-- Title: packages_generated_ragger_architecture Pages: 1 -->
<svg width="2369pt" height="980pt"
 viewBox="0.00 0.00 2368.50 980.00" xmlns="http://www.w3.org/2000/svg" xmlns:xlink="http://www.w3.org/1999/xlink">
<g id="graph0" class="graph" transform="scale(1 1) rotate(0) translate(4 976)">
<title>packages_generated_ragger_architecture</title>
<polygon fill="white" stroke="transparent" points="-4,4 -4,-976 2364.5,-976 2364.5,4 -4,4"/>
<!-- ragger -->
<g id="node1" class="node">
<title>ragger</title>
<polygon fill="#77aadd" stroke="#77aadd" points="106,-36 41,-36 41,0 106,0 106,-36"/>
<text text-anchor="middle" x="73.5" y="-14.3" font-family="Times,serif" font-size="14.00">ragger</text>
</g>
<!-- ragger.__version__ -->
<g id="node2" class="node">
<title>ragger.__version__</title>
<polygon fill="#77aadd" stroke="#77aadd" points="147,-108 0,-108 0,-72 147,-72 147,-108"/>
<text text-anchor="middle" x="73.5" y="-86.3" font-family="Times,serif" font-size="14.00">ragger.__version__</text>
</g>
<!-- ragger&#45;&gt;ragger.__version__ -->
<g id="edge1" class="edge">
<title>ragger&#45;&gt;ragger.__version__</title>
<path fill="none" stroke="black" d="M73.5,-36.3C73.5,-44.02 73.5,-53.29 73.5,-61.89"/>
<polygon fill="black" stroke="black" points="73.5,-71.9 69,-61.9 73.5,-66.9 73.5,-61.9 73.5,-61.9 73.5,-61.9 73.5,-66.9 78,-61.9 73.5,-71.9 73.5,-71.9"/>
</g>
<!-- ragger.backend -->
<g id="node3" class="node">
<title>ragger.backend</title>
<polygon fill="#99ddff" stroke="#99ddff" points="1249,-540 1122,-540 1122,-504 1249,-504 1249,-540"/>
<text text-anchor="middle" x="1185.5" y="-518.3" font-family="Times,serif" font-size="14.00">ragger.backend</text>
</g>
<!-- ragger.backend.interface -->
<g id="node4" class="node">
<title>ragger.backend.interface</title>
<polygon fill="#99ddff" stroke="#99ddff" points="1497,-756 1302,-756 1302,-720 1497,-720 1497,-756"/>
<text text-anchor="middle" x="1399.5" y="-734.3" font-family="Times,serif" font-size="14.00">ragger.backend.interface</text>
</g>
<!-- ragger.backend&#45;&gt;ragger.backend.interface -->
<g id="edge2" class="edge">
<title>ragger.backend&#45;&gt;ragger.backend.interface</title>
<path fill="none" stroke="black" d="M1249.02,-527.44C1324.46,-536.51 1447.26,-564.1 1504.5,-648 1513.52,-661.22 1512.89,-670.37 1504.5,-684 1496.2,-697.48 1483.3,-707.66 1469.35,-715.29"/>
<polygon fill="black" stroke="black" points="1460.06,-719.96 1466.98,-711.45 1464.53,-717.71 1469,-715.47 1469,-715.47 1469,-715.47 1464.53,-717.71 1471.02,-719.49 1460.06,-719.96 1460.06,-719.96"/>
</g>
<!-- ragger.backend.ledgercomm -->
<g id="node5" class="node">
<title>ragger.backend.ledgercomm</title>
<polygon fill="#99ddff" stroke="#99ddff" points="1136.5,-612 916.5,-612 916.5,-576 1136.5,-576 1136.5,-612"/>
<text text-anchor="middle" x="1026.5" y="-590.3" font-family="Times,serif" font-size="14.00">ragger.backend.ledgercomm</text>
</g>
<!-- ragger.backend&#45;&gt;ragger.backend.ledgercomm -->
<g id="edge3" class="edge">
<title>ragger.backend&#45;&gt;ragger.backend.ledgercomm</title>
<path fill="none" stroke="black" d="M1146.6,-540.12C1124.87,-549.69 1097.6,-561.7 1074.54,-571.85"/>
<polygon fill="black" stroke="black" points="1065.27,-575.93 1072.61,-567.78 1069.85,-573.92 1074.42,-571.9 1074.42,-571.9 1074.42,-571.9 1069.85,-573.92 1076.23,-576.02 1065.27,-575.93 1065.27,-575.93"/>
</g>
<!-- ragger.backend.ledgerwallet -->
<g id="node6" class="node">
<title>ragger.backend.ledgerwallet</title>
<polygon fill="#99ddff" stroke="#99ddff" points="892,-612 671,-612 671,-576 892,-576 892,-612"/>
<text text-anchor="middle" x="781.5" y="-590.3" font-family="Times,serif" font-size="14.00">ragger.backend.ledgerwallet</text>
</g>
<!-- ragger.backend&#45;&gt;ragger.backend.ledgerwallet -->
<g id="edge4" class="edge">
<title>ragger.backend&#45;&gt;ragger.backend.ledgerwallet</title>
<path fill="none" stroke="black" d="M1121.93,-534.01C1059.73,-544.79 963.78,-561.42 889.58,-574.27"/>
<polygon fill="black" stroke="black" points="879.72,-575.98 888.81,-569.84 884.65,-575.13 889.57,-574.27 889.57,-574.27 889.57,-574.27 884.65,-575.13 890.34,-578.71 879.72,-575.98 879.72,-575.98"/>
</g>
<!-- ragger.backend.speculos -->
<g id="node8" class="node">
<title>ragger.backend.speculos</title>
<polygon fill="#99ddff" stroke="#99ddff" points="1496,-684 1303,-684 1303,-648 1496,-648 1496,-684"/>
<text text-anchor="middle" x="1399.5" y="-662.3" font-family="Times,serif" font-size="14.00">ragger.backend.speculos</text>
</g>
<!-- ragger.backend&#45;&gt;ragger.backend.speculos -->
<g id="edge5" class="edge">
<title>ragger.backend&#45;&gt;ragger.backend.speculos</title>
<path fill="none" stroke="black" d="M1211.31,-540.13C1249.79,-565.66 1322.26,-613.75 1365.17,-642.22"/>
<polygon fill="black" stroke="black" points="1373.6,-647.81 1362.77,-646.03 1369.43,-645.05 1365.26,-642.28 1365.26,-642.28 1365.26,-642.28 1369.43,-645.05 1367.75,-638.53 1373.6,-647.81 1373.6,-647.81"/>
</g>
<!-- ragger.backend.stub -->
<g id="node9" class="node">
<title>ragger.backend.stub</title>
<polygon fill="#99ddff" stroke="#99ddff" points="1285,-684 1122,-684 1122,-648 1285,-648 1285,-684"/>
<text text-anchor="middle" x="1203.5" y="-662.3" font-family="Times,serif" font-size="14.00">ragger.backend.stub</text>
</g>
<!-- ragger.backend&#45;&gt;ragger.backend.stub -->
<g id="edge6" class="edge">
<title>ragger.backend&#45;&gt;ragger.backend.stub</title>
<path fill="none" stroke="black" d="M1187.67,-540.13C1190.74,-564.33 1196.37,-608.79 1200.03,-637.61"/>
<polygon fill="black" stroke="black" points="1201.32,-647.81 1195.6,-638.46 1200.69,-642.85 1200.06,-637.89 1200.06,-637.89 1200.06,-637.89 1200.69,-642.85 1204.53,-637.32 1201.32,-647.81 1201.32,-647.81"/>
</g>
<!-- ragger.firmware -->
<g id="node17" class="node">
<title>ragger.firmware</title>
<polygon fill="#aaaa00" stroke="#aaaa00" points="1708.5,-828 1576.5,-828 1576.5,-792 1708.5,-792 1708.5,-828"/>
<text text-anchor="middle" x="1642.5" y="-806.3" font-family="Times,serif" font-size="14.00">ragger.firmware</text>
</g>
<!-- ragger.backend.interface&#45;&gt;ragger.firmware -->
<g id="edge7" class="edge">
<title>ragger.backend.interface&#45;&gt;ragger.firmware</title>
<path fill="none" stroke="black" d="M1458.63,-756.03C1493.18,-765.99 1536.95,-778.59 1573.12,-789.01"/>
<polygon fill="black" stroke="black" points="1583.1,-791.89 1572.25,-793.45 1578.3,-790.51 1573.49,-789.12 1573.49,-789.12 1573.49,-789.12 1578.3,-790.51 1574.74,-784.8 1583.1,-791.89 1583.1,-791.89"/>
</g>
<!-- ragger.logger -->
<g id="node28" class="node">
<title>ragger.logger</title>
<polygon fill="#77aadd" stroke="#77aadd" points="1456,-972 1343,-972 1343,-936 1456,-936 1456,-972"/>
<text text-anchor="middle" x="1399.5" y="-950.3" font-family="Times,serif" font-size="14.00">ragger.logger</text>
</g>
<!-- ragger.backend.interface&#45;&gt;ragger.logger -->
<g id="edge8" class="edge">
<title>ragger.backend.interface&#45;&gt;ragger.logger</title>
<path fill="none" stroke="black" d="M1399.5,-756.15C1399.5,-793.17 1399.5,-880.82 1399.5,-925.61"/>
<polygon fill="black" stroke="black" points="1399.5,-935.77 1395,-925.77 1399.5,-930.77 1399.5,-925.77 1399.5,-925.77 1399.5,-925.77 1399.5,-930.77 1404,-925.77 1399.5,-935.77 1399.5,-935.77"/>
</g>
<!-- ragger.utils -->
<g id="node35" class="node">
<title>ragger.utils</title>
<polygon fill="#ffaabb" stroke="#ffaabb" points="833,-828 734,-828 734,-792 833,-792 833,-828"/>
<text text-anchor="middle" x="783.5" y="-806.3" font-family="Times,serif" font-size="14.00">ragger.utils</text>
</g>
<!-- ragger.backend.interface&#45;&gt;ragger.utils -->
<g id="edge9" class="edge">
<title>ragger.backend.interface&#45;&gt;ragger.utils</title>
<path fill="none" stroke="black" d="M1301.71,-743.94C1191.45,-750.55 1007.1,-764.74 850.5,-792 848.02,-792.43 845.49,-792.91 842.94,-793.42"/>
<polygon fill="black" stroke="black" points="833.08,-795.53 841.92,-789.04 837.97,-794.48 842.86,-793.44 842.86,-793.44 842.86,-793.44 837.97,-794.48 843.8,-797.84 833.08,-795.53 833.08,-795.53"/>
</g>
<!-- ragger.backend.ledgercomm&#45;&gt;ragger.backend.ledgercomm -->
<g id="edge10" class="edge">
<title>ragger.backend.ledgercomm&#45;&gt;ragger.backend.ledgercomm</title>
<path fill="none" stroke="black" d="M1136.65,-582.99C1147.56,-585.2 1154.5,-588.87 1154.5,-594 1154.5,-597.37 1151.51,-600.11 1146.37,-602.21"/>
<polygon fill="black" stroke="black" points="1136.65,-605.01 1145.02,-597.92 1141.46,-603.63 1146.26,-602.25 1146.26,-602.25 1146.26,-602.25 1141.46,-603.63 1147.51,-606.57 1136.65,-605.01 1136.65,-605.01"/>
</g>
<!-- ragger.backend.physical_backend -->
<g id="node7" class="node">
<title>ragger.backend.physical_backend</title>
<polygon fill="#99ddff" stroke="#99ddff" points="1065.5,-684 809.5,-684 809.5,-648 1065.5,-648 1065.5,-684"/>
<text text-anchor="middle" x="937.5" y="-662.3" font-family="Times,serif" font-size="14.00">ragger.backend.physical_backend</text>
</g>
<!-- ragger.backend.ledgercomm&#45;&gt;ragger.backend.physical_backend -->
<g id="edge11" class="edge">
<title>ragger.backend.ledgercomm&#45;&gt;ragger.backend.physical_backend</title>
<path fill="none" stroke="black" d="M1004.5,-612.3C993.29,-621.12 979.5,-631.97 967.35,-641.53"/>
<polygon fill="black" stroke="black" points="959.25,-647.9 964.33,-638.18 963.18,-644.8 967.11,-641.71 967.11,-641.71 967.11,-641.71 963.18,-644.8 969.89,-645.25 959.25,-647.9 959.25,-647.9"/>
</g>
<!-- ragger.error -->
<g id="node16" class="node">
<title>ragger.error</title>
<polygon fill="#77aadd" stroke="#77aadd" points="999.5,-972 895.5,-972 895.5,-936 999.5,-936 999.5,-972"/>
<text text-anchor="middle" x="947.5" y="-950.3" font-family="Times,serif" font-size="14.00">ragger.error</text>
</g>
<!-- ragger.backend.ledgercomm&#45;&gt;ragger.error -->
<g id="edge12" class="edge">
<title>ragger.backend.ledgercomm&#45;&gt;ragger.error</title>
<path fill="none" stroke="black" d="M1044.13,-612.31C1100.78,-668.87 1271.97,-847.56 1228.5,-900 1201.26,-932.85 1083.89,-945.48 1009.72,-950.24"/>
<polygon fill="black" stroke="black" points="999.55,-950.85 1009.26,-945.75 1004.54,-950.55 1009.53,-950.25 1009.53,-950.25 1009.53,-950.25 1004.54,-950.55 1009.81,-954.74 999.55,-950.85 999.55,-950.85"/>
</g>
<!-- ragger.backend.ledgercomm&#45;&gt;ragger.utils -->
<g id="edge13" class="edge">
<title>ragger.backend.ledgercomm&#45;&gt;ragger.utils</title>
<path fill="none" stroke="black" d="M931,-612.06C873.48,-623.25 809.61,-637.67 800.5,-648 767.98,-684.87 771.96,-746.51 777.75,-781.87"/>
<polygon fill="black" stroke="black" points="779.56,-791.94 773.36,-782.9 778.68,-787.02 777.79,-782.1 777.79,-782.1 777.79,-782.1 778.68,-787.02 782.22,-781.3 779.56,-791.94 779.56,-791.94"/>
</g>
<!-- ragger.backend.ledgerwallet&#45;&gt;ragger.backend.physical_backend -->
<g id="edge14" class="edge">
<title>ragger.backend.ledgerwallet&#45;&gt;ragger.backend.physical_backend</title>
<path fill="none" stroke="black" d="M819.66,-612.12C840.89,-621.65 867.51,-633.59 890.07,-643.72"/>
<polygon fill="black" stroke="black" points="899.46,-647.93 888.5,-647.94 894.9,-645.88 890.34,-643.84 890.34,-643.84 890.34,-643.84 894.9,-645.88 892.18,-639.73 899.46,-647.93 899.46,-647.93"/>
</g>
<!-- ragger.backend.ledgerwallet&#45;&gt;ragger.error -->
<g id="edge15" class="edge">
<title>ragger.backend.ledgerwallet&#45;&gt;ragger.error</title>
<path fill="none" stroke="black" d="M764.25,-612.14C716.26,-661.86 589.54,-808.44 665.5,-900 692.84,-932.96 810.63,-945.55 885.06,-950.27"/>
<polygon fill="black" stroke="black" points="895.26,-950.88 885.01,-954.77 890.27,-950.58 885.28,-950.28 885.28,-950.28 885.28,-950.28 890.27,-950.58 885.55,-945.79 895.26,-950.88 895.26,-950.88"/>
</g>
<!-- ragger.backend.ledgerwallet&#45;&gt;ragger.utils -->
<g id="edge16" class="edge">
<title>ragger.backend.ledgerwallet&#45;&gt;ragger.utils</title>
<path fill="none" stroke="black" d="M775.68,-612.44C772.57,-622.67 769.07,-635.92 767.5,-648 761.32,-695.6 760.49,-708.51 767.5,-756 768.78,-764.65 771.17,-773.85 773.72,-782.11"/>
<polygon fill="black" stroke="black" points="776.85,-791.63 769.45,-783.53 775.29,-786.88 773.72,-782.13 773.72,-782.13 773.72,-782.13 775.29,-786.88 778,-780.72 776.85,-791.63 776.85,-791.63"/>
</g>
<!-- ragger.backend.physical_backend&#45;&gt;ragger.backend.interface -->
<g id="edge17" class="edge">
<title>ragger.backend.physical_backend&#45;&gt;ragger.backend.interface</title>
<path fill="none" stroke="black" d="M1049.93,-684.03C1123.52,-695.19 1219.15,-709.67 1291.78,-720.68"/>
<polygon fill="black" stroke="black" points="1301.87,-722.21 1291.31,-725.16 1296.93,-721.46 1291.98,-720.71 1291.98,-720.71 1291.98,-720.71 1296.93,-721.46 1292.66,-716.26 1301.87,-722.21 1301.87,-722.21"/>
</g>
<!-- ragger.gui -->
<g id="node25" class="node">
<title>ragger.gui</title>
<polygon fill="#eedd88" stroke="#eedd88" points="981.5,-756 891.5,-756 891.5,-720 981.5,-720 981.5,-756"/>
<text text-anchor="middle" x="936.5" y="-734.3" font-family="Times,serif" font-size="14.00">ragger.gui</text>
</g>
<!-- ragger.backend.physical_backend&#45;&gt;ragger.gui -->
<g id="edge18" class="edge">
<title>ragger.backend.physical_backend&#45;&gt;ragger.gui</title>
<path fill="none" stroke="black" d="M937.25,-684.3C937.14,-692.02 937.01,-701.29 936.89,-709.89"/>
<polygon fill="black" stroke="black" points="936.74,-719.9 932.39,-709.83 936.82,-714.9 936.89,-709.9 936.89,-709.9 936.89,-709.9 936.82,-714.9 941.39,-709.96 936.74,-719.9 936.74,-719.9"/>
</g>
<!-- ragger.navigator.instruction -->
<g id="node30" class="node">
<title>ragger.navigator.instruction</title>
<polygon fill="#ee8866" stroke="#ee8866" points="619,-900 402,-900 402,-864 619,-864 619,-900"/>
<text text-anchor="middle" x="510.5" y="-878.3" font-family="Times,serif" font-size="14.00">ragger.navigator.instruction</text>
</g>
<!-- ragger.backend.physical_backend&#45;&gt;ragger.navigator.instruction -->
<g id="edge19" class="edge">
<title>ragger.backend.physical_backend&#45;&gt;ragger.navigator.instruction</title>
<path fill="none" stroke="black" d="M895.56,-684.09C871.61,-694.09 841.13,-707.24 814.5,-720 717.63,-766.43 606.8,-827.1 549.46,-859.08"/>
<polygon fill="black" stroke="black" points="540.72,-863.95 547.26,-855.15 545.09,-861.52 549.45,-859.08 549.45,-859.08 549.45,-859.08 545.09,-861.52 551.65,-863.01 540.72,-863.95 540.72,-863.95"/>
</g>
<!-- ragger.backend.physical_backend&#45;&gt;ragger.utils -->
<g id="edge20" class="edge">
<title>ragger.backend.physical_backend&#45;&gt;ragger.utils</title>
<path fill="none" stroke="black" d="M901.01,-684.02C883.66,-693.19 863.3,-705.58 847.5,-720 827.33,-738.41 809.66,-764.15 798.03,-783.22"/>
<polygon fill="black" stroke="black" points="792.82,-791.98 794.06,-781.08 795.37,-787.68 797.93,-783.38 797.93,-783.38 797.93,-783.38 795.37,-787.68 801.79,-785.68 792.82,-791.98 792.82,-791.98"/>
</g>
<!-- ragger.backend.speculos&#45;&gt;ragger.backend.interface -->
<g id="edge21" class="edge">
<title>ragger.backend.speculos&#45;&gt;ragger.backend.interface</title>
<path fill="none" stroke="black" d="M1399.5,-684.3C1399.5,-692.02 1399.5,-701.29 1399.5,-709.89"/>
<polygon fill="black" stroke="black" points="1399.5,-719.9 1395,-709.9 1399.5,-714.9 1399.5,-709.9 1399.5,-709.9 1399.5,-709.9 1399.5,-714.9 1404,-709.9 1399.5,-719.9 1399.5,-719.9"/>
</g>
<!-- ragger.backend.speculos&#45;&gt;ragger.error -->
<g id="edge22" class="edge">
<title>ragger.backend.speculos&#45;&gt;ragger.error</title>
<path fill="none" stroke="black" d="M1341.41,-684.03C1323.17,-692.13 1304.64,-703.71 1292.5,-720 1243.97,-785.08 1319,-842.69 1261.5,-900 1227,-934.39 1091.22,-946.55 1009.94,-950.78"/>
<polygon fill="black" stroke="black" points="999.82,-951.29 1009.58,-946.3 1004.81,-951.04 1009.81,-950.79 1009.81,-950.79 1009.81,-950.79 1004.81,-951.04 1010.03,-955.29 999.82,-951.29 999.82,-951.29"/>
</g>
<!-- ragger.backend.speculos&#45;&gt;ragger.logger -->
<g id="edge23" class="edge">
<title>ragger.backend.speculos&#45;&gt;ragger.logger</title>
<path fill="none" stroke="black" d="M1460.91,-684.05C1478.34,-692.03 1495.33,-703.55 1505.5,-720 1513.91,-733.61 1509.41,-740.48 1505.5,-756 1488.7,-822.66 1444.46,-891.32 1418.75,-927.34"/>
<polygon fill="black" stroke="black" points="1412.65,-935.78 1414.87,-925.04 1415.58,-931.73 1418.51,-927.68 1418.51,-927.68 1418.51,-927.68 1415.58,-931.73 1422.16,-930.32 1412.65,-935.78 1412.65,-935.78"/>
</g>
<!-- ragger.backend.speculos&#45;&gt;ragger.utils -->
<g id="edge24" class="edge">
<title>ragger.backend.speculos&#45;&gt;ragger.utils</title>
<path fill="none" stroke="black" d="M1302.78,-682.8C1299.65,-683.22 1296.55,-683.62 1293.5,-684 1202.51,-695.27 965.32,-680.66 882.5,-720 862.34,-729.57 863.9,-740.86 847.5,-756 836.69,-765.98 824.33,-776.42 813.38,-785.37"/>
<polygon fill="black" stroke="black" points="805.32,-791.9 810.27,-782.11 809.21,-788.75 813.1,-785.6 813.1,-785.6 813.1,-785.6 809.21,-788.75 815.93,-789.1 805.32,-791.9 805.32,-791.9"/>
</g>
<!-- ragger.backend.stub&#45;&gt;ragger.backend.interface -->
<g id="edge25" class="edge">
<title>ragger.backend.stub&#45;&gt;ragger.backend.interface</title>
<path fill="none" stroke="black" d="M1251.2,-684.03C1278.58,-693.81 1313.16,-706.16 1342.03,-716.48"/>
<polygon fill="black" stroke="black" points="1351.59,-719.89 1340.66,-720.76 1346.88,-718.21 1342.17,-716.53 1342.17,-716.53 1342.17,-716.53 1346.88,-718.21 1343.69,-712.29 1351.59,-719.89 1351.59,-719.89"/>
</g>
<!-- ragger.utils.structs -->
<g id="node38" class="node">
<title>ragger.utils.structs</title>
<polygon fill="#ffaabb" stroke="#ffaabb" points="1219.5,-900 1065.5,-900 1065.5,-864 1219.5,-864 1219.5,-900"/>
<text text-anchor="middle" x="1142.5" y="-878.3" font-family="Times,serif" font-size="14.00">ragger.utils.structs</text>
</g>
<!-- ragger.backend.stub&#45;&gt;ragger.utils.structs -->
<g id="edge26" class="edge">
<title>ragger.backend.stub&#45;&gt;ragger.utils.structs</title>
<path fill="none" stroke="black" d="M1198.61,-684.15C1188.04,-721.25 1162.97,-809.19 1150.23,-853.9"/>
<polygon fill="black" stroke="black" points="1147.41,-863.77 1145.83,-852.92 1148.78,-858.96 1150.15,-854.15 1150.15,-854.15 1150.15,-854.15 1148.78,-858.96 1154.48,-855.38 1147.41,-863.77 1147.41,-863.77"/>
</g>
<!-- ragger.bip -->
<g id="node10" class="node">
<title>ragger.bip</title>
<polygon fill="#44bb99" stroke="#44bb99" points="1974.5,-36 1884.5,-36 1884.5,0 1974.5,0 1974.5,-36"/>
<text text-anchor="middle" x="1929.5" y="-14.3" font-family="Times,serif" font-size="14.00">ragger.bip</text>
</g>
<!-- ragger.bip.path -->
<g id="node11" class="node">
<title>ragger.bip.path</title>
<polygon fill="#44bb99" stroke="#44bb99" points="1920,-108 1793,-108 1793,-72 1920,-72 1920,-108"/>
<text text-anchor="middle" x="1856.5" y="-86.3" font-family="Times,serif" font-size="14.00">ragger.bip.path</text>
</g>
<!-- ragger.bip&#45;&gt;ragger.bip.path -->
<g id="edge27" class="edge">
<title>ragger.bip&#45;&gt;ragger.bip.path</title>
<path fill="none" stroke="black" d="M1911.46,-36.3C1902.44,-44.95 1891.38,-55.55 1881.56,-64.97"/>
<polygon fill="black" stroke="black" points="1874.34,-71.9 1878.44,-61.73 1877.95,-68.44 1881.56,-64.97 1881.56,-64.97 1881.56,-64.97 1877.95,-68.44 1884.67,-68.22 1874.34,-71.9 1874.34,-71.9"/>
</g>
<!-- ragger.bip.seed -->
<g id="node12" class="node">
<title>ragger.bip.seed</title>
<polygon fill="#44bb99" stroke="#44bb99" points="2066.5,-108 1938.5,-108 1938.5,-72 2066.5,-72 2066.5,-108"/>
<text text-anchor="middle" x="2002.5" y="-86.3" font-family="Times,serif" font-size="14.00">ragger.bip.seed</text>
</g>
<!-- ragger.bip&#45;&gt;ragger.bip.seed -->
<g id="edge28" class="edge">
<title>ragger.bip&#45;&gt;ragger.bip.seed</title>
<path fill="none" stroke="black" d="M1947.54,-36.3C1956.56,-44.95 1967.62,-55.55 1977.44,-64.97"/>
<polygon fill="black" stroke="black" points="1984.66,-71.9 1974.33,-68.22 1981.05,-68.44 1977.44,-64.97 1977.44,-64.97 1977.44,-64.97 1981.05,-68.44 1980.56,-61.73 1984.66,-71.9 1984.66,-71.9"/>
</g>
<!-- ragger.conftest -->
<g id="node13" class="node">
<title>ragger.conftest</title>
<polygon fill="#bbcc33" stroke="#bbcc33" points="2118,-36 1993,-36 1993,0 2118,0 2118,-36"/>
<text text-anchor="middle" x="2055.5" y="-14.3" font-family="Times,serif" font-size="14.00">ragger.conftest</text>
</g>
<!-- ragger.conftest.base_conftest -->
<g id="node14" class="node">
<title>ragger.conftest.base_conftest</title>
<polygon fill="#bbcc33" stroke="#bbcc33" points="1463,-36 1236,-36 1236,0 1463,0 1463,-36"/>
<text text-anchor="middle" x="1349.5" y="-14.3" font-family="Times,serif" font-size="14.00">ragger.conftest.base_conftest</text>
</g>
<!-- ragger.conftest.base_conftest&#45;&gt;ragger.backend -->
<g id="edge29" class="edge">
<title>ragger.conftest.base_conftest&#45;&gt;ragger.backend</title>
<path fill="none" stroke="black" d="M1458.01,-36.06C1527.42,-53.86 1604.5,-89.68 1604.5,-161 1604.5,-161 1604.5,-161 1604.5,-379 1604.5,-451.02 1379.65,-493.73 1259.38,-511.42"/>
<polygon fill="black" stroke="black" points="1249.14,-512.9 1258.39,-507.01 1254.09,-512.18 1259.03,-511.47 1259.03,-511.47 1259.03,-511.47 1254.09,-512.18 1259.68,-515.92 1249.14,-512.9 1249.14,-512.9"/>
</g>
<!-- ragger.conftest.base_conftest&#45;&gt;ragger.firmware -->
<g id="edge30" class="edge">
<title>ragger.conftest.base_conftest&#45;&gt;ragger.firmware</title>
<path fill="none" stroke="black" d="M1463.2,-29.04C1545.56,-43.3 1642.5,-77.76 1642.5,-161 1642.5,-161 1642.5,-161 1642.5,-667 1642.5,-707 1642.5,-753.35 1642.5,-781.92"/>
<polygon fill="black" stroke="black" points="1642.5,-791.95 1638,-781.95 1642.5,-786.95 1642.5,-781.95 1642.5,-781.95 1642.5,-781.95 1642.5,-786.95 1647,-781.95 1642.5,-791.95 1642.5,-791.95"/>
</g>
<!-- ragger.conftest.base_conftest&#45;&gt;ragger.logger -->
<g id="edge31" class="edge">
<title>ragger.conftest.base_conftest&#45;&gt;ragger.logger</title>
<path fill="none" stroke="black" d="M1463.17,-35.17C1586.04,-55.93 1764.5,-97.08 1764.5,-161 1764.5,-161 1764.5,-161 1764.5,-811 1764.5,-851.45 1774.92,-872.25 1745.5,-900 1706.29,-936.99 1555.25,-948.17 1466.21,-951.54"/>
<polygon fill="black" stroke="black" points="1456.21,-951.9 1466.04,-947.04 1461.2,-951.72 1466.2,-951.54 1466.2,-951.54 1466.2,-951.54 1461.2,-951.72 1466.36,-956.04 1456.21,-951.9 1456.21,-951.9"/>
</g>
<!-- ragger.navigator -->
<g id="node29" class="node">
<title>ragger.navigator</title>
<polygon fill="#ee8866" stroke="#ee8866" points="1115.5,-108 979.5,-108 979.5,-72 1115.5,-72 1115.5,-108"/>
<text text-anchor="middle" x="1047.5" y="-86.3" font-family="Times,serif" font-size="14.00">ragger.navigator</text>
</g>
<!-- ragger.conftest.base_conftest&#45;&gt;ragger.navigator -->
<g id="edge32" class="edge">
<title>ragger.conftest.base_conftest&#45;&gt;ragger.navigator</title>
<path fill="none" stroke="black" d="M1276.01,-36.03C1230.46,-46.59 1172.01,-60.14 1125.63,-70.89"/>
<polygon fill="black" stroke="black" points="1115.62,-73.21 1124.35,-66.57 1120.49,-72.08 1125.36,-70.95 1125.36,-70.95 1125.36,-70.95 1120.49,-72.08 1126.38,-75.34 1115.62,-73.21 1115.62,-73.21"/>
</g>
<!-- ragger.conftest.base_conftest&#45;&gt;ragger.utils -->
<g id="edge33" class="edge">
<title>ragger.conftest.base_conftest&#45;&gt;ragger.utils</title>
<path fill="none" stroke="black" d="M1235.9,-21.43C948.19,-29.1 213.5,-58.7 213.5,-161 213.5,-161 213.5,-161 213.5,-307 213.5,-583.92 398.4,-631 645.5,-756 670.57,-768.68 699.43,-780.21 724.26,-789.25"/>
<polygon fill="black" stroke="black" points="733.92,-792.72 722.98,-793.57 729.21,-791.03 724.5,-789.34 724.5,-789.34 724.5,-789.34 729.21,-791.03 726.02,-785.1 733.92,-792.72 733.92,-792.72"/>
</g>
<!-- ragger.utils.misc -->
<g id="node36" class="node">
<title>ragger.utils.misc</title>
<polygon fill="#ffaabb" stroke="#ffaabb" points="384,-900 247,-900 247,-864 384,-864 384,-900"/>
<text text-anchor="middle" x="315.5" y="-878.3" font-family="Times,serif" font-size="14.00">ragger.utils.misc</text>
</g>
<!-- ragger.conftest.base_conftest&#45;&gt;ragger.utils.misc -->
<g id="edge34" class="edge">
<title>ragger.conftest.base_conftest&#45;&gt;ragger.utils.misc</title>
<path fill="none" stroke="black" d="M1235.95,-21.34C984.01,-27.03 393.63,-43.26 307.5,-72 240.38,-94.39 175.5,-90.24 175.5,-161 175.5,-161 175.5,-161 175.5,-739 175.5,-793.99 229.4,-835.41 270.31,-858.93"/>
<polygon fill="black" stroke="black" points="279.08,-863.81 268.16,-862.88 274.71,-861.38 270.35,-858.95 270.35,-858.95 270.35,-858.95 274.71,-861.38 272.54,-855.02 279.08,-863.81 279.08,-863.81"/>
</g>
<!-- ragger.conftest.configuration -->
<g id="node15" class="node">
<title>ragger.conftest.configuration</title>
<polygon fill="#bbcc33" stroke="#bbcc33" points="2360.5,-36 2136.5,-36 2136.5,0 2360.5,0 2360.5,-36"/>
<text text-anchor="middle" x="2248.5" y="-14.3" font-family="Times,serif" font-size="14.00">ragger.conftest.configuration</text>
</g>
<!-- ragger.firmware.structs -->
<g id="node18" class="node">
<title>ragger.firmware.structs</title>
<polygon fill="#aaaa00" stroke="#aaaa00" points="1737,-900 1550,-900 1550,-864 1737,-864 1737,-900"/>
<text text-anchor="middle" x="1643.5" y="-878.3" font-family="Times,serif" font-size="14.00">ragger.firmware.structs</text>
</g>
<!-- ragger.firmware&#45;&gt;ragger.firmware.structs -->
<g id="edge35" class="edge">
<title>ragger.firmware&#45;&gt;ragger.firmware.structs</title>
<path fill="none" stroke="black" d="M1642.75,-828.3C1642.86,-836.02 1642.99,-845.29 1643.11,-853.89"/>
<polygon fill="black" stroke="black" points="1643.26,-863.9 1638.61,-853.96 1643.18,-858.9 1643.11,-853.9 1643.11,-853.9 1643.11,-853.9 1643.18,-858.9 1647.61,-853.83 1643.26,-863.9 1643.26,-863.9"/>
</g>
<!-- ragger.firmware.touch -->
<g id="node19" class="node">
<title>ragger.firmware.touch</title>
<polygon fill="#aaaa00" stroke="#aaaa00" points="844.5,-252 668.5,-252 668.5,-216 844.5,-216 844.5,-252"/>
<text text-anchor="middle" x="756.5" y="-230.3" font-family="Times,serif" font-size="14.00">ragger.firmware.touch</text>
</g>
<!-- ragger.firmware.touch.screen -->
<g id="node23" class="node">
<title>ragger.firmware.touch.screen</title>
<polygon fill="#aaaa00" stroke="#aaaa00" points="855.5,-324 627.5,-324 627.5,-288 855.5,-288 855.5,-324"/>
<text text-anchor="middle" x="741.5" y="-302.3" font-family="Times,serif" font-size="14.00">ragger.firmware.touch.screen</text>
</g>
<!-- ragger.firmware.touch&#45;&gt;ragger.firmware.touch.screen -->
<g id="edge36" class="edge">
<title>ragger.firmware.touch&#45;&gt;ragger.firmware.touch.screen</title>
<path fill="none" stroke="black" d="M752.79,-252.3C751.14,-260.02 749.15,-269.29 747.31,-277.89"/>
<polygon fill="black" stroke="black" points="745.17,-287.9 742.86,-277.17 746.21,-283.01 747.26,-278.12 747.26,-278.12 747.26,-278.12 746.21,-283.01 751.66,-279.06 745.17,-287.9 745.17,-287.9"/>
</g>
<!-- ragger.firmware.touch.element -->
<g id="node20" class="node">
<title>ragger.firmware.touch.element</title>
<polygon fill="#aaaa00" stroke="#aaaa00" points="601,-468 362,-468 362,-432 601,-432 601,-468"/>
<text text-anchor="middle" x="481.5" y="-446.3" font-family="Times,serif" font-size="14.00">ragger.firmware.touch.element</text>
</g>
<!-- ragger.firmware.touch.element&#45;&gt;ragger.backend -->
<g id="edge37" class="edge">
<title>ragger.firmware.touch.element&#45;&gt;ragger.backend</title>
<path fill="none" stroke="black" d="M601.32,-462.91C747.4,-477.44 989.76,-501.54 1111.25,-513.62"/>
<polygon fill="black" stroke="black" points="1121.56,-514.64 1111.17,-518.13 1116.59,-514.15 1111.61,-513.65 1111.61,-513.65 1111.61,-513.65 1116.59,-514.15 1112.06,-509.18 1121.56,-514.64 1121.56,-514.64"/>
</g>
<!-- ragger.firmware.touch.positions -->
<g id="node22" class="node">
<title>ragger.firmware.touch.positions</title>
<polygon fill="#aaaa00" stroke="#aaaa00" points="563,-540 318,-540 318,-504 563,-504 563,-540"/>
<text text-anchor="middle" x="440.5" y="-518.3" font-family="Times,serif" font-size="14.00">ragger.firmware.touch.positions</text>
</g>
<!-- ragger.firmware.touch.element&#45;&gt;ragger.firmware.touch.positions -->
<g id="edge38" class="edge">
<title>ragger.firmware.touch.element&#45;&gt;ragger.firmware.touch.positions</title>
<path fill="none" stroke="black" d="M471.37,-468.3C466.65,-476.36 460.94,-486.11 455.72,-495.02"/>
<polygon fill="black" stroke="black" points="450.52,-503.9 451.69,-492.99 453.05,-499.58 455.57,-495.27 455.57,-495.27 455.57,-495.27 453.05,-499.58 459.46,-497.54 450.52,-503.9 450.52,-503.9"/>
</g>
<!-- ragger.firmware.touch.layouts -->
<g id="node21" class="node">
<title>ragger.firmware.touch.layouts</title>
<polygon fill="#aaaa00" stroke="#aaaa00" points="858,-396 625,-396 625,-360 858,-360 858,-396"/>
<text text-anchor="middle" x="741.5" y="-374.3" font-family="Times,serif" font-size="14.00">ragger.firmware.touch.layouts</text>
</g>
<!-- ragger.firmware.touch.layouts&#45;&gt;ragger.firmware.touch.element -->
<g id="edge39" class="edge">
<title>ragger.firmware.touch.layouts&#45;&gt;ragger.firmware.touch.element</title>
<path fill="none" stroke="black" d="M678.23,-396.03C640.95,-406.07 593.64,-418.81 554.75,-429.28"/>
<polygon fill="black" stroke="black" points="545.05,-431.89 553.54,-424.94 549.88,-430.59 554.71,-429.29 554.71,-429.29 554.71,-429.29 549.88,-430.59 555.88,-433.63 545.05,-431.89 545.05,-431.89"/>
</g>
<!-- ragger.firmware.touch.screen&#45;&gt;ragger.backend -->
<g id="edge40" class="edge">
<title>ragger.firmware.touch.screen&#45;&gt;ragger.backend</title>
<path fill="none" stroke="black" d="M807.68,-324.1C828.61,-332.17 850.45,-343.72 866.5,-360 902.89,-396.91 870.43,-435.12 910.5,-468 940.64,-492.73 1040.93,-507.27 1111.66,-514.69"/>
<polygon fill="black" stroke="black" points="1121.86,-515.73 1111.46,-519.19 1116.89,-515.23 1111.92,-514.72 1111.92,-514.72 1111.92,-514.72 1116.89,-515.23 1112.37,-510.24 1121.86,-515.73 1121.86,-515.73"/>
</g>
<!-- ragger.firmware.touch.screen&#45;&gt;ragger.firmware.touch.element -->
<g id="edge41" class="edge">
<title>ragger.firmware.touch.screen&#45;&gt;ragger.firmware.touch.element</title>
<path fill="none" stroke="black" d="M627.28,-314.74C517.28,-323.38 364.89,-338.97 346.5,-360 335.97,-372.04 337.49,-382.78 346.5,-396 355.9,-409.78 369.47,-419.98 384.43,-427.53"/>
<polygon fill="black" stroke="black" points="393.9,-431.89 382.93,-431.79 389.36,-429.8 384.82,-427.71 384.82,-427.71 384.82,-427.71 389.36,-429.8 386.7,-423.62 393.9,-431.89 393.9,-431.89"/>
</g>
<!-- ragger.firmware.touch.screen&#45;&gt;ragger.firmware.touch.layouts -->
<g id="edge42" class="edge">
<title>ragger.firmware.touch.screen&#45;&gt;ragger.firmware.touch.layouts</title>
<path fill="none" stroke="black" d="M741.5,-324.3C741.5,-332.02 741.5,-341.29 741.5,-349.89"/>
<polygon fill="black" stroke="black" points="741.5,-359.9 737,-349.9 741.5,-354.9 741.5,-349.9 741.5,-349.9 741.5,-349.9 741.5,-354.9 746,-349.9 741.5,-359.9 741.5,-359.9"/>
</g>
<!-- ragger.firmware.touch.use_cases -->
<g id="node24" class="node">
<title>ragger.firmware.touch.use_cases</title>
<polygon fill="#aaaa00" stroke="#aaaa00" points="607,-396 356,-396 356,-360 607,-360 607,-396"/>
<text text-anchor="middle" x="481.5" y="-374.3" font-family="Times,serif" font-size="14.00">ragger.firmware.touch.use_cases</text>
</g>
<!-- ragger.firmware.touch.screen&#45;&gt;ragger.firmware.touch.use_cases -->
<g id="edge43" class="edge">
<title>ragger.firmware.touch.screen&#45;&gt;ragger.firmware.touch.use_cases</title>
<path fill="none" stroke="black" d="M678.23,-324.03C640.95,-334.07 593.64,-346.81 554.75,-357.28"/>
<polygon fill="black" stroke="black" points="545.05,-359.89 553.54,-352.94 549.88,-358.59 554.71,-357.29 554.71,-357.29 554.71,-357.29 549.88,-358.59 555.88,-361.63 545.05,-359.89 545.05,-359.89"/>
</g>
<!-- ragger.firmware.touch.use_cases&#45;&gt;ragger.firmware.touch.element -->
<g id="edge44" class="edge">
<title>ragger.firmware.touch.use_cases&#45;&gt;ragger.firmware.touch.element</title>
<path fill="none" stroke="black" d="M481.5,-396.3C481.5,-404.02 481.5,-413.29 481.5,-421.89"/>
<polygon fill="black" stroke="black" points="481.5,-431.9 477,-421.9 481.5,-426.9 481.5,-421.9 481.5,-421.9 481.5,-421.9 481.5,-426.9 486,-421.9 481.5,-431.9 481.5,-431.9"/>
</g>
<!-- ragger.gui.process -->
<g id="node27" class="node">
<title>ragger.gui.process</title>
<polygon fill="#eedd88" stroke="#eedd88" points="1009,-828 860,-828 860,-792 1009,-792 1009,-828"/>
<text text-anchor="middle" x="934.5" y="-806.3" font-family="Times,serif" font-size="14.00">ragger.gui.process</text>
</g>
<!-- ragger.gui&#45;&gt;ragger.gui.process -->
<g id="edge45" class="edge">
<title>ragger.gui&#45;&gt;ragger.gui.process</title>
<path fill="none" stroke="black" d="M936.01,-756.3C935.79,-764.02 935.52,-773.29 935.27,-781.89"/>
<polygon fill="black" stroke="black" points="934.99,-791.9 930.78,-781.77 935.13,-786.9 935.27,-781.9 935.27,-781.9 935.27,-781.9 935.13,-786.9 939.77,-782.03 934.99,-791.9 934.99,-791.9"/>
</g>
<!-- ragger.gui.interface -->
<g id="node26" class="node">
<title>ragger.gui.interface</title>
<polygon fill="#eedd88" stroke="#eedd88" points="1009.5,-900 851.5,-900 851.5,-864 1009.5,-864 1009.5,-900"/>
<text text-anchor="middle" x="930.5" y="-878.3" font-family="Times,serif" font-size="14.00">ragger.gui.interface</text>
</g>
<!-- ragger.gui.interface&#45;&gt;ragger.logger -->
<g id="edge46" class="edge">
<title>ragger.gui.interface&#45;&gt;ragger.logger</title>
<path fill="none" stroke="black" d="M1009.61,-897.69C1014.31,-898.49 1018.96,-899.27 1023.5,-900 1131.34,-917.45 1257.11,-934.51 1332.41,-944.38"/>
<polygon fill="black" stroke="black" points="1342.7,-945.73 1332.2,-948.89 1337.74,-945.08 1332.78,-944.43 1332.78,-944.43 1332.78,-944.43 1337.74,-945.08 1333.37,-939.97 1342.7,-945.73 1342.7,-945.73"/>
</g>
<!-- ragger.gui.process&#45;&gt;ragger.gui.interface -->
<g id="edge47" class="edge">
<title>ragger.gui.process&#45;&gt;ragger.gui.interface</title>
<path fill="none" stroke="black" d="M933.51,-828.3C933.07,-836.02 932.54,-845.29 932.05,-853.89"/>
<polygon fill="black" stroke="black" points="931.48,-863.9 927.56,-853.66 931.76,-858.9 932.05,-853.91 932.05,-853.91 932.05,-853.91 931.76,-858.9 936.54,-854.17 931.48,-863.9 931.48,-863.9"/>
</g>
<!-- ragger.gui.process&#45;&gt;ragger.logger -->
<g id="edge48" class="edge">
<title>ragger.gui.process&#45;&gt;ragger.logger</title>
<path fill="none" stroke="black" d="M964.61,-828.04C981.05,-837.83 1001.48,-850.77 1018.5,-864 1036.87,-878.28 1035.61,-889.76 1056.5,-900 1103.88,-923.23 1246.96,-939.48 1332.62,-947.43"/>
<polygon fill="black" stroke="black" points="1342.78,-948.36 1332.41,-951.93 1337.8,-947.9 1332.82,-947.45 1332.82,-947.45 1332.82,-947.45 1337.8,-947.9 1333.23,-942.96 1342.78,-948.36 1342.78,-948.36"/>
</g>
<!-- ragger.gui.process&#45;&gt;ragger.navigator.instruction -->
<g id="edge49" class="edge">
<title>ragger.gui.process&#45;&gt;ragger.navigator.instruction</title>
<path fill="none" stroke="black" d="M859.91,-824.78C853.68,-825.89 847.49,-826.97 841.5,-828 771.13,-840.06 692.18,-852.74 629.05,-862.67"/>
<polygon fill="black" stroke="black" points="619.05,-864.24 628.23,-858.24 623.99,-863.46 628.93,-862.68 628.93,-862.68 628.93,-862.68 623.99,-863.46 629.63,-867.13 619.05,-864.24 619.05,-864.24"/>
</g>
<!-- ragger.navigator&#45;&gt;ragger.navigator.instruction -->
<g id="edge50" class="edge">
<title>ragger.navigator&#45;&gt;ragger.navigator.instruction</title>
<path fill="none" stroke="black" d="M979.29,-96C786.5,-111.02 251.5,-159.35 251.5,-233 251.5,-233 251.5,-233 251.5,-307 251.5,-403.6 213.5,-424.4 213.5,-521 213.5,-521 213.5,-521 213.5,-739 213.5,-795.57 255.21,-800.23 304.5,-828 331.17,-843.02 362.16,-853.87 391.88,-861.68"/>
<polygon fill="black" stroke="black" points="401.9,-864.21 391.1,-866.12 397.05,-862.99 392.21,-861.76 392.21,-861.76 392.21,-861.76 397.05,-862.99 393.31,-857.4 401.9,-864.21 401.9,-864.21"/>
</g>
<!-- ragger.navigator.nano_navigator -->
<g id="node31" class="node">
<title>ragger.navigator.nano_navigator</title>
<polygon fill="#ee8866" stroke="#ee8866" points="1276.5,-396 1028.5,-396 1028.5,-360 1276.5,-360 1276.5,-396"/>
<text text-anchor="middle" x="1152.5" y="-374.3" font-family="Times,serif" font-size="14.00">ragger.navigator.nano_navigator</text>
</g>
<!-- ragger.navigator&#45;&gt;ragger.navigator.nano_navigator -->
<g id="edge51" class="edge">
<title>ragger.navigator&#45;&gt;ragger.navigator.nano_navigator</title>
<path fill="none" stroke="black" d="M1053.75,-108.03C1071.33,-155.91 1121.27,-291.94 1142.62,-350.1"/>
<polygon fill="black" stroke="black" points="1146.15,-359.69 1138.48,-351.86 1144.42,-355 1142.7,-350.31 1142.7,-350.31 1142.7,-350.31 1144.42,-355 1146.92,-348.76 1146.15,-359.69 1146.15,-359.69"/>
</g>
<!-- ragger.navigator.navigation_scenario -->
<g id="node32" class="node">
<title>ragger.navigator.navigation_scenario</title>
<polygon fill="#ee8866" stroke="#ee8866" points="1576,-396 1295,-396 1295,-360 1576,-360 1576,-396"/>
<text text-anchor="middle" x="1435.5" y="-374.3" font-family="Times,serif" font-size="14.00">ragger.navigator.navigation_scenario</text>
</g>
<!-- ragger.navigator&#45;&gt;ragger.navigator.navigation_scenario -->
<g id="edge52" class="edge">
<title>ragger.navigator&#45;&gt;ragger.navigator.navigation_scenario</title>
<path fill="none" stroke="black" d="M1070.61,-108.03C1136.9,-156.9 1327.8,-297.61 1403.76,-353.61"/>
<polygon fill="black" stroke="black" points="1412.02,-359.69 1401.3,-357.38 1408,-356.73 1403.97,-353.76 1403.97,-353.76 1403.97,-353.76 1408,-356.73 1406.64,-350.14 1412.02,-359.69 1412.02,-359.69"/>
</g>
<!-- ragger.navigator.navigator -->
<g id="node33" class="node">
<title>ragger.navigator.navigator</title>
<polygon fill="#ee8866" stroke="#ee8866" points="1160,-468 953,-468 953,-432 1160,-432 1160,-468"/>
<text text-anchor="middle" x="1056.5" y="-446.3" font-family="Times,serif" font-size="14.00">ragger.navigator.navigator</text>
</g>
<!-- ragger.navigator&#45;&gt;ragger.navigator.navigator -->
<g id="edge53" class="edge">
<title>ragger.navigator&#45;&gt;ragger.navigator.navigator</title>
<path fill="none" stroke="black" d="M1037.76,-108.32C1023.99,-134.47 1000.5,-186 1000.5,-233 1000.5,-233 1000.5,-233 1000.5,-307 1000.5,-347.45 1003.38,-358.9 1019.5,-396 1023.68,-405.62 1029.75,-415.29 1035.76,-423.68"/>
<polygon fill="black" stroke="black" points="1041.93,-431.91 1032.33,-426.61 1038.93,-427.91 1035.93,-423.91 1035.93,-423.91 1035.93,-423.91 1038.93,-427.91 1039.53,-421.21 1041.93,-431.91 1041.93,-431.91"/>
</g>
<!-- ragger.navigator.touch_navigator -->
<g id="node34" class="node">
<title>ragger.navigator.touch_navigator</title>
<polygon fill="#ee8866" stroke="#ee8866" points="972.5,-180 718.5,-180 718.5,-144 972.5,-144 972.5,-180"/>
<text text-anchor="middle" x="845.5" y="-158.3" font-family="Times,serif" font-size="14.00">ragger.navigator.touch_navigator</text>
</g>
<!-- ragger.navigator&#45;&gt;ragger.navigator.touch_navigator -->
<g id="edge54" class="edge">
<title>ragger.navigator&#45;&gt;ragger.navigator.touch_navigator</title>
<path fill="none" stroke="black" d="M998.34,-108.03C970,-117.86 934.18,-130.27 904.34,-140.61"/>
<polygon fill="black" stroke="black" points="894.88,-143.89 902.85,-136.36 899.6,-142.25 904.33,-140.61 904.33,-140.61 904.33,-140.61 899.6,-142.25 905.8,-144.87 894.88,-143.89 894.88,-143.89"/>
</g>
<!-- ragger.navigator.nano_navigator&#45;&gt;ragger.backend -->
<g id="edge55" class="edge">
<title>ragger.navigator.nano_navigator&#45;&gt;ragger.backend</title>
<path fill="none" stroke="black" d="M1158.15,-396.06C1161.44,-406.39 1165.52,-419.87 1168.5,-432 1173.54,-452.49 1177.96,-475.95 1181.04,-493.64"/>
<polygon fill="black" stroke="black" points="1182.77,-503.82 1176.65,-494.72 1181.93,-498.89 1181.09,-493.96 1181.09,-493.96 1181.09,-493.96 1181.93,-498.89 1185.53,-493.21 1182.77,-503.82 1182.77,-503.82"/>
</g>
<!-- ragger.navigator.nano_navigator&#45;&gt;ragger.navigator.navigator -->
<g id="edge56" class="edge">
<title>ragger.navigator.nano_navigator&#45;&gt;ragger.navigator.navigator</title>
<path fill="none" stroke="black" d="M1128.77,-396.3C1116.56,-405.2 1101.51,-416.18 1088.32,-425.8"/>
<polygon fill="black" stroke="black" points="1079.96,-431.9 1085.39,-422.37 1084,-428.95 1088.04,-426 1088.04,-426 1088.04,-426 1084,-428.95 1090.69,-429.64 1079.96,-431.9 1079.96,-431.9"/>
</g>
<!-- ragger.navigator.navigation_scenario&#45;&gt;ragger.backend -->
<g id="edge57" class="edge">
<title>ragger.navigator.navigation_scenario&#45;&gt;ragger.backend</title>
<path fill="none" stroke="black" d="M1405.34,-396.13C1360.11,-421.82 1274.67,-470.35 1224.67,-498.75"/>
<polygon fill="black" stroke="black" points="1215.76,-503.81 1222.24,-494.96 1220.11,-501.34 1224.46,-498.87 1224.46,-498.87 1224.46,-498.87 1220.11,-501.34 1226.68,-502.78 1215.76,-503.81 1215.76,-503.81"/>
</g>
<!-- ragger.navigator.navigation_scenario&#45;&gt;ragger.backend.interface -->
<g id="edge58" class="edge">
<title>ragger.navigator.navigation_scenario&#45;&gt;ragger.backend.interface</title>
<path fill="none" stroke="black" d="M1466.89,-396.06C1504.5,-419.05 1562.5,-463.78 1562.5,-521 1562.5,-521 1562.5,-521 1562.5,-595 1562.5,-638.37 1553.4,-653.57 1522.5,-684 1508.46,-697.82 1490.24,-708.3 1472.15,-716.14"/>
<polygon fill="black" stroke="black" points="1462.72,-719.99 1470.27,-712.04 1467.34,-718.1 1471.97,-716.21 1471.97,-716.21 1471.97,-716.21 1467.34,-718.1 1473.68,-720.37 1462.72,-719.99 1462.72,-719.99"/>
</g>
<!-- ragger.navigator.navigation_scenario&#45;&gt;ragger.navigator.navigator -->
<g id="edge59" class="edge">
<title>ragger.navigator.navigation_scenario&#45;&gt;ragger.navigator.navigator</title>
<path fill="none" stroke="black" d="M1343.27,-396.03C1287.45,-406.34 1216.18,-419.51 1158.65,-430.13"/>
<polygon fill="black" stroke="black" points="1148.81,-431.95 1157.83,-425.71 1153.73,-431.04 1158.65,-430.13 1158.65,-430.13 1158.65,-430.13 1153.73,-431.04 1159.46,-434.56 1148.81,-431.95 1148.81,-431.95"/>
</g>
<!-- ragger.navigator.navigator&#45;&gt;ragger.backend -->
<g id="edge60" class="edge">
<title>ragger.navigator.navigator&#45;&gt;ragger.backend</title>
<path fill="none" stroke="black" d="M1088.06,-468.12C1105.16,-477.4 1126.48,-488.97 1144.82,-498.92"/>
<polygon fill="black" stroke="black" points="1153.82,-503.81 1142.89,-503 1149.43,-501.43 1145.03,-499.04 1145.03,-499.04 1145.03,-499.04 1149.43,-501.43 1147.18,-495.09 1153.82,-503.81 1153.82,-503.81"/>
</g>
<!-- ragger.navigator.navigator&#45;&gt;ragger.navigator.instruction -->
<g id="edge61" class="edge">
<title>ragger.navigator.navigator&#45;&gt;ragger.navigator.instruction</title>
<path fill="none" stroke="black" d="M952.67,-457.15C855.35,-464.35 717.93,-478.66 670.5,-504 623.85,-528.92 591.5,-540.11 591.5,-593 591.5,-593 591.5,-593 591.5,-739 591.5,-785.04 558.98,-829.75 535.15,-856.33"/>
<polygon fill="black" stroke="black" points="528.08,-863.98 531.56,-853.58 531.47,-860.31 534.86,-856.63 534.86,-856.63 534.86,-856.63 531.47,-860.31 538.17,-859.69 528.08,-863.98 528.08,-863.98"/>
</g>
<!-- ragger.navigator.navigator&#45;&gt;ragger.utils -->
<g id="edge62" class="edge">
<title>ragger.navigator.navigator&#45;&gt;ragger.utils</title>
<path fill="none" stroke="black" d="M952.86,-464.5C826.48,-483.92 629.5,-525.08 629.5,-593 629.5,-593 629.5,-593 629.5,-667 629.5,-724.16 687.55,-764.66 732.37,-787.41"/>
<polygon fill="black" stroke="black" points="741.42,-791.86 730.46,-791.48 736.93,-789.65 732.44,-787.45 732.44,-787.45 732.44,-787.45 736.93,-789.65 734.43,-783.41 741.42,-791.86 741.42,-791.86"/>
</g>
<!-- ragger.navigator.touch_navigator&#45;&gt;ragger.backend -->
<g id="edge63" class="edge">
<title>ragger.navigator.touch_navigator&#45;&gt;ragger.backend</title>
<path fill="none" stroke="black" d="M862.64,-180.11C885.88,-205.2 924.5,-254.5 924.5,-305 924.5,-305 924.5,-305 924.5,-379 924.5,-419.45 914.98,-439.32 943.5,-468 966.81,-491.43 1049.36,-505.83 1111.61,-513.6"/>
<polygon fill="black" stroke="black" points="1121.81,-514.83 1111.34,-518.1 1116.84,-514.23 1111.88,-513.63 1111.88,-513.63 1111.88,-513.63 1116.84,-514.23 1112.42,-509.16 1121.81,-514.83 1121.81,-514.83"/>
</g>
<!-- ragger.navigator.touch_navigator&#45;&gt;ragger.firmware.touch -->
<g id="edge64" class="edge">
<title>ragger.navigator.touch_navigator&#45;&gt;ragger.firmware.touch</title>
<path fill="none" stroke="black" d="M823.5,-180.3C812.29,-189.12 798.5,-199.97 786.35,-209.53"/>
<polygon fill="black" stroke="black" points="778.25,-215.9 783.33,-206.18 782.18,-212.8 786.11,-209.71 786.11,-209.71 786.11,-209.71 782.18,-212.8 788.89,-213.25 778.25,-215.9 778.25,-215.9"/>
</g>
<!-- ragger.navigator.touch_navigator&#45;&gt;ragger.navigator.instruction -->
<g id="edge65" class="edge">
<title>ragger.navigator.touch_navigator&#45;&gt;ragger.navigator.instruction</title>
<path fill="none" stroke="black" d="M718.29,-170.11C554.17,-182.85 289.5,-217.02 289.5,-305 289.5,-305 289.5,-305 289.5,-739 289.5,-804.69 359.47,-841.42 420.67,-860.97"/>
<polygon fill="black" stroke="black" points="430.4,-863.96 419.52,-865.33 425.62,-862.49 420.84,-861.03 420.84,-861.03 420.84,-861.03 425.62,-862.49 422.17,-856.72 430.4,-863.96 430.4,-863.96"/>
</g>
<!-- ragger.navigator.touch_navigator&#45;&gt;ragger.navigator.navigator -->
<g id="edge66" class="edge">
<title>ragger.navigator.touch_navigator&#45;&gt;ragger.navigator.navigator</title>
<path fill="none" stroke="black" d="M853.14,-180.26C871.74,-221 922.56,-325.05 986.5,-396 996.52,-407.12 1009.15,-417.5 1020.91,-426.08"/>
<polygon fill="black" stroke="black" points="1029.27,-431.99 1018.51,-429.89 1025.19,-429.11 1021.11,-426.22 1021.11,-426.22 1021.11,-426.22 1025.19,-429.11 1023.71,-422.55 1029.27,-431.99 1029.27,-431.99"/>
</g>
<!-- ragger.utils&#45;&gt;ragger.utils.misc -->
<g id="edge67" class="edge">
<title>ragger.utils&#45;&gt;ragger.utils.misc</title>
<path fill="none" stroke="black" d="M733.92,-816.39C661.38,-824.57 521.89,-841.41 394.24,-863.76"/>
<polygon fill="black" stroke="black" points="384.29,-865.52 393.36,-859.35 389.21,-864.65 394.14,-863.78 394.14,-863.78 394.14,-863.78 389.21,-864.65 394.92,-868.21 384.29,-865.52 384.29,-865.52"/>
</g>
<!-- ragger.utils.packing -->
<g id="node37" class="node">
<title>ragger.utils.packing</title>
<polygon fill="#ffaabb" stroke="#ffaabb" points="834,-900 675,-900 675,-864 834,-864 834,-900"/>
<text text-anchor="middle" x="754.5" y="-878.3" font-family="Times,serif" font-size="14.00">ragger.utils.packing</text>
</g>
<!-- ragger.utils&#45;&gt;ragger.utils.packing -->
<g id="edge68" class="edge">
<title>ragger.utils&#45;&gt;ragger.utils.packing</title>
<path fill="none" stroke="black" d="M776.33,-828.3C773.07,-836.19 769.13,-845.7 765.5,-854.45"/>
<polygon fill="black" stroke="black" points="761.59,-863.9 761.26,-852.93 763.5,-859.28 765.41,-854.66 765.41,-854.66 765.41,-854.66 763.5,-859.28 769.57,-856.38 761.59,-863.9 761.59,-863.9"/>
</g>
<!-- ragger.utils&#45;&gt;ragger.utils.structs -->
<g id="edge69" class="edge">
<title>ragger.utils&#45;&gt;ragger.utils.structs</title>
<path fill="none" stroke="black" d="M833.17,-824.01C839,-825.41 844.87,-826.78 850.5,-828 919.04,-842.9 997.25,-856.94 1055.47,-866.82"/>
<polygon fill="black" stroke="black" points="1065.36,-868.49 1054.75,-871.26 1060.43,-867.66 1055.5,-866.82 1055.5,-866.82 1055.5,-866.82 1060.43,-867.66 1056.25,-862.39 1065.36,-868.49 1065.36,-868.49"/>
</g>
<!-- ragger.utils.misc&#45;&gt;ragger.error -->
<g id="edge70" class="edge">
<title>ragger.utils.misc&#45;&gt;ragger.error</title>
<path fill="none" stroke="black" d="M384.27,-898.62C387.04,-899.11 389.8,-899.57 392.5,-900 569.98,-927.96 781.88,-943.24 884.97,-949.53"/>
<polygon fill="black" stroke="black" points="895.2,-950.14 884.95,-954.03 890.21,-949.84 885.22,-949.54 885.22,-949.54 885.22,-949.54 890.21,-949.84 885.49,-945.05 895.2,-950.14 895.2,-950.14"/>
</g>
</g>
</svg>
