<?xml version="1.0" encoding="UTF-8" standalone="no"?>
<!DOCTYPE svg PUBLIC "-//W3C//DTD SVG 1.1//EN"
 "http://www.w3.org/Graphics/SVG/1.1/DTD/svg11.dtd">
<!-- Generated by graphviz version 2.43.0 (0)
 -->
<!-- Title: packages_generated_ragger_architecture Pages: 1 -->
<svg width="2287pt" height="980pt"
 viewBox="0.00 0.00 2286.50 980.00" xmlns="http://www.w3.org/2000/svg" xmlns:xlink="http://www.w3.org/1999/xlink">
<g id="graph0" class="graph" transform="scale(1 1) rotate(0) translate(4 976)">
<title>packages_generated_ragger_architecture</title>
<polygon fill="white" stroke="transparent" points="-4,4 -4,-976 2282.5,-976 2282.5,4 -4,4"/>
<!-- ragger -->
<g id="node1" class="node">
<title>ragger</title>
<polygon fill="#77aadd" stroke="#77aadd" points="106,-36 41,-36 41,0 106,0 106,-36"/>
<text text-anchor="middle" x="73.5" y="-14.3" font-family="Times,serif" font-size="14.00">ragger</text>
</g>
<!-- ragger.__version__ -->
<g id="node2" class="node">
<title>ragger.__version__</title>
<polygon fill="#77aadd" stroke="#77aadd" points="147,-108 0,-108 0,-72 147,-72 147,-108"/>
<text text-anchor="middle" x="73.5" y="-86.3" font-family="Times,serif" font-size="14.00">ragger.__version__</text>
</g>
<!-- ragger&#45;&gt;ragger.__version__ -->
<g id="edge1" class="edge">
<title>ragger&#45;&gt;ragger.__version__</title>
<path fill="none" stroke="black" d="M73.5,-36.3C73.5,-44.02 73.5,-53.29 73.5,-61.89"/>
<polygon fill="black" stroke="black" points="73.5,-71.9 69,-61.9 73.5,-66.9 73.5,-61.9 73.5,-61.9 73.5,-61.9 73.5,-66.9 78,-61.9 73.5,-71.9 73.5,-71.9"/>
</g>
<!-- ragger.backend -->
<g id="node3" class="node">
<title>ragger.backend</title>
<polygon fill="#99ddff" stroke="#99ddff" points="1216,-540 1089,-540 1089,-504 1216,-504 1216,-540"/>
<text text-anchor="middle" x="1152.5" y="-518.3" font-family="Times,serif" font-size="14.00">ragger.backend</text>
</g>
<!-- ragger.backend.interface -->
<g id="node4" class="node">
<title>ragger.backend.interface</title>
<polygon fill="#99ddff" stroke="#99ddff" points="1577,-756 1382,-756 1382,-720 1577,-720 1577,-756"/>
<text text-anchor="middle" x="1479.5" y="-734.3" font-family="Times,serif" font-size="14.00">ragger.backend.interface</text>
</g>
<!-- ragger.backend&#45;&gt;ragger.backend.interface -->
<g id="edge2" class="edge">
<title>ragger.backend&#45;&gt;ragger.backend.interface</title>
<path fill="none" stroke="black" d="M1216.26,-524.78C1298.59,-530.92 1439.04,-555.29 1504.5,-648 1517.71,-666.7 1508.43,-692.2 1497.63,-711.11"/>
<polygon fill="black" stroke="black" points="1492.29,-719.8 1493.69,-708.93 1494.91,-715.54 1497.52,-711.28 1497.52,-711.28 1497.52,-711.28 1494.91,-715.54 1501.36,-713.63 1492.29,-719.8 1492.29,-719.8"/>
</g>
<!-- ragger.backend.ledgercomm -->
<g id="node5" class="node">
<title>ragger.backend.ledgercomm</title>
<polygon fill="#99ddff" stroke="#99ddff" points="1140.5,-612 920.5,-612 920.5,-576 1140.5,-576 1140.5,-612"/>
<text text-anchor="middle" x="1030.5" y="-590.3" font-family="Times,serif" font-size="14.00">ragger.backend.ledgercomm</text>
</g>
<!-- ragger.backend&#45;&gt;ragger.backend.ledgercomm -->
<g id="edge3" class="edge">
<title>ragger.backend&#45;&gt;ragger.backend.ledgercomm</title>
<path fill="none" stroke="black" d="M1122.66,-540.12C1106.56,-549.36 1086.5,-560.87 1069.21,-570.79"/>
<polygon fill="black" stroke="black" points="1060.46,-575.81 1066.89,-566.93 1064.8,-573.32 1069.13,-570.83 1069.13,-570.83 1069.13,-570.83 1064.8,-573.32 1071.37,-574.74 1060.46,-575.81 1060.46,-575.81"/>
</g>
<!-- ragger.backend.ledgerwallet -->
<g id="node6" class="node">
<title>ragger.backend.ledgerwallet</title>
<polygon fill="#99ddff" stroke="#99ddff" points="887,-612 666,-612 666,-576 887,-576 887,-612"/>
<text text-anchor="middle" x="776.5" y="-590.3" font-family="Times,serif" font-size="14.00">ragger.backend.ledgerwallet</text>
</g>
<!-- ragger.backend&#45;&gt;ragger.backend.ledgerwallet -->
<g id="edge4" class="edge">
<title>ragger.backend&#45;&gt;ragger.backend.ledgerwallet</title>
<path fill="none" stroke="black" d="M1088.72,-534.87C1031.12,-545.6 945.37,-561.56 878.31,-574.05"/>
<polygon fill="black" stroke="black" points="868.13,-575.94 877.14,-569.69 873.05,-575.03 877.96,-574.11 877.96,-574.11 877.96,-574.11 873.05,-575.03 878.79,-578.53 868.13,-575.94 868.13,-575.94"/>
</g>
<!-- ragger.backend.speculos -->
<g id="node8" class="node">
<title>ragger.backend.speculos</title>
<polygon fill="#99ddff" stroke="#99ddff" points="1315,-684 1122,-684 1122,-648 1315,-648 1315,-684"/>
<text text-anchor="middle" x="1218.5" y="-662.3" font-family="Times,serif" font-size="14.00">ragger.backend.speculos</text>
</g>
<!-- ragger.backend&#45;&gt;ragger.backend.speculos -->
<g id="edge5" class="edge">
<title>ragger.backend&#45;&gt;ragger.backend.speculos</title>
<path fill="none" stroke="black" d="M1160.46,-540.13C1171.86,-564.65 1192.92,-609.97 1206.3,-638.74"/>
<polygon fill="black" stroke="black" points="1210.51,-647.81 1202.21,-640.64 1208.4,-643.28 1206.3,-638.74 1206.3,-638.74 1206.3,-638.74 1208.4,-643.28 1210.38,-636.85 1210.51,-647.81 1210.51,-647.81"/>
</g>
<!-- ragger.backend.stub -->
<g id="node9" class="node">
<title>ragger.backend.stub</title>
<polygon fill="#99ddff" stroke="#99ddff" points="1496,-684 1333,-684 1333,-648 1496,-648 1496,-684"/>
<text text-anchor="middle" x="1414.5" y="-662.3" font-family="Times,serif" font-size="14.00">ragger.backend.stub</text>
</g>
<!-- ragger.backend&#45;&gt;ragger.backend.stub -->
<g id="edge6" class="edge">
<title>ragger.backend&#45;&gt;ragger.backend.stub</title>
<path fill="none" stroke="black" d="M1184.1,-540.13C1231.61,-565.88 1321.42,-614.55 1373.78,-642.93"/>
<polygon fill="black" stroke="black" points="1382.78,-647.81 1371.85,-647 1378.39,-645.43 1373.99,-643.05 1373.99,-643.05 1373.99,-643.05 1378.39,-645.43 1376.14,-639.09 1382.78,-647.81 1382.78,-647.81"/>
</g>
<!-- ragger.firmware -->
<g id="node17" class="node">
<title>ragger.firmware</title>
<polygon fill="#aaaa00" stroke="#aaaa00" points="1776.5,-828 1644.5,-828 1644.5,-792 1776.5,-792 1776.5,-828"/>
<text text-anchor="middle" x="1710.5" y="-806.3" font-family="Times,serif" font-size="14.00">ragger.firmware</text>
</g>
<!-- ragger.backend.interface&#45;&gt;ragger.firmware -->
<g id="edge7" class="edge">
<title>ragger.backend.interface&#45;&gt;ragger.firmware</title>
<path fill="none" stroke="black" d="M1535.71,-756.03C1568.41,-765.94 1609.8,-778.49 1644.1,-788.88"/>
<polygon fill="black" stroke="black" points="1654.03,-791.89 1643.16,-793.3 1649.25,-790.44 1644.46,-788.99 1644.46,-788.99 1644.46,-788.99 1649.25,-790.44 1645.77,-784.68 1654.03,-791.89 1654.03,-791.89"/>
</g>
<!-- ragger.logger -->
<g id="node28" class="node">
<title>ragger.logger</title>
<polygon fill="#77aadd" stroke="#77aadd" points="1411,-972 1298,-972 1298,-936 1411,-936 1411,-972"/>
<text text-anchor="middle" x="1354.5" y="-950.3" font-family="Times,serif" font-size="14.00">ragger.logger</text>
</g>
<!-- ragger.backend.interface&#45;&gt;ragger.logger -->
<g id="edge8" class="edge">
<title>ragger.backend.interface&#45;&gt;ragger.logger</title>
<path fill="none" stroke="black" d="M1469.48,-756.15C1447.63,-793.56 1395.58,-882.68 1369.68,-927.02"/>
<polygon fill="black" stroke="black" points="1364.57,-935.77 1365.72,-924.86 1367.09,-931.45 1369.61,-927.13 1369.61,-927.13 1369.61,-927.13 1367.09,-931.45 1373.5,-929.4 1364.57,-935.77 1364.57,-935.77"/>
</g>
<!-- ragger.utils -->
<g id="node35" class="node">
<title>ragger.utils</title>
<polygon fill="#ffaabb" stroke="#ffaabb" points="833,-828 734,-828 734,-792 833,-792 833,-828"/>
<text text-anchor="middle" x="783.5" y="-806.3" font-family="Times,serif" font-size="14.00">ragger.utils</text>
</g>
<!-- ragger.backend.interface&#45;&gt;ragger.utils -->
<g id="edge9" class="edge">
<title>ragger.backend.interface&#45;&gt;ragger.utils</title>
<path fill="none" stroke="black" d="M1381.91,-743.47C1259.72,-749.96 1044.24,-764.37 861.5,-792 855.62,-792.89 849.52,-793.96 843.43,-795.12"/>
<polygon fill="black" stroke="black" points="833.25,-797.15 842.18,-790.78 838.16,-796.17 843.06,-795.2 843.06,-795.2 843.06,-795.2 838.16,-796.17 843.94,-799.61 833.25,-797.15 833.25,-797.15"/>
</g>
<!-- ragger.backend.ledgercomm&#45;&gt;ragger.backend.ledgercomm -->
<g id="edge10" class="edge">
<title>ragger.backend.ledgercomm&#45;&gt;ragger.backend.ledgercomm</title>
<path fill="none" stroke="black" d="M1140.65,-582.99C1151.56,-585.2 1158.5,-588.87 1158.5,-594 1158.5,-597.37 1155.51,-600.11 1150.37,-602.21"/>
<polygon fill="black" stroke="black" points="1140.65,-605.01 1149.02,-597.92 1145.46,-603.63 1150.26,-602.25 1150.26,-602.25 1150.26,-602.25 1145.46,-603.63 1151.51,-606.57 1140.65,-605.01 1140.65,-605.01"/>
</g>
<!-- ragger.backend.physical_backend -->
<g id="node7" class="node">
<title>ragger.backend.physical_backend</title>
<polygon fill="#99ddff" stroke="#99ddff" points="1065.5,-684 809.5,-684 809.5,-648 1065.5,-648 1065.5,-684"/>
<text text-anchor="middle" x="937.5" y="-662.3" font-family="Times,serif" font-size="14.00">ragger.backend.physical_backend</text>
</g>
<!-- ragger.backend.ledgercomm&#45;&gt;ragger.backend.physical_backend -->
<g id="edge11" class="edge">
<title>ragger.backend.ledgercomm&#45;&gt;ragger.backend.physical_backend</title>
<path fill="none" stroke="black" d="M1007.51,-612.3C995.69,-621.2 981.11,-632.18 968.32,-641.8"/>
<polygon fill="black" stroke="black" points="960.22,-647.9 965.51,-638.29 964.22,-644.89 968.21,-641.88 968.21,-641.88 968.21,-641.88 964.22,-644.89 970.92,-645.48 960.22,-647.9 960.22,-647.9"/>
</g>
<!-- ragger.error -->
<g id="node16" class="node">
<title>ragger.error</title>
<polygon fill="#77aadd" stroke="#77aadd" points="931.5,-972 827.5,-972 827.5,-936 931.5,-936 931.5,-972"/>
<text text-anchor="middle" x="879.5" y="-950.3" font-family="Times,serif" font-size="14.00">ragger.error</text>
</g>
<!-- ragger.backend.ledgercomm&#45;&gt;ragger.error -->
<g id="edge12" class="edge">
<title>ragger.backend.ledgercomm&#45;&gt;ragger.error</title>
<path fill="none" stroke="black" d="M1048.37,-612.1C1057.5,-621.81 1068.03,-634.66 1074.5,-648 1092.15,-684.39 1093.5,-696.55 1093.5,-737 1093.5,-737 1093.5,-737 1093.5,-811 1093.5,-857.97 1073.51,-871.08 1036.5,-900 1009.09,-921.42 972.55,-934.43 941.62,-942.19"/>
<polygon fill="black" stroke="black" points="931.79,-944.54 940.47,-937.84 936.65,-943.38 941.52,-942.22 941.52,-942.22 941.52,-942.22 936.65,-943.38 942.56,-946.6 931.79,-944.54 931.79,-944.54"/>
</g>
<!-- ragger.backend.ledgercomm&#45;&gt;ragger.utils -->
<g id="edge13" class="edge">
<title>ragger.backend.ledgercomm&#45;&gt;ragger.utils</title>
<path fill="none" stroke="black" d="M920.41,-608.08C869.65,-616.48 817,-629.36 800.5,-648 767.91,-684.8 771.92,-746.47 777.73,-781.85"/>
<polygon fill="black" stroke="black" points="779.55,-791.93 773.34,-782.89 778.66,-787.01 777.77,-782.09 777.77,-782.09 777.77,-782.09 778.66,-787.01 782.2,-781.29 779.55,-791.93 779.55,-791.93"/>
</g>
<!-- ragger.backend.ledgerwallet&#45;&gt;ragger.backend.physical_backend -->
<g id="edge14" class="edge">
<title>ragger.backend.ledgerwallet&#45;&gt;ragger.backend.physical_backend</title>
<path fill="none" stroke="black" d="M815.89,-612.12C837.89,-621.69 865.51,-633.7 888.86,-643.85"/>
<polygon fill="black" stroke="black" points="898.24,-647.93 887.28,-648.07 893.66,-645.94 889.07,-643.94 889.07,-643.94 889.07,-643.94 893.66,-645.94 890.87,-639.82 898.24,-647.93 898.24,-647.93"/>
</g>
<!-- ragger.backend.ledgerwallet&#45;&gt;ragger.error -->
<g id="edge15" class="edge">
<title>ragger.backend.ledgerwallet&#45;&gt;ragger.error</title>
<path fill="none" stroke="black" d="M761.73,-612.06C720.69,-661.59 612.84,-807.69 683.5,-900 699.82,-921.32 766.13,-936.03 817.15,-944.46"/>
<polygon fill="black" stroke="black" points="827.13,-946.06 816.54,-948.92 822.19,-945.26 817.25,-944.47 817.25,-944.47 817.25,-944.47 822.19,-945.26 817.97,-940.03 827.13,-946.06 827.13,-946.06"/>
</g>
<!-- ragger.backend.ledgerwallet&#45;&gt;ragger.utils -->
<g id="edge16" class="edge">
<title>ragger.backend.ledgerwallet&#45;&gt;ragger.utils</title>
<path fill="none" stroke="black" d="M772.85,-612.09C770.82,-622.43 768.52,-635.91 767.5,-648 763.47,-695.83 760.49,-708.51 767.5,-756 768.78,-764.65 771.17,-773.85 773.72,-782.11"/>
<polygon fill="black" stroke="black" points="776.85,-791.63 769.45,-783.53 775.29,-786.88 773.72,-782.13 773.72,-782.13 773.72,-782.13 775.29,-786.88 778,-780.72 776.85,-791.63 776.85,-791.63"/>
</g>
<!-- ragger.backend.physical_backend&#45;&gt;ragger.backend.interface -->
<g id="edge17" class="edge">
<title>ragger.backend.physical_backend&#45;&gt;ragger.backend.interface</title>
<path fill="none" stroke="black" d="M1065.6,-683.54C1158.88,-695.59 1283.8,-711.73 1371.92,-723.11"/>
<polygon fill="black" stroke="black" points="1381.94,-724.4 1371.45,-727.58 1376.98,-723.76 1372.02,-723.12 1372.02,-723.12 1372.02,-723.12 1376.98,-723.76 1372.6,-718.66 1381.94,-724.4 1381.94,-724.4"/>
</g>
<!-- ragger.gui -->
<g id="node25" class="node">
<title>ragger.gui</title>
<polygon fill="#eedd88" stroke="#eedd88" points="987.5,-756 897.5,-756 897.5,-720 987.5,-720 987.5,-756"/>
<text text-anchor="middle" x="942.5" y="-734.3" font-family="Times,serif" font-size="14.00">ragger.gui</text>
</g>
<!-- ragger.backend.physical_backend&#45;&gt;ragger.gui -->
<g id="edge18" class="edge">
<title>ragger.backend.physical_backend&#45;&gt;ragger.gui</title>
<path fill="none" stroke="black" d="M938.74,-684.3C939.29,-692.02 939.95,-701.29 940.56,-709.89"/>
<polygon fill="black" stroke="black" points="941.28,-719.9 936.08,-710.24 940.92,-714.91 940.57,-709.92 940.57,-709.92 940.57,-709.92 940.92,-714.91 945.05,-709.6 941.28,-719.9 941.28,-719.9"/>
</g>
<!-- ragger.navigator.instruction -->
<g id="node30" class="node">
<title>ragger.navigator.instruction</title>
<polygon fill="#ee8866" stroke="#ee8866" points="637,-900 420,-900 420,-864 637,-864 637,-900"/>
<text text-anchor="middle" x="528.5" y="-878.3" font-family="Times,serif" font-size="14.00">ragger.navigator.instruction</text>
</g>
<!-- ragger.backend.physical_backend&#45;&gt;ragger.navigator.instruction -->
<g id="edge19" class="edge">
<title>ragger.backend.physical_backend&#45;&gt;ragger.navigator.instruction</title>
<path fill="none" stroke="black" d="M896.88,-684.04C873.69,-694.03 844.2,-707.17 818.5,-720 726.01,-766.16 620.64,-826.75 565.93,-858.83"/>
<polygon fill="black" stroke="black" points="557.27,-863.92 563.62,-854.97 561.58,-861.38 565.9,-858.85 565.9,-858.85 565.9,-858.85 561.58,-861.38 568.18,-862.73 557.27,-863.92 557.27,-863.92"/>
</g>
<!-- ragger.backend.physical_backend&#45;&gt;ragger.utils -->
<g id="edge20" class="edge">
<title>ragger.backend.physical_backend&#45;&gt;ragger.utils</title>
<path fill="none" stroke="black" d="M904.99,-684.02C888.61,-693.43 869,-706.03 853.5,-720 832.58,-738.86 813.14,-764.5 800.09,-783.41"/>
<polygon fill="black" stroke="black" points="794.38,-791.84 796.26,-781.03 797.19,-787.69 799.99,-783.55 799.99,-783.55 799.99,-783.55 797.19,-787.69 803.72,-786.08 794.38,-791.84 794.38,-791.84"/>
</g>
<!-- ragger.backend.speculos&#45;&gt;ragger.backend.interface -->
<g id="edge21" class="edge">
<title>ragger.backend.speculos&#45;&gt;ragger.backend.interface</title>
<path fill="none" stroke="black" d="M1282.01,-684.03C1319.43,-694.07 1366.93,-706.81 1405.97,-717.28"/>
<polygon fill="black" stroke="black" points="1415.7,-719.89 1404.88,-721.65 1410.87,-718.59 1406.04,-717.3 1406.04,-717.3 1406.04,-717.3 1410.87,-718.59 1407.21,-712.95 1415.7,-719.89 1415.7,-719.89"/>
</g>
<!-- ragger.backend.speculos&#45;&gt;ragger.error -->
<g id="edge22" class="edge">
<title>ragger.backend.speculos&#45;&gt;ragger.error</title>
<path fill="none" stroke="black" d="M1232.81,-684.27C1265.94,-726.39 1340.94,-835.7 1284.5,-900 1262.27,-925.33 1049.69,-942.27 941.75,-949.31"/>
<polygon fill="black" stroke="black" points="931.64,-949.96 941.33,-944.83 936.63,-949.64 941.62,-949.32 941.62,-949.32 941.62,-949.32 936.63,-949.64 941.91,-953.81 931.64,-949.96 931.64,-949.96"/>
</g>
<!-- ragger.backend.speculos&#45;&gt;ragger.logger -->
<g id="edge23" class="edge">
<title>ragger.backend.speculos&#45;&gt;ragger.logger</title>
<path fill="none" stroke="black" d="M1252.09,-684.15C1266.46,-693.05 1282.26,-705.18 1292.5,-720 1337.11,-784.56 1349.63,-879.52 1353.14,-925.73"/>
<polygon fill="black" stroke="black" points="1353.82,-935.86 1348.66,-926.19 1353.49,-930.87 1353.15,-925.88 1353.15,-925.88 1353.15,-925.88 1353.49,-930.87 1357.64,-925.58 1353.82,-935.86 1353.82,-935.86"/>
</g>
<!-- ragger.backend.speculos&#45;&gt;ragger.utils -->
<g id="edge24" class="edge">
<title>ragger.backend.speculos&#45;&gt;ragger.utils</title>
<path fill="none" stroke="black" d="M1121.96,-679.43C1032.14,-691.49 909.1,-709.47 888.5,-720 868.35,-730.29 869.51,-741.08 852.5,-756 840.9,-766.18 827.56,-776.68 815.73,-785.62"/>
<polygon fill="black" stroke="black" points="807.42,-791.83 812.74,-782.24 811.42,-788.83 815.43,-785.84 815.43,-785.84 815.43,-785.84 811.42,-788.83 818.12,-789.45 807.42,-791.83 807.42,-791.83"/>
</g>
<!-- ragger.backend.stub&#45;&gt;ragger.backend.interface -->
<g id="edge25" class="edge">
<title>ragger.backend.stub&#45;&gt;ragger.backend.interface</title>
<path fill="none" stroke="black" d="M1430.57,-684.3C1438.44,-692.78 1448.06,-703.14 1456.67,-712.42"/>
<polygon fill="black" stroke="black" points="1463.62,-719.9 1453.52,-715.63 1460.22,-716.23 1456.81,-712.57 1456.81,-712.57 1456.81,-712.57 1460.22,-716.23 1460.11,-709.51 1463.62,-719.9 1463.62,-719.9"/>
</g>
<!-- ragger.utils.structs -->
<g id="node38" class="node">
<title>ragger.utils.structs</title>
<polygon fill="#ffaabb" stroke="#ffaabb" points="1275.5,-900 1121.5,-900 1121.5,-864 1275.5,-864 1275.5,-900"/>
<text text-anchor="middle" x="1198.5" y="-878.3" font-family="Times,serif" font-size="14.00">ragger.utils.structs</text>
</g>
<!-- ragger.backend.stub&#45;&gt;ragger.utils.structs -->
<g id="edge26" class="edge">
<title>ragger.backend.stub&#45;&gt;ragger.utils.structs</title>
<path fill="none" stroke="black" d="M1397.19,-684.15C1358.96,-722.03 1267.21,-812.92 1223.06,-856.67"/>
<polygon fill="black" stroke="black" points="1215.89,-863.77 1219.83,-853.53 1219.45,-860.25 1223,-856.73 1223,-856.73 1223,-856.73 1219.45,-860.25 1226.16,-859.93 1215.89,-863.77 1215.89,-863.77"/>
</g>
<!-- ragger.bip -->
<g id="node10" class="node">
<title>ragger.bip</title>
<polygon fill="#44bb99" stroke="#44bb99" points="1892.5,-36 1802.5,-36 1802.5,0 1892.5,0 1892.5,-36"/>
<text text-anchor="middle" x="1847.5" y="-14.3" font-family="Times,serif" font-size="14.00">ragger.bip</text>
</g>
<!-- ragger.bip.path -->
<g id="node11" class="node">
<title>ragger.bip.path</title>
<polygon fill="#44bb99" stroke="#44bb99" points="1838,-108 1711,-108 1711,-72 1838,-72 1838,-108"/>
<text text-anchor="middle" x="1774.5" y="-86.3" font-family="Times,serif" font-size="14.00">ragger.bip.path</text>
</g>
<!-- ragger.bip&#45;&gt;ragger.bip.path -->
<g id="edge27" class="edge">
<title>ragger.bip&#45;&gt;ragger.bip.path</title>
<path fill="none" stroke="black" d="M1829.46,-36.3C1820.44,-44.95 1809.38,-55.55 1799.56,-64.97"/>
<polygon fill="black" stroke="black" points="1792.34,-71.9 1796.44,-61.73 1795.95,-68.44 1799.56,-64.97 1799.56,-64.97 1799.56,-64.97 1795.95,-68.44 1802.67,-68.22 1792.34,-71.9 1792.34,-71.9"/>
</g>
<!-- ragger.bip.seed -->
<g id="node12" class="node">
<title>ragger.bip.seed</title>
<polygon fill="#44bb99" stroke="#44bb99" points="1984.5,-108 1856.5,-108 1856.5,-72 1984.5,-72 1984.5,-108"/>
<text text-anchor="middle" x="1920.5" y="-86.3" font-family="Times,serif" font-size="14.00">ragger.bip.seed</text>
</g>
<!-- ragger.bip&#45;&gt;ragger.bip.seed -->
<g id="edge28" class="edge">
<title>ragger.bip&#45;&gt;ragger.bip.seed</title>
<path fill="none" stroke="black" d="M1865.54,-36.3C1874.56,-44.95 1885.62,-55.55 1895.44,-64.97"/>
<polygon fill="black" stroke="black" points="1902.66,-71.9 1892.33,-68.22 1899.05,-68.44 1895.44,-64.97 1895.44,-64.97 1895.44,-64.97 1899.05,-68.44 1898.56,-61.73 1902.66,-71.9 1902.66,-71.9"/>
</g>
<!-- ragger.conftest -->
<g id="node13" class="node">
<title>ragger.conftest</title>
<polygon fill="#bbcc33" stroke="#bbcc33" points="2036,-36 1911,-36 1911,0 2036,0 2036,-36"/>
<text text-anchor="middle" x="1973.5" y="-14.3" font-family="Times,serif" font-size="14.00">ragger.conftest</text>
</g>
<!-- ragger.conftest.base_conftest -->
<g id="node14" class="node">
<title>ragger.conftest.base_conftest</title>
<polygon fill="#bbcc33" stroke="#bbcc33" points="1466,-36 1239,-36 1239,0 1466,0 1466,-36"/>
<text text-anchor="middle" x="1352.5" y="-14.3" font-family="Times,serif" font-size="14.00">ragger.conftest.base_conftest</text>
</g>
<!-- ragger.conftest.base_conftest&#45;&gt;ragger.backend -->
<g id="edge29" class="edge">
<title>ragger.conftest.base_conftest&#45;&gt;ragger.backend</title>
<path fill="none" stroke="black" d="M1436.33,-36.03C1500.65,-54.56 1578.5,-91.38 1578.5,-161 1578.5,-161 1578.5,-161 1578.5,-379 1578.5,-452.36 1348.24,-494.61 1226.3,-511.83"/>
<polygon fill="black" stroke="black" points="1216.28,-513.23 1225.56,-507.39 1221.23,-512.54 1226.18,-511.85 1226.18,-511.85 1226.18,-511.85 1221.23,-512.54 1226.8,-516.31 1216.28,-513.23 1216.28,-513.23"/>
</g>
<!-- ragger.conftest.base_conftest&#45;&gt;ragger.firmware -->
<g id="edge30" class="edge">
<title>ragger.conftest.base_conftest&#45;&gt;ragger.firmware</title>
<path fill="none" stroke="black" d="M1466.07,-22.72C1561.52,-32.66 1682.5,-64.33 1682.5,-161 1682.5,-161 1682.5,-161 1682.5,-667 1682.5,-707.73 1693.73,-753.81 1701.96,-782.14"/>
<polygon fill="black" stroke="black" points="1704.83,-791.73 1697.65,-783.44 1703.4,-786.94 1701.96,-782.15 1701.96,-782.15 1701.96,-782.15 1703.4,-786.94 1706.28,-780.86 1704.83,-791.73 1704.83,-791.73"/>
</g>
<!-- ragger.conftest.base_conftest&#45;&gt;ragger.logger -->
<g id="edge31" class="edge">
<title>ragger.conftest.base_conftest&#45;&gt;ragger.logger</title>
<path fill="none" stroke="black" d="M1466.38,-35.26C1537.83,-52.63 1616.5,-88.27 1616.5,-161 1616.5,-161 1616.5,-161 1616.5,-811 1616.5,-899.75 1498.85,-933.32 1421.23,-945.81"/>
<polygon fill="black" stroke="black" points="1411.03,-947.37 1420.23,-941.41 1415.97,-946.61 1420.91,-945.86 1420.91,-945.86 1420.91,-945.86 1415.97,-946.61 1421.59,-950.31 1411.03,-947.37 1411.03,-947.37"/>
</g>
<!-- ragger.navigator -->
<g id="node29" class="node">
<title>ragger.navigator</title>
<polygon fill="#ee8866" stroke="#ee8866" points="1194.5,-108 1058.5,-108 1058.5,-72 1194.5,-72 1194.5,-108"/>
<text text-anchor="middle" x="1126.5" y="-86.3" font-family="Times,serif" font-size="14.00">ragger.navigator</text>
</g>
<!-- ragger.conftest.base_conftest&#45;&gt;ragger.navigator -->
<g id="edge32" class="edge">
<title>ragger.conftest.base_conftest&#45;&gt;ragger.navigator</title>
<path fill="none" stroke="black" d="M1297.5,-36.03C1265.51,-45.94 1225.02,-58.49 1191.46,-68.88"/>
<polygon fill="black" stroke="black" points="1181.74,-71.89 1189.96,-64.63 1186.52,-70.41 1191.3,-68.93 1191.3,-68.93 1191.3,-68.93 1186.52,-70.41 1192.63,-73.23 1181.74,-71.89 1181.74,-71.89"/>
</g>
<!-- ragger.conftest.base_conftest&#45;&gt;ragger.utils -->
<g id="edge33" class="edge">
<title>ragger.conftest.base_conftest&#45;&gt;ragger.utils</title>
<path fill="none" stroke="black" d="M1238.86,-21.4C950.58,-28.98 213.5,-58.41 213.5,-161 213.5,-161 213.5,-161 213.5,-307 213.5,-583.92 398.4,-631 645.5,-756 670.57,-768.68 699.43,-780.21 724.26,-789.25"/>
<polygon fill="black" stroke="black" points="733.92,-792.72 722.98,-793.57 729.21,-791.03 724.5,-789.34 724.5,-789.34 724.5,-789.34 729.21,-791.03 726.02,-785.1 733.92,-792.72 733.92,-792.72"/>
</g>
<!-- ragger.utils.misc -->
<g id="node36" class="node">
<title>ragger.utils.misc</title>
<polygon fill="#ffaabb" stroke="#ffaabb" points="402,-900 265,-900 265,-864 402,-864 402,-900"/>
<text text-anchor="middle" x="333.5" y="-878.3" font-family="Times,serif" font-size="14.00">ragger.utils.misc</text>
</g>
<!-- ragger.conftest.base_conftest&#45;&gt;ragger.utils.misc -->
<g id="edge34" class="edge">
<title>ragger.conftest.base_conftest&#45;&gt;ragger.utils.misc</title>
<path fill="none" stroke="black" d="M1238.63,-21.33C985.96,-27 393.88,-43.19 307.5,-72 240.38,-94.39 175.5,-90.24 175.5,-161 175.5,-161 175.5,-161 175.5,-739 175.5,-796.79 234.7,-837.04 280.63,-859.57"/>
<polygon fill="black" stroke="black" points="289.91,-863.97 278.94,-863.75 285.39,-861.83 280.87,-859.68 280.87,-859.68 280.87,-859.68 285.39,-861.83 282.8,-855.62 289.91,-863.97 289.91,-863.97"/>
</g>
<!-- ragger.conftest.configuration -->
<g id="node15" class="node">
<title>ragger.conftest.configuration</title>
<polygon fill="#bbcc33" stroke="#bbcc33" points="2278.5,-36 2054.5,-36 2054.5,0 2278.5,0 2278.5,-36"/>
<text text-anchor="middle" x="2166.5" y="-14.3" font-family="Times,serif" font-size="14.00">ragger.conftest.configuration</text>
</g>
<!-- ragger.firmware.structs -->
<g id="node18" class="node">
<title>ragger.firmware.structs</title>
<polygon fill="#aaaa00" stroke="#aaaa00" points="1831,-900 1644,-900 1644,-864 1831,-864 1831,-900"/>
<text text-anchor="middle" x="1737.5" y="-878.3" font-family="Times,serif" font-size="14.00">ragger.firmware.structs</text>
</g>
<!-- ragger.firmware&#45;&gt;ragger.firmware.structs -->
<g id="edge35" class="edge">
<title>ragger.firmware&#45;&gt;ragger.firmware.structs</title>
<path fill="none" stroke="black" d="M1717.17,-828.3C1720.21,-836.19 1723.88,-845.7 1727.26,-854.45"/>
<polygon fill="black" stroke="black" points="1730.9,-863.9 1723.11,-856.19 1729.1,-859.23 1727.3,-854.57 1727.3,-854.57 1727.3,-854.57 1729.1,-859.23 1731.5,-852.95 1730.9,-863.9 1730.9,-863.9"/>
</g>
<!-- ragger.firmware.touch -->
<g id="node19" class="node">
<title>ragger.firmware.touch</title>
<polygon fill="#aaaa00" stroke="#aaaa00" points="895.5,-252 719.5,-252 719.5,-216 895.5,-216 895.5,-252"/>
<text text-anchor="middle" x="807.5" y="-230.3" font-family="Times,serif" font-size="14.00">ragger.firmware.touch</text>
</g>
<!-- ragger.firmware.touch.screen -->
<g id="node23" class="node">
<title>ragger.firmware.touch.screen</title>
<polygon fill="#aaaa00" stroke="#aaaa00" points="908.5,-324 680.5,-324 680.5,-288 908.5,-288 908.5,-324"/>
<text text-anchor="middle" x="794.5" y="-302.3" font-family="Times,serif" font-size="14.00">ragger.firmware.touch.screen</text>
</g>
<!-- ragger.firmware.touch&#45;&gt;ragger.firmware.touch.screen -->
<g id="edge36" class="edge">
<title>ragger.firmware.touch&#45;&gt;ragger.firmware.touch.screen</title>
<path fill="none" stroke="black" d="M804.29,-252.3C802.85,-260.02 801.13,-269.29 799.54,-277.89"/>
<polygon fill="black" stroke="black" points="797.68,-287.9 795.08,-277.24 798.59,-282.98 799.5,-278.06 799.5,-278.06 799.5,-278.06 798.59,-282.98 803.93,-278.89 797.68,-287.9 797.68,-287.9"/>
</g>
<!-- ragger.firmware.touch.element -->
<g id="node20" class="node">
<title>ragger.firmware.touch.element</title>
<polygon fill="#aaaa00" stroke="#aaaa00" points="823,-468 584,-468 584,-432 823,-432 823,-468"/>
<text text-anchor="middle" x="703.5" y="-446.3" font-family="Times,serif" font-size="14.00">ragger.firmware.touch.element</text>
</g>
<!-- ragger.firmware.touch.element&#45;&gt;ragger.backend -->
<g id="edge37" class="edge">
<title>ragger.firmware.touch.element&#45;&gt;ragger.backend</title>
<path fill="none" stroke="black" d="M812.76,-468.03C895.44,-480.92 1006.74,-498.28 1079.04,-509.55"/>
<polygon fill="black" stroke="black" points="1088.98,-511.1 1078.41,-514 1084.04,-510.33 1079.1,-509.56 1079.1,-509.56 1079.1,-509.56 1084.04,-510.33 1079.79,-505.11 1088.98,-511.1 1088.98,-511.1"/>
</g>
<!-- ragger.firmware.touch.positions -->
<g id="node22" class="node">
<title>ragger.firmware.touch.positions</title>
<polygon fill="#aaaa00" stroke="#aaaa00" points="563,-540 318,-540 318,-504 563,-504 563,-540"/>
<text text-anchor="middle" x="440.5" y="-518.3" font-family="Times,serif" font-size="14.00">ragger.firmware.touch.positions</text>
</g>
<!-- ragger.firmware.touch.element&#45;&gt;ragger.firmware.touch.positions -->
<g id="edge38" class="edge">
<title>ragger.firmware.touch.element&#45;&gt;ragger.firmware.touch.positions</title>
<path fill="none" stroke="black" d="M639.5,-468.03C601.79,-478.07 553.93,-490.81 514.59,-501.28"/>
<polygon fill="black" stroke="black" points="504.79,-503.89 513.29,-496.97 509.62,-502.6 514.45,-501.32 514.45,-501.32 514.45,-501.32 509.62,-502.6 515.61,-505.67 504.79,-503.89 504.79,-503.89"/>
</g>
<!-- ragger.firmware.touch.layouts -->
<g id="node21" class="node">
<title>ragger.firmware.touch.layouts</title>
<polygon fill="#aaaa00" stroke="#aaaa00" points="820,-396 587,-396 587,-360 820,-360 820,-396"/>
<text text-anchor="middle" x="703.5" y="-374.3" font-family="Times,serif" font-size="14.00">ragger.firmware.touch.layouts</text>
</g>
<!-- ragger.firmware.touch.layouts&#45;&gt;ragger.firmware.touch.element -->
<g id="edge39" class="edge">
<title>ragger.firmware.touch.layouts&#45;&gt;ragger.firmware.touch.element</title>
<path fill="none" stroke="black" d="M703.5,-396.3C703.5,-404.02 703.5,-413.29 703.5,-421.89"/>
<polygon fill="black" stroke="black" points="703.5,-431.9 699,-421.9 703.5,-426.9 703.5,-421.9 703.5,-421.9 703.5,-421.9 703.5,-426.9 708,-421.9 703.5,-431.9 703.5,-431.9"/>
</g>
<!-- ragger.firmware.touch.screen&#45;&gt;ragger.backend -->
<g id="edge40" class="edge">
<title>ragger.firmware.touch.screen&#45;&gt;ragger.backend</title>
<path fill="none" stroke="black" d="M814.35,-324.13C824.69,-333.84 836.92,-346.69 845.5,-360 873.49,-403.43 848.82,-434.91 888.5,-468 916.89,-491.67 1010.94,-506.32 1078.7,-514.06"/>
<polygon fill="black" stroke="black" points="1088.91,-515.2 1078.48,-518.57 1083.94,-514.65 1078.97,-514.09 1078.97,-514.09 1078.97,-514.09 1083.94,-514.65 1079.47,-509.62 1088.91,-515.2 1088.91,-515.2"/>
</g>
<!-- ragger.firmware.touch.screen&#45;&gt;ragger.firmware.touch.element -->
<g id="edge41" class="edge">
<title>ragger.firmware.touch.screen&#45;&gt;ragger.firmware.touch.element</title>
<path fill="none" stroke="black" d="M810.05,-324.12C825.09,-342.85 843.57,-373.24 828.5,-396 819.39,-409.75 805.93,-419.95 791.16,-427.5"/>
<polygon fill="black" stroke="black" points="781.83,-431.87 788.98,-423.55 786.36,-429.75 790.88,-427.63 790.88,-427.63 790.88,-427.63 786.36,-429.75 792.79,-431.71 781.83,-431.87 781.83,-431.87"/>
</g>
<!-- ragger.firmware.touch.screen&#45;&gt;ragger.firmware.touch.layouts -->
<g id="edge42" class="edge">
<title>ragger.firmware.touch.screen&#45;&gt;ragger.firmware.touch.layouts</title>
<path fill="none" stroke="black" d="M772.01,-324.3C760.54,-333.12 746.44,-343.97 734.02,-353.53"/>
<polygon fill="black" stroke="black" points="725.74,-359.9 730.92,-350.23 729.7,-356.85 733.66,-353.8 733.66,-353.8 733.66,-353.8 729.7,-356.85 736.41,-357.37 725.74,-359.9 725.74,-359.9"/>
</g>
<!-- ragger.firmware.touch.use_cases -->
<g id="node24" class="node">
<title>ragger.firmware.touch.use_cases</title>
<polygon fill="#aaaa00" stroke="#aaaa00" points="569,-396 318,-396 318,-360 569,-360 569,-396"/>
<text text-anchor="middle" x="443.5" y="-374.3" font-family="Times,serif" font-size="14.00">ragger.firmware.touch.use_cases</text>
</g>
<!-- ragger.firmware.touch.screen&#45;&gt;ragger.firmware.touch.use_cases -->
<g id="edge43" class="edge">
<title>ragger.firmware.touch.screen&#45;&gt;ragger.firmware.touch.use_cases</title>
<path fill="none" stroke="black" d="M709.08,-324.03C657.71,-334.28 592.2,-347.34 539.1,-357.93"/>
<polygon fill="black" stroke="black" points="528.99,-359.95 537.92,-353.58 533.9,-358.97 538.8,-357.99 538.8,-357.99 538.8,-357.99 533.9,-358.97 539.68,-362.41 528.99,-359.95 528.99,-359.95"/>
</g>
<!-- ragger.firmware.touch.use_cases&#45;&gt;ragger.firmware.touch.element -->
<g id="edge44" class="edge">
<title>ragger.firmware.touch.use_cases&#45;&gt;ragger.firmware.touch.element</title>
<path fill="none" stroke="black" d="M506.77,-396.03C544.05,-406.07 591.36,-418.81 630.25,-429.28"/>
<polygon fill="black" stroke="black" points="639.95,-431.89 629.12,-433.63 635.12,-430.59 630.29,-429.29 630.29,-429.29 630.29,-429.29 635.12,-430.59 631.46,-424.94 639.95,-431.89 639.95,-431.89"/>
</g>
<!-- ragger.gui.process -->
<g id="node27" class="node">
<title>ragger.gui.process</title>
<polygon fill="#eedd88" stroke="#eedd88" points="1020,-828 871,-828 871,-792 1020,-792 1020,-828"/>
<text text-anchor="middle" x="945.5" y="-806.3" font-family="Times,serif" font-size="14.00">ragger.gui.process</text>
</g>
<!-- ragger.gui&#45;&gt;ragger.gui.process -->
<g id="edge45" class="edge">
<title>ragger.gui&#45;&gt;ragger.gui.process</title>
<path fill="none" stroke="black" d="M943.24,-756.3C943.57,-764.02 943.97,-773.29 944.34,-781.89"/>
<polygon fill="black" stroke="black" points="944.77,-791.9 939.84,-782.1 944.55,-786.9 944.34,-781.9 944.34,-781.9 944.34,-781.9 944.55,-786.9 948.83,-781.71 944.77,-791.9 944.77,-791.9"/>
</g>
<!-- ragger.gui.interface -->
<g id="node26" class="node">
<title>ragger.gui.interface</title>
<polygon fill="#eedd88" stroke="#eedd88" points="1027.5,-900 869.5,-900 869.5,-864 1027.5,-864 1027.5,-900"/>
<text text-anchor="middle" x="948.5" y="-878.3" font-family="Times,serif" font-size="14.00">ragger.gui.interface</text>
</g>
<!-- ragger.gui.interface&#45;&gt;ragger.logger -->
<g id="edge46" class="edge">
<title>ragger.gui.interface&#45;&gt;ragger.logger</title>
<path fill="none" stroke="black" d="M1027.64,-897.54C1032.33,-898.38 1036.97,-899.2 1041.5,-900 1126.51,-914.97 1224.66,-931.46 1288.05,-942.01"/>
<polygon fill="black" stroke="black" points="1297.92,-943.65 1287.31,-946.45 1292.99,-942.83 1288.05,-942.01 1288.05,-942.01 1288.05,-942.01 1292.99,-942.83 1288.79,-937.57 1297.92,-943.65 1297.92,-943.65"/>
</g>
<!-- ragger.gui.process&#45;&gt;ragger.gui.interface -->
<g id="edge47" class="edge">
<title>ragger.gui.process&#45;&gt;ragger.gui.interface</title>
<path fill="none" stroke="black" d="M946.24,-828.3C946.57,-836.02 946.97,-845.29 947.34,-853.89"/>
<polygon fill="black" stroke="black" points="947.77,-863.9 942.84,-854.1 947.55,-858.9 947.34,-853.9 947.34,-853.9 947.34,-853.9 947.55,-858.9 951.83,-853.71 947.77,-863.9 947.77,-863.9"/>
</g>
<!-- ragger.gui.process&#45;&gt;ragger.logger -->
<g id="edge48" class="edge">
<title>ragger.gui.process&#45;&gt;ragger.logger</title>
<path fill="none" stroke="black" d="M975.26,-828.13C1015.43,-851.04 1085.14,-889.93 1112.5,-900 1169.9,-921.12 1238.2,-935.13 1287.58,-943.41"/>
<polygon fill="black" stroke="black" points="1297.51,-945.04 1286.91,-947.86 1292.58,-944.23 1287.64,-943.42 1287.64,-943.42 1287.64,-943.42 1292.58,-944.23 1288.37,-938.98 1297.51,-945.04 1297.51,-945.04"/>
</g>
<!-- ragger.gui.process&#45;&gt;ragger.navigator.instruction -->
<g id="edge49" class="edge">
<title>ragger.gui.process&#45;&gt;ragger.navigator.instruction</title>
<path fill="none" stroke="black" d="M870.95,-823.51C806.73,-834.29 713.13,-850.01 640,-862.28"/>
<polygon fill="black" stroke="black" points="629.82,-863.99 638.94,-857.9 634.75,-863.16 639.68,-862.34 639.68,-862.34 639.68,-862.34 634.75,-863.16 640.43,-866.77 629.82,-863.99 629.82,-863.99"/>
</g>
<!-- ragger.navigator&#45;&gt;ragger.navigator -->
<g id="edge50" class="edge">
<title>ragger.navigator&#45;&gt;ragger.navigator</title>
<path fill="none" stroke="black" d="M1194.63,-77.63C1205.26,-79.48 1212.5,-83.6 1212.5,-90 1212.5,-94.1 1209.53,-97.26 1204.6,-99.5"/>
<polygon fill="black" stroke="black" points="1194.63,-102.37 1202.99,-95.28 1199.43,-100.99 1204.24,-99.6 1204.24,-99.6 1204.24,-99.6 1199.43,-100.99 1205.48,-103.92 1194.63,-102.37 1194.63,-102.37"/>
</g>
<!-- ragger.navigator&#45;&gt;ragger.navigator.instruction -->
<g id="edge51" class="edge">
<title>ragger.navigator&#45;&gt;ragger.navigator.instruction</title>
<path fill="none" stroke="black" d="M1058.2,-94.89C852.27,-107.53 251.5,-151.39 251.5,-233 251.5,-233 251.5,-233 251.5,-307 251.5,-403.6 213.5,-424.4 213.5,-521 213.5,-521 213.5,-521 213.5,-739 213.5,-796.21 256.26,-800.63 306.5,-828 327.58,-839.48 378.43,-851.97 426.15,-861.94"/>
<polygon fill="black" stroke="black" points="435.95,-863.96 425.25,-866.35 431.06,-862.95 426.16,-861.94 426.16,-861.94 426.16,-861.94 431.06,-862.95 427.07,-857.53 435.95,-863.96 435.95,-863.96"/>
</g>
<!-- ragger.navigator.nano_navigator -->
<g id="node31" class="node">
<title>ragger.navigator.nano_navigator</title>
<polygon fill="#ee8866" stroke="#ee8866" points="1250.5,-396 1002.5,-396 1002.5,-360 1250.5,-360 1250.5,-396"/>
<text text-anchor="middle" x="1126.5" y="-374.3" font-family="Times,serif" font-size="14.00">ragger.navigator.nano_navigator</text>
</g>
<!-- ragger.navigator&#45;&gt;ragger.navigator.nano_navigator -->
<g id="edge52" class="edge">
<title>ragger.navigator&#45;&gt;ragger.navigator.nano_navigator</title>
<path fill="none" stroke="black" d="M1126.5,-108.03C1126.5,-155.71 1126.5,-290.82 1126.5,-349.37"/>
<polygon fill="black" stroke="black" points="1126.5,-359.69 1122,-349.69 1126.5,-354.69 1126.5,-349.69 1126.5,-349.69 1126.5,-349.69 1126.5,-354.69 1131,-349.69 1126.5,-359.69 1126.5,-359.69"/>
</g>
<!-- ragger.navigator.navigation_scenario -->
<g id="node32" class="node">
<title>ragger.navigator.navigation_scenario</title>
<polygon fill="#ee8866" stroke="#ee8866" points="1550,-396 1269,-396 1269,-360 1550,-360 1550,-396"/>
<text text-anchor="middle" x="1409.5" y="-374.3" font-family="Times,serif" font-size="14.00">ragger.navigator.navigation_scenario</text>
</g>
<!-- ragger.navigator&#45;&gt;ragger.navigator.navigation_scenario -->
<g id="edge53" class="edge">
<title>ragger.navigator&#45;&gt;ragger.navigator.navigation_scenario</title>
<path fill="none" stroke="black" d="M1143.36,-108.03C1191.41,-156.6 1329.25,-295.9 1385.33,-352.58"/>
<polygon fill="black" stroke="black" points="1392.38,-359.69 1382.14,-355.75 1388.86,-356.14 1385.34,-352.59 1385.34,-352.59 1385.34,-352.59 1388.86,-356.14 1388.54,-349.42 1392.38,-359.69 1392.38,-359.69"/>
</g>
<!-- ragger.navigator.touch_navigator -->
<g id="node34" class="node">
<title>ragger.navigator.touch_navigator</title>
<polygon fill="#ee8866" stroke="#ee8866" points="1063.5,-180 809.5,-180 809.5,-144 1063.5,-144 1063.5,-180"/>
<text text-anchor="middle" x="936.5" y="-158.3" font-family="Times,serif" font-size="14.00">ragger.navigator.touch_navigator</text>
</g>
<!-- ragger.navigator&#45;&gt;ragger.navigator.touch_navigator -->
<g id="edge54" class="edge">
<title>ragger.navigator&#45;&gt;ragger.navigator.touch_navigator</title>
<path fill="none" stroke="black" d="M1080.02,-108.12C1053.58,-117.86 1020.3,-130.13 992.44,-140.39"/>
<polygon fill="black" stroke="black" points="982.83,-143.93 990.66,-136.25 987.52,-142.2 992.21,-140.47 992.21,-140.47 992.21,-140.47 987.52,-142.2 993.77,-144.7 982.83,-143.93 982.83,-143.93"/>
</g>
<!-- ragger.navigator.nano_navigator&#45;&gt;ragger.backend -->
<g id="edge55" class="edge">
<title>ragger.navigator.nano_navigator&#45;&gt;ragger.backend</title>
<path fill="none" stroke="black" d="M1134.96,-396.22C1139.53,-406.38 1144.78,-419.63 1147.5,-432 1151.96,-452.28 1153.12,-475.74 1153.21,-493.49"/>
<polygon fill="black" stroke="black" points="1153.15,-503.72 1148.71,-493.69 1153.18,-498.72 1153.21,-493.72 1153.21,-493.72 1153.21,-493.72 1153.18,-498.72 1157.71,-493.74 1153.15,-503.72 1153.15,-503.72"/>
</g>
<!-- ragger.navigator.navigator -->
<g id="node33" class="node">
<title>ragger.navigator.navigator</title>
<polygon fill="#ee8866" stroke="#ee8866" points="1105,-468 898,-468 898,-432 1105,-432 1105,-468"/>
<text text-anchor="middle" x="1001.5" y="-446.3" font-family="Times,serif" font-size="14.00">ragger.navigator.navigator</text>
</g>
<!-- ragger.navigator.nano_navigator&#45;&gt;ragger.navigator.navigator -->
<g id="edge56" class="edge">
<title>ragger.navigator.nano_navigator&#45;&gt;ragger.navigator.navigator</title>
<path fill="none" stroke="black" d="M1095.92,-396.12C1079.43,-405.36 1058.88,-416.87 1041.16,-426.79"/>
<polygon fill="black" stroke="black" points="1032.2,-431.81 1038.72,-423 1036.56,-429.37 1040.92,-426.92 1040.92,-426.92 1040.92,-426.92 1036.56,-429.37 1043.12,-430.85 1032.2,-431.81 1032.2,-431.81"/>
</g>
<!-- ragger.navigator.navigation_scenario&#45;&gt;ragger.backend -->
<g id="edge57" class="edge">
<title>ragger.navigator.navigation_scenario&#45;&gt;ragger.backend</title>
<path fill="none" stroke="black" d="M1378.5,-396.13C1331.9,-421.88 1243.8,-470.55 1192.45,-498.93"/>
<polygon fill="black" stroke="black" points="1183.61,-503.81 1190.19,-495.04 1187.99,-501.39 1192.36,-498.97 1192.36,-498.97 1192.36,-498.97 1187.99,-501.39 1194.54,-502.91 1183.61,-503.81 1183.61,-503.81"/>
</g>
<!-- ragger.navigator.navigation_scenario&#45;&gt;ragger.backend.interface -->
<g id="edge58" class="edge">
<title>ragger.navigator.navigation_scenario&#45;&gt;ragger.backend.interface</title>
<path fill="none" stroke="black" d="M1419.59,-396.16C1443.33,-437.66 1502.24,-547.45 1522.5,-648 1525.66,-663.68 1527.85,-668.92 1522.5,-684 1518.84,-694.32 1512.21,-704.1 1505.24,-712.39"/>
<polygon fill="black" stroke="black" points="1498.54,-719.84 1501.88,-709.39 1501.88,-716.12 1505.23,-712.4 1505.23,-712.4 1505.23,-712.4 1501.88,-716.12 1508.57,-715.41 1498.54,-719.84 1498.54,-719.84"/>
</g>
<!-- ragger.navigator.navigation_scenario&#45;&gt;ragger.navigator.navigator -->
<g id="edge59" class="edge">
<title>ragger.navigator.navigation_scenario&#45;&gt;ragger.navigator.navigator</title>
<path fill="none" stroke="black" d="M1310.21,-396.03C1250,-406.37 1173.08,-419.56 1111.09,-430.2"/>
<polygon fill="black" stroke="black" points="1100.88,-431.95 1109.97,-425.82 1105.81,-431.1 1110.73,-430.26 1110.73,-430.26 1110.73,-430.26 1105.81,-431.1 1111.49,-434.69 1100.88,-431.95 1100.88,-431.95"/>
</g>
<!-- ragger.navigator.navigator&#45;&gt;ragger.backend -->
<g id="edge60" class="edge">
<title>ragger.navigator.navigator&#45;&gt;ragger.backend</title>
<path fill="none" stroke="black" d="M1038.44,-468.12C1058.99,-477.65 1084.75,-489.59 1106.59,-499.72"/>
<polygon fill="black" stroke="black" points="1115.68,-503.93 1104.72,-503.81 1111.14,-501.83 1106.61,-499.73 1106.61,-499.73 1106.61,-499.73 1111.14,-501.83 1108.5,-495.64 1115.68,-503.93 1115.68,-503.93"/>
</g>
<!-- ragger.navigator.navigator&#45;&gt;ragger.navigator.instruction -->
<g id="edge61" class="edge">
<title>ragger.navigator.navigator&#45;&gt;ragger.navigator.instruction</title>
<path fill="none" stroke="black" d="M897.8,-460.2C816.35,-468.8 710.53,-483.42 672.5,-504 625.46,-529.46 591.5,-539.52 591.5,-593 591.5,-593 591.5,-593 591.5,-739 591.5,-782.81 566.14,-828.19 547.6,-855.51"/>
<polygon fill="black" stroke="black" points="541.86,-863.72 543.9,-852.95 544.72,-859.62 547.59,-855.52 547.59,-855.52 547.59,-855.52 544.72,-859.62 551.28,-858.1 541.86,-863.72 541.86,-863.72"/>
</g>
<!-- ragger.navigator.navigator&#45;&gt;ragger.utils -->
<g id="edge62" class="edge">
<title>ragger.navigator.navigator&#45;&gt;ragger.utils</title>
<path fill="none" stroke="black" d="M905.7,-468.02C795.48,-490.39 629.5,-533.9 629.5,-593 629.5,-593 629.5,-593 629.5,-667 629.5,-724.16 687.55,-764.66 732.37,-787.41"/>
<polygon fill="black" stroke="black" points="741.42,-791.86 730.46,-791.48 736.93,-789.65 732.44,-787.45 732.44,-787.45 732.44,-787.45 736.93,-789.65 734.43,-783.41 741.42,-791.86 741.42,-791.86"/>
</g>
<!-- ragger.navigator.touch_navigator&#45;&gt;ragger.backend -->
<g id="edge63" class="edge">
<title>ragger.navigator.touch_navigator&#45;&gt;ragger.backend</title>
<path fill="none" stroke="black" d="M940.46,-180.17C952.76,-233.35 989.68,-391.98 993.5,-396 1031.85,-436.37 1071.81,-395.09 1113.5,-432 1131.59,-448.02 1141.65,-473.98 1147,-493.74"/>
<polygon fill="black" stroke="black" points="1149.44,-503.7 1142.69,-495.06 1148.25,-498.84 1147.06,-493.99 1147.06,-493.99 1147.06,-493.99 1148.25,-498.84 1151.43,-492.91 1149.44,-503.7 1149.44,-503.7"/>
</g>
<!-- ragger.navigator.touch_navigator&#45;&gt;ragger.firmware.touch -->
<g id="edge64" class="edge">
<title>ragger.navigator.touch_navigator&#45;&gt;ragger.firmware.touch</title>
<path fill="none" stroke="black" d="M904.94,-180.12C887.84,-189.4 866.52,-200.97 848.18,-210.92"/>
<polygon fill="black" stroke="black" points="839.18,-215.81 845.82,-207.09 843.57,-213.43 847.97,-211.04 847.97,-211.04 847.97,-211.04 843.57,-213.43 850.11,-215 839.18,-215.81 839.18,-215.81"/>
</g>
<!-- ragger.navigator.touch_navigator&#45;&gt;ragger.navigator.instruction -->
<g id="edge65" class="edge">
<title>ragger.navigator.touch_navigator&#45;&gt;ragger.navigator.instruction</title>
<path fill="none" stroke="black" d="M809.45,-165.36C621.02,-172.35 289.5,-199.63 289.5,-305 289.5,-305 289.5,-305 289.5,-739 289.5,-806.03 359.83,-842.12 424.19,-861.12"/>
<polygon fill="black" stroke="black" points="434.04,-863.91 423.19,-865.51 429.23,-862.55 424.42,-861.18 424.42,-861.18 424.42,-861.18 429.23,-862.55 425.65,-856.85 434.04,-863.91 434.04,-863.91"/>
</g>
<!-- ragger.navigator.touch_navigator&#45;&gt;ragger.navigator.navigator -->
<g id="edge66" class="edge">
<title>ragger.navigator.touch_navigator&#45;&gt;ragger.navigator.navigator</title>
<path fill="none" stroke="black" d="M935.14,-180.13C932.66,-219.75 930.14,-320.11 960.5,-396 964.52,-406.04 971.03,-415.79 977.69,-424.12"/>
<polygon fill="black" stroke="black" points="984.31,-431.94 974.42,-427.22 981.08,-428.13 977.85,-424.31 977.85,-424.31 977.85,-424.31 981.08,-428.13 981.28,-421.4 984.31,-431.94 984.31,-431.94"/>
</g>
<!-- ragger.utils&#45;&gt;ragger.utils.misc -->
<g id="edge67" class="edge">
<title>ragger.utils&#45;&gt;ragger.utils.misc</title>
<path fill="none" stroke="black" d="M733.83,-816.84C664.12,-825.3 533.12,-842.17 412.45,-863.71"/>
<polygon fill="black" stroke="black" points="402.29,-865.54 411.34,-859.34 407.22,-864.65 412.14,-863.77 412.14,-863.77 412.14,-863.77 407.22,-864.65 412.93,-868.2 402.29,-865.54 402.29,-865.54"/>
</g>
<!-- ragger.utils.packing -->
<g id="node37" class="node">
<title>ragger.utils.packing</title>
<polygon fill="#ffaabb" stroke="#ffaabb" points="852,-900 693,-900 693,-864 852,-864 852,-900"/>
<text text-anchor="middle" x="772.5" y="-878.3" font-family="Times,serif" font-size="14.00">ragger.utils.packing</text>
</g>
<!-- ragger.utils&#45;&gt;ragger.utils.packing -->
<g id="edge68" class="edge">
<title>ragger.utils&#45;&gt;ragger.utils.packing</title>
<path fill="none" stroke="black" d="M780.78,-828.3C779.57,-836.02 778.11,-845.29 776.76,-853.89"/>
<polygon fill="black" stroke="black" points="775.19,-863.9 772.29,-853.32 775.96,-858.96 776.74,-854.02 776.74,-854.02 776.74,-854.02 775.96,-858.96 781.19,-854.72 775.19,-863.9 775.19,-863.9"/>
</g>
<!-- ragger.utils&#45;&gt;ragger.utils.structs -->
<g id="edge69" class="edge">
<title>ragger.utils&#45;&gt;ragger.utils.structs</title>
<path fill="none" stroke="black" d="M833.34,-822.32C842.68,-824.31 852.37,-826.29 861.5,-828 945.94,-843.83 1042.88,-858.73 1111.05,-868.68"/>
<polygon fill="black" stroke="black" points="1121.32,-870.18 1110.78,-873.19 1116.37,-869.46 1111.42,-868.74 1111.42,-868.74 1111.42,-868.74 1116.37,-869.46 1112.07,-864.28 1121.32,-870.18 1121.32,-870.18"/>
</g>
<!-- ragger.utils.misc&#45;&gt;ragger.error -->
<g id="edge70" class="edge">
<title>ragger.utils.misc&#45;&gt;ragger.error</title>
<path fill="none" stroke="black" d="M402.28,-898.56C405.05,-899.07 407.8,-899.55 410.5,-900 555.26,-924.09 727.02,-940.41 817.15,-948.05"/>
<polygon fill="black" stroke="black" points="827.2,-948.89 816.86,-952.54 822.22,-948.47 817.24,-948.05 817.24,-948.05 817.24,-948.05 822.22,-948.47 817.61,-943.57 827.2,-948.89 827.2,-948.89"/>
</g>
</g>
</svg>
