<?xml version="1.0" encoding="UTF-8" standalone="no"?>
<!DOCTYPE svg PUBLIC "-//W3C//DTD SVG 1.1//EN"
 "http://www.w3.org/Graphics/SVG/1.1/DTD/svg11.dtd">
<!-- Generated by graphviz version 2.43.0 (0)
 -->
<!-- Title: packages_generated_ragger_architecture Pages: 1 -->
<svg width="2668pt" height="980pt"
 viewBox="0.00 0.00 2667.50 980.00" xmlns="http://www.w3.org/2000/svg" xmlns:xlink="http://www.w3.org/1999/xlink">
<g id="graph0" class="graph" transform="scale(1 1) rotate(0) translate(4 976)">
<title>packages_generated_ragger_architecture</title>
<polygon fill="white" stroke="transparent" points="-4,4 -4,-976 2663.5,-976 2663.5,4 -4,4"/>
<!-- ragger -->
<g id="node1" class="node">
<title>ragger</title>
<polygon fill="#77aadd" stroke="#77aadd" points="106,-900 41,-900 41,-864 106,-864 106,-900"/>
<text text-anchor="middle" x="73.5" y="-878.3" font-family="Times,serif" font-size="14.00">ragger</text>
</g>
<!-- ragger.__version__ -->
<g id="node2" class="node">
<title>ragger.__version__</title>
<polygon fill="#77aadd" stroke="#77aadd" points="147,-972 0,-972 0,-936 147,-936 147,-972"/>
<text text-anchor="middle" x="73.5" y="-950.3" font-family="Times,serif" font-size="14.00">ragger.__version__</text>
</g>
<!-- ragger&#45;&gt;ragger.__version__ -->
<g id="edge1" class="edge">
<title>ragger&#45;&gt;ragger.__version__</title>
<path fill="none" stroke="black" d="M73.5,-900.3C73.5,-908.02 73.5,-917.29 73.5,-925.89"/>
<polygon fill="black" stroke="black" points="73.5,-935.9 69,-925.9 73.5,-930.9 73.5,-925.9 73.5,-925.9 73.5,-925.9 73.5,-930.9 78,-925.9 73.5,-935.9 73.5,-935.9"/>
</g>
<!-- ragger.logger -->
<g id="node28" class="node">
<title>ragger.logger</title>
<polygon fill="#77aadd" stroke="#77aadd" points="587,-972 474,-972 474,-936 587,-936 587,-972"/>
<text text-anchor="middle" x="530.5" y="-950.3" font-family="Times,serif" font-size="14.00">ragger.logger</text>
</g>
<!-- ragger&#45;&gt;ragger.logger -->
<g id="edge2" class="edge">
<title>ragger&#45;&gt;ragger.logger</title>
<path fill="none" stroke="black" d="M106.09,-895.82C110.87,-897.4 115.78,-898.86 120.5,-900 239.4,-928.82 381.74,-942.76 463.59,-948.86"/>
<polygon fill="black" stroke="black" points="473.75,-949.6 463.45,-953.36 468.76,-949.23 463.78,-948.87 463.78,-948.87 463.78,-948.87 468.76,-949.23 464.1,-944.38 473.75,-949.6 473.75,-949.6"/>
</g>
<!-- ragger.backend -->
<g id="node3" class="node">
<title>ragger.backend</title>
<polygon fill="#99ddff" stroke="#99ddff" points="818,-540 691,-540 691,-504 818,-504 818,-540"/>
<text text-anchor="middle" x="754.5" y="-518.3" font-family="Times,serif" font-size="14.00">ragger.backend</text>
</g>
<!-- ragger.backend.interface -->
<g id="node4" class="node">
<title>ragger.backend.interface</title>
<polygon fill="#99ddff" stroke="#99ddff" points="807,-756 612,-756 612,-720 807,-720 807,-756"/>
<text text-anchor="middle" x="709.5" y="-734.3" font-family="Times,serif" font-size="14.00">ragger.backend.interface</text>
</g>
<!-- ragger.backend&#45;&gt;ragger.backend.interface -->
<g id="edge3" class="edge">
<title>ragger.backend&#45;&gt;ragger.backend.interface</title>
<path fill="none" stroke="black" d="M690.81,-539.69C670.72,-547.74 650,-559.39 635.5,-576 613.58,-601.11 619.21,-615 614.5,-648 612.24,-663.84 606.4,-670.2 614.5,-684 622.27,-697.23 634.67,-707.39 647.98,-715.11"/>
<polygon fill="black" stroke="black" points="656.82,-719.84 645.88,-719.09 652.41,-717.48 648,-715.13 648,-715.13 648,-715.13 652.41,-717.48 650.12,-711.16 656.82,-719.84 656.82,-719.84"/>
</g>
<!-- ragger.backend.ledgercomm -->
<g id="node5" class="node">
<title>ragger.backend.ledgercomm</title>
<polygon fill="#99ddff" stroke="#99ddff" points="864.5,-612 644.5,-612 644.5,-576 864.5,-576 864.5,-612"/>
<text text-anchor="middle" x="754.5" y="-590.3" font-family="Times,serif" font-size="14.00">ragger.backend.ledgercomm</text>
</g>
<!-- ragger.backend&#45;&gt;ragger.backend.ledgercomm -->
<g id="edge4" class="edge">
<title>ragger.backend&#45;&gt;ragger.backend.ledgercomm</title>
<path fill="none" stroke="black" d="M754.5,-540.3C754.5,-548.02 754.5,-557.29 754.5,-565.89"/>
<polygon fill="black" stroke="black" points="754.5,-575.9 750,-565.9 754.5,-570.9 754.5,-565.9 754.5,-565.9 754.5,-565.9 754.5,-570.9 759,-565.9 754.5,-575.9 754.5,-575.9"/>
</g>
<!-- ragger.backend.ledgerwallet -->
<g id="node6" class="node">
<title>ragger.backend.ledgerwallet</title>
<polygon fill="#99ddff" stroke="#99ddff" points="1167,-612 946,-612 946,-576 1167,-576 1167,-612"/>
<text text-anchor="middle" x="1056.5" y="-590.3" font-family="Times,serif" font-size="14.00">ragger.backend.ledgerwallet</text>
</g>
<!-- ragger.backend&#45;&gt;ragger.backend.ledgerwallet -->
<g id="edge5" class="edge">
<title>ragger.backend&#45;&gt;ragger.backend.ledgerwallet</title>
<path fill="none" stroke="black" d="M818.18,-537.76C863.27,-548.21 924.18,-562.33 973.14,-573.68"/>
<polygon fill="black" stroke="black" points="983.08,-575.98 972.32,-578.11 978.21,-574.85 973.34,-573.72 973.34,-573.72 973.34,-573.72 978.21,-574.85 974.35,-569.34 983.08,-575.98 983.08,-575.98"/>
</g>
<!-- ragger.backend.speculos -->
<g id="node8" class="node">
<title>ragger.backend.speculos</title>
<polygon fill="#99ddff" stroke="#99ddff" points="1129,-684 936,-684 936,-648 1129,-648 1129,-684"/>
<text text-anchor="middle" x="1032.5" y="-662.3" font-family="Times,serif" font-size="14.00">ragger.backend.speculos</text>
</g>
<!-- ragger.backend&#45;&gt;ragger.backend.speculos -->
<g id="edge6" class="edge">
<title>ragger.backend&#45;&gt;ragger.backend.speculos</title>
<path fill="none" stroke="black" d="M809.93,-540.1C835.59,-549.09 865.97,-561.31 891.5,-576 913.7,-588.77 915.21,-597.76 936.5,-612 953.19,-623.16 972.42,-634.13 989.27,-643.16"/>
<polygon fill="black" stroke="black" points="998.35,-647.96 987.41,-647.26 993.93,-645.62 989.51,-643.29 989.51,-643.29 989.51,-643.29 993.93,-645.62 991.62,-639.31 998.35,-647.96 998.35,-647.96"/>
</g>
<!-- ragger.backend.stub -->
<g id="node9" class="node">
<title>ragger.backend.stub</title>
<polygon fill="#99ddff" stroke="#99ddff" points="567,-684 404,-684 404,-648 567,-648 567,-684"/>
<text text-anchor="middle" x="485.5" y="-662.3" font-family="Times,serif" font-size="14.00">ragger.backend.stub</text>
</g>
<!-- ragger.backend&#45;&gt;ragger.backend.stub -->
<g id="edge7" class="edge">
<title>ragger.backend&#45;&gt;ragger.backend.stub</title>
<path fill="none" stroke="black" d="M690.87,-535.24C656.9,-543.52 615.26,-556.56 581.5,-576 552.12,-592.92 524.37,-620.35 506.34,-640.29"/>
<polygon fill="black" stroke="black" points="499.69,-647.79 502.96,-637.32 503.01,-644.05 506.33,-640.31 506.33,-640.31 506.33,-640.31 503.01,-644.05 509.69,-643.29 499.69,-647.79 499.69,-647.79"/>
</g>
<!-- ragger.firmware -->
<g id="node17" class="node">
<title>ragger.firmware</title>
<polygon fill="#aaaa00" stroke="#aaaa00" points="1508.5,-828 1376.5,-828 1376.5,-792 1508.5,-792 1508.5,-828"/>
<text text-anchor="middle" x="1442.5" y="-806.3" font-family="Times,serif" font-size="14.00">ragger.firmware</text>
</g>
<!-- ragger.backend.interface&#45;&gt;ragger.firmware -->
<g id="edge8" class="edge">
<title>ragger.backend.interface&#45;&gt;ragger.firmware</title>
<path fill="none" stroke="black" d="M807.22,-748.33C954.99,-762.44 1232.24,-788.92 1366.2,-801.71"/>
<polygon fill="black" stroke="black" points="1376.38,-802.69 1365.99,-806.21 1371.4,-802.21 1366.42,-801.73 1366.42,-801.73 1366.42,-801.73 1371.4,-802.21 1366.85,-797.25 1376.38,-802.69 1376.38,-802.69"/>
</g>
<!-- ragger.backend.interface&#45;&gt;ragger.logger -->
<g id="edge9" class="edge">
<title>ragger.backend.interface&#45;&gt;ragger.logger</title>
<path fill="none" stroke="black" d="M685.36,-756.19C672.86,-765.83 657.87,-778.59 646.5,-792 610.42,-834.56 616.51,-855.77 582.5,-900 574.84,-909.96 565.48,-920.02 556.82,-928.65"/>
<polygon fill="black" stroke="black" points="549.45,-935.84 553.47,-925.64 553.03,-932.35 556.61,-928.86 556.61,-928.86 556.61,-928.86 553.03,-932.35 559.75,-932.08 549.45,-935.84 549.45,-935.84"/>
</g>
<!-- ragger.utils -->
<g id="node35" class="node">
<title>ragger.utils</title>
<polygon fill="#ffaabb" stroke="#ffaabb" points="1035,-828 936,-828 936,-792 1035,-792 1035,-828"/>
<text text-anchor="middle" x="985.5" y="-806.3" font-family="Times,serif" font-size="14.00">ragger.utils</text>
</g>
<!-- ragger.backend.interface&#45;&gt;ragger.utils -->
<g id="edge10" class="edge">
<title>ragger.backend.interface&#45;&gt;ragger.utils</title>
<path fill="none" stroke="black" d="M776.66,-756.03C822.26,-767.6 882.01,-782.75 925.91,-793.89"/>
<polygon fill="black" stroke="black" points="935.87,-796.41 925.07,-798.31 931.02,-795.18 926.17,-793.95 926.17,-793.95 926.17,-793.95 931.02,-795.18 927.28,-789.59 935.87,-796.41 935.87,-796.41"/>
</g>
<!-- ragger.backend.ledgercomm&#45;&gt;ragger.backend.ledgercomm -->
<g id="edge11" class="edge">
<title>ragger.backend.ledgercomm&#45;&gt;ragger.backend.ledgercomm</title>
<path fill="none" stroke="black" d="M864.65,-582.99C875.56,-585.2 882.5,-588.87 882.5,-594 882.5,-597.37 879.51,-600.11 874.37,-602.21"/>
<polygon fill="black" stroke="black" points="864.65,-605.01 873.02,-597.92 869.46,-603.63 874.26,-602.25 874.26,-602.25 874.26,-602.25 869.46,-603.63 875.51,-606.57 864.65,-605.01 864.65,-605.01"/>
</g>
<!-- ragger.backend.physical_backend -->
<g id="node7" class="node">
<title>ragger.backend.physical_backend</title>
<polygon fill="#99ddff" stroke="#99ddff" points="879.5,-684 623.5,-684 623.5,-648 879.5,-648 879.5,-684"/>
<text text-anchor="middle" x="751.5" y="-662.3" font-family="Times,serif" font-size="14.00">ragger.backend.physical_backend</text>
</g>
<!-- ragger.backend.ledgercomm&#45;&gt;ragger.backend.physical_backend -->
<g id="edge12" class="edge">
<title>ragger.backend.ledgercomm&#45;&gt;ragger.backend.physical_backend</title>
<path fill="none" stroke="black" d="M753.76,-612.3C753.43,-620.02 753.03,-629.29 752.66,-637.89"/>
<polygon fill="black" stroke="black" points="752.23,-647.9 748.17,-637.71 752.45,-642.9 752.66,-637.9 752.66,-637.9 752.66,-637.9 752.45,-642.9 757.16,-638.1 752.23,-647.9 752.23,-647.9"/>
</g>
<!-- ragger.error -->
<g id="node16" class="node">
<title>ragger.error</title>
<polygon fill="#77aadd" stroke="#77aadd" points="1230.5,-972 1126.5,-972 1126.5,-936 1230.5,-936 1230.5,-972"/>
<text text-anchor="middle" x="1178.5" y="-950.3" font-family="Times,serif" font-size="14.00">ragger.error</text>
</g>
<!-- ragger.backend.ledgercomm&#45;&gt;ragger.error -->
<g id="edge13" class="edge">
<title>ragger.backend.ledgercomm&#45;&gt;ragger.error</title>
<path fill="none" stroke="black" d="M644.19,-595.99C550.51,-599.44 426.34,-611.12 394.5,-648 384.04,-660.11 384.78,-671.29 394.5,-684 431.72,-732.63 475.18,-688.17 527.5,-720 546.04,-731.28 545.15,-740.65 560.5,-756 627.44,-822.96 631.37,-860.67 717.5,-900 787.07,-931.77 1007.05,-945.57 1116.04,-950.58"/>
<polygon fill="black" stroke="black" points="1126.24,-951.03 1116.04,-955.08 1121.24,-950.81 1116.25,-950.59 1116.25,-950.59 1116.25,-950.59 1121.24,-950.81 1116.45,-946.09 1126.24,-951.03 1126.24,-951.03"/>
</g>
<!-- ragger.backend.ledgercomm&#45;&gt;ragger.firmware -->
<g id="edge14" class="edge">
<title>ragger.backend.ledgercomm&#45;&gt;ragger.firmware</title>
<path fill="none" stroke="black" d="M864.56,-605.94C959.28,-616.14 1088.22,-632.13 1137.5,-648 1165.19,-656.92 1326.62,-745.09 1402.77,-787.04"/>
<polygon fill="black" stroke="black" points="1411.62,-791.92 1400.69,-791.03 1407.24,-789.5 1402.86,-787.09 1402.86,-787.09 1402.86,-787.09 1407.24,-789.5 1405.04,-783.15 1411.62,-791.92 1411.62,-791.92"/>
</g>
<!-- ragger.backend.ledgercomm&#45;&gt;ragger.utils -->
<g id="edge15" class="edge">
<title>ragger.backend.ledgercomm&#45;&gt;ragger.utils</title>
<path fill="none" stroke="black" d="M821.86,-612.05C844.78,-620.21 869.41,-631.83 888.5,-648 932.25,-685.04 961.63,-747.05 975.76,-782.33"/>
<polygon fill="black" stroke="black" points="979.5,-791.94 971.68,-784.25 977.69,-787.28 975.88,-782.62 975.88,-782.62 975.88,-782.62 977.69,-787.28 980.07,-780.99 979.5,-791.94 979.5,-791.94"/>
</g>
<!-- ragger.backend.ledgerwallet&#45;&gt;ragger.backend.physical_backend -->
<g id="edge16" class="edge">
<title>ragger.backend.ledgerwallet&#45;&gt;ragger.backend.physical_backend</title>
<path fill="none" stroke="black" d="M982.28,-612.03C938.01,-622.2 881.66,-635.13 835.72,-645.67"/>
<polygon fill="black" stroke="black" points="825.79,-647.95 834.53,-641.33 830.66,-646.83 835.54,-645.71 835.54,-645.71 835.54,-645.71 830.66,-646.83 836.54,-650.1 825.79,-647.95 825.79,-647.95"/>
</g>
<!-- ragger.backend.ledgerwallet&#45;&gt;ragger.error -->
<g id="edge17" class="edge">
<title>ragger.backend.ledgerwallet&#45;&gt;ragger.error</title>
<path fill="none" stroke="black" d="M1109.83,-612.12C1126.86,-620.27 1144,-631.87 1154.5,-648 1211.51,-735.63 1195.04,-868.79 1184.39,-925.68"/>
<polygon fill="black" stroke="black" points="1182.42,-935.7 1179.93,-925.02 1183.38,-930.79 1184.35,-925.89 1184.35,-925.89 1184.35,-925.89 1183.38,-930.79 1188.76,-926.75 1182.42,-935.7 1182.42,-935.7"/>
</g>
<!-- ragger.backend.ledgerwallet&#45;&gt;ragger.firmware -->
<g id="edge18" class="edge">
<title>ragger.backend.ledgerwallet&#45;&gt;ragger.firmware</title>
<path fill="none" stroke="black" d="M1167.3,-606.65C1229.44,-615.15 1299.23,-628.6 1323.5,-648 1364.53,-680.79 1338.72,-714.96 1371.5,-756 1380.69,-767.51 1392.94,-777.82 1404.67,-786.23"/>
<polygon fill="black" stroke="black" points="1413.08,-792 1402.29,-790.05 1408.95,-789.17 1404.83,-786.34 1404.83,-786.34 1404.83,-786.34 1408.95,-789.17 1407.38,-782.63 1413.08,-792 1413.08,-792"/>
</g>
<!-- ragger.backend.ledgerwallet&#45;&gt;ragger.utils -->
<g id="edge19" class="edge">
<title>ragger.backend.ledgerwallet&#45;&gt;ragger.utils</title>
<path fill="none" stroke="black" d="M1098.61,-612.13C1113.68,-620.55 1129.03,-632.33 1137.5,-648 1145.11,-662.07 1144.33,-669.53 1137.5,-684 1115.37,-730.85 1066.12,-766.06 1029.65,-786.98"/>
<polygon fill="black" stroke="black" points="1020.67,-791.99 1027.21,-783.18 1025.04,-789.55 1029.41,-787.11 1029.41,-787.11 1029.41,-787.11 1025.04,-789.55 1031.6,-791.04 1020.67,-791.99 1020.67,-791.99"/>
</g>
<!-- ragger.backend.physical_backend&#45;&gt;ragger.backend.interface -->
<g id="edge20" class="edge">
<title>ragger.backend.physical_backend&#45;&gt;ragger.backend.interface</title>
<path fill="none" stroke="black" d="M741.12,-684.3C736.24,-692.44 730.31,-702.31 724.92,-711.3"/>
<polygon fill="black" stroke="black" points="719.76,-719.9 721.05,-709.01 722.34,-715.61 724.91,-711.32 724.91,-711.32 724.91,-711.32 722.34,-715.61 728.77,-713.64 719.76,-719.9 719.76,-719.9"/>
</g>
<!-- ragger.backend.physical_backend&#45;&gt;ragger.firmware -->
<g id="edge21" class="edge">
<title>ragger.backend.physical_backend&#45;&gt;ragger.firmware</title>
<path fill="none" stroke="black" d="M834.51,-684.06C969.76,-711.85 1235.68,-766.5 1366.36,-793.35"/>
<polygon fill="black" stroke="black" points="1376.29,-795.39 1365.59,-797.79 1371.39,-794.39 1366.5,-793.38 1366.5,-793.38 1366.5,-793.38 1371.39,-794.39 1367.4,-788.97 1376.29,-795.39 1376.29,-795.39"/>
</g>
<!-- ragger.gui -->
<g id="node25" class="node">
<title>ragger.gui</title>
<polygon fill="#eedd88" stroke="#eedd88" points="518.5,-756 428.5,-756 428.5,-720 518.5,-720 518.5,-756"/>
<text text-anchor="middle" x="473.5" y="-734.3" font-family="Times,serif" font-size="14.00">ragger.gui</text>
</g>
<!-- ragger.backend.physical_backend&#45;&gt;ragger.gui -->
<g id="edge22" class="edge">
<title>ragger.backend.physical_backend&#45;&gt;ragger.gui</title>
<path fill="none" stroke="black" d="M683.85,-684.03C636.18,-696.04 573.16,-711.91 528.57,-723.13"/>
<polygon fill="black" stroke="black" points="518.78,-725.6 527.38,-718.79 523.63,-724.38 528.48,-723.16 528.48,-723.16 528.48,-723.16 523.63,-724.38 529.57,-727.52 518.78,-725.6 518.78,-725.6"/>
</g>
<!-- ragger.navigator.instruction -->
<g id="node30" class="node">
<title>ragger.navigator.instruction</title>
<polygon fill="#ee8866" stroke="#ee8866" points="380,-900 163,-900 163,-864 380,-864 380,-900"/>
<text text-anchor="middle" x="271.5" y="-878.3" font-family="Times,serif" font-size="14.00">ragger.navigator.instruction</text>
</g>
<!-- ragger.backend.physical_backend&#45;&gt;ragger.navigator.instruction -->
<g id="edge23" class="edge">
<title>ragger.backend.physical_backend&#45;&gt;ragger.navigator.instruction</title>
<path fill="none" stroke="black" d="M623.37,-682.32C537.4,-693.47 436.82,-708.56 419.5,-720 372.17,-751.26 391.14,-787.43 351.5,-828 340.13,-839.63 325.8,-850.1 312.42,-858.6"/>
<polygon fill="black" stroke="black" points="303.81,-863.89 309.97,-854.82 308.07,-861.28 312.33,-858.66 312.33,-858.66 312.33,-858.66 308.07,-861.28 314.68,-862.49 303.81,-863.89 303.81,-863.89"/>
</g>
<!-- ragger.backend.physical_backend&#45;&gt;ragger.utils -->
<g id="edge24" class="edge">
<title>ragger.backend.physical_backend&#45;&gt;ragger.utils</title>
<path fill="none" stroke="black" d="M778.96,-684.01C808.07,-702 855.43,-731.17 896.5,-756 913.22,-766.11 931.79,-777.19 947.61,-786.59"/>
<polygon fill="black" stroke="black" points="956.58,-791.91 945.69,-790.68 952.28,-789.36 947.98,-786.81 947.98,-786.81 947.98,-786.81 952.28,-789.36 950.28,-782.94 956.58,-791.91 956.58,-791.91"/>
</g>
<!-- ragger.backend.speculos&#45;&gt;ragger.backend.interface -->
<g id="edge25" class="edge">
<title>ragger.backend.speculos&#45;&gt;ragger.backend.interface</title>
<path fill="none" stroke="black" d="M953.9,-684.03C906.82,-694.24 846.84,-707.24 798.08,-717.8"/>
<polygon fill="black" stroke="black" points="788.17,-719.95 796.99,-713.43 793.06,-718.89 797.95,-717.83 797.95,-717.83 797.95,-717.83 793.06,-718.89 798.9,-722.23 788.17,-719.95 788.17,-719.95"/>
</g>
<!-- ragger.backend.speculos&#45;&gt;ragger.error -->
<g id="edge26" class="edge">
<title>ragger.backend.speculos&#45;&gt;ragger.error</title>
<path fill="none" stroke="black" d="M1041.2,-684.03C1065.69,-732.01 1135.37,-868.5 1164.95,-926.46"/>
<polygon fill="black" stroke="black" points="1169.67,-935.69 1161.11,-928.83 1167.39,-931.24 1165.12,-926.79 1165.12,-926.79 1165.12,-926.79 1167.39,-931.24 1169.13,-924.74 1169.67,-935.69 1169.67,-935.69"/>
</g>
<!-- ragger.backend.speculos&#45;&gt;ragger.firmware -->
<g id="edge27" class="edge">
<title>ragger.backend.speculos&#45;&gt;ragger.firmware</title>
<path fill="none" stroke="black" d="M1081.96,-684.13C1157.78,-710.39 1302.49,-760.51 1383.62,-788.61"/>
<polygon fill="black" stroke="black" points="1393.19,-791.92 1382.27,-792.9 1388.46,-790.29 1383.74,-788.65 1383.74,-788.65 1383.74,-788.65 1388.46,-790.29 1385.21,-784.4 1393.19,-791.92 1393.19,-791.92"/>
</g>
<!-- ragger.backend.speculos&#45;&gt;ragger.logger -->
<g id="edge28" class="edge">
<title>ragger.backend.speculos&#45;&gt;ragger.logger</title>
<path fill="none" stroke="black" d="M1002.6,-684.03C916.21,-733.25 666.24,-875.66 569.44,-930.82"/>
<polygon fill="black" stroke="black" points="560.56,-935.87 567.02,-927.01 564.9,-933.4 569.25,-930.92 569.25,-930.92 569.25,-930.92 564.9,-933.4 571.48,-934.83 560.56,-935.87 560.56,-935.87"/>
</g>
<!-- ragger.backend.speculos&#45;&gt;ragger.utils -->
<g id="edge29" class="edge">
<title>ragger.backend.speculos&#45;&gt;ragger.utils</title>
<path fill="none" stroke="black" d="M1026.83,-684.13C1018.79,-708.44 1003.98,-753.18 994.44,-781.99"/>
<polygon fill="black" stroke="black" points="991.19,-791.81 990.06,-780.9 992.76,-787.06 994.33,-782.32 994.33,-782.32 994.33,-782.32 992.76,-787.06 998.6,-783.73 991.19,-791.81 991.19,-791.81"/>
</g>
<!-- ragger.backend.stub&#45;&gt;ragger.backend.interface -->
<g id="edge30" class="edge">
<title>ragger.backend.stub&#45;&gt;ragger.backend.interface</title>
<path fill="none" stroke="black" d="M540.01,-684.03C571.72,-693.94 611.86,-706.49 645.11,-716.88"/>
<polygon fill="black" stroke="black" points="654.75,-719.89 643.86,-721.2 649.97,-718.4 645.2,-716.91 645.2,-716.91 645.2,-716.91 649.97,-718.4 646.54,-712.61 654.75,-719.89 654.75,-719.89"/>
</g>
<!-- ragger.utils.structs -->
<g id="node38" class="node">
<title>ragger.utils.structs</title>
<polygon fill="#ffaabb" stroke="#ffaabb" points="880.5,-900 726.5,-900 726.5,-864 880.5,-864 880.5,-900"/>
<text text-anchor="middle" x="803.5" y="-878.3" font-family="Times,serif" font-size="14.00">ragger.utils.structs</text>
</g>
<!-- ragger.backend.stub&#45;&gt;ragger.utils.structs -->
<g id="edge31" class="edge">
<title>ragger.backend.stub&#45;&gt;ragger.utils.structs</title>
<path fill="none" stroke="black" d="M510.93,-684.09C525.65,-694.21 544.4,-707.46 560.5,-720 579.89,-735.11 581.07,-743.95 602.5,-756 647.33,-781.22 668.52,-765.32 712.5,-792 740.56,-809.02 766.7,-836.26 783.69,-856.12"/>
<polygon fill="black" stroke="black" points="790.18,-863.86 780.31,-859.08 786.97,-860.03 783.76,-856.19 783.76,-856.19 783.76,-856.19 786.97,-860.03 787.21,-853.31 790.18,-863.86 790.18,-863.86"/>
</g>
<!-- ragger.bip -->
<g id="node10" class="node">
<title>ragger.bip</title>
<polygon fill="#44bb99" stroke="#44bb99" points="2273.5,-36 2183.5,-36 2183.5,0 2273.5,0 2273.5,-36"/>
<text text-anchor="middle" x="2228.5" y="-14.3" font-family="Times,serif" font-size="14.00">ragger.bip</text>
</g>
<!-- ragger.bip.path -->
<g id="node11" class="node">
<title>ragger.bip.path</title>
<polygon fill="#44bb99" stroke="#44bb99" points="2219,-108 2092,-108 2092,-72 2219,-72 2219,-108"/>
<text text-anchor="middle" x="2155.5" y="-86.3" font-family="Times,serif" font-size="14.00">ragger.bip.path</text>
</g>
<!-- ragger.bip&#45;&gt;ragger.bip.path -->
<g id="edge32" class="edge">
<title>ragger.bip&#45;&gt;ragger.bip.path</title>
<path fill="none" stroke="black" d="M2210.46,-36.3C2201.44,-44.95 2190.38,-55.55 2180.56,-64.97"/>
<polygon fill="black" stroke="black" points="2173.34,-71.9 2177.44,-61.73 2176.95,-68.44 2180.56,-64.97 2180.56,-64.97 2180.56,-64.97 2176.95,-68.44 2183.67,-68.22 2173.34,-71.9 2173.34,-71.9"/>
</g>
<!-- ragger.bip.seed -->
<g id="node12" class="node">
<title>ragger.bip.seed</title>
<polygon fill="#44bb99" stroke="#44bb99" points="2365.5,-108 2237.5,-108 2237.5,-72 2365.5,-72 2365.5,-108"/>
<text text-anchor="middle" x="2301.5" y="-86.3" font-family="Times,serif" font-size="14.00">ragger.bip.seed</text>
</g>
<!-- ragger.bip&#45;&gt;ragger.bip.seed -->
<g id="edge33" class="edge">
<title>ragger.bip&#45;&gt;ragger.bip.seed</title>
<path fill="none" stroke="black" d="M2246.54,-36.3C2255.56,-44.95 2266.62,-55.55 2276.44,-64.97"/>
<polygon fill="black" stroke="black" points="2283.66,-71.9 2273.33,-68.22 2280.05,-68.44 2276.44,-64.97 2276.44,-64.97 2276.44,-64.97 2280.05,-68.44 2279.56,-61.73 2283.66,-71.9 2283.66,-71.9"/>
</g>
<!-- ragger.conftest -->
<g id="node13" class="node">
<title>ragger.conftest</title>
<polygon fill="#bbcc33" stroke="#bbcc33" points="2417,-36 2292,-36 2292,0 2417,0 2417,-36"/>
<text text-anchor="middle" x="2354.5" y="-14.3" font-family="Times,serif" font-size="14.00">ragger.conftest</text>
</g>
<!-- ragger.conftest.base_conftest -->
<g id="node14" class="node">
<title>ragger.conftest.base_conftest</title>
<polygon fill="#bbcc33" stroke="#bbcc33" points="1213,-36 986,-36 986,0 1213,0 1213,-36"/>
<text text-anchor="middle" x="1099.5" y="-14.3" font-family="Times,serif" font-size="14.00">ragger.conftest.base_conftest</text>
</g>
<!-- ragger.conftest.base_conftest&#45;&gt;ragger.backend -->
<g id="edge34" class="edge">
<title>ragger.conftest.base_conftest&#45;&gt;ragger.backend</title>
<path fill="none" stroke="black" d="M985.98,-30.27C850.91,-46.35 637.8,-81.16 591.5,-144 502.78,-264.42 594.5,-347.05 682.5,-468 691.02,-479.72 702.9,-489.93 714.56,-498.19"/>
<polygon fill="black" stroke="black" points="722.96,-503.85 712.15,-501.99 718.81,-501.05 714.66,-498.26 714.66,-498.26 714.66,-498.26 718.81,-501.05 717.18,-494.53 722.96,-503.85 722.96,-503.85"/>
</g>
<!-- ragger.conftest.base_conftest&#45;&gt;ragger.firmware -->
<g id="edge35" class="edge">
<title>ragger.conftest.base_conftest&#45;&gt;ragger.firmware</title>
<path fill="none" stroke="black" d="M1213.05,-24.74C1460.31,-38.75 2025.5,-79.68 2025.5,-161 2025.5,-161 2025.5,-161 2025.5,-667 2025.5,-728.52 1976.05,-731.79 1919.5,-756 1849.24,-786.08 1634.7,-800.27 1518.76,-805.89"/>
<polygon fill="black" stroke="black" points="1508.54,-806.38 1518.32,-801.41 1513.54,-806.14 1518.53,-805.9 1518.53,-805.9 1518.53,-805.9 1513.54,-806.14 1518.74,-810.4 1508.54,-806.38 1508.54,-806.38"/>
</g>
<!-- ragger.conftest.base_conftest&#45;&gt;ragger.logger -->
<g id="edge36" class="edge">
<title>ragger.conftest.base_conftest&#45;&gt;ragger.logger</title>
<path fill="none" stroke="black" d="M985.96,-24.02C730.87,-36.8 134.5,-75.8 134.5,-161 134.5,-161 134.5,-161 134.5,-811 134.5,-851.45 123.91,-872.43 153.5,-900 197.24,-940.76 367.43,-950.38 463.51,-952.51"/>
<polygon fill="black" stroke="black" points="473.71,-952.72 463.62,-957.02 468.71,-952.62 463.71,-952.52 463.71,-952.52 463.71,-952.52 468.71,-952.62 463.8,-948.02 473.71,-952.72 473.71,-952.72"/>
</g>
<!-- ragger.navigator -->
<g id="node29" class="node">
<title>ragger.navigator</title>
<polygon fill="#ee8866" stroke="#ee8866" points="968.5,-108 832.5,-108 832.5,-72 968.5,-72 968.5,-108"/>
<text text-anchor="middle" x="900.5" y="-86.3" font-family="Times,serif" font-size="14.00">ragger.navigator</text>
</g>
<!-- ragger.conftest.base_conftest&#45;&gt;ragger.navigator -->
<g id="edge37" class="edge">
<title>ragger.conftest.base_conftest&#45;&gt;ragger.navigator</title>
<path fill="none" stroke="black" d="M1051.07,-36.03C1023.27,-45.81 988.16,-58.16 958.85,-68.48"/>
<polygon fill="black" stroke="black" points="949.14,-71.89 957.08,-64.33 953.86,-70.23 958.58,-68.57 958.58,-68.57 958.58,-68.57 953.86,-70.23 960.07,-72.82 949.14,-71.89 949.14,-71.89"/>
</g>
<!-- ragger.conftest.base_conftest&#45;&gt;ragger.utils -->
<g id="edge38" class="edge">
<title>ragger.conftest.base_conftest&#45;&gt;ragger.utils</title>
<path fill="none" stroke="black" d="M1108.93,-36.25C1126.62,-69.71 1164.2,-146.26 1177.5,-216 1180.5,-231.72 1186.82,-238.99 1177.5,-252 1148.52,-292.44 1100.48,-247.56 1071.5,-288 1062.18,-301.01 1068.55,-308.27 1071.5,-324 1102.81,-490.9 1255.3,-523.62 1199.5,-684 1186.09,-722.55 1175.87,-732.51 1142.5,-756 1113.53,-776.4 1076.09,-789.43 1045.04,-797.47"/>
<polygon fill="black" stroke="black" points="1035.2,-799.91 1043.83,-793.14 1040.05,-798.71 1044.91,-797.51 1044.91,-797.51 1044.91,-797.51 1040.05,-798.71 1045.99,-801.87 1035.2,-799.91 1035.2,-799.91"/>
</g>
<!-- ragger.utils.misc -->
<g id="node36" class="node">
<title>ragger.utils.misc</title>
<polygon fill="#ffaabb" stroke="#ffaabb" points="1437,-900 1300,-900 1300,-864 1437,-864 1437,-900"/>
<text text-anchor="middle" x="1368.5" y="-878.3" font-family="Times,serif" font-size="14.00">ragger.utils.misc</text>
</g>
<!-- ragger.conftest.base_conftest&#45;&gt;ragger.utils.misc -->
<g id="edge39" class="edge">
<title>ragger.conftest.base_conftest&#45;&gt;ragger.utils.misc</title>
<path fill="none" stroke="black" d="M1213.22,-22.71C1393.47,-29.31 1736.58,-44.99 1855.5,-72 1953.55,-94.27 2063.5,-60.45 2063.5,-161 2063.5,-161 2063.5,-161 2063.5,-739 2063.5,-875.97 1603.94,-836.89 1447.62,-863.78"/>
<polygon fill="black" stroke="black" points="1437.33,-865.74 1446.31,-859.45 1442.25,-864.8 1447.16,-863.87 1447.16,-863.87 1447.16,-863.87 1442.25,-864.8 1448,-868.29 1437.33,-865.74 1437.33,-865.74"/>
</g>
<!-- ragger.conftest.configuration -->
<g id="node15" class="node">
<title>ragger.conftest.configuration</title>
<polygon fill="#bbcc33" stroke="#bbcc33" points="2659.5,-36 2435.5,-36 2435.5,0 2659.5,0 2659.5,-36"/>
<text text-anchor="middle" x="2547.5" y="-14.3" font-family="Times,serif" font-size="14.00">ragger.conftest.configuration</text>
</g>
<!-- ragger.firmware.structs -->
<g id="node18" class="node">
<title>ragger.firmware.structs</title>
<polygon fill="#aaaa00" stroke="#aaaa00" points="1642,-900 1455,-900 1455,-864 1642,-864 1642,-900"/>
<text text-anchor="middle" x="1548.5" y="-878.3" font-family="Times,serif" font-size="14.00">ragger.firmware.structs</text>
</g>
<!-- ragger.firmware&#45;&gt;ragger.firmware.structs -->
<g id="edge40" class="edge">
<title>ragger.firmware&#45;&gt;ragger.firmware.structs</title>
<path fill="none" stroke="black" d="M1468.43,-828.12C1482.16,-837.19 1499.21,-848.45 1514.04,-858.24"/>
<polygon fill="black" stroke="black" points="1522.47,-863.81 1511.65,-862.05 1518.3,-861.05 1514.13,-858.3 1514.13,-858.3 1514.13,-858.3 1518.3,-861.05 1516.6,-854.54 1522.47,-863.81 1522.47,-863.81"/>
</g>
<!-- ragger.firmware.touch -->
<g id="node19" class="node">
<title>ragger.firmware.touch</title>
<polygon fill="#aaaa00" stroke="#aaaa00" points="1168.5,-252 992.5,-252 992.5,-216 1168.5,-216 1168.5,-252"/>
<text text-anchor="middle" x="1080.5" y="-230.3" font-family="Times,serif" font-size="14.00">ragger.firmware.touch</text>
</g>
<!-- ragger.firmware.touch.screen -->
<g id="node23" class="node">
<title>ragger.firmware.touch.screen</title>
<polygon fill="#aaaa00" stroke="#aaaa00" points="1308.5,-324 1080.5,-324 1080.5,-288 1308.5,-288 1308.5,-324"/>
<text text-anchor="middle" x="1194.5" y="-302.3" font-family="Times,serif" font-size="14.00">ragger.firmware.touch.screen</text>
</g>
<!-- ragger.firmware.touch&#45;&gt;ragger.firmware.touch.screen -->
<g id="edge41" class="edge">
<title>ragger.firmware.touch&#45;&gt;ragger.firmware.touch.screen</title>
<path fill="none" stroke="black" d="M1108.39,-252.12C1123.29,-261.28 1141.83,-272.66 1157.88,-282.52"/>
<polygon fill="black" stroke="black" points="1166.51,-287.81 1155.63,-286.41 1162.24,-285.19 1157.98,-282.58 1157.98,-282.58 1157.98,-282.58 1162.24,-285.19 1160.34,-278.74 1166.51,-287.81 1166.51,-287.81"/>
</g>
<!-- ragger.firmware.touch.element -->
<g id="node20" class="node">
<title>ragger.firmware.touch.element</title>
<polygon fill="#aaaa00" stroke="#aaaa00" points="1579,-468 1340,-468 1340,-432 1579,-432 1579,-468"/>
<text text-anchor="middle" x="1459.5" y="-446.3" font-family="Times,serif" font-size="14.00">ragger.firmware.touch.element</text>
</g>
<!-- ragger.firmware.touch.element&#45;&gt;ragger.backend -->
<g id="edge42" class="edge">
<title>ragger.firmware.touch.element&#45;&gt;ragger.backend</title>
<path fill="none" stroke="black" d="M1339.91,-462.87C1193.37,-477.42 949.63,-501.63 828.1,-513.69"/>
<polygon fill="black" stroke="black" points="818.14,-514.68 827.65,-509.21 823.12,-514.19 828.1,-513.69 828.1,-513.69 828.1,-513.69 823.12,-514.19 828.54,-518.17 818.14,-514.68 818.14,-514.68"/>
</g>
<!-- ragger.firmware.touch.element&#45;&gt;ragger.firmware -->
<g id="edge43" class="edge">
<title>ragger.firmware.touch.element&#45;&gt;ragger.firmware</title>
<path fill="none" stroke="black" d="M1536.89,-468C1557.19,-475.88 1577.34,-487.36 1591.5,-504 1617.77,-534.88 1611.5,-552.46 1611.5,-593 1611.5,-593 1611.5,-593 1611.5,-667 1611.5,-726.4 1549.54,-765.93 1500.65,-787.87"/>
<polygon fill="black" stroke="black" points="1491.38,-791.9 1498.76,-783.79 1495.97,-789.91 1500.55,-787.92 1500.55,-787.92 1500.55,-787.92 1495.97,-789.91 1502.35,-792.04 1491.38,-791.9 1491.38,-791.9"/>
</g>
<!-- ragger.firmware.touch.positions -->
<g id="node22" class="node">
<title>ragger.firmware.touch.positions</title>
<polygon fill="#aaaa00" stroke="#aaaa00" points="1583,-540 1338,-540 1338,-504 1583,-504 1583,-540"/>
<text text-anchor="middle" x="1460.5" y="-518.3" font-family="Times,serif" font-size="14.00">ragger.firmware.touch.positions</text>
</g>
<!-- ragger.firmware.touch.element&#45;&gt;ragger.firmware.touch.positions -->
<g id="edge44" class="edge">
<title>ragger.firmware.touch.element&#45;&gt;ragger.firmware.touch.positions</title>
<path fill="none" stroke="black" d="M1459.75,-468.3C1459.86,-476.02 1459.99,-485.29 1460.11,-493.89"/>
<polygon fill="black" stroke="black" points="1460.26,-503.9 1455.61,-493.96 1460.18,-498.9 1460.11,-493.9 1460.11,-493.9 1460.11,-493.9 1460.18,-498.9 1464.61,-493.83 1460.26,-503.9 1460.26,-503.9"/>
</g>
<!-- ragger.firmware.touch.layouts -->
<g id="node21" class="node">
<title>ragger.firmware.touch.layouts</title>
<polygon fill="#aaaa00" stroke="#aaaa00" points="1621,-396 1388,-396 1388,-360 1621,-360 1621,-396"/>
<text text-anchor="middle" x="1504.5" y="-374.3" font-family="Times,serif" font-size="14.00">ragger.firmware.touch.layouts</text>
</g>
<!-- ragger.firmware.touch.layouts&#45;&gt;ragger.firmware.touch.element -->
<g id="edge45" class="edge">
<title>ragger.firmware.touch.layouts&#45;&gt;ragger.firmware.touch.element</title>
<path fill="none" stroke="black" d="M1493.38,-396.3C1488.14,-404.44 1481.8,-414.31 1476.02,-423.3"/>
<polygon fill="black" stroke="black" points="1470.5,-431.9 1472.12,-421.05 1473.2,-427.69 1475.9,-423.48 1475.9,-423.48 1475.9,-423.48 1473.2,-427.69 1479.69,-425.92 1470.5,-431.9 1470.5,-431.9"/>
</g>
<!-- ragger.firmware.touch.positions&#45;&gt;ragger.firmware -->
<g id="edge46" class="edge">
<title>ragger.firmware.touch.positions&#45;&gt;ragger.firmware</title>
<path fill="none" stroke="black" d="M1459.43,-540.03C1456.43,-587.71 1447.92,-722.82 1444.24,-781.37"/>
<polygon fill="black" stroke="black" points="1443.59,-791.69 1439.73,-781.43 1443.9,-786.7 1444.22,-781.71 1444.22,-781.71 1444.22,-781.71 1443.9,-786.7 1448.71,-782 1443.59,-791.69 1443.59,-791.69"/>
</g>
<!-- ragger.firmware.touch.screen&#45;&gt;ragger.backend -->
<g id="edge47" class="edge">
<title>ragger.firmware.touch.screen&#45;&gt;ragger.backend</title>
<path fill="none" stroke="black" d="M1080.42,-313.8C961.34,-322.05 788.9,-337.66 767.5,-360 733.48,-395.51 739.97,-457.92 747.43,-493.71"/>
<polygon fill="black" stroke="black" points="749.73,-503.9 743.14,-495.14 748.63,-499.03 747.53,-494.15 747.53,-494.15 747.53,-494.15 748.63,-499.03 751.92,-493.16 749.73,-503.9 749.73,-503.9"/>
</g>
<!-- ragger.firmware.touch.screen&#45;&gt;ragger.firmware -->
<g id="edge48" class="edge">
<title>ragger.firmware.touch.screen&#45;&gt;ragger.firmware</title>
<path fill="none" stroke="black" d="M1308.63,-306.46C1421.5,-308.4 1583.77,-318.62 1629.5,-360 1659.56,-387.2 1649.5,-408.46 1649.5,-449 1649.5,-449 1649.5,-449 1649.5,-667 1649.5,-732.85 1577.4,-770.43 1518.3,-790.18"/>
<polygon fill="black" stroke="black" points="1508.57,-793.31 1516.7,-785.96 1513.32,-791.78 1518.08,-790.25 1518.08,-790.25 1518.08,-790.25 1513.32,-791.78 1519.46,-794.53 1508.57,-793.31 1508.57,-793.31"/>
</g>
<!-- ragger.firmware.touch.screen&#45;&gt;ragger.firmware.touch.element -->
<g id="edge49" class="edge">
<title>ragger.firmware.touch.screen&#45;&gt;ragger.firmware.touch.element</title>
<path fill="none" stroke="black" d="M1149.47,-324.14C1133.95,-332.47 1118.28,-344.19 1109.5,-360 1101.74,-373.99 1099.07,-383.87 1109.5,-396 1113.24,-400.35 1231.77,-417.67 1329.87,-431.34"/>
<polygon fill="black" stroke="black" points="1339.89,-432.73 1329.37,-435.81 1334.94,-432.04 1329.99,-431.36 1329.99,-431.36 1329.99,-431.36 1334.94,-432.04 1330.61,-426.9 1339.89,-432.73 1339.89,-432.73"/>
</g>
<!-- ragger.firmware.touch.screen&#45;&gt;ragger.firmware.touch.layouts -->
<g id="edge50" class="edge">
<title>ragger.firmware.touch.screen&#45;&gt;ragger.firmware.touch.layouts</title>
<path fill="none" stroke="black" d="M1269.94,-324.03C1315.03,-334.22 1372.45,-347.18 1419.19,-357.74"/>
<polygon fill="black" stroke="black" points="1428.99,-359.95 1418.25,-362.14 1424.12,-358.85 1419.24,-357.75 1419.24,-357.75 1419.24,-357.75 1424.12,-358.85 1420.23,-353.36 1428.99,-359.95 1428.99,-359.95"/>
</g>
<!-- ragger.firmware.touch.use_cases -->
<g id="node24" class="node">
<title>ragger.firmware.touch.use_cases</title>
<polygon fill="#aaaa00" stroke="#aaaa00" points="1370,-396 1119,-396 1119,-360 1370,-360 1370,-396"/>
<text text-anchor="middle" x="1244.5" y="-374.3" font-family="Times,serif" font-size="14.00">ragger.firmware.touch.use_cases</text>
</g>
<!-- ragger.firmware.touch.screen&#45;&gt;ragger.firmware.touch.use_cases -->
<g id="edge51" class="edge">
<title>ragger.firmware.touch.screen&#45;&gt;ragger.firmware.touch.use_cases</title>
<path fill="none" stroke="black" d="M1206.86,-324.3C1212.73,-332.53 1219.87,-342.52 1226.34,-351.58"/>
<polygon fill="black" stroke="black" points="1232.28,-359.9 1222.81,-354.37 1229.38,-355.83 1226.47,-351.76 1226.47,-351.76 1226.47,-351.76 1229.38,-355.83 1230.13,-349.14 1232.28,-359.9 1232.28,-359.9"/>
</g>
<!-- ragger.firmware.touch.use_cases&#45;&gt;ragger.firmware.touch.element -->
<g id="edge52" class="edge">
<title>ragger.firmware.touch.use_cases&#45;&gt;ragger.firmware.touch.element</title>
<path fill="none" stroke="black" d="M1296.82,-396.03C1327.12,-405.9 1365.45,-418.38 1397.29,-428.75"/>
<polygon fill="black" stroke="black" points="1406.95,-431.89 1396.04,-433.07 1402.19,-430.34 1397.44,-428.79 1397.44,-428.79 1397.44,-428.79 1402.19,-430.34 1398.83,-424.51 1406.95,-431.89 1406.95,-431.89"/>
</g>
<!-- ragger.gui.process -->
<g id="node27" class="node">
<title>ragger.gui.process</title>
<polygon fill="#eedd88" stroke="#eedd88" points="552,-828 403,-828 403,-792 552,-792 552,-828"/>
<text text-anchor="middle" x="477.5" y="-806.3" font-family="Times,serif" font-size="14.00">ragger.gui.process</text>
</g>
<!-- ragger.gui&#45;&gt;ragger.gui.process -->
<g id="edge53" class="edge">
<title>ragger.gui&#45;&gt;ragger.gui.process</title>
<path fill="none" stroke="black" d="M474.49,-756.3C474.93,-764.02 475.46,-773.29 475.95,-781.89"/>
<polygon fill="black" stroke="black" points="476.52,-791.9 471.46,-782.17 476.24,-786.9 475.95,-781.91 475.95,-781.91 475.95,-781.91 476.24,-786.9 480.44,-781.66 476.52,-791.9 476.52,-791.9"/>
</g>
<!-- ragger.gui.interface -->
<g id="node26" class="node">
<title>ragger.gui.interface</title>
<polygon fill="#eedd88" stroke="#eedd88" points="556.5,-900 398.5,-900 398.5,-864 556.5,-864 556.5,-900"/>
<text text-anchor="middle" x="477.5" y="-878.3" font-family="Times,serif" font-size="14.00">ragger.gui.interface</text>
</g>
<!-- ragger.gui.interface&#45;&gt;ragger.logger -->
<g id="edge54" class="edge">
<title>ragger.gui.interface&#45;&gt;ragger.logger</title>
<path fill="none" stroke="black" d="M490.6,-900.3C496.89,-908.61 504.55,-918.72 511.46,-927.86"/>
<polygon fill="black" stroke="black" points="517.55,-935.9 507.93,-930.64 514.53,-931.91 511.51,-927.92 511.51,-927.92 511.51,-927.92 514.53,-931.91 515.1,-925.21 517.55,-935.9 517.55,-935.9"/>
</g>
<!-- ragger.gui.process&#45;&gt;ragger.gui.interface -->
<g id="edge55" class="edge">
<title>ragger.gui.process&#45;&gt;ragger.gui.interface</title>
<path fill="none" stroke="black" d="M477.5,-828.3C477.5,-836.02 477.5,-845.29 477.5,-853.89"/>
<polygon fill="black" stroke="black" points="477.5,-863.9 473,-853.9 477.5,-858.9 477.5,-853.9 477.5,-853.9 477.5,-853.9 477.5,-858.9 482,-853.9 477.5,-863.9 477.5,-863.9"/>
</g>
<!-- ragger.gui.process&#45;&gt;ragger.logger -->
<g id="edge56" class="edge">
<title>ragger.gui.process&#45;&gt;ragger.logger</title>
<path fill="none" stroke="black" d="M524.54,-828.03C540.45,-836.3 556.46,-848.01 565.5,-864 577.01,-884.37 565.24,-909.29 552.33,-927.57"/>
<polygon fill="black" stroke="black" points="546,-935.96 548.43,-925.27 549.01,-931.97 552.02,-927.98 552.02,-927.98 552.02,-927.98 549.01,-931.97 555.62,-930.69 546,-935.96 546,-935.96"/>
</g>
<!-- ragger.gui.process&#45;&gt;ragger.navigator.instruction -->
<g id="edge57" class="edge">
<title>ragger.gui.process&#45;&gt;ragger.navigator.instruction</title>
<path fill="none" stroke="black" d="M427.37,-828.03C398.46,-837.86 361.93,-850.27 331.5,-860.61"/>
<polygon fill="black" stroke="black" points="321.85,-863.89 329.88,-856.41 326.59,-862.28 331.32,-860.67 331.32,-860.67 331.32,-860.67 326.59,-862.28 332.77,-864.93 321.85,-863.89 321.85,-863.89"/>
</g>
<!-- ragger.navigator&#45;&gt;ragger.navigator -->
<g id="edge58" class="edge">
<title>ragger.navigator&#45;&gt;ragger.navigator</title>
<path fill="none" stroke="black" d="M968.63,-77.63C979.26,-79.48 986.5,-83.6 986.5,-90 986.5,-94.1 983.53,-97.26 978.6,-99.5"/>
<polygon fill="black" stroke="black" points="968.63,-102.37 976.99,-95.28 973.43,-100.99 978.24,-99.6 978.24,-99.6 978.24,-99.6 973.43,-100.99 979.48,-103.92 968.63,-102.37 968.63,-102.37"/>
</g>
<!-- ragger.navigator&#45;&gt;ragger.navigator.instruction -->
<g id="edge59" class="edge">
<title>ragger.navigator&#45;&gt;ragger.navigator.instruction</title>
<path fill="none" stroke="black" d="M832.23,-96.95C768.69,-103.83 671.96,-117.75 591.5,-144 420.81,-199.69 261.5,-197.46 261.5,-377 261.5,-377 261.5,-377 261.5,-739 261.5,-779.1 265.52,-825.42 268.46,-853.96"/>
<polygon fill="black" stroke="black" points="269.52,-863.98 263.99,-854.51 269,-859.01 268.47,-854.03 268.47,-854.03 268.47,-854.03 269,-859.01 272.94,-853.56 269.52,-863.98 269.52,-863.98"/>
</g>
<!-- ragger.navigator.nano_navigator -->
<g id="node31" class="node">
<title>ragger.navigator.nano_navigator</title>
<polygon fill="#ee8866" stroke="#ee8866" points="1024.5,-396 776.5,-396 776.5,-360 1024.5,-360 1024.5,-396"/>
<text text-anchor="middle" x="900.5" y="-374.3" font-family="Times,serif" font-size="14.00">ragger.navigator.nano_navigator</text>
</g>
<!-- ragger.navigator&#45;&gt;ragger.navigator.nano_navigator -->
<g id="edge60" class="edge">
<title>ragger.navigator&#45;&gt;ragger.navigator.nano_navigator</title>
<path fill="none" stroke="black" d="M900.5,-108.03C900.5,-155.71 900.5,-290.82 900.5,-349.37"/>
<polygon fill="black" stroke="black" points="900.5,-359.69 896,-349.69 900.5,-354.69 900.5,-349.69 900.5,-349.69 900.5,-349.69 900.5,-354.69 905,-349.69 900.5,-359.69 900.5,-359.69"/>
</g>
<!-- ragger.navigator.navigation_scenario -->
<g id="node32" class="node">
<title>ragger.navigator.navigation_scenario</title>
<polygon fill="#ee8866" stroke="#ee8866" points="1959,-396 1678,-396 1678,-360 1959,-360 1959,-396"/>
<text text-anchor="middle" x="1818.5" y="-374.3" font-family="Times,serif" font-size="14.00">ragger.navigator.navigation_scenario</text>
</g>
<!-- ragger.navigator&#45;&gt;ragger.navigator.navigation_scenario -->
<g id="edge61" class="edge">
<title>ragger.navigator&#45;&gt;ragger.navigator.navigation_scenario</title>
<path fill="none" stroke="black" d="M955.18,-108.03C1115.25,-157.9 1582.39,-303.44 1754.16,-356.95"/>
<polygon fill="black" stroke="black" points="1763.82,-359.97 1752.94,-361.29 1759.05,-358.48 1754.27,-356.99 1754.27,-356.99 1754.27,-356.99 1759.05,-358.48 1755.61,-352.69 1763.82,-359.97 1763.82,-359.97"/>
</g>
<!-- ragger.navigator.touch_navigator -->
<g id="node34" class="node">
<title>ragger.navigator.touch_navigator</title>
<polygon fill="#ee8866" stroke="#ee8866" points="854.5,-180 600.5,-180 600.5,-144 854.5,-144 854.5,-180"/>
<text text-anchor="middle" x="727.5" y="-158.3" font-family="Times,serif" font-size="14.00">ragger.navigator.touch_navigator</text>
</g>
<!-- ragger.navigator&#45;&gt;ragger.navigator.touch_navigator -->
<g id="edge62" class="edge">
<title>ragger.navigator&#45;&gt;ragger.navigator.touch_navigator</title>
<path fill="none" stroke="black" d="M858.18,-108.12C834.32,-117.78 804.33,-129.91 779.1,-140.12"/>
<polygon fill="black" stroke="black" points="769.68,-143.93 777.27,-136.01 774.32,-142.06 778.95,-140.18 778.95,-140.18 778.95,-140.18 774.32,-142.06 780.64,-144.35 769.68,-143.93 769.68,-143.93"/>
</g>
<!-- ragger.navigator.nano_navigator&#45;&gt;ragger.backend -->
<g id="edge63" class="edge">
<title>ragger.navigator.nano_navigator&#45;&gt;ragger.backend</title>
<path fill="none" stroke="black" d="M858.9,-396.09C840.97,-404.91 820.68,-417 805.5,-432 787.49,-449.8 773.75,-475.29 765.1,-494.43"/>
<polygon fill="black" stroke="black" points="761.04,-503.79 760.89,-492.82 763.03,-499.2 765.02,-494.62 765.02,-494.62 765.02,-494.62 763.03,-499.2 769.15,-496.41 761.04,-503.79 761.04,-503.79"/>
</g>
<!-- ragger.navigator.nano_navigator&#45;&gt;ragger.firmware -->
<g id="edge64" class="edge">
<title>ragger.navigator.nano_navigator&#45;&gt;ragger.firmware</title>
<path fill="none" stroke="black" d="M960.32,-396.03C1061.85,-428.06 1267.56,-507.07 1377.5,-648 1409.45,-688.96 1427.84,-747.74 1436.45,-781.78"/>
<polygon fill="black" stroke="black" points="1438.91,-791.91 1432.18,-783.25 1437.73,-787.05 1436.55,-782.19 1436.55,-782.19 1436.55,-782.19 1437.73,-787.05 1440.92,-781.13 1438.91,-791.91 1438.91,-791.91"/>
</g>
<!-- ragger.navigator.navigator -->
<g id="node33" class="node">
<title>ragger.navigator.navigator</title>
<polygon fill="#ee8866" stroke="#ee8866" points="1022,-468 815,-468 815,-432 1022,-432 1022,-468"/>
<text text-anchor="middle" x="918.5" y="-446.3" font-family="Times,serif" font-size="14.00">ragger.navigator.navigator</text>
</g>
<!-- ragger.navigator.nano_navigator&#45;&gt;ragger.navigator.navigator -->
<g id="edge65" class="edge">
<title>ragger.navigator.nano_navigator&#45;&gt;ragger.navigator.navigator</title>
<path fill="none" stroke="black" d="M904.95,-396.3C906.95,-404.1 909.37,-413.49 911.6,-422.17"/>
<polygon fill="black" stroke="black" points="914.1,-431.9 907.25,-423.33 912.86,-427.05 911.61,-422.21 911.61,-422.21 911.61,-422.21 912.86,-427.05 915.97,-421.09 914.1,-431.9 914.1,-431.9"/>
</g>
<!-- ragger.navigator.navigation_scenario&#45;&gt;ragger.firmware -->
<g id="edge66" class="edge">
<title>ragger.navigator.navigation_scenario&#45;&gt;ragger.firmware</title>
<path fill="none" stroke="black" d="M1804.72,-396.21C1785.64,-421.82 1753.5,-472.2 1753.5,-521 1753.5,-521 1753.5,-521 1753.5,-667 1753.5,-769.84 1611.05,-798.52 1518.97,-806.32"/>
<polygon fill="black" stroke="black" points="1508.84,-807.11 1518.45,-801.84 1513.82,-806.72 1518.81,-806.33 1518.81,-806.33 1518.81,-806.33 1513.82,-806.72 1519.16,-810.81 1508.84,-807.11 1508.84,-807.11"/>
</g>
<!-- ragger.navigator.navigation_scenario&#45;&gt;ragger.navigator.navigator -->
<g id="edge67" class="edge">
<title>ragger.navigator.navigation_scenario&#45;&gt;ragger.navigator.navigator</title>
<path fill="none" stroke="black" d="M1677.9,-391.89C1661.58,-393.31 1645.18,-394.71 1629.5,-396 1418.88,-413.32 1172.96,-431.11 1032.5,-441.04"/>
<polygon fill="black" stroke="black" points="1022.16,-441.77 1031.82,-436.58 1027.15,-441.42 1032.13,-441.07 1032.13,-441.07 1032.13,-441.07 1027.15,-441.42 1032.45,-445.56 1022.16,-441.77 1022.16,-441.77"/>
</g>
<!-- ragger.navigator.navigator&#45;&gt;ragger.backend -->
<g id="edge68" class="edge">
<title>ragger.navigator.navigator&#45;&gt;ragger.backend</title>
<path fill="none" stroke="black" d="M878.38,-468.12C855.86,-477.74 827.58,-489.81 803.73,-499.99"/>
<polygon fill="black" stroke="black" points="794.49,-503.93 801.92,-495.87 799.09,-501.97 803.69,-500.01 803.69,-500.01 803.69,-500.01 799.09,-501.97 805.45,-504.14 794.49,-503.93 794.49,-503.93"/>
</g>
<!-- ragger.navigator.navigator&#45;&gt;ragger.firmware -->
<g id="edge69" class="edge">
<title>ragger.navigator.navigator&#45;&gt;ragger.firmware</title>
<path fill="none" stroke="black" d="M1018.73,-468.01C1056.02,-476.28 1098.09,-487.99 1134.5,-504 1240.12,-550.45 1272.58,-562.91 1350.5,-648 1387.44,-688.34 1381.92,-708.77 1409.5,-756 1414.77,-765.03 1420.76,-774.78 1426.17,-783.43"/>
<polygon fill="black" stroke="black" points="1431.55,-791.96 1422.41,-785.9 1428.88,-787.73 1426.22,-783.5 1426.22,-783.5 1426.22,-783.5 1428.88,-787.73 1430.02,-781.11 1431.55,-791.96 1431.55,-791.96"/>
</g>
<!-- ragger.navigator.navigator&#45;&gt;ragger.navigator.instruction -->
<g id="edge70" class="edge">
<title>ragger.navigator.navigator&#45;&gt;ragger.navigator.instruction</title>
<path fill="none" stroke="black" d="M814.96,-455.21C647.93,-464.85 337.5,-495.85 337.5,-593 337.5,-593 337.5,-593 337.5,-739 337.5,-779.97 331.94,-791.41 313.5,-828 308.59,-837.75 301.7,-847.41 294.92,-855.76"/>
<polygon fill="black" stroke="black" points="288.26,-863.63 291.29,-853.09 291.49,-859.81 294.72,-856 294.72,-856 294.72,-856 291.49,-859.81 298.16,-858.91 288.26,-863.63 288.26,-863.63"/>
</g>
<!-- ragger.navigator.navigator&#45;&gt;ragger.utils -->
<g id="edge71" class="edge">
<title>ragger.navigator.navigator&#45;&gt;ragger.utils</title>
<path fill="none" stroke="black" d="M1004.71,-468.02C1063.94,-484.68 1138.33,-516.59 1175.5,-576 1220.69,-648.24 1174.23,-700.58 1109.5,-756 1090.91,-771.92 1066.83,-783.67 1044.84,-792.01"/>
<polygon fill="black" stroke="black" points="1035.24,-795.49 1043.1,-787.85 1039.94,-793.78 1044.64,-792.08 1044.64,-792.08 1044.64,-792.08 1039.94,-793.78 1046.17,-796.31 1035.24,-795.49 1035.24,-795.49"/>
</g>
<!-- ragger.navigator.touch_navigator&#45;&gt;ragger.backend -->
<g id="edge72" class="edge">
<title>ragger.navigator.touch_navigator&#45;&gt;ragger.backend</title>
<path fill="none" stroke="black" d="M716.1,-180.1C699.99,-205.98 672.5,-257.15 672.5,-305 672.5,-305 672.5,-305 672.5,-379 672.5,-425.12 705.34,-469.74 729.46,-496.28"/>
<polygon fill="black" stroke="black" points="736.3,-503.6 726.18,-499.37 732.89,-499.95 729.47,-496.3 729.47,-496.3 729.47,-496.3 732.89,-499.95 732.75,-493.22 736.3,-503.6 736.3,-503.6"/>
</g>
<!-- ragger.navigator.touch_navigator&#45;&gt;ragger.firmware -->
<g id="edge73" class="edge">
<title>ragger.navigator.touch_navigator&#45;&gt;ragger.firmware</title>
<path fill="none" stroke="black" d="M854.83,-175.83C945.1,-185.46 1068.97,-199.73 1177.5,-216 1547.96,-271.52 1987.5,-74.4 1987.5,-449 1987.5,-449 1987.5,-449 1987.5,-667 1987.5,-762.76 1668.44,-795.11 1518.57,-805.03"/>
<polygon fill="black" stroke="black" points="1508.51,-805.68 1518.2,-800.54 1513.5,-805.35 1518.49,-805.03 1518.49,-805.03 1518.49,-805.03 1513.5,-805.35 1518.78,-809.52 1508.51,-805.68 1508.51,-805.68"/>
</g>
<!-- ragger.navigator.touch_navigator&#45;&gt;ragger.firmware.touch -->
<g id="edge74" class="edge">
<title>ragger.navigator.touch_navigator&#45;&gt;ragger.firmware.touch</title>
<path fill="none" stroke="black" d="M813.4,-180.03C865.18,-190.3 931.23,-203.4 984.69,-214"/>
<polygon fill="black" stroke="black" points="994.52,-215.95 983.83,-218.42 989.61,-214.98 984.71,-214 984.71,-214 984.71,-214 989.61,-214.98 985.59,-209.59 994.52,-215.95 994.52,-215.95"/>
</g>
<!-- ragger.navigator.touch_navigator&#45;&gt;ragger.navigator.instruction -->
<g id="edge75" class="edge">
<title>ragger.navigator.touch_navigator&#45;&gt;ragger.navigator.instruction</title>
<path fill="none" stroke="black" d="M641.15,-180.04C516.12,-210.31 299.5,-286.24 299.5,-449 299.5,-449 299.5,-449 299.5,-739 299.5,-779.73 288.27,-825.81 280.04,-854.14"/>
<polygon fill="black" stroke="black" points="277.17,-863.73 275.72,-852.86 278.6,-858.94 280.04,-854.15 280.04,-854.15 280.04,-854.15 278.6,-858.94 284.35,-855.44 277.17,-863.73 277.17,-863.73"/>
</g>
<!-- ragger.navigator.touch_navigator&#45;&gt;ragger.navigator.navigator -->
<g id="edge76" class="edge">
<title>ragger.navigator.touch_navigator&#45;&gt;ragger.navigator.navigator</title>
<path fill="none" stroke="black" d="M725.09,-180.02C720.14,-222.06 713.46,-332.05 767.5,-396 779.38,-410.06 795.22,-420.39 812.17,-427.98"/>
<polygon fill="black" stroke="black" points="821.69,-431.92 810.73,-432.25 817.07,-430.01 812.45,-428.09 812.45,-428.09 812.45,-428.09 817.07,-430.01 814.17,-423.93 821.69,-431.92 821.69,-431.92"/>
</g>
<!-- ragger.utils&#45;&gt;ragger.utils.misc -->
<g id="edge77" class="edge">
<title>ragger.utils&#45;&gt;ragger.utils.misc</title>
<path fill="none" stroke="black" d="M1035.18,-820.08C1099.78,-831.89 1213.37,-852.65 1289.76,-866.61"/>
<polygon fill="black" stroke="black" points="1299.82,-868.45 1289.18,-871.08 1294.9,-867.55 1289.98,-866.65 1289.98,-866.65 1289.98,-866.65 1294.9,-867.55 1290.79,-862.22 1299.82,-868.45 1299.82,-868.45"/>
</g>
<!-- ragger.utils.packing -->
<g id="node37" class="node">
<title>ragger.utils.packing</title>
<polygon fill="#ffaabb" stroke="#ffaabb" points="1058,-900 899,-900 899,-864 1058,-864 1058,-900"/>
<text text-anchor="middle" x="978.5" y="-878.3" font-family="Times,serif" font-size="14.00">ragger.utils.packing</text>
</g>
<!-- ragger.utils&#45;&gt;ragger.utils.packing -->
<g id="edge78" class="edge">
<title>ragger.utils&#45;&gt;ragger.utils.packing</title>
<path fill="none" stroke="black" d="M983.77,-828.3C983,-836.02 982.07,-845.29 981.21,-853.89"/>
<polygon fill="black" stroke="black" points="980.21,-863.9 976.73,-853.5 980.71,-858.92 981.21,-853.95 981.21,-853.95 981.21,-853.95 980.71,-858.92 985.68,-854.39 980.21,-863.9 980.21,-863.9"/>
</g>
<!-- ragger.utils&#45;&gt;ragger.utils.structs -->
<g id="edge79" class="edge">
<title>ragger.utils&#45;&gt;ragger.utils.structs</title>
<path fill="none" stroke="black" d="M940.98,-828.12C915.77,-837.82 884.05,-850.02 857.43,-860.26"/>
<polygon fill="black" stroke="black" points="847.88,-863.93 855.6,-856.14 852.54,-862.14 857.21,-860.34 857.21,-860.34 857.21,-860.34 852.54,-862.14 858.83,-864.54 847.88,-863.93 847.88,-863.93"/>
</g>
<!-- ragger.utils.misc&#45;&gt;ragger.error -->
<g id="edge80" class="edge">
<title>ragger.utils.misc&#45;&gt;ragger.error</title>
<path fill="none" stroke="black" d="M1322.02,-900.12C1295.58,-909.86 1262.3,-922.13 1234.44,-932.39"/>
<polygon fill="black" stroke="black" points="1224.83,-935.93 1232.66,-928.25 1229.52,-934.2 1234.21,-932.47 1234.21,-932.47 1234.21,-932.47 1229.52,-934.2 1235.77,-936.7 1224.83,-935.93 1224.83,-935.93"/>
</g>
</g>
</svg>
