<?xml version="1.0" encoding="UTF-8" standalone="no"?>
<!DOCTYPE svg PUBLIC "-//W3C//DTD SVG 1.1//EN"
 "http://www.w3.org/Graphics/SVG/1.1/DTD/svg11.dtd">
<!-- Generated by graphviz version 2.43.0 (0)
 -->
<!-- Title: packages_generated_ragger_architecture Pages: 1 -->
<svg width="1483pt" height="764pt"
 viewBox="0.00 0.00 1482.50 764.00" xmlns="http://www.w3.org/2000/svg" xmlns:xlink="http://www.w3.org/1999/xlink">
<g id="graph0" class="graph" transform="scale(1 1) rotate(0) translate(4 760)">
<title>packages_generated_ragger_architecture</title>
<polygon fill="white" stroke="transparent" points="-4,4 -4,-760 1478.5,-760 1478.5,4 -4,4"/>
<!-- ragger -->
<g id="node1" class="node">
<title>ragger</title>
<polygon fill="aliceblue" stroke="aliceblue" points="65,-540 0,-540 0,-504 65,-504 65,-540"/>
<text text-anchor="middle" x="32.5" y="-518.3" font-family="Times,serif" font-size="14.00">ragger</text>
</g>
<!-- ragger.logger -->
<g id="node19" class="node">
<title>ragger.logger</title>
<polygon fill="aliceblue" stroke="aliceblue" points="203,-612 90,-612 90,-576 203,-576 203,-612"/>
<text text-anchor="middle" x="146.5" y="-590.3" font-family="Times,serif" font-size="14.00">ragger.logger</text>
</g>
<!-- ragger&#45;&gt;ragger.logger -->
<g id="edge1" class="edge">
<title>ragger&#45;&gt;ragger.logger</title>
<path fill="none" stroke="black" d="M60.39,-540.12C75.29,-549.28 93.83,-560.66 109.88,-570.52"/>
<polygon fill="black" stroke="black" points="118.51,-575.81 107.63,-574.41 114.24,-573.19 109.98,-570.58 109.98,-570.58 109.98,-570.58 114.24,-573.19 112.34,-566.74 118.51,-575.81 118.51,-575.81"/>
</g>
<!-- ragger.backend -->
<g id="node2" class="node">
<title>ragger.backend</title>
<polygon fill="antiquewhite" stroke="antiquewhite" points="816,-396 689,-396 689,-360 816,-360 816,-396"/>
<text text-anchor="middle" x="752.5" y="-374.3" font-family="Times,serif" font-size="14.00">ragger.backend</text>
</g>
<!-- ragger.backend.interface -->
<g id="node3" class="node">
<title>ragger.backend.interface</title>
<polygon fill="antiquewhite" stroke="antiquewhite" points="482,-540 287,-540 287,-504 482,-504 482,-540"/>
<text text-anchor="middle" x="384.5" y="-518.3" font-family="Times,serif" font-size="14.00">ragger.backend.interface</text>
</g>
<!-- ragger.backend&#45;&gt;ragger.backend.interface -->
<g id="edge2" class="edge">
<title>ragger.backend&#45;&gt;ragger.backend.interface</title>
<path fill="none" stroke="black" d="M688.77,-379.85C541.29,-382.49 186.33,-392.88 150.5,-432 106.16,-480.41 195.6,-502.68 276.39,-512.8"/>
<polygon fill="black" stroke="black" points="286.7,-514.03 276.23,-517.31 281.73,-513.44 276.77,-512.85 276.77,-512.85 276.77,-512.85 281.73,-513.44 277.3,-508.38 286.7,-514.03 286.7,-514.03"/>
</g>
<!-- ragger.backend.ledgercomm -->
<g id="node4" class="node">
<title>ragger.backend.ledgercomm</title>
<polygon fill="antiquewhite" stroke="antiquewhite" points="619.5,-468 399.5,-468 399.5,-432 619.5,-432 619.5,-468"/>
<text text-anchor="middle" x="509.5" y="-446.3" font-family="Times,serif" font-size="14.00">ragger.backend.ledgercomm</text>
</g>
<!-- ragger.backend&#45;&gt;ragger.backend.ledgercomm -->
<g id="edge3" class="edge">
<title>ragger.backend&#45;&gt;ragger.backend.ledgercomm</title>
<path fill="none" stroke="black" d="M693.37,-396.03C658.82,-405.99 615.05,-418.59 578.88,-429.01"/>
<polygon fill="black" stroke="black" points="568.9,-431.89 577.26,-424.8 573.7,-430.51 578.51,-429.12 578.51,-429.12 578.51,-429.12 573.7,-430.51 579.75,-433.45 568.9,-431.89 568.9,-431.89"/>
</g>
<!-- ragger.backend.ledgerwallet -->
<g id="node5" class="node">
<title>ragger.backend.ledgerwallet</title>
<polygon fill="antiquewhite" stroke="antiquewhite" points="381,-468 160,-468 160,-432 381,-432 381,-468"/>
<text text-anchor="middle" x="270.5" y="-446.3" font-family="Times,serif" font-size="14.00">ragger.backend.ledgerwallet</text>
</g>
<!-- ragger.backend&#45;&gt;ragger.backend.ledgerwallet -->
<g id="edge4" class="edge">
<title>ragger.backend&#45;&gt;ragger.backend.ledgerwallet</title>
<path fill="none" stroke="black" d="M688.99,-388.22C613.44,-399.2 485.67,-417.75 391.14,-431.48"/>
<polygon fill="black" stroke="black" points="381.23,-432.92 390.48,-427.03 386.18,-432.2 391.13,-431.48 391.13,-431.48 391.13,-431.48 386.18,-432.2 391.78,-435.93 381.23,-432.92 381.23,-432.92"/>
</g>
<!-- ragger.backend.speculos -->
<g id="node6" class="node">
<title>ragger.backend.speculos</title>
<polygon fill="antiquewhite" stroke="antiquewhite" points="849,-468 656,-468 656,-432 849,-432 849,-468"/>
<text text-anchor="middle" x="752.5" y="-446.3" font-family="Times,serif" font-size="14.00">ragger.backend.speculos</text>
</g>
<!-- ragger.backend&#45;&gt;ragger.backend.speculos -->
<g id="edge5" class="edge">
<title>ragger.backend&#45;&gt;ragger.backend.speculos</title>
<path fill="none" stroke="black" d="M752.5,-396.3C752.5,-404.02 752.5,-413.29 752.5,-421.89"/>
<polygon fill="black" stroke="black" points="752.5,-431.9 748,-421.9 752.5,-426.9 752.5,-421.9 752.5,-421.9 752.5,-421.9 752.5,-426.9 757,-421.9 752.5,-431.9 752.5,-431.9"/>
</g>
<!-- ragger.firmware -->
<g id="node11" class="node">
<title>ragger.firmware</title>
<polygon fill="burlywood" stroke="burlywood" points="981.5,-612 849.5,-612 849.5,-576 981.5,-576 981.5,-612"/>
<text text-anchor="middle" x="915.5" y="-590.3" font-family="Times,serif" font-size="14.00">ragger.firmware</text>
</g>
<!-- ragger.backend.interface&#45;&gt;ragger.firmware -->
<g id="edge6" class="edge">
<title>ragger.backend.interface&#45;&gt;ragger.firmware</title>
<path fill="none" stroke="black" d="M482.2,-535.88C585.23,-549.46 745.39,-570.57 839.42,-582.97"/>
<polygon fill="black" stroke="black" points="849.42,-584.29 838.92,-587.44 844.47,-583.64 839.51,-582.98 839.51,-582.98 839.51,-582.98 844.47,-583.64 840.1,-578.52 849.42,-584.29 849.42,-584.29"/>
</g>
<!-- ragger.backend.interface&#45;&gt;ragger.logger -->
<g id="edge7" class="edge">
<title>ragger.backend.interface&#45;&gt;ragger.logger</title>
<path fill="none" stroke="black" d="M326.58,-540.03C292.25,-550.13 248.6,-562.97 212.88,-573.48"/>
<polygon fill="black" stroke="black" points="203.03,-576.37 211.35,-569.23 207.83,-574.96 212.62,-573.55 212.62,-573.55 212.62,-573.55 207.83,-574.96 213.89,-577.87 203.03,-576.37 203.03,-576.37"/>
</g>
<!-- ragger.utils -->
<g id="node24" class="node">
<title>ragger.utils</title>
<polygon fill="chartreuse" stroke="chartreuse" points="434,-612 335,-612 335,-576 434,-576 434,-612"/>
<text text-anchor="middle" x="384.5" y="-590.3" font-family="Times,serif" font-size="14.00">ragger.utils</text>
</g>
<!-- ragger.backend.interface&#45;&gt;ragger.utils -->
<g id="edge8" class="edge">
<title>ragger.backend.interface&#45;&gt;ragger.utils</title>
<path fill="none" stroke="black" d="M384.5,-540.3C384.5,-548.02 384.5,-557.29 384.5,-565.89"/>
<polygon fill="black" stroke="black" points="384.5,-575.9 380,-565.9 384.5,-570.9 384.5,-565.9 384.5,-565.9 384.5,-565.9 384.5,-570.9 389,-565.9 384.5,-575.9 384.5,-575.9"/>
</g>
<!-- ragger.backend.ledgercomm&#45;&gt;ragger.backend.interface -->
<g id="edge9" class="edge">
<title>ragger.backend.ledgercomm&#45;&gt;ragger.backend.interface</title>
<path fill="none" stroke="black" d="M478.92,-468.12C462.43,-477.36 441.88,-488.87 424.16,-498.79"/>
<polygon fill="black" stroke="black" points="415.2,-503.81 421.72,-495 419.56,-501.37 423.92,-498.92 423.92,-498.92 423.92,-498.92 419.56,-501.37 426.12,-502.85 415.2,-503.81 415.2,-503.81"/>
</g>
<!-- ragger.backend.ledgercomm&#45;&gt;ragger.backend.ledgercomm -->
<g id="edge10" class="edge">
<title>ragger.backend.ledgercomm&#45;&gt;ragger.backend.ledgercomm</title>
<path fill="none" stroke="black" d="M619.65,-438.99C630.56,-441.2 637.5,-444.87 637.5,-450 637.5,-453.37 634.51,-456.11 629.37,-458.21"/>
<polygon fill="black" stroke="black" points="619.65,-461.01 628.02,-453.92 624.46,-459.63 629.26,-458.25 629.26,-458.25 629.26,-458.25 624.46,-459.63 630.51,-462.57 619.65,-461.01 619.65,-461.01"/>
</g>
<!-- ragger.error -->
<g id="node10" class="node">
<title>ragger.error</title>
<polygon fill="aliceblue" stroke="aliceblue" points="641.5,-540 537.5,-540 537.5,-504 641.5,-504 641.5,-540"/>
<text text-anchor="middle" x="589.5" y="-518.3" font-family="Times,serif" font-size="14.00">ragger.error</text>
</g>
<!-- ragger.backend.ledgercomm&#45;&gt;ragger.error -->
<g id="edge11" class="edge">
<title>ragger.backend.ledgercomm&#45;&gt;ragger.error</title>
<path fill="none" stroke="black" d="M529.28,-468.3C539.25,-477.03 551.51,-487.76 562.36,-497.25"/>
<polygon fill="black" stroke="black" points="569.95,-503.9 559.46,-500.7 566.19,-500.6 562.43,-497.31 562.43,-497.31 562.43,-497.31 566.19,-500.6 565.39,-493.92 569.95,-503.9 569.95,-503.9"/>
</g>
<!-- ragger.backend.ledgercomm&#45;&gt;ragger.firmware -->
<g id="edge12" class="edge">
<title>ragger.backend.ledgercomm&#45;&gt;ragger.firmware</title>
<path fill="none" stroke="black" d="M558.47,-468.13C633.56,-494.39 776.86,-544.51 857.19,-572.61"/>
<polygon fill="black" stroke="black" points="866.67,-575.92 855.74,-576.87 861.95,-574.27 857.23,-572.62 857.23,-572.62 857.23,-572.62 861.95,-574.27 858.72,-568.37 866.67,-575.92 866.67,-575.92"/>
</g>
<!-- ragger.backend.ledgercomm&#45;&gt;ragger.utils -->
<g id="edge13" class="edge">
<title>ragger.backend.ledgercomm&#45;&gt;ragger.utils</title>
<path fill="none" stroke="black" d="M510.06,-468.23C509.82,-487.62 506.65,-519.14 490.5,-540 478.65,-555.31 461.2,-566.52 443.85,-574.58"/>
<polygon fill="black" stroke="black" points="434.27,-578.74 441.65,-570.63 438.86,-576.75 443.44,-574.76 443.44,-574.76 443.44,-574.76 438.86,-576.75 445.23,-578.89 434.27,-578.74 434.27,-578.74"/>
</g>
<!-- ragger.backend.ledgerwallet&#45;&gt;ragger.backend.interface -->
<g id="edge14" class="edge">
<title>ragger.backend.ledgerwallet&#45;&gt;ragger.backend.interface</title>
<path fill="none" stroke="black" d="M298.39,-468.12C313.29,-477.28 331.83,-488.66 347.88,-498.52"/>
<polygon fill="black" stroke="black" points="356.51,-503.81 345.63,-502.41 352.24,-501.19 347.98,-498.58 347.98,-498.58 347.98,-498.58 352.24,-501.19 350.34,-494.74 356.51,-503.81 356.51,-503.81"/>
</g>
<!-- ragger.backend.ledgerwallet&#45;&gt;ragger.error -->
<g id="edge15" class="edge">
<title>ragger.backend.ledgerwallet&#45;&gt;ragger.error</title>
<path fill="none" stroke="black" d="M348.13,-468.03C403.11,-480.1 475.9,-496.07 527.12,-507.31"/>
<polygon fill="black" stroke="black" points="537.06,-509.49 526.33,-511.74 532.18,-508.42 527.29,-507.35 527.29,-507.35 527.29,-507.35 532.18,-508.42 528.26,-502.95 537.06,-509.49 537.06,-509.49"/>
</g>
<!-- ragger.backend.ledgerwallet&#45;&gt;ragger.utils -->
<g id="edge16" class="edge">
<title>ragger.backend.ledgerwallet&#45;&gt;ragger.utils</title>
<path fill="none" stroke="black" d="M267.19,-468.02C264.44,-487.22 263,-518.56 277.5,-540 288.82,-556.74 307.04,-568.42 325.26,-576.46"/>
<polygon fill="black" stroke="black" points="334.76,-580.34 323.8,-580.72 330.13,-578.45 325.5,-576.56 325.5,-576.56 325.5,-576.56 330.13,-578.45 327.2,-572.39 334.76,-580.34 334.76,-580.34"/>
</g>
<!-- ragger.backend.speculos&#45;&gt;ragger.backend.interface -->
<g id="edge17" class="edge">
<title>ragger.backend.speculos&#45;&gt;ragger.backend.interface</title>
<path fill="none" stroke="black" d="M662.95,-468.03C608.86,-478.32 539.83,-491.45 484.04,-502.07"/>
<polygon fill="black" stroke="black" points="474.13,-503.95 483.12,-497.66 479.05,-503.02 483.96,-502.08 483.96,-502.08 483.96,-502.08 479.05,-503.02 484.8,-506.5 474.13,-503.95 474.13,-503.95"/>
</g>
<!-- ragger.backend.speculos&#45;&gt;ragger.error -->
<g id="edge18" class="edge">
<title>ragger.backend.speculos&#45;&gt;ragger.error</title>
<path fill="none" stroke="black" d="M712.63,-468.12C690.34,-477.69 662.38,-489.7 638.74,-499.85"/>
<polygon fill="black" stroke="black" points="629.24,-503.93 636.66,-495.85 633.84,-501.96 638.43,-499.99 638.43,-499.99 638.43,-499.99 633.84,-501.96 640.21,-504.12 629.24,-503.93 629.24,-503.93"/>
</g>
<!-- ragger.backend.speculos&#45;&gt;ragger.firmware -->
<g id="edge19" class="edge">
<title>ragger.backend.speculos&#45;&gt;ragger.firmware</title>
<path fill="none" stroke="black" d="M772.16,-468.13C801.04,-493.29 855.06,-540.35 887.9,-568.96"/>
<polygon fill="black" stroke="black" points="895.77,-575.81 885.27,-572.64 892,-572.53 888.23,-569.24 888.23,-569.24 888.23,-569.24 892,-572.53 891.18,-565.85 895.77,-575.81 895.77,-575.81"/>
</g>
<!-- ragger.backend.speculos&#45;&gt;ragger.utils -->
<g id="edge20" class="edge">
<title>ragger.backend.speculos&#45;&gt;ragger.utils</title>
<path fill="none" stroke="black" d="M738.16,-468.05C719.96,-488.51 686.56,-522.26 650.5,-540 584.47,-572.47 499.93,-585.05 444.09,-589.92"/>
<polygon fill="black" stroke="black" points="434.01,-590.74 443.61,-585.45 438.99,-590.34 443.97,-589.93 443.97,-589.93 443.97,-589.93 438.99,-590.34 444.34,-594.42 434.01,-590.74 434.01,-590.74"/>
</g>
<!-- ragger.bip -->
<g id="node7" class="node">
<title>ragger.bip</title>
<polygon fill="aquamarine" stroke="aquamarine" points="1220.5,-36 1130.5,-36 1130.5,0 1220.5,0 1220.5,-36"/>
<text text-anchor="middle" x="1175.5" y="-14.3" font-family="Times,serif" font-size="14.00">ragger.bip</text>
</g>
<!-- ragger.bip.path -->
<g id="node8" class="node">
<title>ragger.bip.path</title>
<polygon fill="aquamarine" stroke="aquamarine" points="1166,-108 1039,-108 1039,-72 1166,-72 1166,-108"/>
<text text-anchor="middle" x="1102.5" y="-86.3" font-family="Times,serif" font-size="14.00">ragger.bip.path</text>
</g>
<!-- ragger.bip&#45;&gt;ragger.bip.path -->
<g id="edge21" class="edge">
<title>ragger.bip&#45;&gt;ragger.bip.path</title>
<path fill="none" stroke="black" d="M1157.46,-36.3C1148.44,-44.95 1137.38,-55.55 1127.56,-64.97"/>
<polygon fill="black" stroke="black" points="1120.34,-71.9 1124.44,-61.73 1123.95,-68.44 1127.56,-64.97 1127.56,-64.97 1127.56,-64.97 1123.95,-68.44 1130.67,-68.22 1120.34,-71.9 1120.34,-71.9"/>
</g>
<!-- ragger.bip.seed -->
<g id="node9" class="node">
<title>ragger.bip.seed</title>
<polygon fill="aquamarine" stroke="aquamarine" points="1312.5,-108 1184.5,-108 1184.5,-72 1312.5,-72 1312.5,-108"/>
<text text-anchor="middle" x="1248.5" y="-86.3" font-family="Times,serif" font-size="14.00">ragger.bip.seed</text>
</g>
<!-- ragger.bip&#45;&gt;ragger.bip.seed -->
<g id="edge22" class="edge">
<title>ragger.bip&#45;&gt;ragger.bip.seed</title>
<path fill="none" stroke="black" d="M1193.54,-36.3C1202.56,-44.95 1213.62,-55.55 1223.44,-64.97"/>
<polygon fill="black" stroke="black" points="1230.66,-71.9 1220.33,-68.22 1227.05,-68.44 1223.44,-64.97 1223.44,-64.97 1223.44,-64.97 1227.05,-68.44 1226.56,-61.73 1230.66,-71.9 1230.66,-71.9"/>
</g>
<!-- ragger.firmware.structs -->
<g id="node17" class="node">
<title>ragger.firmware.structs</title>
<polygon fill="burlywood" stroke="burlywood" points="1089,-684 902,-684 902,-648 1089,-648 1089,-684"/>
<text text-anchor="middle" x="995.5" y="-662.3" font-family="Times,serif" font-size="14.00">ragger.firmware.structs</text>
</g>
<!-- ragger.firmware&#45;&gt;ragger.firmware.structs -->
<g id="edge23" class="edge">
<title>ragger.firmware&#45;&gt;ragger.firmware.structs</title>
<path fill="none" stroke="black" d="M935.28,-612.3C945.25,-621.03 957.51,-631.76 968.36,-641.25"/>
<polygon fill="black" stroke="black" points="975.95,-647.9 965.46,-644.7 972.19,-644.6 968.43,-641.31 968.43,-641.31 968.43,-641.31 972.19,-644.6 971.39,-637.92 975.95,-647.9 975.95,-647.9"/>
</g>
<!-- ragger.firmware.versions -->
<g id="node18" class="node">
<title>ragger.firmware.versions</title>
<polygon fill="burlywood" stroke="burlywood" points="1094,-756 897,-756 897,-720 1094,-720 1094,-756"/>
<text text-anchor="middle" x="995.5" y="-734.3" font-family="Times,serif" font-size="14.00">ragger.firmware.versions</text>
</g>
<!-- ragger.firmware&#45;&gt;ragger.firmware.versions -->
<g id="edge24" class="edge">
<title>ragger.firmware&#45;&gt;ragger.firmware.versions</title>
<path fill="none" stroke="black" d="M903.65,-612.22C892.31,-631.05 878.79,-661.52 892.5,-684 900.7,-697.45 913.53,-707.63 927.39,-715.28"/>
<polygon fill="black" stroke="black" points="936.6,-719.96 925.65,-719.45 932.14,-717.7 927.68,-715.43 927.68,-715.43 927.68,-715.43 932.14,-717.7 929.72,-711.42 936.6,-719.96 936.6,-719.96"/>
</g>
<!-- ragger.firmware.fatstacks -->
<g id="node12" class="node">
<title>ragger.firmware.fatstacks</title>
<polygon fill="burlywood" stroke="burlywood" points="1039,-180 838,-180 838,-144 1039,-144 1039,-180"/>
<text text-anchor="middle" x="938.5" y="-158.3" font-family="Times,serif" font-size="14.00">ragger.firmware.fatstacks</text>
</g>
<!-- ragger.firmware.fatstacks.screen -->
<g id="node15" class="node">
<title>ragger.firmware.fatstacks.screen</title>
<polygon fill="burlywood" stroke="burlywood" points="1121,-252 868,-252 868,-216 1121,-216 1121,-252"/>
<text text-anchor="middle" x="994.5" y="-230.3" font-family="Times,serif" font-size="14.00">ragger.firmware.fatstacks.screen</text>
</g>
<!-- ragger.firmware.fatstacks&#45;&gt;ragger.firmware.fatstacks.screen -->
<g id="edge25" class="edge">
<title>ragger.firmware.fatstacks&#45;&gt;ragger.firmware.fatstacks.screen</title>
<path fill="none" stroke="black" d="M952.34,-180.3C958.99,-188.61 967.08,-198.72 974.39,-207.86"/>
<polygon fill="black" stroke="black" points="980.82,-215.9 971.06,-210.9 977.69,-211.99 974.57,-208.09 974.57,-208.09 974.57,-208.09 977.69,-211.99 978.08,-205.28 980.82,-215.9 980.82,-215.9"/>
</g>
<!-- ragger.firmware.fatstacks.layouts -->
<g id="node13" class="node">
<title>ragger.firmware.fatstacks.layouts</title>
<polygon fill="burlywood" stroke="burlywood" points="1408,-324 1151,-324 1151,-288 1408,-288 1408,-324"/>
<text text-anchor="middle" x="1279.5" y="-302.3" font-family="Times,serif" font-size="14.00">ragger.firmware.fatstacks.layouts</text>
</g>
<!-- ragger.firmware.fatstacks.layouts&#45;&gt;ragger.backend -->
<g id="edge26" class="edge">
<title>ragger.firmware.fatstacks.layouts&#45;&gt;ragger.backend</title>
<path fill="none" stroke="black" d="M1151.26,-324.03C1049.22,-337.59 910.07,-356.07 826.01,-367.24"/>
<polygon fill="black" stroke="black" points="816.04,-368.56 825.36,-362.78 820.99,-367.9 825.95,-367.24 825.95,-367.24 825.95,-367.24 820.99,-367.9 826.54,-371.7 816.04,-368.56 816.04,-368.56"/>
</g>
<!-- ragger.firmware.fatstacks.layouts&#45;&gt;ragger.firmware -->
<g id="edge27" class="edge">
<title>ragger.firmware.fatstacks.layouts&#45;&gt;ragger.firmware</title>
<path fill="none" stroke="black" d="M1279.85,-324.07C1279.41,-343.31 1276.07,-374.7 1260.5,-396 1191.91,-489.85 1064.09,-545.52 984.77,-572.59"/>
<polygon fill="black" stroke="black" points="974.87,-575.91 982.92,-568.47 979.61,-574.32 984.35,-572.74 984.35,-572.74 984.35,-572.74 979.61,-574.32 985.78,-577 974.87,-575.91 974.87,-575.91"/>
</g>
<!-- ragger.firmware.fatstacks.positions -->
<g id="node14" class="node">
<title>ragger.firmware.fatstacks.positions</title>
<polygon fill="burlywood" stroke="burlywood" points="1251.5,-396 981.5,-396 981.5,-360 1251.5,-360 1251.5,-396"/>
<text text-anchor="middle" x="1116.5" y="-374.3" font-family="Times,serif" font-size="14.00">ragger.firmware.fatstacks.positions</text>
</g>
<!-- ragger.firmware.fatstacks.layouts&#45;&gt;ragger.firmware.fatstacks.positions -->
<g id="edge28" class="edge">
<title>ragger.firmware.fatstacks.layouts&#45;&gt;ragger.firmware.fatstacks.positions</title>
<path fill="none" stroke="black" d="M1239.63,-324.12C1217.34,-333.69 1189.38,-345.7 1165.74,-355.85"/>
<polygon fill="black" stroke="black" points="1156.24,-359.93 1163.66,-351.85 1160.84,-357.96 1165.43,-355.99 1165.43,-355.99 1165.43,-355.99 1160.84,-357.96 1167.21,-360.12 1156.24,-359.93 1156.24,-359.93"/>
</g>
<!-- ragger.firmware.fatstacks.positions&#45;&gt;ragger.firmware.versions -->
<g id="edge29" class="edge">
<title>ragger.firmware.fatstacks.positions&#45;&gt;ragger.firmware.versions</title>
<path fill="none" stroke="black" d="M1116.5,-396.05C1116.5,-422.71 1116.5,-475.89 1116.5,-521 1116.5,-521 1116.5,-521 1116.5,-595 1116.5,-635.45 1122.01,-651.82 1097.5,-684 1087.34,-697.34 1072.85,-707.64 1057.98,-715.45"/>
<polygon fill="black" stroke="black" points="1048.7,-720 1055.7,-711.55 1053.19,-717.79 1057.68,-715.59 1057.68,-715.59 1057.68,-715.59 1053.19,-717.79 1059.66,-719.63 1048.7,-720 1048.7,-720"/>
</g>
<!-- ragger.firmware.fatstacks.screen&#45;&gt;ragger.backend -->
<g id="edge30" class="edge">
<title>ragger.firmware.fatstacks.screen&#45;&gt;ragger.backend</title>
<path fill="none" stroke="black" d="M929.7,-252.08C903.11,-260.66 872.72,-272.56 847.5,-288 819.04,-305.43 791.81,-332.36 773.85,-352.03"/>
<polygon fill="black" stroke="black" points="766.98,-359.71 770.3,-349.26 770.32,-355.98 773.65,-352.26 773.65,-352.26 773.65,-352.26 770.32,-355.98 777,-355.26 766.98,-359.71 766.98,-359.71"/>
</g>
<!-- ragger.firmware.fatstacks.screen&#45;&gt;ragger.firmware -->
<g id="edge31" class="edge">
<title>ragger.firmware.fatstacks.screen&#45;&gt;ragger.firmware</title>
<path fill="none" stroke="black" d="M1121.13,-235.15C1229.79,-238.02 1375.34,-249.31 1417.5,-288 1447.3,-315.35 1436.5,-336.55 1436.5,-377 1436.5,-377 1436.5,-377 1436.5,-451 1436.5,-542.04 1136.64,-576.67 991.9,-588.09"/>
<polygon fill="black" stroke="black" points="981.75,-588.87 991.37,-583.61 986.73,-588.48 991.72,-588.1 991.72,-588.1 991.72,-588.1 986.73,-588.48 992.07,-592.59 981.75,-588.87 981.75,-588.87"/>
</g>
<!-- ragger.firmware.fatstacks.screen&#45;&gt;ragger.firmware.fatstacks.layouts -->
<g id="edge32" class="edge">
<title>ragger.firmware.fatstacks.screen&#45;&gt;ragger.firmware.fatstacks.layouts</title>
<path fill="none" stroke="black" d="M1063.85,-252.03C1104.97,-262.13 1157.24,-274.97 1200.02,-285.48"/>
<polygon fill="black" stroke="black" points="1209.83,-287.89 1199.05,-289.87 1204.98,-286.7 1200.12,-285.5 1200.12,-285.5 1200.12,-285.5 1204.98,-286.7 1201.2,-281.13 1209.83,-287.89 1209.83,-287.89"/>
</g>
<!-- ragger.firmware.fatstacks.use_cases -->
<g id="node16" class="node">
<title>ragger.firmware.fatstacks.use_cases</title>
<polygon fill="burlywood" stroke="burlywood" points="1132.5,-324 856.5,-324 856.5,-288 1132.5,-288 1132.5,-324"/>
<text text-anchor="middle" x="994.5" y="-302.3" font-family="Times,serif" font-size="14.00">ragger.firmware.fatstacks.use_cases</text>
</g>
<!-- ragger.firmware.fatstacks.screen&#45;&gt;ragger.firmware.fatstacks.use_cases -->
<g id="edge33" class="edge">
<title>ragger.firmware.fatstacks.screen&#45;&gt;ragger.firmware.fatstacks.use_cases</title>
<path fill="none" stroke="black" d="M994.5,-252.3C994.5,-260.02 994.5,-269.29 994.5,-277.89"/>
<polygon fill="black" stroke="black" points="994.5,-287.9 990,-277.9 994.5,-282.9 994.5,-277.9 994.5,-277.9 994.5,-277.9 994.5,-282.9 999,-277.9 994.5,-287.9 994.5,-287.9"/>
</g>
<!-- ragger.firmware.fatstacks.use_cases&#45;&gt;ragger.backend -->
<g id="edge34" class="edge">
<title>ragger.firmware.fatstacks.use_cases&#45;&gt;ragger.backend</title>
<path fill="none" stroke="black" d="M935.61,-324.03C901.21,-333.99 857.62,-346.59 821.6,-357.01"/>
<polygon fill="black" stroke="black" points="811.65,-359.89 820.01,-352.79 816.46,-358.5 821.26,-357.11 821.26,-357.11 821.26,-357.11 816.46,-358.5 822.51,-361.43 811.65,-359.89 811.65,-359.89"/>
</g>
<!-- ragger.firmware.fatstacks.use_cases&#45;&gt;ragger.firmware -->
<g id="edge35" class="edge">
<title>ragger.firmware.fatstacks.use_cases&#45;&gt;ragger.firmware</title>
<path fill="none" stroke="black" d="M986.45,-324.4C981.94,-334.62 976.44,-347.87 972.5,-360 947.1,-438.23 949.56,-460.23 929.5,-540 927.38,-548.44 924.99,-557.61 922.79,-565.91"/>
<polygon fill="black" stroke="black" points="920.14,-575.84 918.37,-565.02 921.43,-571.01 922.72,-566.18 922.72,-566.18 922.72,-566.18 921.43,-571.01 927.07,-567.34 920.14,-575.84 920.14,-575.84"/>
</g>
<!-- ragger.firmware.fatstacks.use_cases&#45;&gt;ragger.firmware.fatstacks.positions -->
<g id="edge36" class="edge">
<title>ragger.firmware.fatstacks.use_cases&#45;&gt;ragger.firmware.fatstacks.positions</title>
<path fill="none" stroke="black" d="M1024.34,-324.12C1040.44,-333.36 1060.5,-344.87 1077.79,-354.79"/>
<polygon fill="black" stroke="black" points="1086.54,-359.81 1075.63,-358.74 1082.2,-357.32 1077.87,-354.83 1077.87,-354.83 1077.87,-354.83 1082.2,-357.32 1080.11,-350.93 1086.54,-359.81 1086.54,-359.81"/>
</g>
<!-- ragger.firmware.structs&#45;&gt;ragger.firmware.versions -->
<g id="edge37" class="edge">
<title>ragger.firmware.structs&#45;&gt;ragger.firmware.versions</title>
<path fill="none" stroke="black" d="M995.5,-684.3C995.5,-692.02 995.5,-701.29 995.5,-709.89"/>
<polygon fill="black" stroke="black" points="995.5,-719.9 991,-709.9 995.5,-714.9 995.5,-709.9 995.5,-709.9 995.5,-709.9 995.5,-714.9 1000,-709.9 995.5,-719.9 995.5,-719.9"/>
</g>
<!-- ragger.navigator -->
<g id="node20" class="node">
<title>ragger.navigator</title>
<polygon fill="cadetblue" stroke="cadetblue" points="949.5,-36 813.5,-36 813.5,0 949.5,0 949.5,-36"/>
<text text-anchor="middle" x="881.5" y="-14.3" font-family="Times,serif" font-size="14.00">ragger.navigator</text>
</g>
<!-- ragger.navigator&#45;&gt;ragger.navigator -->
<g id="edge38" class="edge">
<title>ragger.navigator&#45;&gt;ragger.navigator</title>
<path fill="none" stroke="black" d="M949.63,-5.63C960.26,-7.48 967.5,-11.6 967.5,-18 967.5,-22.1 964.53,-25.26 959.6,-27.5"/>
<polygon fill="black" stroke="black" points="949.63,-30.37 957.99,-23.28 954.43,-28.99 959.24,-27.6 959.24,-27.6 959.24,-27.6 954.43,-28.99 960.48,-31.92 949.63,-30.37 949.63,-30.37"/>
</g>
<!-- ragger.navigator.fatstacks_navigator -->
<g id="node21" class="node">
<title>ragger.navigator.fatstacks_navigator</title>
<polygon fill="cadetblue" stroke="cadetblue" points="1020.5,-108 742.5,-108 742.5,-72 1020.5,-72 1020.5,-108"/>
<text text-anchor="middle" x="881.5" y="-86.3" font-family="Times,serif" font-size="14.00">ragger.navigator.fatstacks_navigator</text>
</g>
<!-- ragger.navigator&#45;&gt;ragger.navigator.fatstacks_navigator -->
<g id="edge39" class="edge">
<title>ragger.navigator&#45;&gt;ragger.navigator.fatstacks_navigator</title>
<path fill="none" stroke="black" d="M875.58,-36.3C874.79,-44.02 874.56,-53.29 874.9,-61.89"/>
<polygon fill="black" stroke="black" points="875.6,-71.9 870.42,-62.23 875.26,-66.91 874.91,-61.92 874.91,-61.92 874.91,-61.92 875.26,-66.91 879.4,-61.61 875.6,-71.9 875.6,-71.9"/>
</g>
<!-- ragger.navigator.nano_navigator -->
<g id="node22" class="node">
<title>ragger.navigator.nano_navigator</title>
<polygon fill="cadetblue" stroke="cadetblue" points="724.5,-252 476.5,-252 476.5,-216 724.5,-216 724.5,-252"/>
<text text-anchor="middle" x="600.5" y="-230.3" font-family="Times,serif" font-size="14.00">ragger.navigator.nano_navigator</text>
</g>
<!-- ragger.navigator&#45;&gt;ragger.navigator.nano_navigator -->
<g id="edge40" class="edge">
<title>ragger.navigator&#45;&gt;ragger.navigator.nano_navigator</title>
<path fill="none" stroke="black" d="M813.37,-35.03C786.9,-43.32 757.29,-55.3 733.5,-72 680.93,-108.91 637.42,-171.84 615.61,-207.1"/>
<polygon fill="black" stroke="black" points="610.3,-215.85 611.64,-204.97 612.89,-211.58 615.49,-207.31 615.49,-207.31 615.49,-207.31 612.89,-211.58 619.33,-209.64 610.3,-215.85 610.3,-215.85"/>
</g>
<!-- ragger.navigator.fatstacks_navigator&#45;&gt;ragger.backend -->
<g id="edge41" class="edge">
<title>ragger.navigator.fatstacks_navigator&#45;&gt;ragger.backend</title>
<path fill="none" stroke="black" d="M860.23,-108.01C849.43,-117.59 836.87,-130.36 828.5,-144 786.99,-211.65 765.62,-304.43 757.08,-349.79"/>
<polygon fill="black" stroke="black" points="755.27,-359.75 752.63,-349.11 756.16,-354.83 757.06,-349.91 757.06,-349.91 757.06,-349.91 756.16,-354.83 761.49,-350.72 755.27,-359.75 755.27,-359.75"/>
</g>
<!-- ragger.navigator.fatstacks_navigator&#45;&gt;ragger.firmware -->
<g id="edge42" class="edge">
<title>ragger.navigator.fatstacks_navigator&#45;&gt;ragger.firmware</title>
<path fill="none" stroke="black" d="M1004.01,-108.03C1177.65,-133.88 1474.5,-185.06 1474.5,-233 1474.5,-233 1474.5,-233 1474.5,-451 1474.5,-513.89 1422.45,-515.58 1364.5,-540 1299.09,-567.57 1102.01,-582.64 991.94,-589.11"/>
<polygon fill="black" stroke="black" points="981.9,-589.69 991.62,-584.62 986.89,-589.4 991.88,-589.11 991.88,-589.11 991.88,-589.11 986.89,-589.4 992.14,-593.6 981.9,-589.69 981.9,-589.69"/>
</g>
<!-- ragger.navigator.fatstacks_navigator&#45;&gt;ragger.firmware.fatstacks -->
<g id="edge43" class="edge">
<title>ragger.navigator.fatstacks_navigator&#45;&gt;ragger.firmware.fatstacks</title>
<path fill="none" stroke="black" d="M895.59,-108.3C902.42,-116.7 910.76,-126.93 918.26,-136.14"/>
<polygon fill="black" stroke="black" points="924.57,-143.9 914.77,-138.98 921.42,-140.02 918.26,-136.14 918.26,-136.14 918.26,-136.14 921.42,-140.02 921.75,-133.3 924.57,-143.9 924.57,-143.9"/>
</g>
<!-- ragger.navigator.fatstacks_navigator&#45;&gt;ragger.navigator -->
<g id="edge44" class="edge">
<title>ragger.navigator.fatstacks_navigator&#45;&gt;ragger.navigator</title>
<path fill="none" stroke="black" d="M887.4,-71.9C888.2,-64.21 888.44,-54.95 888.1,-46.33"/>
<polygon fill="black" stroke="black" points="887.42,-36.3 892.59,-45.97 887.76,-41.29 888.1,-46.28 888.1,-46.28 888.1,-46.28 887.76,-41.29 883.61,-46.59 887.42,-36.3 887.42,-36.3"/>
</g>
<!-- ragger.navigator.nano_navigator&#45;&gt;ragger.backend -->
<g id="edge45" class="edge">
<title>ragger.navigator.nano_navigator&#45;&gt;ragger.backend</title>
<path fill="none" stroke="black" d="M640.33,-252.11C658.22,-261.07 678.78,-273.26 694.5,-288 713.72,-306.02 729.55,-331.65 739.79,-350.78"/>
<polygon fill="black" stroke="black" points="744.49,-359.85 735.89,-353.04 742.19,-355.41 739.89,-350.97 739.89,-350.97 739.89,-350.97 742.19,-355.41 743.88,-348.9 744.49,-359.85 744.49,-359.85"/>
</g>
<!-- ragger.navigator.nano_navigator&#45;&gt;ragger.firmware -->
<g id="edge46" class="edge">
<title>ragger.navigator.nano_navigator&#45;&gt;ragger.firmware</title>
<path fill="none" stroke="black" d="M646.3,-252.03C669.93,-261.49 698.89,-274.13 723.5,-288 771.53,-315.06 784.71,-321.84 824.5,-360 853.76,-388.06 862.05,-395.9 880.5,-432 895.67,-461.68 894.23,-471.47 901.5,-504 906.08,-524.48 909.7,-547.94 912.12,-565.62"/>
<polygon fill="black" stroke="black" points="913.46,-575.82 907.69,-566.49 912.81,-570.86 912.15,-565.9 912.15,-565.9 912.15,-565.9 912.81,-570.86 916.61,-565.31 913.46,-575.82 913.46,-575.82"/>
</g>
<!-- ragger.navigator.navigator -->
<g id="node23" class="node">
<title>ragger.navigator.navigator</title>
<polygon fill="cadetblue" stroke="cadetblue" points="686,-324 479,-324 479,-288 686,-288 686,-324"/>
<text text-anchor="middle" x="582.5" y="-302.3" font-family="Times,serif" font-size="14.00">ragger.navigator.navigator</text>
</g>
<!-- ragger.navigator.nano_navigator&#45;&gt;ragger.navigator.navigator -->
<g id="edge47" class="edge">
<title>ragger.navigator.nano_navigator&#45;&gt;ragger.navigator.navigator</title>
<path fill="none" stroke="black" d="M596.05,-252.3C594.05,-260.1 591.63,-269.49 589.4,-278.17"/>
<polygon fill="black" stroke="black" points="586.9,-287.9 585.03,-277.09 588.14,-283.05 589.39,-278.21 589.39,-278.21 589.39,-278.21 588.14,-283.05 593.75,-279.33 586.9,-287.9 586.9,-287.9"/>
</g>
<!-- ragger.navigator.navigator&#45;&gt;ragger.backend -->
<g id="edge48" class="edge">
<title>ragger.navigator.navigator&#45;&gt;ragger.backend</title>
<path fill="none" stroke="black" d="M624.09,-324.12C647.53,-333.78 677,-345.91 701.8,-356.12"/>
<polygon fill="black" stroke="black" points="711.05,-359.93 700.09,-360.29 706.42,-358.03 701.8,-356.12 701.8,-356.12 701.8,-356.12 706.42,-358.03 703.51,-351.96 711.05,-359.93 711.05,-359.93"/>
</g>
<!-- ragger.navigator.navigator&#45;&gt;ragger.firmware -->
<g id="edge49" class="edge">
<title>ragger.navigator.navigator&#45;&gt;ragger.firmware</title>
<path fill="none" stroke="black" d="M595.96,-324.05C613.09,-344.51 644.67,-378.27 679.5,-396 751.43,-432.62 796.41,-379.25 857.5,-432 868.01,-441.08 894.12,-522.81 907.42,-566.2"/>
<polygon fill="black" stroke="black" points="910.36,-575.84 903.14,-567.59 908.9,-571.06 907.45,-566.27 907.45,-566.27 907.45,-566.27 908.9,-571.06 911.75,-564.96 910.36,-575.84 910.36,-575.84"/>
</g>
<!-- ragger.navigator.navigator&#45;&gt;ragger.utils -->
<g id="edge50" class="edge">
<title>ragger.navigator.navigator&#45;&gt;ragger.utils</title>
<path fill="none" stroke="black" d="M478.81,-321.41C360.16,-340.27 176.87,-377.47 135.5,-432 77.84,-507.99 234.12,-558.33 324.83,-580.33"/>
<polygon fill="black" stroke="black" points="334.74,-582.69 323.97,-584.75 329.87,-581.53 325.01,-580.38 325.01,-580.38 325.01,-580.38 329.87,-581.53 326.05,-576 334.74,-582.69 334.74,-582.69"/>
</g>
<!-- ragger.utils.misc -->
<g id="node25" class="node">
<title>ragger.utils.misc</title>
<polygon fill="chartreuse" stroke="chartreuse" points="617,-684 480,-684 480,-648 617,-648 617,-684"/>
<text text-anchor="middle" x="548.5" y="-662.3" font-family="Times,serif" font-size="14.00">ragger.utils.misc</text>
</g>
<!-- ragger.utils&#45;&gt;ragger.utils.misc -->
<g id="edge51" class="edge">
<title>ragger.utils&#45;&gt;ragger.utils.misc</title>
<path fill="none" stroke="black" d="M424.62,-612.12C447.14,-621.74 475.42,-633.81 499.27,-643.99"/>
<polygon fill="black" stroke="black" points="508.51,-647.93 497.55,-648.14 503.91,-645.97 499.31,-644.01 499.31,-644.01 499.31,-644.01 503.91,-645.97 501.08,-639.87 508.51,-647.93 508.51,-647.93"/>
</g>
<!-- ragger.utils.packing -->
<g id="node26" class="node">
<title>ragger.utils.packing</title>
<polygon fill="chartreuse" stroke="chartreuse" points="289,-684 130,-684 130,-648 289,-648 289,-684"/>
<text text-anchor="middle" x="209.5" y="-662.3" font-family="Times,serif" font-size="14.00">ragger.utils.packing</text>
</g>
<!-- ragger.utils&#45;&gt;ragger.utils.packing -->
<g id="edge52" class="edge">
<title>ragger.utils&#45;&gt;ragger.utils.packing</title>
<path fill="none" stroke="black" d="M341.69,-612.12C317.55,-621.78 287.22,-633.91 261.69,-644.12"/>
<polygon fill="black" stroke="black" points="252.17,-647.93 259.78,-640.04 256.81,-646.07 261.46,-644.22 261.46,-644.22 261.46,-644.22 256.81,-646.07 263.13,-648.4 252.17,-647.93 252.17,-647.93"/>
</g>
<!-- ragger.utils.structs -->
<g id="node27" class="node">
<title>ragger.utils.structs</title>
<polygon fill="chartreuse" stroke="chartreuse" points="461.5,-684 307.5,-684 307.5,-648 461.5,-648 461.5,-684"/>
<text text-anchor="middle" x="384.5" y="-662.3" font-family="Times,serif" font-size="14.00">ragger.utils.structs</text>
</g>
<!-- ragger.utils&#45;&gt;ragger.utils.structs -->
<g id="edge53" class="edge">
<title>ragger.utils&#45;&gt;ragger.utils.structs</title>
<path fill="none" stroke="black" d="M384.5,-612.3C384.5,-620.02 384.5,-629.29 384.5,-637.89"/>
<polygon fill="black" stroke="black" points="384.5,-647.9 380,-637.9 384.5,-642.9 384.5,-637.9 384.5,-637.9 384.5,-637.9 384.5,-642.9 389,-637.9 384.5,-647.9 384.5,-647.9"/>
</g>
</g>
</svg>
