<?xml version="1.0" encoding="UTF-8" standalone="no"?>
<!DOCTYPE svg PUBLIC "-//W3C//DTD SVG 1.1//EN"
 "http://www.w3.org/Graphics/SVG/1.1/DTD/svg11.dtd">
<!-- Generated by graphviz version 2.43.0 (0)
 -->
<!-- Title: packages_generated_ragger_architecture Pages: 1 -->
<svg width="2207pt" height="908pt"
 viewBox="0.00 0.00 2206.50 908.00" xmlns="http://www.w3.org/2000/svg" xmlns:xlink="http://www.w3.org/1999/xlink">
<g id="graph0" class="graph" transform="scale(1 1) rotate(0) translate(4 904)">
<title>packages_generated_ragger_architecture</title>
<polygon fill="white" stroke="transparent" points="-4,4 -4,-904 2202.5,-904 2202.5,4 -4,4"/>
<!-- ragger -->
<g id="node1" class="node">
<title>ragger</title>
<polygon fill="#77aadd" stroke="#77aadd" points="106,-828 41,-828 41,-792 106,-792 106,-828"/>
<text text-anchor="middle" x="73.5" y="-806.3" font-family="Times,serif" font-size="14.00">ragger</text>
</g>
<!-- ragger.__version__ -->
<g id="node2" class="node">
<title>ragger.__version__</title>
<polygon fill="#77aadd" stroke="#77aadd" points="147,-900 0,-900 0,-864 147,-864 147,-900"/>
<text text-anchor="middle" x="73.5" y="-878.3" font-family="Times,serif" font-size="14.00">ragger.__version__</text>
</g>
<!-- ragger&#45;&gt;ragger.__version__ -->
<g id="edge1" class="edge">
<title>ragger&#45;&gt;ragger.__version__</title>
<path fill="none" stroke="black" d="M73.5,-828.3C73.5,-836.02 73.5,-845.29 73.5,-853.89"/>
<polygon fill="black" stroke="black" points="73.5,-863.9 69,-853.9 73.5,-858.9 73.5,-853.9 73.5,-853.9 73.5,-853.9 73.5,-858.9 78,-853.9 73.5,-863.9 73.5,-863.9"/>
</g>
<!-- ragger.logger -->
<g id="node27" class="node">
<title>ragger.logger</title>
<polygon fill="#77aadd" stroke="#77aadd" points="555,-900 442,-900 442,-864 555,-864 555,-900"/>
<text text-anchor="middle" x="498.5" y="-878.3" font-family="Times,serif" font-size="14.00">ragger.logger</text>
</g>
<!-- ragger&#45;&gt;ragger.logger -->
<g id="edge2" class="edge">
<title>ragger&#45;&gt;ragger.logger</title>
<path fill="none" stroke="black" d="M106.1,-823.77C110.88,-825.36 115.78,-826.83 120.5,-828 227.54,-854.56 355.16,-868.98 431.36,-875.83"/>
<polygon fill="black" stroke="black" points="441.76,-876.74 431.41,-880.35 436.78,-876.31 431.8,-875.87 431.8,-875.87 431.8,-875.87 436.78,-876.31 432.2,-871.38 441.76,-876.74 441.76,-876.74"/>
</g>
<!-- ragger.backend -->
<g id="node3" class="node">
<title>ragger.backend</title>
<polygon fill="#99ddff" stroke="#99ddff" points="826,-468 699,-468 699,-432 826,-432 826,-468"/>
<text text-anchor="middle" x="762.5" y="-446.3" font-family="Times,serif" font-size="14.00">ragger.backend</text>
</g>
<!-- ragger.backend.interface -->
<g id="node4" class="node">
<title>ragger.backend.interface</title>
<polygon fill="#99ddff" stroke="#99ddff" points="756,-684 561,-684 561,-648 756,-648 756,-684"/>
<text text-anchor="middle" x="658.5" y="-662.3" font-family="Times,serif" font-size="14.00">ragger.backend.interface</text>
</g>
<!-- ragger.backend&#45;&gt;ragger.backend.interface -->
<g id="edge3" class="edge">
<title>ragger.backend&#45;&gt;ragger.backend.interface</title>
<path fill="none" stroke="black" d="M747.45,-468.33C728.26,-491.35 695.44,-534.01 677.5,-576 669.08,-595.7 664.25,-619.51 661.57,-637.54"/>
<polygon fill="black" stroke="black" points="660.19,-647.67 657.08,-637.16 660.87,-642.72 661.54,-637.76 661.54,-637.76 661.54,-637.76 660.87,-642.72 666,-638.37 660.19,-647.67 660.19,-647.67"/>
</g>
<!-- ragger.backend.ledgercomm -->
<g id="node5" class="node">
<title>ragger.backend.ledgercomm</title>
<polygon fill="#99ddff" stroke="#99ddff" points="1288.5,-540 1068.5,-540 1068.5,-504 1288.5,-504 1288.5,-540"/>
<text text-anchor="middle" x="1178.5" y="-518.3" font-family="Times,serif" font-size="14.00">ragger.backend.ledgercomm</text>
</g>
<!-- ragger.backend&#45;&gt;ragger.backend.ledgercomm -->
<g id="edge4" class="edge">
<title>ragger.backend&#45;&gt;ragger.backend.ledgercomm</title>
<path fill="none" stroke="black" d="M826.13,-461.71C890.07,-472.47 989.9,-489.26 1067.01,-502.24"/>
<polygon fill="black" stroke="black" points="1077.25,-503.96 1066.64,-506.74 1072.32,-503.13 1067.39,-502.3 1067.39,-502.3 1067.39,-502.3 1072.32,-503.13 1068.14,-497.87 1077.25,-503.96 1077.25,-503.96"/>
</g>
<!-- ragger.backend.ledgerwallet -->
<g id="node6" class="node">
<title>ragger.backend.ledgerwallet</title>
<polygon fill="#99ddff" stroke="#99ddff" points="1050,-540 829,-540 829,-504 1050,-504 1050,-540"/>
<text text-anchor="middle" x="939.5" y="-518.3" font-family="Times,serif" font-size="14.00">ragger.backend.ledgerwallet</text>
</g>
<!-- ragger.backend&#45;&gt;ragger.backend.ledgerwallet -->
<g id="edge5" class="edge">
<title>ragger.backend&#45;&gt;ragger.backend.ledgerwallet</title>
<path fill="none" stroke="black" d="M805.8,-468.12C830.21,-477.78 860.9,-489.91 886.71,-500.12"/>
<polygon fill="black" stroke="black" points="896.34,-503.93 885.39,-504.44 891.69,-502.09 887.04,-500.25 887.04,-500.25 887.04,-500.25 891.69,-502.09 888.7,-496.07 896.34,-503.93 896.34,-503.93"/>
</g>
<!-- ragger.backend.speculos -->
<g id="node8" class="node">
<title>ragger.backend.speculos</title>
<polygon fill="#99ddff" stroke="#99ddff" points="880,-612 687,-612 687,-576 880,-576 880,-612"/>
<text text-anchor="middle" x="783.5" y="-590.3" font-family="Times,serif" font-size="14.00">ragger.backend.speculos</text>
</g>
<!-- ragger.backend&#45;&gt;ragger.backend.speculos -->
<g id="edge6" class="edge">
<title>ragger.backend&#45;&gt;ragger.backend.speculos</title>
<path fill="none" stroke="black" d="M765.03,-468.13C768.61,-492.33 775.19,-536.79 779.45,-565.61"/>
<polygon fill="black" stroke="black" points="780.96,-575.81 775.04,-566.58 780.23,-570.86 779.49,-565.92 779.49,-565.92 779.49,-565.92 780.23,-570.86 783.95,-565.26 780.96,-575.81 780.96,-575.81"/>
</g>
<!-- ragger.backend.stub -->
<g id="node9" class="node">
<title>ragger.backend.stub</title>
<polygon fill="#99ddff" stroke="#99ddff" points="630,-612 467,-612 467,-576 630,-576 630,-612"/>
<text text-anchor="middle" x="548.5" y="-590.3" font-family="Times,serif" font-size="14.00">ragger.backend.stub</text>
</g>
<!-- ragger.backend&#45;&gt;ragger.backend.stub -->
<g id="edge7" class="edge">
<title>ragger.backend&#45;&gt;ragger.backend.stub</title>
<path fill="none" stroke="black" d="M715.29,-468.08C692.94,-477.18 666.41,-489.49 644.5,-504 616.69,-522.42 589.21,-548.97 570.82,-568.28"/>
<polygon fill="black" stroke="black" points="563.77,-575.81 567.32,-565.43 567.19,-572.16 570.61,-568.51 570.61,-568.51 570.61,-568.51 567.19,-572.16 573.89,-571.59 563.77,-575.81 563.77,-575.81"/>
</g>
<!-- ragger.firmware -->
<g id="node17" class="node">
<title>ragger.firmware</title>
<polygon fill="#aaaa00" stroke="#aaaa00" points="435.5,-756 303.5,-756 303.5,-720 435.5,-720 435.5,-756"/>
<text text-anchor="middle" x="369.5" y="-734.3" font-family="Times,serif" font-size="14.00">ragger.firmware</text>
</g>
<!-- ragger.backend.interface&#45;&gt;ragger.firmware -->
<g id="edge8" class="edge">
<title>ragger.backend.interface&#45;&gt;ragger.firmware</title>
<path fill="none" stroke="black" d="M588.17,-684.03C544.99,-694.49 489.68,-707.89 445.5,-718.59"/>
<polygon fill="black" stroke="black" points="435.67,-720.97 444.33,-714.24 440.53,-719.8 445.39,-718.62 445.39,-718.62 445.39,-718.62 440.53,-719.8 446.45,-722.99 435.67,-720.97 435.67,-720.97"/>
</g>
<!-- ragger.backend.interface&#45;&gt;ragger.logger -->
<g id="edge9" class="edge">
<title>ragger.backend.interface&#45;&gt;ragger.logger</title>
<path fill="none" stroke="black" d="M630.07,-684.14C597.57,-705.29 545.27,-744.38 517.5,-792 506.52,-810.83 501.86,-835.2 499.89,-853.68"/>
<polygon fill="black" stroke="black" points="499.02,-863.79 495.4,-853.44 499.45,-858.81 499.88,-853.83 499.88,-853.83 499.88,-853.83 499.45,-858.81 504.36,-854.22 499.02,-863.79 499.02,-863.79"/>
</g>
<!-- ragger.utils -->
<g id="node33" class="node">
<title>ragger.utils</title>
<polygon fill="#ffaabb" stroke="#ffaabb" points="1300,-756 1201,-756 1201,-720 1300,-720 1300,-756"/>
<text text-anchor="middle" x="1250.5" y="-734.3" font-family="Times,serif" font-size="14.00">ragger.utils</text>
</g>
<!-- ragger.backend.interface&#45;&gt;ragger.utils -->
<g id="edge10" class="edge">
<title>ragger.backend.interface&#45;&gt;ragger.utils</title>
<path fill="none" stroke="black" d="M756.26,-678.56C879.77,-693.16 1088.5,-717.84 1190.62,-729.92"/>
<polygon fill="black" stroke="black" points="1200.75,-731.12 1190.29,-734.41 1195.79,-730.53 1190.82,-729.94 1190.82,-729.94 1190.82,-729.94 1195.79,-730.53 1191.35,-725.47 1200.75,-731.12 1200.75,-731.12"/>
</g>
<!-- ragger.backend.ledgercomm&#45;&gt;ragger.backend.ledgercomm -->
<g id="edge11" class="edge">
<title>ragger.backend.ledgercomm&#45;&gt;ragger.backend.ledgercomm</title>
<path fill="none" stroke="black" d="M1288.65,-510.99C1299.56,-513.2 1306.5,-516.87 1306.5,-522 1306.5,-525.37 1303.51,-528.11 1298.37,-530.21"/>
<polygon fill="black" stroke="black" points="1288.65,-533.01 1297.02,-525.92 1293.46,-531.63 1298.26,-530.25 1298.26,-530.25 1298.26,-530.25 1293.46,-531.63 1299.51,-534.57 1288.65,-533.01 1288.65,-533.01"/>
</g>
<!-- ragger.backend.physical_backend -->
<g id="node7" class="node">
<title>ragger.backend.physical_backend</title>
<polygon fill="#99ddff" stroke="#99ddff" points="1230.5,-612 974.5,-612 974.5,-576 1230.5,-576 1230.5,-612"/>
<text text-anchor="middle" x="1102.5" y="-590.3" font-family="Times,serif" font-size="14.00">ragger.backend.physical_backend</text>
</g>
<!-- ragger.backend.ledgercomm&#45;&gt;ragger.backend.physical_backend -->
<g id="edge12" class="edge">
<title>ragger.backend.ledgercomm&#45;&gt;ragger.backend.physical_backend</title>
<path fill="none" stroke="black" d="M1159.71,-540.3C1150.33,-548.95 1138.82,-559.55 1128.59,-568.97"/>
<polygon fill="black" stroke="black" points="1121.07,-575.9 1125.38,-565.81 1124.75,-572.51 1128.43,-569.12 1128.43,-569.12 1128.43,-569.12 1124.75,-572.51 1131.47,-572.43 1121.07,-575.9 1121.07,-575.9"/>
</g>
<!-- ragger.error -->
<g id="node16" class="node">
<title>ragger.error</title>
<polygon fill="#77aadd" stroke="#77aadd" points="1187.5,-900 1083.5,-900 1083.5,-864 1187.5,-864 1187.5,-900"/>
<text text-anchor="middle" x="1135.5" y="-878.3" font-family="Times,serif" font-size="14.00">ragger.error</text>
</g>
<!-- ragger.backend.ledgercomm&#45;&gt;ragger.error -->
<g id="edge13" class="edge">
<title>ragger.backend.ledgercomm&#45;&gt;ragger.error</title>
<path fill="none" stroke="black" d="M1243.89,-540.05C1262.37,-548.02 1280.65,-559.52 1292.5,-576 1339.37,-641.22 1313.49,-675.84 1308.5,-756 1306.5,-788.19 1320.06,-803.15 1299.5,-828 1274.76,-857.9 1232.99,-871.11 1197.8,-876.86"/>
<polygon fill="black" stroke="black" points="1187.6,-878.36 1196.84,-872.45 1192.54,-877.63 1197.49,-876.91 1197.49,-876.91 1197.49,-876.91 1192.54,-877.63 1198.14,-881.36 1187.6,-878.36 1187.6,-878.36"/>
</g>
<!-- ragger.backend.ledgercomm&#45;&gt;ragger.firmware -->
<g id="edge14" class="edge">
<title>ragger.backend.ledgercomm&#45;&gt;ragger.firmware</title>
<path fill="none" stroke="black" d="M1089.15,-540.03C1050.45,-548.72 1005.05,-560.73 965.5,-576 870.89,-612.53 860.98,-652.75 764.5,-684 657.35,-718.7 526.75,-730.7 445.85,-734.84"/>
<polygon fill="black" stroke="black" points="435.75,-735.33 445.52,-730.35 440.74,-735.09 445.74,-734.85 445.74,-734.85 445.74,-734.85 440.74,-735.09 445.95,-739.34 435.75,-735.33 435.75,-735.33"/>
</g>
<!-- ragger.backend.ledgercomm&#45;&gt;ragger.utils -->
<g id="edge15" class="edge">
<title>ragger.backend.ledgercomm&#45;&gt;ragger.utils</title>
<path fill="none" stroke="black" d="M1230.15,-540.04C1246.64,-548.2 1263.05,-559.82 1272.5,-576 1297.11,-618.12 1278.43,-676.8 1263.72,-710.45"/>
<polygon fill="black" stroke="black" points="1259.52,-719.64 1259.58,-708.68 1261.6,-715.09 1263.68,-710.55 1263.68,-710.55 1263.68,-710.55 1261.6,-715.09 1267.77,-712.41 1259.52,-719.64 1259.52,-719.64"/>
</g>
<!-- ragger.backend.ledgerwallet&#45;&gt;ragger.backend.physical_backend -->
<g id="edge16" class="edge">
<title>ragger.backend.ledgerwallet&#45;&gt;ragger.backend.physical_backend</title>
<path fill="none" stroke="black" d="M979.37,-540.12C1001.66,-549.69 1029.62,-561.7 1053.26,-571.85"/>
<polygon fill="black" stroke="black" points="1062.76,-575.93 1051.79,-576.12 1058.16,-573.96 1053.57,-571.99 1053.57,-571.99 1053.57,-571.99 1058.16,-573.96 1055.34,-567.85 1062.76,-575.93 1062.76,-575.93"/>
</g>
<!-- ragger.backend.ledgerwallet&#45;&gt;ragger.error -->
<g id="edge17" class="edge">
<title>ragger.backend.ledgerwallet&#45;&gt;ragger.error</title>
<path fill="none" stroke="black" d="M943.03,-540.23C947.12,-558.54 954.71,-588.08 965.5,-612 1008.62,-707.56 1081.23,-809.26 1115.91,-855.49"/>
<polygon fill="black" stroke="black" points="1122.13,-863.72 1112.51,-858.45 1119.11,-859.73 1116.1,-855.74 1116.1,-855.74 1116.1,-855.74 1119.11,-859.73 1119.69,-853.03 1122.13,-863.72 1122.13,-863.72"/>
</g>
<!-- ragger.backend.ledgerwallet&#45;&gt;ragger.firmware -->
<g id="edge18" class="edge">
<title>ragger.backend.ledgerwallet&#45;&gt;ragger.firmware</title>
<path fill="none" stroke="black" d="M828.77,-538.27C823.95,-538.87 819.18,-539.45 814.5,-540 735.32,-549.37 521.16,-527.99 457.5,-576 416.25,-607.11 441.13,-639.72 414.5,-684 408.56,-693.88 400.79,-703.76 393.38,-712.27"/>
<polygon fill="black" stroke="black" points="386.46,-719.96 389.81,-709.52 389.81,-716.24 393.15,-712.53 393.15,-712.53 393.15,-712.53 389.81,-716.24 396.5,-715.54 386.46,-719.96 386.46,-719.96"/>
</g>
<!-- ragger.backend.ledgerwallet&#45;&gt;ragger.utils -->
<g id="edge19" class="edge">
<title>ragger.backend.ledgerwallet&#45;&gt;ragger.utils</title>
<path fill="none" stroke="black" d="M1050.3,-539.33C1133.04,-552.03 1232.94,-568.7 1239.5,-576 1272.25,-612.45 1265.39,-674.25 1257.75,-709.74"/>
<polygon fill="black" stroke="black" points="1255.4,-719.85 1253.28,-709.1 1256.53,-714.98 1257.66,-710.11 1257.66,-710.11 1257.66,-710.11 1256.53,-714.98 1262.04,-711.13 1255.4,-719.85 1255.4,-719.85"/>
</g>
<!-- ragger.backend.physical_backend&#45;&gt;ragger.backend.interface -->
<g id="edge20" class="edge">
<title>ragger.backend.physical_backend&#45;&gt;ragger.backend.interface</title>
<path fill="none" stroke="black" d="M994.45,-612.03C925.09,-622.97 835.37,-637.11 766.1,-648.04"/>
<polygon fill="black" stroke="black" points="756.03,-649.62 765.21,-643.62 760.97,-648.84 765.91,-648.07 765.91,-648.07 765.91,-648.07 760.97,-648.84 766.61,-652.51 756.03,-649.62 756.03,-649.62"/>
</g>
<!-- ragger.backend.physical_backend&#45;&gt;ragger.firmware -->
<g id="edge21" class="edge">
<title>ragger.backend.physical_backend&#45;&gt;ragger.firmware</title>
<path fill="none" stroke="black" d="M1071.79,-612.03C1032.79,-632.8 962.8,-667.2 898.5,-684 741.21,-725.11 549.94,-734.74 445.91,-736.75"/>
<polygon fill="black" stroke="black" points="435.81,-736.92 445.73,-732.25 440.81,-736.83 445.81,-736.75 445.81,-736.75 445.81,-736.75 440.81,-736.83 445.89,-741.25 435.81,-736.92 435.81,-736.92"/>
</g>
<!-- ragger.gui -->
<g id="node24" class="node">
<title>ragger.gui</title>
<polygon fill="#eedd88" stroke="#eedd88" points="1116.5,-684 1026.5,-684 1026.5,-648 1116.5,-648 1116.5,-684"/>
<text text-anchor="middle" x="1071.5" y="-662.3" font-family="Times,serif" font-size="14.00">ragger.gui</text>
</g>
<!-- ragger.backend.physical_backend&#45;&gt;ragger.gui -->
<g id="edge22" class="edge">
<title>ragger.backend.physical_backend&#45;&gt;ragger.gui</title>
<path fill="none" stroke="black" d="M1094.84,-612.3C1091.31,-620.27 1087.04,-629.9 1083.13,-638.74"/>
<polygon fill="black" stroke="black" points="1079.07,-647.9 1079.01,-636.93 1081.1,-643.32 1083.12,-638.75 1083.12,-638.75 1083.12,-638.75 1081.1,-643.32 1087.24,-640.57 1079.07,-647.9 1079.07,-647.9"/>
</g>
<!-- ragger.navigator.instruction -->
<g id="node29" class="node">
<title>ragger.navigator.instruction</title>
<polygon fill="#ee8866" stroke="#ee8866" points="1564,-828 1347,-828 1347,-792 1564,-792 1564,-828"/>
<text text-anchor="middle" x="1455.5" y="-806.3" font-family="Times,serif" font-size="14.00">ragger.navigator.instruction</text>
</g>
<!-- ragger.backend.physical_backend&#45;&gt;ragger.navigator.instruction -->
<g id="edge23" class="edge">
<title>ragger.backend.physical_backend&#45;&gt;ragger.navigator.instruction</title>
<path fill="none" stroke="black" d="M1109.71,-612.03C1125.9,-649.48 1165.73,-737.13 1191.5,-756 1214.99,-773.2 1278.11,-786.21 1336.74,-795.03"/>
<polygon fill="black" stroke="black" points="1346.86,-796.52 1336.31,-799.52 1341.91,-795.79 1336.97,-795.06 1336.97,-795.06 1336.97,-795.06 1341.91,-795.79 1337.62,-790.61 1346.86,-796.52 1346.86,-796.52"/>
</g>
<!-- ragger.backend.physical_backend&#45;&gt;ragger.utils -->
<g id="edge24" class="edge">
<title>ragger.backend.physical_backend&#45;&gt;ragger.utils</title>
<path fill="none" stroke="black" d="M1143.02,-612.12C1160.84,-621.01 1181.16,-633.14 1196.5,-648 1215.05,-665.96 1229.71,-691.59 1239.05,-710.74"/>
<polygon fill="black" stroke="black" points="1243.32,-719.82 1234.99,-712.69 1241.19,-715.3 1239.06,-710.77 1239.06,-710.77 1239.06,-710.77 1241.19,-715.3 1243.14,-708.86 1243.32,-719.82 1243.32,-719.82"/>
</g>
<!-- ragger.backend.speculos&#45;&gt;ragger.backend.interface -->
<g id="edge25" class="edge">
<title>ragger.backend.speculos&#45;&gt;ragger.backend.interface</title>
<path fill="none" stroke="black" d="M752.92,-612.12C736.43,-621.36 715.88,-632.87 698.16,-642.79"/>
<polygon fill="black" stroke="black" points="689.2,-647.81 695.72,-639 693.56,-645.37 697.92,-642.92 697.92,-642.92 697.92,-642.92 693.56,-645.37 700.12,-646.85 689.2,-647.81 689.2,-647.81"/>
</g>
<!-- ragger.backend.speculos&#45;&gt;ragger.error -->
<g id="edge26" class="edge">
<title>ragger.backend.speculos&#45;&gt;ragger.error</title>
<path fill="none" stroke="black" d="M804.28,-612.1C830.43,-634.54 875.33,-676.24 903.5,-720 931.46,-763.44 908.09,-793.44 946.5,-828 981.18,-859.2 1032.82,-872.19 1073.36,-877.52"/>
<polygon fill="black" stroke="black" points="1083.41,-878.72 1072.95,-882 1078.44,-878.13 1073.48,-877.53 1073.48,-877.53 1073.48,-877.53 1078.44,-878.13 1074.01,-873.07 1083.41,-878.72 1083.41,-878.72"/>
</g>
<!-- ragger.backend.speculos&#45;&gt;ragger.firmware -->
<g id="edge27" class="edge">
<title>ragger.backend.speculos&#45;&gt;ragger.firmware</title>
<path fill="none" stroke="black" d="M686.99,-611.87C644.77,-620.56 595.03,-632.62 551.5,-648 500.2,-666.13 444.45,-694.84 408.36,-714.73"/>
<polygon fill="black" stroke="black" points="399.17,-719.84 405.72,-711.05 403.54,-717.41 407.91,-714.98 407.91,-714.98 407.91,-714.98 403.54,-717.41 410.09,-718.91 399.17,-719.84 399.17,-719.84"/>
</g>
<!-- ragger.backend.speculos&#45;&gt;ragger.utils -->
<g id="edge28" class="edge">
<title>ragger.backend.speculos&#45;&gt;ragger.utils</title>
<path fill="none" stroke="black" d="M880.23,-604.95C965.34,-614.63 1082.23,-630.4 1125.5,-648 1163.41,-663.42 1200.84,-692.38 1224.71,-713.08"/>
<polygon fill="black" stroke="black" points="1232.27,-719.76 1221.79,-716.51 1228.52,-716.45 1224.77,-713.14 1224.77,-713.14 1224.77,-713.14 1228.52,-716.45 1227.75,-709.76 1232.27,-719.76 1232.27,-719.76"/>
</g>
<!-- ragger.backend.stub&#45;&gt;ragger.backend.interface -->
<g id="edge29" class="edge">
<title>ragger.backend.stub&#45;&gt;ragger.backend.interface</title>
<path fill="none" stroke="black" d="M575.41,-612.12C589.66,-621.19 607.35,-632.45 622.74,-642.24"/>
<polygon fill="black" stroke="black" points="631.49,-647.81 620.63,-646.24 627.27,-645.13 623.05,-642.44 623.05,-642.44 623.05,-642.44 627.27,-645.13 625.47,-638.64 631.49,-647.81 631.49,-647.81"/>
</g>
<!-- ragger.utils.structs -->
<g id="node36" class="node">
<title>ragger.utils.structs</title>
<polygon fill="#ffaabb" stroke="#ffaabb" points="856.5,-828 702.5,-828 702.5,-792 856.5,-792 856.5,-828"/>
<text text-anchor="middle" x="779.5" y="-806.3" font-family="Times,serif" font-size="14.00">ragger.utils.structs</text>
</g>
<!-- ragger.backend.stub&#45;&gt;ragger.utils.structs -->
<g id="edge30" class="edge">
<title>ragger.backend.stub&#45;&gt;ragger.utils.structs</title>
<path fill="none" stroke="black" d="M544.37,-612.16C540.78,-631.21 538.05,-662.14 551.5,-684 584.79,-738.11 650.39,-770.51 702.71,-788.71"/>
<polygon fill="black" stroke="black" points="712.31,-791.94 701.4,-793.02 707.57,-790.35 702.84,-788.75 702.84,-788.75 702.84,-788.75 707.57,-790.35 704.27,-784.49 712.31,-791.94 712.31,-791.94"/>
</g>
<!-- ragger.bip -->
<g id="node10" class="node">
<title>ragger.bip</title>
<polygon fill="#44bb99" stroke="#44bb99" points="1812.5,-36 1722.5,-36 1722.5,0 1812.5,0 1812.5,-36"/>
<text text-anchor="middle" x="1767.5" y="-14.3" font-family="Times,serif" font-size="14.00">ragger.bip</text>
</g>
<!-- ragger.bip.path -->
<g id="node11" class="node">
<title>ragger.bip.path</title>
<polygon fill="#44bb99" stroke="#44bb99" points="1758,-108 1631,-108 1631,-72 1758,-72 1758,-108"/>
<text text-anchor="middle" x="1694.5" y="-86.3" font-family="Times,serif" font-size="14.00">ragger.bip.path</text>
</g>
<!-- ragger.bip&#45;&gt;ragger.bip.path -->
<g id="edge31" class="edge">
<title>ragger.bip&#45;&gt;ragger.bip.path</title>
<path fill="none" stroke="black" d="M1749.46,-36.3C1740.44,-44.95 1729.38,-55.55 1719.56,-64.97"/>
<polygon fill="black" stroke="black" points="1712.34,-71.9 1716.44,-61.73 1715.95,-68.44 1719.56,-64.97 1719.56,-64.97 1719.56,-64.97 1715.95,-68.44 1722.67,-68.22 1712.34,-71.9 1712.34,-71.9"/>
</g>
<!-- ragger.bip.seed -->
<g id="node12" class="node">
<title>ragger.bip.seed</title>
<polygon fill="#44bb99" stroke="#44bb99" points="1904.5,-108 1776.5,-108 1776.5,-72 1904.5,-72 1904.5,-108"/>
<text text-anchor="middle" x="1840.5" y="-86.3" font-family="Times,serif" font-size="14.00">ragger.bip.seed</text>
</g>
<!-- ragger.bip&#45;&gt;ragger.bip.seed -->
<g id="edge32" class="edge">
<title>ragger.bip&#45;&gt;ragger.bip.seed</title>
<path fill="none" stroke="black" d="M1785.54,-36.3C1794.56,-44.95 1805.62,-55.55 1815.44,-64.97"/>
<polygon fill="black" stroke="black" points="1822.66,-71.9 1812.33,-68.22 1819.05,-68.44 1815.44,-64.97 1815.44,-64.97 1815.44,-64.97 1819.05,-68.44 1818.56,-61.73 1822.66,-71.9 1822.66,-71.9"/>
</g>
<!-- ragger.conftest -->
<g id="node13" class="node">
<title>ragger.conftest</title>
<polygon fill="#bbcc33" stroke="#bbcc33" points="1956,-36 1831,-36 1831,0 1956,0 1956,-36"/>
<text text-anchor="middle" x="1893.5" y="-14.3" font-family="Times,serif" font-size="14.00">ragger.conftest</text>
</g>
<!-- ragger.conftest.base_conftest -->
<g id="node14" class="node">
<title>ragger.conftest.base_conftest</title>
<polygon fill="#bbcc33" stroke="#bbcc33" points="998,-36 771,-36 771,0 998,0 998,-36"/>
<text text-anchor="middle" x="884.5" y="-14.3" font-family="Times,serif" font-size="14.00">ragger.conftest.base_conftest</text>
</g>
<!-- ragger.conftest.base_conftest&#45;&gt;ragger.backend -->
<g id="edge33" class="edge">
<title>ragger.conftest.base_conftest&#45;&gt;ragger.backend</title>
<path fill="none" stroke="black" d="M864.94,-36.1C830.59,-67.58 760.61,-138.61 734.5,-216 729.39,-231.16 730.01,-236.64 734.5,-252 739.82,-270.22 748.61,-271.23 757.5,-288 773.82,-318.78 781.47,-325.88 788.5,-360 791.73,-375.67 792.12,-380.41 788.5,-396 786.4,-405.04 782.53,-414.32 778.41,-422.53"/>
<polygon fill="black" stroke="black" points="773.55,-431.61 774.3,-420.67 775.91,-427.2 778.27,-422.8 778.27,-422.8 778.27,-422.8 775.91,-427.2 782.24,-424.92 773.55,-431.61 773.55,-431.61"/>
</g>
<!-- ragger.conftest.base_conftest&#45;&gt;ragger.firmware -->
<g id="edge34" class="edge">
<title>ragger.conftest.base_conftest&#45;&gt;ragger.firmware</title>
<path fill="none" stroke="black" d="M770.89,-18.52C569.88,-20.78 172.5,-40.47 172.5,-161 172.5,-161 172.5,-161 172.5,-595 172.5,-640.15 187.13,-654.71 221.5,-684 241.95,-701.42 268.55,-713.28 293.56,-721.28"/>
<polygon fill="black" stroke="black" points="303.41,-724.27 292.53,-725.68 298.62,-722.82 293.84,-721.37 293.84,-721.37 293.84,-721.37 298.62,-722.82 295.14,-717.06 303.41,-724.27 303.41,-724.27"/>
</g>
<!-- ragger.conftest.base_conftest&#45;&gt;ragger.logger -->
<g id="edge35" class="edge">
<title>ragger.conftest.base_conftest&#45;&gt;ragger.logger</title>
<path fill="none" stroke="black" d="M770.68,-23C590.53,-30.06 255.05,-46.46 206.5,-72 161.47,-95.69 134.5,-110.12 134.5,-161 134.5,-161 134.5,-161 134.5,-739 134.5,-809.76 201.58,-799.87 266.5,-828 319.65,-851.03 384.18,-864.73 431.67,-872.42"/>
<polygon fill="black" stroke="black" points="441.84,-874.01 431.26,-876.91 436.9,-873.24 431.96,-872.46 431.96,-872.46 431.96,-872.46 436.9,-873.24 432.66,-868.02 441.84,-874.01 441.84,-874.01"/>
</g>
<!-- ragger.navigator -->
<g id="node28" class="node">
<title>ragger.navigator</title>
<polygon fill="#ee8866" stroke="#ee8866" points="1158.5,-108 1022.5,-108 1022.5,-72 1158.5,-72 1158.5,-108"/>
<text text-anchor="middle" x="1090.5" y="-86.3" font-family="Times,serif" font-size="14.00">ragger.navigator</text>
</g>
<!-- ragger.conftest.base_conftest&#45;&gt;ragger.navigator -->
<g id="edge36" class="edge">
<title>ragger.conftest.base_conftest&#45;&gt;ragger.navigator</title>
<path fill="none" stroke="black" d="M934.63,-36.03C963.54,-45.86 1000.07,-58.27 1030.5,-68.61"/>
<polygon fill="black" stroke="black" points="1040.15,-71.89 1029.23,-72.93 1035.41,-70.28 1030.68,-68.67 1030.68,-68.67 1030.68,-68.67 1035.41,-70.28 1032.12,-64.41 1040.15,-71.89 1040.15,-71.89"/>
</g>
<!-- ragger.conftest.base_conftest&#45;&gt;ragger.utils -->
<g id="edge37" class="edge">
<title>ragger.conftest.base_conftest&#45;&gt;ragger.utils</title>
<path fill="none" stroke="black" d="M998.18,-21.17C1182.09,-27.8 1524.5,-54.44 1524.5,-161 1524.5,-161 1524.5,-161 1524.5,-379 1524.5,-533.93 1360.67,-663.32 1286.37,-714.03"/>
<polygon fill="black" stroke="black" points="1277.77,-719.82 1283.56,-710.5 1281.92,-717.02 1286.07,-714.23 1286.07,-714.23 1286.07,-714.23 1281.92,-717.02 1288.58,-717.96 1277.77,-719.82 1277.77,-719.82"/>
</g>
<!-- ragger.utils.misc -->
<g id="node34" class="node">
<title>ragger.utils.misc</title>
<polygon fill="#ffaabb" stroke="#ffaabb" points="1719,-828 1582,-828 1582,-792 1719,-792 1719,-828"/>
<text text-anchor="middle" x="1650.5" y="-806.3" font-family="Times,serif" font-size="14.00">ragger.utils.misc</text>
</g>
<!-- ragger.conftest.base_conftest&#45;&gt;ragger.utils.misc -->
<g id="edge38" class="edge">
<title>ragger.conftest.base_conftest&#45;&gt;ragger.utils.misc</title>
<path fill="none" stroke="black" d="M998.27,-18.33C1200.73,-20.23 1602.5,-39.33 1602.5,-161 1602.5,-161 1602.5,-161 1602.5,-667 1602.5,-709.13 1621.7,-754.77 1635.81,-782.63"/>
<polygon fill="black" stroke="black" points="1640.55,-791.71 1631.94,-784.93 1638.24,-787.27 1635.93,-782.84 1635.93,-782.84 1635.93,-782.84 1638.24,-787.27 1639.91,-780.76 1640.55,-791.71 1640.55,-791.71"/>
</g>
<!-- ragger.conftest.configuration -->
<g id="node15" class="node">
<title>ragger.conftest.configuration</title>
<polygon fill="#bbcc33" stroke="#bbcc33" points="2198.5,-36 1974.5,-36 1974.5,0 2198.5,0 2198.5,-36"/>
<text text-anchor="middle" x="2086.5" y="-14.3" font-family="Times,serif" font-size="14.00">ragger.conftest.configuration</text>
</g>
<!-- ragger.firmware.structs -->
<g id="node23" class="node">
<title>ragger.firmware.structs</title>
<polygon fill="#aaaa00" stroke="#aaaa00" points="463,-828 276,-828 276,-792 463,-792 463,-828"/>
<text text-anchor="middle" x="369.5" y="-806.3" font-family="Times,serif" font-size="14.00">ragger.firmware.structs</text>
</g>
<!-- ragger.firmware&#45;&gt;ragger.firmware.structs -->
<g id="edge39" class="edge">
<title>ragger.firmware&#45;&gt;ragger.firmware.structs</title>
<path fill="none" stroke="black" d="M369.5,-756.3C369.5,-764.02 369.5,-773.29 369.5,-781.89"/>
<polygon fill="black" stroke="black" points="369.5,-791.9 365,-781.9 369.5,-786.9 369.5,-781.9 369.5,-781.9 369.5,-781.9 369.5,-786.9 374,-781.9 369.5,-791.9 369.5,-791.9"/>
</g>
<!-- ragger.firmware.stax -->
<g id="node18" class="node">
<title>ragger.firmware.stax</title>
<polygon fill="#aaaa00" stroke="#aaaa00" points="911,-252 744,-252 744,-216 911,-216 911,-252"/>
<text text-anchor="middle" x="827.5" y="-230.3" font-family="Times,serif" font-size="14.00">ragger.firmware.stax</text>
</g>
<!-- ragger.firmware.stax.screen -->
<g id="node21" class="node">
<title>ragger.firmware.stax.screen</title>
<polygon fill="#aaaa00" stroke="#aaaa00" points="748.5,-324 530.5,-324 530.5,-288 748.5,-288 748.5,-324"/>
<text text-anchor="middle" x="639.5" y="-302.3" font-family="Times,serif" font-size="14.00">ragger.firmware.stax.screen</text>
</g>
<!-- ragger.firmware.stax&#45;&gt;ragger.firmware.stax.screen -->
<g id="edge40" class="edge">
<title>ragger.firmware.stax&#45;&gt;ragger.firmware.stax.screen</title>
<path fill="none" stroke="black" d="M781.51,-252.12C755.35,-261.86 722.41,-274.13 694.85,-284.39"/>
<polygon fill="black" stroke="black" points="685.34,-287.93 693.14,-280.23 690.03,-286.19 694.71,-284.44 694.71,-284.44 694.71,-284.44 690.03,-286.19 696.28,-288.66 685.34,-287.93 685.34,-287.93"/>
</g>
<!-- ragger.firmware.stax.layouts -->
<g id="node19" class="node">
<title>ragger.firmware.stax.layouts</title>
<polygon fill="#aaaa00" stroke="#aaaa00" points="500,-396 277,-396 277,-360 500,-360 500,-396"/>
<text text-anchor="middle" x="388.5" y="-374.3" font-family="Times,serif" font-size="14.00">ragger.firmware.stax.layouts</text>
</g>
<!-- ragger.firmware.stax.layouts&#45;&gt;ragger.backend -->
<g id="edge41" class="edge">
<title>ragger.firmware.stax.layouts&#45;&gt;ragger.backend</title>
<path fill="none" stroke="black" d="M479.51,-396.03C543.69,-408.05 628.57,-423.93 688.57,-435.16"/>
<polygon fill="black" stroke="black" points="698.73,-437.06 688.07,-439.65 693.82,-436.14 688.9,-435.22 688.9,-435.22 688.9,-435.22 693.82,-436.14 689.73,-430.8 698.73,-437.06 698.73,-437.06"/>
</g>
<!-- ragger.firmware.stax.layouts&#45;&gt;ragger.firmware -->
<g id="edge42" class="edge">
<title>ragger.firmware.stax.layouts&#45;&gt;ragger.firmware</title>
<path fill="none" stroke="black" d="M348.33,-396.21C332.74,-404.81 316.12,-416.69 305.5,-432 282.45,-465.24 286.5,-480.55 286.5,-521 286.5,-521 286.5,-521 286.5,-595 286.5,-635.97 289.05,-649.1 310.5,-684 317.26,-695 326.98,-705.05 336.59,-713.37"/>
<polygon fill="black" stroke="black" points="344.56,-719.94 333.98,-717.05 340.7,-716.76 336.84,-713.58 336.84,-713.58 336.84,-713.58 340.7,-716.76 339.7,-710.11 344.56,-719.94 344.56,-719.94"/>
</g>
<!-- ragger.firmware.stax.positions -->
<g id="node20" class="node">
<title>ragger.firmware.stax.positions</title>
<polygon fill="#aaaa00" stroke="#aaaa00" points="550.5,-468 314.5,-468 314.5,-432 550.5,-432 550.5,-468"/>
<text text-anchor="middle" x="432.5" y="-446.3" font-family="Times,serif" font-size="14.00">ragger.firmware.stax.positions</text>
</g>
<!-- ragger.firmware.stax.layouts&#45;&gt;ragger.firmware.stax.positions -->
<g id="edge43" class="edge">
<title>ragger.firmware.stax.layouts&#45;&gt;ragger.firmware.stax.positions</title>
<path fill="none" stroke="black" d="M399.38,-396.3C404.49,-404.44 410.7,-414.31 416.34,-423.3"/>
<polygon fill="black" stroke="black" points="421.75,-431.9 412.62,-425.82 419.09,-427.66 416.43,-423.43 416.43,-423.43 416.43,-423.43 419.09,-427.66 420.24,-421.03 421.75,-431.9 421.75,-431.9"/>
</g>
<!-- ragger.firmware.stax.screen&#45;&gt;ragger.backend -->
<g id="edge44" class="edge">
<title>ragger.firmware.stax.screen&#45;&gt;ragger.backend</title>
<path fill="none" stroke="black" d="M722.24,-324.04C740.79,-331.88 758.28,-343.31 769.5,-360 781.74,-378.21 778.3,-403.49 772.78,-422.46"/>
<polygon fill="black" stroke="black" points="769.69,-432 768.5,-421.1 771.23,-427.24 772.78,-422.49 772.78,-422.49 772.78,-422.49 771.23,-427.24 777.06,-423.88 769.69,-432 769.69,-432"/>
</g>
<!-- ragger.firmware.stax.screen&#45;&gt;ragger.firmware -->
<g id="edge45" class="edge">
<title>ragger.firmware.stax.screen&#45;&gt;ragger.firmware</title>
<path fill="none" stroke="black" d="M530.12,-309.07C434.28,-313.23 304.64,-325.33 267.5,-360 237.93,-387.6 248.5,-408.55 248.5,-449 248.5,-449 248.5,-449 248.5,-595 248.5,-638.55 261.16,-650.94 289.5,-684 299.72,-695.92 313.26,-706.25 326.29,-714.54"/>
<polygon fill="black" stroke="black" points="335.18,-719.95 324.29,-718.6 330.91,-717.35 326.63,-714.75 326.63,-714.75 326.63,-714.75 330.91,-717.35 328.97,-710.91 335.18,-719.95 335.18,-719.95"/>
</g>
<!-- ragger.firmware.stax.screen&#45;&gt;ragger.firmware.stax.layouts -->
<g id="edge46" class="edge">
<title>ragger.firmware.stax.screen&#45;&gt;ragger.firmware.stax.layouts</title>
<path fill="none" stroke="black" d="M578.42,-324.03C542.59,-334.03 497.14,-346.7 459.69,-357.15"/>
<polygon fill="black" stroke="black" points="449.85,-359.89 458.28,-352.87 454.67,-358.55 459.49,-357.2 459.49,-357.2 459.49,-357.2 454.67,-358.55 460.7,-361.54 449.85,-359.89 449.85,-359.89"/>
</g>
<!-- ragger.firmware.stax.use_cases -->
<g id="node22" class="node">
<title>ragger.firmware.stax.use_cases</title>
<polygon fill="#aaaa00" stroke="#aaaa00" points="760.5,-396 518.5,-396 518.5,-360 760.5,-360 760.5,-396"/>
<text text-anchor="middle" x="639.5" y="-374.3" font-family="Times,serif" font-size="14.00">ragger.firmware.stax.use_cases</text>
</g>
<!-- ragger.firmware.stax.screen&#45;&gt;ragger.firmware.stax.use_cases -->
<g id="edge47" class="edge">
<title>ragger.firmware.stax.screen&#45;&gt;ragger.firmware.stax.use_cases</title>
<path fill="none" stroke="black" d="M639.5,-324.3C639.5,-332.02 639.5,-341.29 639.5,-349.89"/>
<polygon fill="black" stroke="black" points="639.5,-359.9 635,-349.9 639.5,-354.9 639.5,-349.9 639.5,-349.9 639.5,-349.9 639.5,-354.9 644,-349.9 639.5,-359.9 639.5,-359.9"/>
</g>
<!-- ragger.firmware.stax.use_cases&#45;&gt;ragger.backend -->
<g id="edge48" class="edge">
<title>ragger.firmware.stax.use_cases&#45;&gt;ragger.backend</title>
<path fill="none" stroke="black" d="M669.59,-396.12C685.82,-405.36 706.04,-416.87 723.47,-426.79"/>
<polygon fill="black" stroke="black" points="732.3,-431.81 721.38,-430.78 727.95,-429.34 723.6,-426.86 723.6,-426.86 723.6,-426.86 727.95,-429.34 725.83,-422.95 732.3,-431.81 732.3,-431.81"/>
</g>
<!-- ragger.firmware.stax.use_cases&#45;&gt;ragger.firmware -->
<g id="edge49" class="edge">
<title>ragger.firmware.stax.use_cases&#45;&gt;ragger.firmware</title>
<path fill="none" stroke="black" d="M628.17,-396.08C614.19,-415.93 588.67,-448.45 559.5,-468 519.91,-494.53 501.18,-482.8 458.5,-504 406.17,-529.99 376.29,-524.6 348.5,-576 325.42,-618.7 342.89,-676.79 356.8,-710.26"/>
<polygon fill="black" stroke="black" points="360.95,-719.81 352.84,-712.43 358.96,-715.22 356.96,-710.64 356.96,-710.64 356.96,-710.64 358.96,-715.22 361.09,-708.84 360.95,-719.81 360.95,-719.81"/>
</g>
<!-- ragger.firmware.stax.use_cases&#45;&gt;ragger.firmware.stax.positions -->
<g id="edge50" class="edge">
<title>ragger.firmware.stax.use_cases&#45;&gt;ragger.firmware.stax.positions</title>
<path fill="none" stroke="black" d="M589.13,-396.03C560.08,-405.86 523.37,-418.27 492.79,-428.61"/>
<polygon fill="black" stroke="black" points="483.1,-431.89 491.13,-424.42 487.84,-430.29 492.57,-428.69 492.57,-428.69 492.57,-428.69 487.84,-430.29 494.01,-432.95 483.1,-431.89 483.1,-431.89"/>
</g>
<!-- ragger.gui.process -->
<g id="node26" class="node">
<title>ragger.gui.process</title>
<polygon fill="#eedd88" stroke="#eedd88" points="895,-756 746,-756 746,-720 895,-720 895,-756"/>
<text text-anchor="middle" x="820.5" y="-734.3" font-family="Times,serif" font-size="14.00">ragger.gui.process</text>
</g>
<!-- ragger.gui&#45;&gt;ragger.gui.process -->
<g id="edge51" class="edge">
<title>ragger.gui&#45;&gt;ragger.gui.process</title>
<path fill="none" stroke="black" d="M1026.42,-680.05C1021.72,-681.39 1017.01,-682.73 1012.5,-684 972.95,-695.16 928.75,-707.37 892.74,-717.27"/>
<polygon fill="black" stroke="black" points="882.81,-719.99 891.26,-713 887.63,-718.67 892.45,-717.34 892.45,-717.34 892.45,-717.34 887.63,-718.67 893.64,-721.68 882.81,-719.99 882.81,-719.99"/>
</g>
<!-- ragger.gui.interface -->
<g id="node25" class="node">
<title>ragger.gui.interface</title>
<polygon fill="#eedd88" stroke="#eedd88" points="684.5,-828 526.5,-828 526.5,-792 684.5,-792 684.5,-828"/>
<text text-anchor="middle" x="605.5" y="-806.3" font-family="Times,serif" font-size="14.00">ragger.gui.interface</text>
</g>
<!-- ragger.gui.interface&#45;&gt;ragger.logger -->
<g id="edge52" class="edge">
<title>ragger.gui.interface&#45;&gt;ragger.logger</title>
<path fill="none" stroke="black" d="M579.32,-828.12C565.46,-837.19 548.26,-848.45 533.29,-858.24"/>
<polygon fill="black" stroke="black" points="524.78,-863.81 530.68,-854.57 528.96,-861.07 533.14,-858.34 533.14,-858.34 533.14,-858.34 528.96,-861.07 535.61,-862.1 524.78,-863.81 524.78,-863.81"/>
</g>
<!-- ragger.gui.process&#45;&gt;ragger.gui.interface -->
<g id="edge53" class="edge">
<title>ragger.gui.process&#45;&gt;ragger.gui.interface</title>
<path fill="none" stroke="black" d="M768.18,-756.03C737.88,-765.9 699.55,-778.38 667.71,-788.75"/>
<polygon fill="black" stroke="black" points="658.05,-791.89 666.17,-784.51 662.81,-790.34 667.56,-788.79 667.56,-788.79 667.56,-788.79 662.81,-790.34 668.96,-793.07 658.05,-791.89 658.05,-791.89"/>
</g>
<!-- ragger.gui.process&#45;&gt;ragger.logger -->
<g id="edge54" class="edge">
<title>ragger.gui.process&#45;&gt;ragger.logger</title>
<path fill="none" stroke="black" d="M840.25,-756.21C859.81,-775.3 884.31,-806.27 865.5,-828 827.43,-871.96 660.31,-880.27 565.25,-881.35"/>
<polygon fill="black" stroke="black" points="555.15,-881.44 565.11,-876.85 560.15,-881.4 565.15,-881.35 565.15,-881.35 565.15,-881.35 560.15,-881.4 565.19,-885.85 555.15,-881.44 555.15,-881.44"/>
</g>
<!-- ragger.gui.process&#45;&gt;ragger.navigator.instruction -->
<g id="edge55" class="edge">
<title>ragger.gui.process&#45;&gt;ragger.navigator.instruction</title>
<path fill="none" stroke="black" d="M895.21,-747.24C1004.09,-759.24 1207.45,-781.66 1336.92,-795.93"/>
<polygon fill="black" stroke="black" points="1346.88,-797.03 1336.45,-800.4 1341.91,-796.48 1336.94,-795.93 1336.94,-795.93 1336.94,-795.93 1341.91,-796.48 1337.43,-791.46 1346.88,-797.03 1346.88,-797.03"/>
</g>
<!-- ragger.navigator&#45;&gt;ragger.navigator.instruction -->
<g id="edge56" class="edge">
<title>ragger.navigator&#45;&gt;ragger.navigator.instruction</title>
<path fill="none" stroke="black" d="M1158.57,-101.05C1271.8,-119.71 1486.5,-164.16 1486.5,-233 1486.5,-233 1486.5,-233 1486.5,-379 1486.5,-475.6 1524.5,-496.4 1524.5,-593 1524.5,-593 1524.5,-593 1524.5,-667 1524.5,-711.52 1496.72,-756.71 1476.42,-783.8"/>
<polygon fill="black" stroke="black" points="1470.13,-791.93 1472.69,-781.27 1473.19,-787.97 1476.25,-784.02 1476.25,-784.02 1476.25,-784.02 1473.19,-787.97 1479.81,-786.77 1470.13,-791.93 1470.13,-791.93"/>
</g>
<!-- ragger.navigator.nano_navigator -->
<g id="node30" class="node">
<title>ragger.navigator.nano_navigator</title>
<polygon fill="#ee8866" stroke="#ee8866" points="1214.5,-324 966.5,-324 966.5,-288 1214.5,-288 1214.5,-324"/>
<text text-anchor="middle" x="1090.5" y="-302.3" font-family="Times,serif" font-size="14.00">ragger.navigator.nano_navigator</text>
</g>
<!-- ragger.navigator&#45;&gt;ragger.navigator.nano_navigator -->
<g id="edge57" class="edge">
<title>ragger.navigator&#45;&gt;ragger.navigator.nano_navigator</title>
<path fill="none" stroke="black" d="M1090.5,-108.15C1090.5,-145.17 1090.5,-232.82 1090.5,-277.61"/>
<polygon fill="black" stroke="black" points="1090.5,-287.77 1086,-277.77 1090.5,-282.77 1090.5,-277.77 1090.5,-277.77 1090.5,-277.77 1090.5,-282.77 1095,-277.77 1090.5,-287.77 1090.5,-287.77"/>
</g>
<!-- ragger.navigator.navigator -->
<g id="node31" class="node">
<title>ragger.navigator.navigator</title>
<polygon fill="#ee8866" stroke="#ee8866" points="1346,-396 1139,-396 1139,-360 1346,-360 1346,-396"/>
<text text-anchor="middle" x="1242.5" y="-374.3" font-family="Times,serif" font-size="14.00">ragger.navigator.navigator</text>
</g>
<!-- ragger.navigator&#45;&gt;ragger.navigator.navigator -->
<g id="edge58" class="edge">
<title>ragger.navigator&#45;&gt;ragger.navigator.navigator</title>
<path fill="none" stroke="black" d="M1110.98,-108.2C1146.55,-139.57 1218.52,-210.07 1245.5,-288 1252.39,-307.91 1251.1,-331.84 1248.38,-349.87"/>
<polygon fill="black" stroke="black" points="1246.66,-359.73 1243.94,-349.1 1247.52,-354.8 1248.38,-349.87 1248.38,-349.87 1248.38,-349.87 1247.52,-354.8 1252.81,-350.64 1246.66,-359.73 1246.66,-359.73"/>
</g>
<!-- ragger.navigator.stax_navigator -->
<g id="node32" class="node">
<title>ragger.navigator.stax_navigator</title>
<polygon fill="#ee8866" stroke="#ee8866" points="1061.5,-180 817.5,-180 817.5,-144 1061.5,-144 1061.5,-180"/>
<text text-anchor="middle" x="939.5" y="-158.3" font-family="Times,serif" font-size="14.00">ragger.navigator.stax_navigator</text>
</g>
<!-- ragger.navigator&#45;&gt;ragger.navigator.stax_navigator -->
<g id="edge59" class="edge">
<title>ragger.navigator&#45;&gt;ragger.navigator.stax_navigator</title>
<path fill="none" stroke="black" d="M1053.56,-108.12C1033.01,-117.65 1007.25,-129.59 985.41,-139.72"/>
<polygon fill="black" stroke="black" points="976.32,-143.93 983.5,-135.64 980.86,-141.83 985.39,-139.73 985.39,-139.73 985.39,-139.73 980.86,-141.83 987.28,-143.81 976.32,-143.93 976.32,-143.93"/>
</g>
<!-- ragger.navigator.nano_navigator&#45;&gt;ragger.backend -->
<g id="edge60" class="edge">
<title>ragger.navigator.nano_navigator&#45;&gt;ragger.backend</title>
<path fill="none" stroke="black" d="M1068.74,-324.01C1042.51,-343.79 996.44,-376.25 952.5,-396 931.52,-405.43 880.24,-419.56 836.23,-430.86"/>
<polygon fill="black" stroke="black" points="826.39,-433.37 834.97,-426.54 831.23,-432.13 836.08,-430.9 836.08,-430.9 836.08,-430.9 831.23,-432.13 837.19,-435.26 826.39,-433.37 826.39,-433.37"/>
</g>
<!-- ragger.navigator.nano_navigator&#45;&gt;ragger.firmware -->
<g id="edge61" class="edge">
<title>ragger.navigator.nano_navigator&#45;&gt;ragger.firmware</title>
<path fill="none" stroke="black" d="M1024.04,-324.08C943.53,-345.6 804.39,-385.44 689.5,-432 623.74,-458.65 451.21,-522.59 404.5,-576 371.73,-613.47 367.34,-674.38 367.89,-709.56"/>
<polygon fill="black" stroke="black" points="368.19,-719.6 363.39,-709.74 368.04,-714.6 367.89,-709.6 367.89,-709.6 367.89,-709.6 368.04,-714.6 372.39,-709.46 368.19,-719.6 368.19,-719.6"/>
</g>
<!-- ragger.navigator.nano_navigator&#45;&gt;ragger.navigator.navigator -->
<g id="edge62" class="edge">
<title>ragger.navigator.nano_navigator&#45;&gt;ragger.navigator.navigator</title>
<path fill="none" stroke="black" d="M1127.68,-324.12C1148.37,-333.65 1174.3,-345.59 1196.28,-355.72"/>
<polygon fill="black" stroke="black" points="1205.44,-359.93 1194.47,-359.84 1200.9,-357.84 1196.35,-355.75 1196.35,-355.75 1196.35,-355.75 1200.9,-357.84 1198.24,-351.66 1205.44,-359.93 1205.44,-359.93"/>
</g>
<!-- ragger.navigator.navigator&#45;&gt;ragger.backend -->
<g id="edge63" class="edge">
<title>ragger.navigator.navigator&#45;&gt;ragger.backend</title>
<path fill="none" stroke="black" d="M1138.86,-390.25C1057.46,-399.67 941.4,-414.38 840.5,-432 839.05,-432.25 837.58,-432.51 836.11,-432.78"/>
<polygon fill="black" stroke="black" points="826.27,-434.65 835.25,-428.37 831.18,-433.72 836.09,-432.79 836.09,-432.79 836.09,-432.79 831.18,-433.72 836.93,-437.21 826.27,-434.65 826.27,-434.65"/>
</g>
<!-- ragger.navigator.navigator&#45;&gt;ragger.firmware -->
<g id="edge64" class="edge">
<title>ragger.navigator.navigator&#45;&gt;ragger.firmware</title>
<path fill="none" stroke="black" d="M1163.69,-396C965.01,-439.15 457.42,-551.22 429.5,-576 409.03,-594.17 387.07,-669.03 376.28,-709.96"/>
<polygon fill="black" stroke="black" points="373.73,-719.82 371.88,-709.01 374.98,-714.98 376.24,-710.14 376.24,-710.14 376.24,-710.14 374.98,-714.98 380.59,-711.27 373.73,-719.82 373.73,-719.82"/>
</g>
<!-- ragger.navigator.navigator&#45;&gt;ragger.navigator.instruction -->
<g id="edge65" class="edge">
<title>ragger.navigator.navigator&#45;&gt;ragger.navigator.instruction</title>
<path fill="none" stroke="black" d="M1279.13,-396.14C1294.64,-404.97 1311.8,-417.05 1323.5,-432 1410.35,-542.96 1442.49,-715.28 1452.05,-781.65"/>
<polygon fill="black" stroke="black" points="1453.45,-791.73 1447.62,-782.44 1452.76,-786.77 1452.08,-781.82 1452.08,-781.82 1452.08,-781.82 1452.76,-786.77 1456.53,-781.2 1453.45,-791.73 1453.45,-791.73"/>
</g>
<!-- ragger.navigator.navigator&#45;&gt;ragger.utils -->
<g id="edge66" class="edge">
<title>ragger.navigator.navigator&#45;&gt;ragger.utils</title>
<path fill="none" stroke="black" d="M1263.38,-396.37C1290.52,-421.03 1334.5,-469.01 1334.5,-521 1334.5,-521 1334.5,-521 1334.5,-595 1334.5,-641.4 1300.86,-685.94 1276.16,-712.4"/>
<polygon fill="black" stroke="black" points="1269.14,-719.69 1272.83,-709.36 1272.61,-716.08 1276.08,-712.48 1276.08,-712.48 1276.08,-712.48 1272.61,-716.08 1279.32,-715.6 1269.14,-719.69 1269.14,-719.69"/>
</g>
<!-- ragger.navigator.stax_navigator&#45;&gt;ragger.backend -->
<g id="edge67" class="edge">
<title>ragger.navigator.stax_navigator&#45;&gt;ragger.backend</title>
<path fill="none" stroke="black" d="M939.85,-180.24C939.79,-222.29 933.95,-331.46 878.5,-396 866.69,-409.74 850.58,-420.12 834.12,-427.87"/>
<polygon fill="black" stroke="black" points="824.96,-431.91 832.29,-423.76 829.53,-429.89 834.11,-427.87 834.11,-427.87 834.11,-427.87 829.53,-429.89 835.93,-431.99 824.96,-431.91 824.96,-431.91"/>
</g>
<!-- ragger.navigator.stax_navigator&#45;&gt;ragger.firmware -->
<g id="edge68" class="edge">
<title>ragger.navigator.stax_navigator&#45;&gt;ragger.firmware</title>
<path fill="none" stroke="black" d="M871.02,-180.12C831.11,-190.24 779.86,-203.49 734.5,-216 488.8,-283.77 210.5,-194.13 210.5,-449 210.5,-449 210.5,-449 210.5,-595 210.5,-639.94 225.95,-653.01 258.5,-684 272.4,-697.23 290.22,-707.7 307.49,-715.72"/>
<polygon fill="black" stroke="black" points="317,-719.93 306.04,-720 312.43,-717.91 307.85,-715.89 307.85,-715.89 307.85,-715.89 312.43,-717.91 309.67,-711.77 317,-719.93 317,-719.93"/>
</g>
<!-- ragger.navigator.stax_navigator&#45;&gt;ragger.firmware.stax -->
<g id="edge69" class="edge">
<title>ragger.navigator.stax_navigator&#45;&gt;ragger.firmware.stax</title>
<path fill="none" stroke="black" d="M912.1,-180.12C897.59,-189.19 879.58,-200.45 863.91,-210.24"/>
<polygon fill="black" stroke="black" points="855,-215.81 861.1,-206.69 859.24,-213.16 863.48,-210.51 863.48,-210.51 863.48,-210.51 859.24,-213.16 865.87,-214.33 855,-215.81 855,-215.81"/>
</g>
<!-- ragger.navigator.stax_navigator&#45;&gt;ragger.navigator.instruction -->
<g id="edge70" class="edge">
<title>ragger.navigator.stax_navigator&#45;&gt;ragger.navigator.instruction</title>
<path fill="none" stroke="black" d="M1060.02,-180.02C1096.95,-187.98 1136.92,-199.48 1171.5,-216 1264.89,-260.61 1295.85,-274.73 1354.5,-360 1448.94,-497.33 1441.31,-554.33 1459.5,-720 1461.76,-740.63 1460.56,-764.08 1458.89,-781.73"/>
<polygon fill="black" stroke="black" points="1457.83,-791.89 1454.4,-781.47 1458.35,-786.92 1458.87,-781.94 1458.87,-781.94 1458.87,-781.94 1458.35,-786.92 1463.35,-782.41 1457.83,-791.89 1457.83,-791.89"/>
</g>
<!-- ragger.navigator.stax_navigator&#45;&gt;ragger.navigator.navigator -->
<g id="edge71" class="edge">
<title>ragger.navigator.stax_navigator&#45;&gt;ragger.navigator.navigator</title>
<path fill="none" stroke="black" d="M1029.9,-180.08C1093.4,-196.82 1175.29,-228.78 1223.5,-288 1237.57,-305.29 1241.91,-330.55 1242.96,-349.75"/>
<polygon fill="black" stroke="black" points="1243.25,-359.98 1238.47,-350.11 1243.11,-354.98 1242.97,-349.98 1242.97,-349.98 1242.97,-349.98 1243.11,-354.98 1247.46,-349.85 1243.25,-359.98 1243.25,-359.98"/>
</g>
<!-- ragger.utils&#45;&gt;ragger.utils.misc -->
<g id="edge72" class="edge">
<title>ragger.utils&#45;&gt;ragger.utils.misc</title>
<path fill="none" stroke="black" d="M1300.01,-746.34C1361.37,-755.62 1469.35,-772.53 1571.75,-791.91"/>
<polygon fill="black" stroke="black" points="1581.64,-793.79 1570.97,-796.34 1576.72,-792.85 1571.81,-791.92 1571.81,-791.92 1571.81,-791.92 1576.72,-792.85 1572.65,-787.5 1581.64,-793.79 1581.64,-793.79"/>
</g>
<!-- ragger.utils.packing -->
<g id="node35" class="node">
<title>ragger.utils.packing</title>
<polygon fill="#ffaabb" stroke="#ffaabb" points="1291,-828 1132,-828 1132,-792 1291,-792 1291,-828"/>
<text text-anchor="middle" x="1211.5" y="-806.3" font-family="Times,serif" font-size="14.00">ragger.utils.packing</text>
</g>
<!-- ragger.utils&#45;&gt;ragger.utils.packing -->
<g id="edge73" class="edge">
<title>ragger.utils&#45;&gt;ragger.utils.packing</title>
<path fill="none" stroke="black" d="M1240.86,-756.3C1236.37,-764.36 1230.94,-774.11 1225.98,-783.02"/>
<polygon fill="black" stroke="black" points="1221.03,-791.9 1221.97,-780.97 1223.46,-787.53 1225.9,-783.16 1225.9,-783.16 1225.9,-783.16 1223.46,-787.53 1229.83,-785.35 1221.03,-791.9 1221.03,-791.9"/>
</g>
<!-- ragger.utils&#45;&gt;ragger.utils.structs -->
<g id="edge74" class="edge">
<title>ragger.utils&#45;&gt;ragger.utils.structs</title>
<path fill="none" stroke="black" d="M1200.98,-746.36C1121.64,-758.15 964.94,-781.44 866.57,-796.06"/>
<polygon fill="black" stroke="black" points="856.65,-797.53 865.88,-791.61 861.6,-796.8 866.54,-796.06 866.54,-796.06 866.54,-796.06 861.6,-796.8 867.2,-800.51 856.65,-797.53 856.65,-797.53"/>
</g>
<!-- ragger.utils.misc&#45;&gt;ragger.error -->
<g id="edge75" class="edge">
<title>ragger.utils.misc&#45;&gt;ragger.error</title>
<path fill="none" stroke="black" d="M1581.66,-826.37C1578.57,-826.94 1575.51,-827.49 1572.5,-828 1439.63,-850.49 1282.47,-867.14 1197.52,-875.33"/>
<polygon fill="black" stroke="black" points="1187.53,-876.29 1197.05,-870.85 1192.5,-875.81 1197.48,-875.33 1197.48,-875.33 1197.48,-875.33 1192.5,-875.81 1197.91,-879.81 1187.53,-876.29 1187.53,-876.29"/>
</g>
</g>
</svg>
