<?xml version="1.0" encoding="UTF-8" standalone="no"?>
<!DOCTYPE svg PUBLIC "-//W3C//DTD SVG 1.1//EN"
 "http://www.w3.org/Graphics/SVG/1.1/DTD/svg11.dtd">
<!-- Generated by graphviz version 2.43.0 (0)
 -->
<!-- Title: packages_generated_ragger_architecture Pages: 1 -->
<svg width="2243pt" height="980pt"
 viewBox="0.00 0.00 2242.50 980.00" xmlns="http://www.w3.org/2000/svg" xmlns:xlink="http://www.w3.org/1999/xlink">
<g id="graph0" class="graph" transform="scale(1 1) rotate(0) translate(4 976)">
<title>packages_generated_ragger_architecture</title>
<polygon fill="white" stroke="transparent" points="-4,4 -4,-976 2238.5,-976 2238.5,4 -4,4"/>
<!-- ragger -->
<g id="node1" class="node">
<title>ragger</title>
<polygon fill="#77aadd" stroke="#77aadd" points="106,-900 41,-900 41,-864 106,-864 106,-900"/>
<text text-anchor="middle" x="73.5" y="-878.3" font-family="Times,serif" font-size="14.00">ragger</text>
</g>
<!-- ragger.__version__ -->
<g id="node2" class="node">
<title>ragger.__version__</title>
<polygon fill="#77aadd" stroke="#77aadd" points="147,-972 0,-972 0,-936 147,-936 147,-972"/>
<text text-anchor="middle" x="73.5" y="-950.3" font-family="Times,serif" font-size="14.00">ragger.__version__</text>
</g>
<!-- ragger&#45;&gt;ragger.__version__ -->
<g id="edge1" class="edge">
<title>ragger&#45;&gt;ragger.__version__</title>
<path fill="none" stroke="black" d="M73.5,-900.3C73.5,-908.02 73.5,-917.29 73.5,-925.89"/>
<polygon fill="black" stroke="black" points="73.5,-935.9 69,-925.9 73.5,-930.9 73.5,-925.9 73.5,-925.9 73.5,-925.9 73.5,-930.9 78,-925.9 73.5,-935.9 73.5,-935.9"/>
</g>
<!-- ragger.logger -->
<g id="node28" class="node">
<title>ragger.logger</title>
<polygon fill="#77aadd" stroke="#77aadd" points="331,-972 218,-972 218,-936 331,-936 331,-972"/>
<text text-anchor="middle" x="274.5" y="-950.3" font-family="Times,serif" font-size="14.00">ragger.logger</text>
</g>
<!-- ragger&#45;&gt;ragger.logger -->
<g id="edge2" class="edge">
<title>ragger&#45;&gt;ragger.logger</title>
<path fill="none" stroke="black" d="M106.09,-894.86C110.92,-896.6 115.84,-898.35 120.5,-900 151.39,-910.9 185.85,-922.79 214.34,-932.54"/>
<polygon fill="black" stroke="black" points="224.15,-935.89 213.23,-936.91 219.42,-934.27 214.68,-932.66 214.68,-932.66 214.68,-932.66 219.42,-934.27 216.14,-928.4 224.15,-935.89 224.15,-935.89"/>
</g>
<!-- ragger.backend -->
<g id="node3" class="node">
<title>ragger.backend</title>
<polygon fill="#99ddff" stroke="#99ddff" points="745,-540 618,-540 618,-504 745,-504 745,-540"/>
<text text-anchor="middle" x="681.5" y="-518.3" font-family="Times,serif" font-size="14.00">ragger.backend</text>
</g>
<!-- ragger.backend.interface -->
<g id="node4" class="node">
<title>ragger.backend.interface</title>
<polygon fill="#99ddff" stroke="#99ddff" points="707,-756 512,-756 512,-720 707,-720 707,-756"/>
<text text-anchor="middle" x="609.5" y="-734.3" font-family="Times,serif" font-size="14.00">ragger.backend.interface</text>
</g>
<!-- ragger.backend&#45;&gt;ragger.backend.interface -->
<g id="edge3" class="edge">
<title>ragger.backend&#45;&gt;ragger.backend.interface</title>
<path fill="none" stroke="black" d="M654.4,-540.03C623.73,-561.08 575.46,-600.07 555.5,-648 549.35,-662.77 549.31,-669.25 555.5,-684 560.14,-695.05 568.33,-704.96 576.96,-713.14"/>
<polygon fill="black" stroke="black" points="584.57,-719.86 574.1,-716.61 580.82,-716.55 577.08,-713.24 577.08,-713.24 577.08,-713.24 580.82,-716.55 580.06,-709.87 584.57,-719.86 584.57,-719.86"/>
</g>
<!-- ragger.backend.ledgercomm -->
<g id="node5" class="node">
<title>ragger.backend.ledgercomm</title>
<polygon fill="#99ddff" stroke="#99ddff" points="1233.5,-612 1013.5,-612 1013.5,-576 1233.5,-576 1233.5,-612"/>
<text text-anchor="middle" x="1123.5" y="-590.3" font-family="Times,serif" font-size="14.00">ragger.backend.ledgercomm</text>
</g>
<!-- ragger.backend&#45;&gt;ragger.backend.ledgercomm -->
<g id="edge4" class="edge">
<title>ragger.backend&#45;&gt;ragger.backend.ledgercomm</title>
<path fill="none" stroke="black" d="M745.3,-533.1C813.3,-543.87 922.47,-561.16 1006.08,-574.4"/>
<polygon fill="black" stroke="black" points="1016.14,-576 1005.56,-578.88 1011.2,-575.22 1006.27,-574.43 1006.27,-574.43 1006.27,-574.43 1011.2,-575.22 1006.97,-569.99 1016.14,-576 1016.14,-576"/>
</g>
<!-- ragger.backend.ledgerwallet -->
<g id="node6" class="node">
<title>ragger.backend.ledgerwallet</title>
<polygon fill="#99ddff" stroke="#99ddff" points="957,-612 736,-612 736,-576 957,-576 957,-612"/>
<text text-anchor="middle" x="846.5" y="-590.3" font-family="Times,serif" font-size="14.00">ragger.backend.ledgerwallet</text>
</g>
<!-- ragger.backend&#45;&gt;ragger.backend.ledgerwallet -->
<g id="edge5" class="edge">
<title>ragger.backend&#45;&gt;ragger.backend.ledgerwallet</title>
<path fill="none" stroke="black" d="M721.86,-540.12C744.52,-549.74 772.97,-561.81 796.97,-571.99"/>
<polygon fill="black" stroke="black" points="806.27,-575.93 795.3,-576.17 801.66,-573.98 797.06,-572.03 797.06,-572.03 797.06,-572.03 801.66,-573.98 798.82,-567.88 806.27,-575.93 806.27,-575.93"/>
</g>
<!-- ragger.backend.speculos -->
<g id="node8" class="node">
<title>ragger.backend.speculos</title>
<polygon fill="#99ddff" stroke="#99ddff" points="508,-684 315,-684 315,-648 508,-648 508,-684"/>
<text text-anchor="middle" x="411.5" y="-662.3" font-family="Times,serif" font-size="14.00">ragger.backend.speculos</text>
</g>
<!-- ragger.backend&#45;&gt;ragger.backend.speculos -->
<g id="edge6" class="edge">
<title>ragger.backend&#45;&gt;ragger.backend.speculos</title>
<path fill="none" stroke="black" d="M617.83,-538.62C587.87,-547.35 552.27,-559.78 522.5,-576 490.04,-593.68 457.61,-621.1 436.26,-640.83"/>
<polygon fill="black" stroke="black" points="428.91,-647.72 433.13,-637.59 432.56,-644.3 436.21,-640.88 436.21,-640.88 436.21,-640.88 432.56,-644.3 439.29,-644.16 428.91,-647.72 428.91,-647.72"/>
</g>
<!-- ragger.backend.stub -->
<g id="node9" class="node">
<title>ragger.backend.stub</title>
<polygon fill="#99ddff" stroke="#99ddff" points="728,-684 565,-684 565,-648 728,-648 728,-684"/>
<text text-anchor="middle" x="646.5" y="-662.3" font-family="Times,serif" font-size="14.00">ragger.backend.stub</text>
</g>
<!-- ragger.backend&#45;&gt;ragger.backend.stub -->
<g id="edge7" class="edge">
<title>ragger.backend&#45;&gt;ragger.backend.stub</title>
<path fill="none" stroke="black" d="M677.28,-540.13C671.29,-564.44 660.26,-609.18 653.16,-637.99"/>
<polygon fill="black" stroke="black" points="650.74,-647.81 648.76,-637.02 651.93,-642.96 653.13,-638.1 653.13,-638.1 653.13,-638.1 651.93,-642.96 657.5,-639.18 650.74,-647.81 650.74,-647.81"/>
</g>
<!-- ragger.firmware -->
<g id="node17" class="node">
<title>ragger.firmware</title>
<polygon fill="#aaaa00" stroke="#aaaa00" points="1362.5,-828 1230.5,-828 1230.5,-792 1362.5,-792 1362.5,-828"/>
<text text-anchor="middle" x="1296.5" y="-806.3" font-family="Times,serif" font-size="14.00">ragger.firmware</text>
</g>
<!-- ragger.backend.interface&#45;&gt;ragger.firmware -->
<g id="edge8" class="edge">
<title>ragger.backend.interface&#45;&gt;ragger.firmware</title>
<path fill="none" stroke="black" d="M707.2,-748.95C845.2,-763.02 1094.36,-788.4 1219.86,-801.19"/>
<polygon fill="black" stroke="black" points="1230.14,-802.24 1219.74,-805.7 1225.17,-801.73 1220.2,-801.23 1220.2,-801.23 1220.2,-801.23 1225.17,-801.73 1220.65,-796.75 1230.14,-802.24 1230.14,-802.24"/>
</g>
<!-- ragger.backend.interface&#45;&gt;ragger.logger -->
<g id="edge9" class="edge">
<title>ragger.backend.interface&#45;&gt;ragger.logger</title>
<path fill="none" stroke="black" d="M556.46,-756C500.16,-775.81 410.5,-812.52 345.5,-864 323.03,-881.8 303.23,-907.99 290.29,-927.36"/>
<polygon fill="black" stroke="black" points="284.67,-935.99 286.36,-925.15 287.4,-931.8 290.13,-927.61 290.13,-927.61 290.13,-927.61 287.4,-931.8 293.9,-930.06 284.67,-935.99 284.67,-935.99"/>
</g>
<!-- ragger.utils -->
<g id="node35" class="node">
<title>ragger.utils</title>
<polygon fill="#ffaabb" stroke="#ffaabb" points="659,-828 560,-828 560,-792 659,-792 659,-828"/>
<text text-anchor="middle" x="609.5" y="-806.3" font-family="Times,serif" font-size="14.00">ragger.utils</text>
</g>
<!-- ragger.backend.interface&#45;&gt;ragger.utils -->
<g id="edge10" class="edge">
<title>ragger.backend.interface&#45;&gt;ragger.utils</title>
<path fill="none" stroke="black" d="M609.5,-756.3C609.5,-764.02 609.5,-773.29 609.5,-781.89"/>
<polygon fill="black" stroke="black" points="609.5,-791.9 605,-781.9 609.5,-786.9 609.5,-781.9 609.5,-781.9 609.5,-781.9 609.5,-786.9 614,-781.9 609.5,-791.9 609.5,-791.9"/>
</g>
<!-- ragger.backend.ledgercomm&#45;&gt;ragger.backend.ledgercomm -->
<g id="edge11" class="edge">
<title>ragger.backend.ledgercomm&#45;&gt;ragger.backend.ledgercomm</title>
<path fill="none" stroke="black" d="M1233.65,-582.99C1244.56,-585.2 1251.5,-588.87 1251.5,-594 1251.5,-597.37 1248.51,-600.11 1243.37,-602.21"/>
<polygon fill="black" stroke="black" points="1233.65,-605.01 1242.02,-597.92 1238.46,-603.63 1243.26,-602.25 1243.26,-602.25 1243.26,-602.25 1238.46,-603.63 1244.51,-606.57 1233.65,-605.01 1233.65,-605.01"/>
</g>
<!-- ragger.backend.physical_backend -->
<g id="node7" class="node">
<title>ragger.backend.physical_backend</title>
<polygon fill="#99ddff" stroke="#99ddff" points="1040.5,-684 784.5,-684 784.5,-648 1040.5,-648 1040.5,-684"/>
<text text-anchor="middle" x="912.5" y="-662.3" font-family="Times,serif" font-size="14.00">ragger.backend.physical_backend</text>
</g>
<!-- ragger.backend.ledgercomm&#45;&gt;ragger.backend.physical_backend -->
<g id="edge12" class="edge">
<title>ragger.backend.ledgercomm&#45;&gt;ragger.backend.physical_backend</title>
<path fill="none" stroke="black" d="M1072.15,-612.03C1042.54,-621.86 1005.13,-634.27 973.96,-644.61"/>
<polygon fill="black" stroke="black" points="964.08,-647.89 972.15,-640.47 968.82,-646.31 973.57,-644.74 973.57,-644.74 973.57,-644.74 968.82,-646.31 974.99,-649.01 964.08,-647.89 964.08,-647.89"/>
</g>
<!-- ragger.error -->
<g id="node16" class="node">
<title>ragger.error</title>
<polygon fill="#77aadd" stroke="#77aadd" points="1264.5,-972 1160.5,-972 1160.5,-936 1264.5,-936 1264.5,-972"/>
<text text-anchor="middle" x="1212.5" y="-950.3" font-family="Times,serif" font-size="14.00">ragger.error</text>
</g>
<!-- ragger.backend.ledgercomm&#45;&gt;ragger.error -->
<g id="edge13" class="edge">
<title>ragger.backend.ledgercomm&#45;&gt;ragger.error</title>
<path fill="none" stroke="black" d="M1182.46,-612.03C1279.05,-643.54 1467.82,-721.1 1543.5,-864 1550.99,-878.14 1553.88,-887.82 1543.5,-900 1509.67,-939.68 1360.99,-949.78 1274.84,-952.27"/>
<polygon fill="black" stroke="black" points="1264.66,-952.53 1274.53,-947.77 1269.65,-952.4 1274.65,-952.27 1274.65,-952.27 1274.65,-952.27 1269.65,-952.4 1274.77,-956.77 1264.66,-952.53 1264.66,-952.53"/>
</g>
<!-- ragger.backend.ledgercomm&#45;&gt;ragger.firmware -->
<g id="edge14" class="edge">
<title>ragger.backend.ledgercomm&#45;&gt;ragger.firmware</title>
<path fill="none" stroke="black" d="M1152.22,-612.1C1166.58,-621.53 1183.59,-634.13 1196.5,-648 1235.26,-689.66 1267.28,-748.5 1283.99,-782.3"/>
<polygon fill="black" stroke="black" points="1288.48,-791.54 1280.06,-784.52 1286.29,-787.04 1284.11,-782.55 1284.11,-782.55 1284.11,-782.55 1286.29,-787.04 1288.15,-780.58 1288.48,-791.54 1288.48,-791.54"/>
</g>
<!-- ragger.backend.ledgercomm&#45;&gt;ragger.utils -->
<g id="edge15" class="edge">
<title>ragger.backend.ledgercomm&#45;&gt;ragger.utils</title>
<path fill="none" stroke="black" d="M1112.86,-612.16C1090.31,-646.77 1033.94,-724.31 963.5,-756 912.12,-779.12 755.93,-796.08 669.18,-804"/>
<polygon fill="black" stroke="black" points="659.21,-804.9 668.77,-799.52 664.19,-804.45 669.17,-804 669.17,-804 669.17,-804 664.19,-804.45 669.58,-808.49 659.21,-804.9 659.21,-804.9"/>
</g>
<!-- ragger.backend.ledgerwallet&#45;&gt;ragger.backend.physical_backend -->
<g id="edge16" class="edge">
<title>ragger.backend.ledgerwallet&#45;&gt;ragger.backend.physical_backend</title>
<path fill="none" stroke="black" d="M862.81,-612.3C870.81,-620.78 880.57,-631.14 889.32,-640.42"/>
<polygon fill="black" stroke="black" points="896.37,-647.9 886.24,-643.71 892.94,-644.26 889.51,-640.62 889.51,-640.62 889.51,-640.62 892.94,-644.26 892.79,-637.53 896.37,-647.9 896.37,-647.9"/>
</g>
<!-- ragger.backend.ledgerwallet&#45;&gt;ragger.error -->
<g id="edge17" class="edge">
<title>ragger.backend.ledgerwallet&#45;&gt;ragger.error</title>
<path fill="none" stroke="black" d="M940.8,-612.04C985.15,-621.54 1032.07,-634.22 1049.5,-648 1099.26,-687.32 1153.39,-844.18 1183.5,-900 1188.25,-908.81 1193.5,-918.42 1198.2,-927.01"/>
<polygon fill="black" stroke="black" points="1203.04,-935.84 1194.29,-929.24 1200.64,-931.46 1198.23,-927.08 1198.23,-927.08 1198.23,-927.08 1200.64,-931.46 1202.18,-924.91 1203.04,-935.84 1203.04,-935.84"/>
</g>
<!-- ragger.backend.ledgerwallet&#45;&gt;ragger.firmware -->
<g id="edge18" class="edge">
<title>ragger.backend.ledgerwallet&#45;&gt;ragger.firmware</title>
<path fill="none" stroke="black" d="M954,-612.01C1005.5,-621.57 1060.66,-634.32 1082.5,-648 1134.5,-680.57 1119.48,-719.09 1168.5,-756 1186.33,-769.43 1208.05,-780.08 1228.51,-788.22"/>
<polygon fill="black" stroke="black" points="1238.11,-791.89 1227.16,-792.52 1233.44,-790.1 1228.77,-788.31 1228.77,-788.31 1228.77,-788.31 1233.44,-790.1 1230.38,-784.11 1238.11,-791.89 1238.11,-791.89"/>
</g>
<!-- ragger.backend.ledgerwallet&#45;&gt;ragger.utils -->
<g id="edge19" class="edge">
<title>ragger.backend.ledgerwallet&#45;&gt;ragger.utils</title>
<path fill="none" stroke="black" d="M817.96,-612.21C804.01,-621.59 787.65,-634.1 775.5,-648 739.36,-689.34 755.16,-718.03 715.5,-756 701.83,-769.09 684.3,-779.61 667.45,-787.72"/>
<polygon fill="black" stroke="black" points="658.19,-791.98 665.4,-783.72 662.73,-789.9 667.28,-787.81 667.28,-787.81 667.28,-787.81 662.73,-789.9 669.16,-791.89 658.19,-791.98 658.19,-791.98"/>
</g>
<!-- ragger.backend.physical_backend&#45;&gt;ragger.backend.interface -->
<g id="edge20" class="edge">
<title>ragger.backend.physical_backend&#45;&gt;ragger.backend.interface</title>
<path fill="none" stroke="black" d="M838.77,-684.03C794.78,-694.2 738.8,-707.13 693.17,-717.67"/>
<polygon fill="black" stroke="black" points="683.3,-719.95 692.03,-713.31 688.17,-718.82 693.05,-717.7 693.05,-717.7 693.05,-717.7 688.17,-718.82 694.06,-722.08 683.3,-719.95 683.3,-719.95"/>
</g>
<!-- ragger.backend.physical_backend&#45;&gt;ragger.firmware -->
<g id="edge21" class="edge">
<title>ragger.backend.physical_backend&#45;&gt;ragger.firmware</title>
<path fill="none" stroke="black" d="M951.52,-684.02C994.86,-702.66 1067.1,-732.98 1130.5,-756 1162.83,-767.74 1199.19,-779.51 1229.61,-788.96"/>
<polygon fill="black" stroke="black" points="1239.27,-791.94 1228.39,-793.29 1234.5,-790.47 1229.72,-788.99 1229.72,-788.99 1229.72,-788.99 1234.5,-790.47 1231.05,-784.69 1239.27,-791.94 1239.27,-791.94"/>
</g>
<!-- ragger.gui -->
<g id="node25" class="node">
<title>ragger.gui</title>
<polygon fill="#eedd88" stroke="#eedd88" points="954.5,-756 864.5,-756 864.5,-720 954.5,-720 954.5,-756"/>
<text text-anchor="middle" x="909.5" y="-734.3" font-family="Times,serif" font-size="14.00">ragger.gui</text>
</g>
<!-- ragger.backend.physical_backend&#45;&gt;ragger.gui -->
<g id="edge22" class="edge">
<title>ragger.backend.physical_backend&#45;&gt;ragger.gui</title>
<path fill="none" stroke="black" d="M911.76,-684.3C911.43,-692.02 911.03,-701.29 910.66,-709.89"/>
<polygon fill="black" stroke="black" points="910.23,-719.9 906.17,-709.71 910.45,-714.9 910.66,-709.9 910.66,-709.9 910.66,-709.9 910.45,-714.9 915.16,-710.1 910.23,-719.9 910.23,-719.9"/>
</g>
<!-- ragger.navigator.instruction -->
<g id="node30" class="node">
<title>ragger.navigator.instruction</title>
<polygon fill="#ee8866" stroke="#ee8866" points="1136,-900 919,-900 919,-864 1136,-864 1136,-900"/>
<text text-anchor="middle" x="1027.5" y="-878.3" font-family="Times,serif" font-size="14.00">ragger.navigator.instruction</text>
</g>
<!-- ragger.backend.physical_backend&#45;&gt;ragger.navigator.instruction -->
<g id="edge23" class="edge">
<title>ragger.backend.physical_backend&#45;&gt;ragger.navigator.instruction</title>
<path fill="none" stroke="black" d="M932.36,-684.12C942.69,-693.84 954.93,-706.69 963.5,-720 991.43,-763.35 1010.65,-820.85 1020.31,-854.1"/>
<polygon fill="black" stroke="black" points="1023.1,-863.99 1016.05,-855.6 1021.74,-859.18 1020.38,-854.37 1020.38,-854.37 1020.38,-854.37 1021.74,-859.18 1024.71,-853.15 1023.1,-863.99 1023.1,-863.99"/>
</g>
<!-- ragger.backend.physical_backend&#45;&gt;ragger.utils -->
<g id="edge24" class="edge">
<title>ragger.backend.physical_backend&#45;&gt;ragger.utils</title>
<path fill="none" stroke="black" d="M887.73,-684.13C859.05,-703.44 809.9,-734.88 764.5,-756 733.8,-770.28 698.14,-782.74 668.76,-791.98"/>
<polygon fill="black" stroke="black" points="659.06,-794.99 667.28,-787.73 663.84,-793.51 668.61,-792.03 668.61,-792.03 668.61,-792.03 663.84,-793.51 669.94,-796.33 659.06,-794.99 659.06,-794.99"/>
</g>
<!-- ragger.backend.speculos&#45;&gt;ragger.backend.interface -->
<g id="edge25" class="edge">
<title>ragger.backend.speculos&#45;&gt;ragger.backend.interface</title>
<path fill="none" stroke="black" d="M459.68,-684.03C487.35,-693.81 522.28,-706.16 551.45,-716.48"/>
<polygon fill="black" stroke="black" points="561.1,-719.89 550.17,-720.8 556.39,-718.22 551.67,-716.56 551.67,-716.56 551.67,-716.56 556.39,-718.22 553.17,-712.31 561.1,-719.89 561.1,-719.89"/>
</g>
<!-- ragger.backend.speculos&#45;&gt;ragger.error -->
<g id="edge26" class="edge">
<title>ragger.backend.speculos&#45;&gt;ragger.error</title>
<path fill="none" stroke="black" d="M397.16,-684.2C363.54,-726.66 286.73,-837.53 345.5,-900 373.04,-929.27 955.96,-946.54 1150.17,-951.5"/>
<polygon fill="black" stroke="black" points="1160.22,-951.76 1150.11,-956 1155.22,-951.63 1150.22,-951.51 1150.22,-951.51 1150.22,-951.51 1155.22,-951.63 1150.33,-947.01 1160.22,-951.76 1160.22,-951.76"/>
</g>
<!-- ragger.backend.speculos&#45;&gt;ragger.firmware -->
<g id="edge27" class="edge">
<title>ragger.backend.speculos&#45;&gt;ragger.firmware</title>
<path fill="none" stroke="black" d="M428,-684.39C451.66,-709.12 493.37,-751.92 502.5,-756 518.76,-763.27 1024.49,-793.24 1220.2,-804.61"/>
<polygon fill="black" stroke="black" points="1230.41,-805.2 1220.16,-809.11 1225.42,-804.91 1220.42,-804.62 1220.42,-804.62 1220.42,-804.62 1225.42,-804.91 1220.68,-800.13 1230.41,-805.2 1230.41,-805.2"/>
</g>
<!-- ragger.backend.speculos&#45;&gt;ragger.logger -->
<g id="edge28" class="edge">
<title>ragger.backend.speculos&#45;&gt;ragger.logger</title>
<path fill="none" stroke="black" d="M364.7,-684.03C346.07,-692.6 325.53,-704.5 310.5,-720 256.33,-775.87 262.76,-877.26 269.66,-925.75"/>
<polygon fill="black" stroke="black" points="271.21,-935.8 265.24,-926.6 270.45,-930.86 269.69,-925.92 269.69,-925.92 269.69,-925.92 270.45,-930.86 274.14,-925.23 271.21,-935.8 271.21,-935.8"/>
</g>
<!-- ragger.backend.speculos&#45;&gt;ragger.utils -->
<g id="edge29" class="edge">
<title>ragger.backend.speculos&#45;&gt;ragger.utils</title>
<path fill="none" stroke="black" d="M416.97,-684.15C424.16,-704.08 438.62,-736.67 461.5,-756 486.6,-777.2 520.82,-790.18 550.04,-797.99"/>
<polygon fill="black" stroke="black" points="559.73,-800.44 548.94,-802.35 554.89,-799.21 550.04,-797.99 550.04,-797.99 550.04,-797.99 554.89,-799.21 551.14,-793.63 559.73,-800.44 559.73,-800.44"/>
</g>
<!-- ragger.backend.stub&#45;&gt;ragger.backend.interface -->
<g id="edge30" class="edge">
<title>ragger.backend.stub&#45;&gt;ragger.backend.interface</title>
<path fill="none" stroke="black" d="M637.35,-684.3C633.1,-692.36 627.94,-702.11 623.23,-711.02"/>
<polygon fill="black" stroke="black" points="618.54,-719.9 619.24,-708.95 620.88,-715.48 623.21,-711.05 623.21,-711.05 623.21,-711.05 620.88,-715.48 627.19,-713.16 618.54,-719.9 618.54,-719.9"/>
</g>
<!-- ragger.utils.structs -->
<g id="node38" class="node">
<title>ragger.utils.structs</title>
<polygon fill="#ffaabb" stroke="#ffaabb" points="686.5,-900 532.5,-900 532.5,-864 686.5,-864 686.5,-900"/>
<text text-anchor="middle" x="609.5" y="-878.3" font-family="Times,serif" font-size="14.00">ragger.utils.structs</text>
</g>
<!-- ragger.backend.stub&#45;&gt;ragger.utils.structs -->
<g id="edge31" class="edge">
<title>ragger.backend.stub&#45;&gt;ragger.utils.structs</title>
<path fill="none" stroke="black" d="M680.34,-684.04C693.88,-692.78 708.02,-704.83 715.5,-720 722.57,-734.35 720.14,-740.69 715.5,-756 702.8,-797.96 666.99,-834.68 640.49,-857.28"/>
<polygon fill="black" stroke="black" points="632.6,-863.83 637.42,-853.98 636.45,-860.64 640.3,-857.44 640.3,-857.44 640.3,-857.44 636.45,-860.64 643.17,-860.91 632.6,-863.83 632.6,-863.83"/>
</g>
<!-- ragger.bip -->
<g id="node10" class="node">
<title>ragger.bip</title>
<polygon fill="#44bb99" stroke="#44bb99" points="1848.5,-36 1758.5,-36 1758.5,0 1848.5,0 1848.5,-36"/>
<text text-anchor="middle" x="1803.5" y="-14.3" font-family="Times,serif" font-size="14.00">ragger.bip</text>
</g>
<!-- ragger.bip.path -->
<g id="node11" class="node">
<title>ragger.bip.path</title>
<polygon fill="#44bb99" stroke="#44bb99" points="1794,-108 1667,-108 1667,-72 1794,-72 1794,-108"/>
<text text-anchor="middle" x="1730.5" y="-86.3" font-family="Times,serif" font-size="14.00">ragger.bip.path</text>
</g>
<!-- ragger.bip&#45;&gt;ragger.bip.path -->
<g id="edge32" class="edge">
<title>ragger.bip&#45;&gt;ragger.bip.path</title>
<path fill="none" stroke="black" d="M1785.46,-36.3C1776.44,-44.95 1765.38,-55.55 1755.56,-64.97"/>
<polygon fill="black" stroke="black" points="1748.34,-71.9 1752.44,-61.73 1751.95,-68.44 1755.56,-64.97 1755.56,-64.97 1755.56,-64.97 1751.95,-68.44 1758.67,-68.22 1748.34,-71.9 1748.34,-71.9"/>
</g>
<!-- ragger.bip.seed -->
<g id="node12" class="node">
<title>ragger.bip.seed</title>
<polygon fill="#44bb99" stroke="#44bb99" points="1940.5,-108 1812.5,-108 1812.5,-72 1940.5,-72 1940.5,-108"/>
<text text-anchor="middle" x="1876.5" y="-86.3" font-family="Times,serif" font-size="14.00">ragger.bip.seed</text>
</g>
<!-- ragger.bip&#45;&gt;ragger.bip.seed -->
<g id="edge33" class="edge">
<title>ragger.bip&#45;&gt;ragger.bip.seed</title>
<path fill="none" stroke="black" d="M1821.54,-36.3C1830.56,-44.95 1841.62,-55.55 1851.44,-64.97"/>
<polygon fill="black" stroke="black" points="1858.66,-71.9 1848.33,-68.22 1855.05,-68.44 1851.44,-64.97 1851.44,-64.97 1851.44,-64.97 1855.05,-68.44 1854.56,-61.73 1858.66,-71.9 1858.66,-71.9"/>
</g>
<!-- ragger.conftest -->
<g id="node13" class="node">
<title>ragger.conftest</title>
<polygon fill="#bbcc33" stroke="#bbcc33" points="1992,-36 1867,-36 1867,0 1992,0 1992,-36"/>
<text text-anchor="middle" x="1929.5" y="-14.3" font-family="Times,serif" font-size="14.00">ragger.conftest</text>
</g>
<!-- ragger.conftest.base_conftest -->
<g id="node14" class="node">
<title>ragger.conftest.base_conftest</title>
<polygon fill="#bbcc33" stroke="#bbcc33" points="745,-36 518,-36 518,0 745,0 745,-36"/>
<text text-anchor="middle" x="631.5" y="-14.3" font-family="Times,serif" font-size="14.00">ragger.conftest.base_conftest</text>
</g>
<!-- ragger.conftest.base_conftest&#45;&gt;ragger.backend -->
<g id="edge34" class="edge">
<title>ragger.conftest.base_conftest&#45;&gt;ragger.backend</title>
<path fill="none" stroke="black" d="M539.58,-36.08C473.32,-54.32 395.5,-90.71 395.5,-161 395.5,-161 395.5,-161 395.5,-379 395.5,-473.69 522.82,-505.24 607.56,-515.75"/>
<polygon fill="black" stroke="black" points="617.67,-516.93 607.22,-520.24 612.71,-516.35 607.74,-515.77 607.74,-515.77 607.74,-515.77 612.71,-516.35 608.26,-511.3 617.67,-516.93 617.67,-516.93"/>
</g>
<!-- ragger.conftest.base_conftest&#45;&gt;ragger.firmware -->
<g id="edge35" class="edge">
<title>ragger.conftest.base_conftest&#45;&gt;ragger.firmware</title>
<path fill="none" stroke="black" d="M745.35,-31.39C949.44,-55.86 1365.87,-116.78 1468.5,-216 1522.97,-268.66 1524.5,-301.24 1524.5,-377 1524.5,-377 1524.5,-377 1524.5,-523 1524.5,-634.83 1510.55,-678.95 1429.5,-756 1413.56,-771.15 1392.75,-782.16 1372.34,-790.08"/>
<polygon fill="black" stroke="black" points="1362.69,-793.62 1370.53,-785.95 1367.39,-791.9 1372.08,-790.18 1372.08,-790.18 1372.08,-790.18 1367.39,-791.9 1373.63,-794.4 1362.69,-793.62 1362.69,-793.62"/>
</g>
<!-- ragger.conftest.base_conftest&#45;&gt;ragger.logger -->
<g id="edge36" class="edge">
<title>ragger.conftest.base_conftest&#45;&gt;ragger.logger</title>
<path fill="none" stroke="black" d="M517.64,-21.29C442.09,-26.13 342.04,-39.02 259.5,-72 196.17,-97.3 134.5,-92.8 134.5,-161 134.5,-161 134.5,-161 134.5,-811 134.5,-865.99 188.4,-907.41 229.31,-930.93"/>
<polygon fill="black" stroke="black" points="238.08,-935.81 227.16,-934.88 233.71,-933.38 229.35,-930.95 229.35,-930.95 229.35,-930.95 233.71,-933.38 231.54,-927.02 238.08,-935.81 238.08,-935.81"/>
</g>
<!-- ragger.navigator -->
<g id="node29" class="node">
<title>ragger.navigator</title>
<polygon fill="#ee8866" stroke="#ee8866" points="851.5,-108 715.5,-108 715.5,-72 851.5,-72 851.5,-108"/>
<text text-anchor="middle" x="783.5" y="-86.3" font-family="Times,serif" font-size="14.00">ragger.navigator</text>
</g>
<!-- ragger.conftest.base_conftest&#45;&gt;ragger.navigator -->
<g id="edge37" class="edge">
<title>ragger.conftest.base_conftest&#45;&gt;ragger.navigator</title>
<path fill="none" stroke="black" d="M668.68,-36.12C689.37,-45.65 715.3,-57.59 737.28,-67.72"/>
<polygon fill="black" stroke="black" points="746.44,-71.93 735.47,-71.84 741.9,-69.84 737.35,-67.75 737.35,-67.75 737.35,-67.75 741.9,-69.84 739.24,-63.66 746.44,-71.93 746.44,-71.93"/>
</g>
<!-- ragger.conftest.base_conftest&#45;&gt;ragger.utils -->
<g id="edge38" class="edge">
<title>ragger.conftest.base_conftest&#45;&gt;ragger.utils</title>
<path fill="none" stroke="black" d="M517.85,-34.61C393.16,-55 210.5,-95.96 210.5,-161 210.5,-161 210.5,-161 210.5,-523 210.5,-634.01 214.52,-685.78 300.5,-756 319.54,-771.55 465.59,-791.55 549.91,-801.97"/>
<polygon fill="black" stroke="black" points="559.87,-803.19 549.4,-806.44 554.91,-802.58 549.94,-801.98 549.94,-801.98 549.94,-801.98 554.91,-802.58 550.49,-797.51 559.87,-803.19 559.87,-803.19"/>
</g>
<!-- ragger.utils.misc -->
<g id="node36" class="node">
<title>ragger.utils.misc</title>
<polygon fill="#ffaabb" stroke="#ffaabb" points="1330,-900 1193,-900 1193,-864 1330,-864 1330,-900"/>
<text text-anchor="middle" x="1261.5" y="-878.3" font-family="Times,serif" font-size="14.00">ragger.utils.misc</text>
</g>
<!-- ragger.conftest.base_conftest&#45;&gt;ragger.utils.misc -->
<g id="edge39" class="edge">
<title>ragger.conftest.base_conftest&#45;&gt;ragger.utils.misc</title>
<path fill="none" stroke="black" d="M745.06,-23.3C1008.41,-34.79 1638.5,-71.62 1638.5,-161 1638.5,-161 1638.5,-161 1638.5,-667 1638.5,-765.1 1575.61,-784.86 1487.5,-828 1480.64,-831.36 1402.61,-849.33 1340.13,-863.43"/>
<polygon fill="black" stroke="black" points="1330.25,-865.66 1339.02,-859.07 1335.13,-864.56 1340.01,-863.46 1340.01,-863.46 1340.01,-863.46 1335.13,-864.56 1341,-867.85 1330.25,-865.66 1330.25,-865.66"/>
</g>
<!-- ragger.conftest.configuration -->
<g id="node15" class="node">
<title>ragger.conftest.configuration</title>
<polygon fill="#bbcc33" stroke="#bbcc33" points="2234.5,-36 2010.5,-36 2010.5,0 2234.5,0 2234.5,-36"/>
<text text-anchor="middle" x="2122.5" y="-14.3" font-family="Times,serif" font-size="14.00">ragger.conftest.configuration</text>
</g>
<!-- ragger.firmware.structs -->
<g id="node18" class="node">
<title>ragger.firmware.structs</title>
<polygon fill="#aaaa00" stroke="#aaaa00" points="1535,-900 1348,-900 1348,-864 1535,-864 1535,-900"/>
<text text-anchor="middle" x="1441.5" y="-878.3" font-family="Times,serif" font-size="14.00">ragger.firmware.structs</text>
</g>
<!-- ragger.firmware&#45;&gt;ragger.firmware.structs -->
<g id="edge40" class="edge">
<title>ragger.firmware&#45;&gt;ragger.firmware.structs</title>
<path fill="none" stroke="black" d="M1331.97,-828.12C1351.62,-837.61 1376.22,-849.49 1397.13,-859.58"/>
<polygon fill="black" stroke="black" points="1406.14,-863.93 1395.18,-863.64 1401.64,-861.76 1397.14,-859.58 1397.14,-859.58 1397.14,-859.58 1401.64,-861.76 1399.1,-855.53 1406.14,-863.93 1406.14,-863.93"/>
</g>
<!-- ragger.firmware.touch -->
<g id="node19" class="node">
<title>ragger.firmware.touch</title>
<polygon fill="#aaaa00" stroke="#aaaa00" points="1242.5,-252 1066.5,-252 1066.5,-216 1242.5,-216 1242.5,-252"/>
<text text-anchor="middle" x="1154.5" y="-230.3" font-family="Times,serif" font-size="14.00">ragger.firmware.touch</text>
</g>
<!-- ragger.firmware.touch.screen -->
<g id="node23" class="node">
<title>ragger.firmware.touch.screen</title>
<polygon fill="#aaaa00" stroke="#aaaa00" points="1268.5,-324 1040.5,-324 1040.5,-288 1268.5,-288 1268.5,-324"/>
<text text-anchor="middle" x="1154.5" y="-302.3" font-family="Times,serif" font-size="14.00">ragger.firmware.touch.screen</text>
</g>
<!-- ragger.firmware.touch&#45;&gt;ragger.firmware.touch.screen -->
<g id="edge41" class="edge">
<title>ragger.firmware.touch&#45;&gt;ragger.firmware.touch.screen</title>
<path fill="none" stroke="black" d="M1154.5,-252.3C1154.5,-260.02 1154.5,-269.29 1154.5,-277.89"/>
<polygon fill="black" stroke="black" points="1154.5,-287.9 1150,-277.9 1154.5,-282.9 1154.5,-277.9 1154.5,-277.9 1154.5,-277.9 1154.5,-282.9 1159,-277.9 1154.5,-287.9 1154.5,-287.9"/>
</g>
<!-- ragger.firmware.touch.element -->
<g id="node20" class="node">
<title>ragger.firmware.touch.element</title>
<polygon fill="#aaaa00" stroke="#aaaa00" points="1341,-468 1102,-468 1102,-432 1341,-432 1341,-468"/>
<text text-anchor="middle" x="1221.5" y="-446.3" font-family="Times,serif" font-size="14.00">ragger.firmware.touch.element</text>
</g>
<!-- ragger.firmware.touch.element&#45;&gt;ragger.backend -->
<g id="edge42" class="edge">
<title>ragger.firmware.touch.element&#45;&gt;ragger.backend</title>
<path fill="none" stroke="black" d="M1101.99,-466.49C995.95,-480.24 844.4,-499.88 755.16,-511.45"/>
<polygon fill="black" stroke="black" points="745.13,-512.75 754.47,-507 750.09,-512.11 755.04,-511.47 755.04,-511.47 755.04,-511.47 750.09,-512.11 755.62,-515.93 745.13,-512.75 745.13,-512.75"/>
</g>
<!-- ragger.firmware.touch.element&#45;&gt;ragger.firmware -->
<g id="edge43" class="edge">
<title>ragger.firmware.touch.element&#45;&gt;ragger.firmware</title>
<path fill="none" stroke="black" d="M1298.31,-468.12C1318.46,-476 1338.45,-487.45 1352.5,-504 1378.73,-534.91 1372.5,-552.46 1372.5,-593 1372.5,-593 1372.5,-593 1372.5,-667 1372.5,-712.36 1341.98,-757.25 1319.62,-784.05"/>
<polygon fill="black" stroke="black" points="1312.99,-791.77 1316.1,-781.26 1316.25,-787.98 1319.51,-784.19 1319.51,-784.19 1319.51,-784.19 1316.25,-787.98 1322.92,-787.12 1312.99,-791.77 1312.99,-791.77"/>
</g>
<!-- ragger.firmware.touch.positions -->
<g id="node22" class="node">
<title>ragger.firmware.touch.positions</title>
<polygon fill="#aaaa00" stroke="#aaaa00" points="1344,-540 1099,-540 1099,-504 1344,-504 1344,-540"/>
<text text-anchor="middle" x="1221.5" y="-518.3" font-family="Times,serif" font-size="14.00">ragger.firmware.touch.positions</text>
</g>
<!-- ragger.firmware.touch.element&#45;&gt;ragger.firmware.touch.positions -->
<g id="edge44" class="edge">
<title>ragger.firmware.touch.element&#45;&gt;ragger.firmware.touch.positions</title>
<path fill="none" stroke="black" d="M1221.5,-468.3C1221.5,-476.02 1221.5,-485.29 1221.5,-493.89"/>
<polygon fill="black" stroke="black" points="1221.5,-503.9 1217,-493.9 1221.5,-498.9 1221.5,-493.9 1221.5,-493.9 1221.5,-493.9 1221.5,-498.9 1226,-493.9 1221.5,-503.9 1221.5,-503.9"/>
</g>
<!-- ragger.firmware.touch.layouts -->
<g id="node21" class="node">
<title>ragger.firmware.touch.layouts</title>
<polygon fill="#aaaa00" stroke="#aaaa00" points="1113,-396 880,-396 880,-360 1113,-360 1113,-396"/>
<text text-anchor="middle" x="996.5" y="-374.3" font-family="Times,serif" font-size="14.00">ragger.firmware.touch.layouts</text>
</g>
<!-- ragger.firmware.touch.layouts&#45;&gt;ragger.firmware.touch.element -->
<g id="edge45" class="edge">
<title>ragger.firmware.touch.layouts&#45;&gt;ragger.firmware.touch.element</title>
<path fill="none" stroke="black" d="M1051.25,-396.03C1083.1,-405.94 1123.42,-418.49 1156.83,-428.88"/>
<polygon fill="black" stroke="black" points="1166.5,-431.89 1155.62,-433.22 1161.73,-430.4 1156.95,-428.92 1156.95,-428.92 1156.95,-428.92 1161.73,-430.4 1158.29,-424.62 1166.5,-431.89 1166.5,-431.89"/>
</g>
<!-- ragger.firmware.touch.positions&#45;&gt;ragger.firmware -->
<g id="edge46" class="edge">
<title>ragger.firmware.touch.positions&#45;&gt;ragger.firmware</title>
<path fill="none" stroke="black" d="M1261.89,-540.16C1277.1,-548.69 1293,-560.54 1302.5,-576 1342.38,-640.9 1320.36,-736.36 1305.92,-782.33"/>
<polygon fill="black" stroke="black" points="1302.8,-791.87 1301.62,-780.97 1304.35,-787.12 1305.9,-782.37 1305.9,-782.37 1305.9,-782.37 1304.35,-787.12 1310.18,-783.76 1302.8,-791.87 1302.8,-791.87"/>
</g>
<!-- ragger.firmware.touch.screen&#45;&gt;ragger.backend -->
<g id="edge47" class="edge">
<title>ragger.firmware.touch.screen&#45;&gt;ragger.backend</title>
<path fill="none" stroke="black" d="M1040.16,-317.1C973.05,-325.14 896.46,-338.66 870.5,-360 830.59,-392.81 864.59,-432.03 827.5,-468 807.76,-487.14 780.58,-499.45 755.02,-507.32"/>
<polygon fill="black" stroke="black" points="745.32,-510.12 753.68,-503.02 750.13,-508.73 754.93,-507.34 754.93,-507.34 754.93,-507.34 750.13,-508.73 756.18,-511.67 745.32,-510.12 745.32,-510.12"/>
</g>
<!-- ragger.firmware.touch.screen&#45;&gt;ragger.firmware -->
<g id="edge48" class="edge">
<title>ragger.firmware.touch.screen&#45;&gt;ragger.firmware</title>
<path fill="none" stroke="black" d="M1268.78,-320.95C1319.93,-329.48 1372.72,-342.22 1390.5,-360 1419.17,-388.67 1410.5,-408.46 1410.5,-449 1410.5,-449 1410.5,-449 1410.5,-667 1410.5,-718 1365.23,-761.12 1331.74,-786.03"/>
<polygon fill="black" stroke="black" points="1323.52,-791.96 1328.99,-782.46 1327.57,-789.04 1331.63,-786.11 1331.63,-786.11 1331.63,-786.11 1327.57,-789.04 1334.26,-789.76 1323.52,-791.96 1323.52,-791.96"/>
</g>
<!-- ragger.firmware.touch.screen&#45;&gt;ragger.firmware.touch.layouts -->
<g id="edge49" class="edge">
<title>ragger.firmware.touch.screen&#45;&gt;ragger.firmware.touch.layouts</title>
<path fill="none" stroke="black" d="M1115.85,-324.12C1094.25,-333.69 1067.15,-345.7 1044.23,-355.85"/>
<polygon fill="black" stroke="black" points="1035.03,-359.93 1042.35,-351.77 1039.6,-357.91 1044.17,-355.88 1044.17,-355.88 1044.17,-355.88 1039.6,-357.91 1045.99,-360 1035.03,-359.93 1035.03,-359.93"/>
</g>
<!-- ragger.firmware.touch.use_cases -->
<g id="node24" class="node">
<title>ragger.firmware.touch.use_cases</title>
<polygon fill="#aaaa00" stroke="#aaaa00" points="1382,-396 1131,-396 1131,-360 1382,-360 1382,-396"/>
<text text-anchor="middle" x="1256.5" y="-374.3" font-family="Times,serif" font-size="14.00">ragger.firmware.touch.use_cases</text>
</g>
<!-- ragger.firmware.touch.screen&#45;&gt;ragger.firmware.touch.use_cases -->
<g id="edge50" class="edge">
<title>ragger.firmware.touch.screen&#45;&gt;ragger.firmware.touch.use_cases</title>
<path fill="none" stroke="black" d="M1179.45,-324.12C1192.54,-333.11 1208.76,-344.24 1222.94,-353.97"/>
<polygon fill="black" stroke="black" points="1231.45,-359.81 1220.66,-357.86 1227.33,-356.98 1223.21,-354.15 1223.21,-354.15 1223.21,-354.15 1227.33,-356.98 1225.75,-350.44 1231.45,-359.81 1231.45,-359.81"/>
</g>
<!-- ragger.firmware.touch.use_cases&#45;&gt;ragger.firmware.touch.element -->
<g id="edge51" class="edge">
<title>ragger.firmware.touch.use_cases&#45;&gt;ragger.firmware.touch.element</title>
<path fill="none" stroke="black" d="M1247.85,-396.3C1243.86,-404.27 1239.05,-413.9 1234.63,-422.74"/>
<polygon fill="black" stroke="black" points="1230.05,-431.9 1230.5,-420.94 1232.29,-427.42 1234.52,-422.95 1234.52,-422.95 1234.52,-422.95 1232.29,-427.42 1238.55,-424.96 1230.05,-431.9 1230.05,-431.9"/>
</g>
<!-- ragger.gui.process -->
<g id="node27" class="node">
<title>ragger.gui.process</title>
<polygon fill="#eedd88" stroke="#eedd88" points="965,-828 816,-828 816,-792 965,-792 965,-828"/>
<text text-anchor="middle" x="890.5" y="-806.3" font-family="Times,serif" font-size="14.00">ragger.gui.process</text>
</g>
<!-- ragger.gui&#45;&gt;ragger.gui.process -->
<g id="edge52" class="edge">
<title>ragger.gui&#45;&gt;ragger.gui.process</title>
<path fill="none" stroke="black" d="M904.8,-756.3C902.69,-764.1 900.14,-773.49 897.78,-782.17"/>
<polygon fill="black" stroke="black" points="895.14,-791.9 893.42,-781.07 896.45,-787.07 897.76,-782.24 897.76,-782.24 897.76,-782.24 896.45,-787.07 902.11,-783.42 895.14,-791.9 895.14,-791.9"/>
</g>
<!-- ragger.gui.interface -->
<g id="node26" class="node">
<title>ragger.gui.interface</title>
<polygon fill="#eedd88" stroke="#eedd88" points="862.5,-900 704.5,-900 704.5,-864 862.5,-864 862.5,-900"/>
<text text-anchor="middle" x="783.5" y="-878.3" font-family="Times,serif" font-size="14.00">ragger.gui.interface</text>
</g>
<!-- ragger.gui.interface&#45;&gt;ragger.logger -->
<g id="edge53" class="edge">
<title>ragger.gui.interface&#45;&gt;ragger.logger</title>
<path fill="none" stroke="black" d="M704.39,-898.54C701.39,-899.04 698.42,-899.53 695.5,-900 570.84,-919.87 424.44,-936.88 341.26,-945.96"/>
<polygon fill="black" stroke="black" points="331.19,-947.06 340.64,-941.5 336.16,-946.52 341.13,-945.98 341.13,-945.98 341.13,-945.98 336.16,-946.52 341.61,-950.45 331.19,-947.06 331.19,-947.06"/>
</g>
<!-- ragger.gui.process&#45;&gt;ragger.gui.interface -->
<g id="edge54" class="edge">
<title>ragger.gui.process&#45;&gt;ragger.gui.interface</title>
<path fill="none" stroke="black" d="M864.32,-828.12C850.46,-837.19 833.26,-848.45 818.29,-858.24"/>
<polygon fill="black" stroke="black" points="809.78,-863.81 815.68,-854.57 813.96,-861.07 818.14,-858.34 818.14,-858.34 818.14,-858.34 813.96,-861.07 820.61,-862.1 809.78,-863.81 809.78,-863.81"/>
</g>
<!-- ragger.gui.process&#45;&gt;ragger.logger -->
<g id="edge55" class="edge">
<title>ragger.gui.process&#45;&gt;ragger.logger</title>
<path fill="none" stroke="black" d="M892.32,-828.36C893.39,-848.79 891.61,-882.2 871.5,-900 832.48,-934.54 488.99,-947.48 341.41,-951.47"/>
<polygon fill="black" stroke="black" points="331.13,-951.74 341.01,-946.98 336.13,-951.61 341.12,-951.48 341.12,-951.48 341.12,-951.48 336.13,-951.61 341.24,-955.98 331.13,-951.74 331.13,-951.74"/>
</g>
<!-- ragger.gui.process&#45;&gt;ragger.navigator.instruction -->
<g id="edge56" class="edge">
<title>ragger.gui.process&#45;&gt;ragger.navigator.instruction</title>
<path fill="none" stroke="black" d="M924.01,-828.12C942.34,-837.49 965.24,-849.19 984.83,-859.2"/>
<polygon fill="black" stroke="black" points="993.86,-863.81 982.9,-863.27 989.4,-861.54 984.95,-859.26 984.95,-859.26 984.95,-859.26 989.4,-861.54 987,-855.25 993.86,-863.81 993.86,-863.81"/>
</g>
<!-- ragger.navigator&#45;&gt;ragger.navigator.instruction -->
<g id="edge57" class="edge">
<title>ragger.navigator&#45;&gt;ragger.navigator.instruction</title>
<path fill="none" stroke="black" d="M851.79,-92.1C950.16,-95.04 1136.79,-105.69 1290.5,-144 1373.3,-164.64 1403.97,-160.16 1468.5,-216 1531.16,-270.22 1562.5,-294.14 1562.5,-377 1562.5,-377 1562.5,-377 1562.5,-739 1562.5,-817.28 1484.47,-802.37 1410.5,-828 1385.79,-836.56 1249.28,-854.34 1146.22,-866.94"/>
<polygon fill="black" stroke="black" points="1136.04,-868.18 1145.42,-862.5 1141,-867.57 1145.96,-866.97 1145.96,-866.97 1145.96,-866.97 1141,-867.57 1146.51,-871.43 1136.04,-868.18 1136.04,-868.18"/>
</g>
<!-- ragger.navigator.nano_navigator -->
<g id="node31" class="node">
<title>ragger.navigator.nano_navigator</title>
<polygon fill="#ee8866" stroke="#ee8866" points="671.5,-396 423.5,-396 423.5,-360 671.5,-360 671.5,-396"/>
<text text-anchor="middle" x="547.5" y="-374.3" font-family="Times,serif" font-size="14.00">ragger.navigator.nano_navigator</text>
</g>
<!-- ragger.navigator&#45;&gt;ragger.navigator.nano_navigator -->
<g id="edge58" class="edge">
<title>ragger.navigator&#45;&gt;ragger.navigator.nano_navigator</title>
<path fill="none" stroke="black" d="M740.18,-108.19C721.82,-116.96 701.11,-128.98 685.5,-144 621.26,-205.79 576.48,-303.85 557.57,-350.57"/>
<polygon fill="black" stroke="black" points="553.83,-359.99 553.34,-349.03 555.68,-355.34 557.52,-350.7 557.52,-350.7 557.52,-350.7 555.68,-355.34 561.7,-352.36 553.83,-359.99 553.83,-359.99"/>
</g>
<!-- ragger.navigator.navigation_scenario -->
<g id="node32" class="node">
<title>ragger.navigator.navigation_scenario</title>
<polygon fill="#ee8866" stroke="#ee8866" points="1009,-180 728,-180 728,-144 1009,-144 1009,-180"/>
<text text-anchor="middle" x="868.5" y="-158.3" font-family="Times,serif" font-size="14.00">ragger.navigator.navigation_scenario</text>
</g>
<!-- ragger.navigator&#45;&gt;ragger.navigator.navigation_scenario -->
<g id="edge59" class="edge">
<title>ragger.navigator&#45;&gt;ragger.navigator.navigation_scenario</title>
<path fill="none" stroke="black" d="M804.51,-108.3C815.22,-117.12 828.39,-127.97 840,-137.53"/>
<polygon fill="black" stroke="black" points="847.73,-143.9 837.15,-141.01 843.87,-140.72 840.01,-137.54 840.01,-137.54 840.01,-137.54 843.87,-140.72 842.87,-134.06 847.73,-143.9 847.73,-143.9"/>
</g>
<!-- ragger.navigator.navigator -->
<g id="node33" class="node">
<title>ragger.navigator.navigator</title>
<polygon fill="#ee8866" stroke="#ee8866" points="785,-468 578,-468 578,-432 785,-432 785,-468"/>
<text text-anchor="middle" x="681.5" y="-446.3" font-family="Times,serif" font-size="14.00">ragger.navigator.navigator</text>
</g>
<!-- ragger.navigator&#45;&gt;ragger.navigator.navigator -->
<g id="edge60" class="edge">
<title>ragger.navigator&#45;&gt;ragger.navigator.navigator</title>
<path fill="none" stroke="black" d="M754.68,-108.05C741.72,-117.14 727.38,-129.46 718.5,-144 697.41,-178.51 699.5,-192.55 699.5,-233 699.5,-233 699.5,-233 699.5,-307 699.5,-347.1 692.35,-393.08 687.06,-421.58"/>
<polygon fill="black" stroke="black" points="685.14,-431.6 682.6,-420.93 686.08,-426.69 687.02,-421.78 687.02,-421.78 687.02,-421.78 686.08,-426.69 691.44,-422.62 685.14,-431.6 685.14,-431.6"/>
</g>
<!-- ragger.navigator.touch_navigator -->
<g id="node34" class="node">
<title>ragger.navigator.touch_navigator</title>
<polygon fill="#ee8866" stroke="#ee8866" points="1281.5,-180 1027.5,-180 1027.5,-144 1281.5,-144 1281.5,-180"/>
<text text-anchor="middle" x="1154.5" y="-158.3" font-family="Times,serif" font-size="14.00">ragger.navigator.touch_navigator</text>
</g>
<!-- ragger.navigator&#45;&gt;ragger.navigator.touch_navigator -->
<g id="edge61" class="edge">
<title>ragger.navigator&#45;&gt;ragger.navigator.touch_navigator</title>
<path fill="none" stroke="black" d="M851.55,-103.84C908.24,-114.54 989.79,-129.92 1054,-142.04"/>
<polygon fill="black" stroke="black" points="1064.15,-143.95 1053.49,-146.52 1059.24,-143.03 1054.33,-142.1 1054.33,-142.1 1054.33,-142.1 1059.24,-143.03 1055.16,-137.68 1064.15,-143.95 1064.15,-143.95"/>
</g>
<!-- ragger.navigator.nano_navigator&#45;&gt;ragger.backend -->
<g id="edge62" class="edge">
<title>ragger.navigator.nano_navigator&#45;&gt;ragger.backend</title>
<path fill="none" stroke="black" d="M547.29,-396.33C547.94,-415.81 551.79,-447.42 568.5,-468 579.58,-481.64 594.97,-491.96 610.84,-499.69"/>
<polygon fill="black" stroke="black" points="620.21,-503.94 609.24,-503.9 615.66,-501.88 611.1,-499.81 611.1,-499.81 611.1,-499.81 615.66,-501.88 612.97,-495.71 620.21,-503.94 620.21,-503.94"/>
</g>
<!-- ragger.navigator.nano_navigator&#45;&gt;ragger.firmware -->
<g id="edge63" class="edge">
<title>ragger.navigator.nano_navigator&#45;&gt;ragger.firmware</title>
<path fill="none" stroke="black" d="M544.4,-396.01C541.79,-414.38 539.74,-444.22 548.5,-468 562.9,-507.09 571.71,-520.46 608.5,-540 749.34,-614.81 820.08,-510.54 965.5,-576 987.01,-585.68 984.16,-600.06 1004.5,-612 1048.86,-638.04 1069.87,-622.43 1114.5,-648 1148.87,-667.69 1230.77,-745.14 1271.96,-785.01"/>
<polygon fill="black" stroke="black" points="1279.15,-791.99 1268.84,-788.26 1275.56,-788.51 1271.98,-785.03 1271.98,-785.03 1271.98,-785.03 1275.56,-788.51 1275.11,-781.8 1279.15,-791.99 1279.15,-791.99"/>
</g>
<!-- ragger.navigator.nano_navigator&#45;&gt;ragger.navigator.navigator -->
<g id="edge64" class="edge">
<title>ragger.navigator.nano_navigator&#45;&gt;ragger.navigator.navigator</title>
<path fill="none" stroke="black" d="M580.28,-396.12C598.13,-405.45 620.4,-417.08 639.5,-427.06"/>
<polygon fill="black" stroke="black" points="648.59,-431.81 637.65,-431.17 644.16,-429.5 639.73,-427.18 639.73,-427.18 639.73,-427.18 644.16,-429.5 641.81,-423.19 648.59,-431.81 648.59,-431.81"/>
</g>
<!-- ragger.navigator.navigation_scenario&#45;&gt;ragger.navigator.navigator -->
<g id="edge65" class="edge">
<title>ragger.navigator.navigation_scenario&#45;&gt;ragger.navigator.navigator</title>
<path fill="none" stroke="black" d="M812.63,-180.06C794.02,-188.24 774.69,-199.88 761.5,-216 709.07,-280.08 745.89,-319.8 713.5,-396 709.55,-405.3 704.18,-414.91 698.98,-423.36"/>
<polygon fill="black" stroke="black" points="693.46,-432 695.05,-421.15 696.15,-427.78 698.84,-423.57 698.84,-423.57 698.84,-423.57 696.15,-427.78 702.64,-425.99 693.46,-432 693.46,-432"/>
</g>
<!-- ragger.navigator.navigator&#45;&gt;ragger.backend -->
<g id="edge66" class="edge">
<title>ragger.navigator.navigator&#45;&gt;ragger.backend</title>
<path fill="none" stroke="black" d="M681.5,-468.3C681.5,-476.02 681.5,-485.29 681.5,-493.89"/>
<polygon fill="black" stroke="black" points="681.5,-503.9 677,-493.9 681.5,-498.9 681.5,-493.9 681.5,-493.9 681.5,-493.9 681.5,-498.9 686,-493.9 681.5,-503.9 681.5,-503.9"/>
</g>
<!-- ragger.navigator.navigator&#45;&gt;ragger.firmware -->
<g id="edge67" class="edge">
<title>ragger.navigator.navigator&#45;&gt;ragger.firmware</title>
<path fill="none" stroke="black" d="M758.92,-468.06C840.96,-486.1 974.31,-515.31 1089.5,-540 1165.44,-556.28 1207.09,-519.61 1260.5,-576 1314.02,-632.5 1307.9,-733.59 1301.21,-781.88"/>
<polygon fill="black" stroke="black" points="1299.7,-791.88 1296.74,-781.33 1300.45,-786.94 1301.19,-781.99 1301.19,-781.99 1301.19,-781.99 1300.45,-786.94 1305.64,-782.66 1299.7,-791.88 1299.7,-791.88"/>
</g>
<!-- ragger.navigator.navigator&#45;&gt;ragger.navigator.instruction -->
<g id="edge68" class="edge">
<title>ragger.navigator.navigator&#45;&gt;ragger.navigator.instruction</title>
<path fill="none" stroke="black" d="M577.73,-457.57C489.69,-464.78 371.48,-478.83 331.5,-504 236,-564.11 217.18,-679.9 300.5,-756 385.87,-833.98 437.08,-805.53 550.5,-828 559.26,-829.73 770.26,-852.92 908.66,-868.05"/>
<polygon fill="black" stroke="black" points="918.91,-869.16 908.48,-872.55 913.94,-868.62 908.97,-868.08 908.97,-868.08 908.97,-868.08 913.94,-868.62 909.46,-863.61 918.91,-869.16 918.91,-869.16"/>
</g>
<!-- ragger.navigator.navigator&#45;&gt;ragger.utils -->
<g id="edge69" class="edge">
<title>ragger.navigator.navigator&#45;&gt;ragger.utils</title>
<path fill="none" stroke="black" d="M577.98,-467.29C460.94,-488.7 286.5,-531.01 286.5,-593 286.5,-593 286.5,-593 286.5,-667 286.5,-780.66 456.18,-804.16 549.57,-808.48"/>
<polygon fill="black" stroke="black" points="559.74,-808.89 549.57,-812.98 554.74,-808.69 549.75,-808.49 549.75,-808.49 549.75,-808.49 554.74,-808.69 549.93,-803.99 559.74,-808.89 559.74,-808.89"/>
</g>
<!-- ragger.navigator.touch_navigator&#45;&gt;ragger.backend -->
<g id="edge70" class="edge">
<title>ragger.navigator.touch_navigator&#45;&gt;ragger.backend</title>
<path fill="none" stroke="black" d="M1072.39,-180.1C971.49,-203.53 813.5,-249.13 813.5,-305 813.5,-305 813.5,-305 813.5,-379 813.5,-419.54 818.83,-436.35 793.5,-468 782.6,-481.62 767.37,-491.93 751.64,-499.66"/>
<polygon fill="black" stroke="black" points="742.36,-503.91 749.57,-495.66 746.9,-501.83 751.45,-499.75 751.45,-499.75 751.45,-499.75 746.9,-501.83 753.32,-503.84 742.36,-503.91 742.36,-503.91"/>
</g>
<!-- ragger.navigator.touch_navigator&#45;&gt;ragger.firmware -->
<g id="edge71" class="edge">
<title>ragger.navigator.touch_navigator&#45;&gt;ragger.firmware</title>
<path fill="none" stroke="black" d="M1281.74,-175.33C1361.2,-190.87 1448.5,-225.93 1448.5,-305 1448.5,-305 1448.5,-305 1448.5,-667 1448.5,-723.81 1391.1,-764.42 1346.85,-787.29"/>
<polygon fill="black" stroke="black" points="1337.63,-791.9 1344.56,-783.4 1342.11,-789.66 1346.58,-787.43 1346.58,-787.43 1346.58,-787.43 1342.11,-789.66 1348.59,-791.45 1337.63,-791.9 1337.63,-791.9"/>
</g>
<!-- ragger.navigator.touch_navigator&#45;&gt;ragger.firmware.touch -->
<g id="edge72" class="edge">
<title>ragger.navigator.touch_navigator&#45;&gt;ragger.firmware.touch</title>
<path fill="none" stroke="black" d="M1154.5,-180.3C1154.5,-188.02 1154.5,-197.29 1154.5,-205.89"/>
<polygon fill="black" stroke="black" points="1154.5,-215.9 1150,-205.9 1154.5,-210.9 1154.5,-205.9 1154.5,-205.9 1154.5,-205.9 1154.5,-210.9 1159,-205.9 1154.5,-215.9 1154.5,-215.9"/>
</g>
<!-- ragger.navigator.touch_navigator&#45;&gt;ragger.navigator.instruction -->
<g id="edge73" class="edge">
<title>ragger.navigator.touch_navigator&#45;&gt;ragger.navigator.instruction</title>
<path fill="none" stroke="black" d="M1281.91,-167.96C1375.54,-179.26 1486.5,-212.22 1486.5,-305 1486.5,-305 1486.5,-305 1486.5,-523 1486.5,-667.87 1497.02,-755.67 1371.5,-828 1351.95,-839.27 1238.06,-855.44 1146.6,-866.95"/>
<polygon fill="black" stroke="black" points="1136.41,-868.22 1145.78,-862.51 1141.37,-867.6 1146.33,-866.98 1146.33,-866.98 1146.33,-866.98 1141.37,-867.6 1146.89,-871.44 1136.41,-868.22 1136.41,-868.22"/>
</g>
<!-- ragger.navigator.touch_navigator&#45;&gt;ragger.navigator.navigator -->
<g id="edge74" class="edge">
<title>ragger.navigator.touch_navigator&#45;&gt;ragger.navigator.navigator</title>
<path fill="none" stroke="black" d="M1027.46,-178.88C929.28,-191.63 808.57,-208.61 799.5,-216 733.45,-269.83 779.03,-323.97 733.5,-396 726.95,-406.37 718.08,-416.35 709.53,-424.8"/>
<polygon fill="black" stroke="black" points="702.16,-431.8 706.31,-421.65 705.79,-428.36 709.41,-424.91 709.41,-424.91 709.41,-424.91 705.79,-428.36 712.51,-428.17 702.16,-431.8 702.16,-431.8"/>
</g>
<!-- ragger.utils&#45;&gt;ragger.utils.misc -->
<g id="edge75" class="edge">
<title>ragger.utils&#45;&gt;ragger.utils.misc</title>
<path fill="none" stroke="black" d="M659,-815.14C753.52,-823.23 966.15,-842.22 1144.5,-864 1156.88,-865.51 1169.97,-867.26 1182.74,-869.06"/>
<polygon fill="black" stroke="black" points="1192.9,-870.5 1182.36,-873.55 1187.95,-869.8 1183,-869.09 1183,-869.09 1183,-869.09 1187.95,-869.8 1183.63,-864.64 1192.9,-870.5 1192.9,-870.5"/>
</g>
<!-- ragger.utils.packing -->
<g id="node37" class="node">
<title>ragger.utils.packing</title>
<polygon fill="#ffaabb" stroke="#ffaabb" points="514,-900 355,-900 355,-864 514,-864 514,-900"/>
<text text-anchor="middle" x="434.5" y="-878.3" font-family="Times,serif" font-size="14.00">ragger.utils.packing</text>
</g>
<!-- ragger.utils&#45;&gt;ragger.utils.packing -->
<g id="edge76" class="edge">
<title>ragger.utils&#45;&gt;ragger.utils.packing</title>
<path fill="none" stroke="black" d="M566.69,-828.12C542.55,-837.78 512.22,-849.91 486.69,-860.12"/>
<polygon fill="black" stroke="black" points="477.17,-863.93 484.78,-856.04 481.81,-862.07 486.46,-860.22 486.46,-860.22 486.46,-860.22 481.81,-862.07 488.13,-864.4 477.17,-863.93 477.17,-863.93"/>
</g>
<!-- ragger.utils&#45;&gt;ragger.utils.structs -->
<g id="edge77" class="edge">
<title>ragger.utils&#45;&gt;ragger.utils.structs</title>
<path fill="none" stroke="black" d="M609.5,-828.3C609.5,-836.02 609.5,-845.29 609.5,-853.89"/>
<polygon fill="black" stroke="black" points="609.5,-863.9 605,-853.9 609.5,-858.9 609.5,-853.9 609.5,-853.9 609.5,-853.9 609.5,-858.9 614,-853.9 609.5,-863.9 609.5,-863.9"/>
</g>
<!-- ragger.utils.misc&#45;&gt;ragger.error -->
<g id="edge78" class="edge">
<title>ragger.utils.misc&#45;&gt;ragger.error</title>
<path fill="none" stroke="black" d="M1249.39,-900.3C1243.63,-908.53 1236.64,-918.52 1230.29,-927.58"/>
<polygon fill="black" stroke="black" points="1224.47,-935.9 1226.52,-925.12 1227.34,-931.8 1230.21,-927.7 1230.21,-927.7 1230.21,-927.7 1227.34,-931.8 1233.89,-930.28 1224.47,-935.9 1224.47,-935.9"/>
</g>
</g>
</svg>
