<?xml version="1.0" encoding="UTF-8" standalone="no"?>
<!DOCTYPE svg PUBLIC "-//W3C//DTD SVG 1.1//EN"
 "http://www.w3.org/Graphics/SVG/1.1/DTD/svg11.dtd">
<!-- Generated by graphviz version 2.43.0 (0)
 -->
<!-- Title: packages_generated_ragger_architecture Pages: 1 -->
<svg width="2038pt" height="836pt"
 viewBox="0.00 0.00 2037.50 836.00" xmlns="http://www.w3.org/2000/svg" xmlns:xlink="http://www.w3.org/1999/xlink">
<g id="graph0" class="graph" transform="scale(1 1) rotate(0) translate(4 832)">
<title>packages_generated_ragger_architecture</title>
<polygon fill="white" stroke="transparent" points="-4,4 -4,-832 2033.5,-832 2033.5,4 -4,4"/>
<!-- ragger -->
<g id="node1" class="node">
<title>ragger</title>
<polygon fill="aliceblue" stroke="aliceblue" points="65,-612 0,-612 0,-576 65,-576 65,-612"/>
<text text-anchor="middle" x="32.5" y="-590.3" font-family="Times,serif" font-size="14.00">ragger</text>
</g>
<!-- ragger.logger -->
<g id="node22" class="node">
<title>ragger.logger</title>
<polygon fill="aliceblue" stroke="aliceblue" points="132,-684 19,-684 19,-648 132,-648 132,-684"/>
<text text-anchor="middle" x="75.5" y="-662.3" font-family="Times,serif" font-size="14.00">ragger.logger</text>
</g>
<!-- ragger&#45;&gt;ragger.logger -->
<g id="edge1" class="edge">
<title>ragger&#45;&gt;ragger.logger</title>
<path fill="none" stroke="black" d="M43.13,-612.3C48.13,-620.44 54.19,-630.31 59.71,-639.3"/>
<polygon fill="black" stroke="black" points="64.99,-647.9 55.92,-641.73 62.38,-643.64 59.76,-639.37 59.76,-639.37 59.76,-639.37 62.38,-643.64 63.59,-637.02 64.99,-647.9 64.99,-647.9"/>
</g>
<!-- ragger.backend -->
<g id="node2" class="node">
<title>ragger.backend</title>
<polygon fill="antiquewhite" stroke="antiquewhite" points="911,-468 784,-468 784,-432 911,-432 911,-468"/>
<text text-anchor="middle" x="847.5" y="-446.3" font-family="Times,serif" font-size="14.00">ragger.backend</text>
</g>
<!-- ragger.backend.interface -->
<g id="node3" class="node">
<title>ragger.backend.interface</title>
<polygon fill="antiquewhite" stroke="antiquewhite" points="1104,-612 909,-612 909,-576 1104,-576 1104,-612"/>
<text text-anchor="middle" x="1006.5" y="-590.3" font-family="Times,serif" font-size="14.00">ragger.backend.interface</text>
</g>
<!-- ragger.backend&#45;&gt;ragger.backend.interface -->
<g id="edge2" class="edge">
<title>ragger.backend&#45;&gt;ragger.backend.interface</title>
<path fill="none" stroke="black" d="M911.34,-450.36C1007.84,-450.91 1183.83,-458.34 1223.5,-504 1262.4,-548.77 1186.79,-571.4 1114.39,-582.6"/>
<polygon fill="black" stroke="black" points="1104.2,-584.11 1113.44,-578.19 1109.15,-583.37 1114.09,-582.64 1114.09,-582.64 1114.09,-582.64 1109.15,-583.37 1114.75,-587.09 1104.2,-584.11 1104.2,-584.11"/>
</g>
<!-- ragger.backend.ledgercomm -->
<g id="node4" class="node">
<title>ragger.backend.ledgercomm</title>
<polygon fill="antiquewhite" stroke="antiquewhite" points="957.5,-540 737.5,-540 737.5,-504 957.5,-504 957.5,-540"/>
<text text-anchor="middle" x="847.5" y="-518.3" font-family="Times,serif" font-size="14.00">ragger.backend.ledgercomm</text>
</g>
<!-- ragger.backend&#45;&gt;ragger.backend.ledgercomm -->
<g id="edge3" class="edge">
<title>ragger.backend&#45;&gt;ragger.backend.ledgercomm</title>
<path fill="none" stroke="black" d="M847.5,-468.3C847.5,-476.02 847.5,-485.29 847.5,-493.89"/>
<polygon fill="black" stroke="black" points="847.5,-503.9 843,-493.9 847.5,-498.9 847.5,-493.9 847.5,-493.9 847.5,-493.9 847.5,-498.9 852,-493.9 847.5,-503.9 847.5,-503.9"/>
</g>
<!-- ragger.backend.ledgerwallet -->
<g id="node5" class="node">
<title>ragger.backend.ledgerwallet</title>
<polygon fill="antiquewhite" stroke="antiquewhite" points="1215,-540 994,-540 994,-504 1215,-504 1215,-540"/>
<text text-anchor="middle" x="1104.5" y="-518.3" font-family="Times,serif" font-size="14.00">ragger.backend.ledgerwallet</text>
</g>
<!-- ragger.backend&#45;&gt;ragger.backend.ledgerwallet -->
<g id="edge4" class="edge">
<title>ragger.backend&#45;&gt;ragger.backend.ledgerwallet</title>
<path fill="none" stroke="black" d="M910.04,-468.03C946.73,-478.03 993.26,-490.7 1031.61,-501.15"/>
<polygon fill="black" stroke="black" points="1041.68,-503.89 1030.85,-505.6 1036.85,-502.58 1032.03,-501.26 1032.03,-501.26 1032.03,-501.26 1036.85,-502.58 1033.21,-496.92 1041.68,-503.89 1041.68,-503.89"/>
</g>
<!-- ragger.backend.speculos -->
<g id="node6" class="node">
<title>ragger.backend.speculos</title>
<polygon fill="antiquewhite" stroke="antiquewhite" points="719,-540 526,-540 526,-504 719,-504 719,-540"/>
<text text-anchor="middle" x="622.5" y="-518.3" font-family="Times,serif" font-size="14.00">ragger.backend.speculos</text>
</g>
<!-- ragger.backend&#45;&gt;ragger.backend.speculos -->
<g id="edge5" class="edge">
<title>ragger.backend&#45;&gt;ragger.backend.speculos</title>
<path fill="none" stroke="black" d="M792.75,-468.03C760.9,-477.94 720.58,-490.49 687.17,-500.88"/>
<polygon fill="black" stroke="black" points="677.5,-503.89 685.71,-496.62 682.27,-502.4 687.05,-500.92 687.05,-500.92 687.05,-500.92 682.27,-502.4 688.38,-505.22 677.5,-503.89 677.5,-503.89"/>
</g>
<!-- ragger.firmware -->
<g id="node14" class="node">
<title>ragger.firmware</title>
<polygon fill="cadetblue" stroke="cadetblue" points="688.5,-684 556.5,-684 556.5,-648 688.5,-648 688.5,-684"/>
<text text-anchor="middle" x="622.5" y="-662.3" font-family="Times,serif" font-size="14.00">ragger.firmware</text>
</g>
<!-- ragger.backend.interface&#45;&gt;ragger.firmware -->
<g id="edge6" class="edge">
<title>ragger.backend.interface&#45;&gt;ragger.firmware</title>
<path fill="none" stroke="black" d="M913.05,-612.03C847.23,-624.03 760.21,-639.9 698.61,-651.13"/>
<polygon fill="black" stroke="black" points="688.57,-652.96 697.6,-646.74 693.49,-652.06 698.41,-651.16 698.41,-651.16 698.41,-651.16 693.49,-652.06 699.21,-655.59 688.57,-652.96 688.57,-652.96"/>
</g>
<!-- ragger.backend.interface&#45;&gt;ragger.logger -->
<g id="edge7" class="edge">
<title>ragger.backend.interface&#45;&gt;ragger.logger</title>
<path fill="none" stroke="black" d="M908.88,-610.9C905.72,-611.29 902.58,-611.66 899.5,-612 619.08,-643.23 282.77,-657.77 142.28,-662.82"/>
<polygon fill="black" stroke="black" points="132.1,-663.18 141.94,-658.33 137.1,-663 142.1,-662.83 142.1,-662.83 142.1,-662.83 137.1,-663 142.26,-667.32 132.1,-663.18 132.1,-663.18"/>
</g>
<!-- ragger.utils -->
<g id="node27" class="node">
<title>ragger.utils</title>
<polygon fill="chocolate" stroke="chocolate" points="1291,-684 1192,-684 1192,-648 1291,-648 1291,-684"/>
<text text-anchor="middle" x="1241.5" y="-662.3" font-family="Times,serif" font-size="14.00">ragger.utils</text>
</g>
<!-- ragger.backend.interface&#45;&gt;ragger.utils -->
<g id="edge8" class="edge">
<title>ragger.backend.interface&#45;&gt;ragger.utils</title>
<path fill="none" stroke="black" d="M1063.69,-612.03C1099.45,-622.69 1145.45,-636.39 1181.7,-647.19"/>
<polygon fill="black" stroke="black" points="1191.64,-650.15 1180.78,-651.61 1186.85,-648.72 1182.06,-647.29 1182.06,-647.29 1182.06,-647.29 1186.85,-648.72 1183.35,-642.98 1191.64,-650.15 1191.64,-650.15"/>
</g>
<!-- ragger.backend.ledgercomm&#45;&gt;ragger.backend.interface -->
<g id="edge9" class="edge">
<title>ragger.backend.ledgercomm&#45;&gt;ragger.backend.interface</title>
<path fill="none" stroke="black" d="M886.4,-540.12C908.13,-549.69 935.4,-561.7 958.46,-571.85"/>
<polygon fill="black" stroke="black" points="967.73,-575.93 956.77,-576.02 963.15,-573.92 958.58,-571.9 958.58,-571.9 958.58,-571.9 963.15,-573.92 960.39,-567.78 967.73,-575.93 967.73,-575.93"/>
</g>
<!-- ragger.backend.ledgercomm&#45;&gt;ragger.backend.ledgercomm -->
<g id="edge10" class="edge">
<title>ragger.backend.ledgercomm&#45;&gt;ragger.backend.ledgercomm</title>
<path fill="none" stroke="black" d="M957.65,-510.99C968.56,-513.2 975.5,-516.87 975.5,-522 975.5,-525.37 972.51,-528.11 967.37,-530.21"/>
<polygon fill="black" stroke="black" points="957.65,-533.01 966.02,-525.92 962.46,-531.63 967.26,-530.25 967.26,-530.25 967.26,-530.25 962.46,-531.63 968.51,-534.57 957.65,-533.01 957.65,-533.01"/>
</g>
<!-- ragger.error -->
<g id="node13" class="node">
<title>ragger.error</title>
<polygon fill="aliceblue" stroke="aliceblue" points="890.5,-612 786.5,-612 786.5,-576 890.5,-576 890.5,-612"/>
<text text-anchor="middle" x="838.5" y="-590.3" font-family="Times,serif" font-size="14.00">ragger.error</text>
</g>
<!-- ragger.backend.ledgercomm&#45;&gt;ragger.error -->
<g id="edge11" class="edge">
<title>ragger.backend.ledgercomm&#45;&gt;ragger.error</title>
<path fill="none" stroke="black" d="M845.28,-540.3C844.28,-548.02 843.09,-557.29 841.99,-565.89"/>
<polygon fill="black" stroke="black" points="840.7,-575.9 837.51,-565.4 841.34,-570.94 841.97,-565.98 841.97,-565.98 841.97,-565.98 841.34,-570.94 846.44,-566.55 840.7,-575.9 840.7,-575.9"/>
</g>
<!-- ragger.backend.ledgercomm&#45;&gt;ragger.firmware -->
<g id="edge12" class="edge">
<title>ragger.backend.ledgercomm&#45;&gt;ragger.firmware</title>
<path fill="none" stroke="black" d="M820.36,-540.13C779.82,-565.72 703.39,-613.95 658.31,-642.4"/>
<polygon fill="black" stroke="black" points="649.74,-647.81 655.79,-638.67 653.96,-645.14 658.19,-642.47 658.19,-642.47 658.19,-642.47 653.96,-645.14 660.59,-646.28 649.74,-647.81 649.74,-647.81"/>
</g>
<!-- ragger.backend.ledgercomm&#45;&gt;ragger.utils -->
<g id="edge13" class="edge">
<title>ragger.backend.ledgercomm&#45;&gt;ragger.utils</title>
<path fill="none" stroke="black" d="M955.45,-540.06C1015.74,-550.47 1084.26,-564.04 1112.5,-576 1150.77,-592.21 1189.29,-620.76 1214.14,-641.15"/>
<polygon fill="black" stroke="black" points="1222.03,-647.72 1211.46,-644.78 1218.19,-644.52 1214.35,-641.32 1214.35,-641.32 1214.35,-641.32 1218.19,-644.52 1217.23,-637.86 1222.03,-647.72 1222.03,-647.72"/>
</g>
<!-- ragger.backend.ledgerwallet&#45;&gt;ragger.backend.interface -->
<g id="edge14" class="edge">
<title>ragger.backend.ledgerwallet&#45;&gt;ragger.backend.interface</title>
<path fill="none" stroke="black" d="M1080.53,-540.12C1067.95,-549.11 1052.37,-560.24 1038.75,-569.97"/>
<polygon fill="black" stroke="black" points="1030.57,-575.81 1036.09,-566.34 1034.63,-572.9 1038.7,-570 1038.7,-570 1038.7,-570 1034.63,-572.9 1041.32,-573.66 1030.57,-575.81 1030.57,-575.81"/>
</g>
<!-- ragger.backend.ledgerwallet&#45;&gt;ragger.error -->
<g id="edge15" class="edge">
<title>ragger.backend.ledgerwallet&#45;&gt;ragger.error</title>
<path fill="none" stroke="black" d="M1037.01,-540.11C999.42,-549.72 951.52,-562.09 900.6,-575.72"/>
<polygon fill="black" stroke="black" points="890.73,-578.38 899.22,-571.44 895.55,-577.08 900.38,-575.78 900.38,-575.78 900.38,-575.78 895.55,-577.08 901.55,-580.13 890.73,-578.38 890.73,-578.38"/>
</g>
<!-- ragger.backend.ledgerwallet&#45;&gt;ragger.utils -->
<g id="edge16" class="edge">
<title>ragger.backend.ledgerwallet&#45;&gt;ragger.utils</title>
<path fill="none" stroke="black" d="M1132.48,-540.23C1146.81,-549.79 1164.02,-562.46 1177.5,-576 1196.54,-595.13 1214.12,-620.37 1226.02,-639.09"/>
<polygon fill="black" stroke="black" points="1231.39,-647.69 1222.28,-641.59 1228.74,-643.45 1226.1,-639.21 1226.1,-639.21 1226.1,-639.21 1228.74,-643.45 1229.92,-636.83 1231.39,-647.69 1231.39,-647.69"/>
</g>
<!-- ragger.backend.speculos&#45;&gt;ragger.backend.interface -->
<g id="edge17" class="edge">
<title>ragger.backend.speculos&#45;&gt;ragger.backend.interface</title>
<path fill="none" stroke="black" d="M715.95,-540.03C772.5,-550.34 844.71,-563.51 903,-574.13"/>
<polygon fill="black" stroke="black" points="912.97,-575.95 902.32,-578.58 908.05,-575.05 903.13,-574.16 903.13,-574.16 903.13,-574.16 908.05,-575.05 903.94,-569.73 912.97,-575.95 912.97,-575.95"/>
</g>
<!-- ragger.backend.speculos&#45;&gt;ragger.error -->
<g id="edge18" class="edge">
<title>ragger.backend.speculos&#45;&gt;ragger.error</title>
<path fill="none" stroke="black" d="M675.06,-540.03C705.73,-549.97 744.58,-562.56 776.71,-572.98"/>
<polygon fill="black" stroke="black" points="786.45,-576.13 775.55,-577.33 781.69,-574.59 776.94,-573.05 776.94,-573.05 776.94,-573.05 781.69,-574.59 778.32,-568.77 786.45,-576.13 786.45,-576.13"/>
</g>
<!-- ragger.backend.speculos&#45;&gt;ragger.firmware -->
<g id="edge19" class="edge">
<title>ragger.backend.speculos&#45;&gt;ragger.firmware</title>
<path fill="none" stroke="black" d="M622.5,-540.13C622.5,-564.33 622.5,-608.79 622.5,-637.61"/>
<polygon fill="black" stroke="black" points="622.5,-647.81 618,-637.81 622.5,-642.81 622.5,-637.81 622.5,-637.81 622.5,-637.81 622.5,-642.81 627,-637.81 622.5,-647.81 622.5,-647.81"/>
</g>
<!-- ragger.backend.speculos&#45;&gt;ragger.utils -->
<g id="edge20" class="edge">
<title>ragger.backend.speculos&#45;&gt;ragger.utils</title>
<path fill="none" stroke="black" d="M645.24,-540.08C674.26,-560.89 726.8,-595.34 777.5,-612 917.12,-657.88 1091.65,-665.36 1181.65,-665.82"/>
<polygon fill="black" stroke="black" points="1191.67,-665.84 1181.66,-670.32 1186.67,-665.83 1181.67,-665.82 1181.67,-665.82 1181.67,-665.82 1186.67,-665.83 1181.69,-661.32 1191.67,-665.84 1191.67,-665.84"/>
</g>
<!-- ragger.bip -->
<g id="node7" class="node">
<title>ragger.bip</title>
<polygon fill="aquamarine" stroke="aquamarine" points="1643.5,-36 1553.5,-36 1553.5,0 1643.5,0 1643.5,-36"/>
<text text-anchor="middle" x="1598.5" y="-14.3" font-family="Times,serif" font-size="14.00">ragger.bip</text>
</g>
<!-- ragger.bip.path -->
<g id="node8" class="node">
<title>ragger.bip.path</title>
<polygon fill="aquamarine" stroke="aquamarine" points="1589,-108 1462,-108 1462,-72 1589,-72 1589,-108"/>
<text text-anchor="middle" x="1525.5" y="-86.3" font-family="Times,serif" font-size="14.00">ragger.bip.path</text>
</g>
<!-- ragger.bip&#45;&gt;ragger.bip.path -->
<g id="edge21" class="edge">
<title>ragger.bip&#45;&gt;ragger.bip.path</title>
<path fill="none" stroke="black" d="M1580.46,-36.3C1571.44,-44.95 1560.38,-55.55 1550.56,-64.97"/>
<polygon fill="black" stroke="black" points="1543.34,-71.9 1547.44,-61.73 1546.95,-68.44 1550.56,-64.97 1550.56,-64.97 1550.56,-64.97 1546.95,-68.44 1553.67,-68.22 1543.34,-71.9 1543.34,-71.9"/>
</g>
<!-- ragger.bip.seed -->
<g id="node9" class="node">
<title>ragger.bip.seed</title>
<polygon fill="aquamarine" stroke="aquamarine" points="1735.5,-108 1607.5,-108 1607.5,-72 1735.5,-72 1735.5,-108"/>
<text text-anchor="middle" x="1671.5" y="-86.3" font-family="Times,serif" font-size="14.00">ragger.bip.seed</text>
</g>
<!-- ragger.bip&#45;&gt;ragger.bip.seed -->
<g id="edge22" class="edge">
<title>ragger.bip&#45;&gt;ragger.bip.seed</title>
<path fill="none" stroke="black" d="M1616.54,-36.3C1625.56,-44.95 1636.62,-55.55 1646.44,-64.97"/>
<polygon fill="black" stroke="black" points="1653.66,-71.9 1643.33,-68.22 1650.05,-68.44 1646.44,-64.97 1646.44,-64.97 1646.44,-64.97 1650.05,-68.44 1649.56,-61.73 1653.66,-71.9 1653.66,-71.9"/>
</g>
<!-- ragger.conftest -->
<g id="node10" class="node">
<title>ragger.conftest</title>
<polygon fill="burlywood" stroke="burlywood" points="1787,-36 1662,-36 1662,0 1787,0 1787,-36"/>
<text text-anchor="middle" x="1724.5" y="-14.3" font-family="Times,serif" font-size="14.00">ragger.conftest</text>
</g>
<!-- ragger.conftest.base_conftest -->
<g id="node11" class="node">
<title>ragger.conftest.base_conftest</title>
<polygon fill="burlywood" stroke="burlywood" points="1092,-36 865,-36 865,0 1092,0 1092,-36"/>
<text text-anchor="middle" x="978.5" y="-14.3" font-family="Times,serif" font-size="14.00">ragger.conftest.base_conftest</text>
</g>
<!-- ragger.conftest.base_conftest&#45;&gt;ragger.backend -->
<g id="edge23" class="edge">
<title>ragger.conftest.base_conftest&#45;&gt;ragger.backend</title>
<path fill="none" stroke="black" d="M895.36,-36.05C831.26,-54.62 753.5,-91.48 753.5,-161 753.5,-161 753.5,-161 753.5,-307 753.5,-354.83 791.04,-398.92 818.68,-424.89"/>
<polygon fill="black" stroke="black" points="826.17,-431.73 815.75,-428.31 822.48,-428.36 818.78,-424.99 818.78,-424.99 818.78,-424.99 822.48,-428.36 821.81,-421.66 826.17,-431.73 826.17,-431.73"/>
</g>
<!-- ragger.conftest.base_conftest&#45;&gt;ragger.firmware -->
<g id="edge24" class="edge">
<title>ragger.conftest.base_conftest&#45;&gt;ragger.firmware</title>
<path fill="none" stroke="black" d="M1078.08,-36.09C1190.37,-58.25 1357.5,-101.27 1357.5,-161 1357.5,-161 1357.5,-161 1357.5,-523 1357.5,-595.24 1289.75,-588.33 1221.5,-612 1126.9,-644.81 837.75,-658.21 698.72,-662.86"/>
<polygon fill="black" stroke="black" points="688.57,-663.2 698.42,-658.37 693.57,-663.03 698.57,-662.87 698.57,-662.87 698.57,-662.87 693.57,-663.03 698.71,-667.37 688.57,-663.2 688.57,-663.2"/>
</g>
<!-- ragger.conftest.base_conftest&#45;&gt;ragger.logger -->
<g id="edge25" class="edge">
<title>ragger.conftest.base_conftest&#45;&gt;ragger.logger</title>
<path fill="none" stroke="black" d="M864.61,-25.59C625.59,-40.94 93.5,-83.78 93.5,-161 93.5,-161 93.5,-161 93.5,-523 93.5,-563.1 86.35,-609.08 81.06,-637.58"/>
<polygon fill="black" stroke="black" points="79.14,-647.6 76.6,-636.93 80.08,-642.69 81.02,-637.78 81.02,-637.78 81.02,-637.78 80.08,-642.69 85.44,-638.62 79.14,-647.6 79.14,-647.6"/>
</g>
<!-- ragger.navigator -->
<g id="node23" class="node">
<title>ragger.navigator</title>
<polygon fill="chartreuse" stroke="chartreuse" points="1046.5,-108 910.5,-108 910.5,-72 1046.5,-72 1046.5,-108"/>
<text text-anchor="middle" x="978.5" y="-86.3" font-family="Times,serif" font-size="14.00">ragger.navigator</text>
</g>
<!-- ragger.conftest.base_conftest&#45;&gt;ragger.navigator -->
<g id="edge26" class="edge">
<title>ragger.conftest.base_conftest&#45;&gt;ragger.navigator</title>
<path fill="none" stroke="black" d="M978.5,-36.3C978.5,-44.02 978.5,-53.29 978.5,-61.89"/>
<polygon fill="black" stroke="black" points="978.5,-71.9 974,-61.9 978.5,-66.9 978.5,-61.9 978.5,-61.9 978.5,-61.9 978.5,-66.9 983,-61.9 978.5,-71.9 978.5,-71.9"/>
</g>
<!-- ragger.conftest.base_conftest&#45;&gt;ragger.utils -->
<g id="edge27" class="edge">
<title>ragger.conftest.base_conftest&#45;&gt;ragger.utils</title>
<path fill="none" stroke="black" d="M1092,-24.22C1191.06,-30.59 1325.89,-44.15 1371.5,-72 1412.64,-97.12 1433.5,-112.79 1433.5,-161 1433.5,-161 1433.5,-161 1433.5,-523 1433.5,-567.32 1421.7,-582.63 1388.5,-612 1364.15,-633.55 1330.37,-646.54 1301.34,-654.26"/>
<polygon fill="black" stroke="black" points="1291.29,-656.77 1299.89,-649.98 1296.14,-655.56 1300.99,-654.35 1300.99,-654.35 1300.99,-654.35 1296.14,-655.56 1302.08,-658.71 1291.29,-656.77 1291.29,-656.77"/>
</g>
<!-- ragger.conftest.configuration -->
<g id="node12" class="node">
<title>ragger.conftest.configuration</title>
<polygon fill="burlywood" stroke="burlywood" points="2029.5,-36 1805.5,-36 1805.5,0 2029.5,0 2029.5,-36"/>
<text text-anchor="middle" x="1917.5" y="-14.3" font-family="Times,serif" font-size="14.00">ragger.conftest.configuration</text>
</g>
<!-- ragger.firmware.structs -->
<g id="node20" class="node">
<title>ragger.firmware.structs</title>
<polygon fill="cadetblue" stroke="cadetblue" points="595,-756 408,-756 408,-720 595,-720 595,-756"/>
<text text-anchor="middle" x="501.5" y="-734.3" font-family="Times,serif" font-size="14.00">ragger.firmware.structs</text>
</g>
<!-- ragger.firmware&#45;&gt;ragger.firmware.structs -->
<g id="edge28" class="edge">
<title>ragger.firmware&#45;&gt;ragger.firmware.structs</title>
<path fill="none" stroke="black" d="M592.9,-684.12C576.93,-693.36 557.04,-704.87 539.89,-714.79"/>
<polygon fill="black" stroke="black" points="531.21,-719.81 537.62,-710.91 535.54,-717.31 539.87,-714.8 539.87,-714.8 539.87,-714.8 535.54,-717.31 542.12,-718.7 531.21,-719.81 531.21,-719.81"/>
</g>
<!-- ragger.firmware.versions -->
<g id="node21" class="node">
<title>ragger.firmware.versions</title>
<polygon fill="cadetblue" stroke="cadetblue" points="600,-828 403,-828 403,-792 600,-792 600,-828"/>
<text text-anchor="middle" x="501.5" y="-806.3" font-family="Times,serif" font-size="14.00">ragger.firmware.versions</text>
</g>
<!-- ragger.firmware&#45;&gt;ragger.firmware.versions -->
<g id="edge29" class="edge">
<title>ragger.firmware&#45;&gt;ragger.firmware.versions</title>
<path fill="none" stroke="black" d="M623,-684.18C622.7,-703.53 619.49,-735.01 603.5,-756 593.34,-769.34 578.85,-779.64 563.98,-787.45"/>
<polygon fill="black" stroke="black" points="554.7,-792 561.7,-783.55 559.19,-789.79 563.68,-787.59 563.68,-787.59 563.68,-787.59 559.19,-789.79 565.66,-791.63 554.7,-792 554.7,-792"/>
</g>
<!-- ragger.firmware.stax -->
<g id="node15" class="node">
<title>ragger.firmware.stax</title>
<polygon fill="cadetblue" stroke="cadetblue" points="688,-252 521,-252 521,-216 688,-216 688,-252"/>
<text text-anchor="middle" x="604.5" y="-230.3" font-family="Times,serif" font-size="14.00">ragger.firmware.stax</text>
</g>
<!-- ragger.firmware.stax.screen -->
<g id="node18" class="node">
<title>ragger.firmware.stax.screen</title>
<polygon fill="cadetblue" stroke="cadetblue" points="675.5,-324 457.5,-324 457.5,-288 675.5,-288 675.5,-324"/>
<text text-anchor="middle" x="566.5" y="-302.3" font-family="Times,serif" font-size="14.00">ragger.firmware.stax.screen</text>
</g>
<!-- ragger.firmware.stax&#45;&gt;ragger.firmware.stax.screen -->
<g id="edge30" class="edge">
<title>ragger.firmware.stax&#45;&gt;ragger.firmware.stax.screen</title>
<path fill="none" stroke="black" d="M595.11,-252.3C590.74,-260.36 585.44,-270.11 580.6,-279.02"/>
<polygon fill="black" stroke="black" points="575.79,-287.9 576.6,-276.96 578.17,-283.5 580.56,-279.11 580.56,-279.11 580.56,-279.11 578.17,-283.5 584.51,-281.25 575.79,-287.9 575.79,-287.9"/>
</g>
<!-- ragger.firmware.stax.layouts -->
<g id="node16" class="node">
<title>ragger.firmware.stax.layouts</title>
<polygon fill="cadetblue" stroke="cadetblue" points="427,-396 204,-396 204,-360 427,-360 427,-396"/>
<text text-anchor="middle" x="315.5" y="-374.3" font-family="Times,serif" font-size="14.00">ragger.firmware.stax.layouts</text>
</g>
<!-- ragger.firmware.stax.layouts&#45;&gt;ragger.backend -->
<g id="edge31" class="edge">
<title>ragger.firmware.stax.layouts&#45;&gt;ragger.backend</title>
<path fill="none" stroke="black" d="M427.24,-394.75C430.36,-395.17 433.45,-395.59 436.5,-396 554.4,-411.88 691.46,-429.36 773.75,-439.74"/>
<polygon fill="black" stroke="black" points="783.75,-441.01 773.27,-444.22 778.79,-440.38 773.83,-439.76 773.83,-439.76 773.83,-439.76 778.79,-440.38 774.39,-435.29 783.75,-441.01 783.75,-441.01"/>
</g>
<!-- ragger.firmware.stax.layouts&#45;&gt;ragger.firmware -->
<g id="edge32" class="edge">
<title>ragger.firmware.stax.layouts&#45;&gt;ragger.firmware</title>
<path fill="none" stroke="black" d="M380.38,-396.01C402.07,-404.16 425.13,-415.77 442.5,-432 507.87,-493.05 471.46,-546.62 532.5,-612 544.08,-624.4 559.22,-634.82 573.77,-643.05"/>
<polygon fill="black" stroke="black" points="582.72,-647.88 571.78,-647.09 578.32,-645.5 573.92,-643.13 573.92,-643.13 573.92,-643.13 578.32,-645.5 576.06,-639.17 582.72,-647.88 582.72,-647.88"/>
</g>
<!-- ragger.firmware.stax.positions -->
<g id="node17" class="node">
<title>ragger.firmware.stax.positions</title>
<polygon fill="cadetblue" stroke="cadetblue" points="433.5,-468 197.5,-468 197.5,-432 433.5,-432 433.5,-468"/>
<text text-anchor="middle" x="315.5" y="-446.3" font-family="Times,serif" font-size="14.00">ragger.firmware.stax.positions</text>
</g>
<!-- ragger.firmware.stax.layouts&#45;&gt;ragger.firmware.stax.positions -->
<g id="edge33" class="edge">
<title>ragger.firmware.stax.layouts&#45;&gt;ragger.firmware.stax.positions</title>
<path fill="none" stroke="black" d="M315.5,-396.3C315.5,-404.02 315.5,-413.29 315.5,-421.89"/>
<polygon fill="black" stroke="black" points="315.5,-431.9 311,-421.9 315.5,-426.9 315.5,-421.9 315.5,-421.9 315.5,-421.9 315.5,-426.9 320,-421.9 315.5,-431.9 315.5,-431.9"/>
</g>
<!-- ragger.firmware.stax.positions&#45;&gt;ragger.firmware.versions -->
<g id="edge34" class="edge">
<title>ragger.firmware.stax.positions&#45;&gt;ragger.firmware.versions</title>
<path fill="none" stroke="black" d="M315.55,-468.33C316.59,-518.57 325.98,-666.44 398.5,-756 409.34,-769.39 424.47,-779.76 439.79,-787.62"/>
<polygon fill="black" stroke="black" points="448.8,-791.96 437.84,-791.68 444.3,-789.79 439.8,-787.62 439.8,-787.62 439.8,-787.62 444.3,-789.79 441.75,-783.57 448.8,-791.96 448.8,-791.96"/>
</g>
<!-- ragger.firmware.stax.screen&#45;&gt;ragger.backend -->
<g id="edge35" class="edge">
<title>ragger.firmware.stax.screen&#45;&gt;ragger.backend</title>
<path fill="none" stroke="black" d="M618.57,-324.01C643.07,-333.06 672.18,-345.35 696.5,-360 717.85,-372.86 718.61,-382.41 739.5,-396 757.7,-407.84 778.92,-418.8 797.72,-427.64"/>
<polygon fill="black" stroke="black" points="807.01,-431.94 796.04,-431.83 802.47,-429.84 797.93,-427.74 797.93,-427.74 797.93,-427.74 802.47,-429.84 799.82,-423.66 807.01,-431.94 807.01,-431.94"/>
</g>
<!-- ragger.firmware.stax.screen&#45;&gt;ragger.firmware -->
<g id="edge36" class="edge">
<title>ragger.firmware.stax.screen&#45;&gt;ragger.firmware</title>
<path fill="none" stroke="black" d="M457.47,-307.97C360.75,-311.33 229.53,-322.87 194.5,-360 161.51,-394.97 162.52,-427.55 188.5,-468 267.6,-591.13 444.55,-638.15 546.39,-655.46"/>
<polygon fill="black" stroke="black" points="556.31,-657.09 545.71,-659.91 551.38,-656.28 546.44,-655.47 546.44,-655.47 546.44,-655.47 551.38,-656.28 547.17,-651.03 556.31,-657.09 556.31,-657.09"/>
</g>
<!-- ragger.firmware.stax.screen&#45;&gt;ragger.firmware.stax.layouts -->
<g id="edge37" class="edge">
<title>ragger.firmware.stax.screen&#45;&gt;ragger.firmware.stax.layouts</title>
<path fill="none" stroke="black" d="M505.42,-324.03C469.59,-334.03 424.14,-346.7 386.69,-357.15"/>
<polygon fill="black" stroke="black" points="376.85,-359.89 385.28,-352.87 381.67,-358.55 386.49,-357.2 386.49,-357.2 386.49,-357.2 381.67,-358.55 387.7,-361.54 376.85,-359.89 376.85,-359.89"/>
</g>
<!-- ragger.firmware.stax.use_cases -->
<g id="node19" class="node">
<title>ragger.firmware.stax.use_cases</title>
<polygon fill="cadetblue" stroke="cadetblue" points="687.5,-396 445.5,-396 445.5,-360 687.5,-360 687.5,-396"/>
<text text-anchor="middle" x="566.5" y="-374.3" font-family="Times,serif" font-size="14.00">ragger.firmware.stax.use_cases</text>
</g>
<!-- ragger.firmware.stax.screen&#45;&gt;ragger.firmware.stax.use_cases -->
<g id="edge38" class="edge">
<title>ragger.firmware.stax.screen&#45;&gt;ragger.firmware.stax.use_cases</title>
<path fill="none" stroke="black" d="M566.5,-324.3C566.5,-332.02 566.5,-341.29 566.5,-349.89"/>
<polygon fill="black" stroke="black" points="566.5,-359.9 562,-349.9 566.5,-354.9 566.5,-349.9 566.5,-349.9 566.5,-349.9 566.5,-354.9 571,-349.9 566.5,-359.9 566.5,-359.9"/>
</g>
<!-- ragger.firmware.stax.use_cases&#45;&gt;ragger.backend -->
<g id="edge39" class="edge">
<title>ragger.firmware.stax.use_cases&#45;&gt;ragger.backend</title>
<path fill="none" stroke="black" d="M634.88,-396.03C676.93,-406.51 730.8,-419.93 773.8,-430.64"/>
<polygon fill="black" stroke="black" points="783.64,-433.09 772.85,-435.04 778.79,-431.88 773.94,-430.67 773.94,-430.67 773.94,-430.67 778.79,-431.88 775.02,-426.31 783.64,-433.09 783.64,-433.09"/>
</g>
<!-- ragger.firmware.stax.use_cases&#45;&gt;ragger.firmware -->
<g id="edge40" class="edge">
<title>ragger.firmware.stax.use_cases&#45;&gt;ragger.firmware</title>
<path fill="none" stroke="black" d="M553.78,-396.11C533.4,-425.73 497.55,-488.34 516.5,-540 531.69,-581.4 567.33,-618.48 593.1,-641.3"/>
<polygon fill="black" stroke="black" points="600.75,-647.92 590.24,-644.78 596.96,-644.65 593.18,-641.37 593.18,-641.37 593.18,-641.37 596.96,-644.65 596.13,-637.97 600.75,-647.92 600.75,-647.92"/>
</g>
<!-- ragger.firmware.stax.use_cases&#45;&gt;ragger.firmware.stax.positions -->
<g id="edge41" class="edge">
<title>ragger.firmware.stax.use_cases&#45;&gt;ragger.firmware.stax.positions</title>
<path fill="none" stroke="black" d="M505.42,-396.03C469.59,-406.03 424.14,-418.7 386.69,-429.15"/>
<polygon fill="black" stroke="black" points="376.85,-431.89 385.28,-424.87 381.67,-430.55 386.49,-429.2 386.49,-429.2 386.49,-429.2 381.67,-430.55 387.7,-433.54 376.85,-431.89 376.85,-431.89"/>
</g>
<!-- ragger.firmware.structs&#45;&gt;ragger.firmware.versions -->
<g id="edge42" class="edge">
<title>ragger.firmware.structs&#45;&gt;ragger.firmware.versions</title>
<path fill="none" stroke="black" d="M501.5,-756.3C501.5,-764.02 501.5,-773.29 501.5,-781.89"/>
<polygon fill="black" stroke="black" points="501.5,-791.9 497,-781.9 501.5,-786.9 501.5,-781.9 501.5,-781.9 501.5,-781.9 501.5,-786.9 506,-781.9 501.5,-791.9 501.5,-791.9"/>
</g>
<!-- ragger.navigator.nano_navigator -->
<g id="node24" class="node">
<title>ragger.navigator.nano_navigator</title>
<polygon fill="chartreuse" stroke="chartreuse" points="1329.5,-324 1081.5,-324 1081.5,-288 1329.5,-288 1329.5,-324"/>
<text text-anchor="middle" x="1205.5" y="-302.3" font-family="Times,serif" font-size="14.00">ragger.navigator.nano_navigator</text>
</g>
<!-- ragger.navigator&#45;&gt;ragger.navigator.nano_navigator -->
<g id="edge43" class="edge">
<title>ragger.navigator&#45;&gt;ragger.navigator.nano_navigator</title>
<path fill="none" stroke="black" d="M1013.19,-108.22C1030.4,-117.59 1050.99,-130.1 1067.5,-144 1116.88,-185.56 1163.35,-245.72 1187.74,-279.5"/>
<polygon fill="black" stroke="black" points="1193.73,-287.89 1184.26,-282.37 1190.83,-283.82 1187.92,-279.75 1187.92,-279.75 1187.92,-279.75 1190.83,-283.82 1191.58,-277.14 1193.73,-287.89 1193.73,-287.89"/>
</g>
<!-- ragger.navigator.navigator -->
<g id="node25" class="node">
<title>ragger.navigator.navigator</title>
<polygon fill="chartreuse" stroke="chartreuse" points="1291,-396 1084,-396 1084,-360 1291,-360 1291,-396"/>
<text text-anchor="middle" x="1187.5" y="-374.3" font-family="Times,serif" font-size="14.00">ragger.navigator.navigator</text>
</g>
<!-- ragger.navigator&#45;&gt;ragger.navigator.navigator -->
<g id="edge44" class="edge">
<title>ragger.navigator&#45;&gt;ragger.navigator.navigator</title>
<path fill="none" stroke="black" d="M1002.48,-108.11C1013.86,-117.46 1026.65,-129.98 1034.5,-144 1074.45,-215.34 1021.5,-260.09 1072.5,-324 1083.45,-337.72 1098.75,-348.03 1114.63,-355.74"/>
<polygon fill="black" stroke="black" points="1124.01,-359.98 1113.05,-359.96 1119.46,-357.92 1114.9,-355.86 1114.9,-355.86 1114.9,-355.86 1119.46,-357.92 1116.75,-351.76 1124.01,-359.98 1124.01,-359.98"/>
</g>
<!-- ragger.navigator.stax_navigator -->
<g id="node26" class="node">
<title>ragger.navigator.stax_navigator</title>
<polygon fill="chartreuse" stroke="chartreuse" points="1025.5,-180 781.5,-180 781.5,-144 1025.5,-144 1025.5,-180"/>
<text text-anchor="middle" x="903.5" y="-158.3" font-family="Times,serif" font-size="14.00">ragger.navigator.stax_navigator</text>
</g>
<!-- ragger.navigator&#45;&gt;ragger.navigator.stax_navigator -->
<g id="edge45" class="edge">
<title>ragger.navigator&#45;&gt;ragger.navigator.stax_navigator</title>
<path fill="none" stroke="black" d="M954.04,-108.3C943.99,-116.86 932.58,-127.34 923.08,-136.7"/>
<polygon fill="black" stroke="black" points="915.93,-143.9 919.78,-133.63 919.45,-140.35 922.98,-136.8 922.98,-136.8 922.98,-136.8 919.45,-140.35 926.17,-139.97 915.93,-143.9 915.93,-143.9"/>
</g>
<!-- ragger.navigator.nano_navigator&#45;&gt;ragger.backend -->
<g id="edge46" class="edge">
<title>ragger.navigator.nano_navigator&#45;&gt;ragger.backend</title>
<path fill="none" stroke="black" d="M1162.32,-324.13C1096.51,-350.23 971.29,-399.9 900.22,-428.09"/>
<polygon fill="black" stroke="black" points="890.56,-431.92 898.19,-424.05 895.21,-430.08 899.85,-428.23 899.85,-428.23 899.85,-428.23 895.21,-430.08 901.51,-432.42 890.56,-431.92 890.56,-431.92"/>
</g>
<!-- ragger.navigator.nano_navigator&#45;&gt;ragger.firmware -->
<g id="edge47" class="edge">
<title>ragger.navigator.nano_navigator&#45;&gt;ragger.firmware</title>
<path fill="none" stroke="black" d="M1257.15,-324.04C1273.64,-332.2 1290.05,-343.82 1299.5,-360 1307.57,-373.82 1301.51,-380.13 1299.5,-396 1285.67,-505.38 1279.09,-569.17 1177.5,-612 1093.16,-647.56 830.52,-659.5 699.06,-663.32"/>
<polygon fill="black" stroke="black" points="688.68,-663.61 698.55,-658.83 693.67,-663.47 698.67,-663.33 698.67,-663.33 698.67,-663.33 693.67,-663.47 698.8,-667.83 688.68,-663.61 688.68,-663.61"/>
</g>
<!-- ragger.navigator.nano_navigator&#45;&gt;ragger.navigator.navigator -->
<g id="edge48" class="edge">
<title>ragger.navigator.nano_navigator&#45;&gt;ragger.navigator.navigator</title>
<path fill="none" stroke="black" d="M1201.05,-324.3C1199.05,-332.1 1196.63,-341.49 1194.4,-350.17"/>
<polygon fill="black" stroke="black" points="1191.9,-359.9 1190.03,-349.09 1193.14,-355.05 1194.39,-350.21 1194.39,-350.21 1194.39,-350.21 1193.14,-355.05 1198.75,-351.33 1191.9,-359.9 1191.9,-359.9"/>
</g>
<!-- ragger.navigator.navigator&#45;&gt;ragger.backend -->
<g id="edge49" class="edge">
<title>ragger.navigator.navigator&#45;&gt;ragger.backend</title>
<path fill="none" stroke="black" d="M1104.76,-396.03C1048.6,-407.6 975.01,-422.75 920.92,-433.88"/>
<polygon fill="black" stroke="black" points="911.06,-435.91 919.95,-429.49 915.96,-434.91 920.86,-433.9 920.86,-433.9 920.86,-433.9 915.96,-434.91 921.76,-438.3 911.06,-435.91 911.06,-435.91"/>
</g>
<!-- ragger.navigator.navigator&#45;&gt;ragger.firmware -->
<g id="edge50" class="edge">
<title>ragger.navigator.navigator&#45;&gt;ragger.firmware</title>
<path fill="none" stroke="black" d="M1202.85,-396.42C1227.88,-427.05 1271.97,-491.86 1243.5,-540 1209.68,-597.18 1175.87,-592.04 1112.5,-612 1037.36,-635.67 816.81,-652.71 698.9,-660.41"/>
<polygon fill="black" stroke="black" points="688.86,-661.06 698.55,-655.92 693.85,-660.74 698.84,-660.41 698.84,-660.41 698.84,-660.41 693.85,-660.74 699.13,-664.9 688.86,-661.06 688.86,-661.06"/>
</g>
<!-- ragger.navigator.navigator&#45;&gt;ragger.utils -->
<g id="edge51" class="edge">
<title>ragger.navigator.navigator&#45;&gt;ragger.utils</title>
<path fill="none" stroke="black" d="M1238.1,-396.02C1257.77,-404.51 1279.39,-416.36 1295.5,-432 1347.42,-482.41 1354.1,-505.76 1371.5,-576 1375.35,-591.53 1380.43,-598.72 1371.5,-612 1355.64,-635.59 1327.26,-648.68 1301.05,-655.95"/>
<polygon fill="black" stroke="black" points="1291.15,-658.46 1299.74,-651.64 1295.99,-657.23 1300.84,-656 1300.84,-656 1300.84,-656 1295.99,-657.23 1301.95,-660.37 1291.15,-658.46 1291.15,-658.46"/>
</g>
<!-- ragger.navigator.stax_navigator&#45;&gt;ragger.backend -->
<g id="edge52" class="edge">
<title>ragger.navigator.stax_navigator&#45;&gt;ragger.backend</title>
<path fill="none" stroke="black" d="M900.16,-180.03C890.81,-227.81 864.27,-363.38 852.84,-421.73"/>
<polygon fill="black" stroke="black" points="850.89,-431.69 848.39,-421.02 851.85,-426.79 852.81,-421.88 852.81,-421.88 852.81,-421.88 851.85,-426.79 857.23,-422.74 850.89,-431.69 850.89,-431.69"/>
</g>
<!-- ragger.navigator.stax_navigator&#45;&gt;ragger.firmware -->
<g id="edge53" class="edge">
<title>ragger.navigator.stax_navigator&#45;&gt;ragger.firmware</title>
<path fill="none" stroke="black" d="M781.17,-173.08C563.49,-192.66 131.5,-239.76 131.5,-305 131.5,-305 131.5,-305 131.5,-451 131.5,-629.71 408.24,-660.7 546.19,-665.05"/>
<polygon fill="black" stroke="black" points="556.28,-665.33 546.16,-669.55 551.28,-665.19 546.29,-665.05 546.29,-665.05 546.29,-665.05 551.28,-665.19 546.41,-660.56 556.28,-665.33 556.28,-665.33"/>
</g>
<!-- ragger.navigator.stax_navigator&#45;&gt;ragger.firmware.stax -->
<g id="edge54" class="edge">
<title>ragger.navigator.stax_navigator&#45;&gt;ragger.firmware.stax</title>
<path fill="none" stroke="black" d="M830.74,-180.03C787.34,-190.2 732.1,-203.13 687.07,-213.67"/>
<polygon fill="black" stroke="black" points="677.33,-215.95 686.04,-209.29 682.2,-214.81 687.06,-213.67 687.06,-213.67 687.06,-213.67 682.2,-214.81 688.09,-218.05 677.33,-215.95 677.33,-215.95"/>
</g>
<!-- ragger.navigator.stax_navigator&#45;&gt;ragger.navigator -->
<g id="edge55" class="edge">
<title>ragger.navigator.stax_navigator&#45;&gt;ragger.navigator</title>
<path fill="none" stroke="black" d="M927.72,-143.9C937.76,-135.36 949.17,-124.89 958.7,-115.52"/>
<polygon fill="black" stroke="black" points="965.88,-108.3 962.02,-118.57 962.35,-111.85 958.83,-115.4 958.83,-115.4 958.83,-115.4 962.35,-111.85 955.63,-112.22 965.88,-108.3 965.88,-108.3"/>
</g>
<!-- ragger.utils.misc -->
<g id="node28" class="node">
<title>ragger.utils.misc</title>
<polygon fill="chocolate" stroke="chocolate" points="1310,-756 1173,-756 1173,-720 1310,-720 1310,-756"/>
<text text-anchor="middle" x="1241.5" y="-734.3" font-family="Times,serif" font-size="14.00">ragger.utils.misc</text>
</g>
<!-- ragger.utils&#45;&gt;ragger.utils.misc -->
<g id="edge56" class="edge">
<title>ragger.utils&#45;&gt;ragger.utils.misc</title>
<path fill="none" stroke="black" d="M1241.5,-684.3C1241.5,-692.02 1241.5,-701.29 1241.5,-709.89"/>
<polygon fill="black" stroke="black" points="1241.5,-719.9 1237,-709.9 1241.5,-714.9 1241.5,-709.9 1241.5,-709.9 1241.5,-709.9 1241.5,-714.9 1246,-709.9 1241.5,-719.9 1241.5,-719.9"/>
</g>
<!-- ragger.utils.packing -->
<g id="node29" class="node">
<title>ragger.utils.packing</title>
<polygon fill="chocolate" stroke="chocolate" points="1487,-756 1328,-756 1328,-720 1487,-720 1487,-756"/>
<text text-anchor="middle" x="1407.5" y="-734.3" font-family="Times,serif" font-size="14.00">ragger.utils.packing</text>
</g>
<!-- ragger.utils&#45;&gt;ragger.utils.packing -->
<g id="edge57" class="edge">
<title>ragger.utils&#45;&gt;ragger.utils.packing</title>
<path fill="none" stroke="black" d="M1282.11,-684.12C1304.9,-693.74 1333.53,-705.81 1357.67,-715.99"/>
<polygon fill="black" stroke="black" points="1367.02,-719.93 1356.06,-720.19 1362.42,-717.99 1357.81,-716.05 1357.81,-716.05 1357.81,-716.05 1362.42,-717.99 1359.56,-711.9 1367.02,-719.93 1367.02,-719.93"/>
</g>
<!-- ragger.utils.structs -->
<g id="node30" class="node">
<title>ragger.utils.structs</title>
<polygon fill="chocolate" stroke="chocolate" points="1154.5,-756 1000.5,-756 1000.5,-720 1154.5,-720 1154.5,-756"/>
<text text-anchor="middle" x="1077.5" y="-734.3" font-family="Times,serif" font-size="14.00">ragger.utils.structs</text>
</g>
<!-- ragger.utils&#45;&gt;ragger.utils.structs -->
<g id="edge58" class="edge">
<title>ragger.utils&#45;&gt;ragger.utils.structs</title>
<path fill="none" stroke="black" d="M1201.38,-684.12C1178.86,-693.74 1150.58,-705.81 1126.73,-715.99"/>
<polygon fill="black" stroke="black" points="1117.49,-719.93 1124.92,-711.87 1122.09,-717.97 1126.69,-716.01 1126.69,-716.01 1126.69,-716.01 1122.09,-717.97 1128.45,-720.14 1117.49,-719.93 1117.49,-719.93"/>
</g>
</g>
</svg>
