<?xml version="1.0" encoding="UTF-8" standalone="no"?>
<!DOCTYPE svg PUBLIC "-//W3C//DTD SVG 1.1//EN"
 "http://www.w3.org/Graphics/SVG/1.1/DTD/svg11.dtd">
<!-- Generated by graphviz version 2.43.0 (0)
 -->
<!-- Title: packages_generated_ragger_architecture Pages: 1 -->
<svg width="2313pt" height="980pt"
 viewBox="0.00 0.00 2312.50 980.00" xmlns="http://www.w3.org/2000/svg" xmlns:xlink="http://www.w3.org/1999/xlink">
<g id="graph0" class="graph" transform="scale(1 1) rotate(0) translate(4 976)">
<title>packages_generated_ragger_architecture</title>
<polygon fill="white" stroke="transparent" points="-4,4 -4,-976 2308.5,-976 2308.5,4 -4,4"/>
<!-- ragger -->
<g id="node1" class="node">
<title>ragger</title>
<polygon fill="#77aadd" stroke="#77aadd" points="106,-36 41,-36 41,0 106,0 106,-36"/>
<text text-anchor="middle" x="73.5" y="-14.3" font-family="Times,serif" font-size="14.00">ragger</text>
</g>
<!-- ragger.__version__ -->
<g id="node2" class="node">
<title>ragger.__version__</title>
<polygon fill="#77aadd" stroke="#77aadd" points="147,-108 0,-108 0,-72 147,-72 147,-108"/>
<text text-anchor="middle" x="73.5" y="-86.3" font-family="Times,serif" font-size="14.00">ragger.__version__</text>
</g>
<!-- ragger&#45;&gt;ragger.__version__ -->
<g id="edge1" class="edge">
<title>ragger&#45;&gt;ragger.__version__</title>
<path fill="none" stroke="black" d="M73.5,-36.3C73.5,-44.02 73.5,-53.29 73.5,-61.89"/>
<polygon fill="black" stroke="black" points="73.5,-71.9 69,-61.9 73.5,-66.9 73.5,-61.9 73.5,-61.9 73.5,-61.9 73.5,-66.9 78,-61.9 73.5,-71.9 73.5,-71.9"/>
</g>
<!-- ragger.backend -->
<g id="node3" class="node">
<title>ragger.backend</title>
<polygon fill="#99ddff" stroke="#99ddff" points="1195,-540 1068,-540 1068,-504 1195,-504 1195,-540"/>
<text text-anchor="middle" x="1131.5" y="-518.3" font-family="Times,serif" font-size="14.00">ragger.backend</text>
</g>
<!-- ragger.backend.interface -->
<g id="node4" class="node">
<title>ragger.backend.interface</title>
<polygon fill="#99ddff" stroke="#99ddff" points="1510,-756 1315,-756 1315,-720 1510,-720 1510,-756"/>
<text text-anchor="middle" x="1412.5" y="-734.3" font-family="Times,serif" font-size="14.00">ragger.backend.interface</text>
</g>
<!-- ragger.backend&#45;&gt;ragger.backend.interface -->
<g id="edge2" class="edge">
<title>ragger.backend&#45;&gt;ragger.backend.interface</title>
<path fill="none" stroke="black" d="M1195.24,-523.3C1281.76,-527.56 1433.7,-549.6 1504.5,-648 1513.84,-660.99 1512.51,-670.15 1504.5,-684 1496.93,-697.1 1484.76,-707.24 1471.72,-714.98"/>
<polygon fill="black" stroke="black" points="1462.59,-719.97 1469.21,-711.22 1466.98,-717.57 1471.37,-715.17 1471.37,-715.17 1471.37,-715.17 1466.98,-717.57 1473.53,-719.12 1462.59,-719.97 1462.59,-719.97"/>
</g>
<!-- ragger.backend.ledgercomm -->
<g id="node5" class="node">
<title>ragger.backend.ledgercomm</title>
<polygon fill="#99ddff" stroke="#99ddff" points="923.5,-612 703.5,-612 703.5,-576 923.5,-576 923.5,-612"/>
<text text-anchor="middle" x="813.5" y="-590.3" font-family="Times,serif" font-size="14.00">ragger.backend.ledgercomm</text>
</g>
<!-- ragger.backend&#45;&gt;ragger.backend.ledgercomm -->
<g id="edge3" class="edge">
<title>ragger.backend&#45;&gt;ragger.backend.ledgercomm</title>
<path fill="none" stroke="black" d="M1067.91,-537C1019.98,-547.55 953.69,-562.14 900.79,-573.78"/>
<polygon fill="black" stroke="black" points="890.74,-576 899.54,-569.45 895.62,-574.92 900.51,-573.85 900.51,-573.85 900.51,-573.85 895.62,-574.92 901.47,-578.24 890.74,-576 890.74,-576"/>
</g>
<!-- ragger.backend.ledgerwallet -->
<g id="node6" class="node">
<title>ragger.backend.ledgerwallet</title>
<polygon fill="#99ddff" stroke="#99ddff" points="1185,-612 964,-612 964,-576 1185,-576 1185,-612"/>
<text text-anchor="middle" x="1074.5" y="-590.3" font-family="Times,serif" font-size="14.00">ragger.backend.ledgerwallet</text>
</g>
<!-- ragger.backend&#45;&gt;ragger.backend.ledgerwallet -->
<g id="edge4" class="edge">
<title>ragger.backend&#45;&gt;ragger.backend.ledgerwallet</title>
<path fill="none" stroke="black" d="M1117.41,-540.3C1110.58,-548.7 1102.24,-558.93 1094.74,-568.14"/>
<polygon fill="black" stroke="black" points="1088.43,-575.9 1091.25,-565.3 1091.58,-572.02 1094.74,-568.14 1094.74,-568.14 1094.74,-568.14 1091.58,-572.02 1098.23,-570.98 1088.43,-575.9 1088.43,-575.9"/>
</g>
<!-- ragger.backend.speculos -->
<g id="node8" class="node">
<title>ragger.backend.speculos</title>
<polygon fill="#99ddff" stroke="#99ddff" points="1315,-684 1122,-684 1122,-648 1315,-648 1315,-684"/>
<text text-anchor="middle" x="1218.5" y="-662.3" font-family="Times,serif" font-size="14.00">ragger.backend.speculos</text>
</g>
<!-- ragger.backend&#45;&gt;ragger.backend.speculos -->
<g id="edge5" class="edge">
<title>ragger.backend&#45;&gt;ragger.backend.speculos</title>
<path fill="none" stroke="black" d="M1157.97,-540.09C1170.39,-549.35 1184.43,-561.8 1193.5,-576 1205.48,-594.74 1211.81,-619.27 1215.11,-637.83"/>
<polygon fill="black" stroke="black" points="1216.67,-647.72 1210.66,-638.55 1215.89,-642.78 1215.11,-637.84 1215.11,-637.84 1215.11,-637.84 1215.89,-642.78 1219.55,-637.13 1216.67,-647.72 1216.67,-647.72"/>
</g>
<!-- ragger.backend.stub -->
<g id="node9" class="node">
<title>ragger.backend.stub</title>
<polygon fill="#99ddff" stroke="#99ddff" points="1496,-684 1333,-684 1333,-648 1496,-648 1496,-684"/>
<text text-anchor="middle" x="1414.5" y="-662.3" font-family="Times,serif" font-size="14.00">ragger.backend.stub</text>
</g>
<!-- ragger.backend&#45;&gt;ragger.backend.stub -->
<g id="edge6" class="edge">
<title>ragger.backend&#45;&gt;ragger.backend.stub</title>
<path fill="none" stroke="black" d="M1165.64,-540.13C1217.16,-565.98 1314.76,-614.96 1371.21,-643.28"/>
<polygon fill="black" stroke="black" points="1380.24,-647.81 1369.29,-647.35 1375.77,-645.57 1371.3,-643.33 1371.3,-643.33 1371.3,-643.33 1375.77,-645.57 1373.32,-639.3 1380.24,-647.81 1380.24,-647.81"/>
</g>
<!-- ragger.error -->
<g id="node16" class="node">
<title>ragger.error</title>
<polygon fill="#77aadd" stroke="#77aadd" points="1397.5,-972 1293.5,-972 1293.5,-936 1397.5,-936 1397.5,-972"/>
<text text-anchor="middle" x="1345.5" y="-950.3" font-family="Times,serif" font-size="14.00">ragger.error</text>
</g>
<!-- ragger.backend.interface&#45;&gt;ragger.error -->
<g id="edge7" class="edge">
<title>ragger.backend.interface&#45;&gt;ragger.error</title>
<path fill="none" stroke="black" d="M1410.87,-756.02C1407.58,-786.03 1398.65,-849.91 1378.5,-900 1374.76,-909.3 1369.41,-918.81 1364.1,-927.15"/>
<polygon fill="black" stroke="black" points="1358.44,-935.68 1360.22,-924.86 1361.21,-931.51 1363.97,-927.35 1363.97,-927.35 1363.97,-927.35 1361.21,-931.51 1367.72,-929.84 1358.44,-935.68 1358.44,-935.68"/>
</g>
<!-- ragger.firmware -->
<g id="node17" class="node">
<title>ragger.firmware</title>
<polygon fill="#aaaa00" stroke="#aaaa00" points="1802.5,-828 1670.5,-828 1670.5,-792 1802.5,-792 1802.5,-828"/>
<text text-anchor="middle" x="1736.5" y="-806.3" font-family="Times,serif" font-size="14.00">ragger.firmware</text>
</g>
<!-- ragger.backend.interface&#45;&gt;ragger.firmware -->
<g id="edge8" class="edge">
<title>ragger.backend.interface&#45;&gt;ragger.firmware</title>
<path fill="none" stroke="black" d="M1491.35,-756.03C1542.8,-767.15 1609.61,-781.58 1660.48,-792.58"/>
<polygon fill="black" stroke="black" points="1670.44,-794.73 1659.71,-797.01 1665.55,-793.67 1660.66,-792.61 1660.66,-792.61 1660.66,-792.61 1665.55,-793.67 1661.61,-788.22 1670.44,-794.73 1670.44,-794.73"/>
</g>
<!-- ragger.logger -->
<g id="node28" class="node">
<title>ragger.logger</title>
<polygon fill="#77aadd" stroke="#77aadd" points="655,-972 542,-972 542,-936 655,-936 655,-972"/>
<text text-anchor="middle" x="598.5" y="-950.3" font-family="Times,serif" font-size="14.00">ragger.logger</text>
</g>
<!-- ragger.backend.interface&#45;&gt;ragger.logger -->
<g id="edge9" class="edge">
<title>ragger.backend.interface&#45;&gt;ragger.logger</title>
<path fill="none" stroke="black" d="M1368.71,-756C1315.39,-777.59 1223.53,-817.64 1151.5,-864 1130.54,-877.49 1131.45,-890.29 1108.5,-900 1030.23,-933.12 785.01,-946.32 665.42,-950.89"/>
<polygon fill="black" stroke="black" points="655.29,-951.26 665.12,-946.4 660.29,-951.08 665.28,-950.89 665.28,-950.89 665.28,-950.89 660.29,-951.08 665.45,-955.39 655.29,-951.26 655.29,-951.26"/>
</g>
<!-- ragger.utils -->
<g id="node35" class="node">
<title>ragger.utils</title>
<polygon fill="#ffaabb" stroke="#ffaabb" points="1007,-828 908,-828 908,-792 1007,-792 1007,-828"/>
<text text-anchor="middle" x="957.5" y="-806.3" font-family="Times,serif" font-size="14.00">ragger.utils</text>
</g>
<!-- ragger.backend.interface&#45;&gt;ragger.utils -->
<g id="edge10" class="edge">
<title>ragger.backend.interface&#45;&gt;ragger.utils</title>
<path fill="none" stroke="black" d="M1314.89,-754.02C1224.61,-767.91 1093.29,-788.11 1017.52,-799.77"/>
<polygon fill="black" stroke="black" points="1007.21,-801.35 1016.41,-795.38 1012.15,-800.59 1017.1,-799.83 1017.1,-799.83 1017.1,-799.83 1012.15,-800.59 1017.78,-804.28 1007.21,-801.35 1007.21,-801.35"/>
</g>
<!-- ragger.backend.ledgercomm&#45;&gt;ragger.backend.ledgercomm -->
<g id="edge11" class="edge">
<title>ragger.backend.ledgercomm&#45;&gt;ragger.backend.ledgercomm</title>
<path fill="none" stroke="black" d="M923.65,-582.99C934.56,-585.2 941.5,-588.87 941.5,-594 941.5,-597.37 938.51,-600.11 933.37,-602.21"/>
<polygon fill="black" stroke="black" points="923.65,-605.01 932.02,-597.92 928.46,-603.63 933.26,-602.25 933.26,-602.25 933.26,-602.25 928.46,-603.63 934.51,-606.57 923.65,-605.01 923.65,-605.01"/>
</g>
<!-- ragger.backend.physical_backend -->
<g id="node7" class="node">
<title>ragger.backend.physical_backend</title>
<polygon fill="#99ddff" stroke="#99ddff" points="1027.5,-684 771.5,-684 771.5,-648 1027.5,-648 1027.5,-684"/>
<text text-anchor="middle" x="899.5" y="-662.3" font-family="Times,serif" font-size="14.00">ragger.backend.physical_backend</text>
</g>
<!-- ragger.backend.ledgercomm&#45;&gt;ragger.backend.physical_backend -->
<g id="edge12" class="edge">
<title>ragger.backend.ledgercomm&#45;&gt;ragger.backend.physical_backend</title>
<path fill="none" stroke="black" d="M834.76,-612.3C845.59,-621.12 858.92,-631.97 870.66,-641.53"/>
<polygon fill="black" stroke="black" points="878.49,-647.9 867.89,-645.07 874.61,-644.74 870.73,-641.58 870.73,-641.58 870.73,-641.58 874.61,-644.74 873.57,-638.09 878.49,-647.9 878.49,-647.9"/>
</g>
<!-- ragger.backend.ledgercomm&#45;&gt;ragger.error -->
<g id="edge13" class="edge">
<title>ragger.backend.ledgercomm&#45;&gt;ragger.error</title>
<path fill="none" stroke="black" d="M788.18,-612.17C756.26,-636.08 705.5,-682.64 705.5,-737 705.5,-737 705.5,-737 705.5,-811 705.5,-851.54 694.95,-873.34 725.5,-900 766.88,-936.11 1133.79,-948.3 1282.91,-951.78"/>
<polygon fill="black" stroke="black" points="1293.26,-952.02 1283.16,-956.29 1288.26,-951.9 1283.26,-951.79 1283.26,-951.79 1283.26,-951.79 1288.26,-951.9 1283.36,-947.29 1293.26,-952.02 1293.26,-952.02"/>
</g>
<!-- ragger.backend.ledgercomm&#45;&gt;ragger.utils -->
<g id="edge14" class="edge">
<title>ragger.backend.ledgercomm&#45;&gt;ragger.utils</title>
<path fill="none" stroke="black" d="M790.2,-612.18C779.6,-621.46 768.18,-633.91 762.5,-648 756.52,-662.84 754.82,-669.96 762.5,-684 791.2,-736.48 852.38,-770.18 898.61,-789.2"/>
<polygon fill="black" stroke="black" points="907.94,-792.92 896.98,-793.39 903.3,-791.07 898.65,-789.22 898.65,-789.22 898.65,-789.22 903.3,-791.07 900.32,-785.04 907.94,-792.92 907.94,-792.92"/>
</g>
<!-- ragger.backend.ledgerwallet&#45;&gt;ragger.backend.physical_backend -->
<g id="edge15" class="edge">
<title>ragger.backend.ledgerwallet&#45;&gt;ragger.backend.physical_backend</title>
<path fill="none" stroke="black" d="M1031.69,-612.12C1007.55,-621.78 977.22,-633.91 951.69,-644.12"/>
<polygon fill="black" stroke="black" points="942.17,-647.93 949.78,-640.04 946.81,-646.07 951.46,-644.22 951.46,-644.22 951.46,-644.22 946.81,-646.07 953.13,-648.4 942.17,-647.93 942.17,-647.93"/>
</g>
<!-- ragger.backend.ledgerwallet&#45;&gt;ragger.error -->
<g id="edge16" class="edge">
<title>ragger.backend.ledgerwallet&#45;&gt;ragger.error</title>
<path fill="none" stroke="black" d="M1079.44,-612.15C1085.37,-630.91 1096.55,-661.33 1112.5,-684 1180.19,-780.19 1238.36,-768.13 1306.5,-864 1320.11,-883.14 1330.45,-907.79 1337.05,-926.29"/>
<polygon fill="black" stroke="black" points="1340.33,-935.86 1332.83,-927.86 1338.71,-931.13 1337.09,-926.4 1337.09,-926.4 1337.09,-926.4 1338.71,-931.13 1341.35,-924.94 1340.33,-935.86 1340.33,-935.86"/>
</g>
<!-- ragger.backend.ledgerwallet&#45;&gt;ragger.utils -->
<g id="edge17" class="edge">
<title>ragger.backend.ledgerwallet&#45;&gt;ragger.utils</title>
<path fill="none" stroke="black" d="M1068.14,-612.1C1061.16,-630.3 1049.23,-659.75 1036.5,-684 1017.79,-719.63 992.37,-758.49 975.48,-783.27"/>
<polygon fill="black" stroke="black" points="969.67,-791.73 971.62,-780.94 972.5,-787.61 975.33,-783.48 975.33,-783.48 975.33,-783.48 972.5,-787.61 979.04,-786.03 969.67,-791.73 969.67,-791.73"/>
</g>
<!-- ragger.backend.physical_backend&#45;&gt;ragger.backend.interface -->
<g id="edge18" class="edge">
<title>ragger.backend.physical_backend&#45;&gt;ragger.backend.interface</title>
<path fill="none" stroke="black" d="M1024.34,-684.03C1110.18,-695.75 1223.01,-711.14 1304.88,-722.32"/>
<polygon fill="black" stroke="black" points="1314.96,-723.69 1304.44,-726.8 1310.01,-723.01 1305.05,-722.34 1305.05,-722.34 1305.05,-722.34 1310.01,-723.01 1305.66,-717.88 1314.96,-723.69 1314.96,-723.69"/>
</g>
<!-- ragger.gui -->
<g id="node25" class="node">
<title>ragger.gui</title>
<polygon fill="#eedd88" stroke="#eedd88" points="555.5,-756 465.5,-756 465.5,-720 555.5,-720 555.5,-756"/>
<text text-anchor="middle" x="510.5" y="-734.3" font-family="Times,serif" font-size="14.00">ragger.gui</text>
</g>
<!-- ragger.backend.physical_backend&#45;&gt;ragger.gui -->
<g id="edge19" class="edge">
<title>ragger.backend.physical_backend&#45;&gt;ragger.gui</title>
<path fill="none" stroke="black" d="M804.84,-684.03C729.85,-697.53 627.7,-715.91 565.57,-727.09"/>
<polygon fill="black" stroke="black" points="555.57,-728.89 564.62,-722.69 560.5,-728 565.42,-727.12 565.42,-727.12 565.42,-727.12 560.5,-728 566.21,-731.55 555.57,-728.89 555.57,-728.89"/>
</g>
<!-- ragger.navigator.instruction -->
<g id="node30" class="node">
<title>ragger.navigator.instruction</title>
<polygon fill="#ee8866" stroke="#ee8866" points="463,-900 246,-900 246,-864 463,-864 463,-900"/>
<text text-anchor="middle" x="354.5" y="-878.3" font-family="Times,serif" font-size="14.00">ragger.navigator.instruction</text>
</g>
<!-- ragger.backend.physical_backend&#45;&gt;ragger.navigator.instruction -->
<g id="edge20" class="edge">
<title>ragger.backend.physical_backend&#45;&gt;ragger.navigator.instruction</title>
<path fill="none" stroke="black" d="M771.45,-668.09C658.42,-671.55 504.4,-683.17 456.5,-720 415.54,-751.49 443.05,-785.62 413.5,-828 405.92,-838.87 395.7,-849.06 385.89,-857.55"/>
<polygon fill="black" stroke="black" points="378.18,-863.96 382.99,-854.11 382.02,-860.77 385.86,-857.57 385.86,-857.57 385.86,-857.57 382.02,-860.77 388.74,-861.03 378.18,-863.96 378.18,-863.96"/>
</g>
<!-- ragger.backend.physical_backend&#45;&gt;ragger.utils -->
<g id="edge21" class="edge">
<title>ragger.backend.physical_backend&#45;&gt;ragger.utils</title>
<path fill="none" stroke="black" d="M906.5,-684.13C916.47,-708.54 934.86,-753.57 946.62,-782.36"/>
<polygon fill="black" stroke="black" points="950.48,-791.81 942.53,-784.25 948.59,-787.18 946.7,-782.55 946.7,-782.55 946.7,-782.55 948.59,-787.18 950.86,-780.85 950.48,-791.81 950.48,-791.81"/>
</g>
<!-- ragger.backend.speculos&#45;&gt;ragger.backend.interface -->
<g id="edge22" class="edge">
<title>ragger.backend.speculos&#45;&gt;ragger.backend.interface</title>
<path fill="none" stroke="black" d="M1265.96,-684.12C1293.07,-693.91 1327.24,-706.23 1355.76,-716.53"/>
<polygon fill="black" stroke="black" points="1365.2,-719.93 1354.26,-720.77 1360.49,-718.23 1355.79,-716.54 1355.79,-716.54 1355.79,-716.54 1360.49,-718.23 1357.32,-712.3 1365.2,-719.93 1365.2,-719.93"/>
</g>
<!-- ragger.backend.speculos&#45;&gt;ragger.error -->
<g id="edge23" class="edge">
<title>ragger.backend.speculos&#45;&gt;ragger.error</title>
<path fill="none" stroke="black" d="M1233.42,-684.22C1260.56,-716.74 1317.34,-790.52 1340.5,-864 1346.81,-884.02 1347.84,-907.8 1347.41,-925.75"/>
<polygon fill="black" stroke="black" points="1347,-935.82 1342.91,-925.65 1347.2,-930.83 1347.4,-925.83 1347.4,-925.83 1347.4,-925.83 1347.2,-930.83 1351.9,-926.01 1347,-935.82 1347,-935.82"/>
</g>
<!-- ragger.backend.speculos&#45;&gt;ragger.logger -->
<g id="edge24" class="edge">
<title>ragger.backend.speculos&#45;&gt;ragger.logger</title>
<path fill="none" stroke="black" d="M1209.16,-684.09C1180.87,-735.58 1096.74,-886.52 1075.5,-900 1008.92,-942.26 780.01,-951 665.23,-952.69"/>
<polygon fill="black" stroke="black" points="655.16,-952.82 665.1,-948.19 660.16,-952.75 665.16,-952.69 665.16,-952.69 665.16,-952.69 660.16,-952.75 665.22,-957.19 655.16,-952.82 655.16,-952.82"/>
</g>
<!-- ragger.backend.speculos&#45;&gt;ragger.utils -->
<g id="edge25" class="edge">
<title>ragger.backend.speculos&#45;&gt;ragger.utils</title>
<path fill="none" stroke="black" d="M1185.18,-684.22C1165.44,-694.49 1139.97,-707.86 1117.5,-720 1076.14,-742.35 1029.17,-768.58 996.87,-786.75"/>
<polygon fill="black" stroke="black" points="987.75,-791.88 994.26,-783.06 992.11,-789.43 996.47,-786.98 996.47,-786.98 996.47,-786.98 992.11,-789.43 998.68,-790.9 987.75,-791.88 987.75,-791.88"/>
</g>
<!-- ragger.backend.stub&#45;&gt;ragger.backend.interface -->
<g id="edge26" class="edge">
<title>ragger.backend.stub&#45;&gt;ragger.backend.interface</title>
<path fill="none" stroke="black" d="M1414.01,-684.3C1413.79,-692.02 1413.52,-701.29 1413.27,-709.89"/>
<polygon fill="black" stroke="black" points="1412.99,-719.9 1408.78,-709.77 1413.13,-714.9 1413.27,-709.9 1413.27,-709.9 1413.27,-709.9 1413.13,-714.9 1417.77,-710.03 1412.99,-719.9 1412.99,-719.9"/>
</g>
<!-- ragger.backend.stub&#45;&gt;ragger.error -->
<g id="edge27" class="edge">
<title>ragger.backend.stub&#45;&gt;ragger.error</title>
<path fill="none" stroke="black" d="M1474.23,-684.04C1491.53,-692.05 1508.44,-703.58 1518.5,-720 1526.86,-733.64 1523.95,-740.96 1518.5,-756 1491.12,-831.63 1419.1,-896.72 1377.12,-929.78"/>
<polygon fill="black" stroke="black" points="1369.15,-935.96 1374.3,-926.28 1373.1,-932.9 1377.05,-929.84 1377.05,-929.84 1377.05,-929.84 1373.1,-932.9 1379.81,-933.39 1369.15,-935.96 1369.15,-935.96"/>
</g>
<!-- ragger.utils.structs -->
<g id="node38" class="node">
<title>ragger.utils.structs</title>
<polygon fill="#ffaabb" stroke="#ffaabb" points="1066.5,-900 912.5,-900 912.5,-864 1066.5,-864 1066.5,-900"/>
<text text-anchor="middle" x="989.5" y="-878.3" font-family="Times,serif" font-size="14.00">ragger.utils.structs</text>
</g>
<!-- ragger.backend.stub&#45;&gt;ragger.utils.structs -->
<g id="edge28" class="edge">
<title>ragger.backend.stub&#45;&gt;ragger.utils.structs</title>
<path fill="none" stroke="black" d="M1379.07,-684.02C1357.71,-694.33 1329.99,-707.81 1305.5,-720 1207.14,-768.97 1092.36,-827.9 1031.84,-859.11"/>
<polygon fill="black" stroke="black" points="1022.61,-863.87 1029.43,-855.29 1027.05,-861.58 1031.5,-859.29 1031.5,-859.29 1031.5,-859.29 1027.05,-861.58 1033.56,-863.29 1022.61,-863.87 1022.61,-863.87"/>
</g>
<!-- ragger.bip -->
<g id="node10" class="node">
<title>ragger.bip</title>
<polygon fill="#44bb99" stroke="#44bb99" points="1918.5,-36 1828.5,-36 1828.5,0 1918.5,0 1918.5,-36"/>
<text text-anchor="middle" x="1873.5" y="-14.3" font-family="Times,serif" font-size="14.00">ragger.bip</text>
</g>
<!-- ragger.bip.path -->
<g id="node11" class="node">
<title>ragger.bip.path</title>
<polygon fill="#44bb99" stroke="#44bb99" points="1864,-108 1737,-108 1737,-72 1864,-72 1864,-108"/>
<text text-anchor="middle" x="1800.5" y="-86.3" font-family="Times,serif" font-size="14.00">ragger.bip.path</text>
</g>
<!-- ragger.bip&#45;&gt;ragger.bip.path -->
<g id="edge29" class="edge">
<title>ragger.bip&#45;&gt;ragger.bip.path</title>
<path fill="none" stroke="black" d="M1855.46,-36.3C1846.44,-44.95 1835.38,-55.55 1825.56,-64.97"/>
<polygon fill="black" stroke="black" points="1818.34,-71.9 1822.44,-61.73 1821.95,-68.44 1825.56,-64.97 1825.56,-64.97 1825.56,-64.97 1821.95,-68.44 1828.67,-68.22 1818.34,-71.9 1818.34,-71.9"/>
</g>
<!-- ragger.bip.seed -->
<g id="node12" class="node">
<title>ragger.bip.seed</title>
<polygon fill="#44bb99" stroke="#44bb99" points="2010.5,-108 1882.5,-108 1882.5,-72 2010.5,-72 2010.5,-108"/>
<text text-anchor="middle" x="1946.5" y="-86.3" font-family="Times,serif" font-size="14.00">ragger.bip.seed</text>
</g>
<!-- ragger.bip&#45;&gt;ragger.bip.seed -->
<g id="edge30" class="edge">
<title>ragger.bip&#45;&gt;ragger.bip.seed</title>
<path fill="none" stroke="black" d="M1891.54,-36.3C1900.56,-44.95 1911.62,-55.55 1921.44,-64.97"/>
<polygon fill="black" stroke="black" points="1928.66,-71.9 1918.33,-68.22 1925.05,-68.44 1921.44,-64.97 1921.44,-64.97 1921.44,-64.97 1925.05,-68.44 1924.56,-61.73 1928.66,-71.9 1928.66,-71.9"/>
</g>
<!-- ragger.conftest -->
<g id="node13" class="node">
<title>ragger.conftest</title>
<polygon fill="#bbcc33" stroke="#bbcc33" points="2062,-36 1937,-36 1937,0 2062,0 2062,-36"/>
<text text-anchor="middle" x="1999.5" y="-14.3" font-family="Times,serif" font-size="14.00">ragger.conftest</text>
</g>
<!-- ragger.conftest.base_conftest -->
<g id="node14" class="node">
<title>ragger.conftest.base_conftest</title>
<polygon fill="#bbcc33" stroke="#bbcc33" points="1463,-36 1236,-36 1236,0 1463,0 1463,-36"/>
<text text-anchor="middle" x="1349.5" y="-14.3" font-family="Times,serif" font-size="14.00">ragger.conftest.base_conftest</text>
</g>
<!-- ragger.conftest.base_conftest&#45;&gt;ragger.backend -->
<g id="edge31" class="edge">
<title>ragger.conftest.base_conftest&#45;&gt;ragger.backend</title>
<path fill="none" stroke="black" d="M1458.01,-36.06C1527.42,-53.86 1604.5,-89.68 1604.5,-161 1604.5,-161 1604.5,-161 1604.5,-379 1604.5,-461.31 1338.44,-500.03 1205.41,-514.25"/>
<polygon fill="black" stroke="black" points="1195.29,-515.31 1204.77,-509.79 1200.26,-514.78 1205.24,-514.26 1205.24,-514.26 1205.24,-514.26 1200.26,-514.78 1205.71,-518.74 1195.29,-515.31 1195.29,-515.31"/>
</g>
<!-- ragger.conftest.base_conftest&#45;&gt;ragger.firmware -->
<g id="edge32" class="edge">
<title>ragger.conftest.base_conftest&#45;&gt;ragger.firmware</title>
<path fill="none" stroke="black" d="M1463.11,-28.58C1537.13,-36.69 1625.5,-50.5 1656.5,-72 1694.14,-98.11 1708.5,-115.19 1708.5,-161 1708.5,-161 1708.5,-161 1708.5,-667 1708.5,-707.73 1719.73,-753.81 1727.96,-782.14"/>
<polygon fill="black" stroke="black" points="1730.83,-791.73 1723.65,-783.44 1729.4,-786.94 1727.96,-782.15 1727.96,-782.15 1727.96,-782.15 1729.4,-786.94 1732.28,-780.86 1730.83,-791.73 1730.83,-791.73"/>
</g>
<!-- ragger.conftest.base_conftest&#45;&gt;ragger.logger -->
<g id="edge33" class="edge">
<title>ragger.conftest.base_conftest&#45;&gt;ragger.logger</title>
<path fill="none" stroke="black" d="M1235.95,-21.34C984.01,-27.03 393.63,-43.26 307.5,-72 240.38,-94.39 175.5,-90.24 175.5,-161 175.5,-161 175.5,-161 175.5,-811 175.5,-858.95 195.81,-874.62 236.5,-900 284.5,-929.94 440.98,-943.87 531.73,-949.58"/>
<polygon fill="black" stroke="black" points="541.91,-950.21 531.66,-954.09 536.92,-949.9 531.93,-949.59 531.93,-949.59 531.93,-949.59 536.92,-949.9 532.21,-945.1 541.91,-950.21 541.91,-950.21"/>
</g>
<!-- ragger.navigator -->
<g id="node29" class="node">
<title>ragger.navigator</title>
<polygon fill="#ee8866" stroke="#ee8866" points="1115.5,-108 979.5,-108 979.5,-72 1115.5,-72 1115.5,-108"/>
<text text-anchor="middle" x="1047.5" y="-86.3" font-family="Times,serif" font-size="14.00">ragger.navigator</text>
</g>
<!-- ragger.conftest.base_conftest&#45;&gt;ragger.navigator -->
<g id="edge34" class="edge">
<title>ragger.conftest.base_conftest&#45;&gt;ragger.navigator</title>
<path fill="none" stroke="black" d="M1276.01,-36.03C1230.46,-46.59 1172.01,-60.14 1125.63,-70.89"/>
<polygon fill="black" stroke="black" points="1115.62,-73.21 1124.35,-66.57 1120.49,-72.08 1125.36,-70.95 1125.36,-70.95 1125.36,-70.95 1120.49,-72.08 1126.38,-75.34 1115.62,-73.21 1115.62,-73.21"/>
</g>
<!-- ragger.conftest.base_conftest&#45;&gt;ragger.utils -->
<g id="edge35" class="edge">
<title>ragger.conftest.base_conftest&#45;&gt;ragger.utils</title>
<path fill="none" stroke="black" d="M1235.9,-21.43C948.19,-29.1 213.5,-58.7 213.5,-161 213.5,-161 213.5,-161 213.5,-379 213.5,-548.26 653.89,-744.15 683.5,-756 754.01,-784.21 840.9,-797.74 897.67,-804"/>
<polygon fill="black" stroke="black" points="907.91,-805.08 897.49,-808.5 902.94,-804.56 897.97,-804.03 897.97,-804.03 897.97,-804.03 902.94,-804.56 898.44,-799.55 907.91,-805.08 907.91,-805.08"/>
</g>
<!-- ragger.utils.misc -->
<g id="node36" class="node">
<title>ragger.utils.misc</title>
<polygon fill="#ffaabb" stroke="#ffaabb" points="1298,-900 1161,-900 1161,-864 1298,-864 1298,-900"/>
<text text-anchor="middle" x="1229.5" y="-878.3" font-family="Times,serif" font-size="14.00">ragger.utils.misc</text>
</g>
<!-- ragger.conftest.base_conftest&#45;&gt;ragger.utils.misc -->
<g id="edge36" class="edge">
<title>ragger.conftest.base_conftest&#45;&gt;ragger.utils.misc</title>
<path fill="none" stroke="black" d="M1463.2,-29.04C1545.56,-43.3 1642.5,-77.76 1642.5,-161 1642.5,-161 1642.5,-161 1642.5,-739 1642.5,-808.9 1428.27,-851.77 1308.4,-870.29"/>
<polygon fill="black" stroke="black" points="1298.16,-871.85 1307.37,-865.89 1303.11,-871.09 1308.05,-870.34 1308.05,-870.34 1308.05,-870.34 1303.11,-871.09 1308.73,-874.79 1298.16,-871.85 1298.16,-871.85"/>
</g>
<!-- ragger.conftest.configuration -->
<g id="node15" class="node">
<title>ragger.conftest.configuration</title>
<polygon fill="#bbcc33" stroke="#bbcc33" points="2304.5,-36 2080.5,-36 2080.5,0 2304.5,0 2304.5,-36"/>
<text text-anchor="middle" x="2192.5" y="-14.3" font-family="Times,serif" font-size="14.00">ragger.conftest.configuration</text>
</g>
<!-- ragger.firmware.structs -->
<g id="node18" class="node">
<title>ragger.firmware.structs</title>
<polygon fill="#aaaa00" stroke="#aaaa00" points="1830,-900 1643,-900 1643,-864 1830,-864 1830,-900"/>
<text text-anchor="middle" x="1736.5" y="-878.3" font-family="Times,serif" font-size="14.00">ragger.firmware.structs</text>
</g>
<!-- ragger.firmware&#45;&gt;ragger.firmware.structs -->
<g id="edge37" class="edge">
<title>ragger.firmware&#45;&gt;ragger.firmware.structs</title>
<path fill="none" stroke="black" d="M1736.5,-828.3C1736.5,-836.02 1736.5,-845.29 1736.5,-853.89"/>
<polygon fill="black" stroke="black" points="1736.5,-863.9 1732,-853.9 1736.5,-858.9 1736.5,-853.9 1736.5,-853.9 1736.5,-853.9 1736.5,-858.9 1741,-853.9 1736.5,-863.9 1736.5,-863.9"/>
</g>
<!-- ragger.firmware.touch -->
<g id="node19" class="node">
<title>ragger.firmware.touch</title>
<polygon fill="#aaaa00" stroke="#aaaa00" points="863.5,-252 687.5,-252 687.5,-216 863.5,-216 863.5,-252"/>
<text text-anchor="middle" x="775.5" y="-230.3" font-family="Times,serif" font-size="14.00">ragger.firmware.touch</text>
</g>
<!-- ragger.firmware.touch.screen -->
<g id="node23" class="node">
<title>ragger.firmware.touch.screen</title>
<polygon fill="#aaaa00" stroke="#aaaa00" points="855.5,-324 627.5,-324 627.5,-288 855.5,-288 855.5,-324"/>
<text text-anchor="middle" x="741.5" y="-302.3" font-family="Times,serif" font-size="14.00">ragger.firmware.touch.screen</text>
</g>
<!-- ragger.firmware.touch&#45;&gt;ragger.firmware.touch.screen -->
<g id="edge38" class="edge">
<title>ragger.firmware.touch&#45;&gt;ragger.firmware.touch.screen</title>
<path fill="none" stroke="black" d="M767.1,-252.3C763.23,-260.27 758.55,-269.9 754.26,-278.74"/>
<polygon fill="black" stroke="black" points="749.81,-287.9 750.13,-276.93 751.99,-283.4 754.18,-278.9 754.18,-278.9 754.18,-278.9 751.99,-283.4 758.22,-280.87 749.81,-287.9 749.81,-287.9"/>
</g>
<!-- ragger.firmware.touch.element -->
<g id="node20" class="node">
<title>ragger.firmware.touch.element</title>
<polygon fill="#aaaa00" stroke="#aaaa00" points="601,-468 362,-468 362,-432 601,-432 601,-468"/>
<text text-anchor="middle" x="481.5" y="-446.3" font-family="Times,serif" font-size="14.00">ragger.firmware.touch.element</text>
</g>
<!-- ragger.firmware.touch.element&#45;&gt;ragger.backend -->
<g id="edge39" class="edge">
<title>ragger.firmware.touch.element&#45;&gt;ragger.backend</title>
<path fill="none" stroke="black" d="M601.1,-463.88C734.61,-478.26 946.49,-501.08 1057.74,-513.06"/>
<polygon fill="black" stroke="black" points="1067.86,-514.15 1057.44,-517.55 1062.89,-513.61 1057.92,-513.08 1057.92,-513.08 1057.92,-513.08 1062.89,-513.61 1058.4,-508.6 1067.86,-514.15 1067.86,-514.15"/>
</g>
<!-- ragger.firmware.touch.positions -->
<g id="node22" class="node">
<title>ragger.firmware.touch.positions</title>
<polygon fill="#aaaa00" stroke="#aaaa00" points="601,-540 356,-540 356,-504 601,-504 601,-540"/>
<text text-anchor="middle" x="478.5" y="-518.3" font-family="Times,serif" font-size="14.00">ragger.firmware.touch.positions</text>
</g>
<!-- ragger.firmware.touch.element&#45;&gt;ragger.firmware.touch.positions -->
<g id="edge40" class="edge">
<title>ragger.firmware.touch.element&#45;&gt;ragger.firmware.touch.positions</title>
<path fill="none" stroke="black" d="M480.76,-468.3C480.43,-476.02 480.03,-485.29 479.66,-493.89"/>
<polygon fill="black" stroke="black" points="479.23,-503.9 475.17,-493.71 479.45,-498.9 479.66,-493.9 479.66,-493.9 479.66,-493.9 479.45,-498.9 484.16,-494.1 479.23,-503.9 479.23,-503.9"/>
</g>
<!-- ragger.firmware.touch.layouts -->
<g id="node21" class="node">
<title>ragger.firmware.touch.layouts</title>
<polygon fill="#aaaa00" stroke="#aaaa00" points="858,-396 625,-396 625,-360 858,-360 858,-396"/>
<text text-anchor="middle" x="741.5" y="-374.3" font-family="Times,serif" font-size="14.00">ragger.firmware.touch.layouts</text>
</g>
<!-- ragger.firmware.touch.layouts&#45;&gt;ragger.firmware.touch.element -->
<g id="edge41" class="edge">
<title>ragger.firmware.touch.layouts&#45;&gt;ragger.firmware.touch.element</title>
<path fill="none" stroke="black" d="M678.23,-396.03C640.95,-406.07 593.64,-418.81 554.75,-429.28"/>
<polygon fill="black" stroke="black" points="545.05,-431.89 553.54,-424.94 549.88,-430.59 554.71,-429.29 554.71,-429.29 554.71,-429.29 549.88,-430.59 555.88,-433.63 545.05,-431.89 545.05,-431.89"/>
</g>
<!-- ragger.firmware.touch.screen&#45;&gt;ragger.backend -->
<g id="edge42" class="edge">
<title>ragger.firmware.touch.screen&#45;&gt;ragger.backend</title>
<path fill="none" stroke="black" d="M807.68,-324.1C828.61,-332.17 850.45,-343.72 866.5,-360 902.89,-396.91 871.18,-434.23 910.5,-468 932.55,-486.94 1002.42,-501.63 1057.76,-510.69"/>
<polygon fill="black" stroke="black" points="1067.91,-512.32 1057.32,-515.18 1062.97,-511.53 1058.04,-510.74 1058.04,-510.74 1058.04,-510.74 1062.97,-511.53 1058.75,-506.3 1067.91,-512.32 1067.91,-512.32"/>
</g>
<!-- ragger.firmware.touch.screen&#45;&gt;ragger.firmware.touch.element -->
<g id="edge43" class="edge">
<title>ragger.firmware.touch.screen&#45;&gt;ragger.firmware.touch.element</title>
<path fill="none" stroke="black" d="M627.28,-314.74C517.28,-323.38 364.89,-338.97 346.5,-360 335.97,-372.04 337.49,-382.78 346.5,-396 355.9,-409.78 369.47,-419.98 384.43,-427.53"/>
<polygon fill="black" stroke="black" points="393.9,-431.89 382.93,-431.79 389.36,-429.8 384.82,-427.71 384.82,-427.71 384.82,-427.71 389.36,-429.8 386.7,-423.62 393.9,-431.89 393.9,-431.89"/>
</g>
<!-- ragger.firmware.touch.screen&#45;&gt;ragger.firmware.touch.layouts -->
<g id="edge44" class="edge">
<title>ragger.firmware.touch.screen&#45;&gt;ragger.firmware.touch.layouts</title>
<path fill="none" stroke="black" d="M741.5,-324.3C741.5,-332.02 741.5,-341.29 741.5,-349.89"/>
<polygon fill="black" stroke="black" points="741.5,-359.9 737,-349.9 741.5,-354.9 741.5,-349.9 741.5,-349.9 741.5,-349.9 741.5,-354.9 746,-349.9 741.5,-359.9 741.5,-359.9"/>
</g>
<!-- ragger.firmware.touch.use_cases -->
<g id="node24" class="node">
<title>ragger.firmware.touch.use_cases</title>
<polygon fill="#aaaa00" stroke="#aaaa00" points="607,-396 356,-396 356,-360 607,-360 607,-396"/>
<text text-anchor="middle" x="481.5" y="-374.3" font-family="Times,serif" font-size="14.00">ragger.firmware.touch.use_cases</text>
</g>
<!-- ragger.firmware.touch.screen&#45;&gt;ragger.firmware.touch.use_cases -->
<g id="edge45" class="edge">
<title>ragger.firmware.touch.screen&#45;&gt;ragger.firmware.touch.use_cases</title>
<path fill="none" stroke="black" d="M678.23,-324.03C640.95,-334.07 593.64,-346.81 554.75,-357.28"/>
<polygon fill="black" stroke="black" points="545.05,-359.89 553.54,-352.94 549.88,-358.59 554.71,-357.29 554.71,-357.29 554.71,-357.29 549.88,-358.59 555.88,-361.63 545.05,-359.89 545.05,-359.89"/>
</g>
<!-- ragger.firmware.touch.use_cases&#45;&gt;ragger.firmware.touch.element -->
<g id="edge46" class="edge">
<title>ragger.firmware.touch.use_cases&#45;&gt;ragger.firmware.touch.element</title>
<path fill="none" stroke="black" d="M481.5,-396.3C481.5,-404.02 481.5,-413.29 481.5,-421.89"/>
<polygon fill="black" stroke="black" points="481.5,-431.9 477,-421.9 481.5,-426.9 481.5,-421.9 481.5,-421.9 481.5,-421.9 481.5,-426.9 486,-421.9 481.5,-431.9 481.5,-431.9"/>
</g>
<!-- ragger.gui.process -->
<g id="node27" class="node">
<title>ragger.gui.process</title>
<polygon fill="#eedd88" stroke="#eedd88" points="614,-828 465,-828 465,-792 614,-792 614,-828"/>
<text text-anchor="middle" x="539.5" y="-806.3" font-family="Times,serif" font-size="14.00">ragger.gui.process</text>
</g>
<!-- ragger.gui&#45;&gt;ragger.gui.process -->
<g id="edge47" class="edge">
<title>ragger.gui&#45;&gt;ragger.gui.process</title>
<path fill="none" stroke="black" d="M517.67,-756.3C520.93,-764.19 524.87,-773.7 528.5,-782.45"/>
<polygon fill="black" stroke="black" points="532.41,-791.9 524.43,-784.38 530.5,-787.28 528.59,-782.66 528.59,-782.66 528.59,-782.66 530.5,-787.28 532.74,-780.93 532.41,-791.9 532.41,-791.9"/>
</g>
<!-- ragger.gui.interface -->
<g id="node26" class="node">
<title>ragger.gui.interface</title>
<polygon fill="#eedd88" stroke="#eedd88" points="677.5,-900 519.5,-900 519.5,-864 677.5,-864 677.5,-900"/>
<text text-anchor="middle" x="598.5" y="-878.3" font-family="Times,serif" font-size="14.00">ragger.gui.interface</text>
</g>
<!-- ragger.gui.interface&#45;&gt;ragger.logger -->
<g id="edge48" class="edge">
<title>ragger.gui.interface&#45;&gt;ragger.logger</title>
<path fill="none" stroke="black" d="M598.5,-900.3C598.5,-908.02 598.5,-917.29 598.5,-925.89"/>
<polygon fill="black" stroke="black" points="598.5,-935.9 594,-925.9 598.5,-930.9 598.5,-925.9 598.5,-925.9 598.5,-925.9 598.5,-930.9 603,-925.9 598.5,-935.9 598.5,-935.9"/>
</g>
<!-- ragger.gui.process&#45;&gt;ragger.gui.interface -->
<g id="edge49" class="edge">
<title>ragger.gui.process&#45;&gt;ragger.gui.interface</title>
<path fill="none" stroke="black" d="M554.08,-828.3C561.16,-836.7 569.78,-846.93 577.55,-856.14"/>
<polygon fill="black" stroke="black" points="584.08,-863.9 574.2,-859.15 580.86,-860.07 577.64,-856.25 577.64,-856.25 577.64,-856.25 580.86,-860.07 581.08,-853.35 584.08,-863.9 584.08,-863.9"/>
</g>
<!-- ragger.gui.process&#45;&gt;ragger.logger -->
<g id="edge50" class="edge">
<title>ragger.gui.process&#45;&gt;ragger.logger</title>
<path fill="none" stroke="black" d="M525.88,-828.23C512.98,-846.8 497.39,-876.8 510.5,-900 517.84,-912.99 529.79,-923.16 542.54,-930.95"/>
<polygon fill="black" stroke="black" points="551.46,-935.97 540.54,-934.98 547.1,-933.52 542.75,-931.06 542.75,-931.06 542.75,-931.06 547.1,-933.52 544.95,-927.14 551.46,-935.97 551.46,-935.97"/>
</g>
<!-- ragger.gui.process&#45;&gt;ragger.navigator.instruction -->
<g id="edge51" class="edge">
<title>ragger.gui.process&#45;&gt;ragger.navigator.instruction</title>
<path fill="none" stroke="black" d="M494.24,-828.12C468.5,-837.86 436.09,-850.13 408.96,-860.39"/>
<polygon fill="black" stroke="black" points="399.61,-863.93 407.37,-856.18 404.29,-862.16 408.96,-860.39 408.96,-860.39 408.96,-860.39 404.29,-862.16 410.55,-864.6 399.61,-863.93 399.61,-863.93"/>
</g>
<!-- ragger.navigator&#45;&gt;ragger.navigator.instruction -->
<g id="edge52" class="edge">
<title>ragger.navigator&#45;&gt;ragger.navigator.instruction</title>
<path fill="none" stroke="black" d="M979.29,-96C786.5,-111.02 251.5,-159.35 251.5,-233 251.5,-233 251.5,-233 251.5,-739 251.5,-788.34 292.76,-832.11 323.05,-857.59"/>
<polygon fill="black" stroke="black" points="330.87,-863.97 320.28,-861.14 327,-860.81 323.12,-857.65 323.12,-857.65 323.12,-857.65 327,-860.81 325.97,-854.16 330.87,-863.97 330.87,-863.97"/>
</g>
<!-- ragger.navigator.nano_navigator -->
<g id="node31" class="node">
<title>ragger.navigator.nano_navigator</title>
<polygon fill="#ee8866" stroke="#ee8866" points="1276.5,-396 1028.5,-396 1028.5,-360 1276.5,-360 1276.5,-396"/>
<text text-anchor="middle" x="1152.5" y="-374.3" font-family="Times,serif" font-size="14.00">ragger.navigator.nano_navigator</text>
</g>
<!-- ragger.navigator&#45;&gt;ragger.navigator.nano_navigator -->
<g id="edge53" class="edge">
<title>ragger.navigator&#45;&gt;ragger.navigator.nano_navigator</title>
<path fill="none" stroke="black" d="M1053.75,-108.03C1071.33,-155.91 1121.27,-291.94 1142.62,-350.1"/>
<polygon fill="black" stroke="black" points="1146.15,-359.69 1138.48,-351.86 1144.42,-355 1142.7,-350.31 1142.7,-350.31 1142.7,-350.31 1144.42,-355 1146.92,-348.76 1146.15,-359.69 1146.15,-359.69"/>
</g>
<!-- ragger.navigator.navigation_scenario -->
<g id="node32" class="node">
<title>ragger.navigator.navigation_scenario</title>
<polygon fill="#ee8866" stroke="#ee8866" points="1576,-396 1295,-396 1295,-360 1576,-360 1576,-396"/>
<text text-anchor="middle" x="1435.5" y="-374.3" font-family="Times,serif" font-size="14.00">ragger.navigator.navigation_scenario</text>
</g>
<!-- ragger.navigator&#45;&gt;ragger.navigator.navigation_scenario -->
<g id="edge54" class="edge">
<title>ragger.navigator&#45;&gt;ragger.navigator.navigation_scenario</title>
<path fill="none" stroke="black" d="M1070.61,-108.03C1136.9,-156.9 1327.8,-297.61 1403.76,-353.61"/>
<polygon fill="black" stroke="black" points="1412.02,-359.69 1401.3,-357.38 1408,-356.73 1403.97,-353.76 1403.97,-353.76 1403.97,-353.76 1408,-356.73 1406.64,-350.14 1412.02,-359.69 1412.02,-359.69"/>
</g>
<!-- ragger.navigator.navigator -->
<g id="node33" class="node">
<title>ragger.navigator.navigator</title>
<polygon fill="#ee8866" stroke="#ee8866" points="1160,-468 953,-468 953,-432 1160,-432 1160,-468"/>
<text text-anchor="middle" x="1056.5" y="-446.3" font-family="Times,serif" font-size="14.00">ragger.navigator.navigator</text>
</g>
<!-- ragger.navigator&#45;&gt;ragger.navigator.navigator -->
<g id="edge55" class="edge">
<title>ragger.navigator&#45;&gt;ragger.navigator.navigator</title>
<path fill="none" stroke="black" d="M1037.76,-108.32C1023.99,-134.47 1000.5,-186 1000.5,-233 1000.5,-233 1000.5,-233 1000.5,-307 1000.5,-347.45 1003.38,-358.9 1019.5,-396 1023.68,-405.62 1029.75,-415.29 1035.76,-423.68"/>
<polygon fill="black" stroke="black" points="1041.93,-431.91 1032.33,-426.61 1038.93,-427.91 1035.93,-423.91 1035.93,-423.91 1035.93,-423.91 1038.93,-427.91 1039.53,-421.21 1041.93,-431.91 1041.93,-431.91"/>
</g>
<!-- ragger.navigator.touch_navigator -->
<g id="node34" class="node">
<title>ragger.navigator.touch_navigator</title>
<polygon fill="#ee8866" stroke="#ee8866" points="972.5,-180 718.5,-180 718.5,-144 972.5,-144 972.5,-180"/>
<text text-anchor="middle" x="845.5" y="-158.3" font-family="Times,serif" font-size="14.00">ragger.navigator.touch_navigator</text>
</g>
<!-- ragger.navigator&#45;&gt;ragger.navigator.touch_navigator -->
<g id="edge56" class="edge">
<title>ragger.navigator&#45;&gt;ragger.navigator.touch_navigator</title>
<path fill="none" stroke="black" d="M998.34,-108.03C970,-117.86 934.18,-130.27 904.34,-140.61"/>
<polygon fill="black" stroke="black" points="894.88,-143.89 902.85,-136.36 899.6,-142.25 904.33,-140.61 904.33,-140.61 904.33,-140.61 899.6,-142.25 905.8,-144.87 894.88,-143.89 894.88,-143.89"/>
</g>
<!-- ragger.navigator.nano_navigator&#45;&gt;ragger.backend -->
<g id="edge57" class="edge">
<title>ragger.navigator.nano_navigator&#45;&gt;ragger.backend</title>
<path fill="none" stroke="black" d="M1160.34,-396.04C1167.59,-414.18 1176.18,-443.59 1168.5,-468 1165.4,-477.85 1159.75,-487.47 1153.78,-495.75"/>
<polygon fill="black" stroke="black" points="1147.54,-503.85 1150.08,-493.18 1150.59,-499.89 1153.64,-495.93 1153.64,-495.93 1153.64,-495.93 1150.59,-499.89 1157.21,-498.67 1147.54,-503.85 1147.54,-503.85"/>
</g>
<!-- ragger.navigator.nano_navigator&#45;&gt;ragger.navigator.navigator -->
<g id="edge58" class="edge">
<title>ragger.navigator.nano_navigator&#45;&gt;ragger.navigator.navigator</title>
<path fill="none" stroke="black" d="M1128.77,-396.3C1116.56,-405.2 1101.51,-416.18 1088.32,-425.8"/>
<polygon fill="black" stroke="black" points="1079.96,-431.9 1085.39,-422.37 1084,-428.95 1088.04,-426 1088.04,-426 1088.04,-426 1084,-428.95 1090.69,-429.64 1079.96,-431.9 1079.96,-431.9"/>
</g>
<!-- ragger.navigator.navigation_scenario&#45;&gt;ragger.backend -->
<g id="edge59" class="edge">
<title>ragger.navigator.navigation_scenario&#45;&gt;ragger.backend</title>
<path fill="none" stroke="black" d="M1398.83,-396.13C1343.37,-422.04 1238.21,-471.16 1177.63,-499.45"/>
<polygon fill="black" stroke="black" points="1168.3,-503.81 1175.46,-495.5 1172.83,-501.69 1177.36,-499.58 1177.36,-499.58 1177.36,-499.58 1172.83,-501.69 1179.26,-503.66 1168.3,-503.81 1168.3,-503.81"/>
</g>
<!-- ragger.navigator.navigation_scenario&#45;&gt;ragger.backend.interface -->
<g id="edge60" class="edge">
<title>ragger.navigator.navigation_scenario&#45;&gt;ragger.backend.interface</title>
<path fill="none" stroke="black" d="M1466.89,-396.06C1504.5,-419.05 1562.5,-463.78 1562.5,-521 1562.5,-521 1562.5,-521 1562.5,-595 1562.5,-638.37 1552.75,-652.93 1522.5,-684 1509.46,-697.39 1492.35,-707.85 1475.53,-715.8"/>
<polygon fill="black" stroke="black" points="1466.24,-719.96 1473.52,-711.76 1470.8,-717.91 1475.36,-715.87 1475.36,-715.87 1475.36,-715.87 1470.8,-717.91 1477.2,-719.98 1466.24,-719.96 1466.24,-719.96"/>
</g>
<!-- ragger.navigator.navigation_scenario&#45;&gt;ragger.navigator.navigator -->
<g id="edge61" class="edge">
<title>ragger.navigator.navigation_scenario&#45;&gt;ragger.navigator.navigator</title>
<path fill="none" stroke="black" d="M1343.27,-396.03C1287.45,-406.34 1216.18,-419.51 1158.65,-430.13"/>
<polygon fill="black" stroke="black" points="1148.81,-431.95 1157.83,-425.71 1153.73,-431.04 1158.65,-430.13 1158.65,-430.13 1158.65,-430.13 1153.73,-431.04 1159.46,-434.56 1148.81,-431.95 1148.81,-431.95"/>
</g>
<!-- ragger.navigator.navigator&#45;&gt;ragger.backend -->
<g id="edge62" class="edge">
<title>ragger.navigator.navigator&#45;&gt;ragger.backend</title>
<path fill="none" stroke="black" d="M1075.04,-468.3C1084.3,-476.95 1095.66,-487.55 1105.76,-496.97"/>
<polygon fill="black" stroke="black" points="1113.17,-503.9 1102.79,-500.36 1109.52,-500.48 1105.86,-497.07 1105.86,-497.07 1105.86,-497.07 1109.52,-500.48 1108.93,-493.78 1113.17,-503.9 1113.17,-503.9"/>
</g>
<!-- ragger.navigator.navigator&#45;&gt;ragger.navigator.instruction -->
<g id="edge63" class="edge">
<title>ragger.navigator.navigator&#45;&gt;ragger.navigator.instruction</title>
<path fill="none" stroke="black" d="M952.76,-453.64C882.52,-458.59 788.95,-471.46 712.5,-504 566.91,-565.97 528.67,-596.71 429.5,-720 396.22,-761.37 373.78,-819.93 362.65,-853.83"/>
<polygon fill="black" stroke="black" points="359.56,-863.52 358.31,-852.62 361.08,-858.75 362.6,-853.99 362.6,-853.99 362.6,-853.99 361.08,-858.75 366.89,-855.36 359.56,-863.52 359.56,-863.52"/>
</g>
<!-- ragger.navigator.navigator&#45;&gt;ragger.utils -->
<g id="edge64" class="edge">
<title>ragger.navigator.navigator&#45;&gt;ragger.utils</title>
<path fill="none" stroke="black" d="M952.77,-467.91C837.53,-489.7 667.5,-532.16 667.5,-593 667.5,-593 667.5,-593 667.5,-667 667.5,-768.68 813.07,-797.56 897.94,-805.76"/>
<polygon fill="black" stroke="black" points="907.98,-806.66 897.61,-810.24 903,-806.21 898.02,-805.76 898.02,-805.76 898.02,-805.76 903,-806.21 898.42,-801.28 907.98,-806.66 907.98,-806.66"/>
</g>
<!-- ragger.navigator.touch_navigator&#45;&gt;ragger.backend -->
<g id="edge65" class="edge">
<title>ragger.navigator.touch_navigator&#45;&gt;ragger.backend</title>
<path fill="none" stroke="black" d="M862.64,-180.11C885.88,-205.2 924.5,-254.5 924.5,-305 924.5,-305 924.5,-305 924.5,-379 924.5,-419.45 915.84,-438.49 943.5,-468 972.67,-499.11 1018.55,-512.45 1057.68,-517.96"/>
<polygon fill="black" stroke="black" points="1068,-519.26 1057.51,-522.48 1063.03,-518.64 1058.07,-518.01 1058.07,-518.01 1058.07,-518.01 1063.03,-518.64 1058.64,-513.55 1068,-519.26 1068,-519.26"/>
</g>
<!-- ragger.navigator.touch_navigator&#45;&gt;ragger.firmware.touch -->
<g id="edge66" class="edge">
<title>ragger.navigator.touch_navigator&#45;&gt;ragger.firmware.touch</title>
<path fill="none" stroke="black" d="M828.2,-180.3C819.64,-188.86 809.16,-199.34 799.8,-208.7"/>
<polygon fill="black" stroke="black" points="792.6,-215.9 796.49,-205.64 796.14,-212.36 799.68,-208.82 799.68,-208.82 799.68,-208.82 796.14,-212.36 802.86,-212.01 792.6,-215.9 792.6,-215.9"/>
</g>
<!-- ragger.navigator.touch_navigator&#45;&gt;ragger.navigator.instruction -->
<g id="edge67" class="edge">
<title>ragger.navigator.touch_navigator&#45;&gt;ragger.navigator.instruction</title>
<path fill="none" stroke="black" d="M718.29,-170.11C554.17,-182.85 289.5,-217.02 289.5,-305 289.5,-305 289.5,-305 289.5,-739 289.5,-783.04 315.67,-828.36 334.79,-855.6"/>
<polygon fill="black" stroke="black" points="340.72,-863.79 331.21,-858.32 337.78,-859.74 334.85,-855.69 334.85,-855.69 334.85,-855.69 337.78,-859.74 338.5,-853.05 340.72,-863.79 340.72,-863.79"/>
</g>
<!-- ragger.navigator.touch_navigator&#45;&gt;ragger.navigator.navigator -->
<g id="edge68" class="edge">
<title>ragger.navigator.touch_navigator&#45;&gt;ragger.navigator.navigator</title>
<path fill="none" stroke="black" d="M891.48,-180.2C908.46,-188.63 926.47,-200.4 938.5,-216 989.05,-281.57 940.32,-327.28 986.5,-396 994.36,-407.7 1005.67,-417.85 1016.91,-426.06"/>
<polygon fill="black" stroke="black" points="1025.44,-431.95 1014.66,-429.97 1021.33,-429.11 1017.21,-426.27 1017.21,-426.27 1017.21,-426.27 1021.33,-429.11 1019.77,-422.57 1025.44,-431.95 1025.44,-431.95"/>
</g>
<!-- ragger.utils&#45;&gt;ragger.utils.misc -->
<g id="edge69" class="edge">
<title>ragger.utils&#45;&gt;ragger.utils.misc</title>
<path fill="none" stroke="black" d="M1007.07,-823.76C1047.99,-834.29 1106.72,-849.4 1153.56,-861.46"/>
<polygon fill="black" stroke="black" points="1163.36,-863.98 1152.56,-865.84 1158.52,-862.73 1153.68,-861.49 1153.68,-861.49 1153.68,-861.49 1158.52,-862.73 1154.8,-857.13 1163.36,-863.98 1163.36,-863.98"/>
</g>
<!-- ragger.utils.packing -->
<g id="node37" class="node">
<title>ragger.utils.packing</title>
<polygon fill="#ffaabb" stroke="#ffaabb" points="894,-900 735,-900 735,-864 894,-864 894,-900"/>
<text text-anchor="middle" x="814.5" y="-878.3" font-family="Times,serif" font-size="14.00">ragger.utils.packing</text>
</g>
<!-- ragger.utils&#45;&gt;ragger.utils.packing -->
<g id="edge70" class="edge">
<title>ragger.utils&#45;&gt;ragger.utils.packing</title>
<path fill="none" stroke="black" d="M922.52,-828.12C903.3,-837.53 879.27,-849.29 858.76,-859.33"/>
<polygon fill="black" stroke="black" points="849.62,-863.81 856.62,-855.37 854.11,-861.61 858.6,-859.41 858.6,-859.41 858.6,-859.41 854.11,-861.61 860.58,-863.46 849.62,-863.81 849.62,-863.81"/>
</g>
<!-- ragger.utils&#45;&gt;ragger.utils.structs -->
<g id="edge71" class="edge">
<title>ragger.utils&#45;&gt;ragger.utils.structs</title>
<path fill="none" stroke="black" d="M965.41,-828.3C969.05,-836.27 973.45,-845.9 977.49,-854.74"/>
<polygon fill="black" stroke="black" points="981.68,-863.9 973.43,-856.67 979.6,-859.35 977.52,-854.8 977.52,-854.8 977.52,-854.8 979.6,-859.35 981.62,-852.93 981.68,-863.9 981.68,-863.9"/>
</g>
<!-- ragger.utils.misc&#45;&gt;ragger.error -->
<g id="edge72" class="edge">
<title>ragger.utils.misc&#45;&gt;ragger.error</title>
<path fill="none" stroke="black" d="M1257.88,-900.12C1273.04,-909.28 1291.91,-920.66 1308.24,-930.52"/>
<polygon fill="black" stroke="black" points="1317.01,-935.81 1306.13,-934.5 1312.73,-933.23 1308.45,-930.64 1308.45,-930.64 1308.45,-930.64 1312.73,-933.23 1310.78,-926.79 1317.01,-935.81 1317.01,-935.81"/>
</g>
</g>
</svg>
