<?xml version="1.0" encoding="UTF-8" standalone="no"?>
<!DOCTYPE svg PUBLIC "-//W3C//DTD SVG 1.1//EN"
 "http://www.w3.org/Graphics/SVG/1.1/DTD/svg11.dtd">
<!-- Generated by graphviz version 2.43.0 (0)
 -->
<!-- Title: packages_generated_ragger_architecture Pages: 1 -->
<svg width="2334pt" height="980pt"
 viewBox="0.00 0.00 2334.00 980.00" xmlns="http://www.w3.org/2000/svg" xmlns:xlink="http://www.w3.org/1999/xlink">
<g id="graph0" class="graph" transform="scale(1 1) rotate(0) translate(4 976)">
<title>packages_generated_ragger_architecture</title>
<polygon fill="white" stroke="transparent" points="-4,4 -4,-976 2330,-976 2330,4 -4,4"/>
<!-- ragger -->
<g id="node1" class="node">
<title>ragger</title>
<polygon fill="#77aadd" stroke="#77aadd" points="386.5,-900 321.5,-900 321.5,-864 386.5,-864 386.5,-900"/>
<text text-anchor="middle" x="354" y="-878.3" font-family="Times,serif" font-size="14.00">ragger</text>
</g>
<!-- ragger.__version__ -->
<g id="node2" class="node">
<title>ragger.__version__</title>
<polygon fill="#77aadd" stroke="#77aadd" points="427.5,-972 280.5,-972 280.5,-936 427.5,-936 427.5,-972"/>
<text text-anchor="middle" x="354" y="-950.3" font-family="Times,serif" font-size="14.00">ragger.__version__</text>
</g>
<!-- ragger&#45;&gt;ragger.__version__ -->
<g id="edge1" class="edge">
<title>ragger&#45;&gt;ragger.__version__</title>
<path fill="none" stroke="black" d="M354,-900.3C354,-908.02 354,-917.29 354,-925.89"/>
<polygon fill="black" stroke="black" points="354,-935.9 349.5,-925.9 354,-930.9 354,-925.9 354,-925.9 354,-925.9 354,-930.9 358.5,-925.9 354,-935.9 354,-935.9"/>
</g>
<!-- ragger.logger -->
<g id="node28" class="node">
<title>ragger.logger</title>
<polygon fill="#77aadd" stroke="#77aadd" points="791.5,-972 678.5,-972 678.5,-936 791.5,-936 791.5,-972"/>
<text text-anchor="middle" x="735" y="-950.3" font-family="Times,serif" font-size="14.00">ragger.logger</text>
</g>
<!-- ragger&#45;&gt;ragger.logger -->
<g id="edge2" class="edge">
<title>ragger&#45;&gt;ragger.logger</title>
<path fill="none" stroke="black" d="M386.88,-897.42C389.6,-898.37 392.33,-899.25 395,-900 487.86,-926.09 598.84,-940.35 668.14,-947.33"/>
<polygon fill="black" stroke="black" points="678.47,-948.34 668.08,-951.84 673.49,-947.85 668.52,-947.36 668.52,-947.36 668.52,-947.36 673.49,-947.85 668.96,-942.89 678.47,-948.34 678.47,-948.34"/>
</g>
<!-- ragger.backend -->
<g id="node3" class="node">
<title>ragger.backend</title>
<polygon fill="#99ddff" stroke="#99ddff" points="955.5,-540 828.5,-540 828.5,-504 955.5,-504 955.5,-540"/>
<text text-anchor="middle" x="892" y="-518.3" font-family="Times,serif" font-size="14.00">ragger.backend</text>
</g>
<!-- ragger.backend.interface -->
<g id="node4" class="node">
<title>ragger.backend.interface</title>
<polygon fill="#99ddff" stroke="#99ddff" points="971.5,-756 776.5,-756 776.5,-720 971.5,-720 971.5,-756"/>
<text text-anchor="middle" x="874" y="-734.3" font-family="Times,serif" font-size="14.00">ragger.backend.interface</text>
</g>
<!-- ragger.backend&#45;&gt;ragger.backend.interface -->
<g id="edge3" class="edge">
<title>ragger.backend&#45;&gt;ragger.backend.interface</title>
<path fill="none" stroke="black" d="M881.76,-540.03C868.36,-563.4 845.59,-607.16 837,-648 833.71,-663.66 832.2,-668.74 837,-684 840.1,-693.85 845.75,-703.47 851.72,-711.75"/>
<polygon fill="black" stroke="black" points="857.96,-719.85 848.29,-714.67 854.91,-715.89 851.86,-711.93 851.86,-711.93 851.86,-711.93 854.91,-715.89 855.42,-709.18 857.96,-719.85 857.96,-719.85"/>
</g>
<!-- ragger.backend.ledgercomm -->
<g id="node5" class="node">
<title>ragger.backend.ledgercomm</title>
<polygon fill="#99ddff" stroke="#99ddff" points="1380,-612 1160,-612 1160,-576 1380,-576 1380,-612"/>
<text text-anchor="middle" x="1270" y="-590.3" font-family="Times,serif" font-size="14.00">ragger.backend.ledgercomm</text>
</g>
<!-- ragger.backend&#45;&gt;ragger.backend.ledgercomm -->
<g id="edge4" class="edge">
<title>ragger.backend&#45;&gt;ragger.backend.ledgercomm</title>
<path fill="none" stroke="black" d="M955.7,-534.8C1013.75,-545.55 1100.52,-561.61 1168.19,-574.15"/>
<polygon fill="black" stroke="black" points="1178.03,-575.97 1167.38,-578.57 1173.11,-575.06 1168.2,-574.15 1168.2,-574.15 1168.2,-574.15 1173.11,-575.06 1169.02,-569.72 1178.03,-575.97 1178.03,-575.97"/>
</g>
<!-- ragger.backend.ledgerwallet -->
<g id="node6" class="node">
<title>ragger.backend.ledgerwallet</title>
<polygon fill="#99ddff" stroke="#99ddff" points="1141.5,-612 920.5,-612 920.5,-576 1141.5,-576 1141.5,-612"/>
<text text-anchor="middle" x="1031" y="-590.3" font-family="Times,serif" font-size="14.00">ragger.backend.ledgerwallet</text>
</g>
<!-- ragger.backend&#45;&gt;ragger.backend.ledgerwallet -->
<g id="edge5" class="edge">
<title>ragger.backend&#45;&gt;ragger.backend.ledgerwallet</title>
<path fill="none" stroke="black" d="M926,-540.12C944.6,-549.49 967.83,-561.19 987.71,-571.2"/>
<polygon fill="black" stroke="black" points="996.87,-575.81 985.91,-575.33 992.4,-573.56 987.93,-571.31 987.93,-571.31 987.93,-571.31 992.4,-573.56 989.96,-567.29 996.87,-575.81 996.87,-575.81"/>
</g>
<!-- ragger.backend.speculos -->
<g id="node8" class="node">
<title>ragger.backend.speculos</title>
<polygon fill="#99ddff" stroke="#99ddff" points="789.5,-684 596.5,-684 596.5,-648 789.5,-648 789.5,-684"/>
<text text-anchor="middle" x="693" y="-662.3" font-family="Times,serif" font-size="14.00">ragger.backend.speculos</text>
</g>
<!-- ragger.backend&#45;&gt;ragger.backend.speculos -->
<g id="edge6" class="edge">
<title>ragger.backend&#45;&gt;ragger.backend.speculos</title>
<path fill="none" stroke="black" d="M861.23,-540.18C844.04,-550.11 822.43,-563.15 804,-576 774.41,-596.64 742.45,-622.7 720.46,-641.27"/>
<polygon fill="black" stroke="black" points="712.83,-647.76 717.54,-637.85 716.64,-644.52 720.45,-641.28 720.45,-641.28 720.45,-641.28 716.64,-644.52 723.36,-644.71 712.83,-647.76 712.83,-647.76"/>
</g>
<!-- ragger.backend.stub -->
<g id="node9" class="node">
<title>ragger.backend.stub</title>
<polygon fill="#99ddff" stroke="#99ddff" points="1009.5,-684 846.5,-684 846.5,-648 1009.5,-648 1009.5,-684"/>
<text text-anchor="middle" x="928" y="-662.3" font-family="Times,serif" font-size="14.00">ragger.backend.stub</text>
</g>
<!-- ragger.backend&#45;&gt;ragger.backend.stub -->
<g id="edge7" class="edge">
<title>ragger.backend&#45;&gt;ragger.backend.stub</title>
<path fill="none" stroke="black" d="M895.14,-540.18C898.55,-558.2 904.41,-587.27 911,-612 913.3,-620.63 916.15,-629.94 918.86,-638.31"/>
<polygon fill="black" stroke="black" points="922.05,-647.94 914.64,-639.86 920.48,-643.2 918.91,-638.45 918.91,-638.45 918.91,-638.45 920.48,-643.2 923.18,-637.04 922.05,-647.94 922.05,-647.94"/>
</g>
<!-- ragger.firmware -->
<g id="node17" class="node">
<title>ragger.firmware</title>
<polygon fill="#aaaa00" stroke="#aaaa00" points="539,-828 407,-828 407,-792 539,-792 539,-828"/>
<text text-anchor="middle" x="473" y="-806.3" font-family="Times,serif" font-size="14.00">ragger.firmware</text>
</g>
<!-- ragger.backend.interface&#45;&gt;ragger.firmware -->
<g id="edge8" class="edge">
<title>ragger.backend.interface&#45;&gt;ragger.firmware</title>
<path fill="none" stroke="black" d="M776.42,-756.03C706.55,-768.23 613.8,-784.42 549.32,-795.68"/>
<polygon fill="black" stroke="black" points="539.23,-797.44 548.3,-791.29 544.15,-796.58 549.08,-795.72 549.08,-795.72 549.08,-795.72 544.15,-796.58 549.85,-800.15 539.23,-797.44 539.23,-797.44"/>
</g>
<!-- ragger.backend.interface&#45;&gt;ragger.logger -->
<g id="edge9" class="edge">
<title>ragger.backend.interface&#45;&gt;ragger.logger</title>
<path fill="none" stroke="black" d="M813.85,-756.02C791.53,-764.36 767.04,-776.11 748,-792 707.8,-825.54 686.27,-849.77 701,-900 703.8,-909.55 708.91,-919.02 714.33,-927.24"/>
<polygon fill="black" stroke="black" points="720.25,-935.63 710.81,-930.05 717.37,-931.55 714.49,-927.46 714.49,-927.46 714.49,-927.46 717.37,-931.55 718.16,-924.87 720.25,-935.63 720.25,-935.63"/>
</g>
<!-- ragger.utils -->
<g id="node35" class="node">
<title>ragger.utils</title>
<polygon fill="#ffaabb" stroke="#ffaabb" points="1342.5,-828 1243.5,-828 1243.5,-792 1342.5,-792 1342.5,-828"/>
<text text-anchor="middle" x="1293" y="-806.3" font-family="Times,serif" font-size="14.00">ragger.utils</text>
</g>
<!-- ragger.backend.interface&#45;&gt;ragger.utils -->
<g id="edge10" class="edge">
<title>ragger.backend.interface&#45;&gt;ragger.utils</title>
<path fill="none" stroke="black" d="M971.71,-755.32C1052.67,-768.85 1165.14,-787.64 1233.29,-799.02"/>
<polygon fill="black" stroke="black" points="1243.42,-800.72 1232.81,-803.51 1238.49,-799.89 1233.56,-799.07 1233.56,-799.07 1233.56,-799.07 1238.49,-799.89 1234.3,-794.63 1243.42,-800.72 1243.42,-800.72"/>
</g>
<!-- ragger.backend.ledgercomm&#45;&gt;ragger.backend.ledgercomm -->
<g id="edge11" class="edge">
<title>ragger.backend.ledgercomm&#45;&gt;ragger.backend.ledgercomm</title>
<path fill="none" stroke="black" d="M1380.15,-582.99C1391.06,-585.2 1398,-588.87 1398,-594 1398,-597.37 1395.01,-600.11 1389.87,-602.21"/>
<polygon fill="black" stroke="black" points="1380.15,-605.01 1388.52,-597.92 1384.96,-603.63 1389.76,-602.25 1389.76,-602.25 1389.76,-602.25 1384.96,-603.63 1391.01,-606.57 1380.15,-605.01 1380.15,-605.01"/>
</g>
<!-- ragger.backend.physical_backend -->
<g id="node7" class="node">
<title>ragger.backend.physical_backend</title>
<polygon fill="#99ddff" stroke="#99ddff" points="1284,-684 1028,-684 1028,-648 1284,-648 1284,-684"/>
<text text-anchor="middle" x="1156" y="-662.3" font-family="Times,serif" font-size="14.00">ragger.backend.physical_backend</text>
</g>
<!-- ragger.backend.ledgercomm&#45;&gt;ragger.backend.physical_backend -->
<g id="edge12" class="edge">
<title>ragger.backend.ledgercomm&#45;&gt;ragger.backend.physical_backend</title>
<path fill="none" stroke="black" d="M1242.11,-612.12C1227.21,-621.28 1208.67,-632.66 1192.62,-642.52"/>
<polygon fill="black" stroke="black" points="1183.99,-647.81 1190.16,-638.74 1188.26,-645.19 1192.52,-642.58 1192.52,-642.58 1192.52,-642.58 1188.26,-645.19 1194.87,-646.41 1183.99,-647.81 1183.99,-647.81"/>
</g>
<!-- ragger.error -->
<g id="node16" class="node">
<title>ragger.error</title>
<polygon fill="#77aadd" stroke="#77aadd" points="1754,-972 1650,-972 1650,-936 1754,-936 1754,-972"/>
<text text-anchor="middle" x="1702" y="-950.3" font-family="Times,serif" font-size="14.00">ragger.error</text>
</g>
<!-- ragger.backend.ledgercomm&#45;&gt;ragger.error -->
<g id="edge13" class="edge">
<title>ragger.backend.ledgercomm&#45;&gt;ragger.error</title>
<path fill="none" stroke="black" d="M1360.86,-612.04C1481.22,-640.25 1687.36,-709.68 1765,-864 1772.19,-878.29 1771.75,-885.49 1765,-900 1759.57,-911.66 1750.18,-921.66 1740.28,-929.74"/>
<polygon fill="black" stroke="black" points="1732.3,-935.8 1737.54,-926.17 1736.28,-932.78 1740.26,-929.76 1740.26,-929.76 1740.26,-929.76 1736.28,-932.78 1742.99,-933.34 1732.3,-935.8 1732.3,-935.8"/>
</g>
<!-- ragger.backend.ledgercomm&#45;&gt;ragger.firmware -->
<g id="edge14" class="edge">
<title>ragger.backend.ledgercomm&#45;&gt;ragger.firmware</title>
<path fill="none" stroke="black" d="M1159.86,-610.94C1156.54,-611.31 1153.24,-611.67 1150,-612 1087.64,-618.4 639.98,-614.5 587,-648 540.59,-677.34 560.27,-712.32 527,-756 519.23,-766.21 509.53,-776.34 500.5,-784.97"/>
<polygon fill="black" stroke="black" points="493.13,-791.83 497.38,-781.72 496.79,-788.42 500.45,-785.01 500.45,-785.01 500.45,-785.01 496.79,-788.42 503.52,-788.31 493.13,-791.83 493.13,-791.83"/>
</g>
<!-- ragger.backend.ledgercomm&#45;&gt;ragger.utils -->
<g id="edge15" class="edge">
<title>ragger.backend.ledgercomm&#45;&gt;ragger.utils</title>
<path fill="none" stroke="black" d="M1296.12,-612.18C1307.58,-621.31 1319.81,-633.61 1326,-648 1344.98,-692.09 1339.19,-709.85 1326,-756 1323.29,-765.49 1318.33,-774.94 1313.07,-783.17"/>
<polygon fill="black" stroke="black" points="1307.33,-791.57 1309.25,-780.77 1310.15,-787.44 1312.97,-783.31 1312.97,-783.31 1312.97,-783.31 1310.15,-787.44 1316.68,-785.85 1307.33,-791.57 1307.33,-791.57"/>
</g>
<!-- ragger.backend.ledgerwallet&#45;&gt;ragger.backend.physical_backend -->
<g id="edge16" class="edge">
<title>ragger.backend.ledgerwallet&#45;&gt;ragger.backend.physical_backend</title>
<path fill="none" stroke="black" d="M1061.58,-612.12C1078.07,-621.36 1098.62,-632.87 1116.34,-642.79"/>
<polygon fill="black" stroke="black" points="1125.3,-647.81 1114.38,-646.85 1120.94,-645.37 1116.58,-642.92 1116.58,-642.92 1116.58,-642.92 1120.94,-645.37 1118.78,-639 1125.3,-647.81 1125.3,-647.81"/>
</g>
<!-- ragger.backend.ledgerwallet&#45;&gt;ragger.error -->
<g id="edge17" class="edge">
<title>ragger.backend.ledgerwallet&#45;&gt;ragger.error</title>
<path fill="none" stroke="black" d="M1141.03,-612.03C1206.96,-622.9 1284,-636.97 1316,-648 1414.29,-681.87 1677.06,-775.12 1731,-864 1742.95,-883.7 1732.77,-908.88 1721.3,-927.43"/>
<polygon fill="black" stroke="black" points="1715.66,-935.95 1717.43,-925.12 1718.42,-931.78 1721.18,-927.61 1721.18,-927.61 1721.18,-927.61 1718.42,-931.78 1724.93,-930.09 1715.66,-935.95 1715.66,-935.95"/>
</g>
<!-- ragger.backend.ledgerwallet&#45;&gt;ragger.firmware -->
<g id="edge18" class="edge">
<title>ragger.backend.ledgerwallet&#45;&gt;ragger.firmware</title>
<path fill="none" stroke="black" d="M920.41,-594.84C797.98,-596.78 610.45,-606.7 554,-648 511.61,-679.01 530.61,-709.59 506,-756 501.23,-765 495.51,-774.54 490.19,-783"/>
<polygon fill="black" stroke="black" points="484.63,-791.69 486.22,-780.84 487.32,-787.48 490.02,-783.27 490.02,-783.27 490.02,-783.27 487.32,-787.48 493.81,-785.7 484.63,-791.69 484.63,-791.69"/>
</g>
<!-- ragger.backend.ledgerwallet&#45;&gt;ragger.utils -->
<g id="edge19" class="edge">
<title>ragger.backend.ledgerwallet&#45;&gt;ragger.utils</title>
<path fill="none" stroke="black" d="M1141.68,-610.73C1208.61,-621.38 1282.94,-635.7 1293,-648 1323.93,-685.81 1312.63,-747.02 1302.35,-782.07"/>
<polygon fill="black" stroke="black" points="1299.37,-791.63 1298.04,-780.75 1300.86,-786.86 1302.34,-782.08 1302.34,-782.08 1302.34,-782.08 1300.86,-786.86 1306.64,-783.42 1299.37,-791.63 1299.37,-791.63"/>
</g>
<!-- ragger.backend.physical_backend&#45;&gt;ragger.backend.interface -->
<g id="edge20" class="edge">
<title>ragger.backend.physical_backend&#45;&gt;ragger.backend.interface</title>
<path fill="none" stroke="black" d="M1087.38,-684.03C1046.69,-694.13 994.97,-706.97 952.64,-717.48"/>
<polygon fill="black" stroke="black" points="942.93,-719.89 951.55,-713.11 947.78,-718.68 952.64,-717.48 952.64,-717.48 952.64,-717.48 947.78,-718.68 953.72,-721.85 942.93,-719.89 942.93,-719.89"/>
</g>
<!-- ragger.backend.physical_backend&#45;&gt;ragger.firmware -->
<g id="edge21" class="edge">
<title>ragger.backend.physical_backend&#45;&gt;ragger.firmware</title>
<path fill="none" stroke="black" d="M1096.87,-684.01C1071.51,-692.72 1042.21,-704.74 1018,-720 998.32,-732.41 1001.13,-746.27 980,-756 941.85,-773.55 681.57,-794.21 549.51,-803.72"/>
<polygon fill="black" stroke="black" points="539.46,-804.44 549.11,-799.24 544.45,-804.09 549.43,-803.73 549.43,-803.73 549.43,-803.73 544.45,-804.09 549.75,-808.22 539.46,-804.44 539.46,-804.44"/>
</g>
<!-- ragger.gui -->
<g id="node25" class="node">
<title>ragger.gui</title>
<polygon fill="#eedd88" stroke="#eedd88" points="1117,-756 1027,-756 1027,-720 1117,-720 1117,-756"/>
<text text-anchor="middle" x="1072" y="-734.3" font-family="Times,serif" font-size="14.00">ragger.gui</text>
</g>
<!-- ragger.backend.physical_backend&#45;&gt;ragger.gui -->
<g id="edge22" class="edge">
<title>ragger.backend.physical_backend&#45;&gt;ragger.gui</title>
<path fill="none" stroke="black" d="M1135.24,-684.3C1124.76,-693.03 1111.89,-703.76 1100.5,-713.25"/>
<polygon fill="black" stroke="black" points="1092.53,-719.9 1097.33,-710.04 1096.37,-716.69 1100.21,-713.49 1100.21,-713.49 1100.21,-713.49 1096.37,-716.69 1103.09,-716.95 1092.53,-719.9 1092.53,-719.9"/>
</g>
<!-- ragger.navigator.instruction -->
<g id="node30" class="node">
<title>ragger.navigator.instruction</title>
<polygon fill="#ee8866" stroke="#ee8866" points="1528.5,-900 1311.5,-900 1311.5,-864 1528.5,-864 1528.5,-900"/>
<text text-anchor="middle" x="1420" y="-878.3" font-family="Times,serif" font-size="14.00">ragger.navigator.instruction</text>
</g>
<!-- ragger.backend.physical_backend&#45;&gt;ragger.navigator.instruction -->
<g id="edge23" class="edge">
<title>ragger.backend.physical_backend&#45;&gt;ragger.navigator.instruction</title>
<path fill="none" stroke="black" d="M1159.45,-684.19C1166.97,-717.14 1187.98,-789.35 1234,-828 1253.29,-844.21 1277.26,-855.46 1301.5,-863.28"/>
<polygon fill="black" stroke="black" points="1311.15,-866.22 1300.28,-867.62 1306.37,-864.76 1301.59,-863.31 1301.59,-863.31 1301.59,-863.31 1306.37,-864.76 1302.89,-859.01 1311.15,-866.22 1311.15,-866.22"/>
</g>
<!-- ragger.backend.physical_backend&#45;&gt;ragger.utils -->
<g id="edge24" class="edge">
<title>ragger.backend.physical_backend&#45;&gt;ragger.utils</title>
<path fill="none" stroke="black" d="M1172.53,-684.13C1196.7,-709.18 1241.82,-755.95 1269.45,-784.59"/>
<polygon fill="black" stroke="black" points="1276.42,-791.81 1266.23,-787.74 1272.94,-788.21 1269.47,-784.61 1269.47,-784.61 1269.47,-784.61 1272.94,-788.21 1272.71,-781.49 1276.42,-791.81 1276.42,-791.81"/>
</g>
<!-- ragger.backend.speculos&#45;&gt;ragger.backend.interface -->
<g id="edge25" class="edge">
<title>ragger.backend.speculos&#45;&gt;ragger.backend.interface</title>
<path fill="none" stroke="black" d="M737.28,-684.12C762.35,-693.82 793.9,-706.02 820.37,-716.26"/>
<polygon fill="black" stroke="black" points="829.87,-719.93 818.92,-720.52 825.2,-718.13 820.54,-716.32 820.54,-716.32 820.54,-716.32 825.2,-718.13 822.16,-712.13 829.87,-719.93 829.87,-719.93"/>
</g>
<!-- ragger.backend.speculos&#45;&gt;ragger.error -->
<g id="edge26" class="edge">
<title>ragger.backend.speculos&#45;&gt;ragger.error</title>
<path fill="none" stroke="black" d="M694.22,-684.25C696.62,-704.58 703.77,-737.88 725,-756 790.38,-811.79 849.81,-735.99 915,-792 953.59,-825.16 912.54,-869.14 953,-900 1007.03,-941.2 1469.85,-950.45 1639.77,-952.46"/>
<polygon fill="black" stroke="black" points="1649.81,-952.57 1639.76,-956.96 1644.81,-952.52 1639.81,-952.46 1639.81,-952.46 1639.81,-952.46 1644.81,-952.52 1639.86,-947.96 1649.81,-952.57 1649.81,-952.57"/>
</g>
<!-- ragger.backend.speculos&#45;&gt;ragger.firmware -->
<g id="edge27" class="edge">
<title>ragger.backend.speculos&#45;&gt;ragger.firmware</title>
<path fill="none" stroke="black" d="M672.64,-684.24C645.94,-706.67 600.37,-744.38 582,-756 563.36,-767.8 541.7,-778.82 522.63,-787.73"/>
<polygon fill="black" stroke="black" points="513.5,-791.92 520.71,-783.66 518.04,-789.83 522.59,-787.75 522.59,-787.75 522.59,-787.75 518.04,-789.83 524.46,-791.84 513.5,-791.92 513.5,-791.92"/>
</g>
<!-- ragger.backend.speculos&#45;&gt;ragger.logger -->
<g id="edge28" class="edge">
<title>ragger.backend.speculos&#45;&gt;ragger.logger</title>
<path fill="none" stroke="black" d="M689.3,-684.01C681.51,-723.37 666.26,-823.21 693,-900 696.53,-910.14 702.91,-919.81 709.64,-928.04"/>
<polygon fill="black" stroke="black" points="716.4,-935.76 706.42,-931.2 713.1,-932 709.81,-928.23 709.81,-928.23 709.81,-928.23 713.1,-932 713.19,-925.27 716.4,-935.76 716.4,-935.76"/>
</g>
<!-- ragger.backend.speculos&#45;&gt;ragger.utils -->
<g id="edge29" class="edge">
<title>ragger.backend.speculos&#45;&gt;ragger.utils</title>
<path fill="none" stroke="black" d="M701.82,-684.22C713.57,-705.17 736.48,-739.77 767,-756 807.39,-777.48 1103.84,-797.64 1233.06,-805.52"/>
<polygon fill="black" stroke="black" points="1243.18,-806.13 1232.93,-810.02 1238.19,-805.83 1233.2,-805.53 1233.2,-805.53 1233.2,-805.53 1238.19,-805.83 1233.47,-801.03 1243.18,-806.13 1243.18,-806.13"/>
</g>
<!-- ragger.backend.stub&#45;&gt;ragger.backend.interface -->
<g id="edge30" class="edge">
<title>ragger.backend.stub&#45;&gt;ragger.backend.interface</title>
<path fill="none" stroke="black" d="M914.65,-684.3C908.24,-692.61 900.44,-702.72 893.39,-711.86"/>
<polygon fill="black" stroke="black" points="887.19,-719.9 889.74,-709.23 890.25,-715.94 893.3,-711.98 893.3,-711.98 893.3,-711.98 890.25,-715.94 896.87,-714.73 887.19,-719.9 887.19,-719.9"/>
</g>
<!-- ragger.utils.structs -->
<g id="node38" class="node">
<title>ragger.utils.structs</title>
<polygon fill="#ffaabb" stroke="#ffaabb" points="1116,-900 962,-900 962,-864 1116,-864 1116,-900"/>
<text text-anchor="middle" x="1039" y="-878.3" font-family="Times,serif" font-size="14.00">ragger.utils.structs</text>
</g>
<!-- ragger.backend.stub&#45;&gt;ragger.utils.structs -->
<g id="edge31" class="edge">
<title>ragger.backend.stub&#45;&gt;ragger.utils.structs</title>
<path fill="none" stroke="black" d="M1009.55,-683.95C1060.74,-695.41 1118.47,-710.19 1126,-720 1160.31,-764.71 1105.31,-824.76 1068.28,-857.42"/>
<polygon fill="black" stroke="black" points="1060.7,-863.96 1065.33,-854.03 1064.48,-860.7 1068.27,-857.43 1068.27,-857.43 1068.27,-857.43 1064.48,-860.7 1071.21,-860.84 1060.7,-863.96 1060.7,-863.96"/>
</g>
<!-- ragger.bip -->
<g id="node10" class="node">
<title>ragger.bip</title>
<polygon fill="#44bb99" stroke="#44bb99" points="1940,-36 1850,-36 1850,0 1940,0 1940,-36"/>
<text text-anchor="middle" x="1895" y="-14.3" font-family="Times,serif" font-size="14.00">ragger.bip</text>
</g>
<!-- ragger.bip.path -->
<g id="node11" class="node">
<title>ragger.bip.path</title>
<polygon fill="#44bb99" stroke="#44bb99" points="1885.5,-108 1758.5,-108 1758.5,-72 1885.5,-72 1885.5,-108"/>
<text text-anchor="middle" x="1822" y="-86.3" font-family="Times,serif" font-size="14.00">ragger.bip.path</text>
</g>
<!-- ragger.bip&#45;&gt;ragger.bip.path -->
<g id="edge32" class="edge">
<title>ragger.bip&#45;&gt;ragger.bip.path</title>
<path fill="none" stroke="black" d="M1876.96,-36.3C1867.94,-44.95 1856.88,-55.55 1847.06,-64.97"/>
<polygon fill="black" stroke="black" points="1839.84,-71.9 1843.94,-61.73 1843.45,-68.44 1847.06,-64.97 1847.06,-64.97 1847.06,-64.97 1843.45,-68.44 1850.17,-68.22 1839.84,-71.9 1839.84,-71.9"/>
</g>
<!-- ragger.bip.seed -->
<g id="node12" class="node">
<title>ragger.bip.seed</title>
<polygon fill="#44bb99" stroke="#44bb99" points="2032,-108 1904,-108 1904,-72 2032,-72 2032,-108"/>
<text text-anchor="middle" x="1968" y="-86.3" font-family="Times,serif" font-size="14.00">ragger.bip.seed</text>
</g>
<!-- ragger.bip&#45;&gt;ragger.bip.seed -->
<g id="edge33" class="edge">
<title>ragger.bip&#45;&gt;ragger.bip.seed</title>
<path fill="none" stroke="black" d="M1913.04,-36.3C1922.06,-44.95 1933.12,-55.55 1942.94,-64.97"/>
<polygon fill="black" stroke="black" points="1950.16,-71.9 1939.83,-68.22 1946.55,-68.44 1942.94,-64.97 1942.94,-64.97 1942.94,-64.97 1946.55,-68.44 1946.06,-61.73 1950.16,-71.9 1950.16,-71.9"/>
</g>
<!-- ragger.conftest -->
<g id="node13" class="node">
<title>ragger.conftest</title>
<polygon fill="#bbcc33" stroke="#bbcc33" points="2083.5,-36 1958.5,-36 1958.5,0 2083.5,0 2083.5,-36"/>
<text text-anchor="middle" x="2021" y="-14.3" font-family="Times,serif" font-size="14.00">ragger.conftest</text>
</g>
<!-- ragger.conftest.base_conftest -->
<g id="node14" class="node">
<title>ragger.conftest.base_conftest</title>
<polygon fill="#bbcc33" stroke="#bbcc33" points="1634.5,-36 1407.5,-36 1407.5,0 1634.5,0 1634.5,-36"/>
<text text-anchor="middle" x="1521" y="-14.3" font-family="Times,serif" font-size="14.00">ragger.conftest.base_conftest</text>
</g>
<!-- ragger.conftest.base_conftest&#45;&gt;ragger.backend -->
<g id="edge34" class="edge">
<title>ragger.conftest.base_conftest&#45;&gt;ragger.backend</title>
<path fill="none" stroke="black" d="M1521.94,-36.28C1524.62,-104.97 1524.28,-360.11 1380,-468 1316.25,-515.67 1085.69,-521.99 965.71,-521.92"/>
<polygon fill="black" stroke="black" points="955.51,-521.9 965.52,-517.42 960.51,-521.91 965.51,-521.92 965.51,-521.92 965.51,-521.92 960.51,-521.91 965.5,-526.42 955.51,-521.9 955.51,-521.9"/>
</g>
<!-- ragger.conftest.base_conftest&#45;&gt;ragger.firmware -->
<g id="edge35" class="edge">
<title>ragger.conftest.base_conftest&#45;&gt;ragger.firmware</title>
<path fill="none" stroke="black" d="M1407.3,-23.67C1054.19,-38.92 0,-90.35 0,-161 0,-161 0,-161 0,-667 0,-713.97 17.3,-730.89 57,-756 111.86,-790.7 292.12,-802.77 396.48,-806.91"/>
<polygon fill="black" stroke="black" points="406.64,-807.29 396.48,-811.41 401.65,-807.1 396.65,-806.91 396.65,-806.91 396.65,-806.91 401.65,-807.1 396.82,-802.42 406.64,-807.29 406.64,-807.29"/>
</g>
<!-- ragger.conftest.base_conftest&#45;&gt;ragger.logger -->
<g id="edge36" class="edge">
<title>ragger.conftest.base_conftest&#45;&gt;ragger.logger</title>
<path fill="none" stroke="black" d="M1554.56,-36.07C1593.96,-58.77 1654,-102.9 1654,-161 1654,-161 1654,-161 1654,-667 1654,-724.94 1585.28,-867.97 1537,-900 1476.44,-940.17 983.32,-950.06 801.77,-952.35"/>
<polygon fill="black" stroke="black" points="791.55,-952.48 801.5,-947.85 796.55,-952.41 801.55,-952.35 801.55,-952.35 801.55,-952.35 796.55,-952.41 801.61,-956.85 791.55,-952.48 791.55,-952.48"/>
</g>
<!-- ragger.navigator -->
<g id="node29" class="node">
<title>ragger.navigator</title>
<polygon fill="#ee8866" stroke="#ee8866" points="1465,-108 1329,-108 1329,-72 1465,-72 1465,-108"/>
<text text-anchor="middle" x="1397" y="-86.3" font-family="Times,serif" font-size="14.00">ragger.navigator</text>
</g>
<!-- ragger.conftest.base_conftest&#45;&gt;ragger.navigator -->
<g id="edge37" class="edge">
<title>ragger.conftest.base_conftest&#45;&gt;ragger.navigator</title>
<path fill="none" stroke="black" d="M1490.67,-36.12C1474.3,-45.36 1453.92,-56.87 1436.35,-66.79"/>
<polygon fill="black" stroke="black" points="1427.45,-71.81 1433.95,-62.98 1431.8,-69.35 1436.16,-66.89 1436.16,-66.89 1436.16,-66.89 1431.8,-69.35 1438.37,-70.81 1427.45,-71.81 1427.45,-71.81"/>
</g>
<!-- ragger.conftest.base_conftest&#45;&gt;ragger.utils -->
<g id="edge38" class="edge">
<title>ragger.conftest.base_conftest&#45;&gt;ragger.utils</title>
<path fill="none" stroke="black" d="M1524.84,-36.39C1530.4,-63.06 1540,-115.73 1540,-161 1540,-161 1540,-161 1540,-451 1540,-604.91 1483.75,-646.1 1376,-756 1364.41,-767.82 1349.72,-778.28 1335.93,-786.71"/>
<polygon fill="black" stroke="black" points="1327.04,-791.96 1333.37,-783 1331.35,-789.42 1335.65,-786.88 1335.65,-786.88 1335.65,-786.88 1331.35,-789.42 1337.94,-790.75 1327.04,-791.96 1327.04,-791.96"/>
</g>
<!-- ragger.utils.misc -->
<g id="node36" class="node">
<title>ragger.utils.misc</title>
<polygon fill="#ffaabb" stroke="#ffaabb" points="1722.5,-900 1585.5,-900 1585.5,-864 1722.5,-864 1722.5,-900"/>
<text text-anchor="middle" x="1654" y="-878.3" font-family="Times,serif" font-size="14.00">ragger.utils.misc</text>
</g>
<!-- ragger.conftest.base_conftest&#45;&gt;ragger.utils.misc -->
<g id="edge39" class="edge">
<title>ragger.conftest.base_conftest&#45;&gt;ragger.utils.misc</title>
<path fill="none" stroke="black" d="M1592.63,-36.02C1653.13,-55.17 1730,-92.9 1730,-161 1730,-161 1730,-161 1730,-739 1730,-784.36 1699.48,-829.25 1677.12,-856.05"/>
<polygon fill="black" stroke="black" points="1670.49,-863.77 1673.6,-853.26 1673.75,-859.98 1677.01,-856.19 1677.01,-856.19 1677.01,-856.19 1673.75,-859.98 1680.42,-859.12 1670.49,-863.77 1670.49,-863.77"/>
</g>
<!-- ragger.conftest.configuration -->
<g id="node15" class="node">
<title>ragger.conftest.configuration</title>
<polygon fill="#bbcc33" stroke="#bbcc33" points="2326,-36 2102,-36 2102,0 2326,0 2326,-36"/>
<text text-anchor="middle" x="2214" y="-14.3" font-family="Times,serif" font-size="14.00">ragger.conftest.configuration</text>
</g>
<!-- ragger.firmware.structs -->
<g id="node18" class="node">
<title>ragger.firmware.structs</title>
<polygon fill="#aaaa00" stroke="#aaaa00" points="591.5,-900 404.5,-900 404.5,-864 591.5,-864 591.5,-900"/>
<text text-anchor="middle" x="498" y="-878.3" font-family="Times,serif" font-size="14.00">ragger.firmware.structs</text>
</g>
<!-- ragger.firmware&#45;&gt;ragger.firmware.structs -->
<g id="edge40" class="edge">
<title>ragger.firmware&#45;&gt;ragger.firmware.structs</title>
<path fill="none" stroke="black" d="M479.18,-828.3C482,-836.19 485.39,-845.7 488.52,-854.45"/>
<polygon fill="black" stroke="black" points="491.89,-863.9 484.29,-855.99 490.21,-859.19 488.53,-854.48 488.53,-854.48 488.53,-854.48 490.21,-859.19 492.77,-852.96 491.89,-863.9 491.89,-863.9"/>
</g>
<!-- ragger.firmware.touch -->
<g id="node19" class="node">
<title>ragger.firmware.touch</title>
<polygon fill="#aaaa00" stroke="#aaaa00" points="518,-252 342,-252 342,-216 518,-216 518,-252"/>
<text text-anchor="middle" x="430" y="-230.3" font-family="Times,serif" font-size="14.00">ragger.firmware.touch</text>
</g>
<!-- ragger.firmware.touch.screen -->
<g id="node23" class="node">
<title>ragger.firmware.touch.screen</title>
<polygon fill="#aaaa00" stroke="#aaaa00" points="506,-324 278,-324 278,-288 506,-288 506,-324"/>
<text text-anchor="middle" x="392" y="-302.3" font-family="Times,serif" font-size="14.00">ragger.firmware.touch.screen</text>
</g>
<!-- ragger.firmware.touch&#45;&gt;ragger.firmware.touch.screen -->
<g id="edge41" class="edge">
<title>ragger.firmware.touch&#45;&gt;ragger.firmware.touch.screen</title>
<path fill="none" stroke="black" d="M420.61,-252.3C416.24,-260.36 410.94,-270.11 406.1,-279.02"/>
<polygon fill="black" stroke="black" points="401.29,-287.9 402.1,-276.96 403.67,-283.5 406.06,-279.11 406.06,-279.11 406.06,-279.11 403.67,-283.5 410.01,-281.25 401.29,-287.9 401.29,-287.9"/>
</g>
<!-- ragger.firmware.touch.element -->
<g id="node20" class="node">
<title>ragger.firmware.touch.element</title>
<polygon fill="#aaaa00" stroke="#aaaa00" points="385.5,-468 146.5,-468 146.5,-432 385.5,-432 385.5,-468"/>
<text text-anchor="middle" x="266" y="-446.3" font-family="Times,serif" font-size="14.00">ragger.firmware.touch.element</text>
</g>
<!-- ragger.firmware.touch.element&#45;&gt;ragger.backend -->
<g id="edge42" class="edge">
<title>ragger.firmware.touch.element&#45;&gt;ragger.backend</title>
<path fill="none" stroke="black" d="M385.59,-464.37C513.31,-478.65 711.69,-500.84 818.29,-512.76"/>
<polygon fill="black" stroke="black" points="828.31,-513.88 817.87,-517.24 823.34,-513.32 818.37,-512.77 818.37,-512.77 818.37,-512.77 823.34,-513.32 818.87,-508.29 828.31,-513.88 828.31,-513.88"/>
</g>
<!-- ragger.firmware.touch.element&#45;&gt;ragger.firmware -->
<g id="edge43" class="edge">
<title>ragger.firmware.touch.element&#45;&gt;ragger.firmware</title>
<path fill="none" stroke="black" d="M311.81,-468.06C328.65,-476.47 346.42,-488.26 358,-504 382.04,-536.65 378,-552.46 378,-593 378,-593 378,-593 378,-667 378,-707.97 378.99,-722.11 402,-756 409.92,-767.66 421.27,-777.77 432.57,-785.93"/>
<polygon fill="black" stroke="black" points="441.15,-791.8 430.36,-789.87 437.02,-788.98 432.9,-786.15 432.9,-786.15 432.9,-786.15 437.02,-788.98 435.43,-782.44 441.15,-791.8 441.15,-791.8"/>
</g>
<!-- ragger.firmware.touch.positions -->
<g id="node22" class="node">
<title>ragger.firmware.touch.positions</title>
<polygon fill="#aaaa00" stroke="#aaaa00" points="349.5,-540 104.5,-540 104.5,-504 349.5,-504 349.5,-540"/>
<text text-anchor="middle" x="227" y="-518.3" font-family="Times,serif" font-size="14.00">ragger.firmware.touch.positions</text>
</g>
<!-- ragger.firmware.touch.element&#45;&gt;ragger.firmware.touch.positions -->
<g id="edge44" class="edge">
<title>ragger.firmware.touch.element&#45;&gt;ragger.firmware.touch.positions</title>
<path fill="none" stroke="black" d="M256.36,-468.3C251.87,-476.36 246.44,-486.11 241.48,-495.02"/>
<polygon fill="black" stroke="black" points="236.53,-503.9 237.47,-492.97 238.96,-499.53 241.4,-495.16 241.4,-495.16 241.4,-495.16 238.96,-499.53 245.33,-497.35 236.53,-503.9 236.53,-503.9"/>
</g>
<!-- ragger.firmware.touch.layouts -->
<g id="node21" class="node">
<title>ragger.firmware.touch.layouts</title>
<polygon fill="#aaaa00" stroke="#aaaa00" points="378.5,-396 145.5,-396 145.5,-360 378.5,-360 378.5,-396"/>
<text text-anchor="middle" x="262" y="-374.3" font-family="Times,serif" font-size="14.00">ragger.firmware.touch.layouts</text>
</g>
<!-- ragger.firmware.touch.layouts&#45;&gt;ragger.firmware.touch.element -->
<g id="edge45" class="edge">
<title>ragger.firmware.touch.layouts&#45;&gt;ragger.firmware.touch.element</title>
<path fill="none" stroke="black" d="M262.99,-396.3C263.43,-404.02 263.96,-413.29 264.45,-421.89"/>
<polygon fill="black" stroke="black" points="265.02,-431.9 259.96,-422.17 264.74,-426.9 264.45,-421.91 264.45,-421.91 264.45,-421.91 264.74,-426.9 268.94,-421.66 265.02,-431.9 265.02,-431.9"/>
</g>
<!-- ragger.firmware.touch.positions&#45;&gt;ragger.firmware -->
<g id="edge46" class="edge">
<title>ragger.firmware.touch.positions&#45;&gt;ragger.firmware</title>
<path fill="none" stroke="black" d="M233.07,-540.2C248.66,-582.19 293.86,-691.19 364,-756 378.15,-769.07 396.12,-779.57 413.36,-787.67"/>
<polygon fill="black" stroke="black" points="422.84,-791.92 411.88,-791.94 418.28,-789.88 413.72,-787.83 413.72,-787.83 413.72,-787.83 418.28,-789.88 415.56,-783.72 422.84,-791.92 422.84,-791.92"/>
</g>
<!-- ragger.firmware.touch.screen&#45;&gt;ragger.backend -->
<g id="edge47" class="edge">
<title>ragger.firmware.touch.screen&#45;&gt;ragger.backend</title>
<path fill="none" stroke="black" d="M506,-319.1C566.43,-327.58 632.85,-340.86 656,-360 695.94,-393.03 661.26,-433.57 700,-468 732.27,-496.68 778.72,-509.99 817.86,-516.1"/>
<polygon fill="black" stroke="black" points="828.16,-517.58 817.62,-520.62 823.21,-516.87 818.26,-516.16 818.26,-516.16 818.26,-516.16 823.21,-516.87 818.9,-511.71 828.16,-517.58 828.16,-517.58"/>
</g>
<!-- ragger.firmware.touch.screen&#45;&gt;ragger.firmware -->
<g id="edge48" class="edge">
<title>ragger.firmware.touch.screen&#45;&gt;ragger.firmware</title>
<path fill="none" stroke="black" d="M277.87,-319.95C216.94,-328.73 149.55,-342.03 125,-360 88.56,-386.67 76,-403.85 76,-449 76,-449 76,-449 76,-667 76,-734.41 281.52,-778.33 396.81,-797.66"/>
<polygon fill="black" stroke="black" points="407,-799.35 396.4,-802.15 402.06,-798.53 397.13,-797.71 397.13,-797.71 397.13,-797.71 402.06,-798.53 397.87,-793.27 407,-799.35 407,-799.35"/>
</g>
<!-- ragger.firmware.touch.screen&#45;&gt;ragger.firmware.touch.element -->
<g id="edge49" class="edge">
<title>ragger.firmware.touch.screen&#45;&gt;ragger.firmware.touch.element</title>
<path fill="none" stroke="black" d="M277.75,-316.61C218.34,-324.22 154.34,-337.47 136,-360 125.9,-372.41 127.07,-382.72 136,-396 145.29,-409.82 158.88,-420.04 173.81,-427.59"/>
<polygon fill="black" stroke="black" points="183.26,-431.96 172.29,-431.85 178.72,-429.86 174.18,-427.76 174.18,-427.76 174.18,-427.76 178.72,-429.86 176.07,-423.68 183.26,-431.96 183.26,-431.96"/>
</g>
<!-- ragger.firmware.touch.screen&#45;&gt;ragger.firmware.touch.layouts -->
<g id="edge50" class="edge">
<title>ragger.firmware.touch.screen&#45;&gt;ragger.firmware.touch.layouts</title>
<path fill="none" stroke="black" d="M360.2,-324.12C342.89,-333.45 321.28,-345.08 302.74,-355.06"/>
<polygon fill="black" stroke="black" points="293.92,-359.81 300.6,-351.11 298.33,-357.44 302.73,-355.07 302.73,-355.07 302.73,-355.07 298.33,-357.44 304.86,-359.03 293.92,-359.81 293.92,-359.81"/>
</g>
<!-- ragger.firmware.touch.use_cases -->
<g id="node24" class="node">
<title>ragger.firmware.touch.use_cases</title>
<polygon fill="#aaaa00" stroke="#aaaa00" points="647.5,-396 396.5,-396 396.5,-360 647.5,-360 647.5,-396"/>
<text text-anchor="middle" x="522" y="-374.3" font-family="Times,serif" font-size="14.00">ragger.firmware.touch.use_cases</text>
</g>
<!-- ragger.firmware.touch.screen&#45;&gt;ragger.firmware.touch.use_cases -->
<g id="edge51" class="edge">
<title>ragger.firmware.touch.screen&#45;&gt;ragger.firmware.touch.use_cases</title>
<path fill="none" stroke="black" d="M423.8,-324.12C441.11,-333.45 462.72,-345.08 481.26,-355.06"/>
<polygon fill="black" stroke="black" points="490.08,-359.81 479.14,-359.03 485.67,-357.44 481.27,-355.07 481.27,-355.07 481.27,-355.07 485.67,-357.44 483.4,-351.11 490.08,-359.81 490.08,-359.81"/>
</g>
<!-- ragger.firmware.touch.use_cases&#45;&gt;ragger.firmware.touch.element -->
<g id="edge52" class="edge">
<title>ragger.firmware.touch.use_cases&#45;&gt;ragger.firmware.touch.element</title>
<path fill="none" stroke="black" d="M459.7,-396.03C423.16,-406.03 376.81,-418.7 338.61,-429.15"/>
<polygon fill="black" stroke="black" points="328.58,-431.89 337.04,-424.91 333.4,-430.57 338.22,-429.25 338.22,-429.25 338.22,-429.25 333.4,-430.57 339.41,-433.59 328.58,-431.89 328.58,-431.89"/>
</g>
<!-- ragger.gui.process -->
<g id="node27" class="node">
<title>ragger.gui.process</title>
<polygon fill="#eedd88" stroke="#eedd88" points="906.5,-828 757.5,-828 757.5,-792 906.5,-792 906.5,-828"/>
<text text-anchor="middle" x="832" y="-806.3" font-family="Times,serif" font-size="14.00">ragger.gui.process</text>
</g>
<!-- ragger.gui&#45;&gt;ragger.gui.process -->
<g id="edge53" class="edge">
<title>ragger.gui&#45;&gt;ragger.gui.process</title>
<path fill="none" stroke="black" d="M1026.86,-752.17C991.23,-762.56 940.95,-777.22 900.39,-789.05"/>
<polygon fill="black" stroke="black" points="890.57,-791.92 898.91,-784.8 895.37,-790.52 900.17,-789.12 900.17,-789.12 900.17,-789.12 895.37,-790.52 901.43,-793.44 890.57,-791.92 890.57,-791.92"/>
</g>
<!-- ragger.gui.interface -->
<g id="node26" class="node">
<title>ragger.gui.interface</title>
<polygon fill="#eedd88" stroke="#eedd88" points="868,-900 710,-900 710,-864 868,-864 868,-900"/>
<text text-anchor="middle" x="789" y="-878.3" font-family="Times,serif" font-size="14.00">ragger.gui.interface</text>
</g>
<!-- ragger.gui.interface&#45;&gt;ragger.logger -->
<g id="edge54" class="edge">
<title>ragger.gui.interface&#45;&gt;ragger.logger</title>
<path fill="none" stroke="black" d="M775.65,-900.3C769.24,-908.61 761.44,-918.72 754.39,-927.86"/>
<polygon fill="black" stroke="black" points="748.19,-935.9 750.74,-925.23 751.25,-931.94 754.3,-927.98 754.3,-927.98 754.3,-927.98 751.25,-931.94 757.87,-930.73 748.19,-935.9 748.19,-935.9"/>
</g>
<!-- ragger.gui.process&#45;&gt;ragger.gui.interface -->
<g id="edge55" class="edge">
<title>ragger.gui.process&#45;&gt;ragger.gui.interface</title>
<path fill="none" stroke="black" d="M821.37,-828.3C816.37,-836.44 810.31,-846.31 804.79,-855.3"/>
<polygon fill="black" stroke="black" points="799.51,-863.9 800.91,-853.02 802.12,-859.64 804.74,-855.37 804.74,-855.37 804.74,-855.37 802.12,-859.64 808.58,-857.73 799.51,-863.9 799.51,-863.9"/>
</g>
<!-- ragger.gui.process&#45;&gt;ragger.logger -->
<g id="edge56" class="edge">
<title>ragger.gui.process&#45;&gt;ragger.logger</title>
<path fill="none" stroke="black" d="M851.53,-828.18C870.17,-846.71 893.19,-876.67 877,-900 859.82,-924.75 829.6,-937.96 801.44,-945.01"/>
<polygon fill="black" stroke="black" points="791.6,-947.25 800.35,-940.64 796.47,-946.14 801.35,-945.03 801.35,-945.03 801.35,-945.03 796.47,-946.14 802.34,-949.42 791.6,-947.25 791.6,-947.25"/>
</g>
<!-- ragger.gui.process&#45;&gt;ragger.navigator.instruction -->
<g id="edge57" class="edge">
<title>ragger.gui.process&#45;&gt;ragger.navigator.instruction</title>
<path fill="none" stroke="black" d="M906.57,-818.69C997.25,-828.21 1155.23,-845.3 1301.31,-863.93"/>
<polygon fill="black" stroke="black" points="1311.36,-865.22 1300.86,-868.41 1306.4,-864.58 1301.44,-863.95 1301.44,-863.95 1301.44,-863.95 1306.4,-864.58 1302.01,-859.49 1311.36,-865.22 1311.36,-865.22"/>
</g>
<!-- ragger.navigator&#45;&gt;ragger.navigator.instruction -->
<g id="edge58" class="edge">
<title>ragger.navigator&#45;&gt;ragger.navigator.instruction</title>
<path fill="none" stroke="black" d="M1413.06,-108.05C1457.36,-156.94 1578,-303.44 1578,-449 1578,-449 1578,-449 1578,-739 1578,-785.04 1558.67,-796.6 1525,-828 1511.14,-840.93 1493.53,-851.45 1476.71,-859.61"/>
<polygon fill="black" stroke="black" points="1467.47,-863.9 1474.65,-855.6 1472.01,-861.79 1476.54,-859.68 1476.54,-859.68 1476.54,-859.68 1472.01,-861.79 1478.44,-863.76 1467.47,-863.9 1467.47,-863.9"/>
</g>
<!-- ragger.navigator.nano_navigator -->
<g id="node31" class="node">
<title>ragger.navigator.nano_navigator</title>
<polygon fill="#ee8866" stroke="#ee8866" points="1328,-396 1080,-396 1080,-360 1328,-360 1328,-396"/>
<text text-anchor="middle" x="1204" y="-374.3" font-family="Times,serif" font-size="14.00">ragger.navigator.nano_navigator</text>
</g>
<!-- ragger.navigator&#45;&gt;ragger.navigator.nano_navigator -->
<g id="edge59" class="edge">
<title>ragger.navigator&#45;&gt;ragger.navigator.nano_navigator</title>
<path fill="none" stroke="black" d="M1385.5,-108.03C1353,-156.2 1260.26,-293.63 1221.43,-351.17"/>
<polygon fill="black" stroke="black" points="1215.68,-359.69 1217.54,-348.89 1218.48,-355.55 1221.27,-351.4 1221.27,-351.4 1221.27,-351.4 1218.48,-355.55 1225,-353.92 1215.68,-359.69 1215.68,-359.69"/>
</g>
<!-- ragger.navigator.navigation_scenario -->
<g id="node32" class="node">
<title>ragger.navigator.navigation_scenario</title>
<polygon fill="#ee8866" stroke="#ee8866" points="1061.5,-396 780.5,-396 780.5,-360 1061.5,-360 1061.5,-396"/>
<text text-anchor="middle" x="921" y="-374.3" font-family="Times,serif" font-size="14.00">ragger.navigator.navigation_scenario</text>
</g>
<!-- ragger.navigator&#45;&gt;ragger.navigator.navigation_scenario -->
<g id="edge60" class="edge">
<title>ragger.navigator&#45;&gt;ragger.navigator.navigation_scenario</title>
<path fill="none" stroke="black" d="M1368.65,-108.03C1286.81,-157.2 1050.19,-299.38 958.2,-354.65"/>
<polygon fill="black" stroke="black" points="949.5,-359.87 955.76,-350.87 953.79,-357.3 958.07,-354.72 958.07,-354.72 958.07,-354.72 953.79,-357.3 960.39,-358.58 949.5,-359.87 949.5,-359.87"/>
</g>
<!-- ragger.navigator.navigator -->
<g id="node33" class="node">
<title>ragger.navigator.navigator</title>
<polygon fill="#ee8866" stroke="#ee8866" points="1371.5,-468 1164.5,-468 1164.5,-432 1371.5,-432 1371.5,-468"/>
<text text-anchor="middle" x="1268" y="-446.3" font-family="Times,serif" font-size="14.00">ragger.navigator.navigator</text>
</g>
<!-- ragger.navigator&#45;&gt;ragger.navigator.navigator -->
<g id="edge61" class="edge">
<title>ragger.navigator&#45;&gt;ragger.navigator.navigator</title>
<path fill="none" stroke="black" d="M1402.87,-108.26C1411.34,-134.75 1426,-187.21 1426,-233 1426,-233 1426,-233 1426,-307 1426,-364.79 1366.8,-405.04 1320.87,-427.57"/>
<polygon fill="black" stroke="black" points="1311.59,-431.97 1318.7,-423.62 1316.11,-429.83 1320.63,-427.68 1320.63,-427.68 1320.63,-427.68 1316.11,-429.83 1322.56,-431.75 1311.59,-431.97 1311.59,-431.97"/>
</g>
<!-- ragger.navigator.touch_navigator -->
<g id="node34" class="node">
<title>ragger.navigator.touch_navigator</title>
<polygon fill="#ee8866" stroke="#ee8866" points="860,-180 606,-180 606,-144 860,-144 860,-180"/>
<text text-anchor="middle" x="733" y="-158.3" font-family="Times,serif" font-size="14.00">ragger.navigator.touch_navigator</text>
</g>
<!-- ragger.navigator&#45;&gt;ragger.navigator.touch_navigator -->
<g id="edge62" class="edge">
<title>ragger.navigator&#45;&gt;ragger.navigator.touch_navigator</title>
<path fill="none" stroke="black" d="M1328.75,-98.19C1221.24,-109.53 1010.31,-131.77 870.49,-146.51"/>
<polygon fill="black" stroke="black" points="860.13,-147.6 869.6,-142.07 865.1,-147.07 870.07,-146.55 870.07,-146.55 870.07,-146.55 865.1,-147.07 870.54,-151.02 860.13,-147.6 860.13,-147.6"/>
</g>
<!-- ragger.navigator.nano_navigator&#45;&gt;ragger.backend -->
<g id="edge63" class="edge">
<title>ragger.navigator.nano_navigator&#45;&gt;ragger.backend</title>
<path fill="none" stroke="black" d="M1166.37,-396.13C1109.33,-422.09 1001.07,-471.36 938.96,-499.63"/>
<polygon fill="black" stroke="black" points="929.77,-503.81 937.01,-495.57 934.32,-501.74 938.87,-499.67 938.87,-499.67 938.87,-499.67 934.32,-501.74 940.73,-503.76 929.77,-503.81 929.77,-503.81"/>
</g>
<!-- ragger.navigator.nano_navigator&#45;&gt;ragger.firmware -->
<g id="edge64" class="edge">
<title>ragger.navigator.nano_navigator&#45;&gt;ragger.firmware</title>
<path fill="none" stroke="black" d="M1100.72,-396.05C953.38,-421.11 690.74,-468.74 601,-504 529.92,-531.93 454,-516.63 454,-593 454,-593 454,-593 454,-667 454,-707.14 461.55,-753.1 467.13,-781.6"/>
<polygon fill="black" stroke="black" points="469.16,-791.61 462.76,-782.7 468.17,-786.71 467.18,-781.81 467.18,-781.81 467.18,-781.81 468.17,-786.71 471.59,-780.92 469.16,-791.61 469.16,-791.61"/>
</g>
<!-- ragger.navigator.nano_navigator&#45;&gt;ragger.navigator.navigator -->
<g id="edge65" class="edge">
<title>ragger.navigator.nano_navigator&#45;&gt;ragger.navigator.navigator</title>
<path fill="none" stroke="black" d="M1219.82,-396.3C1227.57,-404.78 1237.04,-415.14 1245.52,-424.42"/>
<polygon fill="black" stroke="black" points="1252.36,-431.9 1242.29,-427.55 1248.99,-428.21 1245.61,-424.52 1245.61,-424.52 1245.61,-424.52 1248.99,-428.21 1248.94,-421.48 1252.36,-431.9 1252.36,-431.9"/>
</g>
<!-- ragger.navigator.navigation_scenario&#45;&gt;ragger.firmware -->
<g id="edge66" class="edge">
<title>ragger.navigator.navigation_scenario&#45;&gt;ragger.firmware</title>
<path fill="none" stroke="black" d="M780.33,-390.98C630.9,-407.7 416,-444.95 416,-521 416,-521 416,-521 416,-667 416,-707.97 423.66,-718.43 440,-756 444,-765.2 449.42,-774.67 454.71,-783.02"/>
<polygon fill="black" stroke="black" points="460.33,-791.57 451.07,-785.68 457.58,-787.39 454.84,-783.21 454.84,-783.21 454.84,-783.21 457.58,-787.39 458.6,-780.74 460.33,-791.57 460.33,-791.57"/>
</g>
<!-- ragger.navigator.navigation_scenario&#45;&gt;ragger.navigator.navigator -->
<g id="edge67" class="edge">
<title>ragger.navigator.navigation_scenario&#45;&gt;ragger.navigator.navigator</title>
<path fill="none" stroke="black" d="M1005.44,-396.03C1056.23,-406.28 1120.99,-419.34 1173.49,-429.93"/>
<polygon fill="black" stroke="black" points="1183.48,-431.95 1172.79,-434.38 1178.58,-430.96 1173.68,-429.97 1173.68,-429.97 1173.68,-429.97 1178.58,-430.96 1174.57,-425.56 1183.48,-431.95 1183.48,-431.95"/>
</g>
<!-- ragger.navigator.navigator&#45;&gt;ragger.backend -->
<g id="edge68" class="edge">
<title>ragger.navigator.navigator&#45;&gt;ragger.backend</title>
<path fill="none" stroke="black" d="M1176.5,-468.03C1111.64,-480.11 1025.75,-496.1 965.37,-507.34"/>
<polygon fill="black" stroke="black" points="955.53,-509.17 964.54,-502.92 960.45,-508.26 965.36,-507.34 965.36,-507.34 965.36,-507.34 960.45,-508.26 966.19,-511.77 955.53,-509.17 955.53,-509.17"/>
</g>
<!-- ragger.navigator.navigator&#45;&gt;ragger.firmware -->
<g id="edge69" class="edge">
<title>ragger.navigator.navigator&#45;&gt;ragger.firmware</title>
<path fill="none" stroke="black" d="M1164.15,-459.33C952.7,-477.7 492,-525.46 492,-593 492,-593 492,-593 492,-667 492,-707.14 484.45,-753.1 478.87,-781.6"/>
<polygon fill="black" stroke="black" points="476.84,-791.61 474.41,-780.92 477.83,-786.71 478.82,-781.81 478.82,-781.81 478.82,-781.81 477.83,-786.71 483.24,-782.7 476.84,-791.61 476.84,-791.61"/>
</g>
<!-- ragger.navigator.navigator&#45;&gt;ragger.navigator.instruction -->
<g id="edge70" class="edge">
<title>ragger.navigator.navigator&#45;&gt;ragger.navigator.instruction</title>
<path fill="none" stroke="black" d="M1371.55,-459.68C1408.19,-467 1447.77,-480.24 1478,-504 1538.28,-551.39 1540,-588.32 1540,-665 1540,-665 1540,-665 1540,-739 1540,-790.77 1492.89,-833.42 1457.7,-858.04"/>
<polygon fill="black" stroke="black" points="1449.05,-863.91 1454.8,-854.58 1453.19,-861.11 1457.33,-858.3 1457.33,-858.3 1457.33,-858.3 1453.19,-861.11 1459.85,-862.02 1449.05,-863.91 1449.05,-863.91"/>
</g>
<!-- ragger.navigator.navigator&#45;&gt;ragger.utils -->
<g id="edge71" class="edge">
<title>ragger.navigator.navigator&#45;&gt;ragger.utils</title>
<path fill="none" stroke="black" d="M1299.02,-468.05C1332.82,-488.61 1385.01,-526.64 1407,-576 1441.5,-653.42 1363.66,-742.93 1320.01,-784.92"/>
<polygon fill="black" stroke="black" points="1312.55,-791.95 1316.74,-781.82 1316.19,-788.52 1319.83,-785.09 1319.83,-785.09 1319.83,-785.09 1316.19,-788.52 1322.91,-788.37 1312.55,-791.95 1312.55,-791.95"/>
</g>
<!-- ragger.navigator.touch_navigator&#45;&gt;ragger.backend -->
<g id="edge72" class="edge">
<title>ragger.navigator.touch_navigator&#45;&gt;ragger.backend</title>
<path fill="none" stroke="black" d="M729.16,-180.39C723.6,-207.06 714,-259.73 714,-305 714,-305 714,-305 714,-379 714,-439.66 777.95,-478.62 829.19,-500.1"/>
<polygon fill="black" stroke="black" points="838.59,-503.91 827.64,-504.32 833.96,-502.03 829.33,-500.15 829.33,-500.15 829.33,-500.15 833.96,-502.03 831.02,-495.98 838.59,-503.91 838.59,-503.91"/>
</g>
<!-- ragger.navigator.touch_navigator&#45;&gt;ragger.firmware -->
<g id="edge73" class="edge">
<title>ragger.navigator.touch_navigator&#45;&gt;ragger.firmware</title>
<path fill="none" stroke="black" d="M605.93,-163.35C405.38,-167.37 38,-190.39 38,-305 38,-305 38,-305 38,-667 38,-721.39 73.81,-730.78 122,-756 168.47,-780.31 308.28,-795.72 396.79,-803.32"/>
<polygon fill="black" stroke="black" points="406.79,-804.17 396.44,-807.81 401.81,-803.75 396.82,-803.33 396.82,-803.33 396.82,-803.33 401.81,-803.75 397.2,-798.84 406.79,-804.17 406.79,-804.17"/>
</g>
<!-- ragger.navigator.touch_navigator&#45;&gt;ragger.firmware.touch -->
<g id="edge74" class="edge">
<title>ragger.navigator.touch_navigator&#45;&gt;ragger.firmware.touch</title>
<path fill="none" stroke="black" d="M659.27,-180.03C615.28,-190.2 559.3,-203.13 513.67,-213.67"/>
<polygon fill="black" stroke="black" points="503.8,-215.95 512.53,-209.31 508.67,-214.82 513.55,-213.7 513.55,-213.7 513.55,-213.7 508.67,-214.82 514.56,-218.08 503.8,-215.95 503.8,-215.95"/>
</g>
<!-- ragger.navigator.touch_navigator&#45;&gt;ragger.navigator.instruction -->
<g id="edge75" class="edge">
<title>ragger.navigator.touch_navigator&#45;&gt;ragger.navigator.instruction</title>
<path fill="none" stroke="black" d="M733.48,-180.1C735.17,-228.32 742.42,-363.96 771,-396 966.54,-615.24 1204.59,-363.09 1407,-576 1479.86,-652.64 1447.05,-795.08 1429.02,-854.2"/>
<polygon fill="black" stroke="black" points="1425.96,-863.92 1424.67,-853.03 1427.46,-859.15 1428.96,-854.38 1428.96,-854.38 1428.96,-854.38 1427.46,-859.15 1433.26,-855.73 1425.96,-863.92 1425.96,-863.92"/>
</g>
<!-- ragger.navigator.touch_navigator&#45;&gt;ragger.navigator.navigator -->
<g id="edge76" class="edge">
<title>ragger.navigator.touch_navigator&#45;&gt;ragger.navigator.navigator</title>
<path fill="none" stroke="black" d="M827.78,-180.03C982.06,-209.89 1276.43,-276.53 1337,-360 1346.4,-372.95 1344.07,-381.65 1337,-396 1331.04,-408.09 1320.85,-418.2 1310.1,-426.23"/>
<polygon fill="black" stroke="black" points="1301.84,-431.96 1307.49,-422.56 1305.94,-429.11 1310.05,-426.26 1310.05,-426.26 1310.05,-426.26 1305.94,-429.11 1312.62,-429.96 1301.84,-431.96 1301.84,-431.96"/>
</g>
<!-- ragger.utils&#45;&gt;ragger.utils.misc -->
<g id="edge77" class="edge">
<title>ragger.utils&#45;&gt;ragger.utils.misc</title>
<path fill="none" stroke="black" d="M1342.82,-820.66C1402.82,-832.3 1504.37,-851.98 1575.07,-865.7"/>
<polygon fill="black" stroke="black" points="1585.27,-867.67 1574.6,-870.19 1580.36,-866.72 1575.46,-865.77 1575.46,-865.77 1575.46,-865.77 1580.36,-866.72 1576.31,-861.35 1585.27,-867.67 1585.27,-867.67"/>
</g>
<!-- ragger.utils.packing -->
<g id="node37" class="node">
<title>ragger.utils.packing</title>
<polygon fill="#ffaabb" stroke="#ffaabb" points="1293.5,-900 1134.5,-900 1134.5,-864 1293.5,-864 1293.5,-900"/>
<text text-anchor="middle" x="1214" y="-878.3" font-family="Times,serif" font-size="14.00">ragger.utils.packing</text>
</g>
<!-- ragger.utils&#45;&gt;ragger.utils.packing -->
<g id="edge78" class="edge">
<title>ragger.utils&#45;&gt;ragger.utils.packing</title>
<path fill="none" stroke="black" d="M1273.47,-828.3C1263.62,-837.03 1251.51,-847.76 1240.8,-857.25"/>
<polygon fill="black" stroke="black" points="1233.3,-863.9 1237.8,-853.9 1237.05,-860.58 1240.79,-857.26 1240.79,-857.26 1240.79,-857.26 1237.05,-860.58 1243.77,-860.63 1233.3,-863.9 1233.3,-863.9"/>
</g>
<!-- ragger.utils&#45;&gt;ragger.utils.structs -->
<g id="edge79" class="edge">
<title>ragger.utils&#45;&gt;ragger.utils.structs</title>
<path fill="none" stroke="black" d="M1243.42,-824.66C1205.65,-835.07 1153.11,-849.55 1110.75,-861.23"/>
<polygon fill="black" stroke="black" points="1101.05,-863.9 1109.49,-856.91 1105.87,-862.57 1110.69,-861.24 1110.69,-861.24 1110.69,-861.24 1105.87,-862.57 1111.88,-865.58 1101.05,-863.9 1101.05,-863.9"/>
</g>
<!-- ragger.utils.misc&#45;&gt;ragger.error -->
<g id="edge80" class="edge">
<title>ragger.utils.misc&#45;&gt;ragger.error</title>
<path fill="none" stroke="black" d="M1665.87,-900.3C1671.5,-908.53 1678.35,-918.52 1684.57,-927.58"/>
<polygon fill="black" stroke="black" points="1690.27,-935.9 1680.9,-930.19 1687.44,-931.77 1684.62,-927.65 1684.62,-927.65 1684.62,-927.65 1687.44,-931.77 1688.33,-925.1 1690.27,-935.9 1690.27,-935.9"/>
</g>
</g>
</svg>
