<?xml version="1.0" encoding="UTF-8" standalone="no"?>
<!DOCTYPE svg PUBLIC "-//W3C//DTD SVG 1.1//EN"
 "http://www.w3.org/Graphics/SVG/1.1/DTD/svg11.dtd">
<!-- Generated by graphviz version 2.43.0 (0)
 -->
<!-- Title: packages_generated_ragger_architecture Pages: 1 -->
<svg width="2490pt" height="980pt"
 viewBox="0.00 0.00 2490.00 980.00" xmlns="http://www.w3.org/2000/svg" xmlns:xlink="http://www.w3.org/1999/xlink">
<g id="graph0" class="graph" transform="scale(1 1) rotate(0) translate(4 976)">
<title>packages_generated_ragger_architecture</title>
<polygon fill="white" stroke="transparent" points="-4,4 -4,-976 2486,-976 2486,4 -4,4"/>
<!-- ragger -->
<g id="node1" class="node">
<title>ragger</title>
<polygon fill="#77aadd" stroke="#77aadd" points="416.5,-900 351.5,-900 351.5,-864 416.5,-864 416.5,-900"/>
<text text-anchor="middle" x="384" y="-878.3" font-family="Times,serif" font-size="14.00">ragger</text>
</g>
<!-- ragger.__version__ -->
<g id="node2" class="node">
<title>ragger.__version__</title>
<polygon fill="#77aadd" stroke="#77aadd" points="457.5,-972 310.5,-972 310.5,-936 457.5,-936 457.5,-972"/>
<text text-anchor="middle" x="384" y="-950.3" font-family="Times,serif" font-size="14.00">ragger.__version__</text>
</g>
<!-- ragger&#45;&gt;ragger.__version__ -->
<g id="edge1" class="edge">
<title>ragger&#45;&gt;ragger.__version__</title>
<path fill="none" stroke="black" d="M384,-900.3C384,-908.02 384,-917.29 384,-925.89"/>
<polygon fill="black" stroke="black" points="384,-935.9 379.5,-925.9 384,-930.9 384,-925.9 384,-925.9 384,-925.9 384,-930.9 388.5,-925.9 384,-935.9 384,-935.9"/>
</g>
<!-- ragger.logger -->
<g id="node28" class="node">
<title>ragger.logger</title>
<polygon fill="#77aadd" stroke="#77aadd" points="1152.5,-972 1039.5,-972 1039.5,-936 1152.5,-936 1152.5,-972"/>
<text text-anchor="middle" x="1096" y="-950.3" font-family="Times,serif" font-size="14.00">ragger.logger</text>
</g>
<!-- ragger&#45;&gt;ragger.logger -->
<g id="edge2" class="edge">
<title>ragger&#45;&gt;ragger.logger</title>
<path fill="none" stroke="black" d="M416.54,-896.03C421.33,-897.58 426.25,-898.97 431,-900 646.03,-946.57 908.1,-953.21 1029,-953.54"/>
<polygon fill="black" stroke="black" points="1039.21,-953.55 1029.2,-958.04 1034.21,-953.54 1029.21,-953.54 1029.21,-953.54 1029.21,-953.54 1034.21,-953.54 1029.22,-949.04 1039.21,-953.55 1039.21,-953.55"/>
</g>
<!-- ragger.backend -->
<g id="node3" class="node">
<title>ragger.backend</title>
<polygon fill="#99ddff" stroke="#99ddff" points="960.5,-540 833.5,-540 833.5,-504 960.5,-504 960.5,-540"/>
<text text-anchor="middle" x="897" y="-518.3" font-family="Times,serif" font-size="14.00">ragger.backend</text>
</g>
<!-- ragger.backend.interface -->
<g id="node4" class="node">
<title>ragger.backend.interface</title>
<polygon fill="#99ddff" stroke="#99ddff" points="1096.5,-756 901.5,-756 901.5,-720 1096.5,-720 1096.5,-756"/>
<text text-anchor="middle" x="999" y="-734.3" font-family="Times,serif" font-size="14.00">ragger.backend.interface</text>
</g>
<!-- ragger.backend&#45;&gt;ragger.backend.interface -->
<g id="edge3" class="edge">
<title>ragger.backend&#45;&gt;ragger.backend.interface</title>
<path fill="none" stroke="black" d="M911.11,-540.06C929.47,-563.12 961.28,-606.18 979,-648 987.38,-667.78 992.49,-691.58 995.45,-709.59"/>
<polygon fill="black" stroke="black" points="996.99,-719.71 991.04,-710.5 996.24,-714.76 995.49,-709.82 995.49,-709.82 995.49,-709.82 996.24,-714.76 999.94,-709.15 996.99,-719.71 996.99,-719.71"/>
</g>
<!-- ragger.backend.ledgercomm -->
<g id="node5" class="node">
<title>ragger.backend.ledgercomm</title>
<polygon fill="#99ddff" stroke="#99ddff" points="1312,-612 1092,-612 1092,-576 1312,-576 1312,-612"/>
<text text-anchor="middle" x="1202" y="-590.3" font-family="Times,serif" font-size="14.00">ragger.backend.ledgercomm</text>
</g>
<!-- ragger.backend&#45;&gt;ragger.backend.ledgercomm -->
<g id="edge4" class="edge">
<title>ragger.backend&#45;&gt;ragger.backend.ledgercomm</title>
<path fill="none" stroke="black" d="M960.57,-537.59C1006.23,-548.07 1068.25,-562.3 1117.99,-573.72"/>
<polygon fill="black" stroke="black" points="1127.77,-575.96 1117.02,-578.11 1122.9,-574.85 1118.02,-573.73 1118.02,-573.73 1118.02,-573.73 1122.9,-574.85 1119.03,-569.34 1127.77,-575.96 1127.77,-575.96"/>
</g>
<!-- ragger.backend.ledgerwallet -->
<g id="node6" class="node">
<title>ragger.backend.ledgerwallet</title>
<polygon fill="#99ddff" stroke="#99ddff" points="1569.5,-612 1348.5,-612 1348.5,-576 1569.5,-576 1569.5,-612"/>
<text text-anchor="middle" x="1459" y="-590.3" font-family="Times,serif" font-size="14.00">ragger.backend.ledgerwallet</text>
</g>
<!-- ragger.backend&#45;&gt;ragger.backend.ledgerwallet -->
<g id="edge5" class="edge">
<title>ragger.backend&#45;&gt;ragger.backend.ledgerwallet</title>
<path fill="none" stroke="black" d="M960.73,-530.21C1044.67,-539.8 1197.15,-557.56 1338.06,-575.89"/>
<polygon fill="black" stroke="black" points="1348.19,-577.21 1337.69,-580.38 1343.23,-576.57 1338.27,-575.92 1338.27,-575.92 1338.27,-575.92 1343.23,-576.57 1338.85,-571.46 1348.19,-577.21 1348.19,-577.21"/>
</g>
<!-- ragger.backend.speculos -->
<g id="node8" class="node">
<title>ragger.backend.speculos</title>
<polygon fill="#99ddff" stroke="#99ddff" points="970.5,-684 777.5,-684 777.5,-648 970.5,-648 970.5,-684"/>
<text text-anchor="middle" x="874" y="-662.3" font-family="Times,serif" font-size="14.00">ragger.backend.speculos</text>
</g>
<!-- ragger.backend&#45;&gt;ragger.backend.speculos -->
<g id="edge6" class="edge">
<title>ragger.backend&#45;&gt;ragger.backend.speculos</title>
<path fill="none" stroke="black" d="M894.23,-540.13C890.31,-564.33 883.1,-608.79 878.44,-637.61"/>
<polygon fill="black" stroke="black" points="876.78,-647.81 873.94,-637.22 877.58,-642.88 878.38,-637.94 878.38,-637.94 878.38,-637.94 877.58,-642.88 882.83,-638.66 876.78,-647.81 876.78,-647.81"/>
</g>
<!-- ragger.backend.stub -->
<g id="node9" class="node">
<title>ragger.backend.stub</title>
<polygon fill="#99ddff" stroke="#99ddff" points="1190.5,-684 1027.5,-684 1027.5,-648 1190.5,-648 1190.5,-684"/>
<text text-anchor="middle" x="1109" y="-662.3" font-family="Times,serif" font-size="14.00">ragger.backend.stub</text>
</g>
<!-- ragger.backend&#45;&gt;ragger.backend.stub -->
<g id="edge7" class="edge">
<title>ragger.backend&#45;&gt;ragger.backend.stub</title>
<path fill="none" stroke="black" d="M943.11,-540.08C965.14,-549.22 991.35,-561.57 1013,-576 1040.75,-594.51 1068.24,-621.05 1086.64,-640.33"/>
<polygon fill="black" stroke="black" points="1093.71,-647.84 1083.58,-643.64 1090.28,-644.2 1086.86,-640.56 1086.86,-640.56 1086.86,-640.56 1090.28,-644.2 1090.14,-637.48 1093.71,-647.84 1093.71,-647.84"/>
</g>
<!-- ragger.firmware -->
<g id="node17" class="node">
<title>ragger.firmware</title>
<polygon fill="#aaaa00" stroke="#aaaa00" points="720,-828 588,-828 588,-792 720,-792 720,-828"/>
<text text-anchor="middle" x="654" y="-806.3" font-family="Times,serif" font-size="14.00">ragger.firmware</text>
</g>
<!-- ragger.backend.interface&#45;&gt;ragger.firmware -->
<g id="edge8" class="edge">
<title>ragger.backend.interface&#45;&gt;ragger.firmware</title>
<path fill="none" stroke="black" d="M915.04,-756.03C858.62,-767.48 784.86,-782.45 730.14,-793.55"/>
<polygon fill="black" stroke="black" points="720.15,-795.58 729.06,-789.18 725.05,-794.58 729.95,-793.59 729.95,-793.59 729.95,-793.59 725.05,-794.58 730.85,-798 720.15,-795.58 720.15,-795.58"/>
</g>
<!-- ragger.backend.interface&#45;&gt;ragger.logger -->
<g id="edge9" class="edge">
<title>ragger.backend.interface&#45;&gt;ragger.logger</title>
<path fill="none" stroke="black" d="M971.53,-756.11C926.94,-786 847.59,-849.34 887,-900 904.5,-922.49 975.13,-936.98 1029.49,-945.03"/>
<polygon fill="black" stroke="black" points="1039.43,-946.45 1028.89,-949.49 1034.48,-945.74 1029.53,-945.03 1029.53,-945.03 1029.53,-945.03 1034.48,-945.74 1030.17,-940.58 1039.43,-946.45 1039.43,-946.45"/>
</g>
<!-- ragger.utils -->
<g id="node35" class="node">
<title>ragger.utils</title>
<polygon fill="#ffaabb" stroke="#ffaabb" points="1282.5,-828 1183.5,-828 1183.5,-792 1282.5,-792 1282.5,-828"/>
<text text-anchor="middle" x="1233" y="-806.3" font-family="Times,serif" font-size="14.00">ragger.utils</text>
</g>
<!-- ragger.backend.interface&#45;&gt;ragger.utils -->
<g id="edge10" class="edge">
<title>ragger.backend.interface&#45;&gt;ragger.utils</title>
<path fill="none" stroke="black" d="M1055.94,-756.03C1091.56,-766.69 1137.35,-780.39 1173.45,-791.19"/>
<polygon fill="black" stroke="black" points="1183.36,-794.15 1172.49,-795.59 1178.57,-792.72 1173.78,-791.28 1173.78,-791.28 1173.78,-791.28 1178.57,-792.72 1175.07,-786.97 1183.36,-794.15 1183.36,-794.15"/>
</g>
<!-- ragger.backend.ledgercomm&#45;&gt;ragger.backend.ledgercomm -->
<g id="edge11" class="edge">
<title>ragger.backend.ledgercomm&#45;&gt;ragger.backend.ledgercomm</title>
<path fill="none" stroke="black" d="M1312.15,-582.99C1323.06,-585.2 1330,-588.87 1330,-594 1330,-597.37 1327.01,-600.11 1321.87,-602.21"/>
<polygon fill="black" stroke="black" points="1312.15,-605.01 1320.52,-597.92 1316.96,-603.63 1321.76,-602.25 1321.76,-602.25 1321.76,-602.25 1316.96,-603.63 1323.01,-606.57 1312.15,-605.01 1312.15,-605.01"/>
</g>
<!-- ragger.backend.physical_backend -->
<g id="node7" class="node">
<title>ragger.backend.physical_backend</title>
<polygon fill="#99ddff" stroke="#99ddff" points="1503,-684 1247,-684 1247,-648 1503,-648 1503,-684"/>
<text text-anchor="middle" x="1375" y="-662.3" font-family="Times,serif" font-size="14.00">ragger.backend.physical_backend</text>
</g>
<!-- ragger.backend.ledgercomm&#45;&gt;ragger.backend.physical_backend -->
<g id="edge12" class="edge">
<title>ragger.backend.ledgercomm&#45;&gt;ragger.backend.physical_backend</title>
<path fill="none" stroke="black" d="M1244.32,-612.12C1268.18,-621.78 1298.17,-633.91 1323.4,-644.12"/>
<polygon fill="black" stroke="black" points="1332.82,-647.93 1321.86,-648.35 1328.18,-646.06 1323.55,-644.18 1323.55,-644.18 1323.55,-644.18 1328.18,-646.06 1325.23,-640.01 1332.82,-647.93 1332.82,-647.93"/>
</g>
<!-- ragger.error -->
<g id="node16" class="node">
<title>ragger.error</title>
<polygon fill="#77aadd" stroke="#77aadd" points="1776,-972 1672,-972 1672,-936 1776,-936 1776,-972"/>
<text text-anchor="middle" x="1724" y="-950.3" font-family="Times,serif" font-size="14.00">ragger.error</text>
</g>
<!-- ragger.backend.ledgercomm&#45;&gt;ragger.error -->
<g id="edge13" class="edge">
<title>ragger.backend.ledgercomm&#45;&gt;ragger.error</title>
<path fill="none" stroke="black" d="M1312.4,-610.84C1398.49,-623.67 1504.68,-640.77 1512,-648 1592.95,-728.05 1482.83,-814.49 1558,-900 1583.91,-929.47 1626.17,-942.68 1661.57,-948.55"/>
<polygon fill="black" stroke="black" points="1671.83,-950.08 1661.27,-953.05 1666.88,-949.34 1661.94,-948.6 1661.94,-948.6 1661.94,-948.6 1666.88,-949.34 1662.6,-944.15 1671.83,-950.08 1671.83,-950.08"/>
</g>
<!-- ragger.backend.ledgercomm&#45;&gt;ragger.firmware -->
<g id="edge14" class="edge">
<title>ragger.backend.ledgercomm&#45;&gt;ragger.firmware</title>
<path fill="none" stroke="black" d="M1091.92,-604.73C958.4,-616.94 749.26,-637.54 735,-648 692.64,-679.06 711.61,-709.59 687,-756 682.23,-765 676.51,-774.54 671.19,-783"/>
<polygon fill="black" stroke="black" points="665.63,-791.69 667.22,-780.84 668.32,-787.48 671.02,-783.27 671.02,-783.27 671.02,-783.27 668.32,-787.48 674.81,-785.7 665.63,-791.69 665.63,-791.69"/>
</g>
<!-- ragger.backend.ledgercomm&#45;&gt;ragger.utils -->
<g id="edge15" class="edge">
<title>ragger.backend.ledgercomm&#45;&gt;ragger.utils</title>
<path fill="none" stroke="black" d="M1204.48,-612.15C1209.85,-649.17 1222.54,-736.82 1229.03,-781.61"/>
<polygon fill="black" stroke="black" points="1230.5,-791.77 1224.62,-782.52 1229.79,-786.82 1229.07,-781.87 1229.07,-781.87 1229.07,-781.87 1229.79,-786.82 1233.52,-781.23 1230.5,-791.77 1230.5,-791.77"/>
</g>
<!-- ragger.backend.ledgerwallet&#45;&gt;ragger.backend.physical_backend -->
<g id="edge16" class="edge">
<title>ragger.backend.ledgerwallet&#45;&gt;ragger.backend.physical_backend</title>
<path fill="none" stroke="black" d="M1438.24,-612.3C1427.76,-621.03 1414.89,-631.76 1403.5,-641.25"/>
<polygon fill="black" stroke="black" points="1395.53,-647.9 1400.33,-638.04 1399.37,-644.69 1403.21,-641.49 1403.21,-641.49 1403.21,-641.49 1399.37,-644.69 1406.09,-644.95 1395.53,-647.9 1395.53,-647.9"/>
</g>
<!-- ragger.backend.ledgerwallet&#45;&gt;ragger.error -->
<g id="edge17" class="edge">
<title>ragger.backend.ledgerwallet&#45;&gt;ragger.error</title>
<path fill="none" stroke="black" d="M1553.21,-612.04C1677.7,-640.17 1892.26,-709.4 1987,-864 2033.25,-939.47 1877.85,-952.46 1786.28,-953.78"/>
<polygon fill="black" stroke="black" points="1776.26,-953.88 1786.22,-949.28 1781.26,-953.83 1786.26,-953.78 1786.26,-953.78 1786.26,-953.78 1781.26,-953.83 1786.31,-958.28 1776.26,-953.88 1776.26,-953.88"/>
</g>
<!-- ragger.backend.ledgerwallet&#45;&gt;ragger.firmware -->
<g id="edge18" class="edge">
<title>ragger.backend.ledgerwallet&#45;&gt;ragger.firmware</title>
<path fill="none" stroke="black" d="M1348.21,-611.01C1345.11,-611.36 1342.04,-611.69 1339,-612 1275.76,-618.46 821.75,-614.05 768,-648 721.57,-677.32 741.27,-712.32 708,-756 700.23,-766.21 690.53,-776.34 681.5,-784.97"/>
<polygon fill="black" stroke="black" points="674.13,-791.83 678.38,-781.72 677.79,-788.42 681.45,-785.01 681.45,-785.01 681.45,-785.01 677.79,-788.42 684.52,-788.31 674.13,-791.83 674.13,-791.83"/>
</g>
<!-- ragger.backend.ledgerwallet&#45;&gt;ragger.utils -->
<g id="edge19" class="edge">
<title>ragger.backend.ledgerwallet&#45;&gt;ragger.utils</title>
<path fill="none" stroke="black" d="M1481.69,-612.29C1502.97,-630.64 1529.14,-660.22 1512,-684 1482.42,-725.05 1450.59,-700.26 1404,-720 1356.9,-739.96 1305.09,-767.81 1270.98,-787.01"/>
<polygon fill="black" stroke="black" points="1262.27,-791.94 1268.76,-783.1 1266.63,-789.48 1270.98,-787.02 1270.98,-787.02 1270.98,-787.02 1266.63,-789.48 1273.19,-790.93 1262.27,-791.94 1262.27,-791.94"/>
</g>
<!-- ragger.backend.physical_backend&#45;&gt;ragger.backend.interface -->
<g id="edge20" class="edge">
<title>ragger.backend.physical_backend&#45;&gt;ragger.backend.interface</title>
<path fill="none" stroke="black" d="M1283.5,-684.03C1228.24,-694.32 1157.71,-707.45 1100.7,-718.07"/>
<polygon fill="black" stroke="black" points="1090.58,-719.95 1099.59,-713.7 1095.5,-719.03 1100.41,-718.12 1100.41,-718.12 1100.41,-718.12 1095.5,-719.03 1101.24,-722.54 1090.58,-719.95 1090.58,-719.95"/>
</g>
<!-- ragger.backend.physical_backend&#45;&gt;ragger.firmware -->
<g id="edge21" class="edge">
<title>ragger.backend.physical_backend&#45;&gt;ragger.firmware</title>
<path fill="none" stroke="black" d="M1332.26,-684.07C1279.65,-704.38 1187.17,-737.82 1105,-756 975.1,-784.73 820.49,-798.61 730.19,-804.74"/>
<polygon fill="black" stroke="black" points="720.04,-805.41 729.72,-800.26 725.03,-805.08 730.02,-804.75 730.02,-804.75 730.02,-804.75 725.03,-805.08 730.32,-809.24 720.04,-805.41 720.04,-805.41"/>
</g>
<!-- ragger.gui -->
<g id="node25" class="node">
<title>ragger.gui</title>
<polygon fill="#eedd88" stroke="#eedd88" points="1503,-756 1413,-756 1413,-720 1503,-720 1503,-756"/>
<text text-anchor="middle" x="1458" y="-734.3" font-family="Times,serif" font-size="14.00">ragger.gui</text>
</g>
<!-- ragger.backend.physical_backend&#45;&gt;ragger.gui -->
<g id="edge22" class="edge">
<title>ragger.backend.physical_backend&#45;&gt;ragger.gui</title>
<path fill="none" stroke="black" d="M1395.52,-684.3C1405.87,-693.03 1418.59,-703.76 1429.84,-713.25"/>
<polygon fill="black" stroke="black" points="1437.72,-719.9 1427.17,-716.89 1433.9,-716.67 1430.07,-713.45 1430.07,-713.45 1430.07,-713.45 1433.9,-716.67 1432.98,-710.01 1437.72,-719.9 1437.72,-719.9"/>
</g>
<!-- ragger.navigator.instruction -->
<g id="node30" class="node">
<title>ragger.navigator.instruction</title>
<polygon fill="#ee8866" stroke="#ee8866" points="1784.5,-900 1567.5,-900 1567.5,-864 1784.5,-864 1784.5,-900"/>
<text text-anchor="middle" x="1676" y="-878.3" font-family="Times,serif" font-size="14.00">ragger.navigator.instruction</text>
</g>
<!-- ragger.backend.physical_backend&#45;&gt;ragger.navigator.instruction -->
<g id="edge23" class="edge">
<title>ragger.backend.physical_backend&#45;&gt;ragger.navigator.instruction</title>
<path fill="none" stroke="black" d="M1434.51,-684.1C1459.55,-692.77 1488.32,-704.73 1512,-720 1571.61,-758.43 1627.5,-821.11 1656.11,-855.84"/>
<polygon fill="black" stroke="black" points="1662.45,-863.63 1652.64,-858.71 1659.29,-859.75 1656.13,-855.87 1656.13,-855.87 1656.13,-855.87 1659.29,-859.75 1659.62,-853.03 1662.45,-863.63 1662.45,-863.63"/>
</g>
<!-- ragger.backend.physical_backend&#45;&gt;ragger.utils -->
<g id="edge24" class="edge">
<title>ragger.backend.physical_backend&#45;&gt;ragger.utils</title>
<path fill="none" stroke="black" d="M1357.87,-684.13C1332.82,-709.18 1286.05,-755.95 1257.41,-784.59"/>
<polygon fill="black" stroke="black" points="1250.19,-791.81 1254.08,-781.56 1253.72,-788.28 1257.26,-784.74 1257.26,-784.74 1257.26,-784.74 1253.72,-788.28 1260.44,-787.92 1250.19,-791.81 1250.19,-791.81"/>
</g>
<!-- ragger.backend.speculos&#45;&gt;ragger.backend.interface -->
<g id="edge25" class="edge">
<title>ragger.backend.speculos&#45;&gt;ragger.backend.interface</title>
<path fill="none" stroke="black" d="M904.58,-684.12C921.07,-693.36 941.62,-704.87 959.34,-714.79"/>
<polygon fill="black" stroke="black" points="968.3,-719.81 957.38,-718.85 963.94,-717.37 959.58,-714.92 959.58,-714.92 959.58,-714.92 963.94,-717.37 961.78,-711 968.3,-719.81 968.3,-719.81"/>
</g>
<!-- ragger.backend.speculos&#45;&gt;ragger.error -->
<g id="edge26" class="edge">
<title>ragger.backend.speculos&#45;&gt;ragger.error</title>
<path fill="none" stroke="black" d="M961.71,-684.02C1005.2,-693.24 1058.28,-705.68 1105,-720 1189.75,-745.98 1211.09,-753.63 1291,-792 1319.72,-805.79 1324.47,-813.82 1353,-828 1427.21,-864.88 1446.56,-873.27 1525,-900 1570.24,-915.41 1622.49,-929.18 1662.1,-938.82"/>
<polygon fill="black" stroke="black" points="1671.88,-941.18 1661.11,-943.21 1667.02,-940.01 1662.16,-938.83 1662.16,-938.83 1662.16,-938.83 1667.02,-940.01 1663.22,-934.46 1671.88,-941.18 1671.88,-941.18"/>
</g>
<!-- ragger.backend.speculos&#45;&gt;ragger.firmware -->
<g id="edge27" class="edge">
<title>ragger.backend.speculos&#45;&gt;ragger.firmware</title>
<path fill="none" stroke="black" d="M855.34,-684.14C834.03,-703.16 797.65,-734.07 763,-756 744.36,-767.8 722.7,-778.82 703.63,-787.73"/>
<polygon fill="black" stroke="black" points="694.5,-791.92 701.71,-783.66 699.04,-789.83 703.59,-787.75 703.59,-787.75 703.59,-787.75 699.04,-789.83 705.46,-791.84 694.5,-791.92 694.5,-791.92"/>
</g>
<!-- ragger.backend.speculos&#45;&gt;ragger.logger -->
<g id="edge28" class="edge">
<title>ragger.backend.speculos&#45;&gt;ragger.logger</title>
<path fill="none" stroke="black" d="M810.02,-684.03C692.23,-718.29 460.97,-800.79 551,-900 582.59,-934.81 890.73,-947.47 1029.2,-951.43"/>
<polygon fill="black" stroke="black" points="1039.27,-951.71 1029.15,-955.93 1034.27,-951.57 1029.28,-951.43 1029.28,-951.43 1029.28,-951.43 1034.27,-951.57 1029.4,-946.93 1039.27,-951.71 1039.27,-951.71"/>
</g>
<!-- ragger.backend.speculos&#45;&gt;ragger.utils -->
<g id="edge29" class="edge">
<title>ragger.backend.speculos&#45;&gt;ragger.utils</title>
<path fill="none" stroke="black" d="M872.17,-684.12C871.04,-704.31 872.63,-737.48 892,-756 931.28,-793.54 1086.07,-804.49 1172.98,-807.68"/>
<polygon fill="black" stroke="black" points="1183.23,-808.04 1173.08,-812.19 1178.23,-807.86 1173.24,-807.69 1173.24,-807.69 1173.24,-807.69 1178.23,-807.86 1173.39,-803.2 1183.23,-808.04 1183.23,-808.04"/>
</g>
<!-- ragger.backend.stub&#45;&gt;ragger.backend.interface -->
<g id="edge30" class="edge">
<title>ragger.backend.stub&#45;&gt;ragger.backend.interface</title>
<path fill="none" stroke="black" d="M1082.09,-684.12C1067.84,-693.19 1050.15,-704.45 1034.76,-714.24"/>
<polygon fill="black" stroke="black" points="1026.01,-719.81 1032.03,-710.64 1030.23,-717.13 1034.45,-714.44 1034.45,-714.44 1034.45,-714.44 1030.23,-717.13 1036.87,-718.24 1026.01,-719.81 1026.01,-719.81"/>
</g>
<!-- ragger.utils.structs -->
<g id="node38" class="node">
<title>ragger.utils.structs</title>
<polygon fill="#ffaabb" stroke="#ffaabb" points="1050,-900 896,-900 896,-864 1050,-864 1050,-900"/>
<text text-anchor="middle" x="973" y="-878.3" font-family="Times,serif" font-size="14.00">ragger.utils.structs</text>
</g>
<!-- ragger.backend.stub&#45;&gt;ragger.utils.structs -->
<g id="edge31" class="edge">
<title>ragger.backend.stub&#45;&gt;ragger.utils.structs</title>
<path fill="none" stroke="black" d="M1111.91,-684.28C1114.22,-702.89 1115.55,-732.93 1105,-756 1084.85,-800.08 1041.38,-836.25 1009.81,-858.15"/>
<polygon fill="black" stroke="black" points="1001.25,-863.94 1007.02,-854.61 1005.4,-861.14 1009.54,-858.33 1009.54,-858.33 1009.54,-858.33 1005.4,-861.14 1012.06,-862.06 1001.25,-863.94 1001.25,-863.94"/>
</g>
<!-- ragger.bip -->
<g id="node10" class="node">
<title>ragger.bip</title>
<polygon fill="#44bb99" stroke="#44bb99" points="2096,-36 2006,-36 2006,0 2096,0 2096,-36"/>
<text text-anchor="middle" x="2051" y="-14.3" font-family="Times,serif" font-size="14.00">ragger.bip</text>
</g>
<!-- ragger.bip.path -->
<g id="node11" class="node">
<title>ragger.bip.path</title>
<polygon fill="#44bb99" stroke="#44bb99" points="2093.5,-108 1966.5,-108 1966.5,-72 2093.5,-72 2093.5,-108"/>
<text text-anchor="middle" x="2030" y="-86.3" font-family="Times,serif" font-size="14.00">ragger.bip.path</text>
</g>
<!-- ragger.bip&#45;&gt;ragger.bip.path -->
<g id="edge32" class="edge">
<title>ragger.bip&#45;&gt;ragger.bip.path</title>
<path fill="none" stroke="black" d="M2045.81,-36.3C2043.47,-44.1 2040.65,-53.49 2038.05,-62.17"/>
<polygon fill="black" stroke="black" points="2035.13,-71.9 2033.69,-61.02 2036.57,-67.11 2038,-62.32 2038,-62.32 2038,-62.32 2036.57,-67.11 2042.32,-63.61 2035.13,-71.9 2035.13,-71.9"/>
</g>
<!-- ragger.bip.seed -->
<g id="node12" class="node">
<title>ragger.bip.seed</title>
<polygon fill="#44bb99" stroke="#44bb99" points="2240,-108 2112,-108 2112,-72 2240,-72 2240,-108"/>
<text text-anchor="middle" x="2176" y="-86.3" font-family="Times,serif" font-size="14.00">ragger.bip.seed</text>
</g>
<!-- ragger.bip&#45;&gt;ragger.bip.seed -->
<g id="edge33" class="edge">
<title>ragger.bip&#45;&gt;ragger.bip.seed</title>
<path fill="none" stroke="black" d="M2081.58,-36.12C2098.07,-45.36 2118.62,-56.87 2136.34,-66.79"/>
<polygon fill="black" stroke="black" points="2145.3,-71.81 2134.38,-70.85 2140.94,-69.37 2136.58,-66.92 2136.58,-66.92 2136.58,-66.92 2140.94,-69.37 2138.78,-63 2145.3,-71.81 2145.3,-71.81"/>
</g>
<!-- ragger.conftest -->
<g id="node13" class="node">
<title>ragger.conftest</title>
<polygon fill="#bbcc33" stroke="#bbcc33" points="2239.5,-36 2114.5,-36 2114.5,0 2239.5,0 2239.5,-36"/>
<text text-anchor="middle" x="2177" y="-14.3" font-family="Times,serif" font-size="14.00">ragger.conftest</text>
</g>
<!-- ragger.conftest.base_conftest -->
<g id="node14" class="node">
<title>ragger.conftest.base_conftest</title>
<polygon fill="#bbcc33" stroke="#bbcc33" points="1888.5,-36 1661.5,-36 1661.5,0 1888.5,0 1888.5,-36"/>
<text text-anchor="middle" x="1775" y="-14.3" font-family="Times,serif" font-size="14.00">ragger.conftest.base_conftest</text>
</g>
<!-- ragger.conftest.base_conftest&#45;&gt;ragger.backend -->
<g id="edge34" class="edge">
<title>ragger.conftest.base_conftest&#45;&gt;ragger.backend</title>
<path fill="none" stroke="black" d="M1661.47,-21.88C1380.09,-30.53 673,-62.11 673,-161 673,-161 673,-161 673,-379 673,-451.7 758.21,-488.74 823.52,-506.45"/>
<polygon fill="black" stroke="black" points="833.41,-509.03 822.6,-510.86 828.57,-507.77 823.73,-506.51 823.73,-506.51 823.73,-506.51 828.57,-507.77 824.87,-502.15 833.41,-509.03 833.41,-509.03"/>
</g>
<!-- ragger.conftest.base_conftest&#45;&gt;ragger.firmware -->
<g id="edge35" class="edge">
<title>ragger.conftest.base_conftest&#45;&gt;ragger.firmware</title>
<path fill="none" stroke="black" d="M1661.27,-22.12C1269.5,-33.62 0,-77.34 0,-161 0,-161 0,-161 0,-667 0,-784.12 405.62,-804.84 577.98,-808.35"/>
<polygon fill="black" stroke="black" points="588,-808.55 577.91,-812.85 583,-808.45 578,-808.36 578,-808.36 578,-808.36 583,-808.45 578.08,-803.86 588,-808.55 588,-808.55"/>
</g>
<!-- ragger.conftest.base_conftest&#45;&gt;ragger.logger -->
<g id="edge36" class="edge">
<title>ragger.conftest.base_conftest&#45;&gt;ragger.logger</title>
<path fill="none" stroke="black" d="M1787.72,-36.38C1805.34,-62.19 1835,-112.83 1835,-161 1835,-161 1835,-161 1835,-739 1835,-812.95 1849.76,-852.6 1793,-900 1745.3,-939.83 1327.69,-949.85 1162.68,-952.27"/>
<polygon fill="black" stroke="black" points="1152.65,-952.41 1162.59,-947.77 1157.65,-952.34 1162.65,-952.27 1162.65,-952.27 1162.65,-952.27 1157.65,-952.34 1162.71,-956.77 1152.65,-952.41 1152.65,-952.41"/>
</g>
<!-- ragger.navigator -->
<g id="node29" class="node">
<title>ragger.navigator</title>
<polygon fill="#ee8866" stroke="#ee8866" points="1658,-108 1522,-108 1522,-72 1658,-72 1658,-108"/>
<text text-anchor="middle" x="1590" y="-86.3" font-family="Times,serif" font-size="14.00">ragger.navigator</text>
</g>
<!-- ragger.conftest.base_conftest&#45;&gt;ragger.navigator -->
<g id="edge37" class="edge">
<title>ragger.conftest.base_conftest&#45;&gt;ragger.navigator</title>
<path fill="none" stroke="black" d="M1729.74,-36.12C1704,-45.86 1671.59,-58.13 1644.46,-68.39"/>
<polygon fill="black" stroke="black" points="1635.11,-71.93 1642.87,-64.18 1639.79,-70.16 1644.46,-68.39 1644.46,-68.39 1644.46,-68.39 1639.79,-70.16 1646.05,-72.6 1635.11,-71.93 1635.11,-71.93"/>
</g>
<!-- ragger.conftest.base_conftest&#45;&gt;ragger.utils -->
<g id="edge38" class="edge">
<title>ragger.conftest.base_conftest&#45;&gt;ragger.utils</title>
<path fill="none" stroke="black" d="M1779.45,-36.35C1785.88,-62.98 1797,-115.6 1797,-161 1797,-161 1797,-161 1797,-451 1797,-627.12 1696.53,-667.95 1544,-756 1533.19,-762.24 1380.1,-786.46 1292.82,-799.9"/>
<polygon fill="black" stroke="black" points="1282.78,-801.44 1291.98,-795.48 1287.72,-800.68 1292.66,-799.92 1292.66,-799.92 1292.66,-799.92 1287.72,-800.68 1293.35,-804.37 1282.78,-801.44 1282.78,-801.44"/>
</g>
<!-- ragger.utils.misc -->
<g id="node36" class="node">
<title>ragger.utils.misc</title>
<polygon fill="#ffaabb" stroke="#ffaabb" points="1978.5,-900 1841.5,-900 1841.5,-864 1978.5,-864 1978.5,-900"/>
<text text-anchor="middle" x="1910" y="-878.3" font-family="Times,serif" font-size="14.00">ragger.utils.misc</text>
</g>
<!-- ragger.conftest.base_conftest&#45;&gt;ragger.utils.misc -->
<g id="edge39" class="edge">
<title>ragger.conftest.base_conftest&#45;&gt;ragger.utils.misc</title>
<path fill="none" stroke="black" d="M1804.05,-36.09C1839.56,-59.42 1895,-104.84 1895,-161 1895,-161 1895,-161 1895,-739 1895,-779.01 1900.96,-825 1905.37,-853.54"/>
<polygon fill="black" stroke="black" points="1906.96,-863.57 1900.95,-854.41 1906.18,-858.64 1905.39,-853.7 1905.39,-853.7 1905.39,-853.7 1906.18,-858.64 1909.84,-852.99 1906.96,-863.57 1906.96,-863.57"/>
</g>
<!-- ragger.conftest.configuration -->
<g id="node15" class="node">
<title>ragger.conftest.configuration</title>
<polygon fill="#bbcc33" stroke="#bbcc33" points="2482,-36 2258,-36 2258,0 2482,0 2482,-36"/>
<text text-anchor="middle" x="2370" y="-14.3" font-family="Times,serif" font-size="14.00">ragger.conftest.configuration</text>
</g>
<!-- ragger.firmware.structs -->
<g id="node18" class="node">
<title>ragger.firmware.structs</title>
<polygon fill="#aaaa00" stroke="#aaaa00" points="747.5,-900 560.5,-900 560.5,-864 747.5,-864 747.5,-900"/>
<text text-anchor="middle" x="654" y="-878.3" font-family="Times,serif" font-size="14.00">ragger.firmware.structs</text>
</g>
<!-- ragger.firmware&#45;&gt;ragger.firmware.structs -->
<g id="edge40" class="edge">
<title>ragger.firmware&#45;&gt;ragger.firmware.structs</title>
<path fill="none" stroke="black" d="M654,-828.3C654,-836.02 654,-845.29 654,-853.89"/>
<polygon fill="black" stroke="black" points="654,-863.9 649.5,-853.9 654,-858.9 654,-853.9 654,-853.9 654,-853.9 654,-858.9 658.5,-853.9 654,-863.9 654,-863.9"/>
</g>
<!-- ragger.firmware.touch -->
<g id="node19" class="node">
<title>ragger.firmware.touch</title>
<polygon fill="#aaaa00" stroke="#aaaa00" points="877,-252 701,-252 701,-216 877,-216 877,-252"/>
<text text-anchor="middle" x="789" y="-230.3" font-family="Times,serif" font-size="14.00">ragger.firmware.touch</text>
</g>
<!-- ragger.firmware.touch.screen -->
<g id="node23" class="node">
<title>ragger.firmware.touch.screen</title>
<polygon fill="#aaaa00" stroke="#aaaa00" points="645,-324 417,-324 417,-288 645,-288 645,-324"/>
<text text-anchor="middle" x="531" y="-302.3" font-family="Times,serif" font-size="14.00">ragger.firmware.touch.screen</text>
</g>
<!-- ragger.firmware.touch&#45;&gt;ragger.firmware.touch.screen -->
<g id="edge41" class="edge">
<title>ragger.firmware.touch&#45;&gt;ragger.firmware.touch.screen</title>
<path fill="none" stroke="black" d="M726.22,-252.03C689.38,-262.03 642.67,-274.7 604.18,-285.15"/>
<polygon fill="black" stroke="black" points="594.07,-287.89 602.54,-280.93 598.89,-286.58 603.72,-285.27 603.72,-285.27 603.72,-285.27 598.89,-286.58 604.89,-289.61 594.07,-287.89 594.07,-287.89"/>
</g>
<!-- ragger.firmware.touch.element -->
<g id="node20" class="node">
<title>ragger.firmware.touch.element</title>
<polygon fill="#aaaa00" stroke="#aaaa00" points="524.5,-468 285.5,-468 285.5,-432 524.5,-432 524.5,-468"/>
<text text-anchor="middle" x="405" y="-446.3" font-family="Times,serif" font-size="14.00">ragger.firmware.touch.element</text>
</g>
<!-- ragger.firmware.touch.element&#45;&gt;ragger.backend -->
<g id="edge42" class="edge">
<title>ragger.firmware.touch.element&#45;&gt;ragger.backend</title>
<path fill="none" stroke="black" d="M524.73,-468.03C617.83,-481.28 744.03,-499.24 822.96,-510.47"/>
<polygon fill="black" stroke="black" points="833.3,-511.94 822.77,-514.98 828.35,-511.23 823.4,-510.53 823.4,-510.53 823.4,-510.53 828.35,-511.23 824.04,-506.07 833.3,-511.94 833.3,-511.94"/>
</g>
<!-- ragger.firmware.touch.element&#45;&gt;ragger.firmware -->
<g id="edge43" class="edge">
<title>ragger.firmware.touch.element&#45;&gt;ragger.firmware</title>
<path fill="none" stroke="black" d="M453.77,-468.12C471.05,-476.45 489.12,-488.16 501,-504 525.33,-536.43 521,-552.46 521,-593 521,-593 521,-593 521,-667 521,-707.97 518.9,-724.42 545,-756 556.15,-769.49 571.56,-779.81 587.29,-787.59"/>
<polygon fill="black" stroke="black" points="596.56,-791.89 585.59,-791.76 592.02,-789.78 587.48,-787.68 587.48,-787.68 587.48,-787.68 592.02,-789.78 589.38,-783.6 596.56,-791.89 596.56,-791.89"/>
</g>
<!-- ragger.firmware.touch.positions -->
<g id="node22" class="node">
<title>ragger.firmware.touch.positions</title>
<polygon fill="#aaaa00" stroke="#aaaa00" points="492.5,-540 247.5,-540 247.5,-504 492.5,-504 492.5,-540"/>
<text text-anchor="middle" x="370" y="-518.3" font-family="Times,serif" font-size="14.00">ragger.firmware.touch.positions</text>
</g>
<!-- ragger.firmware.touch.element&#45;&gt;ragger.firmware.touch.positions -->
<g id="edge44" class="edge">
<title>ragger.firmware.touch.element&#45;&gt;ragger.firmware.touch.positions</title>
<path fill="none" stroke="black" d="M396.35,-468.3C392.36,-476.27 387.55,-485.9 383.13,-494.74"/>
<polygon fill="black" stroke="black" points="378.55,-503.9 379,-492.94 380.79,-499.42 383.02,-494.95 383.02,-494.95 383.02,-494.95 380.79,-499.42 387.05,-496.96 378.55,-503.9 378.55,-503.9"/>
</g>
<!-- ragger.firmware.touch.layouts -->
<g id="node21" class="node">
<title>ragger.firmware.touch.layouts</title>
<polygon fill="#aaaa00" stroke="#aaaa00" points="261.5,-396 28.5,-396 28.5,-360 261.5,-360 261.5,-396"/>
<text text-anchor="middle" x="145" y="-374.3" font-family="Times,serif" font-size="14.00">ragger.firmware.touch.layouts</text>
</g>
<!-- ragger.firmware.touch.layouts&#45;&gt;ragger.firmware.touch.element -->
<g id="edge45" class="edge">
<title>ragger.firmware.touch.layouts&#45;&gt;ragger.firmware.touch.element</title>
<path fill="none" stroke="black" d="M208.27,-396.03C245.55,-406.07 292.86,-418.81 331.75,-429.28"/>
<polygon fill="black" stroke="black" points="341.45,-431.89 330.62,-433.63 336.62,-430.59 331.79,-429.29 331.79,-429.29 331.79,-429.29 336.62,-430.59 332.96,-424.94 341.45,-431.89 341.45,-431.89"/>
</g>
<!-- ragger.firmware.touch.positions&#45;&gt;ragger.firmware -->
<g id="edge46" class="edge">
<title>ragger.firmware.touch.positions&#45;&gt;ragger.firmware</title>
<path fill="none" stroke="black" d="M375.44,-540.05C389.86,-582.66 433.15,-694.72 507,-756 527.37,-772.9 553.56,-784.62 578.17,-792.64"/>
<polygon fill="black" stroke="black" points="587.88,-795.65 576.99,-796.99 583.1,-794.17 578.33,-792.69 578.33,-792.69 578.33,-792.69 583.1,-794.17 579.66,-788.39 587.88,-795.65 587.88,-795.65"/>
</g>
<!-- ragger.firmware.touch.screen&#45;&gt;ragger.backend -->
<g id="edge47" class="edge">
<title>ragger.firmware.touch.screen&#45;&gt;ragger.backend</title>
<path fill="none" stroke="black" d="M544.64,-324.19C577.52,-365.64 658.52,-467.7 659,-468 708.44,-498.93 773.59,-511.92 823.22,-517.32"/>
<polygon fill="black" stroke="black" points="833.25,-518.33 822.85,-521.81 828.27,-517.83 823.3,-517.33 823.3,-517.33 823.3,-517.33 828.27,-517.83 823.75,-512.85 833.25,-518.33 833.25,-518.33"/>
</g>
<!-- ragger.firmware.touch.screen&#45;&gt;ragger.firmware -->
<g id="edge48" class="edge">
<title>ragger.firmware.touch.screen&#45;&gt;ragger.firmware</title>
<path fill="none" stroke="black" d="M536.67,-324.27C544.85,-350.79 559,-403.27 559,-449 559,-449 559,-449 559,-667 559,-707.97 559.99,-722.11 583,-756 590.92,-767.66 602.27,-777.77 613.57,-785.93"/>
<polygon fill="black" stroke="black" points="622.15,-791.8 611.36,-789.87 618.02,-788.98 613.9,-786.15 613.9,-786.15 613.9,-786.15 618.02,-788.98 616.43,-782.44 622.15,-791.8 622.15,-791.8"/>
</g>
<!-- ragger.firmware.touch.screen&#45;&gt;ragger.firmware.touch.layouts -->
<g id="edge49" class="edge">
<title>ragger.firmware.touch.screen&#45;&gt;ragger.firmware.touch.layouts</title>
<path fill="none" stroke="black" d="M437.07,-324.03C380.22,-334.34 307.63,-347.51 249.04,-358.13"/>
<polygon fill="black" stroke="black" points="239.02,-359.95 248.06,-353.74 243.94,-359.06 248.86,-358.17 248.86,-358.17 248.86,-358.17 243.94,-359.06 249.66,-362.59 239.02,-359.95 239.02,-359.95"/>
</g>
<!-- ragger.firmware.touch.use_cases -->
<g id="node24" class="node">
<title>ragger.firmware.touch.use_cases</title>
<polygon fill="#aaaa00" stroke="#aaaa00" points="530.5,-396 279.5,-396 279.5,-360 530.5,-360 530.5,-396"/>
<text text-anchor="middle" x="405" y="-374.3" font-family="Times,serif" font-size="14.00">ragger.firmware.touch.use_cases</text>
</g>
<!-- ragger.firmware.touch.screen&#45;&gt;ragger.firmware.touch.use_cases -->
<g id="edge50" class="edge">
<title>ragger.firmware.touch.screen&#45;&gt;ragger.firmware.touch.use_cases</title>
<path fill="none" stroke="black" d="M500.18,-324.12C483.55,-333.36 462.84,-344.87 444.98,-354.79"/>
<polygon fill="black" stroke="black" points="435.94,-359.81 442.5,-351.02 440.31,-357.38 444.68,-354.95 444.68,-354.95 444.68,-354.95 440.31,-357.38 446.87,-358.89 435.94,-359.81 435.94,-359.81"/>
</g>
<!-- ragger.firmware.touch.use_cases&#45;&gt;ragger.firmware.touch.element -->
<g id="edge51" class="edge">
<title>ragger.firmware.touch.use_cases&#45;&gt;ragger.firmware.touch.element</title>
<path fill="none" stroke="black" d="M405,-396.3C405,-404.02 405,-413.29 405,-421.89"/>
<polygon fill="black" stroke="black" points="405,-431.9 400.5,-421.9 405,-426.9 405,-421.9 405,-421.9 405,-421.9 405,-426.9 409.5,-421.9 405,-431.9 405,-431.9"/>
</g>
<!-- ragger.gui.process -->
<g id="node27" class="node">
<title>ragger.gui.process</title>
<polygon fill="#eedd88" stroke="#eedd88" points="1511.5,-828 1362.5,-828 1362.5,-792 1511.5,-792 1511.5,-828"/>
<text text-anchor="middle" x="1437" y="-806.3" font-family="Times,serif" font-size="14.00">ragger.gui.process</text>
</g>
<!-- ragger.gui&#45;&gt;ragger.gui.process -->
<g id="edge52" class="edge">
<title>ragger.gui&#45;&gt;ragger.gui.process</title>
<path fill="none" stroke="black" d="M1452.81,-756.3C1450.47,-764.1 1447.65,-773.49 1445.05,-782.17"/>
<polygon fill="black" stroke="black" points="1442.13,-791.9 1440.69,-781.02 1443.57,-787.11 1445,-782.32 1445,-782.32 1445,-782.32 1443.57,-787.11 1449.32,-783.61 1442.13,-791.9 1442.13,-791.9"/>
</g>
<!-- ragger.gui.interface -->
<g id="node26" class="node">
<title>ragger.gui.interface</title>
<polygon fill="#eedd88" stroke="#eedd88" points="1403,-900 1245,-900 1245,-864 1403,-864 1403,-900"/>
<text text-anchor="middle" x="1324" y="-878.3" font-family="Times,serif" font-size="14.00">ragger.gui.interface</text>
</g>
<!-- ragger.gui.interface&#45;&gt;ragger.logger -->
<g id="edge53" class="edge">
<title>ragger.gui.interface&#45;&gt;ragger.logger</title>
<path fill="none" stroke="black" d="M1268.52,-900.03C1236.24,-909.94 1195.39,-922.49 1161.54,-932.88"/>
<polygon fill="black" stroke="black" points="1151.73,-935.89 1159.97,-928.65 1156.51,-934.42 1161.29,-932.95 1161.29,-932.95 1161.29,-932.95 1156.51,-934.42 1162.61,-937.26 1151.73,-935.89 1151.73,-935.89"/>
</g>
<!-- ragger.gui.process&#45;&gt;ragger.gui.interface -->
<g id="edge54" class="edge">
<title>ragger.gui.process&#45;&gt;ragger.gui.interface</title>
<path fill="none" stroke="black" d="M1409.36,-828.12C1394.58,-837.28 1376.21,-848.66 1360.3,-858.52"/>
<polygon fill="black" stroke="black" points="1351.75,-863.81 1357.88,-854.72 1356,-861.18 1360.25,-858.54 1360.25,-858.54 1360.25,-858.54 1356,-861.18 1362.62,-862.37 1351.75,-863.81 1351.75,-863.81"/>
</g>
<!-- ragger.gui.process&#45;&gt;ragger.logger -->
<g id="edge55" class="edge">
<title>ragger.gui.process&#45;&gt;ragger.logger</title>
<path fill="none" stroke="black" d="M1437.31,-828.21C1436.67,-848.51 1432.3,-881.77 1412,-900 1376.22,-932.12 1244.69,-945.03 1163.02,-950.02"/>
<polygon fill="black" stroke="black" points="1152.83,-950.62 1162.55,-945.54 1157.82,-950.33 1162.81,-950.04 1162.81,-950.04 1162.81,-950.04 1157.82,-950.33 1163.08,-954.53 1152.83,-950.62 1152.83,-950.62"/>
</g>
<!-- ragger.gui.process&#45;&gt;ragger.navigator.instruction -->
<g id="edge56" class="edge">
<title>ragger.gui.process&#45;&gt;ragger.navigator.instruction</title>
<path fill="none" stroke="black" d="M1495.16,-828.03C1529.13,-837.99 1572.18,-850.59 1607.76,-861.01"/>
<polygon fill="black" stroke="black" points="1617.58,-863.89 1606.72,-865.4 1612.78,-862.48 1607.98,-861.08 1607.98,-861.08 1607.98,-861.08 1612.78,-862.48 1609.25,-856.76 1617.58,-863.89 1617.58,-863.89"/>
</g>
<!-- ragger.navigator&#45;&gt;ragger.navigator -->
<g id="edge57" class="edge">
<title>ragger.navigator&#45;&gt;ragger.navigator</title>
<path fill="none" stroke="black" d="M1658.13,-77.63C1668.76,-79.48 1676,-83.6 1676,-90 1676,-94.1 1673.03,-97.26 1668.1,-99.5"/>
<polygon fill="black" stroke="black" points="1658.13,-102.37 1666.49,-95.28 1662.93,-100.99 1667.74,-99.6 1667.74,-99.6 1667.74,-99.6 1662.93,-100.99 1668.98,-103.92 1658.13,-102.37 1658.13,-102.37"/>
</g>
<!-- ragger.navigator&#45;&gt;ragger.navigator.instruction -->
<g id="edge58" class="edge">
<title>ragger.navigator&#45;&gt;ragger.navigator.instruction</title>
<path fill="none" stroke="black" d="M1658.28,-100.4C1686.98,-107.73 1718.43,-120.78 1739,-144 1765.89,-174.34 1759,-192.46 1759,-233 1759,-233 1759,-233 1759,-451 1759,-547.6 1797,-568.4 1797,-665 1797,-665 1797,-665 1797,-739 1797,-790.95 1749.49,-833.55 1714.02,-858.12"/>
<polygon fill="black" stroke="black" points="1705.29,-863.97 1711.09,-854.66 1709.44,-861.19 1713.6,-858.4 1713.6,-858.4 1713.6,-858.4 1709.44,-861.19 1716.1,-862.14 1705.29,-863.97 1705.29,-863.97"/>
</g>
<!-- ragger.navigator.nano_navigator -->
<g id="node31" class="node">
<title>ragger.navigator.nano_navigator</title>
<polygon fill="#ee8866" stroke="#ee8866" points="1219,-396 971,-396 971,-360 1219,-360 1219,-396"/>
<text text-anchor="middle" x="1095" y="-374.3" font-family="Times,serif" font-size="14.00">ragger.navigator.nano_navigator</text>
</g>
<!-- ragger.navigator&#45;&gt;ragger.navigator.nano_navigator -->
<g id="edge59" class="edge">
<title>ragger.navigator&#45;&gt;ragger.navigator.nano_navigator</title>
<path fill="none" stroke="black" d="M1530.88,-108.04C1502.67,-117.14 1468.86,-129.46 1440,-144 1314.81,-207.09 1181.28,-308.33 1123.91,-353.7"/>
<polygon fill="black" stroke="black" points="1116.01,-359.97 1121.04,-350.23 1119.92,-356.86 1123.84,-353.75 1123.84,-353.75 1123.84,-353.75 1119.92,-356.86 1126.64,-357.28 1116.01,-359.97 1116.01,-359.97"/>
</g>
<!-- ragger.navigator.navigation_scenario -->
<g id="node32" class="node">
<title>ragger.navigator.navigation_scenario</title>
<polygon fill="#ee8866" stroke="#ee8866" points="1730.5,-180 1449.5,-180 1449.5,-144 1730.5,-144 1730.5,-180"/>
<text text-anchor="middle" x="1590" y="-158.3" font-family="Times,serif" font-size="14.00">ragger.navigator.navigation_scenario</text>
</g>
<!-- ragger.navigator&#45;&gt;ragger.navigator.navigation_scenario -->
<g id="edge60" class="edge">
<title>ragger.navigator&#45;&gt;ragger.navigator.navigation_scenario</title>
<path fill="none" stroke="black" d="M1590,-108.3C1590,-116.02 1590,-125.29 1590,-133.89"/>
<polygon fill="black" stroke="black" points="1590,-143.9 1585.5,-133.9 1590,-138.9 1590,-133.9 1590,-133.9 1590,-133.9 1590,-138.9 1594.5,-133.9 1590,-143.9 1590,-143.9"/>
</g>
<!-- ragger.navigator.touch_navigator -->
<g id="node34" class="node">
<title>ragger.navigator.touch_navigator</title>
<polygon fill="#ee8866" stroke="#ee8866" points="1197,-180 943,-180 943,-144 1197,-144 1197,-180"/>
<text text-anchor="middle" x="1070" y="-158.3" font-family="Times,serif" font-size="14.00">ragger.navigator.touch_navigator</text>
</g>
<!-- ragger.navigator&#45;&gt;ragger.navigator.touch_navigator -->
<g id="edge61" class="edge">
<title>ragger.navigator&#45;&gt;ragger.navigator.touch_navigator</title>
<path fill="none" stroke="black" d="M1521.75,-100.19C1441.95,-110.93 1307.89,-128.98 1206.49,-142.63"/>
<polygon fill="black" stroke="black" points="1196.47,-143.98 1205.78,-138.18 1201.42,-143.31 1206.38,-142.64 1206.38,-142.64 1206.38,-142.64 1201.42,-143.31 1206.98,-147.1 1196.47,-143.98 1196.47,-143.98"/>
</g>
<!-- ragger.navigator.nano_navigator&#45;&gt;ragger.backend -->
<g id="edge62" class="edge">
<title>ragger.navigator.nano_navigator&#45;&gt;ragger.backend</title>
<path fill="none" stroke="black" d="M1071.12,-396.13C1035.66,-421.56 969.02,-469.35 929.26,-497.86"/>
<polygon fill="black" stroke="black" points="920.97,-503.81 926.47,-494.33 925.03,-500.9 929.09,-497.98 929.09,-497.98 929.09,-497.98 925.03,-500.9 931.72,-501.64 920.97,-503.81 920.97,-503.81"/>
</g>
<!-- ragger.navigator.nano_navigator&#45;&gt;ragger.firmware -->
<g id="edge63" class="edge">
<title>ragger.navigator.nano_navigator&#45;&gt;ragger.firmware</title>
<path fill="none" stroke="black" d="M1040.49,-396.12C947.46,-428.52 759.98,-508.36 676,-648 651.07,-689.45 649.67,-747.59 651.46,-781.48"/>
<polygon fill="black" stroke="black" points="652.12,-791.57 646.97,-781.89 651.79,-786.58 651.46,-781.6 651.46,-781.6 651.46,-781.6 651.79,-786.58 655.95,-781.3 652.12,-791.57 652.12,-791.57"/>
</g>
<!-- ragger.navigator.navigator -->
<g id="node33" class="node">
<title>ragger.navigator.navigator</title>
<polygon fill="#ee8866" stroke="#ee8866" points="1350.5,-468 1143.5,-468 1143.5,-432 1350.5,-432 1350.5,-468"/>
<text text-anchor="middle" x="1247" y="-446.3" font-family="Times,serif" font-size="14.00">ragger.navigator.navigator</text>
</g>
<!-- ragger.navigator.nano_navigator&#45;&gt;ragger.navigator.navigator -->
<g id="edge64" class="edge">
<title>ragger.navigator.nano_navigator&#45;&gt;ragger.navigator.navigator</title>
<path fill="none" stroke="black" d="M1132.18,-396.12C1152.87,-405.65 1178.8,-417.59 1200.78,-427.72"/>
<polygon fill="black" stroke="black" points="1209.94,-431.93 1198.97,-431.84 1205.4,-429.84 1200.85,-427.75 1200.85,-427.75 1200.85,-427.75 1205.4,-429.84 1202.74,-423.66 1209.94,-431.93 1209.94,-431.93"/>
</g>
<!-- ragger.navigator.navigation_scenario&#45;&gt;ragger.navigator.navigator -->
<g id="edge65" class="edge">
<title>ragger.navigator.navigation_scenario&#45;&gt;ragger.navigator.navigator</title>
<path fill="none" stroke="black" d="M1569.57,-180.03C1511.09,-228.8 1342.9,-369.04 1275.47,-425.27"/>
<polygon fill="black" stroke="black" points="1267.76,-431.69 1272.55,-421.83 1271.6,-428.49 1275.44,-425.29 1275.44,-425.29 1275.44,-425.29 1271.6,-428.49 1278.32,-428.75 1267.76,-431.69 1267.76,-431.69"/>
</g>
<!-- ragger.navigator.navigator&#45;&gt;ragger.backend -->
<g id="edge66" class="edge">
<title>ragger.navigator.navigator&#45;&gt;ragger.backend</title>
<path fill="none" stroke="black" d="M1156.85,-468.05C1103.84,-478.2 1035.55,-491.5 975,-504 973.56,-504.3 972.1,-504.6 970.63,-504.91"/>
<polygon fill="black" stroke="black" points="960.83,-506.97 969.69,-500.51 965.72,-505.94 970.61,-504.91 970.61,-504.91 970.61,-504.91 965.72,-505.94 971.54,-509.31 960.83,-506.97 960.83,-506.97"/>
</g>
<!-- ragger.navigator.navigator&#45;&gt;ragger.firmware -->
<g id="edge67" class="edge">
<title>ragger.navigator.navigator&#45;&gt;ragger.firmware</title>
<path fill="none" stroke="black" d="M1195.95,-468.15C1064.22,-512.58 721.87,-629.27 704,-648 668.66,-685.04 658.27,-746.62 655.23,-781.92"/>
<polygon fill="black" stroke="black" points="654.51,-791.97 650.74,-781.67 654.87,-786.99 655.23,-782 655.23,-782 655.23,-782 654.87,-786.99 659.72,-782.32 654.51,-791.97 654.51,-791.97"/>
</g>
<!-- ragger.navigator.navigator&#45;&gt;ragger.navigator.instruction -->
<g id="edge68" class="edge">
<title>ragger.navigator.navigator&#45;&gt;ragger.navigator.instruction</title>
<path fill="none" stroke="black" d="M1350.51,-459.12C1426.84,-466.87 1522.76,-480.87 1555,-504 1670.54,-586.9 1678.36,-782.02 1677.11,-853.84"/>
<polygon fill="black" stroke="black" points="1676.86,-863.9 1672.61,-853.79 1676.98,-858.9 1677.11,-853.9 1677.11,-853.9 1677.11,-853.9 1676.98,-858.9 1681.6,-854.01 1676.86,-863.9 1676.86,-863.9"/>
</g>
<!-- ragger.navigator.navigator&#45;&gt;ragger.utils -->
<g id="edge69" class="edge">
<title>ragger.navigator.navigator&#45;&gt;ragger.utils</title>
<path fill="none" stroke="black" d="M1350.78,-458.46C1456.04,-471.77 1600.52,-508.83 1578,-612 1562.99,-680.78 1567.43,-712.59 1512,-756 1494.91,-769.38 1369.32,-789.43 1292.58,-800.64"/>
<polygon fill="black" stroke="black" points="1282.56,-802.1 1291.81,-796.21 1287.5,-801.38 1292.45,-800.66 1292.45,-800.66 1292.45,-800.66 1287.5,-801.38 1293.1,-805.12 1282.56,-802.1 1282.56,-802.1"/>
</g>
<!-- ragger.navigator.touch_navigator&#45;&gt;ragger.backend -->
<g id="edge70" class="edge">
<title>ragger.navigator.touch_navigator&#45;&gt;ragger.backend</title>
<path fill="none" stroke="black" d="M1038.61,-180.06C1001,-203.05 943,-247.78 943,-305 943,-305 943,-305 943,-379 943,-420.96 924.6,-466.64 911.07,-494.56"/>
<polygon fill="black" stroke="black" points="906.53,-503.66 906.97,-492.7 908.76,-499.18 911,-494.71 911,-494.71 911,-494.71 908.76,-499.18 915.02,-496.72 906.53,-503.66 906.53,-503.66"/>
</g>
<!-- ragger.navigator.touch_navigator&#45;&gt;ragger.firmware -->
<g id="edge71" class="edge">
<title>ragger.navigator.touch_navigator&#45;&gt;ragger.firmware</title>
<path fill="none" stroke="black" d="M1030.75,-180.05C1008.97,-189.88 981.59,-202.88 958,-216 916.28,-239.2 597,-401.26 597,-449 597,-449 597,-449 597,-667 597,-710.2 620,-755.81 636.78,-783.34"/>
<polygon fill="black" stroke="black" points="642.19,-791.96 633.06,-785.88 639.53,-787.72 636.87,-783.49 636.87,-783.49 636.87,-783.49 639.53,-787.72 640.68,-781.1 642.19,-791.96 642.19,-791.96"/>
</g>
<!-- ragger.navigator.touch_navigator&#45;&gt;ragger.firmware.touch -->
<g id="edge72" class="edge">
<title>ragger.navigator.touch_navigator&#45;&gt;ragger.firmware.touch</title>
<path fill="none" stroke="black" d="M1001.62,-180.03C961.16,-190.11 909.76,-202.92 867.63,-213.41"/>
<polygon fill="black" stroke="black" points="857.69,-215.89 866.3,-209.11 862.54,-214.68 867.39,-213.47 867.39,-213.47 867.39,-213.47 862.54,-214.68 868.48,-217.84 857.69,-215.89 857.69,-215.89"/>
</g>
<!-- ragger.navigator.touch_navigator&#45;&gt;ragger.navigator.instruction -->
<g id="edge73" class="edge">
<title>ragger.navigator.touch_navigator&#45;&gt;ragger.navigator.instruction</title>
<path fill="none" stroke="black" d="M1197.06,-178.51C1386.52,-205.22 1721,-267.84 1721,-377 1721,-377 1721,-377 1721,-523 1721,-659.21 1716.31,-694.16 1691,-828 1689.36,-836.68 1686.95,-846.01 1684.53,-854.37"/>
<polygon fill="black" stroke="black" points="1681.65,-864 1680.21,-853.13 1683.08,-859.21 1684.52,-854.42 1684.52,-854.42 1684.52,-854.42 1683.08,-859.21 1688.83,-855.71 1681.65,-864 1681.65,-864"/>
</g>
<!-- ragger.navigator.touch_navigator&#45;&gt;ragger.navigator.navigator -->
<g id="edge74" class="edge">
<title>ragger.navigator.touch_navigator&#45;&gt;ragger.navigator.navigator</title>
<path fill="none" stroke="black" d="M1088.44,-180.02C1121.81,-211.92 1192.09,-284.35 1228,-360 1237.29,-379.57 1242.08,-403.7 1244.52,-421.9"/>
<polygon fill="black" stroke="black" points="1245.71,-431.85 1240.06,-422.45 1245.12,-426.88 1244.52,-421.92 1244.52,-421.92 1244.52,-421.92 1245.12,-426.88 1248.99,-421.39 1245.71,-431.85 1245.71,-431.85"/>
</g>
<!-- ragger.utils&#45;&gt;ragger.utils.misc -->
<g id="edge75" class="edge">
<title>ragger.utils&#45;&gt;ragger.utils.misc</title>
<path fill="none" stroke="black" d="M1282.54,-818.69C1304.15,-821.87 1329.79,-825.41 1353,-828 1548,-849.77 1598.04,-841.88 1793,-864 1805.39,-865.41 1818.49,-867.1 1831.27,-868.87"/>
<polygon fill="black" stroke="black" points="1841.42,-870.3 1830.89,-873.36 1836.47,-869.6 1831.52,-868.91 1831.52,-868.91 1831.52,-868.91 1836.47,-869.6 1832.15,-864.45 1841.42,-870.3 1841.42,-870.3"/>
</g>
<!-- ragger.utils.packing -->
<g id="node37" class="node">
<title>ragger.utils.packing</title>
<polygon fill="#ffaabb" stroke="#ffaabb" points="1227.5,-900 1068.5,-900 1068.5,-864 1227.5,-864 1227.5,-900"/>
<text text-anchor="middle" x="1148" y="-878.3" font-family="Times,serif" font-size="14.00">ragger.utils.packing</text>
</g>
<!-- ragger.utils&#45;&gt;ragger.utils.packing -->
<g id="edge76" class="edge">
<title>ragger.utils&#45;&gt;ragger.utils.packing</title>
<path fill="none" stroke="black" d="M1211.99,-828.3C1201.28,-837.12 1188.11,-847.97 1176.5,-857.53"/>
<polygon fill="black" stroke="black" points="1168.77,-863.9 1173.63,-854.06 1172.63,-860.72 1176.49,-857.54 1176.49,-857.54 1176.49,-857.54 1172.63,-860.72 1179.35,-861.01 1168.77,-863.9 1168.77,-863.9"/>
</g>
<!-- ragger.utils&#45;&gt;ragger.utils.structs -->
<g id="edge77" class="edge">
<title>ragger.utils&#45;&gt;ragger.utils.structs</title>
<path fill="none" stroke="black" d="M1183.48,-824.33C1144.58,-834.8 1089.83,-849.55 1045.92,-861.37"/>
<polygon fill="black" stroke="black" points="1036.15,-864 1044.64,-857.05 1040.98,-862.7 1045.81,-861.4 1045.81,-861.4 1045.81,-861.4 1040.98,-862.7 1046.98,-865.74 1036.15,-864 1036.15,-864"/>
</g>
<!-- ragger.utils.misc&#45;&gt;ragger.error -->
<g id="edge78" class="edge">
<title>ragger.utils.misc&#45;&gt;ragger.error</title>
<path fill="none" stroke="black" d="M1864.5,-900.12C1838.62,-909.86 1806.03,-922.13 1778.76,-932.39"/>
<polygon fill="black" stroke="black" points="1769.35,-935.93 1777.13,-928.2 1774.03,-934.17 1778.71,-932.41 1778.71,-932.41 1778.71,-932.41 1774.03,-934.17 1780.3,-936.62 1769.35,-935.93 1769.35,-935.93"/>
</g>
</g>
</svg>
