<?xml version="1.0" encoding="UTF-8" standalone="no"?>
<!DOCTYPE svg PUBLIC "-//W3C//DTD SVG 1.1//EN"
 "http://www.w3.org/Graphics/SVG/1.1/DTD/svg11.dtd">
<!-- Generated by graphviz version 2.43.0 (0)
 -->
<!-- Title: packages_generated_ragger_architecture Pages: 1 -->
<svg width="1109pt" height="620pt"
 viewBox="0.00 0.00 1109.00 620.00" xmlns="http://www.w3.org/2000/svg" xmlns:xlink="http://www.w3.org/1999/xlink">
<g id="graph0" class="graph" transform="scale(1 1) rotate(0) translate(4 616)">
<title>packages_generated_ragger_architecture</title>
<polygon fill="white" stroke="transparent" points="-4,4 -4,-616 1105,-616 1105,4 -4,4"/>
<!-- ragger -->
<g id="node1" class="node">
<title>ragger</title>
<polygon fill="aliceblue" stroke="aliceblue" points="524,-396 459,-396 459,-360 524,-360 524,-396"/>
<text text-anchor="middle" x="491.5" y="-374.3" font-family="Times,serif" font-size="14.00">ragger</text>
</g>
<!-- ragger.error -->
<g id="node12" class="node">
<title>ragger.error</title>
<polygon fill="aliceblue" stroke="aliceblue" points="483.5,-468 379.5,-468 379.5,-432 483.5,-432 483.5,-468"/>
<text text-anchor="middle" x="431.5" y="-446.3" font-family="Times,serif" font-size="14.00">ragger.error</text>
</g>
<!-- ragger&#45;&gt;ragger.error -->
<g id="edge1" class="edge">
<title>ragger&#45;&gt;ragger.error</title>
<path fill="none" stroke="black" d="M476.67,-396.3C469.48,-404.7 460.7,-414.93 452.81,-424.14"/>
<polygon fill="black" stroke="black" points="446.16,-431.9 449.25,-421.37 449.41,-428.1 452.67,-424.3 452.67,-424.3 452.67,-424.3 449.41,-428.1 456.09,-427.23 446.16,-431.9 446.16,-431.9"/>
</g>
<!-- ragger.firmware -->
<g id="node13" class="node">
<title>ragger.firmware</title>
<polygon fill="burlywood" stroke="burlywood" points="976.5,-468 844.5,-468 844.5,-432 976.5,-432 976.5,-468"/>
<text text-anchor="middle" x="910.5" y="-446.3" font-family="Times,serif" font-size="14.00">ragger.firmware</text>
</g>
<!-- ragger&#45;&gt;ragger.firmware -->
<g id="edge2" class="edge">
<title>ragger&#45;&gt;ragger.firmware</title>
<path fill="none" stroke="black" d="M524.14,-385.85C539.92,-389.08 559.17,-392.89 576.5,-396 664.72,-411.82 766.5,-427.62 834.3,-437.8"/>
<polygon fill="black" stroke="black" points="844.46,-439.32 833.9,-442.29 839.52,-438.58 834.57,-437.84 834.57,-437.84 834.57,-437.84 839.52,-438.58 835.24,-433.39 844.46,-439.32 844.46,-439.32"/>
</g>
<!-- ragger.utils -->
<g id="node19" class="node">
<title>ragger.utils</title>
<polygon fill="chartreuse" stroke="chartreuse" points="614,-468 515,-468 515,-432 614,-432 614,-468"/>
<text text-anchor="middle" x="564.5" y="-446.3" font-family="Times,serif" font-size="14.00">ragger.utils</text>
</g>
<!-- ragger&#45;&gt;ragger.utils -->
<g id="edge3" class="edge">
<title>ragger&#45;&gt;ragger.utils</title>
<path fill="none" stroke="black" d="M509.54,-396.3C518.56,-404.95 529.62,-415.55 539.44,-424.97"/>
<polygon fill="black" stroke="black" points="546.66,-431.9 536.33,-428.22 543.05,-428.44 539.44,-424.97 539.44,-424.97 539.44,-424.97 543.05,-428.44 542.56,-421.73 546.66,-431.9 546.66,-431.9"/>
</g>
<!-- ragger.backend -->
<g id="node2" class="node">
<title>ragger.backend</title>
<polygon fill="antiquewhite" stroke="antiquewhite" points="795,-252 668,-252 668,-216 795,-216 795,-252"/>
<text text-anchor="middle" x="731.5" y="-230.3" font-family="Times,serif" font-size="14.00">ragger.backend</text>
</g>
<!-- ragger.backend.interface -->
<g id="node3" class="node">
<title>ragger.backend.interface</title>
<polygon fill="antiquewhite" stroke="antiquewhite" points="813,-396 618,-396 618,-360 813,-360 813,-396"/>
<text text-anchor="middle" x="715.5" y="-374.3" font-family="Times,serif" font-size="14.00">ragger.backend.interface</text>
</g>
<!-- ragger.backend&#45;&gt;ragger.backend.interface -->
<g id="edge4" class="edge">
<title>ragger.backend&#45;&gt;ragger.backend.interface</title>
<path fill="none" stroke="black" d="M728.64,-252.15C726.99,-262.51 724.94,-275.99 723.5,-288 721.01,-308.66 718.94,-332.11 717.52,-349.75"/>
<polygon fill="black" stroke="black" points="716.73,-359.91 713.02,-349.59 717.12,-354.92 717.51,-349.94 717.51,-349.94 717.51,-349.94 717.12,-354.92 721.99,-350.29 716.73,-359.91 716.73,-359.91"/>
</g>
<!-- ragger.backend.ledgercomm -->
<g id="node4" class="node">
<title>ragger.backend.ledgercomm</title>
<polygon fill="antiquewhite" stroke="antiquewhite" points="952.5,-324 732.5,-324 732.5,-288 952.5,-288 952.5,-324"/>
<text text-anchor="middle" x="842.5" y="-302.3" font-family="Times,serif" font-size="14.00">ragger.backend.ledgercomm</text>
</g>
<!-- ragger.backend&#45;&gt;ragger.backend.ledgercomm -->
<g id="edge5" class="edge">
<title>ragger.backend&#45;&gt;ragger.backend.ledgercomm</title>
<path fill="none" stroke="black" d="M758.65,-252.12C773.03,-261.19 790.88,-272.45 806.41,-282.24"/>
<polygon fill="black" stroke="black" points="815.24,-287.81 804.38,-286.28 811.01,-285.14 806.78,-282.48 806.78,-282.48 806.78,-282.48 811.01,-285.14 809.18,-278.67 815.24,-287.81 815.24,-287.81"/>
</g>
<!-- ragger.backend.ledgerwallet -->
<g id="node5" class="node">
<title>ragger.backend.ledgerwallet</title>
<polygon fill="antiquewhite" stroke="antiquewhite" points="465,-324 244,-324 244,-288 465,-288 465,-324"/>
<text text-anchor="middle" x="354.5" y="-302.3" font-family="Times,serif" font-size="14.00">ragger.backend.ledgerwallet</text>
</g>
<!-- ragger.backend&#45;&gt;ragger.backend.ledgerwallet -->
<g id="edge6" class="edge">
<title>ragger.backend&#45;&gt;ragger.backend.ledgerwallet</title>
<path fill="none" stroke="black" d="M667.97,-246.8C610.19,-257.52 523.89,-273.55 456.46,-286.07"/>
<polygon fill="black" stroke="black" points="446.23,-287.97 455.24,-281.72 451.14,-287.06 456.06,-286.14 456.06,-286.14 456.06,-286.14 451.14,-287.06 456.88,-290.57 446.23,-287.97 446.23,-287.97"/>
</g>
<!-- ragger.backend.speculos -->
<g id="node6" class="node">
<title>ragger.backend.speculos</title>
<polygon fill="antiquewhite" stroke="antiquewhite" points="676,-324 483,-324 483,-288 676,-288 676,-324"/>
<text text-anchor="middle" x="579.5" y="-302.3" font-family="Times,serif" font-size="14.00">ragger.backend.speculos</text>
</g>
<!-- ragger.backend&#45;&gt;ragger.backend.speculos -->
<g id="edge7" class="edge">
<title>ragger.backend&#45;&gt;ragger.backend.speculos</title>
<path fill="none" stroke="black" d="M694.32,-252.12C673.63,-261.65 647.7,-273.59 625.72,-283.72"/>
<polygon fill="black" stroke="black" points="616.56,-287.93 623.76,-279.66 621.1,-285.84 625.65,-283.75 625.65,-283.75 625.65,-283.75 621.1,-285.84 627.53,-287.84 616.56,-287.93 616.56,-287.93"/>
</g>
<!-- ragger.backend.interface&#45;&gt;ragger.firmware -->
<g id="edge8" class="edge">
<title>ragger.backend.interface&#45;&gt;ragger.firmware</title>
<path fill="none" stroke="black" d="M763.2,-396.12C790.45,-405.91 824.8,-418.23 853.47,-428.53"/>
<polygon fill="black" stroke="black" points="862.95,-431.93 852.02,-432.79 858.25,-430.24 853.54,-428.55 853.54,-428.55 853.54,-428.55 858.25,-430.24 855.06,-424.32 862.95,-431.93 862.95,-431.93"/>
</g>
<!-- ragger.backend.interface&#45;&gt;ragger.utils -->
<g id="edge9" class="edge">
<title>ragger.backend.interface&#45;&gt;ragger.utils</title>
<path fill="none" stroke="black" d="M678.56,-396.12C658.01,-405.65 632.25,-417.59 610.41,-427.72"/>
<polygon fill="black" stroke="black" points="601.32,-431.93 608.5,-423.64 605.86,-429.83 610.39,-427.73 610.39,-427.73 610.39,-427.73 605.86,-429.83 612.28,-431.81 601.32,-431.93 601.32,-431.93"/>
</g>
<!-- ragger.backend.ledgercomm&#45;&gt;ragger -->
<g id="edge10" class="edge">
<title>ragger.backend.ledgercomm&#45;&gt;ragger</title>
<path fill="none" stroke="black" d="M757.08,-324.03C686.55,-338.1 589.38,-357.48 534.25,-368.48"/>
<polygon fill="black" stroke="black" points="524.13,-370.49 533.06,-364.12 529.03,-369.51 533.94,-368.54 533.94,-368.54 533.94,-368.54 529.03,-369.51 534.82,-372.95 524.13,-370.49 524.13,-370.49"/>
</g>
<!-- ragger.backend.ledgercomm&#45;&gt;ragger.backend.interface -->
<g id="edge11" class="edge">
<title>ragger.backend.ledgercomm&#45;&gt;ragger.backend.interface</title>
<path fill="none" stroke="black" d="M811.43,-324.12C794.67,-333.36 773.79,-344.87 755.8,-354.79"/>
<polygon fill="black" stroke="black" points="746.69,-359.81 753.27,-351.04 751.07,-357.4 755.44,-354.98 755.44,-354.98 755.44,-354.98 751.07,-357.4 757.62,-358.92 746.69,-359.81 746.69,-359.81"/>
</g>
<!-- ragger.backend.ledgercomm&#45;&gt;ragger.backend.ledgercomm -->
<g id="edge12" class="edge">
<title>ragger.backend.ledgercomm&#45;&gt;ragger.backend.ledgercomm</title>
<path fill="none" stroke="black" d="M952.65,-294.99C963.56,-297.2 970.5,-300.87 970.5,-306 970.5,-309.37 967.51,-312.11 962.37,-314.21"/>
<polygon fill="black" stroke="black" points="952.65,-317.01 961.02,-309.92 957.46,-315.63 962.26,-314.25 962.26,-314.25 962.26,-314.25 957.46,-315.63 963.51,-318.57 952.65,-317.01 952.65,-317.01"/>
</g>
<!-- ragger.backend.ledgercomm&#45;&gt;ragger.error -->
<g id="edge13" class="edge">
<title>ragger.backend.ledgercomm&#45;&gt;ragger.error</title>
<path fill="none" stroke="black" d="M844.03,-324.29C844.78,-344.67 842.53,-378.01 822.5,-396 769.91,-443.22 576.18,-420.17 506.5,-432 502.35,-432.7 498.09,-433.49 493.81,-434.33"/>
<polygon fill="black" stroke="black" points="483.81,-436.38 492.7,-429.97 488.71,-435.38 493.6,-434.37 493.6,-434.37 493.6,-434.37 488.71,-435.38 494.5,-438.78 483.81,-436.38 483.81,-436.38"/>
</g>
<!-- ragger.backend.ledgercomm&#45;&gt;ragger.firmware -->
<g id="edge14" class="edge">
<title>ragger.backend.ledgercomm&#45;&gt;ragger.firmware</title>
<path fill="none" stroke="black" d="M863.42,-324.1C873.71,-333.62 885.4,-346.3 892.5,-360 902.44,-379.19 906.9,-403.35 908.89,-421.65"/>
<polygon fill="black" stroke="black" points="909.8,-431.67 904.41,-422.12 909.35,-426.69 908.9,-421.71 908.9,-421.71 908.9,-421.71 909.35,-426.69 913.38,-421.31 909.8,-431.67 909.8,-431.67"/>
</g>
<!-- ragger.backend.ledgercomm&#45;&gt;ragger.utils -->
<g id="edge15" class="edge">
<title>ragger.backend.ledgercomm&#45;&gt;ragger.utils</title>
<path fill="none" stroke="black" d="M851.73,-324.19C860.86,-343.84 871.27,-375.88 854.5,-396 825.82,-430.4 700.81,-442.54 624.59,-446.77"/>
<polygon fill="black" stroke="black" points="614.17,-447.32 623.92,-442.3 619.17,-447.06 624.16,-446.79 624.16,-446.79 624.16,-446.79 619.17,-447.06 624.4,-451.29 614.17,-447.32 614.17,-447.32"/>
</g>
<!-- ragger.backend.ledgerwallet&#45;&gt;ragger -->
<g id="edge16" class="edge">
<title>ragger.backend.ledgerwallet&#45;&gt;ragger</title>
<path fill="none" stroke="black" d="M388.01,-324.12C406.61,-333.63 429.92,-345.54 449.7,-355.64"/>
<polygon fill="black" stroke="black" points="458.8,-360.29 447.85,-359.75 454.35,-358.02 449.9,-355.74 449.9,-355.74 449.9,-355.74 454.35,-358.02 451.95,-351.74 458.8,-360.29 458.8,-360.29"/>
</g>
<!-- ragger.backend.ledgerwallet&#45;&gt;ragger.backend.interface -->
<g id="edge17" class="edge">
<title>ragger.backend.ledgerwallet&#45;&gt;ragger.backend.interface</title>
<path fill="none" stroke="black" d="M442.35,-324.03C495.3,-334.3 562.84,-347.4 617.52,-358"/>
<polygon fill="black" stroke="black" points="627.57,-359.95 616.9,-362.46 622.66,-359 617.75,-358.05 617.75,-358.05 617.75,-358.05 622.66,-359 618.61,-353.63 627.57,-359.95 627.57,-359.95"/>
</g>
<!-- ragger.backend.ledgerwallet&#45;&gt;ragger.error -->
<g id="edge18" class="edge">
<title>ragger.backend.ledgerwallet&#45;&gt;ragger.error</title>
<path fill="none" stroke="black" d="M356.43,-324.08C359.13,-342.78 365.28,-373.14 378.5,-396 384.65,-406.63 393.46,-416.62 402.15,-425.01"/>
<polygon fill="black" stroke="black" points="409.67,-431.93 399.27,-428.47 405.99,-428.55 402.31,-425.16 402.31,-425.16 402.31,-425.16 405.99,-428.55 405.36,-421.85 409.67,-431.93 409.67,-431.93"/>
</g>
<!-- ragger.backend.ledgerwallet&#45;&gt;ragger.utils -->
<g id="edge19" class="edge">
<title>ragger.backend.ledgerwallet&#45;&gt;ragger.utils</title>
<path fill="none" stroke="black" d="M369.82,-324.12C387.74,-343.41 418.99,-374.84 450.5,-396 468.87,-408.34 490.58,-419.22 510.09,-427.86"/>
<polygon fill="black" stroke="black" points="519.47,-431.92 508.51,-432.08 514.88,-429.93 510.3,-427.95 510.3,-427.95 510.3,-427.95 514.88,-429.93 512.08,-423.82 519.47,-431.92 519.47,-431.92"/>
</g>
<!-- ragger.backend.speculos&#45;&gt;ragger -->
<g id="edge20" class="edge">
<title>ragger.backend.speculos&#45;&gt;ragger</title>
<path fill="none" stroke="black" d="M557.75,-324.3C546.66,-333.12 533.03,-343.97 521.01,-353.53"/>
<polygon fill="black" stroke="black" points="513,-359.9 518.03,-350.15 516.92,-356.78 520.83,-353.67 520.83,-353.67 520.83,-353.67 516.92,-356.78 523.63,-357.19 513,-359.9 513,-359.9"/>
</g>
<!-- ragger.backend.speculos&#45;&gt;ragger.backend.interface -->
<g id="edge21" class="edge">
<title>ragger.backend.speculos&#45;&gt;ragger.backend.interface</title>
<path fill="none" stroke="black" d="M612.77,-324.12C630.96,-333.49 653.69,-345.19 673.14,-355.2"/>
<polygon fill="black" stroke="black" points="682.1,-359.81 671.15,-359.23 677.66,-357.52 673.21,-355.23 673.21,-355.23 673.21,-355.23 677.66,-357.52 675.27,-351.23 682.1,-359.81 682.1,-359.81"/>
</g>
<!-- ragger.backend.speculos&#45;&gt;ragger.error -->
<g id="edge22" class="edge">
<title>ragger.backend.speculos&#45;&gt;ragger.error</title>
<path fill="none" stroke="black" d="M504.06,-324.12C484.11,-332.01 464.31,-343.46 450.5,-360 436.21,-377.11 431.9,-402.4 430.91,-421.65"/>
<polygon fill="black" stroke="black" points="430.66,-431.9 426.41,-421.8 430.78,-426.9 430.91,-421.91 430.91,-421.91 430.91,-421.91 430.78,-426.9 435.4,-422.02 430.66,-431.9 430.66,-431.9"/>
</g>
<!-- ragger.backend.speculos&#45;&gt;ragger.firmware -->
<g id="edge23" class="edge">
<title>ragger.backend.speculos&#45;&gt;ragger.firmware</title>
<path fill="none" stroke="black" d="M580.27,-324.27C582.15,-344.61 588.48,-377.93 609.5,-396 642.43,-424.3 756.26,-438.08 834.11,-444.33"/>
<polygon fill="black" stroke="black" points="844.36,-445.13 834.05,-448.84 839.38,-444.74 834.39,-444.36 834.39,-444.36 834.39,-444.36 839.38,-444.74 834.74,-439.87 844.36,-445.13 844.36,-445.13"/>
</g>
<!-- ragger.backend.speculos&#45;&gt;ragger.utils -->
<g id="edge24" class="edge">
<title>ragger.backend.speculos&#45;&gt;ragger.utils</title>
<path fill="none" stroke="black" d="M577.69,-324.13C575.13,-348.33 570.44,-392.79 567.39,-421.61"/>
<polygon fill="black" stroke="black" points="566.32,-431.81 562.89,-421.39 566.84,-426.84 567.37,-421.87 567.37,-421.87 567.37,-421.87 566.84,-426.84 571.84,-422.34 566.32,-431.81 566.32,-431.81"/>
</g>
<!-- ragger.bip -->
<g id="node7" class="node">
<title>ragger.bip</title>
<polygon fill="aquamarine" stroke="aquamarine" points="206.5,-252 116.5,-252 116.5,-216 206.5,-216 206.5,-252"/>
<text text-anchor="middle" x="161.5" y="-230.3" font-family="Times,serif" font-size="14.00">ragger.bip</text>
</g>
<!-- ragger.bip.seed -->
<g id="node10" class="node">
<title>ragger.bip.seed</title>
<polygon fill="aquamarine" stroke="aquamarine" points="225.5,-324 97.5,-324 97.5,-288 225.5,-288 225.5,-324"/>
<text text-anchor="middle" x="161.5" y="-302.3" font-family="Times,serif" font-size="14.00">ragger.bip.seed</text>
</g>
<!-- ragger.bip&#45;&gt;ragger.bip.seed -->
<g id="edge25" class="edge">
<title>ragger.bip&#45;&gt;ragger.bip.seed</title>
<path fill="none" stroke="black" d="M161.5,-252.3C161.5,-260.02 161.5,-269.29 161.5,-277.89"/>
<polygon fill="black" stroke="black" points="161.5,-287.9 157,-277.9 161.5,-282.9 161.5,-277.9 161.5,-277.9 161.5,-277.9 161.5,-282.9 166,-277.9 161.5,-287.9 161.5,-287.9"/>
</g>
<!-- ragger.bip.coins -->
<g id="node8" class="node">
<title>ragger.bip.coins</title>
<polygon fill="aquamarine" stroke="aquamarine" points="131,-396 0,-396 0,-360 131,-360 131,-396"/>
<text text-anchor="middle" x="65.5" y="-374.3" font-family="Times,serif" font-size="14.00">ragger.bip.coins</text>
</g>
<!-- ragger.bip.utils -->
<g id="node11" class="node">
<title>ragger.bip.utils</title>
<polygon fill="aquamarine" stroke="aquamarine" points="202.5,-468 76.5,-468 76.5,-432 202.5,-432 202.5,-468"/>
<text text-anchor="middle" x="139.5" y="-446.3" font-family="Times,serif" font-size="14.00">ragger.bip.utils</text>
</g>
<!-- ragger.bip.coins&#45;&gt;ragger.bip.utils -->
<g id="edge26" class="edge">
<title>ragger.bip.coins&#45;&gt;ragger.bip.utils</title>
<path fill="none" stroke="black" d="M83.79,-396.3C92.93,-404.95 104.14,-415.55 114.1,-424.97"/>
<polygon fill="black" stroke="black" points="121.42,-431.9 111.06,-428.29 117.79,-428.46 114.15,-425.02 114.15,-425.02 114.15,-425.02 117.79,-428.46 117.25,-421.75 121.42,-431.9 121.42,-431.9"/>
</g>
<!-- ragger.bip.path -->
<g id="node9" class="node">
<title>ragger.bip.path</title>
<polygon fill="aquamarine" stroke="aquamarine" points="276,-396 149,-396 149,-360 276,-360 276,-396"/>
<text text-anchor="middle" x="212.5" y="-374.3" font-family="Times,serif" font-size="14.00">ragger.bip.path</text>
</g>
<!-- ragger.bip.path&#45;&gt;ragger.bip.utils -->
<g id="edge27" class="edge">
<title>ragger.bip.path&#45;&gt;ragger.bip.utils</title>
<path fill="none" stroke="black" d="M194.46,-396.3C185.44,-404.95 174.38,-415.55 164.56,-424.97"/>
<polygon fill="black" stroke="black" points="157.34,-431.9 161.44,-421.73 160.95,-428.44 164.56,-424.97 164.56,-424.97 164.56,-424.97 160.95,-428.44 167.67,-428.22 157.34,-431.9 157.34,-431.9"/>
</g>
<!-- ragger.bip.seed&#45;&gt;ragger -->
<g id="edge28" class="edge">
<title>ragger.bip.seed&#45;&gt;ragger</title>
<path fill="none" stroke="black" d="M225.66,-321.83C228.98,-322.57 232.28,-323.3 235.5,-324 310.38,-340.35 397.86,-358.19 448.74,-368.44"/>
<polygon fill="black" stroke="black" points="458.72,-370.45 448.03,-372.89 453.82,-369.46 448.92,-368.48 448.92,-368.48 448.92,-368.48 453.82,-369.46 449.8,-364.07 458.72,-370.45 458.72,-370.45"/>
</g>
<!-- ragger.bip.seed&#45;&gt;ragger.bip.coins -->
<g id="edge29" class="edge">
<title>ragger.bip.seed&#45;&gt;ragger.bip.coins</title>
<path fill="none" stroke="black" d="M137.77,-324.3C125.56,-333.2 110.51,-344.18 97.32,-353.8"/>
<polygon fill="black" stroke="black" points="88.96,-359.9 94.39,-350.37 93,-356.95 97.04,-354 97.04,-354 97.04,-354 93,-356.95 99.69,-357.64 88.96,-359.9 88.96,-359.9"/>
</g>
<!-- ragger.bip.seed&#45;&gt;ragger.bip.path -->
<g id="edge30" class="edge">
<title>ragger.bip.seed&#45;&gt;ragger.bip.path</title>
<path fill="none" stroke="black" d="M174.11,-324.3C180.1,-332.53 187.38,-342.52 193.98,-351.58"/>
<polygon fill="black" stroke="black" points="200.04,-359.9 190.51,-354.46 197.09,-355.85 194.15,-351.81 194.15,-351.81 194.15,-351.81 197.09,-355.85 197.79,-349.16 200.04,-359.9 200.04,-359.9"/>
</g>
<!-- ragger.firmware.structs -->
<g id="node14" class="node">
<title>ragger.firmware.structs</title>
<polygon fill="burlywood" stroke="burlywood" points="1101,-540 914,-540 914,-504 1101,-504 1101,-540"/>
<text text-anchor="middle" x="1007.5" y="-518.3" font-family="Times,serif" font-size="14.00">ragger.firmware.structs</text>
</g>
<!-- ragger.firmware&#45;&gt;ragger.firmware.structs -->
<g id="edge31" class="edge">
<title>ragger.firmware&#45;&gt;ragger.firmware.structs</title>
<path fill="none" stroke="black" d="M934.48,-468.3C946.81,-477.2 962.02,-488.18 975.35,-497.8"/>
<polygon fill="black" stroke="black" points="983.8,-503.9 973.06,-501.69 979.74,-500.97 975.69,-498.04 975.69,-498.04 975.69,-498.04 979.74,-500.97 978.32,-494.39 983.8,-503.9 983.8,-503.9"/>
</g>
<!-- ragger.firmware.versions -->
<g id="node15" class="node">
<title>ragger.firmware.versions</title>
<polygon fill="burlywood" stroke="burlywood" points="1045,-612 848,-612 848,-576 1045,-576 1045,-612"/>
<text text-anchor="middle" x="946.5" y="-590.3" font-family="Times,serif" font-size="14.00">ragger.firmware.versions</text>
</g>
<!-- ragger.firmware&#45;&gt;ragger.firmware.versions -->
<g id="edge32" class="edge">
<title>ragger.firmware&#45;&gt;ragger.firmware.versions</title>
<path fill="none" stroke="black" d="M905.77,-468.25C901.6,-486.57 897.34,-516.13 905.5,-540 908.94,-550.07 915.16,-559.72 921.73,-567.95"/>
<polygon fill="black" stroke="black" points="928.33,-575.68 918.42,-571 925.08,-571.88 921.84,-568.07 921.84,-568.07 921.84,-568.07 925.08,-571.88 925.26,-565.15 928.33,-575.68 928.33,-575.68"/>
</g>
<!-- ragger.firmware.structs&#45;&gt;ragger.firmware.versions -->
<g id="edge33" class="edge">
<title>ragger.firmware.structs&#45;&gt;ragger.firmware.versions</title>
<path fill="none" stroke="black" d="M992.42,-540.3C985.11,-548.7 976.19,-558.93 968.16,-568.14"/>
<polygon fill="black" stroke="black" points="961.41,-575.9 964.58,-565.4 964.69,-572.13 967.98,-568.36 967.98,-568.36 967.98,-568.36 964.69,-572.13 971.37,-571.31 961.41,-575.9 961.41,-575.9"/>
</g>
<!-- ragger.navigator -->
<g id="node16" class="node">
<title>ragger.navigator</title>
<polygon fill="cadetblue" stroke="cadetblue" points="1010.5,-36 874.5,-36 874.5,0 1010.5,0 1010.5,-36"/>
<text text-anchor="middle" x="942.5" y="-14.3" font-family="Times,serif" font-size="14.00">ragger.navigator</text>
</g>
<!-- ragger.navigator&#45;&gt;ragger.navigator -->
<g id="edge34" class="edge">
<title>ragger.navigator&#45;&gt;ragger.navigator</title>
<path fill="none" stroke="black" d="M1010.63,-5.63C1021.26,-7.48 1028.5,-11.6 1028.5,-18 1028.5,-22.1 1025.53,-25.26 1020.6,-27.5"/>
<polygon fill="black" stroke="black" points="1010.63,-30.37 1018.99,-23.28 1015.43,-28.99 1020.24,-27.6 1020.24,-27.6 1020.24,-27.6 1015.43,-28.99 1021.48,-31.92 1010.63,-30.37 1010.63,-30.37"/>
</g>
<!-- ragger.navigator.nano_navigator -->
<g id="node17" class="node">
<title>ragger.navigator.nano_navigator</title>
<polygon fill="cadetblue" stroke="cadetblue" points="1066.5,-108 818.5,-108 818.5,-72 1066.5,-72 1066.5,-108"/>
<text text-anchor="middle" x="942.5" y="-86.3" font-family="Times,serif" font-size="14.00">ragger.navigator.nano_navigator</text>
</g>
<!-- ragger.navigator&#45;&gt;ragger.navigator.nano_navigator -->
<g id="edge35" class="edge">
<title>ragger.navigator&#45;&gt;ragger.navigator.nano_navigator</title>
<path fill="none" stroke="black" d="M942.5,-36.3C942.5,-44.02 942.5,-53.29 942.5,-61.89"/>
<polygon fill="black" stroke="black" points="942.5,-71.9 938,-61.9 942.5,-66.9 942.5,-61.9 942.5,-61.9 942.5,-61.9 942.5,-66.9 947,-61.9 942.5,-71.9 942.5,-71.9"/>
</g>
<!-- ragger.navigator.nano_navigator&#45;&gt;ragger.backend -->
<g id="edge36" class="edge">
<title>ragger.navigator.nano_navigator&#45;&gt;ragger.backend</title>
<path fill="none" stroke="black" d="M898.91,-108.11C877.51,-117.37 851.81,-129.82 830.5,-144 802.13,-162.88 773.6,-189.53 754.51,-208.74"/>
<polygon fill="black" stroke="black" points="747.43,-215.96 751.22,-205.67 750.93,-212.39 754.43,-208.82 754.43,-208.82 754.43,-208.82 750.93,-212.39 757.64,-211.97 747.43,-215.96 747.43,-215.96"/>
</g>
<!-- ragger.navigator.nano_navigator&#45;&gt;ragger.firmware -->
<g id="edge37" class="edge">
<title>ragger.navigator.nano_navigator&#45;&gt;ragger.firmware</title>
<path fill="none" stroke="black" d="M1004.29,-108.02C1023.24,-116.07 1042.49,-127.63 1055.5,-144 1080.66,-175.67 1074.5,-192.55 1074.5,-233 1074.5,-233 1074.5,-233 1074.5,-307 1074.5,-365.61 1013.89,-405.44 966.37,-427.66"/>
<polygon fill="black" stroke="black" points="957.06,-431.87 964.31,-423.65 961.61,-429.81 966.17,-427.75 966.17,-427.75 966.17,-427.75 961.61,-429.81 968.02,-431.85 957.06,-431.87 957.06,-431.87"/>
</g>
<!-- ragger.navigator.navigator -->
<g id="node18" class="node">
<title>ragger.navigator.navigator</title>
<polygon fill="cadetblue" stroke="cadetblue" points="1046,-180 839,-180 839,-144 1046,-144 1046,-180"/>
<text text-anchor="middle" x="942.5" y="-158.3" font-family="Times,serif" font-size="14.00">ragger.navigator.navigator</text>
</g>
<!-- ragger.navigator.nano_navigator&#45;&gt;ragger.navigator.navigator -->
<g id="edge38" class="edge">
<title>ragger.navigator.nano_navigator&#45;&gt;ragger.navigator.navigator</title>
<path fill="none" stroke="black" d="M942.5,-108.3C942.5,-116.02 942.5,-125.29 942.5,-133.89"/>
<polygon fill="black" stroke="black" points="942.5,-143.9 938,-133.9 942.5,-138.9 942.5,-133.9 942.5,-133.9 942.5,-133.9 942.5,-138.9 947,-133.9 942.5,-143.9 942.5,-143.9"/>
</g>
<!-- ragger.navigator.navigator&#45;&gt;ragger.backend -->
<g id="edge39" class="edge">
<title>ragger.navigator.navigator&#45;&gt;ragger.backend</title>
<path fill="none" stroke="black" d="M891.15,-180.03C861.54,-189.86 824.13,-202.27 792.96,-212.61"/>
<polygon fill="black" stroke="black" points="783.08,-215.89 791.15,-208.47 787.82,-214.31 792.57,-212.74 792.57,-212.74 792.57,-212.74 787.82,-214.31 793.99,-217.01 783.08,-215.89 783.08,-215.89"/>
</g>
<!-- ragger.navigator.navigator&#45;&gt;ragger.firmware -->
<g id="edge40" class="edge">
<title>ragger.navigator.navigator&#45;&gt;ragger.firmware</title>
<path fill="none" stroke="black" d="M952.03,-180.46C966.97,-210.1 992.88,-272.06 979.5,-324 969.86,-361.41 946.38,-399.6 929.49,-423.76"/>
<polygon fill="black" stroke="black" points="923.6,-431.99 925.76,-421.24 926.51,-427.93 929.42,-423.86 929.42,-423.86 929.42,-423.86 926.51,-427.93 933.08,-426.48 923.6,-431.99 923.6,-431.99"/>
</g>
<!-- ragger.navigator.navigator&#45;&gt;ragger.utils -->
<g id="edge41" class="edge">
<title>ragger.navigator.navigator&#45;&gt;ragger.utils</title>
<path fill="none" stroke="black" d="M961.97,-180.08C971.32,-189.6 981.55,-202.28 986.5,-216 994.04,-236.89 983.77,-316.84 979.5,-324 950.14,-373.23 925.7,-374.67 872.5,-396 790.45,-428.9 688.08,-441.39 624.49,-446.12"/>
<polygon fill="black" stroke="black" points="614.24,-446.84 623.9,-441.65 619.23,-446.49 624.22,-446.14 624.22,-446.14 624.22,-446.14 619.23,-446.49 624.53,-450.63 614.24,-446.84 614.24,-446.84"/>
</g>
<!-- ragger.utils.misc -->
<g id="node20" class="node">
<title>ragger.utils.misc</title>
<polygon fill="chartreuse" stroke="chartreuse" points="307,-540 170,-540 170,-504 307,-504 307,-540"/>
<text text-anchor="middle" x="238.5" y="-518.3" font-family="Times,serif" font-size="14.00">ragger.utils.misc</text>
</g>
<!-- ragger.utils&#45;&gt;ragger.utils.misc -->
<g id="edge42" class="edge">
<title>ragger.utils&#45;&gt;ragger.utils.misc</title>
<path fill="none" stroke="black" d="M514.97,-462.9C507.45,-464.65 499.77,-466.4 492.5,-468 417.57,-484.5 396.26,-487.29 317.31,-503.85"/>
<polygon fill="black" stroke="black" points="307.39,-505.93 316.25,-499.47 312.29,-504.9 317.18,-503.87 317.18,-503.87 317.18,-503.87 312.29,-504.9 318.11,-508.28 307.39,-505.93 307.39,-505.93"/>
</g>
<!-- ragger.utils.packing -->
<g id="node21" class="node">
<title>ragger.utils.packing</title>
<polygon fill="chartreuse" stroke="chartreuse" points="484,-540 325,-540 325,-504 484,-504 484,-540"/>
<text text-anchor="middle" x="404.5" y="-518.3" font-family="Times,serif" font-size="14.00">ragger.utils.packing</text>
</g>
<!-- ragger.utils&#45;&gt;ragger.utils.packing -->
<g id="edge43" class="edge">
<title>ragger.utils&#45;&gt;ragger.utils.packing</title>
<path fill="none" stroke="black" d="M525.36,-468.12C503.49,-477.69 476.04,-489.7 452.84,-499.85"/>
<polygon fill="black" stroke="black" points="443.51,-503.93 450.87,-495.8 448.09,-501.93 452.67,-499.92 452.67,-499.92 452.67,-499.92 448.09,-501.93 454.48,-504.05 443.51,-503.93 443.51,-503.93"/>
</g>
<!-- ragger.utils.path -->
<g id="node22" class="node">
<title>ragger.utils.path</title>
<polygon fill="chartreuse" stroke="chartreuse" points="638.5,-540 502.5,-540 502.5,-504 638.5,-504 638.5,-540"/>
<text text-anchor="middle" x="570.5" y="-518.3" font-family="Times,serif" font-size="14.00">ragger.utils.path</text>
</g>
<!-- ragger.utils&#45;&gt;ragger.utils.path -->
<g id="edge44" class="edge">
<title>ragger.utils&#45;&gt;ragger.utils.path</title>
<path fill="none" stroke="black" d="M565.98,-468.3C566.64,-476.02 567.44,-485.29 568.18,-493.89"/>
<polygon fill="black" stroke="black" points="569.03,-503.9 563.7,-494.32 568.61,-498.91 568.18,-493.93 568.18,-493.93 568.18,-493.93 568.61,-498.91 572.66,-493.55 569.03,-503.9 569.03,-503.9"/>
</g>
<!-- ragger.utils.structs -->
<g id="node23" class="node">
<title>ragger.utils.structs</title>
<polygon fill="chartreuse" stroke="chartreuse" points="810.5,-540 656.5,-540 656.5,-504 810.5,-504 810.5,-540"/>
<text text-anchor="middle" x="733.5" y="-518.3" font-family="Times,serif" font-size="14.00">ragger.utils.structs</text>
</g>
<!-- ragger.utils&#45;&gt;ragger.utils.structs -->
<g id="edge45" class="edge">
<title>ragger.utils&#45;&gt;ragger.utils.structs</title>
<path fill="none" stroke="black" d="M605.84,-468.12C629.05,-477.74 658.19,-489.81 682.77,-499.99"/>
<polygon fill="black" stroke="black" points="692.29,-503.93 681.33,-504.26 687.67,-502.02 683.05,-500.1 683.05,-500.1 683.05,-500.1 687.67,-502.02 684.78,-495.95 692.29,-503.93 692.29,-503.93"/>
</g>
</g>
</svg>
