<?xml version="1.0" encoding="UTF-8" standalone="no"?>
<!DOCTYPE svg PUBLIC "-//W3C//DTD SVG 1.1//EN"
 "http://www.w3.org/Graphics/SVG/1.1/DTD/svg11.dtd">
<!-- Generated by graphviz version 2.43.0 (0)
 -->
<!-- Title: packages_generated_ragger_architecture Pages: 1 -->
<svg width="2356pt" height="908pt"
 viewBox="0.00 0.00 2356.00 908.00" xmlns="http://www.w3.org/2000/svg" xmlns:xlink="http://www.w3.org/1999/xlink">
<g id="graph0" class="graph" transform="scale(1 1) rotate(0) translate(4 904)">
<title>packages_generated_ragger_architecture</title>
<polygon fill="white" stroke="transparent" points="-4,4 -4,-904 2352,-904 2352,4 -4,4"/>
<!-- ragger -->
<g id="node1" class="node">
<title>ragger</title>
<polygon fill="aliceblue" stroke="aliceblue" points="632.5,-828 567.5,-828 567.5,-792 632.5,-792 632.5,-828"/>
<text text-anchor="middle" x="600" y="-806.3" font-family="Times,serif" font-size="14.00">ragger</text>
</g>
<!-- ragger.__version__ -->
<g id="node2" class="node">
<title>ragger.__version__</title>
<polygon fill="aliceblue" stroke="aliceblue" points="654.5,-900 507.5,-900 507.5,-864 654.5,-864 654.5,-900"/>
<text text-anchor="middle" x="581" y="-878.3" font-family="Times,serif" font-size="14.00">ragger.__version__</text>
</g>
<!-- ragger&#45;&gt;ragger.__version__ -->
<g id="edge1" class="edge">
<title>ragger&#45;&gt;ragger.__version__</title>
<path fill="none" stroke="black" d="M595.3,-828.3C593.19,-836.1 590.64,-845.49 588.28,-854.17"/>
<polygon fill="black" stroke="black" points="585.64,-863.9 583.92,-853.07 586.95,-859.07 588.26,-854.24 588.26,-854.24 588.26,-854.24 586.95,-859.07 592.61,-855.42 585.64,-863.9 585.64,-863.9"/>
</g>
<!-- ragger.logger -->
<g id="node28" class="node">
<title>ragger.logger</title>
<polygon fill="aliceblue" stroke="aliceblue" points="785.5,-900 672.5,-900 672.5,-864 785.5,-864 785.5,-900"/>
<text text-anchor="middle" x="729" y="-878.3" font-family="Times,serif" font-size="14.00">ragger.logger</text>
</g>
<!-- ragger&#45;&gt;ragger.logger -->
<g id="edge2" class="edge">
<title>ragger&#45;&gt;ragger.logger</title>
<path fill="none" stroke="black" d="M631.56,-828.12C648.66,-837.4 669.98,-848.97 688.32,-858.92"/>
<polygon fill="black" stroke="black" points="697.32,-863.81 686.39,-863 692.93,-861.43 688.53,-859.04 688.53,-859.04 688.53,-859.04 692.93,-861.43 690.68,-855.09 697.32,-863.81 697.32,-863.81"/>
</g>
<!-- ragger.backend -->
<g id="node3" class="node">
<title>ragger.backend</title>
<polygon fill="antiquewhite" stroke="antiquewhite" points="755.5,-468 628.5,-468 628.5,-432 755.5,-432 755.5,-468"/>
<text text-anchor="middle" x="692" y="-446.3" font-family="Times,serif" font-size="14.00">ragger.backend</text>
</g>
<!-- ragger.backend.interface -->
<g id="node4" class="node">
<title>ragger.backend.interface</title>
<polygon fill="antiquewhite" stroke="antiquewhite" points="989.5,-684 794.5,-684 794.5,-648 989.5,-648 989.5,-684"/>
<text text-anchor="middle" x="892" y="-662.3" font-family="Times,serif" font-size="14.00">ragger.backend.interface</text>
</g>
<!-- ragger.backend&#45;&gt;ragger.backend.interface -->
<g id="edge3" class="edge">
<title>ragger.backend&#45;&gt;ragger.backend.interface</title>
<path fill="none" stroke="black" d="M679.43,-468.08C657.66,-499.9 618.44,-568.93 653,-612 669.9,-633.06 728.93,-646.28 784.08,-654.24"/>
<polygon fill="black" stroke="black" points="794.33,-655.67 783.8,-658.74 789.38,-654.98 784.42,-654.29 784.42,-654.29 784.42,-654.29 789.38,-654.98 785.04,-649.83 794.33,-655.67 794.33,-655.67"/>
</g>
<!-- ragger.backend.ledgercomm -->
<g id="node5" class="node">
<title>ragger.backend.ledgercomm</title>
<polygon fill="antiquewhite" stroke="antiquewhite" points="1383,-540 1163,-540 1163,-504 1383,-504 1383,-540"/>
<text text-anchor="middle" x="1273" y="-518.3" font-family="Times,serif" font-size="14.00">ragger.backend.ledgercomm</text>
</g>
<!-- ragger.backend&#45;&gt;ragger.backend.ledgercomm -->
<g id="edge4" class="edge">
<title>ragger.backend&#45;&gt;ragger.backend.ledgercomm</title>
<path fill="none" stroke="black" d="M755.82,-457.8C842.86,-467.2 1003.92,-485.01 1152.6,-503.97"/>
<polygon fill="black" stroke="black" points="1162.83,-505.28 1152.34,-508.47 1157.87,-504.64 1152.91,-504.01 1152.91,-504.01 1152.91,-504.01 1157.87,-504.64 1153.48,-499.55 1162.83,-505.28 1162.83,-505.28"/>
</g>
<!-- ragger.backend.ledgerwallet -->
<g id="node6" class="node">
<title>ragger.backend.ledgerwallet</title>
<polygon fill="antiquewhite" stroke="antiquewhite" points="1144.5,-540 923.5,-540 923.5,-504 1144.5,-504 1144.5,-540"/>
<text text-anchor="middle" x="1034" y="-518.3" font-family="Times,serif" font-size="14.00">ragger.backend.ledgerwallet</text>
</g>
<!-- ragger.backend&#45;&gt;ragger.backend.ledgerwallet -->
<g id="edge5" class="edge">
<title>ragger.backend&#45;&gt;ragger.backend.ledgerwallet</title>
<path fill="none" stroke="black" d="M755.53,-464C807.57,-474.65 881.95,-489.88 940.75,-501.91"/>
<polygon fill="black" stroke="black" points="950.79,-503.97 940.09,-506.37 945.89,-502.97 940.99,-501.96 940.99,-501.96 940.99,-501.96 945.89,-502.97 941.89,-497.55 950.79,-503.97 950.79,-503.97"/>
</g>
<!-- ragger.backend.speculos -->
<g id="node8" class="node">
<title>ragger.backend.speculos</title>
<polygon fill="antiquewhite" stroke="antiquewhite" points="855.5,-612 662.5,-612 662.5,-576 855.5,-576 855.5,-612"/>
<text text-anchor="middle" x="759" y="-590.3" font-family="Times,serif" font-size="14.00">ragger.backend.speculos</text>
</g>
<!-- ragger.backend&#45;&gt;ragger.backend.speculos -->
<g id="edge6" class="edge">
<title>ragger.backend&#45;&gt;ragger.backend.speculos</title>
<path fill="none" stroke="black" d="M700.08,-468.13C711.65,-492.65 733.03,-537.97 746.61,-566.74"/>
<polygon fill="black" stroke="black" points="750.89,-575.81 742.55,-568.69 748.76,-571.29 746.62,-566.77 746.62,-566.77 746.62,-566.77 748.76,-571.29 750.69,-564.85 750.89,-575.81 750.89,-575.81"/>
</g>
<!-- ragger.backend.stub -->
<g id="node9" class="node">
<title>ragger.backend.stub</title>
<polygon fill="antiquewhite" stroke="antiquewhite" points="1036.5,-612 873.5,-612 873.5,-576 1036.5,-576 1036.5,-612"/>
<text text-anchor="middle" x="955" y="-590.3" font-family="Times,serif" font-size="14.00">ragger.backend.stub</text>
</g>
<!-- ragger.backend&#45;&gt;ragger.backend.stub -->
<g id="edge7" class="edge">
<title>ragger.backend&#45;&gt;ragger.backend.stub</title>
<path fill="none" stroke="black" d="M723.72,-468.13C771.41,-493.88 861.56,-542.55 914.12,-570.93"/>
<polygon fill="black" stroke="black" points="923.16,-575.81 912.23,-575.02 918.76,-573.44 914.36,-571.06 914.36,-571.06 914.36,-571.06 918.76,-573.44 916.5,-567.1 923.16,-575.81 923.16,-575.81"/>
</g>
<!-- ragger.firmware -->
<g id="node17" class="node">
<title>ragger.firmware</title>
<polygon fill="cadetblue" stroke="cadetblue" points="510,-756 378,-756 378,-720 510,-720 510,-756"/>
<text text-anchor="middle" x="444" y="-734.3" font-family="Times,serif" font-size="14.00">ragger.firmware</text>
</g>
<!-- ragger.backend.interface&#45;&gt;ragger.firmware -->
<g id="edge8" class="edge">
<title>ragger.backend.interface&#45;&gt;ragger.firmware</title>
<path fill="none" stroke="black" d="M794.24,-682.28C711.82,-695.15 595.54,-713.32 519.97,-725.13"/>
<polygon fill="black" stroke="black" points="510.04,-726.68 519.23,-720.69 514.98,-725.91 519.92,-725.14 519.92,-725.14 519.92,-725.14 514.98,-725.91 520.62,-729.58 510.04,-726.68 510.04,-726.68"/>
</g>
<!-- ragger.backend.interface&#45;&gt;ragger.logger -->
<g id="edge9" class="edge">
<title>ragger.backend.interface&#45;&gt;ragger.logger</title>
<path fill="none" stroke="black" d="M838.69,-684.02C817.6,-692.53 794.13,-704.4 776,-720 747.03,-744.92 739.9,-755.37 729,-792 723.02,-812.09 723.38,-835.87 725.04,-853.79"/>
<polygon fill="black" stroke="black" points="726.16,-863.85 720.58,-854.41 725.6,-858.89 725.05,-853.92 725.05,-853.92 725.05,-853.92 725.6,-858.89 729.52,-853.42 726.16,-863.85 726.16,-863.85"/>
</g>
<!-- ragger.utils -->
<g id="node34" class="node">
<title>ragger.utils</title>
<polygon fill="coral" stroke="coral" points="1348.5,-756 1249.5,-756 1249.5,-720 1348.5,-720 1348.5,-756"/>
<text text-anchor="middle" x="1299" y="-734.3" font-family="Times,serif" font-size="14.00">ragger.utils</text>
</g>
<!-- ragger.backend.interface&#45;&gt;ragger.utils -->
<g id="edge10" class="edge">
<title>ragger.backend.interface&#45;&gt;ragger.utils</title>
<path fill="none" stroke="black" d="M989.75,-683.81C1067.44,-697.17 1173.61,-715.43 1239.17,-726.71"/>
<polygon fill="black" stroke="black" points="1249.33,-728.46 1238.71,-731.2 1244.4,-727.61 1239.48,-726.76 1239.48,-726.76 1239.48,-726.76 1244.4,-727.61 1240.24,-722.33 1249.33,-728.46 1249.33,-728.46"/>
</g>
<!-- ragger.backend.ledgercomm&#45;&gt;ragger.backend.ledgercomm -->
<g id="edge11" class="edge">
<title>ragger.backend.ledgercomm&#45;&gt;ragger.backend.ledgercomm</title>
<path fill="none" stroke="black" d="M1383.15,-510.99C1394.06,-513.2 1401,-516.87 1401,-522 1401,-525.37 1398.01,-528.11 1392.87,-530.21"/>
<polygon fill="black" stroke="black" points="1383.15,-533.01 1391.52,-525.92 1387.96,-531.63 1392.76,-530.25 1392.76,-530.25 1392.76,-530.25 1387.96,-531.63 1394.01,-534.57 1383.15,-533.01 1383.15,-533.01"/>
</g>
<!-- ragger.backend.physical_backend -->
<g id="node7" class="node">
<title>ragger.backend.physical_backend</title>
<polygon fill="antiquewhite" stroke="antiquewhite" points="1311,-612 1055,-612 1055,-576 1311,-576 1311,-612"/>
<text text-anchor="middle" x="1183" y="-590.3" font-family="Times,serif" font-size="14.00">ragger.backend.physical_backend</text>
</g>
<!-- ragger.backend.ledgercomm&#45;&gt;ragger.backend.physical_backend -->
<g id="edge12" class="edge">
<title>ragger.backend.ledgercomm&#45;&gt;ragger.backend.physical_backend</title>
<path fill="none" stroke="black" d="M1250.75,-540.3C1239.42,-549.12 1225.47,-559.97 1213.18,-569.53"/>
<polygon fill="black" stroke="black" points="1204.99,-575.9 1210.12,-566.2 1208.94,-572.83 1212.88,-569.76 1212.88,-569.76 1212.88,-569.76 1208.94,-572.83 1215.65,-573.31 1204.99,-575.9 1204.99,-575.9"/>
</g>
<!-- ragger.error -->
<g id="node16" class="node">
<title>ragger.error</title>
<polygon fill="aliceblue" stroke="aliceblue" points="1524,-900 1420,-900 1420,-864 1524,-864 1524,-900"/>
<text text-anchor="middle" x="1472" y="-878.3" font-family="Times,serif" font-size="14.00">ragger.error</text>
</g>
<!-- ragger.backend.ledgercomm&#45;&gt;ragger.error -->
<g id="edge13" class="edge">
<title>ragger.backend.ledgercomm&#45;&gt;ragger.error</title>
<path fill="none" stroke="black" d="M1351.09,-540.09C1413.64,-558.91 1491,-596.12 1491,-665 1491,-665 1491,-665 1491,-739 1491,-779.14 1483.45,-825.1 1477.87,-853.6"/>
<polygon fill="black" stroke="black" points="1475.84,-863.61 1473.41,-852.92 1476.83,-858.71 1477.82,-853.81 1477.82,-853.81 1477.82,-853.81 1476.83,-858.71 1482.24,-854.7 1475.84,-863.61 1475.84,-863.61"/>
</g>
<!-- ragger.backend.ledgercomm&#45;&gt;ragger.firmware -->
<g id="edge14" class="edge">
<title>ragger.backend.ledgercomm&#45;&gt;ragger.firmware</title>
<path fill="none" stroke="black" d="M1162.85,-538.9C1159.53,-539.29 1156.24,-539.65 1153,-540 1042.23,-551.82 755.5,-532.38 653,-576 630.99,-585.37 630.88,-596.11 613,-612 576.75,-644.22 570.08,-655.28 531,-684 516.11,-694.95 498.88,-705.79 483.7,-714.78"/>
<polygon fill="black" stroke="black" points="475.04,-719.85 481.39,-710.92 479.35,-717.33 483.67,-714.8 483.67,-714.8 483.67,-714.8 479.35,-717.33 485.94,-718.69 475.04,-719.85 475.04,-719.85"/>
</g>
<!-- ragger.backend.ledgercomm&#45;&gt;ragger.utils -->
<g id="edge15" class="edge">
<title>ragger.backend.ledgercomm&#45;&gt;ragger.utils</title>
<path fill="none" stroke="black" d="M1314.18,-540C1329.21,-548.46 1344.57,-560.29 1353,-576 1377.2,-621.06 1343.8,-678.99 1319.75,-711.65"/>
<polygon fill="black" stroke="black" points="1313.58,-719.78 1316.05,-709.09 1316.6,-715.8 1319.63,-711.81 1319.63,-711.81 1319.63,-711.81 1316.6,-715.8 1323.21,-714.54 1313.58,-719.78 1313.58,-719.78"/>
</g>
<!-- ragger.backend.ledgerwallet&#45;&gt;ragger.backend.physical_backend -->
<g id="edge16" class="edge">
<title>ragger.backend.ledgerwallet&#45;&gt;ragger.backend.physical_backend</title>
<path fill="none" stroke="black" d="M1070.45,-540.12C1090.64,-549.61 1115.92,-561.49 1137.41,-571.58"/>
<polygon fill="black" stroke="black" points="1146.67,-575.93 1135.7,-575.75 1142.14,-573.81 1137.62,-571.68 1137.62,-571.68 1137.62,-571.68 1142.14,-573.81 1139.53,-567.61 1146.67,-575.93 1146.67,-575.93"/>
</g>
<!-- ragger.backend.ledgerwallet&#45;&gt;ragger.error -->
<g id="edge17" class="edge">
<title>ragger.backend.ledgerwallet&#45;&gt;ragger.error</title>
<path fill="none" stroke="black" d="M1144.58,-539.49C1229.65,-552.58 1334.02,-569.69 1342,-576 1432.29,-647.41 1460.85,-793.39 1469.02,-853.85"/>
<polygon fill="black" stroke="black" points="1470.28,-863.78 1464.56,-854.42 1469.65,-858.82 1469.02,-853.86 1469.02,-853.86 1469.02,-853.86 1469.65,-858.82 1473.49,-853.29 1470.28,-863.78 1470.28,-863.78"/>
</g>
<!-- ragger.backend.ledgerwallet&#45;&gt;ragger.firmware -->
<g id="edge18" class="edge">
<title>ragger.backend.ledgerwallet&#45;&gt;ragger.firmware</title>
<path fill="none" stroke="black" d="M923.24,-529.63C819.31,-537.19 672.26,-551.77 620,-576 602.06,-584.32 512.89,-669.87 468.79,-712.76"/>
<polygon fill="black" stroke="black" points="461.36,-720 465.38,-709.8 464.94,-716.51 468.52,-713.02 468.52,-713.02 468.52,-713.02 464.94,-716.51 471.66,-716.25 461.36,-720 461.36,-720"/>
</g>
<!-- ragger.backend.ledgerwallet&#45;&gt;ragger.utils -->
<g id="edge19" class="edge">
<title>ragger.backend.ledgerwallet&#45;&gt;ragger.utils</title>
<path fill="none" stroke="black" d="M1143.77,-540.02C1221.91,-552.67 1314.11,-568.91 1320,-576 1351.63,-614.03 1330.03,-675.59 1313.31,-710.54"/>
<polygon fill="black" stroke="black" points="1308.77,-719.65 1309.2,-708.69 1311,-715.17 1313.23,-710.69 1313.23,-710.69 1313.23,-710.69 1311,-715.17 1317.26,-712.7 1308.77,-719.65 1308.77,-719.65"/>
</g>
<!-- ragger.backend.physical_backend&#45;&gt;ragger.backend.interface -->
<g id="edge20" class="edge">
<title>ragger.backend.physical_backend&#45;&gt;ragger.backend.interface</title>
<path fill="none" stroke="black" d="M1112.19,-612.03C1070.03,-622.17 1016.41,-635.07 972.63,-645.6"/>
<polygon fill="black" stroke="black" points="962.88,-647.95 971.55,-641.24 967.74,-646.78 972.6,-645.61 972.6,-645.61 972.6,-645.61 967.74,-646.78 973.65,-649.99 962.88,-647.95 962.88,-647.95"/>
</g>
<!-- ragger.backend.physical_backend&#45;&gt;ragger.firmware -->
<g id="edge21" class="edge">
<title>ragger.backend.physical_backend&#45;&gt;ragger.firmware</title>
<path fill="none" stroke="black" d="M1118.16,-612.01C1091.56,-620.58 1061.18,-632.49 1036,-648 1016.19,-660.2 1019.18,-674.37 998,-684 955.58,-703.29 662.47,-723.61 520.6,-732.45"/>
<polygon fill="black" stroke="black" points="510.24,-733.09 519.94,-727.98 515.23,-732.78 520.22,-732.47 520.22,-732.47 520.22,-732.47 515.23,-732.78 520.5,-736.96 510.24,-733.09 510.24,-733.09"/>
</g>
<!-- ragger.gui -->
<g id="node25" class="node">
<title>ragger.gui</title>
<polygon fill="chartreuse" stroke="chartreuse" points="1135,-684 1045,-684 1045,-648 1135,-648 1135,-684"/>
<text text-anchor="middle" x="1090" y="-662.3" font-family="Times,serif" font-size="14.00">ragger.gui</text>
</g>
<!-- ragger.backend.physical_backend&#45;&gt;ragger.gui -->
<g id="edge22" class="edge">
<title>ragger.backend.physical_backend&#45;&gt;ragger.gui</title>
<path fill="none" stroke="black" d="M1160.01,-612.3C1148.19,-621.2 1133.61,-632.18 1120.82,-641.8"/>
<polygon fill="black" stroke="black" points="1112.72,-647.9 1118.01,-638.29 1116.72,-644.89 1120.71,-641.88 1120.71,-641.88 1120.71,-641.88 1116.72,-644.89 1123.42,-645.48 1112.72,-647.9 1112.72,-647.9"/>
</g>
<!-- ragger.navigator.instruction -->
<g id="node30" class="node">
<title>ragger.navigator.instruction</title>
<polygon fill="chocolate" stroke="chocolate" points="1736.5,-828 1519.5,-828 1519.5,-792 1736.5,-792 1736.5,-828"/>
<text text-anchor="middle" x="1628" y="-806.3" font-family="Times,serif" font-size="14.00">ragger.navigator.instruction</text>
</g>
<!-- ragger.backend.physical_backend&#45;&gt;ragger.navigator.instruction -->
<g id="edge23" class="edge">
<title>ragger.backend.physical_backend&#45;&gt;ragger.navigator.instruction</title>
<path fill="none" stroke="black" d="M1218.66,-612.15C1299.16,-650.86 1494.78,-744.93 1583.24,-787.48"/>
<polygon fill="black" stroke="black" points="1592.48,-791.92 1581.51,-791.64 1587.97,-789.75 1583.46,-787.58 1583.46,-787.58 1583.46,-787.58 1587.97,-789.75 1585.41,-783.53 1592.48,-791.92 1592.48,-791.92"/>
</g>
<!-- ragger.backend.physical_backend&#45;&gt;ragger.utils -->
<g id="edge24" class="edge">
<title>ragger.backend.physical_backend&#45;&gt;ragger.utils</title>
<path fill="none" stroke="black" d="M1196.99,-612.13C1217.28,-636.97 1255.01,-683.15 1278.46,-711.86"/>
<polygon fill="black" stroke="black" points="1284.96,-719.81 1275.15,-714.91 1281.79,-715.94 1278.63,-712.07 1278.63,-712.07 1278.63,-712.07 1281.79,-715.94 1282.12,-709.22 1284.96,-719.81 1284.96,-719.81"/>
</g>
<!-- ragger.backend.speculos&#45;&gt;ragger.backend.interface -->
<g id="edge25" class="edge">
<title>ragger.backend.speculos&#45;&gt;ragger.backend.interface</title>
<path fill="none" stroke="black" d="M791.54,-612.12C809.25,-621.45 831.35,-633.08 850.32,-643.06"/>
<polygon fill="black" stroke="black" points="859.34,-647.81 848.39,-647.13 854.91,-645.48 850.49,-643.15 850.49,-643.15 850.49,-643.15 854.91,-645.48 852.59,-639.17 859.34,-647.81 859.34,-647.81"/>
</g>
<!-- ragger.backend.speculos&#45;&gt;ragger.error -->
<g id="edge26" class="edge">
<title>ragger.backend.speculos&#45;&gt;ragger.error</title>
<path fill="none" stroke="black" d="M759.09,-612.03C760.15,-632.15 765.08,-665.24 785,-684 837.44,-733.37 877.75,-689.51 943,-720 1014.84,-753.57 1011.76,-797.62 1085,-828 1142.36,-851.79 1315.7,-868.67 1409.73,-876.34"/>
<polygon fill="black" stroke="black" points="1419.96,-877.17 1409.63,-880.85 1414.98,-876.77 1409.99,-876.37 1409.99,-876.37 1409.99,-876.37 1414.98,-876.77 1410.35,-871.88 1419.96,-877.17 1419.96,-877.17"/>
</g>
<!-- ragger.backend.speculos&#45;&gt;ragger.firmware -->
<g id="edge27" class="edge">
<title>ragger.backend.speculos&#45;&gt;ragger.firmware</title>
<path fill="none" stroke="black" d="M742.54,-612.01C722.17,-632.1 685.53,-665.17 648,-684 608.05,-704.04 559.78,-717.03 520.22,-725.12"/>
<polygon fill="black" stroke="black" points="510.37,-727.08 519.3,-720.72 515.27,-726.1 520.18,-725.13 520.18,-725.13 520.18,-725.13 515.27,-726.1 521.05,-729.55 510.37,-727.08 510.37,-727.08"/>
</g>
<!-- ragger.backend.speculos&#45;&gt;ragger.utils -->
<g id="edge28" class="edge">
<title>ragger.backend.speculos&#45;&gt;ragger.utils</title>
<path fill="none" stroke="black" d="M855.67,-610.77C858.48,-611.19 861.26,-611.6 864,-612 988.17,-630.03 1025.08,-607.99 1144,-648 1189.91,-663.45 1237.46,-693.14 1267.58,-713.97"/>
<polygon fill="black" stroke="black" points="1275.97,-719.86 1265.2,-717.8 1271.88,-716.99 1267.79,-714.12 1267.79,-714.12 1267.79,-714.12 1271.88,-716.99 1270.37,-710.43 1275.97,-719.86 1275.97,-719.86"/>
</g>
<!-- ragger.backend.stub&#45;&gt;ragger.backend.interface -->
<g id="edge29" class="edge">
<title>ragger.backend.stub&#45;&gt;ragger.backend.interface</title>
<path fill="none" stroke="black" d="M939.43,-612.3C931.8,-620.78 922.48,-631.14 914.12,-640.42"/>
<polygon fill="black" stroke="black" points="907.39,-647.9 910.74,-637.45 910.74,-644.18 914.08,-640.46 914.08,-640.46 914.08,-640.46 910.74,-644.18 917.43,-643.47 907.39,-647.9 907.39,-647.9"/>
</g>
<!-- ragger.utils.structs -->
<g id="node37" class="node">
<title>ragger.utils.structs</title>
<polygon fill="coral" stroke="coral" points="1248,-828 1094,-828 1094,-792 1248,-792 1248,-828"/>
<text text-anchor="middle" x="1171" y="-806.3" font-family="Times,serif" font-size="14.00">ragger.utils.structs</text>
</g>
<!-- ragger.backend.stub&#45;&gt;ragger.utils.structs -->
<g id="edge30" class="edge">
<title>ragger.backend.stub&#45;&gt;ragger.utils.structs</title>
<path fill="none" stroke="black" d="M1030.03,-612C1079.25,-623.84 1135.96,-639.05 1144,-648 1177.12,-684.88 1177.59,-746.52 1174.56,-781.87"/>
<polygon fill="black" stroke="black" points="1173.54,-791.94 1170.07,-781.54 1174.04,-786.97 1174.55,-781.99 1174.55,-781.99 1174.55,-781.99 1174.04,-786.97 1179.02,-782.45 1173.54,-791.94 1173.54,-791.94"/>
</g>
<!-- ragger.bip -->
<g id="node10" class="node">
<title>ragger.bip</title>
<polygon fill="aquamarine" stroke="aquamarine" points="1962,-36 1872,-36 1872,0 1962,0 1962,-36"/>
<text text-anchor="middle" x="1917" y="-14.3" font-family="Times,serif" font-size="14.00">ragger.bip</text>
</g>
<!-- ragger.bip.path -->
<g id="node11" class="node">
<title>ragger.bip.path</title>
<polygon fill="aquamarine" stroke="aquamarine" points="1907.5,-108 1780.5,-108 1780.5,-72 1907.5,-72 1907.5,-108"/>
<text text-anchor="middle" x="1844" y="-86.3" font-family="Times,serif" font-size="14.00">ragger.bip.path</text>
</g>
<!-- ragger.bip&#45;&gt;ragger.bip.path -->
<g id="edge31" class="edge">
<title>ragger.bip&#45;&gt;ragger.bip.path</title>
<path fill="none" stroke="black" d="M1898.96,-36.3C1889.94,-44.95 1878.88,-55.55 1869.06,-64.97"/>
<polygon fill="black" stroke="black" points="1861.84,-71.9 1865.94,-61.73 1865.45,-68.44 1869.06,-64.97 1869.06,-64.97 1869.06,-64.97 1865.45,-68.44 1872.17,-68.22 1861.84,-71.9 1861.84,-71.9"/>
</g>
<!-- ragger.bip.seed -->
<g id="node12" class="node">
<title>ragger.bip.seed</title>
<polygon fill="aquamarine" stroke="aquamarine" points="2054,-108 1926,-108 1926,-72 2054,-72 2054,-108"/>
<text text-anchor="middle" x="1990" y="-86.3" font-family="Times,serif" font-size="14.00">ragger.bip.seed</text>
</g>
<!-- ragger.bip&#45;&gt;ragger.bip.seed -->
<g id="edge32" class="edge">
<title>ragger.bip&#45;&gt;ragger.bip.seed</title>
<path fill="none" stroke="black" d="M1935.04,-36.3C1944.06,-44.95 1955.12,-55.55 1964.94,-64.97"/>
<polygon fill="black" stroke="black" points="1972.16,-71.9 1961.83,-68.22 1968.55,-68.44 1964.94,-64.97 1964.94,-64.97 1964.94,-64.97 1968.55,-68.44 1968.06,-61.73 1972.16,-71.9 1972.16,-71.9"/>
</g>
<!-- ragger.conftest -->
<g id="node13" class="node">
<title>ragger.conftest</title>
<polygon fill="burlywood" stroke="burlywood" points="2105.5,-36 1980.5,-36 1980.5,0 2105.5,0 2105.5,-36"/>
<text text-anchor="middle" x="2043" y="-14.3" font-family="Times,serif" font-size="14.00">ragger.conftest</text>
</g>
<!-- ragger.conftest.base_conftest -->
<g id="node14" class="node">
<title>ragger.conftest.base_conftest</title>
<polygon fill="burlywood" stroke="burlywood" points="1077.5,-36 850.5,-36 850.5,0 1077.5,0 1077.5,-36"/>
<text text-anchor="middle" x="964" y="-14.3" font-family="Times,serif" font-size="14.00">ragger.conftest.base_conftest</text>
</g>
<!-- ragger.conftest.base_conftest&#45;&gt;ragger.backend -->
<g id="edge33" class="edge">
<title>ragger.conftest.base_conftest&#45;&gt;ragger.backend</title>
<path fill="none" stroke="black" d="M953.6,-36.3C947.72,-46.49 940.47,-59.74 935,-72 914.27,-118.47 924.31,-137.06 897,-180 860.23,-237.81 828.89,-233.78 787,-288 753.16,-331.8 753.41,-348.5 725,-396 719.63,-404.98 713.62,-414.71 708.22,-423.37"/>
<polygon fill="black" stroke="black" points="702.86,-431.91 704.36,-421.05 705.51,-427.67 708.17,-423.44 708.17,-423.44 708.17,-423.44 705.51,-427.67 711.98,-425.83 702.86,-431.91 702.86,-431.91"/>
</g>
<!-- ragger.conftest.base_conftest&#45;&gt;ragger.firmware -->
<g id="edge34" class="edge">
<title>ragger.conftest.base_conftest&#45;&gt;ragger.firmware</title>
<path fill="none" stroke="black" d="M850.11,-24.05C595.02,-36.89 0,-75.94 0,-161 0,-161 0,-161 0,-523 0,-684.21 240.47,-724.04 367.47,-733.84"/>
<polygon fill="black" stroke="black" points="377.53,-734.57 367.23,-738.33 372.54,-734.21 367.56,-733.84 367.56,-733.84 367.56,-733.84 372.54,-734.21 367.88,-729.36 377.53,-734.57 377.53,-734.57"/>
</g>
<!-- ragger.conftest.base_conftest&#45;&gt;ragger.logger -->
<g id="edge35" class="edge">
<title>ragger.conftest.base_conftest&#45;&gt;ragger.logger</title>
<path fill="none" stroke="black" d="M879.31,-36C776.31,-59.16 616,-104.31 616,-161 616,-161 616,-161 616,-307 616,-442.85 605.67,-479.58 636,-612 656.91,-703.28 697.83,-806.84 717.67,-854.47"/>
<polygon fill="black" stroke="black" points="721.57,-863.76 713.55,-856.28 719.64,-859.15 717.7,-854.54 717.7,-854.54 717.7,-854.54 719.64,-859.15 721.85,-852.79 721.57,-863.76 721.57,-863.76"/>
</g>
<!-- ragger.navigator -->
<g id="node29" class="node">
<title>ragger.navigator</title>
<polygon fill="chocolate" stroke="chocolate" points="1080,-108 944,-108 944,-72 1080,-72 1080,-108"/>
<text text-anchor="middle" x="1012" y="-86.3" font-family="Times,serif" font-size="14.00">ragger.navigator</text>
</g>
<!-- ragger.conftest.base_conftest&#45;&gt;ragger.navigator -->
<g id="edge36" class="edge">
<title>ragger.conftest.base_conftest&#45;&gt;ragger.navigator</title>
<path fill="none" stroke="black" d="M975.87,-36.3C981.5,-44.53 988.35,-54.52 994.57,-63.58"/>
<polygon fill="black" stroke="black" points="1000.27,-71.9 990.9,-66.19 997.44,-67.77 994.62,-63.65 994.62,-63.65 994.62,-63.65 997.44,-67.77 998.33,-61.1 1000.27,-71.9 1000.27,-71.9"/>
</g>
<!-- ragger.conftest.base_conftest&#45;&gt;ragger.utils -->
<g id="edge37" class="edge">
<title>ragger.conftest.base_conftest&#45;&gt;ragger.utils</title>
<path fill="none" stroke="black" d="M1077.65,-19.67C1270.94,-23.91 1643,-46.89 1643,-161 1643,-161 1643,-161 1643,-379 1643,-548.55 1439.91,-668.9 1345.82,-715.56"/>
<polygon fill="black" stroke="black" points="1336.8,-719.98 1343.8,-711.54 1341.29,-717.78 1345.78,-715.58 1345.78,-715.58 1345.78,-715.58 1341.29,-717.78 1347.76,-719.63 1336.8,-719.98 1336.8,-719.98"/>
</g>
<!-- ragger.utils.misc -->
<g id="node35" class="node">
<title>ragger.utils.misc</title>
<polygon fill="coral" stroke="coral" points="1891.5,-828 1754.5,-828 1754.5,-792 1891.5,-792 1891.5,-828"/>
<text text-anchor="middle" x="1823" y="-806.3" font-family="Times,serif" font-size="14.00">ragger.utils.misc</text>
</g>
<!-- ragger.conftest.base_conftest&#45;&gt;ragger.utils.misc -->
<g id="edge38" class="edge">
<title>ragger.conftest.base_conftest&#45;&gt;ragger.utils.misc</title>
<path fill="none" stroke="black" d="M1077.7,-22.97C1231.48,-29.31 1497.21,-43.96 1590,-72 1668.64,-95.76 1752,-78.85 1752,-161 1752,-161 1752,-161 1752,-667 1752,-711.52 1780.26,-756.39 1801.13,-783.44"/>
<polygon fill="black" stroke="black" points="1807.59,-791.58 1797.85,-786.55 1804.48,-787.66 1801.37,-783.75 1801.37,-783.75 1801.37,-783.75 1804.48,-787.66 1804.89,-780.95 1807.59,-791.58 1807.59,-791.58"/>
</g>
<!-- ragger.conftest.configuration -->
<g id="node15" class="node">
<title>ragger.conftest.configuration</title>
<polygon fill="burlywood" stroke="burlywood" points="2348,-36 2124,-36 2124,0 2348,0 2348,-36"/>
<text text-anchor="middle" x="2236" y="-14.3" font-family="Times,serif" font-size="14.00">ragger.conftest.configuration</text>
</g>
<!-- ragger.firmware.structs -->
<g id="node23" class="node">
<title>ragger.firmware.structs</title>
<polygon fill="cadetblue" stroke="cadetblue" points="537.5,-828 350.5,-828 350.5,-792 537.5,-792 537.5,-828"/>
<text text-anchor="middle" x="444" y="-806.3" font-family="Times,serif" font-size="14.00">ragger.firmware.structs</text>
</g>
<!-- ragger.firmware&#45;&gt;ragger.firmware.structs -->
<g id="edge39" class="edge">
<title>ragger.firmware&#45;&gt;ragger.firmware.structs</title>
<path fill="none" stroke="black" d="M444,-756.3C444,-764.02 444,-773.29 444,-781.89"/>
<polygon fill="black" stroke="black" points="444,-791.9 439.5,-781.9 444,-786.9 444,-781.9 444,-781.9 444,-781.9 444,-786.9 448.5,-781.9 444,-791.9 444,-791.9"/>
</g>
<!-- ragger.firmware.versions -->
<g id="node24" class="node">
<title>ragger.firmware.versions</title>
<polygon fill="cadetblue" stroke="cadetblue" points="421.5,-900 224.5,-900 224.5,-864 421.5,-864 421.5,-900"/>
<text text-anchor="middle" x="323" y="-878.3" font-family="Times,serif" font-size="14.00">ragger.firmware.versions</text>
</g>
<!-- ragger.firmware&#45;&gt;ragger.firmware.versions -->
<g id="edge40" class="edge">
<title>ragger.firmware&#45;&gt;ragger.firmware.versions</title>
<path fill="none" stroke="black" d="M389.65,-756.07C371.69,-764.25 353.19,-775.88 341,-792 327.66,-809.63 323.54,-834.66 322.53,-853.69"/>
<polygon fill="black" stroke="black" points="322.26,-863.82 318.03,-853.7 322.39,-858.82 322.53,-853.83 322.53,-853.83 322.53,-853.83 322.39,-858.82 327.03,-853.95 322.26,-863.82 322.26,-863.82"/>
</g>
<!-- ragger.firmware.stax -->
<g id="node18" class="node">
<title>ragger.firmware.stax</title>
<polygon fill="cadetblue" stroke="cadetblue" points="569.5,-252 402.5,-252 402.5,-216 569.5,-216 569.5,-252"/>
<text text-anchor="middle" x="486" y="-230.3" font-family="Times,serif" font-size="14.00">ragger.firmware.stax</text>
</g>
<!-- ragger.firmware.stax.screen -->
<g id="node21" class="node">
<title>ragger.firmware.stax.screen</title>
<polygon fill="cadetblue" stroke="cadetblue" points="576,-324 358,-324 358,-288 576,-288 576,-324"/>
<text text-anchor="middle" x="467" y="-302.3" font-family="Times,serif" font-size="14.00">ragger.firmware.stax.screen</text>
</g>
<!-- ragger.firmware.stax&#45;&gt;ragger.firmware.stax.screen -->
<g id="edge41" class="edge">
<title>ragger.firmware.stax&#45;&gt;ragger.firmware.stax.screen</title>
<path fill="none" stroke="black" d="M481.3,-252.3C479.19,-260.1 476.64,-269.49 474.28,-278.17"/>
<polygon fill="black" stroke="black" points="471.64,-287.9 469.92,-277.07 472.95,-283.07 474.26,-278.24 474.26,-278.24 474.26,-278.24 472.95,-283.07 478.61,-279.42 471.64,-287.9 471.64,-287.9"/>
</g>
<!-- ragger.firmware.stax.layouts -->
<g id="node19" class="node">
<title>ragger.firmware.stax.layouts</title>
<polygon fill="cadetblue" stroke="cadetblue" points="327.5,-396 104.5,-396 104.5,-360 327.5,-360 327.5,-396"/>
<text text-anchor="middle" x="216" y="-374.3" font-family="Times,serif" font-size="14.00">ragger.firmware.stax.layouts</text>
</g>
<!-- ragger.firmware.stax.layouts&#45;&gt;ragger.backend -->
<g id="edge42" class="edge">
<title>ragger.firmware.stax.layouts&#45;&gt;ragger.backend</title>
<path fill="none" stroke="black" d="M327.6,-395.41C417.15,-408.58 540.32,-426.69 618.04,-438.12"/>
<polygon fill="black" stroke="black" points="628.23,-439.62 617.68,-442.62 623.28,-438.89 618.33,-438.17 618.33,-438.17 618.33,-438.17 623.28,-438.89 618.99,-433.71 628.23,-439.62 628.23,-439.62"/>
</g>
<!-- ragger.firmware.stax.layouts&#45;&gt;ragger.firmware -->
<g id="edge43" class="edge">
<title>ragger.firmware.stax.layouts&#45;&gt;ragger.firmware</title>
<path fill="none" stroke="black" d="M294.78,-396.05C315,-403.93 334.97,-415.38 349,-432 375.09,-462.91 368,-480.55 368,-521 368,-521 368,-521 368,-595 368,-640.36 398.52,-685.25 420.88,-712.05"/>
<polygon fill="black" stroke="black" points="427.51,-719.77 417.58,-715.12 424.25,-715.98 420.99,-712.19 420.99,-712.19 420.99,-712.19 424.25,-715.98 424.4,-709.26 427.51,-719.77 427.51,-719.77"/>
</g>
<!-- ragger.firmware.stax.positions -->
<g id="node20" class="node">
<title>ragger.firmware.stax.positions</title>
<polygon fill="cadetblue" stroke="cadetblue" points="340,-468 104,-468 104,-432 340,-432 340,-468"/>
<text text-anchor="middle" x="222" y="-446.3" font-family="Times,serif" font-size="14.00">ragger.firmware.stax.positions</text>
</g>
<!-- ragger.firmware.stax.layouts&#45;&gt;ragger.firmware.stax.positions -->
<g id="edge44" class="edge">
<title>ragger.firmware.stax.layouts&#45;&gt;ragger.firmware.stax.positions</title>
<path fill="none" stroke="black" d="M217.48,-396.3C218.14,-404.02 218.94,-413.29 219.68,-421.89"/>
<polygon fill="black" stroke="black" points="220.53,-431.9 215.2,-422.32 220.11,-426.91 219.68,-421.93 219.68,-421.93 219.68,-421.93 220.11,-426.91 224.16,-421.55 220.53,-431.9 220.53,-431.9"/>
</g>
<!-- ragger.firmware.stax.positions&#45;&gt;ragger.firmware.versions -->
<g id="edge45" class="edge">
<title>ragger.firmware.stax.positions&#45;&gt;ragger.firmware.versions</title>
<path fill="none" stroke="black" d="M224.53,-468.08C230.39,-506.78 245.89,-603.98 265,-684 279.68,-745.49 301.85,-816.32 314.09,-854.04"/>
<polygon fill="black" stroke="black" points="317.27,-863.77 309.89,-855.66 315.72,-859.02 314.17,-854.26 314.17,-854.26 314.17,-854.26 315.72,-859.02 318.44,-852.87 317.27,-863.77 317.27,-863.77"/>
</g>
<!-- ragger.firmware.stax.screen&#45;&gt;ragger.backend -->
<g id="edge46" class="edge">
<title>ragger.firmware.stax.screen&#45;&gt;ragger.backend</title>
<path fill="none" stroke="black" d="M521.35,-324.11C545.52,-332.96 573.71,-345.07 597,-360 625.1,-378.01 652.39,-404.85 670.45,-424.35"/>
<polygon fill="black" stroke="black" points="677.37,-431.94 667.31,-427.58 674.01,-428.25 670.64,-424.55 670.64,-424.55 670.64,-424.55 674.01,-428.25 673.97,-421.52 677.37,-431.94 677.37,-431.94"/>
</g>
<!-- ragger.firmware.stax.screen&#45;&gt;ragger.firmware -->
<g id="edge47" class="edge">
<title>ragger.firmware.stax.screen&#45;&gt;ragger.firmware</title>
<path fill="none" stroke="black" d="M357.72,-307.31C260.45,-310.18 128.51,-321.38 95,-360 -25.63,-499.03 275.04,-658.91 396.14,-715.66"/>
<polygon fill="black" stroke="black" points="405.23,-719.89 394.26,-719.75 400.69,-717.78 396.16,-715.67 396.16,-715.67 396.16,-715.67 400.69,-717.78 398.06,-711.59 405.23,-719.89 405.23,-719.89"/>
</g>
<!-- ragger.firmware.stax.screen&#45;&gt;ragger.firmware.stax.layouts -->
<g id="edge48" class="edge">
<title>ragger.firmware.stax.screen&#45;&gt;ragger.firmware.stax.layouts</title>
<path fill="none" stroke="black" d="M405.92,-324.03C370.09,-334.03 324.64,-346.7 287.19,-357.15"/>
<polygon fill="black" stroke="black" points="277.35,-359.89 285.78,-352.87 282.17,-358.55 286.99,-357.2 286.99,-357.2 286.99,-357.2 282.17,-358.55 288.2,-361.54 277.35,-359.89 277.35,-359.89"/>
</g>
<!-- ragger.firmware.stax.use_cases -->
<g id="node22" class="node">
<title>ragger.firmware.stax.use_cases</title>
<polygon fill="cadetblue" stroke="cadetblue" points="588,-396 346,-396 346,-360 588,-360 588,-396"/>
<text text-anchor="middle" x="467" y="-374.3" font-family="Times,serif" font-size="14.00">ragger.firmware.stax.use_cases</text>
</g>
<!-- ragger.firmware.stax.screen&#45;&gt;ragger.firmware.stax.use_cases -->
<g id="edge49" class="edge">
<title>ragger.firmware.stax.screen&#45;&gt;ragger.firmware.stax.use_cases</title>
<path fill="none" stroke="black" d="M467,-324.3C467,-332.02 467,-341.29 467,-349.89"/>
<polygon fill="black" stroke="black" points="467,-359.9 462.5,-349.9 467,-354.9 467,-349.9 467,-349.9 467,-349.9 467,-354.9 471.5,-349.9 467,-359.9 467,-359.9"/>
</g>
<!-- ragger.firmware.stax.use_cases&#45;&gt;ragger.backend -->
<g id="edge50" class="edge">
<title>ragger.firmware.stax.use_cases&#45;&gt;ragger.backend</title>
<path fill="none" stroke="black" d="M521.75,-396.03C553.6,-405.94 593.92,-418.49 627.33,-428.88"/>
<polygon fill="black" stroke="black" points="637,-431.89 626.12,-433.22 632.23,-430.4 627.45,-428.92 627.45,-428.92 627.45,-428.92 632.23,-430.4 628.79,-424.62 637,-431.89 637,-431.89"/>
</g>
<!-- ragger.firmware.stax.use_cases&#45;&gt;ragger.firmware -->
<g id="edge51" class="edge">
<title>ragger.firmware.stax.use_cases&#45;&gt;ragger.firmware</title>
<path fill="none" stroke="black" d="M454.06,-396.34C436.16,-422.12 406,-472.7 406,-521 406,-521 406,-521 406,-595 406,-636.37 421.23,-682.28 432.41,-710.39"/>
<polygon fill="black" stroke="black" points="436.31,-719.91 428.35,-712.36 434.41,-715.28 432.52,-710.65 432.52,-710.65 432.52,-710.65 434.41,-715.28 436.68,-708.95 436.31,-719.91 436.31,-719.91"/>
</g>
<!-- ragger.firmware.stax.use_cases&#45;&gt;ragger.firmware.stax.positions -->
<g id="edge52" class="edge">
<title>ragger.firmware.stax.use_cases&#45;&gt;ragger.firmware.stax.positions</title>
<path fill="none" stroke="black" d="M407.38,-396.03C372.55,-405.99 328.42,-418.59 291.96,-429.01"/>
<polygon fill="black" stroke="black" points="281.89,-431.89 290.27,-424.82 286.7,-430.52 291.5,-429.14 291.5,-429.14 291.5,-429.14 286.7,-430.52 292.74,-433.47 281.89,-431.89 281.89,-431.89"/>
</g>
<!-- ragger.firmware.structs&#45;&gt;ragger.firmware.versions -->
<g id="edge53" class="edge">
<title>ragger.firmware.structs&#45;&gt;ragger.firmware.versions</title>
<path fill="none" stroke="black" d="M414.4,-828.12C398.43,-837.36 378.54,-848.87 361.39,-858.79"/>
<polygon fill="black" stroke="black" points="352.71,-863.81 359.12,-854.91 357.04,-861.31 361.37,-858.8 361.37,-858.8 361.37,-858.8 357.04,-861.31 363.62,-862.7 352.71,-863.81 352.71,-863.81"/>
</g>
<!-- ragger.gui.process -->
<g id="node27" class="node">
<title>ragger.gui.process</title>
<polygon fill="chartreuse" stroke="chartreuse" points="934.5,-756 785.5,-756 785.5,-720 934.5,-720 934.5,-756"/>
<text text-anchor="middle" x="860" y="-734.3" font-family="Times,serif" font-size="14.00">ragger.gui.process</text>
</g>
<!-- ragger.gui&#45;&gt;ragger.gui.process -->
<g id="edge54" class="edge">
<title>ragger.gui&#45;&gt;ragger.gui.process</title>
<path fill="none" stroke="black" d="M1044.83,-680.75C1010.97,-691.05 964.1,-705.32 926.03,-716.9"/>
<polygon fill="black" stroke="black" points="916.05,-719.94 924.31,-712.72 920.84,-718.48 925.62,-717.03 925.62,-717.03 925.62,-717.03 920.84,-718.48 926.93,-721.33 916.05,-719.94 916.05,-719.94"/>
</g>
<!-- ragger.gui.interface -->
<g id="node26" class="node">
<title>ragger.gui.interface</title>
<polygon fill="chartreuse" stroke="chartreuse" points="896,-828 738,-828 738,-792 896,-792 896,-828"/>
<text text-anchor="middle" x="817" y="-806.3" font-family="Times,serif" font-size="14.00">ragger.gui.interface</text>
</g>
<!-- ragger.gui.interface&#45;&gt;ragger.logger -->
<g id="edge55" class="edge">
<title>ragger.gui.interface&#45;&gt;ragger.logger</title>
<path fill="none" stroke="black" d="M795.25,-828.3C784.16,-837.12 770.53,-847.97 758.51,-857.53"/>
<polygon fill="black" stroke="black" points="750.5,-863.9 755.53,-854.15 754.42,-860.78 758.33,-857.67 758.33,-857.67 758.33,-857.67 754.42,-860.78 761.13,-861.19 750.5,-863.9 750.5,-863.9"/>
</g>
<!-- ragger.gui.process&#45;&gt;ragger.gui.interface -->
<g id="edge56" class="edge">
<title>ragger.gui.process&#45;&gt;ragger.gui.interface</title>
<path fill="none" stroke="black" d="M849.37,-756.3C844.37,-764.44 838.31,-774.31 832.79,-783.3"/>
<polygon fill="black" stroke="black" points="827.51,-791.9 828.91,-781.02 830.12,-787.64 832.74,-783.37 832.74,-783.37 832.74,-783.37 830.12,-787.64 836.58,-785.73 827.51,-791.9 827.51,-791.9"/>
</g>
<!-- ragger.gui.process&#45;&gt;ragger.logger -->
<g id="edge57" class="edge">
<title>ragger.gui.process&#45;&gt;ragger.logger</title>
<path fill="none" stroke="black" d="M879.48,-756.05C898.42,-774.73 922.04,-805.07 905,-828 880.01,-861.62 834.37,-874.7 795.83,-879.46"/>
<polygon fill="black" stroke="black" points="785.69,-880.54 795.16,-875.01 790.66,-880.01 795.63,-879.48 795.63,-879.48 795.63,-879.48 790.66,-880.01 796.11,-883.95 785.69,-880.54 785.69,-880.54"/>
</g>
<!-- ragger.gui.process&#45;&gt;ragger.navigator.instruction -->
<g id="edge58" class="edge">
<title>ragger.gui.process&#45;&gt;ragger.navigator.instruction</title>
<path fill="none" stroke="black" d="M934.69,-745.81C1068.21,-757.98 1348.83,-783.55 1509.1,-798.16"/>
<polygon fill="black" stroke="black" points="1519.48,-799.11 1509.11,-802.68 1514.5,-798.66 1509.52,-798.2 1509.52,-798.2 1509.52,-798.2 1514.5,-798.66 1509.93,-793.72 1519.48,-799.11 1519.48,-799.11"/>
</g>
<!-- ragger.navigator&#45;&gt;ragger.navigator -->
<g id="edge59" class="edge">
<title>ragger.navigator&#45;&gt;ragger.navigator</title>
<path fill="none" stroke="black" d="M1080.13,-77.63C1090.76,-79.48 1098,-83.6 1098,-90 1098,-94.1 1095.03,-97.26 1090.1,-99.5"/>
<polygon fill="black" stroke="black" points="1080.13,-102.37 1088.49,-95.28 1084.93,-100.99 1089.74,-99.6 1089.74,-99.6 1089.74,-99.6 1084.93,-100.99 1090.98,-103.92 1080.13,-102.37 1080.13,-102.37"/>
</g>
<!-- ragger.navigator&#45;&gt;ragger.navigator.instruction -->
<g id="edge60" class="edge">
<title>ragger.navigator&#45;&gt;ragger.navigator.instruction</title>
<path fill="none" stroke="black" d="M1080.02,-93.02C1235.79,-99.48 1605,-126.08 1605,-233 1605,-233 1605,-233 1605,-379 1605,-475.6 1643,-496.4 1643,-593 1643,-593 1643,-593 1643,-667 1643,-707.01 1637.04,-753 1632.63,-781.54"/>
<polygon fill="black" stroke="black" points="1631.04,-791.57 1628.16,-780.99 1631.82,-786.64 1632.61,-781.7 1632.61,-781.7 1632.61,-781.7 1631.82,-786.64 1637.05,-782.41 1631.04,-791.57 1631.04,-791.57"/>
</g>
<!-- ragger.navigator.nano_navigator -->
<g id="node31" class="node">
<title>ragger.navigator.nano_navigator</title>
<polygon fill="chocolate" stroke="chocolate" points="1044,-324 796,-324 796,-288 1044,-288 1044,-324"/>
<text text-anchor="middle" x="920" y="-302.3" font-family="Times,serif" font-size="14.00">ragger.navigator.nano_navigator</text>
</g>
<!-- ragger.navigator&#45;&gt;ragger.navigator.nano_navigator -->
<g id="edge61" class="edge">
<title>ragger.navigator&#45;&gt;ragger.navigator.nano_navigator</title>
<path fill="none" stroke="black" d="M1004.63,-108.15C988.61,-145.4 950.55,-233.93 931.41,-278.46"/>
<polygon fill="black" stroke="black" points="927.41,-287.77 927.22,-276.8 929.38,-283.17 931.36,-278.58 931.36,-278.58 931.36,-278.58 929.38,-283.17 935.49,-280.36 927.41,-287.77 927.41,-287.77"/>
</g>
<!-- ragger.navigator.stax_navigator -->
<g id="node33" class="node">
<title>ragger.navigator.stax_navigator</title>
<polygon fill="chocolate" stroke="chocolate" points="888,-180 644,-180 644,-144 888,-144 888,-180"/>
<text text-anchor="middle" x="766" y="-158.3" font-family="Times,serif" font-size="14.00">ragger.navigator.stax_navigator</text>
</g>
<!-- ragger.navigator&#45;&gt;ragger.navigator.stax_navigator -->
<g id="edge62" class="edge">
<title>ragger.navigator&#45;&gt;ragger.navigator.stax_navigator</title>
<path fill="none" stroke="black" d="M952.14,-108.03C917.02,-118.03 872.48,-130.7 835.77,-141.15"/>
<polygon fill="black" stroke="black" points="826.13,-143.89 834.52,-136.82 830.94,-142.52 835.75,-141.15 835.75,-141.15 835.75,-141.15 830.94,-142.52 836.98,-145.48 826.13,-143.89 826.13,-143.89"/>
</g>
<!-- ragger.navigator.nano_navigator&#45;&gt;ragger.backend -->
<g id="edge63" class="edge">
<title>ragger.navigator.nano_navigator&#45;&gt;ragger.backend</title>
<path fill="none" stroke="black" d="M894.26,-324.05C866.69,-342.2 821.56,-371.61 782,-396 765.36,-406.26 746.76,-417.28 730.82,-426.6"/>
<polygon fill="black" stroke="black" points="721.77,-431.87 728.15,-422.95 726.09,-429.36 730.41,-426.84 730.41,-426.84 730.41,-426.84 726.09,-429.36 732.68,-430.73 721.77,-431.87 721.77,-431.87"/>
</g>
<!-- ragger.navigator.nano_navigator&#45;&gt;ragger.firmware -->
<g id="edge64" class="edge">
<title>ragger.navigator.nano_navigator&#45;&gt;ragger.firmware</title>
<path fill="none" stroke="black" d="M840.89,-324.01C774.98,-341.6 682.03,-374.73 619,-432 529.28,-513.52 473.45,-652.09 452.92,-710.15"/>
<polygon fill="black" stroke="black" points="449.61,-719.71 448.63,-708.79 451.24,-714.99 452.88,-710.26 452.88,-710.26 452.88,-710.26 451.24,-714.99 457.13,-711.74 449.61,-719.71 449.61,-719.71"/>
</g>
<!-- ragger.navigator.navigator -->
<g id="node32" class="node">
<title>ragger.navigator.navigator</title>
<polygon fill="chocolate" stroke="chocolate" points="1137.5,-396 930.5,-396 930.5,-360 1137.5,-360 1137.5,-396"/>
<text text-anchor="middle" x="1034" y="-374.3" font-family="Times,serif" font-size="14.00">ragger.navigator.navigator</text>
</g>
<!-- ragger.navigator.nano_navigator&#45;&gt;ragger.navigator.navigator -->
<g id="edge65" class="edge">
<title>ragger.navigator.nano_navigator&#45;&gt;ragger.navigator.navigator</title>
<path fill="none" stroke="black" d="M947.89,-324.12C962.79,-333.28 981.33,-344.66 997.38,-354.52"/>
<polygon fill="black" stroke="black" points="1006.01,-359.81 995.13,-358.41 1001.74,-357.19 997.48,-354.58 997.48,-354.58 997.48,-354.58 1001.74,-357.19 999.84,-350.74 1006.01,-359.81 1006.01,-359.81"/>
</g>
<!-- ragger.navigator.navigator&#45;&gt;ragger.backend -->
<g id="edge66" class="edge">
<title>ragger.navigator.navigator&#45;&gt;ragger.backend</title>
<path fill="none" stroke="black" d="M947.43,-396.01C895.86,-406.23 829.14,-419.62 770,-432 768.56,-432.3 767.1,-432.61 765.64,-432.92"/>
<polygon fill="black" stroke="black" points="755.83,-435 764.68,-428.52 760.72,-433.96 765.61,-432.92 765.61,-432.92 765.61,-432.92 760.72,-433.96 766.55,-437.32 755.83,-435 755.83,-435"/>
</g>
<!-- ragger.navigator.navigator&#45;&gt;ragger.firmware -->
<g id="edge67" class="edge">
<title>ragger.navigator.navigator&#45;&gt;ragger.firmware</title>
<path fill="none" stroke="black" d="M978.24,-396C888.55,-424.81 708.69,-488.71 574,-576 534.41,-601.66 525.56,-611.23 496,-648 480.25,-667.6 466.12,-692.49 456.58,-710.97"/>
<polygon fill="black" stroke="black" points="452.03,-719.98 452.52,-709.03 454.28,-715.52 456.54,-711.06 456.54,-711.06 456.54,-711.06 454.28,-715.52 460.55,-713.09 452.03,-719.98 452.03,-719.98"/>
</g>
<!-- ragger.navigator.navigator&#45;&gt;ragger.navigator.instruction -->
<g id="edge68" class="edge">
<title>ragger.navigator.navigator&#45;&gt;ragger.navigator.instruction</title>
<path fill="none" stroke="black" d="M1137.85,-388.21C1219.83,-396.84 1326.55,-411.49 1365,-432 1450.94,-477.85 1542.73,-683.31 1591,-756 1597.05,-765.11 1603.86,-774.97 1609.97,-783.69"/>
<polygon fill="black" stroke="black" points="1615.8,-791.95 1606.36,-786.37 1612.92,-787.87 1610.04,-783.78 1610.04,-783.78 1610.04,-783.78 1612.92,-787.87 1613.71,-781.19 1615.8,-791.95 1615.8,-791.95"/>
</g>
<!-- ragger.navigator.navigator&#45;&gt;ragger.utils -->
<g id="edge69" class="edge">
<title>ragger.navigator.navigator&#45;&gt;ragger.utils</title>
<path fill="none" stroke="black" d="M1137.72,-381.97C1226.15,-390.66 1348.43,-418.64 1410,-504 1441.87,-548.18 1425.16,-589.35 1361,-684 1353.48,-695.1 1343.04,-705.24 1332.87,-713.61"/>
<polygon fill="black" stroke="black" points="1324.83,-719.93 1329.91,-710.21 1328.76,-716.84 1332.69,-713.75 1332.69,-713.75 1332.69,-713.75 1328.76,-716.84 1335.47,-717.28 1324.83,-719.93 1324.83,-719.93"/>
</g>
<!-- ragger.navigator.stax_navigator&#45;&gt;ragger.backend -->
<g id="edge70" class="edge">
<title>ragger.navigator.stax_navigator&#45;&gt;ragger.backend</title>
<path fill="none" stroke="black" d="M761.59,-180.03C749.23,-227.81 714.15,-363.38 699.05,-421.73"/>
<polygon fill="black" stroke="black" points="696.48,-431.69 694.63,-420.89 697.73,-426.85 698.98,-422.01 698.98,-422.01 698.98,-422.01 697.73,-426.85 703.34,-423.14 696.48,-431.69 696.48,-431.69"/>
</g>
<!-- ragger.navigator.stax_navigator&#45;&gt;ragger.firmware -->
<g id="edge71" class="edge">
<title>ragger.navigator.stax_navigator&#45;&gt;ragger.firmware</title>
<path fill="none" stroke="black" d="M643.74,-174.46C436.38,-195.56 38,-244.04 38,-305 38,-305 38,-305 38,-451 38,-610.6 250.27,-688.92 367.83,-720.07"/>
<polygon fill="black" stroke="black" points="377.87,-722.67 367.06,-724.51 373.03,-721.41 368.19,-720.16 368.19,-720.16 368.19,-720.16 373.03,-721.41 369.32,-715.8 377.87,-722.67 377.87,-722.67"/>
</g>
<!-- ragger.navigator.stax_navigator&#45;&gt;ragger.firmware.stax -->
<g id="edge72" class="edge">
<title>ragger.navigator.stax_navigator&#45;&gt;ragger.firmware.stax</title>
<path fill="none" stroke="black" d="M697.86,-180.03C657.55,-190.11 606.33,-202.92 564.35,-213.41"/>
<polygon fill="black" stroke="black" points="554.44,-215.89 563.05,-209.1 559.29,-214.68 564.14,-213.46 564.14,-213.46 564.14,-213.46 559.29,-214.68 565.24,-217.83 554.44,-215.89 554.44,-215.89"/>
</g>
<!-- ragger.navigator.stax_navigator&#45;&gt;ragger.navigator.instruction -->
<g id="edge73" class="edge">
<title>ragger.navigator.stax_navigator&#45;&gt;ragger.navigator.instruction</title>
<path fill="none" stroke="black" d="M888.09,-172.22C1112.32,-190.81 1567,-236.9 1567,-305 1567,-305 1567,-305 1567,-451 1567,-576.2 1603.7,-722.57 1620.17,-781.94"/>
<polygon fill="black" stroke="black" points="1622.9,-791.67 1615.87,-783.26 1621.55,-786.86 1620.2,-782.04 1620.2,-782.04 1620.2,-782.04 1621.55,-786.86 1624.53,-780.83 1622.9,-791.67 1622.9,-791.67"/>
</g>
<!-- ragger.navigator.stax_navigator&#45;&gt;ragger.navigator.navigator -->
<g id="edge74" class="edge">
<title>ragger.navigator.stax_navigator&#45;&gt;ragger.navigator.navigator</title>
<path fill="none" stroke="black" d="M874.02,-180.06C937.75,-196.28 1013.46,-227.65 1053,-288 1065.3,-306.77 1058.1,-332.1 1049.26,-350.94"/>
<polygon fill="black" stroke="black" points="1044.72,-359.87 1045.24,-348.91 1046.99,-355.41 1049.25,-350.95 1049.25,-350.95 1049.25,-350.95 1046.99,-355.41 1053.27,-352.99 1044.72,-359.87 1044.72,-359.87"/>
</g>
<!-- ragger.utils&#45;&gt;ragger.utils.misc -->
<g id="edge75" class="edge">
<title>ragger.utils&#45;&gt;ragger.utils.misc</title>
<path fill="none" stroke="black" d="M1348.72,-743.33C1429.48,-750.71 1594.35,-767.21 1743.88,-791.91"/>
<polygon fill="black" stroke="black" points="1754.17,-793.62 1743.56,-796.41 1749.23,-792.8 1744.3,-791.98 1744.3,-791.98 1744.3,-791.98 1749.23,-792.8 1745.04,-787.54 1754.17,-793.62 1754.17,-793.62"/>
</g>
<!-- ragger.utils.packing -->
<g id="node36" class="node">
<title>ragger.utils.packing</title>
<polygon fill="coral" stroke="coral" points="1425.5,-828 1266.5,-828 1266.5,-792 1425.5,-792 1425.5,-828"/>
<text text-anchor="middle" x="1346" y="-806.3" font-family="Times,serif" font-size="14.00">ragger.utils.packing</text>
</g>
<!-- ragger.utils&#45;&gt;ragger.utils.packing -->
<g id="edge76" class="edge">
<title>ragger.utils&#45;&gt;ragger.utils.packing</title>
<path fill="none" stroke="black" d="M1310.62,-756.3C1316.14,-764.53 1322.85,-774.52 1328.93,-783.58"/>
<polygon fill="black" stroke="black" points="1334.52,-791.9 1325.21,-786.1 1331.73,-787.74 1328.94,-783.59 1328.94,-783.59 1328.94,-783.59 1331.73,-787.74 1332.68,-781.08 1334.52,-791.9 1334.52,-791.9"/>
</g>
<!-- ragger.utils&#45;&gt;ragger.utils.structs -->
<g id="edge77" class="edge">
<title>ragger.utils&#45;&gt;ragger.utils.structs</title>
<path fill="none" stroke="black" d="M1267.69,-756.12C1250.8,-765.36 1229.75,-776.87 1211.62,-786.79"/>
<polygon fill="black" stroke="black" points="1202.43,-791.81 1209.05,-783.06 1206.82,-789.41 1211.21,-787.01 1211.21,-787.01 1211.21,-787.01 1206.82,-789.41 1213.37,-790.96 1202.43,-791.81 1202.43,-791.81"/>
</g>
<!-- ragger.utils.misc&#45;&gt;ragger.error -->
<g id="edge78" class="edge">
<title>ragger.utils.misc&#45;&gt;ragger.error</title>
<path fill="none" stroke="black" d="M1754.11,-826.1C1751.04,-826.75 1747.99,-827.38 1745,-828 1672.77,-842.88 1589.55,-858.87 1534.16,-869.35"/>
<polygon fill="black" stroke="black" points="1524.15,-871.24 1533.14,-864.96 1529.07,-870.31 1533.98,-869.39 1533.98,-869.39 1533.98,-869.39 1529.07,-870.31 1534.81,-873.81 1524.15,-871.24 1524.15,-871.24"/>
</g>
</g>
</svg>
