<?xml version="1.0" encoding="UTF-8" standalone="no"?>
<!DOCTYPE svg PUBLIC "-//W3C//DTD SVG 1.1//EN"
 "http://www.w3.org/Graphics/SVG/1.1/DTD/svg11.dtd">
<!-- Generated by graphviz version 2.43.0 (0)
 -->
<!-- Title: packages_generated_ragger_architecture Pages: 1 -->
<svg width="2418pt" height="980pt"
 viewBox="0.00 0.00 2417.50 980.00" xmlns="http://www.w3.org/2000/svg" xmlns:xlink="http://www.w3.org/1999/xlink">
<g id="graph0" class="graph" transform="scale(1 1) rotate(0) translate(4 976)">
<title>packages_generated_ragger_architecture</title>
<polygon fill="white" stroke="transparent" points="-4,4 -4,-976 2413.5,-976 2413.5,4 -4,4"/>
<!-- ragger -->
<g id="node1" class="node">
<title>ragger</title>
<polygon fill="#77aadd" stroke="#77aadd" points="106,-36 41,-36 41,0 106,0 106,-36"/>
<text text-anchor="middle" x="73.5" y="-14.3" font-family="Times,serif" font-size="14.00">ragger</text>
</g>
<!-- ragger.__version__ -->
<g id="node2" class="node">
<title>ragger.__version__</title>
<polygon fill="#77aadd" stroke="#77aadd" points="147,-108 0,-108 0,-72 147,-72 147,-108"/>
<text text-anchor="middle" x="73.5" y="-86.3" font-family="Times,serif" font-size="14.00">ragger.__version__</text>
</g>
<!-- ragger&#45;&gt;ragger.__version__ -->
<g id="edge1" class="edge">
<title>ragger&#45;&gt;ragger.__version__</title>
<path fill="none" stroke="black" d="M73.5,-36.3C73.5,-44.02 73.5,-53.29 73.5,-61.89"/>
<polygon fill="black" stroke="black" points="73.5,-71.9 69,-61.9 73.5,-66.9 73.5,-61.9 73.5,-61.9 73.5,-61.9 73.5,-66.9 78,-61.9 73.5,-71.9 73.5,-71.9"/>
</g>
<!-- ragger.backend -->
<g id="node3" class="node">
<title>ragger.backend</title>
<polygon fill="#99ddff" stroke="#99ddff" points="751,-540 624,-540 624,-504 751,-504 751,-540"/>
<text text-anchor="middle" x="687.5" y="-518.3" font-family="Times,serif" font-size="14.00">ragger.backend</text>
</g>
<!-- ragger.backend.interface -->
<g id="node4" class="node">
<title>ragger.backend.interface</title>
<polygon fill="#99ddff" stroke="#99ddff" points="744,-756 549,-756 549,-720 744,-720 744,-756"/>
<text text-anchor="middle" x="646.5" y="-734.3" font-family="Times,serif" font-size="14.00">ragger.backend.interface</text>
</g>
<!-- ragger.backend&#45;&gt;ragger.backend.interface -->
<g id="edge2" class="edge">
<title>ragger.backend&#45;&gt;ragger.backend.interface</title>
<path fill="none" stroke="black" d="M673.38,-540.25C655.69,-563.18 626.48,-605.74 616.5,-648 612.82,-663.57 612.42,-668.53 616.5,-684 618.99,-693.46 623.6,-703.01 628.47,-711.34"/>
<polygon fill="black" stroke="black" points="633.77,-719.85 624.67,-713.74 631.13,-715.6 628.48,-711.36 628.48,-711.36 628.48,-711.36 631.13,-715.6 632.3,-708.98 633.77,-719.85 633.77,-719.85"/>
</g>
<!-- ragger.backend.ledgercomm -->
<g id="node5" class="node">
<title>ragger.backend.ledgercomm</title>
<polygon fill="#99ddff" stroke="#99ddff" points="889.5,-612 669.5,-612 669.5,-576 889.5,-576 889.5,-612"/>
<text text-anchor="middle" x="779.5" y="-590.3" font-family="Times,serif" font-size="14.00">ragger.backend.ledgercomm</text>
</g>
<!-- ragger.backend&#45;&gt;ragger.backend.ledgercomm -->
<g id="edge3" class="edge">
<title>ragger.backend&#45;&gt;ragger.backend.ledgercomm</title>
<path fill="none" stroke="black" d="M710.24,-540.3C721.94,-549.2 736.36,-560.18 749.01,-569.8"/>
<polygon fill="black" stroke="black" points="757.02,-575.9 746.34,-573.42 753.04,-572.87 749.06,-569.84 749.06,-569.84 749.06,-569.84 753.04,-572.87 751.79,-566.26 757.02,-575.9 757.02,-575.9"/>
</g>
<!-- ragger.backend.ledgerwallet -->
<g id="node6" class="node">
<title>ragger.backend.ledgerwallet</title>
<polygon fill="#99ddff" stroke="#99ddff" points="1147,-612 926,-612 926,-576 1147,-576 1147,-612"/>
<text text-anchor="middle" x="1036.5" y="-590.3" font-family="Times,serif" font-size="14.00">ragger.backend.ledgerwallet</text>
</g>
<!-- ragger.backend&#45;&gt;ragger.backend.ledgerwallet -->
<g id="edge4" class="edge">
<title>ragger.backend&#45;&gt;ragger.backend.ledgerwallet</title>
<path fill="none" stroke="black" d="M751.11,-535.76C804.37,-546.44 881.17,-561.85 941.69,-573.98"/>
<polygon fill="black" stroke="black" points="951.64,-575.98 940.95,-578.42 946.74,-575 941.83,-574.01 941.83,-574.01 941.83,-574.01 946.74,-575 942.72,-569.6 951.64,-575.98 951.64,-575.98"/>
</g>
<!-- ragger.backend.speculos -->
<g id="node8" class="node">
<title>ragger.backend.speculos</title>
<polygon fill="#99ddff" stroke="#99ddff" points="819,-684 626,-684 626,-648 819,-648 819,-684"/>
<text text-anchor="middle" x="722.5" y="-662.3" font-family="Times,serif" font-size="14.00">ragger.backend.speculos</text>
</g>
<!-- ragger.backend&#45;&gt;ragger.backend.speculos -->
<g id="edge5" class="edge">
<title>ragger.backend&#45;&gt;ragger.backend.speculos</title>
<path fill="none" stroke="black" d="M675.04,-540.24C663.44,-558.55 649.49,-588.1 660.5,-612 665.82,-623.56 675.05,-633.53 684.78,-641.6"/>
<polygon fill="black" stroke="black" points="693,-647.94 682.33,-645.4 689.03,-644.89 685.07,-641.83 685.07,-641.83 685.07,-641.83 689.03,-644.89 687.82,-638.27 693,-647.94 693,-647.94"/>
</g>
<!-- ragger.backend.stub -->
<g id="node9" class="node">
<title>ragger.backend.stub</title>
<polygon fill="#99ddff" stroke="#99ddff" points="569,-684 406,-684 406,-648 569,-648 569,-684"/>
<text text-anchor="middle" x="487.5" y="-662.3" font-family="Times,serif" font-size="14.00">ragger.backend.stub</text>
</g>
<!-- ragger.backend&#45;&gt;ragger.backend.stub -->
<g id="edge6" class="edge">
<title>ragger.backend&#45;&gt;ragger.backend.stub</title>
<path fill="none" stroke="black" d="M647.51,-540.2C627.54,-549.56 603.44,-562.08 583.5,-576 556.31,-594.98 528.93,-621.23 510.41,-640.31"/>
<polygon fill="black" stroke="black" points="503.28,-647.74 506.95,-637.41 506.74,-644.13 510.2,-640.52 510.2,-640.52 510.2,-640.52 506.74,-644.13 513.45,-643.64 503.28,-647.74 503.28,-647.74"/>
</g>
<!-- ragger.error -->
<g id="node16" class="node">
<title>ragger.error</title>
<polygon fill="#77aadd" stroke="#77aadd" points="400.5,-972 296.5,-972 296.5,-936 400.5,-936 400.5,-972"/>
<text text-anchor="middle" x="348.5" y="-950.3" font-family="Times,serif" font-size="14.00">ragger.error</text>
</g>
<!-- ragger.backend.interface&#45;&gt;ragger.error -->
<g id="edge7" class="edge">
<title>ragger.backend.interface&#45;&gt;ragger.error</title>
<path fill="none" stroke="black" d="M635.02,-756.1C612.39,-788.58 558.86,-859.54 497.5,-900 471.15,-917.37 438.42,-929.83 410.36,-938.28"/>
<polygon fill="black" stroke="black" points="400.64,-941.11 408.99,-933.99 405.45,-939.71 410.25,-938.32 410.25,-938.32 410.25,-938.32 405.45,-939.71 411.5,-942.64 400.64,-941.11 400.64,-941.11"/>
</g>
<!-- ragger.firmware -->
<g id="node17" class="node">
<title>ragger.firmware</title>
<polygon fill="#aaaa00" stroke="#aaaa00" points="1378.5,-828 1246.5,-828 1246.5,-792 1378.5,-792 1378.5,-828"/>
<text text-anchor="middle" x="1312.5" y="-806.3" font-family="Times,serif" font-size="14.00">ragger.firmware</text>
</g>
<!-- ragger.backend.interface&#45;&gt;ragger.firmware -->
<g id="edge8" class="edge">
<title>ragger.backend.interface&#45;&gt;ragger.firmware</title>
<path fill="none" stroke="black" d="M744.06,-749.25C877.77,-763.31 1115.19,-788.26 1236.52,-801.01"/>
<polygon fill="black" stroke="black" points="1246.48,-802.06 1236.06,-805.49 1241.5,-801.54 1236.53,-801.02 1236.53,-801.02 1236.53,-801.02 1241.5,-801.54 1237,-796.54 1246.48,-802.06 1246.48,-802.06"/>
</g>
<!-- ragger.logger -->
<g id="node28" class="node">
<title>ragger.logger</title>
<polygon fill="#77aadd" stroke="#77aadd" points="1420,-972 1307,-972 1307,-936 1420,-936 1420,-972"/>
<text text-anchor="middle" x="1363.5" y="-950.3" font-family="Times,serif" font-size="14.00">ragger.logger</text>
</g>
<!-- ragger.backend.interface&#45;&gt;ragger.logger -->
<g id="edge9" class="edge">
<title>ragger.backend.interface&#45;&gt;ragger.logger</title>
<path fill="none" stroke="black" d="M652.56,-756.13C665.65,-790.32 700.14,-866.61 757.5,-900 803.21,-926.61 1148.43,-944.03 1296.45,-950.35"/>
<polygon fill="black" stroke="black" points="1306.76,-950.78 1296.58,-954.85 1301.76,-950.57 1296.77,-950.36 1296.77,-950.36 1296.77,-950.36 1301.76,-950.57 1296.96,-945.86 1306.76,-950.78 1306.76,-950.78"/>
</g>
<!-- ragger.utils -->
<g id="node35" class="node">
<title>ragger.utils</title>
<polygon fill="#ffaabb" stroke="#ffaabb" points="931,-828 832,-828 832,-792 931,-792 931,-828"/>
<text text-anchor="middle" x="881.5" y="-806.3" font-family="Times,serif" font-size="14.00">ragger.utils</text>
</g>
<!-- ragger.backend.interface&#45;&gt;ragger.utils -->
<g id="edge10" class="edge">
<title>ragger.backend.interface&#45;&gt;ragger.utils</title>
<path fill="none" stroke="black" d="M703.69,-756.03C739.45,-766.69 785.45,-780.39 821.7,-791.19"/>
<polygon fill="black" stroke="black" points="831.64,-794.15 820.78,-795.61 826.85,-792.72 822.06,-791.29 822.06,-791.29 822.06,-791.29 826.85,-792.72 823.35,-786.98 831.64,-794.15 831.64,-794.15"/>
</g>
<!-- ragger.backend.ledgercomm&#45;&gt;ragger.backend.ledgercomm -->
<g id="edge11" class="edge">
<title>ragger.backend.ledgercomm&#45;&gt;ragger.backend.ledgercomm</title>
<path fill="none" stroke="black" d="M889.65,-582.99C900.56,-585.2 907.5,-588.87 907.5,-594 907.5,-597.37 904.51,-600.11 899.37,-602.21"/>
<polygon fill="black" stroke="black" points="889.65,-605.01 898.02,-597.92 894.46,-603.63 899.26,-602.25 899.26,-602.25 899.26,-602.25 894.46,-603.63 900.51,-606.57 889.65,-605.01 889.65,-605.01"/>
</g>
<!-- ragger.backend.physical_backend -->
<g id="node7" class="node">
<title>ragger.backend.physical_backend</title>
<polygon fill="#99ddff" stroke="#99ddff" points="1169.5,-684 913.5,-684 913.5,-648 1169.5,-648 1169.5,-684"/>
<text text-anchor="middle" x="1041.5" y="-662.3" font-family="Times,serif" font-size="14.00">ragger.backend.physical_backend</text>
</g>
<!-- ragger.backend.ledgercomm&#45;&gt;ragger.backend.physical_backend -->
<g id="edge12" class="edge">
<title>ragger.backend.ledgercomm&#45;&gt;ragger.backend.physical_backend</title>
<path fill="none" stroke="black" d="M843.26,-612.03C880.82,-622.07 928.5,-634.81 967.69,-645.28"/>
<polygon fill="black" stroke="black" points="977.46,-647.89 966.63,-649.66 972.63,-646.6 967.8,-645.31 967.8,-645.31 967.8,-645.31 972.63,-646.6 968.96,-640.96 977.46,-647.89 977.46,-647.89"/>
</g>
<!-- ragger.backend.ledgercomm&#45;&gt;ragger.error -->
<g id="edge13" class="edge">
<title>ragger.backend.ledgercomm&#45;&gt;ragger.error</title>
<path fill="none" stroke="black" d="M669.29,-600.05C552.56,-606.72 376.84,-620.93 315.5,-648 260.46,-672.29 213.5,-676.84 213.5,-737 213.5,-737 213.5,-737 213.5,-811 213.5,-851.97 211.28,-868.52 237.5,-900 250.36,-915.44 268.76,-926.69 286.89,-934.75"/>
<polygon fill="black" stroke="black" points="296.32,-938.67 285.36,-938.98 291.71,-936.75 287.09,-934.83 287.09,-934.83 287.09,-934.83 291.71,-936.75 288.82,-930.67 296.32,-938.67 296.32,-938.67"/>
</g>
<!-- ragger.backend.ledgercomm&#45;&gt;ragger.utils -->
<g id="edge14" class="edge">
<title>ragger.backend.ledgercomm&#45;&gt;ragger.utils</title>
<path fill="none" stroke="black" d="M798.42,-612.15C808.22,-621.87 819.72,-634.72 827.5,-648 852.91,-691.39 868.43,-748.42 875.96,-781.66"/>
<polygon fill="black" stroke="black" points="878.13,-791.57 871.59,-782.76 877.06,-786.68 875.99,-781.8 875.99,-781.8 875.99,-781.8 877.06,-786.68 880.39,-780.84 878.13,-791.57 878.13,-791.57"/>
</g>
<!-- ragger.backend.ledgerwallet&#45;&gt;ragger.backend.physical_backend -->
<g id="edge15" class="edge">
<title>ragger.backend.ledgerwallet&#45;&gt;ragger.backend.physical_backend</title>
<path fill="none" stroke="black" d="M1037.74,-612.3C1038.29,-620.02 1038.95,-629.29 1039.56,-637.89"/>
<polygon fill="black" stroke="black" points="1040.28,-647.9 1035.08,-638.24 1039.92,-642.91 1039.57,-637.92 1039.57,-637.92 1039.57,-637.92 1039.92,-642.91 1044.05,-637.6 1040.28,-647.9 1040.28,-647.9"/>
</g>
<!-- ragger.backend.ledgerwallet&#45;&gt;ragger.error -->
<g id="edge16" class="edge">
<title>ragger.backend.ledgerwallet&#45;&gt;ragger.error</title>
<path fill="none" stroke="black" d="M925.71,-610.99C922.61,-611.34 919.53,-611.68 916.5,-612 858.9,-618.07 445.69,-617.44 396.5,-648 302.1,-706.65 299.51,-756.71 270.5,-864 266.32,-879.45 263.01,-885.86 270.5,-900 277.1,-912.46 288.08,-922.53 299.75,-930.41"/>
<polygon fill="black" stroke="black" points="308.32,-935.77 297.45,-934.29 304.08,-933.12 299.84,-930.47 299.84,-930.47 299.84,-930.47 304.08,-933.12 302.23,-926.65 308.32,-935.77 308.32,-935.77"/>
</g>
<!-- ragger.backend.ledgerwallet&#45;&gt;ragger.utils -->
<g id="edge17" class="edge">
<title>ragger.backend.ledgerwallet&#45;&gt;ragger.utils</title>
<path fill="none" stroke="black" d="M956.18,-612.11C936.59,-619.96 917.54,-631.39 904.5,-648 874.3,-686.48 874.44,-746.62 877.69,-781.47"/>
<polygon fill="black" stroke="black" points="878.82,-791.84 873.26,-782.39 878.28,-786.87 877.74,-781.9 877.74,-781.9 877.74,-781.9 878.28,-786.87 882.21,-781.41 878.82,-791.84 878.82,-791.84"/>
</g>
<!-- ragger.backend.physical_backend&#45;&gt;ragger.backend.interface -->
<g id="edge18" class="edge">
<title>ragger.backend.physical_backend&#45;&gt;ragger.backend.interface</title>
<path fill="none" stroke="black" d="M945.38,-684.03C887.08,-694.37 812.61,-707.56 752.59,-718.2"/>
<polygon fill="black" stroke="black" points="742.71,-719.95 751.77,-713.77 747.63,-719.08 752.56,-718.2 752.56,-718.2 752.56,-718.2 747.63,-719.08 753.34,-722.64 742.71,-719.95 742.71,-719.95"/>
</g>
<!-- ragger.gui -->
<g id="node25" class="node">
<title>ragger.gui</title>
<polygon fill="#eedd88" stroke="#eedd88" points="1545.5,-756 1455.5,-756 1455.5,-720 1545.5,-720 1545.5,-756"/>
<text text-anchor="middle" x="1500.5" y="-734.3" font-family="Times,serif" font-size="14.00">ragger.gui</text>
</g>
<!-- ragger.backend.physical_backend&#45;&gt;ragger.gui -->
<g id="edge19" class="edge">
<title>ragger.backend.physical_backend&#45;&gt;ragger.gui</title>
<path fill="none" stroke="black" d="M1153.2,-684.03C1245.64,-698.13 1373.07,-717.57 1445.08,-728.55"/>
<polygon fill="black" stroke="black" points="1455.29,-730.11 1444.73,-733.05 1450.35,-729.35 1445.41,-728.6 1445.41,-728.6 1445.41,-728.6 1450.35,-729.35 1446.08,-724.15 1455.29,-730.11 1455.29,-730.11"/>
</g>
<!-- ragger.navigator.instruction -->
<g id="node30" class="node">
<title>ragger.navigator.instruction</title>
<polygon fill="#ee8866" stroke="#ee8866" points="1785,-900 1568,-900 1568,-864 1785,-864 1785,-900"/>
<text text-anchor="middle" x="1676.5" y="-878.3" font-family="Times,serif" font-size="14.00">ragger.navigator.instruction</text>
</g>
<!-- ragger.backend.physical_backend&#45;&gt;ragger.navigator.instruction -->
<g id="edge20" class="edge">
<title>ragger.backend.physical_backend&#45;&gt;ragger.navigator.instruction</title>
<path fill="none" stroke="black" d="M1169.78,-673.37C1311.69,-681.49 1524.42,-697.25 1554.5,-720 1595.71,-751.16 1565.04,-787.81 1597.5,-828 1607.2,-840.01 1620.34,-850.31 1633.12,-858.55"/>
<polygon fill="black" stroke="black" points="1641.86,-863.92 1630.99,-862.52 1637.6,-861.31 1633.34,-858.69 1633.34,-858.69 1633.34,-858.69 1637.6,-861.31 1635.7,-854.85 1641.86,-863.92 1641.86,-863.92"/>
</g>
<!-- ragger.backend.physical_backend&#45;&gt;ragger.utils -->
<g id="edge21" class="edge">
<title>ragger.backend.physical_backend&#45;&gt;ragger.utils</title>
<path fill="none" stroke="black" d="M1022.2,-684.13C993.85,-709.29 940.83,-756.35 908.59,-784.96"/>
<polygon fill="black" stroke="black" points="900.87,-791.81 905.36,-781.81 904.61,-788.49 908.35,-785.17 908.35,-785.17 908.35,-785.17 904.61,-788.49 911.33,-788.54 900.87,-791.81 900.87,-791.81"/>
</g>
<!-- ragger.backend.speculos&#45;&gt;ragger.backend.interface -->
<g id="edge22" class="edge">
<title>ragger.backend.speculos&#45;&gt;ragger.backend.interface</title>
<path fill="none" stroke="black" d="M703.71,-684.3C694.33,-692.95 682.82,-703.55 672.59,-712.97"/>
<polygon fill="black" stroke="black" points="665.07,-719.9 669.38,-709.81 668.75,-716.51 672.43,-713.12 672.43,-713.12 672.43,-713.12 668.75,-716.51 675.47,-716.43 665.07,-719.9 665.07,-719.9"/>
</g>
<!-- ragger.backend.speculos&#45;&gt;ragger.error -->
<g id="edge23" class="edge">
<title>ragger.backend.speculos&#45;&gt;ragger.error</title>
<path fill="none" stroke="black" d="M625.99,-679.41C595.73,-687.14 563.9,-699.68 539.5,-720 470.78,-777.25 512.12,-836.14 449.5,-900 436.87,-912.88 420.43,-923.31 404.5,-931.4"/>
<polygon fill="black" stroke="black" points="395.21,-935.89 402.26,-927.48 399.71,-933.71 404.22,-931.53 404.22,-931.53 404.22,-931.53 399.71,-933.71 406.17,-935.59 395.21,-935.89 395.21,-935.89"/>
</g>
<!-- ragger.backend.speculos&#45;&gt;ragger.logger -->
<g id="edge24" class="edge">
<title>ragger.backend.speculos&#45;&gt;ragger.logger</title>
<path fill="none" stroke="black" d="M733.91,-684.01C740.21,-694.09 747.71,-707.34 752.5,-720 781.42,-796.48 729.44,-845.63 790.5,-900 827.62,-933.05 1153.34,-946.75 1296.49,-951.2"/>
<polygon fill="black" stroke="black" points="1306.89,-951.52 1296.76,-955.71 1301.89,-951.37 1296.89,-951.22 1296.89,-951.22 1296.89,-951.22 1301.89,-951.37 1297.03,-946.72 1306.89,-951.52 1306.89,-951.52"/>
</g>
<!-- ragger.backend.speculos&#45;&gt;ragger.utils -->
<g id="edge25" class="edge">
<title>ragger.backend.speculos&#45;&gt;ragger.utils</title>
<path fill="none" stroke="black" d="M743.43,-684.18C755.79,-694.43 771.68,-707.79 785.5,-720 809.75,-741.42 836.72,-766.55 855.89,-784.63"/>
<polygon fill="black" stroke="black" points="863.34,-791.67 852.98,-788.07 859.7,-788.24 856.07,-784.8 856.07,-784.8 856.07,-784.8 859.7,-788.24 859.16,-781.53 863.34,-791.67 863.34,-791.67"/>
</g>
<!-- ragger.backend.stub&#45;&gt;ragger.backend.interface -->
<g id="edge26" class="edge">
<title>ragger.backend.stub&#45;&gt;ragger.backend.interface</title>
<path fill="none" stroke="black" d="M526.4,-684.12C548.13,-693.69 575.4,-705.7 598.46,-715.85"/>
<polygon fill="black" stroke="black" points="607.73,-719.93 596.77,-720.02 603.15,-717.92 598.58,-715.9 598.58,-715.9 598.58,-715.9 603.15,-717.92 600.39,-711.78 607.73,-719.93 607.73,-719.93"/>
</g>
<!-- ragger.backend.stub&#45;&gt;ragger.error -->
<g id="edge27" class="edge">
<title>ragger.backend.stub&#45;&gt;ragger.error</title>
<path fill="none" stroke="black" d="M481.28,-684.06C477.62,-694.39 473.03,-707.87 469.5,-720 446.46,-799.07 472.26,-832.21 425.5,-900 417.12,-912.15 404.98,-922.35 392.81,-930.46"/>
<polygon fill="black" stroke="black" points="383.99,-935.99 390.07,-926.87 388.22,-933.34 392.46,-930.68 392.46,-930.68 392.46,-930.68 388.22,-933.34 394.85,-934.49 383.99,-935.99 383.99,-935.99"/>
</g>
<!-- ragger.utils.structs -->
<g id="node38" class="node">
<title>ragger.utils.structs</title>
<polygon fill="#ffaabb" stroke="#ffaabb" points="953.5,-900 799.5,-900 799.5,-864 953.5,-864 953.5,-900"/>
<text text-anchor="middle" x="876.5" y="-878.3" font-family="Times,serif" font-size="14.00">ragger.utils.structs</text>
</g>
<!-- ragger.backend.stub&#45;&gt;ragger.utils.structs -->
<g id="edge28" class="edge">
<title>ragger.backend.stub&#45;&gt;ragger.utils.structs</title>
<path fill="none" stroke="black" d="M493.41,-684.11C501.1,-703.99 516.34,-736.55 539.5,-756 611.61,-816.56 715.8,-849.16 789.2,-865.72"/>
<polygon fill="black" stroke="black" points="799.35,-867.95 788.61,-870.2 794.46,-866.87 789.58,-865.8 789.58,-865.8 789.58,-865.8 794.46,-866.87 790.55,-861.41 799.35,-867.95 799.35,-867.95"/>
</g>
<!-- ragger.bip -->
<g id="node10" class="node">
<title>ragger.bip</title>
<polygon fill="#44bb99" stroke="#44bb99" points="2023.5,-36 1933.5,-36 1933.5,0 2023.5,0 2023.5,-36"/>
<text text-anchor="middle" x="1978.5" y="-14.3" font-family="Times,serif" font-size="14.00">ragger.bip</text>
</g>
<!-- ragger.bip.path -->
<g id="node11" class="node">
<title>ragger.bip.path</title>
<polygon fill="#44bb99" stroke="#44bb99" points="1969,-108 1842,-108 1842,-72 1969,-72 1969,-108"/>
<text text-anchor="middle" x="1905.5" y="-86.3" font-family="Times,serif" font-size="14.00">ragger.bip.path</text>
</g>
<!-- ragger.bip&#45;&gt;ragger.bip.path -->
<g id="edge29" class="edge">
<title>ragger.bip&#45;&gt;ragger.bip.path</title>
<path fill="none" stroke="black" d="M1960.46,-36.3C1951.44,-44.95 1940.38,-55.55 1930.56,-64.97"/>
<polygon fill="black" stroke="black" points="1923.34,-71.9 1927.44,-61.73 1926.95,-68.44 1930.56,-64.97 1930.56,-64.97 1930.56,-64.97 1926.95,-68.44 1933.67,-68.22 1923.34,-71.9 1923.34,-71.9"/>
</g>
<!-- ragger.bip.seed -->
<g id="node12" class="node">
<title>ragger.bip.seed</title>
<polygon fill="#44bb99" stroke="#44bb99" points="2115.5,-108 1987.5,-108 1987.5,-72 2115.5,-72 2115.5,-108"/>
<text text-anchor="middle" x="2051.5" y="-86.3" font-family="Times,serif" font-size="14.00">ragger.bip.seed</text>
</g>
<!-- ragger.bip&#45;&gt;ragger.bip.seed -->
<g id="edge30" class="edge">
<title>ragger.bip&#45;&gt;ragger.bip.seed</title>
<path fill="none" stroke="black" d="M1996.54,-36.3C2005.56,-44.95 2016.62,-55.55 2026.44,-64.97"/>
<polygon fill="black" stroke="black" points="2033.66,-71.9 2023.33,-68.22 2030.05,-68.44 2026.44,-64.97 2026.44,-64.97 2026.44,-64.97 2030.05,-68.44 2029.56,-61.73 2033.66,-71.9 2033.66,-71.9"/>
</g>
<!-- ragger.conftest -->
<g id="node13" class="node">
<title>ragger.conftest</title>
<polygon fill="#bbcc33" stroke="#bbcc33" points="2167,-36 2042,-36 2042,0 2167,0 2167,-36"/>
<text text-anchor="middle" x="2104.5" y="-14.3" font-family="Times,serif" font-size="14.00">ragger.conftest</text>
</g>
<!-- ragger.conftest.base_conftest -->
<g id="node14" class="node">
<title>ragger.conftest.base_conftest</title>
<polygon fill="#bbcc33" stroke="#bbcc33" points="1389,-36 1162,-36 1162,0 1389,0 1389,-36"/>
<text text-anchor="middle" x="1275.5" y="-14.3" font-family="Times,serif" font-size="14.00">ragger.conftest.base_conftest</text>
</g>
<!-- ragger.conftest.base_conftest&#45;&gt;ragger.backend -->
<g id="edge31" class="edge">
<title>ragger.conftest.base_conftest&#45;&gt;ragger.backend</title>
<path fill="none" stroke="black" d="M1161.73,-23.07C895.34,-34.11 253.5,-70.14 253.5,-161 253.5,-161 253.5,-161 253.5,-379 253.5,-453.89 489.9,-495.59 613.76,-512.29"/>
<polygon fill="black" stroke="black" points="623.93,-513.64 613.42,-516.79 618.97,-512.98 614.01,-512.32 614.01,-512.32 614.01,-512.32 618.97,-512.98 614.61,-507.86 623.93,-513.64 623.93,-513.64"/>
</g>
<!-- ragger.conftest.base_conftest&#45;&gt;ragger.error -->
<g id="edge32" class="edge">
<title>ragger.conftest.base_conftest&#45;&gt;ragger.error</title>
<path fill="none" stroke="black" d="M1161.78,-19.15C908.82,-20.3 315.54,-27.74 236.5,-72 194.66,-95.43 175.5,-113.05 175.5,-161 175.5,-161 175.5,-161 175.5,-811 175.5,-854.01 182.64,-870.04 213.5,-900 233.43,-919.36 261.27,-931.87 286.49,-939.85"/>
<polygon fill="black" stroke="black" points="296.37,-942.79 285.5,-944.25 291.57,-941.37 286.78,-939.94 286.78,-939.94 286.78,-939.94 291.57,-941.37 288.07,-935.63 296.37,-942.79 296.37,-942.79"/>
</g>
<!-- ragger.conftest.base_conftest&#45;&gt;ragger.firmware -->
<g id="edge33" class="edge">
<title>ragger.conftest.base_conftest&#45;&gt;ragger.firmware</title>
<path fill="none" stroke="black" d="M1389.18,-23.32C1476.25,-28.97 1586.97,-42 1620.5,-72 1651.03,-99.32 1644.5,-120.03 1644.5,-161 1644.5,-161 1644.5,-161 1644.5,-307 1644.5,-533.48 1577.26,-610.73 1403.5,-756 1389.43,-767.76 1372.41,-778.45 1356.92,-787.09"/>
<polygon fill="black" stroke="black" points="1348.01,-791.93 1354.64,-783.2 1352.4,-789.54 1356.79,-787.16 1356.79,-787.16 1356.79,-787.16 1352.4,-789.54 1358.94,-791.11 1348.01,-791.93 1348.01,-791.93"/>
</g>
<!-- ragger.conftest.base_conftest&#45;&gt;ragger.logger -->
<g id="edge34" class="edge">
<title>ragger.conftest.base_conftest&#45;&gt;ragger.logger</title>
<path fill="none" stroke="black" d="M1389.27,-26.1C1547.15,-39.13 1813.5,-74 1813.5,-161 1813.5,-161 1813.5,-161 1813.5,-811 1813.5,-851.54 1823.54,-872.78 1793.5,-900 1741.6,-947.03 1537.63,-953.68 1430.32,-953.82"/>
<polygon fill="black" stroke="black" points="1420.25,-953.81 1430.25,-949.32 1425.25,-953.81 1430.25,-953.82 1430.25,-953.82 1430.25,-953.82 1425.25,-953.81 1430.25,-958.32 1420.25,-953.81 1420.25,-953.81"/>
</g>
<!-- ragger.navigator -->
<g id="node29" class="node">
<title>ragger.navigator</title>
<polygon fill="#ee8866" stroke="#ee8866" points="1051.5,-108 915.5,-108 915.5,-72 1051.5,-72 1051.5,-108"/>
<text text-anchor="middle" x="983.5" y="-86.3" font-family="Times,serif" font-size="14.00">ragger.navigator</text>
</g>
<!-- ragger.conftest.base_conftest&#45;&gt;ragger.navigator -->
<g id="edge35" class="edge">
<title>ragger.conftest.base_conftest&#45;&gt;ragger.navigator</title>
<path fill="none" stroke="black" d="M1204.44,-36.03C1161.2,-46.4 1105.93,-59.65 1061.49,-70.3"/>
<polygon fill="black" stroke="black" points="1051.6,-72.67 1060.28,-65.97 1056.47,-71.51 1061.33,-70.34 1061.33,-70.34 1061.33,-70.34 1056.47,-71.51 1062.38,-74.72 1051.6,-72.67 1051.6,-72.67"/>
</g>
<!-- ragger.conftest.base_conftest&#45;&gt;ragger.utils -->
<g id="edge36" class="edge">
<title>ragger.conftest.base_conftest&#45;&gt;ragger.utils</title>
<path fill="none" stroke="black" d="M1389.2,-29.04C1471.56,-43.3 1568.5,-77.76 1568.5,-161 1568.5,-161 1568.5,-161 1568.5,-307 1568.5,-360.1 1550.36,-499.94 1515.5,-540 1485.86,-574.06 1460.9,-555.84 1420.5,-576 1286.44,-642.88 1274.38,-699.8 1135.5,-756 1071.88,-781.74 994.03,-795.62 941.42,-802.63"/>
<polygon fill="black" stroke="black" points="931.24,-803.94 940.58,-798.2 936.2,-803.3 941.16,-802.66 941.16,-802.66 941.16,-802.66 936.2,-803.3 941.74,-807.13 931.24,-803.94 931.24,-803.94"/>
</g>
<!-- ragger.utils.misc -->
<g id="node36" class="node">
<title>ragger.utils.misc</title>
<polygon fill="#ffaabb" stroke="#ffaabb" points="417,-900 280,-900 280,-864 417,-864 417,-900"/>
<text text-anchor="middle" x="348.5" y="-878.3" font-family="Times,serif" font-size="14.00">ragger.utils.misc</text>
</g>
<!-- ragger.conftest.base_conftest&#45;&gt;ragger.utils.misc -->
<g id="edge37" class="edge">
<title>ragger.conftest.base_conftest&#45;&gt;ragger.utils.misc</title>
<path fill="none" stroke="black" d="M1161.94,-21.81C929.14,-28.11 413.24,-44.92 337.5,-72 274.3,-94.59 215.5,-93.88 215.5,-161 215.5,-161 215.5,-161 215.5,-379 215.5,-566.29 303.07,-780.17 336.1,-854.16"/>
<polygon fill="black" stroke="black" points="340.38,-863.66 332.17,-856.39 338.32,-859.1 336.27,-854.54 336.27,-854.54 336.27,-854.54 338.32,-859.1 340.37,-852.69 340.38,-863.66 340.38,-863.66"/>
</g>
<!-- ragger.conftest.base_conftest&#45;&gt;ragger.utils.structs -->
<g id="edge38" class="edge">
<title>ragger.conftest.base_conftest&#45;&gt;ragger.utils.structs</title>
<path fill="none" stroke="black" d="M1389.41,-22.61C1485.16,-32.47 1606.5,-64.08 1606.5,-161 1606.5,-161 1606.5,-161 1606.5,-307 1606.5,-414.75 1604.78,-454.28 1539.5,-540 1428.07,-686.33 1350.8,-673.32 1186.5,-756 1101.69,-798.67 998.67,-837.86 935.36,-860.58"/>
<polygon fill="black" stroke="black" points="925.93,-863.95 933.83,-856.35 930.64,-862.27 935.35,-860.59 935.35,-860.59 935.35,-860.59 930.64,-862.27 936.86,-864.82 925.93,-863.95 925.93,-863.95"/>
</g>
<!-- ragger.conftest.configuration -->
<g id="node15" class="node">
<title>ragger.conftest.configuration</title>
<polygon fill="#bbcc33" stroke="#bbcc33" points="2409.5,-36 2185.5,-36 2185.5,0 2409.5,0 2409.5,-36"/>
<text text-anchor="middle" x="2297.5" y="-14.3" font-family="Times,serif" font-size="14.00">ragger.conftest.configuration</text>
</g>
<!-- ragger.firmware.structs -->
<g id="node18" class="node">
<title>ragger.firmware.structs</title>
<polygon fill="#aaaa00" stroke="#aaaa00" points="1336,-900 1149,-900 1149,-864 1336,-864 1336,-900"/>
<text text-anchor="middle" x="1242.5" y="-878.3" font-family="Times,serif" font-size="14.00">ragger.firmware.structs</text>
</g>
<!-- ragger.firmware&#45;&gt;ragger.firmware.structs -->
<g id="edge39" class="edge">
<title>ragger.firmware&#45;&gt;ragger.firmware.structs</title>
<path fill="none" stroke="black" d="M1295.2,-828.3C1286.64,-836.86 1276.16,-847.34 1266.8,-856.7"/>
<polygon fill="black" stroke="black" points="1259.6,-863.9 1263.49,-853.64 1263.14,-860.36 1266.68,-856.82 1266.68,-856.82 1266.68,-856.82 1263.14,-860.36 1269.86,-860.01 1259.6,-863.9 1259.6,-863.9"/>
</g>
<!-- ragger.firmware.touch -->
<g id="node19" class="node">
<title>ragger.firmware.touch</title>
<polygon fill="#aaaa00" stroke="#aaaa00" points="1137.5,-252 961.5,-252 961.5,-216 1137.5,-216 1137.5,-252"/>
<text text-anchor="middle" x="1049.5" y="-230.3" font-family="Times,serif" font-size="14.00">ragger.firmware.touch</text>
</g>
<!-- ragger.firmware.touch.screen -->
<g id="node23" class="node">
<title>ragger.firmware.touch.screen</title>
<polygon fill="#aaaa00" stroke="#aaaa00" points="1201.5,-324 973.5,-324 973.5,-288 1201.5,-288 1201.5,-324"/>
<text text-anchor="middle" x="1087.5" y="-302.3" font-family="Times,serif" font-size="14.00">ragger.firmware.touch.screen</text>
</g>
<!-- ragger.firmware.touch&#45;&gt;ragger.firmware.touch.screen -->
<g id="edge40" class="edge">
<title>ragger.firmware.touch&#45;&gt;ragger.firmware.touch.screen</title>
<path fill="none" stroke="black" d="M1058.89,-252.3C1063.26,-260.36 1068.56,-270.11 1073.4,-279.02"/>
<polygon fill="black" stroke="black" points="1078.21,-287.9 1069.49,-281.25 1075.83,-283.5 1073.44,-279.11 1073.44,-279.11 1073.44,-279.11 1075.83,-283.5 1077.4,-276.96 1078.21,-287.9 1078.21,-287.9"/>
</g>
<!-- ragger.firmware.touch.element -->
<g id="node20" class="node">
<title>ragger.firmware.touch.element</title>
<polygon fill="#aaaa00" stroke="#aaaa00" points="1467,-468 1228,-468 1228,-432 1467,-432 1467,-468"/>
<text text-anchor="middle" x="1347.5" y="-446.3" font-family="Times,serif" font-size="14.00">ragger.firmware.touch.element</text>
</g>
<!-- ragger.firmware.touch.element&#45;&gt;ragger.backend -->
<g id="edge41" class="edge">
<title>ragger.firmware.touch.element&#45;&gt;ragger.backend</title>
<path fill="none" stroke="black" d="M1227.98,-463.68C1092.04,-478.09 874.31,-501.19 761.16,-513.19"/>
<polygon fill="black" stroke="black" points="751.2,-514.24 760.67,-508.71 756.17,-513.72 761.15,-513.19 761.15,-513.19 761.15,-513.19 756.17,-513.72 761.62,-517.66 751.2,-514.24 751.2,-514.24"/>
</g>
<!-- ragger.firmware.touch.positions -->
<g id="node22" class="node">
<title>ragger.firmware.touch.positions</title>
<polygon fill="#aaaa00" stroke="#aaaa00" points="1507,-540 1262,-540 1262,-504 1507,-504 1507,-540"/>
<text text-anchor="middle" x="1384.5" y="-518.3" font-family="Times,serif" font-size="14.00">ragger.firmware.touch.positions</text>
</g>
<!-- ragger.firmware.touch.element&#45;&gt;ragger.firmware.touch.positions -->
<g id="edge42" class="edge">
<title>ragger.firmware.touch.element&#45;&gt;ragger.firmware.touch.positions</title>
<path fill="none" stroke="black" d="M1356.65,-468.3C1360.9,-476.36 1366.06,-486.11 1370.77,-495.02"/>
<polygon fill="black" stroke="black" points="1375.46,-503.9 1366.81,-497.16 1373.12,-499.48 1370.79,-495.05 1370.79,-495.05 1370.79,-495.05 1373.12,-499.48 1374.76,-492.95 1375.46,-503.9 1375.46,-503.9"/>
</g>
<!-- ragger.firmware.touch.layouts -->
<g id="node21" class="node">
<title>ragger.firmware.touch.layouts</title>
<polygon fill="#aaaa00" stroke="#aaaa00" points="1464,-396 1231,-396 1231,-360 1464,-360 1464,-396"/>
<text text-anchor="middle" x="1347.5" y="-374.3" font-family="Times,serif" font-size="14.00">ragger.firmware.touch.layouts</text>
</g>
<!-- ragger.firmware.touch.layouts&#45;&gt;ragger.firmware.touch.element -->
<g id="edge43" class="edge">
<title>ragger.firmware.touch.layouts&#45;&gt;ragger.firmware.touch.element</title>
<path fill="none" stroke="black" d="M1347.5,-396.3C1347.5,-404.02 1347.5,-413.29 1347.5,-421.89"/>
<polygon fill="black" stroke="black" points="1347.5,-431.9 1343,-421.9 1347.5,-426.9 1347.5,-421.9 1347.5,-421.9 1347.5,-421.9 1347.5,-426.9 1352,-421.9 1347.5,-431.9 1347.5,-431.9"/>
</g>
<!-- ragger.firmware.touch.screen&#45;&gt;ragger.backend -->
<g id="edge44" class="edge">
<title>ragger.firmware.touch.screen&#45;&gt;ragger.backend</title>
<path fill="none" stroke="black" d="M1000.47,-324.11C981.71,-331.94 964.07,-343.36 952.5,-360 925.09,-399.42 981.25,-431.13 950.5,-468 926.68,-496.55 830.29,-510.1 761.1,-516.26"/>
<polygon fill="black" stroke="black" points="751.1,-517.12 760.68,-511.78 756.09,-516.69 761.07,-516.26 761.07,-516.26 761.07,-516.26 756.09,-516.69 761.45,-520.75 751.1,-517.12 751.1,-517.12"/>
</g>
<!-- ragger.firmware.touch.screen&#45;&gt;ragger.firmware.touch.element -->
<g id="edge45" class="edge">
<title>ragger.firmware.touch.screen&#45;&gt;ragger.firmware.touch.element</title>
<path fill="none" stroke="black" d="M1201.53,-306.77C1302.08,-309.29 1437.86,-320.27 1472.5,-360 1483.01,-372.06 1481.33,-382.66 1472.5,-396 1463.39,-409.75 1449.93,-419.95 1435.16,-427.5"/>
<polygon fill="black" stroke="black" points="1425.83,-431.87 1432.98,-423.55 1430.36,-429.75 1434.88,-427.63 1434.88,-427.63 1434.88,-427.63 1430.36,-429.75 1436.79,-431.71 1425.83,-431.87 1425.83,-431.87"/>
</g>
<!-- ragger.firmware.touch.screen&#45;&gt;ragger.firmware.touch.layouts -->
<g id="edge46" class="edge">
<title>ragger.firmware.touch.screen&#45;&gt;ragger.firmware.touch.layouts</title>
<path fill="none" stroke="black" d="M1150.77,-324.03C1188.05,-334.07 1235.36,-346.81 1274.25,-357.28"/>
<polygon fill="black" stroke="black" points="1283.95,-359.89 1273.12,-361.63 1279.12,-358.59 1274.29,-357.29 1274.29,-357.29 1274.29,-357.29 1279.12,-358.59 1275.46,-352.94 1283.95,-359.89 1283.95,-359.89"/>
</g>
<!-- ragger.firmware.touch.use_cases -->
<g id="node24" class="node">
<title>ragger.firmware.touch.use_cases</title>
<polygon fill="#aaaa00" stroke="#aaaa00" points="1213,-396 962,-396 962,-360 1213,-360 1213,-396"/>
<text text-anchor="middle" x="1087.5" y="-374.3" font-family="Times,serif" font-size="14.00">ragger.firmware.touch.use_cases</text>
</g>
<!-- ragger.firmware.touch.screen&#45;&gt;ragger.firmware.touch.use_cases -->
<g id="edge47" class="edge">
<title>ragger.firmware.touch.screen&#45;&gt;ragger.firmware.touch.use_cases</title>
<path fill="none" stroke="black" d="M1087.5,-324.3C1087.5,-332.02 1087.5,-341.29 1087.5,-349.89"/>
<polygon fill="black" stroke="black" points="1087.5,-359.9 1083,-349.9 1087.5,-354.9 1087.5,-349.9 1087.5,-349.9 1087.5,-349.9 1087.5,-354.9 1092,-349.9 1087.5,-359.9 1087.5,-359.9"/>
</g>
<!-- ragger.firmware.touch.use_cases&#45;&gt;ragger.firmware.touch.element -->
<g id="edge48" class="edge">
<title>ragger.firmware.touch.use_cases&#45;&gt;ragger.firmware.touch.element</title>
<path fill="none" stroke="black" d="M1150.77,-396.03C1188.05,-406.07 1235.36,-418.81 1274.25,-429.28"/>
<polygon fill="black" stroke="black" points="1283.95,-431.89 1273.12,-433.63 1279.12,-430.59 1274.29,-429.29 1274.29,-429.29 1274.29,-429.29 1279.12,-430.59 1275.46,-424.94 1283.95,-431.89 1283.95,-431.89"/>
</g>
<!-- ragger.gui.process -->
<g id="node27" class="node">
<title>ragger.gui.process</title>
<polygon fill="#eedd88" stroke="#eedd88" points="1546,-828 1397,-828 1397,-792 1546,-792 1546,-828"/>
<text text-anchor="middle" x="1471.5" y="-806.3" font-family="Times,serif" font-size="14.00">ragger.gui.process</text>
</g>
<!-- ragger.gui&#45;&gt;ragger.gui.process -->
<g id="edge49" class="edge">
<title>ragger.gui&#45;&gt;ragger.gui.process</title>
<path fill="none" stroke="black" d="M1493.33,-756.3C1490.07,-764.19 1486.13,-773.7 1482.5,-782.45"/>
<polygon fill="black" stroke="black" points="1478.59,-791.9 1478.26,-780.93 1480.5,-787.28 1482.41,-782.66 1482.41,-782.66 1482.41,-782.66 1480.5,-787.28 1486.57,-784.38 1478.59,-791.9 1478.59,-791.9"/>
</g>
<!-- ragger.gui.interface -->
<g id="node26" class="node">
<title>ragger.gui.interface</title>
<polygon fill="#eedd88" stroke="#eedd88" points="1549.5,-900 1391.5,-900 1391.5,-864 1549.5,-864 1549.5,-900"/>
<text text-anchor="middle" x="1470.5" y="-878.3" font-family="Times,serif" font-size="14.00">ragger.gui.interface</text>
</g>
<!-- ragger.gui.interface&#45;&gt;ragger.logger -->
<g id="edge50" class="edge">
<title>ragger.gui.interface&#45;&gt;ragger.logger</title>
<path fill="none" stroke="black" d="M1444.32,-900.12C1430.46,-909.19 1413.26,-920.45 1398.29,-930.24"/>
<polygon fill="black" stroke="black" points="1389.78,-935.81 1395.68,-926.57 1393.96,-933.07 1398.14,-930.34 1398.14,-930.34 1398.14,-930.34 1393.96,-933.07 1400.61,-934.1 1389.78,-935.81 1389.78,-935.81"/>
</g>
<!-- ragger.gui.process&#45;&gt;ragger.gui.interface -->
<g id="edge51" class="edge">
<title>ragger.gui.process&#45;&gt;ragger.gui.interface</title>
<path fill="none" stroke="black" d="M1471.25,-828.3C1471.14,-836.02 1471.01,-845.29 1470.89,-853.89"/>
<polygon fill="black" stroke="black" points="1470.74,-863.9 1466.39,-853.83 1470.82,-858.9 1470.89,-853.9 1470.89,-853.9 1470.89,-853.9 1470.82,-858.9 1475.39,-853.96 1470.74,-863.9 1470.74,-863.9"/>
</g>
<!-- ragger.gui.process&#45;&gt;ragger.logger -->
<g id="edge52" class="edge">
<title>ragger.gui.process&#45;&gt;ragger.logger</title>
<path fill="none" stroke="black" d="M1427.54,-828.07C1411.1,-836.54 1393.71,-848.36 1382.5,-864 1369.59,-882.01 1365.12,-907 1363.72,-925.92"/>
<polygon fill="black" stroke="black" points="1363.22,-935.98 1359.22,-925.77 1363.47,-930.99 1363.72,-926 1363.72,-926 1363.72,-926 1363.47,-930.99 1368.21,-926.22 1363.22,-935.98 1363.22,-935.98"/>
</g>
<!-- ragger.gui.process&#45;&gt;ragger.navigator.instruction -->
<g id="edge53" class="edge">
<title>ragger.gui.process&#45;&gt;ragger.navigator.instruction</title>
<path fill="none" stroke="black" d="M1521.39,-828.03C1550.15,-837.86 1586.51,-850.27 1616.79,-860.61"/>
<polygon fill="black" stroke="black" points="1626.39,-863.89 1615.47,-864.92 1621.66,-862.27 1616.93,-860.66 1616.93,-860.66 1616.93,-860.66 1621.66,-862.27 1618.38,-856.4 1626.39,-863.89 1626.39,-863.89"/>
</g>
<!-- ragger.navigator&#45;&gt;ragger.navigator -->
<g id="edge54" class="edge">
<title>ragger.navigator&#45;&gt;ragger.navigator</title>
<path fill="none" stroke="black" d="M1051.63,-77.63C1062.26,-79.48 1069.5,-83.6 1069.5,-90 1069.5,-94.1 1066.53,-97.26 1061.6,-99.5"/>
<polygon fill="black" stroke="black" points="1051.63,-102.37 1059.99,-95.28 1056.43,-100.99 1061.24,-99.6 1061.24,-99.6 1061.24,-99.6 1056.43,-100.99 1062.48,-103.92 1051.63,-102.37 1051.63,-102.37"/>
</g>
<!-- ragger.navigator&#45;&gt;ragger.navigator.instruction -->
<g id="edge55" class="edge">
<title>ragger.navigator&#45;&gt;ragger.navigator.instruction</title>
<path fill="none" stroke="black" d="M1051.64,-99.74C1228.32,-126.6 1687.5,-224.9 1687.5,-521 1687.5,-521 1687.5,-521 1687.5,-739 1687.5,-779.12 1683.08,-825.43 1679.84,-853.97"/>
<polygon fill="black" stroke="black" points="1678.67,-863.98 1675.36,-853.53 1679.25,-859.02 1679.83,-854.05 1679.83,-854.05 1679.83,-854.05 1679.25,-859.02 1684.3,-854.57 1678.67,-863.98 1678.67,-863.98"/>
</g>
<!-- ragger.navigator.nano_navigator -->
<g id="node31" class="node">
<title>ragger.navigator.nano_navigator</title>
<polygon fill="#ee8866" stroke="#ee8866" points="829.5,-396 581.5,-396 581.5,-360 829.5,-360 829.5,-396"/>
<text text-anchor="middle" x="705.5" y="-374.3" font-family="Times,serif" font-size="14.00">ragger.navigator.nano_navigator</text>
</g>
<!-- ragger.navigator&#45;&gt;ragger.navigator.nano_navigator -->
<g id="edge56" class="edge">
<title>ragger.navigator&#45;&gt;ragger.navigator.nano_navigator</title>
<path fill="none" stroke="black" d="M915.18,-107.92C891.92,-116.08 866.92,-127.72 847.5,-144 778.5,-201.83 733.69,-302.21 715.18,-350.09"/>
<polygon fill="black" stroke="black" points="711.53,-359.75 710.85,-348.8 713.3,-355.07 715.06,-350.39 715.06,-350.39 715.06,-350.39 713.3,-355.07 719.27,-351.98 711.53,-359.75 711.53,-359.75"/>
</g>
<!-- ragger.navigator.navigation_scenario -->
<g id="node32" class="node">
<title>ragger.navigator.navigation_scenario</title>
<polygon fill="#ee8866" stroke="#ee8866" points="563,-396 282,-396 282,-360 563,-360 563,-396"/>
<text text-anchor="middle" x="422.5" y="-374.3" font-family="Times,serif" font-size="14.00">ragger.navigator.navigation_scenario</text>
</g>
<!-- ragger.navigator&#45;&gt;ragger.navigator.navigation_scenario -->
<g id="edge57" class="edge">
<title>ragger.navigator&#45;&gt;ragger.navigator.navigation_scenario</title>
<path fill="none" stroke="black" d="M915.17,-107.62C882.5,-116.61 843.25,-128.97 809.5,-144 670.25,-205.99 519.37,-308.15 454.79,-353.76"/>
<polygon fill="black" stroke="black" points="446.26,-359.81 451.81,-350.35 450.33,-356.92 454.41,-354.03 454.41,-354.03 454.41,-354.03 450.33,-356.92 457.02,-357.7 446.26,-359.81 446.26,-359.81"/>
</g>
<!-- ragger.navigator.touch_navigator -->
<g id="node34" class="node">
<title>ragger.navigator.touch_navigator</title>
<polygon fill="#ee8866" stroke="#ee8866" points="1110.5,-180 856.5,-180 856.5,-144 1110.5,-144 1110.5,-180"/>
<text text-anchor="middle" x="983.5" y="-158.3" font-family="Times,serif" font-size="14.00">ragger.navigator.touch_navigator</text>
</g>
<!-- ragger.navigator&#45;&gt;ragger.navigator.touch_navigator -->
<g id="edge58" class="edge">
<title>ragger.navigator&#45;&gt;ragger.navigator.touch_navigator</title>
<path fill="none" stroke="black" d="M983.5,-108.3C983.5,-116.02 983.5,-125.29 983.5,-133.89"/>
<polygon fill="black" stroke="black" points="983.5,-143.9 979,-133.9 983.5,-138.9 983.5,-133.9 983.5,-133.9 983.5,-133.9 983.5,-138.9 988,-133.9 983.5,-143.9 983.5,-143.9"/>
</g>
<!-- ragger.navigator.nano_navigator&#45;&gt;ragger.backend -->
<g id="edge59" class="edge">
<title>ragger.navigator.nano_navigator&#45;&gt;ragger.backend</title>
<path fill="none" stroke="black" d="M700.48,-396.03C697.64,-406.34 694.32,-419.82 692.5,-432 689.43,-452.53 688.21,-475.99 687.73,-493.66"/>
<polygon fill="black" stroke="black" points="687.53,-503.84 683.23,-493.75 687.63,-498.84 687.73,-493.84 687.73,-493.84 687.73,-493.84 687.63,-498.84 692.23,-493.94 687.53,-503.84 687.53,-503.84"/>
</g>
<!-- ragger.navigator.navigator -->
<g id="node33" class="node">
<title>ragger.navigator.navigator</title>
<polygon fill="#ee8866" stroke="#ee8866" points="942,-468 735,-468 735,-432 942,-432 942,-468"/>
<text text-anchor="middle" x="838.5" y="-446.3" font-family="Times,serif" font-size="14.00">ragger.navigator.navigator</text>
</g>
<!-- ragger.navigator.nano_navigator&#45;&gt;ragger.navigator.navigator -->
<g id="edge60" class="edge">
<title>ragger.navigator.nano_navigator&#45;&gt;ragger.navigator.navigator</title>
<path fill="none" stroke="black" d="M738.04,-396.12C755.75,-405.45 777.85,-417.08 796.82,-427.06"/>
<polygon fill="black" stroke="black" points="805.84,-431.81 794.89,-431.13 801.41,-429.48 796.99,-427.15 796.99,-427.15 796.99,-427.15 801.41,-429.48 799.09,-423.17 805.84,-431.81 805.84,-431.81"/>
</g>
<!-- ragger.navigator.navigation_scenario&#45;&gt;ragger.backend -->
<g id="edge61" class="edge">
<title>ragger.navigator.navigation_scenario&#45;&gt;ragger.backend</title>
<path fill="none" stroke="black" d="M454.47,-396.13C502.51,-421.88 593.35,-470.55 646.31,-498.93"/>
<polygon fill="black" stroke="black" points="655.42,-503.81 644.48,-503.05 651.01,-501.45 646.61,-499.09 646.61,-499.09 646.61,-499.09 651.01,-501.45 648.73,-495.12 655.42,-503.81 655.42,-503.81"/>
</g>
<!-- ragger.navigator.navigation_scenario&#45;&gt;ragger.backend.interface -->
<g id="edge62" class="edge">
<title>ragger.navigator.navigation_scenario&#45;&gt;ragger.backend.interface</title>
<path fill="none" stroke="black" d="M389.44,-396.2C350.64,-419.04 291.5,-463.31 291.5,-521 291.5,-521 291.5,-521 291.5,-595 291.5,-656.18 341.58,-657.06 396.5,-684 440.57,-705.62 493.24,-718.45 538.84,-726.05"/>
<polygon fill="black" stroke="black" points="548.76,-727.64 538.18,-730.5 543.83,-726.85 538.89,-726.06 538.89,-726.06 538.89,-726.06 543.83,-726.85 539.6,-721.61 548.76,-727.64 548.76,-727.64"/>
</g>
<!-- ragger.navigator.navigation_scenario&#45;&gt;ragger.navigator.navigator -->
<g id="edge63" class="edge">
<title>ragger.navigator.navigation_scenario&#45;&gt;ragger.navigator.navigator</title>
<path fill="none" stroke="black" d="M523.73,-396.03C585.26,-406.39 663.88,-419.62 727.16,-430.26"/>
<polygon fill="black" stroke="black" points="737.17,-431.95 726.57,-434.73 732.24,-431.12 727.31,-430.29 727.31,-430.29 727.31,-430.29 732.24,-431.12 728.06,-425.85 737.17,-431.95 737.17,-431.95"/>
</g>
<!-- ragger.navigator.navigator&#45;&gt;ragger.backend -->
<g id="edge64" class="edge">
<title>ragger.navigator.navigator&#45;&gt;ragger.backend</title>
<path fill="none" stroke="black" d="M801.56,-468.12C781.01,-477.65 755.25,-489.59 733.41,-499.72"/>
<polygon fill="black" stroke="black" points="724.32,-503.93 731.5,-495.64 728.86,-501.83 733.39,-499.73 733.39,-499.73 733.39,-499.73 728.86,-501.83 735.28,-503.81 724.32,-503.93 724.32,-503.93"/>
</g>
<!-- ragger.navigator.navigator&#45;&gt;ragger.navigator.instruction -->
<g id="edge65" class="edge">
<title>ragger.navigator.navigator&#45;&gt;ragger.navigator.instruction</title>
<path fill="none" stroke="black" d="M942.15,-466.98C989.79,-475.68 1046.66,-487.97 1096.5,-504 1320.75,-576.12 1409.72,-557.76 1580.5,-720 1619.55,-757.1 1606.67,-782.5 1635.5,-828 1641.54,-837.53 1648.89,-847.45 1655.69,-856.09"/>
<polygon fill="black" stroke="black" points="1661.98,-863.93 1652.21,-858.95 1658.85,-860.03 1655.72,-856.13 1655.72,-856.13 1655.72,-856.13 1658.85,-860.03 1659.23,-853.32 1661.98,-863.93 1661.98,-863.93"/>
</g>
<!-- ragger.navigator.navigator&#45;&gt;ragger.utils -->
<g id="edge66" class="edge">
<title>ragger.navigator.navigator&#45;&gt;ragger.utils</title>
<path fill="none" stroke="black" d="M942.16,-468.02C1011.33,-484.49 1099.52,-516.17 1155.5,-576 1178.45,-600.53 1173.33,-614.81 1178.5,-648 1180.96,-663.81 1187.35,-670.67 1178.5,-684 1125.77,-763.4 1011.68,-792.48 941.26,-803.05"/>
<polygon fill="black" stroke="black" points="931.2,-804.48 940.47,-798.62 936.15,-803.78 941.1,-803.07 941.1,-803.07 941.1,-803.07 936.15,-803.78 941.73,-807.53 931.2,-804.48 931.2,-804.48"/>
</g>
<!-- ragger.navigator.touch_navigator&#45;&gt;ragger.backend -->
<g id="edge67" class="edge">
<title>ragger.navigator.touch_navigator&#45;&gt;ragger.backend</title>
<path fill="none" stroke="black" d="M964.01,-180.18C953.57,-190 940.95,-202.95 931.5,-216 878.71,-288.95 907.3,-337.91 838.5,-396 798.23,-430 764.5,-396.54 725.5,-432 707.69,-448.19 697.91,-474.13 692.76,-493.84"/>
<polygon fill="black" stroke="black" points="690.4,-503.77 688.33,-493 691.56,-498.9 692.71,-494.04 692.71,-494.04 692.71,-494.04 691.56,-498.9 697.09,-495.07 690.4,-503.77 690.4,-503.77"/>
</g>
<!-- ragger.navigator.touch_navigator&#45;&gt;ragger.firmware.touch -->
<g id="edge68" class="edge">
<title>ragger.navigator.touch_navigator&#45;&gt;ragger.firmware.touch</title>
<path fill="none" stroke="black" d="M999.81,-180.3C1007.81,-188.78 1017.57,-199.14 1026.32,-208.42"/>
<polygon fill="black" stroke="black" points="1033.37,-215.9 1023.24,-211.71 1029.94,-212.26 1026.51,-208.62 1026.51,-208.62 1026.51,-208.62 1029.94,-212.26 1029.79,-205.53 1033.37,-215.9 1033.37,-215.9"/>
</g>
<!-- ragger.navigator.touch_navigator&#45;&gt;ragger.navigator.instruction -->
<g id="edge69" class="edge">
<title>ragger.navigator.touch_navigator&#45;&gt;ragger.navigator.instruction</title>
<path fill="none" stroke="black" d="M1039.72,-180.03C1071.31,-189.91 1111.35,-202.95 1146.5,-216 1301.89,-273.67 1353.15,-267.23 1490.5,-360 1573.84,-416.29 1649.5,-420.43 1649.5,-521 1649.5,-521 1649.5,-521 1649.5,-739 1649.5,-779.5 1660.23,-825.37 1668.16,-853.74"/>
<polygon fill="black" stroke="black" points="1671.04,-863.71 1663.94,-855.35 1669.65,-858.91 1668.27,-854.1 1668.27,-854.1 1668.27,-854.1 1669.65,-858.91 1672.59,-852.86 1671.04,-863.71 1671.04,-863.71"/>
</g>
<!-- ragger.navigator.touch_navigator&#45;&gt;ragger.navigator.navigator -->
<g id="edge70" class="edge">
<title>ragger.navigator.touch_navigator&#45;&gt;ragger.navigator.navigator</title>
<path fill="none" stroke="black" d="M972.69,-180.4C966.5,-190.62 958.75,-203.87 952.5,-216 912.3,-293.97 912.78,-318.59 871.5,-396 866.71,-404.99 860.98,-414.52 855.66,-422.99"/>
<polygon fill="black" stroke="black" points="850.1,-431.68 851.7,-420.83 852.8,-427.47 855.49,-423.26 855.49,-423.26 855.49,-423.26 852.8,-427.47 859.28,-425.68 850.1,-431.68 850.1,-431.68"/>
</g>
<!-- ragger.utils&#45;&gt;ragger.utils.misc -->
<g id="edge71" class="edge">
<title>ragger.utils&#45;&gt;ragger.utils.misc</title>
<path fill="none" stroke="black" d="M831.84,-817.52C739.11,-829.7 538.98,-855.98 427.52,-870.62"/>
<polygon fill="black" stroke="black" points="417.35,-871.96 426.68,-866.19 422.3,-871.31 427.26,-870.66 427.26,-870.66 427.26,-870.66 422.3,-871.31 427.85,-875.12 417.35,-871.96 417.35,-871.96"/>
</g>
<!-- ragger.utils.packing -->
<g id="node37" class="node">
<title>ragger.utils.packing</title>
<polygon fill="#ffaabb" stroke="#ffaabb" points="1131,-900 972,-900 972,-864 1131,-864 1131,-900"/>
<text text-anchor="middle" x="1051.5" y="-878.3" font-family="Times,serif" font-size="14.00">ragger.utils.packing</text>
</g>
<!-- ragger.utils&#45;&gt;ragger.utils.packing -->
<g id="edge72" class="edge">
<title>ragger.utils&#45;&gt;ragger.utils.packing</title>
<path fill="none" stroke="black" d="M923.09,-828.12C946.53,-837.78 976,-849.91 1000.8,-860.12"/>
<polygon fill="black" stroke="black" points="1010.05,-863.93 999.09,-864.29 1005.42,-862.03 1000.8,-860.12 1000.8,-860.12 1000.8,-860.12 1005.42,-862.03 1002.51,-855.96 1010.05,-863.93 1010.05,-863.93"/>
</g>
<!-- ragger.utils&#45;&gt;ragger.utils.structs -->
<g id="edge73" class="edge">
<title>ragger.utils&#45;&gt;ragger.utils.structs</title>
<path fill="none" stroke="black" d="M880.26,-828.3C879.71,-836.02 879.05,-845.29 878.44,-853.89"/>
<polygon fill="black" stroke="black" points="877.72,-863.9 873.95,-853.6 878.08,-858.91 878.43,-853.92 878.43,-853.92 878.43,-853.92 878.08,-858.91 882.92,-854.24 877.72,-863.9 877.72,-863.9"/>
</g>
<!-- ragger.utils.misc&#45;&gt;ragger.error -->
<g id="edge74" class="edge">
<title>ragger.utils.misc&#45;&gt;ragger.error</title>
<path fill="none" stroke="black" d="M348.5,-900.3C348.5,-908.02 348.5,-917.29 348.5,-925.89"/>
<polygon fill="black" stroke="black" points="348.5,-935.9 344,-925.9 348.5,-930.9 348.5,-925.9 348.5,-925.9 348.5,-925.9 348.5,-930.9 353,-925.9 348.5,-935.9 348.5,-935.9"/>
</g>
</g>
</svg>
