<?xml version="1.0" encoding="UTF-8" standalone="no"?>
<!DOCTYPE svg PUBLIC "-//W3C//DTD SVG 1.1//EN"
 "http://www.w3.org/Graphics/SVG/1.1/DTD/svg11.dtd">
<!-- Generated by graphviz version 2.43.0 (0)
 -->
<!-- Title: packages_generated_ragger_architecture Pages: 1 -->
<svg width="2289pt" height="908pt"
 viewBox="0.00 0.00 2288.50 908.00" xmlns="http://www.w3.org/2000/svg" xmlns:xlink="http://www.w3.org/1999/xlink">
<g id="graph0" class="graph" transform="scale(1 1) rotate(0) translate(4 904)">
<title>packages_generated_ragger_architecture</title>
<polygon fill="white" stroke="transparent" points="-4,4 -4,-904 2284.5,-904 2284.5,4 -4,4"/>
<!-- ragger -->
<g id="node1" class="node">
<title>ragger</title>
<polygon fill="#77aadd" stroke="#77aadd" points="106,-828 41,-828 41,-792 106,-792 106,-828"/>
<text text-anchor="middle" x="73.5" y="-806.3" font-family="Times,serif" font-size="14.00">ragger</text>
</g>
<!-- ragger.__version__ -->
<g id="node2" class="node">
<title>ragger.__version__</title>
<polygon fill="#77aadd" stroke="#77aadd" points="147,-900 0,-900 0,-864 147,-864 147,-900"/>
<text text-anchor="middle" x="73.5" y="-878.3" font-family="Times,serif" font-size="14.00">ragger.__version__</text>
</g>
<!-- ragger&#45;&gt;ragger.__version__ -->
<g id="edge1" class="edge">
<title>ragger&#45;&gt;ragger.__version__</title>
<path fill="none" stroke="black" d="M73.5,-828.3C73.5,-836.02 73.5,-845.29 73.5,-853.89"/>
<polygon fill="black" stroke="black" points="73.5,-863.9 69,-853.9 73.5,-858.9 73.5,-853.9 73.5,-853.9 73.5,-853.9 73.5,-858.9 78,-853.9 73.5,-863.9 73.5,-863.9"/>
</g>
<!-- ragger.logger -->
<g id="node27" class="node">
<title>ragger.logger</title>
<polygon fill="#77aadd" stroke="#77aadd" points="1009,-900 896,-900 896,-864 1009,-864 1009,-900"/>
<text text-anchor="middle" x="952.5" y="-878.3" font-family="Times,serif" font-size="14.00">ragger.logger</text>
</g>
<!-- ragger&#45;&gt;ragger.logger -->
<g id="edge2" class="edge">
<title>ragger&#45;&gt;ragger.logger</title>
<path fill="none" stroke="black" d="M106.31,-825.7C109.04,-826.59 111.8,-827.37 114.5,-828 260.7,-861.94 713.9,-875.57 885.62,-879.61"/>
<polygon fill="black" stroke="black" points="895.79,-879.84 885.69,-884.11 890.79,-879.72 885.79,-879.61 885.79,-879.61 885.79,-879.61 890.79,-879.72 885.89,-875.11 895.79,-879.84 895.79,-879.84"/>
</g>
<!-- ragger.backend -->
<g id="node3" class="node">
<title>ragger.backend</title>
<polygon fill="#99ddff" stroke="#99ddff" points="915,-468 788,-468 788,-432 915,-432 915,-468"/>
<text text-anchor="middle" x="851.5" y="-446.3" font-family="Times,serif" font-size="14.00">ragger.backend</text>
</g>
<!-- ragger.backend.interface -->
<g id="node4" class="node">
<title>ragger.backend.interface</title>
<polygon fill="#99ddff" stroke="#99ddff" points="1082,-684 887,-684 887,-648 1082,-648 1082,-684"/>
<text text-anchor="middle" x="984.5" y="-662.3" font-family="Times,serif" font-size="14.00">ragger.backend.interface</text>
</g>
<!-- ragger.backend&#45;&gt;ragger.backend.interface -->
<g id="edge3" class="edge">
<title>ragger.backend&#45;&gt;ragger.backend.interface</title>
<path fill="none" stroke="black" d="M812.27,-468.02C751.95,-496.51 648,-556.23 694.5,-612 706.46,-626.34 799.04,-641.56 876.43,-651.99"/>
<polygon fill="black" stroke="black" points="886.75,-653.36 876.24,-656.5 881.79,-652.7 876.84,-652.04 876.84,-652.04 876.84,-652.04 881.79,-652.7 877.43,-647.58 886.75,-653.36 886.75,-653.36"/>
</g>
<!-- ragger.backend.ledgercomm -->
<g id="node5" class="node">
<title>ragger.backend.ledgercomm</title>
<polygon fill="#99ddff" stroke="#99ddff" points="1118.5,-540 898.5,-540 898.5,-504 1118.5,-504 1118.5,-540"/>
<text text-anchor="middle" x="1008.5" y="-518.3" font-family="Times,serif" font-size="14.00">ragger.backend.ledgercomm</text>
</g>
<!-- ragger.backend&#45;&gt;ragger.backend.ledgercomm -->
<g id="edge4" class="edge">
<title>ragger.backend&#45;&gt;ragger.backend.ledgercomm</title>
<path fill="none" stroke="black" d="M889.91,-468.12C911.37,-477.69 938.3,-489.7 961.07,-499.85"/>
<polygon fill="black" stroke="black" points="970.22,-503.93 959.25,-503.97 965.65,-501.9 961.08,-499.86 961.08,-499.86 961.08,-499.86 965.65,-501.9 962.92,-495.75 970.22,-503.93 970.22,-503.93"/>
</g>
<!-- ragger.backend.ledgerwallet -->
<g id="node6" class="node">
<title>ragger.backend.ledgerwallet</title>
<polygon fill="#99ddff" stroke="#99ddff" points="1376,-540 1155,-540 1155,-504 1376,-504 1376,-540"/>
<text text-anchor="middle" x="1265.5" y="-518.3" font-family="Times,serif" font-size="14.00">ragger.backend.ledgerwallet</text>
</g>
<!-- ragger.backend&#45;&gt;ragger.backend.ledgerwallet -->
<g id="edge5" class="edge">
<title>ragger.backend&#45;&gt;ragger.backend.ledgerwallet</title>
<path fill="none" stroke="black" d="M915.28,-461.78C978.88,-472.54 1077.87,-489.27 1154.4,-502.21"/>
<polygon fill="black" stroke="black" points="1164.57,-503.93 1153.96,-506.7 1159.64,-503.1 1154.71,-502.27 1154.71,-502.27 1154.71,-502.27 1159.64,-503.1 1155.46,-497.83 1164.57,-503.93 1164.57,-503.93"/>
</g>
<!-- ragger.backend.speculos -->
<g id="node8" class="node">
<title>ragger.backend.speculos</title>
<polygon fill="#99ddff" stroke="#99ddff" points="1171,-612 978,-612 978,-576 1171,-576 1171,-612"/>
<text text-anchor="middle" x="1074.5" y="-590.3" font-family="Times,serif" font-size="14.00">ragger.backend.speculos</text>
</g>
<!-- ragger.backend&#45;&gt;ragger.backend.speculos -->
<g id="edge6" class="edge">
<title>ragger.backend&#45;&gt;ragger.backend.speculos</title>
<path fill="none" stroke="black" d="M846.97,-468.24C842.91,-487.93 839.87,-520.02 856.5,-540 864.55,-549.67 920.01,-563.08 972.97,-573.99"/>
<polygon fill="black" stroke="black" points="982.81,-576 972.12,-578.41 977.92,-575 973.02,-574 973.02,-574 973.02,-574 977.92,-575 973.91,-569.59 982.81,-576 982.81,-576"/>
</g>
<!-- ragger.backend.stub -->
<g id="node9" class="node">
<title>ragger.backend.stub</title>
<polygon fill="#99ddff" stroke="#99ddff" points="1352,-612 1189,-612 1189,-576 1352,-576 1352,-612"/>
<text text-anchor="middle" x="1270.5" y="-590.3" font-family="Times,serif" font-size="14.00">ragger.backend.stub</text>
</g>
<!-- ragger.backend&#45;&gt;ragger.backend.stub -->
<g id="edge7" class="edge">
<title>ragger.backend&#45;&gt;ragger.backend.stub</title>
<path fill="none" stroke="black" d="M853.7,-468.2C857.3,-488.81 866.55,-522.72 889.5,-540 939.15,-577.38 1100.61,-567.06 1178.69,-576.13"/>
<polygon fill="black" stroke="black" points="1188.69,-577.47 1178.18,-580.6 1183.73,-576.81 1178.78,-576.14 1178.78,-576.14 1178.78,-576.14 1183.73,-576.81 1179.38,-571.68 1188.69,-577.47 1188.69,-577.47"/>
</g>
<!-- ragger.firmware -->
<g id="node17" class="node">
<title>ragger.firmware</title>
<polygon fill="#aaaa00" stroke="#aaaa00" points="608.5,-756 476.5,-756 476.5,-720 608.5,-720 608.5,-756"/>
<text text-anchor="middle" x="542.5" y="-734.3" font-family="Times,serif" font-size="14.00">ragger.firmware</text>
</g>
<!-- ragger.backend.interface&#45;&gt;ragger.firmware -->
<g id="edge8" class="edge">
<title>ragger.backend.interface&#45;&gt;ragger.firmware</title>
<path fill="none" stroke="black" d="M886.95,-682.45C806.22,-695.23 693.12,-713.15 618.87,-724.91"/>
<polygon fill="black" stroke="black" points="608.66,-726.52 617.83,-720.51 613.59,-725.74 618.53,-724.96 618.53,-724.96 618.53,-724.96 613.59,-725.74 619.24,-729.4 608.66,-726.52 608.66,-726.52"/>
</g>
<!-- ragger.backend.interface&#45;&gt;ragger.logger -->
<g id="edge9" class="edge">
<title>ragger.backend.interface&#45;&gt;ragger.logger</title>
<path fill="none" stroke="black" d="M988.22,-684.39C993.91,-714.43 1002.62,-777.66 987.5,-828 984.58,-837.72 979.24,-847.3 973.59,-855.59"/>
<polygon fill="black" stroke="black" points="967.68,-863.7 969.93,-852.97 970.62,-859.66 973.57,-855.62 973.57,-855.62 973.57,-855.62 970.62,-859.66 977.2,-858.26 967.68,-863.7 967.68,-863.7"/>
</g>
<!-- ragger.utils -->
<g id="node33" class="node">
<title>ragger.utils</title>
<polygon fill="#ffaabb" stroke="#ffaabb" points="1449,-756 1350,-756 1350,-720 1449,-720 1449,-756"/>
<text text-anchor="middle" x="1399.5" y="-734.3" font-family="Times,serif" font-size="14.00">ragger.utils</text>
</g>
<!-- ragger.backend.interface&#45;&gt;ragger.utils -->
<g id="edge10" class="edge">
<title>ragger.backend.interface&#45;&gt;ragger.utils</title>
<path fill="none" stroke="black" d="M1082.06,-683.46C1161.94,-696.93 1272.39,-715.56 1339.72,-726.92"/>
<polygon fill="black" stroke="black" points="1349.74,-728.61 1339.13,-731.38 1344.81,-727.78 1339.88,-726.94 1339.88,-726.94 1339.88,-726.94 1344.81,-727.78 1340.63,-722.51 1349.74,-728.61 1349.74,-728.61"/>
</g>
<!-- ragger.backend.ledgercomm&#45;&gt;ragger.backend.ledgercomm -->
<g id="edge11" class="edge">
<title>ragger.backend.ledgercomm&#45;&gt;ragger.backend.ledgercomm</title>
<path fill="none" stroke="black" d="M1118.65,-510.99C1129.56,-513.2 1136.5,-516.87 1136.5,-522 1136.5,-525.37 1133.51,-528.11 1128.37,-530.21"/>
<polygon fill="black" stroke="black" points="1118.65,-533.01 1127.02,-525.92 1123.46,-531.63 1128.26,-530.25 1128.26,-530.25 1128.26,-530.25 1123.46,-531.63 1129.51,-534.57 1118.65,-533.01 1118.65,-533.01"/>
</g>
<!-- ragger.backend.physical_backend -->
<g id="node7" class="node">
<title>ragger.backend.physical_backend</title>
<polygon fill="#99ddff" stroke="#99ddff" points="959.5,-612 703.5,-612 703.5,-576 959.5,-576 959.5,-612"/>
<text text-anchor="middle" x="831.5" y="-590.3" font-family="Times,serif" font-size="14.00">ragger.backend.physical_backend</text>
</g>
<!-- ragger.backend.ledgercomm&#45;&gt;ragger.backend.physical_backend -->
<g id="edge12" class="edge">
<title>ragger.backend.ledgercomm&#45;&gt;ragger.backend.physical_backend</title>
<path fill="none" stroke="black" d="M965.2,-540.12C940.79,-549.78 910.1,-561.91 884.29,-572.12"/>
<polygon fill="black" stroke="black" points="874.66,-575.93 882.3,-568.07 879.31,-574.09 883.96,-572.25 883.96,-572.25 883.96,-572.25 879.31,-574.09 885.61,-576.44 874.66,-575.93 874.66,-575.93"/>
</g>
<!-- ragger.error -->
<g id="node16" class="node">
<title>ragger.error</title>
<polygon fill="#77aadd" stroke="#77aadd" points="1731.5,-900 1627.5,-900 1627.5,-864 1731.5,-864 1731.5,-900"/>
<text text-anchor="middle" x="1679.5" y="-878.3" font-family="Times,serif" font-size="14.00">ragger.error</text>
</g>
<!-- ragger.backend.ledgercomm&#45;&gt;ragger.error -->
<g id="edge13" class="edge">
<title>ragger.backend.ledgercomm&#45;&gt;ragger.error</title>
<path fill="none" stroke="black" d="M1118.69,-537.18C1226.04,-551.18 1374.92,-571.18 1387.5,-576 1548.09,-637.48 1627.69,-640.21 1708.5,-792 1719.26,-812.22 1709.39,-837.15 1698.33,-855.48"/>
<polygon fill="black" stroke="black" points="1692.9,-863.89 1694.54,-853.05 1695.61,-859.69 1698.32,-855.49 1698.32,-855.49 1698.32,-855.49 1695.61,-859.69 1702.1,-857.93 1692.9,-863.89 1692.9,-863.89"/>
</g>
<!-- ragger.backend.ledgercomm&#45;&gt;ragger.firmware -->
<g id="edge14" class="edge">
<title>ragger.backend.ledgercomm&#45;&gt;ragger.firmware</title>
<path fill="none" stroke="black" d="M898.12,-530.7C811.92,-538.39 700.44,-552.5 661.5,-576 647.44,-584.48 589.29,-668.18 559.81,-711.42"/>
<polygon fill="black" stroke="black" points="554.14,-719.74 556.05,-708.94 556.96,-715.61 559.77,-711.47 559.77,-711.47 559.77,-711.47 556.96,-715.61 563.49,-714 554.14,-719.74 554.14,-719.74"/>
</g>
<!-- ragger.backend.ledgercomm&#45;&gt;ragger.utils -->
<g id="edge15" class="edge">
<title>ragger.backend.ledgercomm&#45;&gt;ragger.utils</title>
<path fill="none" stroke="black" d="M1118.85,-536.61C1218.69,-549.39 1351.47,-567.73 1360.5,-576 1397.8,-610.14 1402.26,-673.32 1401.4,-709.56"/>
<polygon fill="black" stroke="black" points="1400.99,-719.87 1396.89,-709.7 1401.18,-714.88 1401.38,-709.88 1401.38,-709.88 1401.38,-709.88 1401.18,-714.88 1405.88,-710.06 1400.99,-719.87 1400.99,-719.87"/>
</g>
<!-- ragger.backend.ledgerwallet&#45;&gt;ragger.backend.physical_backend -->
<g id="edge16" class="edge">
<title>ragger.backend.ledgerwallet&#45;&gt;ragger.backend.physical_backend</title>
<path fill="none" stroke="black" d="M1159.89,-540.03C1095.57,-550.41 1013.34,-563.67 947.26,-574.33"/>
<polygon fill="black" stroke="black" points="937.21,-575.95 946.37,-569.91 942.15,-575.15 947.08,-574.36 947.08,-574.36 947.08,-574.36 942.15,-575.15 947.8,-578.8 937.21,-575.95 937.21,-575.95"/>
</g>
<!-- ragger.backend.ledgerwallet&#45;&gt;ragger.error -->
<g id="edge17" class="edge">
<title>ragger.backend.ledgerwallet&#45;&gt;ragger.error</title>
<path fill="none" stroke="black" d="M1376.2,-534.49C1419.26,-542.14 1467.9,-554.86 1508.5,-576 1634.03,-641.37 1685.73,-662.35 1742.5,-792 1748.92,-806.66 1749.25,-813.49 1742.5,-828 1737.07,-839.66 1727.68,-849.66 1717.78,-857.74"/>
<polygon fill="black" stroke="black" points="1709.8,-863.8 1715.04,-854.17 1713.78,-860.78 1717.76,-857.76 1717.76,-857.76 1717.76,-857.76 1713.78,-860.78 1720.49,-861.34 1709.8,-863.8 1709.8,-863.8"/>
</g>
<!-- ragger.backend.ledgerwallet&#45;&gt;ragger.firmware -->
<g id="edge18" class="edge">
<title>ragger.backend.ledgerwallet&#45;&gt;ragger.firmware</title>
<path fill="none" stroke="black" d="M1154.71,-538.95C1151.61,-539.31 1148.53,-539.66 1145.5,-540 1045.57,-551.06 783.78,-529.76 694.5,-576 680.63,-583.18 615.48,-672.89 604.5,-684 594.43,-694.2 582.63,-704.61 572.05,-713.49"/>
<polygon fill="black" stroke="black" points="564.24,-719.94 569.08,-710.1 568.09,-716.75 571.95,-713.57 571.95,-713.57 571.95,-713.57 568.09,-716.75 574.81,-717.04 564.24,-719.94 564.24,-719.94"/>
</g>
<!-- ragger.backend.ledgerwallet&#45;&gt;ragger.utils -->
<g id="edge19" class="edge">
<title>ragger.backend.ledgerwallet&#45;&gt;ragger.utils</title>
<path fill="none" stroke="black" d="M1346.59,-540.13C1365.26,-547.97 1382.98,-559.38 1394.5,-576 1422.14,-615.89 1414.6,-675.69 1406.88,-710.07"/>
<polygon fill="black" stroke="black" points="1404.52,-719.87 1402.49,-709.1 1405.69,-715.01 1406.86,-710.15 1406.86,-710.15 1406.86,-710.15 1405.69,-715.01 1411.24,-711.21 1404.52,-719.87 1404.52,-719.87"/>
</g>
<!-- ragger.backend.physical_backend&#45;&gt;ragger.backend.interface -->
<g id="edge20" class="edge">
<title>ragger.backend.physical_backend&#45;&gt;ragger.backend.interface</title>
<path fill="none" stroke="black" d="M868.93,-612.12C889.75,-621.65 915.85,-633.59 937.98,-643.72"/>
<polygon fill="black" stroke="black" points="947.19,-647.93 936.23,-647.86 942.65,-645.85 938.1,-643.77 938.1,-643.77 938.1,-643.77 942.65,-645.85 939.97,-639.68 947.19,-647.93 947.19,-647.93"/>
</g>
<!-- ragger.backend.physical_backend&#45;&gt;ragger.firmware -->
<g id="edge21" class="edge">
<title>ragger.backend.physical_backend&#45;&gt;ragger.firmware</title>
<path fill="none" stroke="black" d="M780.24,-612.02C755.18,-621.22 725,-633.65 699.5,-648 676.26,-661.08 674.26,-670.11 651.5,-684 632.44,-695.64 610.45,-706.73 591.23,-715.74"/>
<polygon fill="black" stroke="black" points="582.05,-719.98 589.24,-711.7 586.59,-717.89 591.12,-715.79 591.12,-715.79 591.12,-715.79 586.59,-717.89 593.01,-719.87 582.05,-719.98 582.05,-719.98"/>
</g>
<!-- ragger.gui -->
<g id="node24" class="node">
<title>ragger.gui</title>
<polygon fill="#eedd88" stroke="#eedd88" points="831.5,-684 741.5,-684 741.5,-648 831.5,-648 831.5,-684"/>
<text text-anchor="middle" x="786.5" y="-662.3" font-family="Times,serif" font-size="14.00">ragger.gui</text>
</g>
<!-- ragger.backend.physical_backend&#45;&gt;ragger.gui -->
<g id="edge22" class="edge">
<title>ragger.backend.physical_backend&#45;&gt;ragger.gui</title>
<path fill="none" stroke="black" d="M820.38,-612.3C815.14,-620.44 808.8,-630.31 803.02,-639.3"/>
<polygon fill="black" stroke="black" points="797.5,-647.9 799.12,-637.05 800.2,-643.69 802.9,-639.48 802.9,-639.48 802.9,-639.48 800.2,-643.69 806.69,-641.92 797.5,-647.9 797.5,-647.9"/>
</g>
<!-- ragger.navigator.instruction -->
<g id="node29" class="node">
<title>ragger.navigator.instruction</title>
<polygon fill="#ee8866" stroke="#ee8866" points="341,-828 124,-828 124,-792 341,-792 341,-828"/>
<text text-anchor="middle" x="232.5" y="-806.3" font-family="Times,serif" font-size="14.00">ragger.navigator.instruction</text>
</g>
<!-- ragger.backend.physical_backend&#45;&gt;ragger.navigator.instruction -->
<g id="edge23" class="edge">
<title>ragger.backend.physical_backend&#45;&gt;ragger.navigator.instruction</title>
<path fill="none" stroke="black" d="M793.93,-612.19C774.83,-621.65 751.66,-634.24 732.5,-648 675.55,-688.9 680.78,-725.79 617.5,-756 571.63,-777.9 446.39,-792.38 351.1,-800.59"/>
<polygon fill="black" stroke="black" points="341.1,-801.44 350.69,-796.11 346.09,-801.01 351.07,-800.59 351.07,-800.59 351.07,-800.59 346.09,-801.01 351.45,-805.07 341.1,-801.44 341.1,-801.44"/>
</g>
<!-- ragger.backend.physical_backend&#45;&gt;ragger.utils -->
<g id="edge24" class="edge">
<title>ragger.backend.physical_backend&#45;&gt;ragger.utils</title>
<path fill="none" stroke="black" d="M923.59,-612.02C973.24,-621.65 1035.46,-634.46 1090.5,-648 1178.11,-669.55 1278.24,-699.36 1340.18,-718.41"/>
<polygon fill="black" stroke="black" points="1349.78,-721.37 1338.9,-722.72 1345.01,-719.9 1340.23,-718.42 1340.23,-718.42 1340.23,-718.42 1345.01,-719.9 1341.55,-714.12 1349.78,-721.37 1349.78,-721.37"/>
</g>
<!-- ragger.backend.speculos&#45;&gt;ragger.backend.interface -->
<g id="edge25" class="edge">
<title>ragger.backend.speculos&#45;&gt;ragger.backend.interface</title>
<path fill="none" stroke="black" d="M1052.25,-612.3C1040.92,-621.12 1026.97,-631.97 1014.68,-641.53"/>
<polygon fill="black" stroke="black" points="1006.49,-647.9 1011.62,-638.2 1010.44,-644.83 1014.38,-641.76 1014.38,-641.76 1014.38,-641.76 1010.44,-644.83 1017.15,-645.31 1006.49,-647.9 1006.49,-647.9"/>
</g>
<!-- ragger.backend.speculos&#45;&gt;ragger.error -->
<g id="edge26" class="edge">
<title>ragger.backend.speculos&#45;&gt;ragger.error</title>
<path fill="none" stroke="black" d="M1086.18,-612.13C1092.73,-622.26 1100.73,-635.51 1106.5,-648 1141.84,-724.56 1100.72,-775.24 1166.5,-828 1201.01,-855.68 1488.02,-872.21 1617.07,-878.31"/>
<polygon fill="black" stroke="black" points="1627.2,-878.78 1617,-882.81 1622.2,-878.55 1617.21,-878.32 1617.21,-878.32 1617.21,-878.32 1622.2,-878.55 1617.42,-873.82 1627.2,-878.78 1627.2,-878.78"/>
</g>
<!-- ragger.backend.speculos&#45;&gt;ragger.firmware -->
<g id="edge27" class="edge">
<title>ragger.backend.speculos&#45;&gt;ragger.firmware</title>
<path fill="none" stroke="black" d="M977.99,-610.67C944.71,-618.69 908.13,-630.57 877.5,-648 857.56,-659.35 860.92,-673.53 840.5,-684 802.76,-703.35 694.15,-719.37 619.03,-728.57"/>
<polygon fill="black" stroke="black" points="608.67,-729.82 618.06,-724.15 613.63,-729.22 618.6,-728.62 618.6,-728.62 618.6,-728.62 613.63,-729.22 619.14,-733.09 608.67,-729.82 608.67,-729.82"/>
</g>
<!-- ragger.backend.speculos&#45;&gt;ragger.logger -->
<g id="edge28" class="edge">
<title>ragger.backend.speculos&#45;&gt;ragger.logger</title>
<path fill="none" stroke="black" d="M1082.1,-612.26C1089.01,-630.34 1097.2,-659.47 1090.5,-684 1070.92,-755.69 1051.03,-769.26 1005.5,-828 997.65,-838.12 988,-848.3 979.1,-856.99"/>
<polygon fill="black" stroke="black" points="971.85,-863.9 975.98,-853.75 975.47,-860.45 979.09,-857 979.09,-857 979.09,-857 975.47,-860.45 982.19,-860.26 971.85,-863.9 971.85,-863.9"/>
</g>
<!-- ragger.backend.speculos&#45;&gt;ragger.utils -->
<g id="edge29" class="edge">
<title>ragger.backend.speculos&#45;&gt;ragger.utils</title>
<path fill="none" stroke="black" d="M1171.17,-610.61C1226.25,-620.63 1289.02,-634.3 1313.5,-648 1341.39,-663.61 1365.9,-691.13 1381.55,-711.45"/>
<polygon fill="black" stroke="black" points="1387.7,-719.66 1378.1,-714.35 1384.7,-715.65 1381.7,-711.65 1381.7,-711.65 1381.7,-711.65 1384.7,-715.65 1385.3,-708.96 1387.7,-719.66 1387.7,-719.66"/>
</g>
<!-- ragger.backend.stub&#45;&gt;ragger.backend.interface -->
<g id="edge30" class="edge">
<title>ragger.backend.stub&#45;&gt;ragger.backend.interface</title>
<path fill="none" stroke="black" d="M1200.9,-612.03C1159.64,-622.13 1107.19,-634.97 1064.26,-645.48"/>
<polygon fill="black" stroke="black" points="1054.41,-647.89 1063.05,-641.14 1059.27,-646.7 1064.12,-645.51 1064.12,-645.51 1064.12,-645.51 1059.27,-646.7 1065.19,-649.88 1054.41,-647.89 1054.41,-647.89"/>
</g>
<!-- ragger.utils.structs -->
<g id="node36" class="node">
<title>ragger.utils.structs</title>
<polygon fill="#ffaabb" stroke="#ffaabb" points="1329.5,-828 1175.5,-828 1175.5,-792 1329.5,-792 1329.5,-828"/>
<text text-anchor="middle" x="1252.5" y="-806.3" font-family="Times,serif" font-size="14.00">ragger.utils.structs</text>
</g>
<!-- ragger.backend.stub&#45;&gt;ragger.utils.structs -->
<g id="edge31" class="edge">
<title>ragger.backend.stub&#45;&gt;ragger.utils.structs</title>
<path fill="none" stroke="black" d="M1269.06,-612.15C1265.94,-649.17 1258.57,-736.82 1254.8,-781.61"/>
<polygon fill="black" stroke="black" points="1253.95,-791.77 1250.3,-781.43 1254.37,-786.79 1254.79,-781.8 1254.79,-781.8 1254.79,-781.8 1254.37,-786.79 1259.27,-782.18 1253.95,-791.77 1253.95,-791.77"/>
</g>
<!-- ragger.bip -->
<g id="node10" class="node">
<title>ragger.bip</title>
<polygon fill="#44bb99" stroke="#44bb99" points="1894.5,-36 1804.5,-36 1804.5,0 1894.5,0 1894.5,-36"/>
<text text-anchor="middle" x="1849.5" y="-14.3" font-family="Times,serif" font-size="14.00">ragger.bip</text>
</g>
<!-- ragger.bip.path -->
<g id="node11" class="node">
<title>ragger.bip.path</title>
<polygon fill="#44bb99" stroke="#44bb99" points="1840,-108 1713,-108 1713,-72 1840,-72 1840,-108"/>
<text text-anchor="middle" x="1776.5" y="-86.3" font-family="Times,serif" font-size="14.00">ragger.bip.path</text>
</g>
<!-- ragger.bip&#45;&gt;ragger.bip.path -->
<g id="edge32" class="edge">
<title>ragger.bip&#45;&gt;ragger.bip.path</title>
<path fill="none" stroke="black" d="M1831.46,-36.3C1822.44,-44.95 1811.38,-55.55 1801.56,-64.97"/>
<polygon fill="black" stroke="black" points="1794.34,-71.9 1798.44,-61.73 1797.95,-68.44 1801.56,-64.97 1801.56,-64.97 1801.56,-64.97 1797.95,-68.44 1804.67,-68.22 1794.34,-71.9 1794.34,-71.9"/>
</g>
<!-- ragger.bip.seed -->
<g id="node12" class="node">
<title>ragger.bip.seed</title>
<polygon fill="#44bb99" stroke="#44bb99" points="1986.5,-108 1858.5,-108 1858.5,-72 1986.5,-72 1986.5,-108"/>
<text text-anchor="middle" x="1922.5" y="-86.3" font-family="Times,serif" font-size="14.00">ragger.bip.seed</text>
</g>
<!-- ragger.bip&#45;&gt;ragger.bip.seed -->
<g id="edge33" class="edge">
<title>ragger.bip&#45;&gt;ragger.bip.seed</title>
<path fill="none" stroke="black" d="M1867.54,-36.3C1876.56,-44.95 1887.62,-55.55 1897.44,-64.97"/>
<polygon fill="black" stroke="black" points="1904.66,-71.9 1894.33,-68.22 1901.05,-68.44 1897.44,-64.97 1897.44,-64.97 1897.44,-64.97 1901.05,-68.44 1900.56,-61.73 1904.66,-71.9 1904.66,-71.9"/>
</g>
<!-- ragger.conftest -->
<g id="node13" class="node">
<title>ragger.conftest</title>
<polygon fill="#bbcc33" stroke="#bbcc33" points="2038,-36 1913,-36 1913,0 2038,0 2038,-36"/>
<text text-anchor="middle" x="1975.5" y="-14.3" font-family="Times,serif" font-size="14.00">ragger.conftest</text>
</g>
<!-- ragger.conftest.base_conftest -->
<g id="node14" class="node">
<title>ragger.conftest.base_conftest</title>
<polygon fill="#bbcc33" stroke="#bbcc33" points="1445,-36 1218,-36 1218,0 1445,0 1445,-36"/>
<text text-anchor="middle" x="1331.5" y="-14.3" font-family="Times,serif" font-size="14.00">ragger.conftest.base_conftest</text>
</g>
<!-- ragger.conftest.base_conftest&#45;&gt;ragger.backend -->
<g id="edge34" class="edge">
<title>ragger.conftest.base_conftest&#45;&gt;ragger.backend</title>
<path fill="none" stroke="black" d="M1293.67,-36.1C1251,-58.28 1187.5,-101.31 1187.5,-161 1187.5,-161 1187.5,-161 1187.5,-307 1187.5,-420 1024.26,-444.46 925.34,-448.91"/>
<polygon fill="black" stroke="black" points="915.09,-449.31 924.91,-444.43 920.09,-449.12 925.09,-448.92 925.09,-448.92 925.09,-448.92 920.09,-449.12 925.26,-453.42 915.09,-449.31 915.09,-449.31"/>
</g>
<!-- ragger.conftest.base_conftest&#45;&gt;ragger.firmware -->
<g id="edge35" class="edge">
<title>ragger.conftest.base_conftest&#45;&gt;ragger.firmware</title>
<path fill="none" stroke="black" d="M1217.92,-19.76C904.16,-23.35 48.5,-43.87 48.5,-161 48.5,-161 48.5,-161 48.5,-379 48.5,-540.61 99.33,-617.22 246.5,-684 316.75,-715.88 404.53,-728.61 466.19,-733.68"/>
<polygon fill="black" stroke="black" points="476.24,-734.46 465.92,-738.18 471.25,-734.08 466.27,-733.69 466.27,-733.69 466.27,-733.69 471.25,-734.08 466.61,-729.2 476.24,-734.46 476.24,-734.46"/>
</g>
<!-- ragger.conftest.base_conftest&#45;&gt;ragger.logger -->
<g id="edge36" class="edge">
<title>ragger.conftest.base_conftest&#45;&gt;ragger.logger</title>
<path fill="none" stroke="black" d="M1377.34,-36.02C1425.55,-57.24 1494.5,-98.51 1494.5,-161 1494.5,-161 1494.5,-161 1494.5,-235 1494.5,-498.72 1706.46,-646.12 1515.5,-828 1480.22,-861.61 1161.06,-874.96 1019.54,-879.27"/>
<polygon fill="black" stroke="black" points="1009.26,-879.57 1019.12,-874.78 1014.26,-879.42 1019.25,-879.28 1019.25,-879.28 1019.25,-879.28 1014.26,-879.42 1019.39,-883.77 1009.26,-879.57 1009.26,-879.57"/>
</g>
<!-- ragger.navigator -->
<g id="node28" class="node">
<title>ragger.navigator</title>
<polygon fill="#ee8866" stroke="#ee8866" points="796.5,-108 660.5,-108 660.5,-72 796.5,-72 796.5,-108"/>
<text text-anchor="middle" x="728.5" y="-86.3" font-family="Times,serif" font-size="14.00">ragger.navigator</text>
</g>
<!-- ragger.conftest.base_conftest&#45;&gt;ragger.navigator -->
<g id="edge37" class="edge">
<title>ragger.conftest.base_conftest&#45;&gt;ragger.navigator</title>
<path fill="none" stroke="black" d="M1217.73,-32.21C1097.66,-46.15 911.63,-67.74 806.96,-79.89"/>
<polygon fill="black" stroke="black" points="796.78,-81.07 806.2,-75.45 801.75,-80.5 806.72,-79.92 806.72,-79.92 806.72,-79.92 801.75,-80.5 807.23,-84.39 796.78,-81.07 796.78,-81.07"/>
</g>
<!-- ragger.conftest.base_conftest&#45;&gt;ragger.utils -->
<g id="edge38" class="edge">
<title>ragger.conftest.base_conftest&#45;&gt;ragger.utils</title>
<path fill="none" stroke="black" d="M1445.29,-34.69C1468.7,-42.6 1491.39,-54.41 1508.5,-72 1537.07,-101.37 1532.5,-120.03 1532.5,-161 1532.5,-161 1532.5,-161 1532.5,-595 1532.5,-648.79 1481.04,-690.6 1442.14,-714.53"/>
<polygon fill="black" stroke="black" points="1433.06,-719.93 1439.35,-710.95 1437.36,-717.37 1441.65,-714.82 1441.65,-714.82 1441.65,-714.82 1437.36,-717.37 1443.96,-718.68 1433.06,-719.93 1433.06,-719.93"/>
</g>
<!-- ragger.utils.misc -->
<g id="node34" class="node">
<title>ragger.utils.misc</title>
<polygon fill="#ffaabb" stroke="#ffaabb" points="1700,-828 1563,-828 1563,-792 1700,-792 1700,-828"/>
<text text-anchor="middle" x="1631.5" y="-806.3" font-family="Times,serif" font-size="14.00">ragger.utils.misc</text>
</g>
<!-- ragger.conftest.base_conftest&#45;&gt;ragger.utils.misc -->
<g id="edge39" class="edge">
<title>ragger.conftest.base_conftest&#45;&gt;ragger.utils.misc</title>
<path fill="none" stroke="black" d="M1418.76,-36.08C1523.29,-59.1 1684.5,-103.86 1684.5,-161 1684.5,-161 1684.5,-161 1684.5,-667 1684.5,-709.79 1663.11,-755.52 1647.51,-783.18"/>
<polygon fill="black" stroke="black" points="1642.48,-791.84 1643.61,-780.93 1644.99,-787.52 1647.5,-783.19 1647.5,-783.19 1647.5,-783.19 1644.99,-787.52 1651.4,-785.45 1642.48,-791.84 1642.48,-791.84"/>
</g>
<!-- ragger.conftest.configuration -->
<g id="node15" class="node">
<title>ragger.conftest.configuration</title>
<polygon fill="#bbcc33" stroke="#bbcc33" points="2280.5,-36 2056.5,-36 2056.5,0 2280.5,0 2280.5,-36"/>
<text text-anchor="middle" x="2168.5" y="-14.3" font-family="Times,serif" font-size="14.00">ragger.conftest.configuration</text>
</g>
<!-- ragger.firmware.structs -->
<g id="node23" class="node">
<title>ragger.firmware.structs</title>
<polygon fill="#aaaa00" stroke="#aaaa00" points="636,-828 449,-828 449,-792 636,-792 636,-828"/>
<text text-anchor="middle" x="542.5" y="-806.3" font-family="Times,serif" font-size="14.00">ragger.firmware.structs</text>
</g>
<!-- ragger.firmware&#45;&gt;ragger.firmware.structs -->
<g id="edge40" class="edge">
<title>ragger.firmware&#45;&gt;ragger.firmware.structs</title>
<path fill="none" stroke="black" d="M542.5,-756.3C542.5,-764.02 542.5,-773.29 542.5,-781.89"/>
<polygon fill="black" stroke="black" points="542.5,-791.9 538,-781.9 542.5,-786.9 542.5,-781.9 542.5,-781.9 542.5,-781.9 542.5,-786.9 547,-781.9 542.5,-791.9 542.5,-791.9"/>
</g>
<!-- ragger.firmware.stax -->
<g id="node18" class="node">
<title>ragger.firmware.stax</title>
<polygon fill="#aaaa00" stroke="#aaaa00" points="656,-252 489,-252 489,-216 656,-216 656,-252"/>
<text text-anchor="middle" x="572.5" y="-230.3" font-family="Times,serif" font-size="14.00">ragger.firmware.stax</text>
</g>
<!-- ragger.firmware.stax.screen -->
<g id="node21" class="node">
<title>ragger.firmware.stax.screen</title>
<polygon fill="#aaaa00" stroke="#aaaa00" points="662.5,-324 444.5,-324 444.5,-288 662.5,-288 662.5,-324"/>
<text text-anchor="middle" x="553.5" y="-302.3" font-family="Times,serif" font-size="14.00">ragger.firmware.stax.screen</text>
</g>
<!-- ragger.firmware.stax&#45;&gt;ragger.firmware.stax.screen -->
<g id="edge41" class="edge">
<title>ragger.firmware.stax&#45;&gt;ragger.firmware.stax.screen</title>
<path fill="none" stroke="black" d="M567.8,-252.3C565.69,-260.1 563.14,-269.49 560.78,-278.17"/>
<polygon fill="black" stroke="black" points="558.14,-287.9 556.42,-277.07 559.45,-283.07 560.76,-278.24 560.76,-278.24 560.76,-278.24 559.45,-283.07 565.11,-279.42 558.14,-287.9 558.14,-287.9"/>
</g>
<!-- ragger.firmware.stax.layouts -->
<g id="node19" class="node">
<title>ragger.firmware.stax.layouts</title>
<polygon fill="#aaaa00" stroke="#aaaa00" points="414,-396 191,-396 191,-360 414,-360 414,-396"/>
<text text-anchor="middle" x="302.5" y="-374.3" font-family="Times,serif" font-size="14.00">ragger.firmware.stax.layouts</text>
</g>
<!-- ragger.firmware.stax.layouts&#45;&gt;ragger.backend -->
<g id="edge42" class="edge">
<title>ragger.firmware.stax.layouts&#45;&gt;ragger.backend</title>
<path fill="none" stroke="black" d="M414.24,-394.77C417.36,-395.19 420.45,-395.6 423.5,-396 547.61,-412.4 692.18,-429.99 777.54,-440.21"/>
<polygon fill="black" stroke="black" points="787.65,-441.42 777.18,-444.7 782.68,-440.83 777.72,-440.24 777.72,-440.24 777.72,-440.24 782.68,-440.83 778.25,-435.77 787.65,-441.42 787.65,-441.42"/>
</g>
<!-- ragger.firmware.stax.layouts&#45;&gt;ragger.firmware -->
<g id="edge43" class="edge">
<title>ragger.firmware.stax.layouts&#45;&gt;ragger.firmware</title>
<path fill="none" stroke="black" d="M258.94,-396.13C243.64,-404.51 228.13,-416.26 219.5,-432 211.81,-446.03 212.71,-453.51 219.5,-468 277.11,-590.94 421.57,-677.26 496.23,-715.26"/>
<polygon fill="black" stroke="black" points="505.41,-719.87 494.45,-719.4 500.94,-717.62 496.47,-715.38 496.47,-715.38 496.47,-715.38 500.94,-717.62 498.49,-711.36 505.41,-719.87 505.41,-719.87"/>
</g>
<!-- ragger.firmware.stax.positions -->
<g id="node20" class="node">
<title>ragger.firmware.stax.positions</title>
<polygon fill="#aaaa00" stroke="#aaaa00" points="464.5,-468 228.5,-468 228.5,-432 464.5,-432 464.5,-468"/>
<text text-anchor="middle" x="346.5" y="-446.3" font-family="Times,serif" font-size="14.00">ragger.firmware.stax.positions</text>
</g>
<!-- ragger.firmware.stax.layouts&#45;&gt;ragger.firmware.stax.positions -->
<g id="edge44" class="edge">
<title>ragger.firmware.stax.layouts&#45;&gt;ragger.firmware.stax.positions</title>
<path fill="none" stroke="black" d="M313.38,-396.3C318.49,-404.44 324.7,-414.31 330.34,-423.3"/>
<polygon fill="black" stroke="black" points="335.75,-431.9 326.62,-425.82 333.09,-427.66 330.43,-423.43 330.43,-423.43 330.43,-423.43 333.09,-427.66 334.24,-421.03 335.75,-431.9 335.75,-431.9"/>
</g>
<!-- ragger.firmware.stax.screen&#45;&gt;ragger.backend -->
<g id="edge45" class="edge">
<title>ragger.firmware.stax.screen&#45;&gt;ragger.backend</title>
<path fill="none" stroke="black" d="M607.89,-324.05C632.06,-332.89 660.25,-345.01 683.5,-360 703.05,-372.61 701.95,-383.39 721.5,-396 741.75,-409.06 765.75,-419.94 787.58,-428.37"/>
<polygon fill="black" stroke="black" points="797.11,-431.95 786.17,-432.65 792.43,-430.19 787.75,-428.43 787.75,-428.43 787.75,-428.43 792.43,-430.19 789.34,-424.22 797.11,-431.95 797.11,-431.95"/>
</g>
<!-- ragger.firmware.stax.screen&#45;&gt;ragger.firmware -->
<g id="edge46" class="edge">
<title>ragger.firmware.stax.screen&#45;&gt;ragger.firmware</title>
<path fill="none" stroke="black" d="M444.22,-307.31C346.95,-310.18 215.01,-321.38 181.5,-360 70.29,-488.18 235.59,-600.82 383.5,-684 409.14,-698.42 439.32,-709.71 466.46,-718.1"/>
<polygon fill="black" stroke="black" points="476.31,-721.06 465.43,-722.49 471.52,-719.62 466.73,-718.18 466.73,-718.18 466.73,-718.18 471.52,-719.62 468.03,-713.87 476.31,-721.06 476.31,-721.06"/>
</g>
<!-- ragger.firmware.stax.screen&#45;&gt;ragger.firmware.stax.layouts -->
<g id="edge47" class="edge">
<title>ragger.firmware.stax.screen&#45;&gt;ragger.firmware.stax.layouts</title>
<path fill="none" stroke="black" d="M492.42,-324.03C456.59,-334.03 411.14,-346.7 373.69,-357.15"/>
<polygon fill="black" stroke="black" points="363.85,-359.89 372.28,-352.87 368.67,-358.55 373.49,-357.2 373.49,-357.2 373.49,-357.2 368.67,-358.55 374.7,-361.54 363.85,-359.89 363.85,-359.89"/>
</g>
<!-- ragger.firmware.stax.use_cases -->
<g id="node22" class="node">
<title>ragger.firmware.stax.use_cases</title>
<polygon fill="#aaaa00" stroke="#aaaa00" points="674.5,-396 432.5,-396 432.5,-360 674.5,-360 674.5,-396"/>
<text text-anchor="middle" x="553.5" y="-374.3" font-family="Times,serif" font-size="14.00">ragger.firmware.stax.use_cases</text>
</g>
<!-- ragger.firmware.stax.screen&#45;&gt;ragger.firmware.stax.use_cases -->
<g id="edge48" class="edge">
<title>ragger.firmware.stax.screen&#45;&gt;ragger.firmware.stax.use_cases</title>
<path fill="none" stroke="black" d="M553.5,-324.3C553.5,-332.02 553.5,-341.29 553.5,-349.89"/>
<polygon fill="black" stroke="black" points="553.5,-359.9 549,-349.9 553.5,-354.9 553.5,-349.9 553.5,-349.9 553.5,-349.9 553.5,-354.9 558,-349.9 553.5,-359.9 553.5,-359.9"/>
</g>
<!-- ragger.firmware.stax.use_cases&#45;&gt;ragger.backend -->
<g id="edge49" class="edge">
<title>ragger.firmware.stax.use_cases&#45;&gt;ragger.backend</title>
<path fill="none" stroke="black" d="M626.02,-396.03C672.08,-406.86 731.53,-420.82 777.82,-431.69"/>
<polygon fill="black" stroke="black" points="787.78,-434.03 777.02,-436.13 782.92,-432.89 778.05,-431.75 778.05,-431.75 778.05,-431.75 782.92,-432.89 779.08,-427.37 787.78,-434.03 787.78,-434.03"/>
</g>
<!-- ragger.firmware.stax.use_cases&#45;&gt;ragger.firmware -->
<g id="edge50" class="edge">
<title>ragger.firmware.stax.use_cases&#45;&gt;ragger.firmware</title>
<path fill="none" stroke="black" d="M546.07,-396.2C526.85,-443.18 478.99,-577.26 509.5,-684 512.21,-693.49 517.17,-702.94 522.43,-711.17"/>
<polygon fill="black" stroke="black" points="528.17,-719.57 518.82,-713.85 525.35,-715.44 522.53,-711.31 522.53,-711.31 522.53,-711.31 525.35,-715.44 526.25,-708.77 528.17,-719.57 528.17,-719.57"/>
</g>
<!-- ragger.firmware.stax.use_cases&#45;&gt;ragger.firmware.stax.positions -->
<g id="edge51" class="edge">
<title>ragger.firmware.stax.use_cases&#45;&gt;ragger.firmware.stax.positions</title>
<path fill="none" stroke="black" d="M503.13,-396.03C474.08,-405.86 437.37,-418.27 406.79,-428.61"/>
<polygon fill="black" stroke="black" points="397.1,-431.89 405.13,-424.42 401.84,-430.29 406.57,-428.69 406.57,-428.69 406.57,-428.69 401.84,-430.29 408.01,-432.95 397.1,-431.89 397.1,-431.89"/>
</g>
<!-- ragger.gui.process -->
<g id="node26" class="node">
<title>ragger.gui.process</title>
<polygon fill="#eedd88" stroke="#eedd88" points="890,-756 741,-756 741,-720 890,-720 890,-756"/>
<text text-anchor="middle" x="815.5" y="-734.3" font-family="Times,serif" font-size="14.00">ragger.gui.process</text>
</g>
<!-- ragger.gui&#45;&gt;ragger.gui.process -->
<g id="edge52" class="edge">
<title>ragger.gui&#45;&gt;ragger.gui.process</title>
<path fill="none" stroke="black" d="M793.67,-684.3C796.93,-692.19 800.87,-701.7 804.5,-710.45"/>
<polygon fill="black" stroke="black" points="808.41,-719.9 800.43,-712.38 806.5,-715.28 804.59,-710.66 804.59,-710.66 804.59,-710.66 806.5,-715.28 808.74,-708.93 808.41,-719.9 808.41,-719.9"/>
</g>
<!-- ragger.gui.interface -->
<g id="node25" class="node">
<title>ragger.gui.interface</title>
<polygon fill="#eedd88" stroke="#eedd88" points="978.5,-828 820.5,-828 820.5,-792 978.5,-792 978.5,-828"/>
<text text-anchor="middle" x="899.5" y="-806.3" font-family="Times,serif" font-size="14.00">ragger.gui.interface</text>
</g>
<!-- ragger.gui.interface&#45;&gt;ragger.logger -->
<g id="edge53" class="edge">
<title>ragger.gui.interface&#45;&gt;ragger.logger</title>
<path fill="none" stroke="black" d="M912.6,-828.3C918.89,-836.61 926.55,-846.72 933.46,-855.86"/>
<polygon fill="black" stroke="black" points="939.55,-863.9 929.93,-858.64 936.53,-859.91 933.51,-855.92 933.51,-855.92 933.51,-855.92 936.53,-859.91 937.1,-853.21 939.55,-863.9 939.55,-863.9"/>
</g>
<!-- ragger.gui.process&#45;&gt;ragger.gui.interface -->
<g id="edge54" class="edge">
<title>ragger.gui.process&#45;&gt;ragger.gui.interface</title>
<path fill="none" stroke="black" d="M836.26,-756.3C846.74,-765.03 859.61,-775.76 871,-785.25"/>
<polygon fill="black" stroke="black" points="878.97,-791.9 868.41,-788.95 875.13,-788.69 871.29,-785.49 871.29,-785.49 871.29,-785.49 875.13,-788.69 874.17,-782.04 878.97,-791.9 878.97,-791.9"/>
</g>
<!-- ragger.gui.process&#45;&gt;ragger.logger -->
<g id="edge55" class="edge">
<title>ragger.gui.process&#45;&gt;ragger.logger</title>
<path fill="none" stroke="black" d="M809.05,-756.09C802.98,-775.36 796.8,-806.76 811.5,-828 828.48,-852.52 858.32,-865.71 886.18,-872.8"/>
<polygon fill="black" stroke="black" points="895.93,-875.07 885.18,-877.19 891.06,-873.94 886.19,-872.81 886.19,-872.81 886.19,-872.81 891.06,-873.94 887.21,-868.42 895.93,-875.07 895.93,-875.07"/>
</g>
<!-- ragger.gui.process&#45;&gt;ragger.navigator.instruction -->
<g id="edge56" class="edge">
<title>ragger.gui.process&#45;&gt;ragger.navigator.instruction</title>
<path fill="none" stroke="black" d="M740.68,-753.9C736.23,-754.65 731.81,-755.35 727.5,-756 599.62,-775.16 452.15,-790.03 351.66,-799.08"/>
<polygon fill="black" stroke="black" points="341.47,-799.99 351.03,-794.61 346.45,-799.54 351.43,-799.1 351.43,-799.1 351.43,-799.1 346.45,-799.54 351.83,-803.58 341.47,-799.99 341.47,-799.99"/>
</g>
<!-- ragger.navigator&#45;&gt;ragger.navigator -->
<g id="edge57" class="edge">
<title>ragger.navigator&#45;&gt;ragger.navigator</title>
<path fill="none" stroke="black" d="M796.63,-77.63C807.26,-79.48 814.5,-83.6 814.5,-90 814.5,-94.1 811.53,-97.26 806.6,-99.5"/>
<polygon fill="black" stroke="black" points="796.63,-102.37 804.99,-95.28 801.43,-100.99 806.24,-99.6 806.24,-99.6 806.24,-99.6 801.43,-100.99 807.48,-103.92 796.63,-102.37 796.63,-102.37"/>
</g>
<!-- ragger.navigator&#45;&gt;ragger.navigator.instruction -->
<g id="edge58" class="edge">
<title>ragger.navigator&#45;&gt;ragger.navigator.instruction</title>
<path fill="none" stroke="black" d="M660.3,-90.16C481.08,-89.78 10.5,-101.33 10.5,-233 10.5,-233 10.5,-233 10.5,-667 10.5,-713.27 28.11,-727.43 64.5,-756 83.02,-770.54 105.6,-781.13 128.12,-788.83"/>
<polygon fill="black" stroke="black" points="137.76,-791.95 126.86,-793.15 133,-790.41 128.25,-788.87 128.25,-788.87 128.25,-788.87 133,-790.41 129.63,-784.59 137.76,-791.95 137.76,-791.95"/>
</g>
<!-- ragger.navigator.nano_navigator -->
<g id="node30" class="node">
<title>ragger.navigator.nano_navigator</title>
<polygon fill="#ee8866" stroke="#ee8866" points="1002.5,-324 754.5,-324 754.5,-288 1002.5,-288 1002.5,-324"/>
<text text-anchor="middle" x="878.5" y="-302.3" font-family="Times,serif" font-size="14.00">ragger.navigator.nano_navigator</text>
</g>
<!-- ragger.navigator&#45;&gt;ragger.navigator.nano_navigator -->
<g id="edge59" class="edge">
<title>ragger.navigator&#45;&gt;ragger.navigator.nano_navigator</title>
<path fill="none" stroke="black" d="M740.52,-108.15C766.85,-145.72 829.73,-235.42 860.68,-279.57"/>
<polygon fill="black" stroke="black" points="866.42,-287.77 857,-282.16 863.55,-283.67 860.68,-279.58 860.68,-279.58 860.68,-279.58 863.55,-283.67 864.37,-277 866.42,-287.77 866.42,-287.77"/>
</g>
<!-- ragger.navigator.stax_navigator -->
<g id="node32" class="node">
<title>ragger.navigator.stax_navigator</title>
<polygon fill="#ee8866" stroke="#ee8866" points="750.5,-180 506.5,-180 506.5,-144 750.5,-144 750.5,-180"/>
<text text-anchor="middle" x="628.5" y="-158.3" font-family="Times,serif" font-size="14.00">ragger.navigator.stax_navigator</text>
</g>
<!-- ragger.navigator&#45;&gt;ragger.navigator.stax_navigator -->
<g id="edge60" class="edge">
<title>ragger.navigator&#45;&gt;ragger.navigator.stax_navigator</title>
<path fill="none" stroke="black" d="M704.04,-108.12C691.2,-117.11 675.3,-128.24 661.41,-137.97"/>
<polygon fill="black" stroke="black" points="653.06,-143.81 658.67,-134.39 657.15,-140.94 661.25,-138.08 661.25,-138.08 661.25,-138.08 657.15,-140.94 663.83,-141.76 653.06,-143.81 653.06,-143.81"/>
</g>
<!-- ragger.navigator.nano_navigator&#45;&gt;ragger.backend -->
<g id="edge61" class="edge">
<title>ragger.navigator.nano_navigator&#45;&gt;ragger.backend</title>
<path fill="none" stroke="black" d="M936.57,-324.04C953.73,-332.08 970.56,-343.63 980.5,-360 988.81,-373.68 989.41,-382.71 980.5,-396 967.58,-415.27 946.26,-427.54 924.64,-435.35"/>
<polygon fill="black" stroke="black" points="915.05,-438.53 923.12,-431.11 919.79,-436.96 924.54,-435.39 924.54,-435.39 924.54,-435.39 919.79,-436.96 925.95,-439.66 915.05,-438.53 915.05,-438.53"/>
</g>
<!-- ragger.navigator.nano_navigator&#45;&gt;ragger.firmware -->
<g id="edge62" class="edge">
<title>ragger.navigator.nano_navigator&#45;&gt;ragger.firmware</title>
<path fill="none" stroke="black" d="M911.86,-324.14C925.21,-332.91 939.14,-344.94 946.5,-360 953.52,-374.38 956.56,-383.56 946.5,-396 898.49,-455.38 846.06,-396.42 778.5,-432 661.93,-493.39 638.06,-532.06 575.5,-648 564.72,-667.98 555.99,-692.22 550.22,-710.36"/>
<polygon fill="black" stroke="black" points="547.25,-719.99 545.89,-709.11 548.72,-715.22 550.2,-710.44 550.2,-710.44 550.2,-710.44 548.72,-715.22 554.5,-711.76 547.25,-719.99 547.25,-719.99"/>
</g>
<!-- ragger.navigator.navigator -->
<g id="node31" class="node">
<title>ragger.navigator.navigator</title>
<polygon fill="#ee8866" stroke="#ee8866" points="938,-396 731,-396 731,-360 938,-360 938,-396"/>
<text text-anchor="middle" x="834.5" y="-374.3" font-family="Times,serif" font-size="14.00">ragger.navigator.navigator</text>
</g>
<!-- ragger.navigator.nano_navigator&#45;&gt;ragger.navigator.navigator -->
<g id="edge63" class="edge">
<title>ragger.navigator.nano_navigator&#45;&gt;ragger.navigator.navigator</title>
<path fill="none" stroke="black" d="M867.62,-324.3C862.51,-332.44 856.3,-342.31 850.66,-351.3"/>
<polygon fill="black" stroke="black" points="845.25,-359.9 846.76,-349.03 847.91,-355.66 850.57,-351.43 850.57,-351.43 850.57,-351.43 847.91,-355.66 854.38,-353.82 845.25,-359.9 845.25,-359.9"/>
</g>
<!-- ragger.navigator.navigator&#45;&gt;ragger.backend -->
<g id="edge64" class="edge">
<title>ragger.navigator.navigator&#45;&gt;ragger.backend</title>
<path fill="none" stroke="black" d="M838.7,-396.3C840.6,-404.1 842.88,-413.49 844.98,-422.17"/>
<polygon fill="black" stroke="black" points="847.35,-431.9 840.61,-423.24 846.17,-427.04 844.99,-422.18 844.99,-422.18 844.99,-422.18 846.17,-427.04 849.36,-421.12 847.35,-431.9 847.35,-431.9"/>
</g>
<!-- ragger.navigator.navigator&#45;&gt;ragger.firmware -->
<g id="edge65" class="edge">
<title>ragger.navigator.navigator&#45;&gt;ragger.firmware</title>
<path fill="none" stroke="black" d="M763.79,-396.09C706.14,-413.65 626.91,-446.72 580.5,-504 531.78,-564.12 534.25,-662.29 538.91,-709.69"/>
<polygon fill="black" stroke="black" points="540.01,-719.8 534.45,-710.35 539.47,-714.83 538.93,-709.86 538.93,-709.86 538.93,-709.86 539.47,-714.83 543.4,-709.37 540.01,-719.8 540.01,-719.8"/>
</g>
<!-- ragger.navigator.navigator&#45;&gt;ragger.navigator.instruction -->
<g id="edge66" class="edge">
<title>ragger.navigator.navigator&#45;&gt;ragger.navigator.instruction</title>
<path fill="none" stroke="black" d="M730.88,-395.1C693.13,-403.23 650.83,-415.08 614.5,-432 467.84,-500.3 428.21,-526.4 321.5,-648 285.07,-689.51 257.25,-748.41 243.02,-782.26"/>
<polygon fill="black" stroke="black" points="239.22,-791.51 238.86,-780.55 241.12,-786.89 243.02,-782.26 243.02,-782.26 243.02,-782.26 241.12,-786.89 247.18,-783.98 239.22,-791.51 239.22,-791.51"/>
</g>
<!-- ragger.navigator.navigator&#45;&gt;ragger.utils -->
<g id="edge67" class="edge">
<title>ragger.navigator.navigator&#45;&gt;ragger.utils</title>
<path fill="none" stroke="black" d="M938.26,-381.51C1115.23,-388.63 1456.5,-415.98 1456.5,-521 1456.5,-521 1456.5,-521 1456.5,-595 1456.5,-638.2 1433.5,-683.81 1416.72,-711.34"/>
<polygon fill="black" stroke="black" points="1411.31,-719.96 1412.82,-709.1 1413.97,-715.72 1416.63,-711.49 1416.63,-711.49 1416.63,-711.49 1413.97,-715.72 1420.44,-713.88 1411.31,-719.96 1411.31,-719.96"/>
</g>
<!-- ragger.navigator.stax_navigator&#45;&gt;ragger.backend -->
<g id="edge68" class="edge">
<title>ragger.navigator.stax_navigator&#45;&gt;ragger.backend</title>
<path fill="none" stroke="black" d="M750.78,-167.08C838.96,-177.22 952.45,-206.62 1011.5,-288 1026.05,-308.06 1007.9,-384.87 998.5,-396 980.02,-417.87 951.79,-430.71 924.99,-438.26"/>
<polygon fill="black" stroke="black" points="915.21,-440.8 923.75,-433.93 920.05,-439.55 924.89,-438.29 924.89,-438.29 924.89,-438.29 920.05,-439.55 926.02,-442.64 915.21,-440.8 915.21,-440.8"/>
</g>
<!-- ragger.navigator.stax_navigator&#45;&gt;ragger.firmware -->
<g id="edge69" class="edge">
<title>ragger.navigator.stax_navigator&#45;&gt;ragger.firmware</title>
<path fill="none" stroke="black" d="M506.5,-173.03C357.34,-188.73 124.5,-225.91 124.5,-305 124.5,-305 124.5,-305 124.5,-451 124.5,-586.61 198.22,-627.51 321.5,-684 367.42,-705.04 422.69,-718.3 466.46,-726.28"/>
<polygon fill="black" stroke="black" points="476.47,-728.06 465.84,-730.74 471.55,-727.19 466.63,-726.31 466.63,-726.31 466.63,-726.31 471.55,-727.19 467.41,-721.88 476.47,-728.06 476.47,-728.06"/>
</g>
<!-- ragger.navigator.stax_navigator&#45;&gt;ragger.firmware.stax -->
<g id="edge70" class="edge">
<title>ragger.navigator.stax_navigator&#45;&gt;ragger.firmware.stax</title>
<path fill="none" stroke="black" d="M614.66,-180.3C608.01,-188.61 599.92,-198.72 592.61,-207.86"/>
<polygon fill="black" stroke="black" points="586.18,-215.9 588.92,-205.28 589.31,-211.99 592.43,-208.09 592.43,-208.09 592.43,-208.09 589.31,-211.99 595.94,-210.9 586.18,-215.9 586.18,-215.9"/>
</g>
<!-- ragger.navigator.stax_navigator&#45;&gt;ragger.navigator.instruction -->
<g id="edge71" class="edge">
<title>ragger.navigator.stax_navigator&#45;&gt;ragger.navigator.instruction</title>
<path fill="none" stroke="black" d="M506.48,-167.05C389.37,-172.69 222.05,-185.86 164.5,-216 117.91,-240.4 86.5,-252.4 86.5,-305 86.5,-305 86.5,-305 86.5,-379 86.5,-475.6 48.5,-496.4 48.5,-593 48.5,-593 48.5,-593 48.5,-667 48.5,-728.57 113.87,-767.19 166.68,-788.35"/>
<polygon fill="black" stroke="black" points="176.04,-791.97 165.09,-792.56 171.38,-790.17 166.72,-788.36 166.72,-788.36 166.72,-788.36 171.38,-790.17 168.34,-784.16 176.04,-791.97 176.04,-791.97"/>
</g>
<!-- ragger.navigator.stax_navigator&#45;&gt;ragger.navigator.navigator -->
<g id="edge72" class="edge">
<title>ragger.navigator.stax_navigator&#45;&gt;ragger.navigator.navigator</title>
<path fill="none" stroke="black" d="M640.4,-180.19C667.54,-219.26 732.64,-312.27 745.5,-324 758.48,-335.85 774.52,-346.37 789.39,-354.86"/>
<polygon fill="black" stroke="black" points="798.46,-359.87 787.53,-358.97 794.08,-357.45 789.71,-355.03 789.71,-355.03 789.71,-355.03 794.08,-357.45 791.89,-351.09 798.46,-359.87 798.46,-359.87"/>
</g>
<!-- ragger.utils&#45;&gt;ragger.utils.misc -->
<g id="edge73" class="edge">
<title>ragger.utils&#45;&gt;ragger.utils.misc</title>
<path fill="none" stroke="black" d="M1449.27,-754.02C1483.13,-764.23 1528.3,-777.86 1565.2,-789"/>
<polygon fill="black" stroke="black" points="1574.88,-791.92 1564.01,-793.34 1570.09,-790.47 1565.31,-789.03 1565.31,-789.03 1565.31,-789.03 1570.09,-790.47 1566.61,-784.72 1574.88,-791.92 1574.88,-791.92"/>
</g>
<!-- ragger.utils.packing -->
<g id="node35" class="node">
<title>ragger.utils.packing</title>
<polygon fill="#ffaabb" stroke="#ffaabb" points="1507,-828 1348,-828 1348,-792 1507,-792 1507,-828"/>
<text text-anchor="middle" x="1427.5" y="-806.3" font-family="Times,serif" font-size="14.00">ragger.utils.packing</text>
</g>
<!-- ragger.utils&#45;&gt;ragger.utils.packing -->
<g id="edge74" class="edge">
<title>ragger.utils&#45;&gt;ragger.utils.packing</title>
<path fill="none" stroke="black" d="M1406.42,-756.3C1409.57,-764.19 1413.38,-773.7 1416.88,-782.45"/>
<polygon fill="black" stroke="black" points="1420.66,-791.9 1412.77,-784.28 1418.8,-787.25 1416.94,-782.61 1416.94,-782.61 1416.94,-782.61 1418.8,-787.25 1421.12,-780.94 1420.66,-791.9 1420.66,-791.9"/>
</g>
<!-- ragger.utils&#45;&gt;ragger.utils.structs -->
<g id="edge75" class="edge">
<title>ragger.utils&#45;&gt;ragger.utils.structs</title>
<path fill="none" stroke="black" d="M1363.54,-756.12C1343.62,-765.61 1318.68,-777.49 1297.48,-787.58"/>
<polygon fill="black" stroke="black" points="1288.34,-791.93 1295.44,-783.57 1292.86,-789.78 1297.37,-787.63 1297.37,-787.63 1297.37,-787.63 1292.86,-789.78 1299.31,-791.7 1288.34,-791.93 1288.34,-791.93"/>
</g>
<!-- ragger.utils.misc&#45;&gt;ragger.error -->
<g id="edge76" class="edge">
<title>ragger.utils.misc&#45;&gt;ragger.error</title>
<path fill="none" stroke="black" d="M1643.37,-828.3C1649,-836.53 1655.85,-846.52 1662.07,-855.58"/>
<polygon fill="black" stroke="black" points="1667.77,-863.9 1658.4,-858.19 1664.94,-859.77 1662.12,-855.65 1662.12,-855.65 1662.12,-855.65 1664.94,-859.77 1665.83,-853.1 1667.77,-863.9 1667.77,-863.9"/>
</g>
</g>
</svg>
