<?xml version="1.0" encoding="UTF-8" standalone="no"?>
<!DOCTYPE svg PUBLIC "-//W3C//DTD SVG 1.1//EN"
 "http://www.w3.org/Graphics/SVG/1.1/DTD/svg11.dtd">
<!-- Generated by graphviz version 2.43.0 (0)
 -->
<!-- Title: packages_generated_ragger_architecture Pages: 1 -->
<svg width="2220pt" height="908pt"
 viewBox="0.00 0.00 2219.50 908.00" xmlns="http://www.w3.org/2000/svg" xmlns:xlink="http://www.w3.org/1999/xlink">
<g id="graph0" class="graph" transform="scale(1 1) rotate(0) translate(4 904)">
<title>packages_generated_ragger_architecture</title>
<polygon fill="white" stroke="transparent" points="-4,4 -4,-904 2215.5,-904 2215.5,4 -4,4"/>
<!-- ragger -->
<g id="node1" class="node">
<title>ragger</title>
<polygon fill="#77aadd" stroke="#77aadd" points="106,-828 41,-828 41,-792 106,-792 106,-828"/>
<text text-anchor="middle" x="73.5" y="-806.3" font-family="Times,serif" font-size="14.00">ragger</text>
</g>
<!-- ragger.__version__ -->
<g id="node2" class="node">
<title>ragger.__version__</title>
<polygon fill="#77aadd" stroke="#77aadd" points="147,-900 0,-900 0,-864 147,-864 147,-900"/>
<text text-anchor="middle" x="73.5" y="-878.3" font-family="Times,serif" font-size="14.00">ragger.__version__</text>
</g>
<!-- ragger&#45;&gt;ragger.__version__ -->
<g id="edge1" class="edge">
<title>ragger&#45;&gt;ragger.__version__</title>
<path fill="none" stroke="black" d="M73.5,-828.3C73.5,-836.02 73.5,-845.29 73.5,-853.89"/>
<polygon fill="black" stroke="black" points="73.5,-863.9 69,-853.9 73.5,-858.9 73.5,-853.9 73.5,-853.9 73.5,-853.9 73.5,-858.9 78,-853.9 73.5,-863.9 73.5,-863.9"/>
</g>
<!-- ragger.logger -->
<g id="node27" class="node">
<title>ragger.logger</title>
<polygon fill="#77aadd" stroke="#77aadd" points="484,-900 371,-900 371,-864 484,-864 484,-900"/>
<text text-anchor="middle" x="427.5" y="-878.3" font-family="Times,serif" font-size="14.00">ragger.logger</text>
</g>
<!-- ragger&#45;&gt;ragger.logger -->
<g id="edge2" class="edge">
<title>ragger&#45;&gt;ragger.logger</title>
<path fill="none" stroke="black" d="M106.14,-823.64C110.91,-825.24 115.8,-826.76 120.5,-828 201.97,-849.59 298.01,-864.53 360.69,-872.92"/>
<polygon fill="black" stroke="black" points="370.84,-874.26 360.34,-877.41 365.88,-873.61 360.93,-872.95 360.93,-872.95 360.93,-872.95 365.88,-873.61 361.51,-868.49 370.84,-874.26 370.84,-874.26"/>
</g>
<!-- ragger.backend -->
<g id="node3" class="node">
<title>ragger.backend</title>
<polygon fill="#99ddff" stroke="#99ddff" points="941,-468 814,-468 814,-432 941,-432 941,-468"/>
<text text-anchor="middle" x="877.5" y="-446.3" font-family="Times,serif" font-size="14.00">ragger.backend</text>
</g>
<!-- ragger.backend.interface -->
<g id="node4" class="node">
<title>ragger.backend.interface</title>
<polygon fill="#99ddff" stroke="#99ddff" points="871,-684 676,-684 676,-648 871,-648 871,-684"/>
<text text-anchor="middle" x="773.5" y="-662.3" font-family="Times,serif" font-size="14.00">ragger.backend.interface</text>
</g>
<!-- ragger.backend&#45;&gt;ragger.backend.interface -->
<g id="edge3" class="edge">
<title>ragger.backend&#45;&gt;ragger.backend.interface</title>
<path fill="none" stroke="black" d="M813.76,-464.46C792.51,-472.31 771.06,-484.65 758.5,-504 749.79,-517.42 757.55,-524.03 758.5,-540 760.52,-573.79 765.59,-612.45 769.27,-637.71"/>
<polygon fill="black" stroke="black" points="770.76,-647.67 764.83,-638.44 770.02,-642.72 769.28,-637.78 769.28,-637.78 769.28,-637.78 770.02,-642.72 773.73,-637.11 770.76,-647.67 770.76,-647.67"/>
</g>
<!-- ragger.backend.ledgercomm -->
<g id="node5" class="node">
<title>ragger.backend.ledgercomm</title>
<polygon fill="#99ddff" stroke="#99ddff" points="987.5,-540 767.5,-540 767.5,-504 987.5,-504 987.5,-540"/>
<text text-anchor="middle" x="877.5" y="-518.3" font-family="Times,serif" font-size="14.00">ragger.backend.ledgercomm</text>
</g>
<!-- ragger.backend&#45;&gt;ragger.backend.ledgercomm -->
<g id="edge4" class="edge">
<title>ragger.backend&#45;&gt;ragger.backend.ledgercomm</title>
<path fill="none" stroke="black" d="M877.5,-468.3C877.5,-476.02 877.5,-485.29 877.5,-493.89"/>
<polygon fill="black" stroke="black" points="877.5,-503.9 873,-493.9 877.5,-498.9 877.5,-493.9 877.5,-493.9 877.5,-493.9 877.5,-498.9 882,-493.9 877.5,-503.9 877.5,-503.9"/>
</g>
<!-- ragger.backend.ledgerwallet -->
<g id="node6" class="node">
<title>ragger.backend.ledgerwallet</title>
<polygon fill="#99ddff" stroke="#99ddff" points="1245,-540 1024,-540 1024,-504 1245,-504 1245,-540"/>
<text text-anchor="middle" x="1134.5" y="-518.3" font-family="Times,serif" font-size="14.00">ragger.backend.ledgerwallet</text>
</g>
<!-- ragger.backend&#45;&gt;ragger.backend.ledgerwallet -->
<g id="edge5" class="edge">
<title>ragger.backend&#45;&gt;ragger.backend.ledgerwallet</title>
<path fill="none" stroke="black" d="M940.04,-468.03C976.73,-478.03 1023.26,-490.7 1061.61,-501.15"/>
<polygon fill="black" stroke="black" points="1071.68,-503.89 1060.85,-505.6 1066.85,-502.58 1062.03,-501.26 1062.03,-501.26 1062.03,-501.26 1066.85,-502.58 1063.21,-496.92 1071.68,-503.89 1071.68,-503.89"/>
</g>
<!-- ragger.backend.speculos -->
<g id="node8" class="node">
<title>ragger.backend.speculos</title>
<polygon fill="#99ddff" stroke="#99ddff" points="753,-612 560,-612 560,-576 753,-576 753,-612"/>
<text text-anchor="middle" x="656.5" y="-590.3" font-family="Times,serif" font-size="14.00">ragger.backend.speculos</text>
</g>
<!-- ragger.backend&#45;&gt;ragger.backend.speculos -->
<g id="edge6" class="edge">
<title>ragger.backend&#45;&gt;ragger.backend.speculos</title>
<path fill="none" stroke="black" d="M813.71,-464.45C784.92,-472.64 751.59,-485.24 725.5,-504 702.34,-520.65 683.17,-547.23 670.96,-567.01"/>
<polygon fill="black" stroke="black" points="665.7,-575.83 666.96,-564.94 668.26,-571.54 670.82,-567.25 670.82,-567.25 670.82,-567.25 668.26,-571.54 674.69,-569.55 665.7,-575.83 665.7,-575.83"/>
</g>
<!-- ragger.backend.stub -->
<g id="node9" class="node">
<title>ragger.backend.stub</title>
<polygon fill="#99ddff" stroke="#99ddff" points="542,-612 379,-612 379,-576 542,-576 542,-612"/>
<text text-anchor="middle" x="460.5" y="-590.3" font-family="Times,serif" font-size="14.00">ragger.backend.stub</text>
</g>
<!-- ragger.backend&#45;&gt;ragger.backend.stub -->
<g id="edge7" class="edge">
<title>ragger.backend&#45;&gt;ragger.backend.stub</title>
<path fill="none" stroke="black" d="M813.68,-467.07C776.57,-476.84 729.07,-490.09 687.5,-504 625.47,-524.75 555.63,-552.87 510,-571.91"/>
<polygon fill="black" stroke="black" points="500.64,-575.83 508.13,-567.82 505.25,-573.9 509.86,-571.97 509.86,-571.97 509.86,-571.97 505.25,-573.9 511.6,-576.12 500.64,-575.83 500.64,-575.83"/>
</g>
<!-- ragger.firmware -->
<g id="node17" class="node">
<title>ragger.firmware</title>
<polygon fill="#aaaa00" stroke="#aaaa00" points="1422.5,-756 1290.5,-756 1290.5,-720 1422.5,-720 1422.5,-756"/>
<text text-anchor="middle" x="1356.5" y="-734.3" font-family="Times,serif" font-size="14.00">ragger.firmware</text>
</g>
<!-- ragger.backend.interface&#45;&gt;ragger.firmware -->
<g id="edge8" class="edge">
<title>ragger.backend.interface&#45;&gt;ragger.firmware</title>
<path fill="none" stroke="black" d="M871.15,-682.71C874.3,-683.15 877.42,-683.58 880.5,-684 1021.22,-703 1186.02,-720.24 1280.15,-729.61"/>
<polygon fill="black" stroke="black" points="1290.16,-730.6 1279.76,-734.09 1285.18,-730.11 1280.21,-729.61 1280.21,-729.61 1280.21,-729.61 1285.18,-730.11 1280.65,-725.13 1290.16,-730.6 1290.16,-730.6"/>
</g>
<!-- ragger.backend.interface&#45;&gt;ragger.logger -->
<g id="edge9" class="edge">
<title>ragger.backend.interface&#45;&gt;ragger.logger</title>
<path fill="none" stroke="black" d="M675.9,-684C601.16,-697.36 509.64,-714.57 502.5,-720 459.05,-753.04 439.83,-817.37 432.1,-853.92"/>
<polygon fill="black" stroke="black" points="430.14,-863.87 427.66,-853.19 431.11,-858.97 432.08,-854.06 432.08,-854.06 432.08,-854.06 431.11,-858.97 436.49,-854.93 430.14,-863.87 430.14,-863.87"/>
</g>
<!-- ragger.utils -->
<g id="node33" class="node">
<title>ragger.utils</title>
<polygon fill="#ffaabb" stroke="#ffaabb" points="1062,-756 963,-756 963,-720 1062,-720 1062,-756"/>
<text text-anchor="middle" x="1012.5" y="-734.3" font-family="Times,serif" font-size="14.00">ragger.utils</text>
</g>
<!-- ragger.backend.interface&#45;&gt;ragger.utils -->
<g id="edge10" class="edge">
<title>ragger.backend.interface&#45;&gt;ragger.utils</title>
<path fill="none" stroke="black" d="M831.66,-684.03C868.57,-694.84 916.19,-708.79 953.3,-719.66"/>
<polygon fill="black" stroke="black" points="962.98,-722.5 952.12,-724 958.18,-721.09 953.39,-719.69 953.39,-719.69 953.39,-719.69 958.18,-721.09 954.65,-715.37 962.98,-722.5 962.98,-722.5"/>
</g>
<!-- ragger.backend.ledgercomm&#45;&gt;ragger.backend.ledgercomm -->
<g id="edge11" class="edge">
<title>ragger.backend.ledgercomm&#45;&gt;ragger.backend.ledgercomm</title>
<path fill="none" stroke="black" d="M987.65,-510.99C998.56,-513.2 1005.5,-516.87 1005.5,-522 1005.5,-525.37 1002.51,-528.11 997.37,-530.21"/>
<polygon fill="black" stroke="black" points="987.65,-533.01 996.02,-525.92 992.46,-531.63 997.26,-530.25 997.26,-530.25 997.26,-530.25 992.46,-531.63 998.51,-534.57 987.65,-533.01 987.65,-533.01"/>
</g>
<!-- ragger.backend.physical_backend -->
<g id="node7" class="node">
<title>ragger.backend.physical_backend</title>
<polygon fill="#99ddff" stroke="#99ddff" points="1065.5,-612 809.5,-612 809.5,-576 1065.5,-576 1065.5,-612"/>
<text text-anchor="middle" x="937.5" y="-590.3" font-family="Times,serif" font-size="14.00">ragger.backend.physical_backend</text>
</g>
<!-- ragger.backend.ledgercomm&#45;&gt;ragger.backend.physical_backend -->
<g id="edge12" class="edge">
<title>ragger.backend.ledgercomm&#45;&gt;ragger.backend.physical_backend</title>
<path fill="none" stroke="black" d="M892.33,-540.3C899.52,-548.7 908.3,-558.93 916.19,-568.14"/>
<polygon fill="black" stroke="black" points="922.84,-575.9 912.91,-571.23 919.59,-572.1 916.33,-568.3 916.33,-568.3 916.33,-568.3 919.59,-572.1 919.75,-565.37 922.84,-575.9 922.84,-575.9"/>
</g>
<!-- ragger.error -->
<g id="node16" class="node">
<title>ragger.error</title>
<polygon fill="#77aadd" stroke="#77aadd" points="1122.5,-900 1018.5,-900 1018.5,-864 1122.5,-864 1122.5,-900"/>
<text text-anchor="middle" x="1070.5" y="-878.3" font-family="Times,serif" font-size="14.00">ragger.error</text>
</g>
<!-- ragger.backend.ledgercomm&#45;&gt;ragger.error -->
<g id="edge13" class="edge">
<title>ragger.backend.ledgercomm&#45;&gt;ragger.error</title>
<path fill="none" stroke="black" d="M767.33,-526.8C625.93,-532.83 395.62,-547.02 369.5,-576 358.79,-587.89 361.21,-598.32 369.5,-612 405.36,-671.16 442.51,-660.29 507.5,-684 576.79,-709.28 612.41,-673.3 669.5,-720 710.16,-753.26 675.71,-796.18 717.5,-828 762.02,-861.9 919.41,-874.35 1008.26,-878.74"/>
<polygon fill="black" stroke="black" points="1018.48,-879.22 1008.28,-883.24 1013.48,-878.99 1008.49,-878.75 1008.49,-878.75 1008.49,-878.75 1013.48,-878.99 1008.7,-874.25 1018.48,-879.22 1018.48,-879.22"/>
</g>
<!-- ragger.backend.ledgercomm&#45;&gt;ragger.firmware -->
<g id="edge14" class="edge">
<title>ragger.backend.ledgercomm&#45;&gt;ragger.firmware</title>
<path fill="none" stroke="black" d="M972.44,-540.03C1010.3,-548.48 1053.78,-560.3 1091.5,-576 1181.99,-613.66 1277.81,-679.19 1325.6,-713.89"/>
<polygon fill="black" stroke="black" points="1333.68,-719.8 1322.95,-717.53 1329.64,-716.85 1325.61,-713.9 1325.61,-713.9 1325.61,-713.9 1329.64,-716.85 1328.26,-710.27 1333.68,-719.8 1333.68,-719.8"/>
</g>
<!-- ragger.backend.ledgercomm&#45;&gt;ragger.utils -->
<g id="edge15" class="edge">
<title>ragger.backend.ledgercomm&#45;&gt;ragger.utils</title>
<path fill="none" stroke="black" d="M985.35,-540.03C1024.78,-548.63 1062.68,-560.57 1074.5,-576 1084.23,-588.7 1078.15,-596.42 1074.5,-612 1072.09,-622.3 1044.08,-676.79 1026.54,-710.33"/>
<polygon fill="black" stroke="black" points="1021.69,-719.59 1022.35,-708.65 1024.01,-715.16 1026.33,-710.73 1026.33,-710.73 1026.33,-710.73 1024.01,-715.16 1030.32,-712.82 1021.69,-719.59 1021.69,-719.59"/>
</g>
<!-- ragger.backend.ledgerwallet&#45;&gt;ragger.backend.physical_backend -->
<g id="edge16" class="edge">
<title>ragger.backend.ledgerwallet&#45;&gt;ragger.backend.physical_backend</title>
<path fill="none" stroke="black" d="M1086.56,-540.03C1059.03,-549.81 1024.28,-562.16 995.26,-572.48"/>
<polygon fill="black" stroke="black" points="985.65,-575.89 993.57,-568.3 990.37,-574.22 995.08,-572.54 995.08,-572.54 995.08,-572.54 990.37,-574.22 996.58,-576.78 985.65,-575.89 985.65,-575.89"/>
</g>
<!-- ragger.backend.ledgerwallet&#45;&gt;ragger.error -->
<g id="edge17" class="edge">
<title>ragger.backend.ledgerwallet&#45;&gt;ragger.error</title>
<path fill="none" stroke="black" d="M1157.67,-540.13C1187.49,-564.34 1235.5,-611.6 1235.5,-665 1235.5,-665 1235.5,-665 1235.5,-739 1235.5,-797.82 1174.52,-837.6 1126.71,-859.75"/>
<polygon fill="black" stroke="black" points="1117.34,-863.95 1124.63,-855.75 1121.9,-861.91 1126.47,-859.86 1126.47,-859.86 1126.47,-859.86 1121.9,-861.91 1128.31,-863.97 1117.34,-863.95 1117.34,-863.95"/>
</g>
<!-- ragger.backend.ledgerwallet&#45;&gt;ragger.firmware -->
<g id="edge18" class="edge">
<title>ragger.backend.ledgerwallet&#45;&gt;ragger.firmware</title>
<path fill="none" stroke="black" d="M1186.99,-540.06C1207.96,-548.6 1231.38,-560.49 1249.5,-576 1294.24,-614.31 1327.93,-675.76 1344.69,-710.62"/>
<polygon fill="black" stroke="black" points="1348.96,-719.7 1340.63,-712.57 1346.83,-715.18 1344.7,-710.65 1344.7,-710.65 1344.7,-710.65 1346.83,-715.18 1348.78,-708.74 1348.96,-719.7 1348.96,-719.7"/>
</g>
<!-- ragger.backend.ledgerwallet&#45;&gt;ragger.utils -->
<g id="edge19" class="edge">
<title>ragger.backend.ledgerwallet&#45;&gt;ragger.utils</title>
<path fill="none" stroke="black" d="M1130.85,-540.28C1126.61,-558.63 1118.74,-588.2 1107.5,-612 1091.07,-646.78 1082.98,-653.54 1059.5,-684 1052.14,-693.55 1043.53,-703.55 1035.7,-712.26"/>
<polygon fill="black" stroke="black" points="1028.79,-719.85 1032.2,-709.43 1032.16,-716.15 1035.52,-712.46 1035.52,-712.46 1035.52,-712.46 1032.16,-716.15 1038.85,-715.49 1028.79,-719.85 1028.79,-719.85"/>
</g>
<!-- ragger.backend.physical_backend&#45;&gt;ragger.backend.interface -->
<g id="edge20" class="edge">
<title>ragger.backend.physical_backend&#45;&gt;ragger.backend.interface</title>
<path fill="none" stroke="black" d="M897.38,-612.12C874.86,-621.74 846.58,-633.81 822.73,-643.99"/>
<polygon fill="black" stroke="black" points="813.49,-647.93 820.92,-639.87 818.09,-645.97 822.69,-644.01 822.69,-644.01 822.69,-644.01 818.09,-645.97 824.45,-648.14 813.49,-647.93 813.49,-647.93"/>
</g>
<!-- ragger.backend.physical_backend&#45;&gt;ragger.firmware -->
<g id="edge21" class="edge">
<title>ragger.backend.physical_backend&#45;&gt;ragger.firmware</title>
<path fill="none" stroke="black" d="M1030.31,-612.11C1064.42,-620.38 1102.7,-632.05 1135.5,-648 1159.48,-659.66 1159.73,-671.91 1183.5,-684 1213.82,-699.42 1249.44,-711.27 1280.46,-719.82"/>
<polygon fill="black" stroke="black" points="1290.35,-722.48 1279.53,-724.23 1285.52,-721.19 1280.69,-719.89 1280.69,-719.89 1280.69,-719.89 1285.52,-721.19 1281.86,-715.54 1290.35,-722.48 1290.35,-722.48"/>
</g>
<!-- ragger.gui -->
<g id="node24" class="node">
<title>ragger.gui</title>
<polygon fill="#eedd88" stroke="#eedd88" points="979.5,-684 889.5,-684 889.5,-648 979.5,-648 979.5,-684"/>
<text text-anchor="middle" x="934.5" y="-662.3" font-family="Times,serif" font-size="14.00">ragger.gui</text>
</g>
<!-- ragger.backend.physical_backend&#45;&gt;ragger.gui -->
<g id="edge22" class="edge">
<title>ragger.backend.physical_backend&#45;&gt;ragger.gui</title>
<path fill="none" stroke="black" d="M936.76,-612.3C936.43,-620.02 936.03,-629.29 935.66,-637.89"/>
<polygon fill="black" stroke="black" points="935.23,-647.9 931.17,-637.71 935.45,-642.9 935.66,-637.9 935.66,-637.9 935.66,-637.9 935.45,-642.9 940.16,-638.1 935.23,-647.9 935.23,-647.9"/>
</g>
<!-- ragger.navigator.instruction -->
<g id="node29" class="node">
<title>ragger.navigator.instruction</title>
<polygon fill="#ee8866" stroke="#ee8866" points="380,-828 163,-828 163,-792 380,-792 380,-828"/>
<text text-anchor="middle" x="271.5" y="-806.3" font-family="Times,serif" font-size="14.00">ragger.navigator.instruction</text>
</g>
<!-- ragger.backend.physical_backend&#45;&gt;ragger.navigator.instruction -->
<g id="edge23" class="edge">
<title>ragger.backend.physical_backend&#45;&gt;ragger.navigator.instruction</title>
<path fill="none" stroke="black" d="M830.43,-612.02C780.24,-620.99 719.86,-633.22 666.5,-648 575.86,-673.1 554.61,-684.53 467.5,-720 414.79,-741.46 355.43,-768.89 315.99,-787.58"/>
<polygon fill="black" stroke="black" points="306.9,-791.9 314,-783.55 311.41,-789.76 315.93,-787.61 315.93,-787.61 315.93,-787.61 311.41,-789.76 317.86,-791.67 306.9,-791.9 306.9,-791.9"/>
</g>
<!-- ragger.backend.physical_backend&#45;&gt;ragger.utils -->
<g id="edge24" class="edge">
<title>ragger.backend.physical_backend&#45;&gt;ragger.utils</title>
<path fill="none" stroke="black" d="M958.49,-612.22C968.89,-621.77 980.83,-634.44 988.5,-648 999.37,-667.21 1005.49,-691.56 1008.83,-709.93"/>
<polygon fill="black" stroke="black" points="1010.49,-719.97 1004.42,-710.84 1009.67,-715.04 1008.86,-710.1 1008.86,-710.1 1008.86,-710.1 1009.67,-715.04 1013.3,-709.37 1010.49,-719.97 1010.49,-719.97"/>
</g>
<!-- ragger.backend.speculos&#45;&gt;ragger.backend.interface -->
<g id="edge25" class="edge">
<title>ragger.backend.speculos&#45;&gt;ragger.backend.interface</title>
<path fill="none" stroke="black" d="M685.12,-612.12C700.42,-621.28 719.44,-632.66 735.92,-642.52"/>
<polygon fill="black" stroke="black" points="744.77,-647.81 733.88,-646.54 740.48,-645.24 736.19,-642.68 736.19,-642.68 736.19,-642.68 740.48,-645.24 738.5,-638.81 744.77,-647.81 744.77,-647.81"/>
</g>
<!-- ragger.backend.speculos&#45;&gt;ragger.error -->
<g id="edge26" class="edge">
<title>ragger.backend.speculos&#45;&gt;ragger.error</title>
<path fill="none" stroke="black" d="M648.96,-612.04C641.72,-631.27 633.86,-662.63 648.5,-684 673.55,-720.56 700.87,-702.29 741.5,-720 808.56,-749.23 829.64,-749.96 889.5,-792 908.28,-805.19 907.09,-815.77 926.5,-828 951.69,-843.87 982.34,-855.99 1008.87,-864.6"/>
<polygon fill="black" stroke="black" points="1018.44,-867.62 1007.55,-868.9 1013.67,-866.11 1008.91,-864.61 1008.91,-864.61 1008.91,-864.61 1013.67,-866.11 1010.26,-860.32 1018.44,-867.62 1018.44,-867.62"/>
</g>
<!-- ragger.backend.speculos&#45;&gt;ragger.firmware -->
<g id="edge27" class="edge">
<title>ragger.backend.speculos&#45;&gt;ragger.firmware</title>
<path fill="none" stroke="black" d="M753.12,-608.29C819.56,-617.95 909.69,-632.09 988.5,-648 1054.43,-661.31 1070.13,-668.16 1135.5,-684 1183.7,-695.68 1237.86,-708.67 1280.49,-718.87"/>
<polygon fill="black" stroke="black" points="1290.24,-721.2 1279.46,-723.25 1285.37,-720.03 1280.51,-718.87 1280.51,-718.87 1280.51,-718.87 1285.37,-720.03 1281.56,-714.49 1290.24,-721.2 1290.24,-721.2"/>
</g>
<!-- ragger.backend.speculos&#45;&gt;ragger.logger -->
<g id="edge28" class="edge">
<title>ragger.backend.speculos&#45;&gt;ragger.logger</title>
<path fill="none" stroke="black" d="M616.14,-612.08C573.49,-632.06 507.05,-669.03 467.5,-720 446.03,-747.67 444.3,-758.1 435.5,-792 430.21,-812.37 428.28,-836.13 427.64,-853.98"/>
<polygon fill="black" stroke="black" points="427.39,-863.99 423.14,-853.88 427.51,-858.99 427.64,-853.99 427.64,-853.99 427.64,-853.99 427.51,-858.99 432.14,-854.1 427.39,-863.99 427.39,-863.99"/>
</g>
<!-- ragger.backend.speculos&#45;&gt;ragger.utils -->
<g id="edge29" class="edge">
<title>ragger.backend.speculos&#45;&gt;ragger.utils</title>
<path fill="none" stroke="black" d="M652.87,-612.28C649.77,-632.33 648.3,-665.05 666.5,-684 676.34,-694.24 856.31,-717.79 952.69,-729.75"/>
<polygon fill="black" stroke="black" points="962.88,-731.01 952.41,-734.24 957.92,-730.39 952.96,-729.78 952.96,-729.78 952.96,-729.78 957.92,-730.39 953.51,-725.31 962.88,-731.01 962.88,-731.01"/>
</g>
<!-- ragger.backend.stub&#45;&gt;ragger.backend.interface -->
<g id="edge30" class="edge">
<title>ragger.backend.stub&#45;&gt;ragger.backend.interface</title>
<path fill="none" stroke="black" d="M536.67,-612.03C582.2,-622.22 640.17,-635.18 687.36,-645.74"/>
<polygon fill="black" stroke="black" points="697.26,-647.95 686.52,-650.16 692.38,-646.86 687.5,-645.77 687.5,-645.77 687.5,-645.77 692.38,-646.86 688.49,-641.38 697.26,-647.95 697.26,-647.95"/>
</g>
<!-- ragger.utils.structs -->
<g id="node36" class="node">
<title>ragger.utils.structs</title>
<polygon fill="#ffaabb" stroke="#ffaabb" points="880.5,-828 726.5,-828 726.5,-792 880.5,-792 880.5,-828"/>
<text text-anchor="middle" x="803.5" y="-806.3" font-family="Times,serif" font-size="14.00">ragger.utils.structs</text>
</g>
<!-- ragger.backend.stub&#45;&gt;ragger.utils.structs -->
<g id="edge31" class="edge">
<title>ragger.backend.stub&#45;&gt;ragger.utils.structs</title>
<path fill="none" stroke="black" d="M474.58,-612.14C492.14,-632.37 524.05,-665.57 558.5,-684 616.67,-715.11 644.1,-689.32 702.5,-720 733.55,-736.31 762.91,-764.08 781.88,-784.28"/>
<polygon fill="black" stroke="black" points="788.87,-791.87 778.79,-787.56 785.49,-788.19 782.1,-784.51 782.1,-784.51 782.1,-784.51 785.49,-788.19 785.41,-781.47 788.87,-791.87 788.87,-791.87"/>
</g>
<!-- ragger.bip -->
<g id="node10" class="node">
<title>ragger.bip</title>
<polygon fill="#44bb99" stroke="#44bb99" points="1825.5,-36 1735.5,-36 1735.5,0 1825.5,0 1825.5,-36"/>
<text text-anchor="middle" x="1780.5" y="-14.3" font-family="Times,serif" font-size="14.00">ragger.bip</text>
</g>
<!-- ragger.bip.path -->
<g id="node11" class="node">
<title>ragger.bip.path</title>
<polygon fill="#44bb99" stroke="#44bb99" points="1771,-108 1644,-108 1644,-72 1771,-72 1771,-108"/>
<text text-anchor="middle" x="1707.5" y="-86.3" font-family="Times,serif" font-size="14.00">ragger.bip.path</text>
</g>
<!-- ragger.bip&#45;&gt;ragger.bip.path -->
<g id="edge32" class="edge">
<title>ragger.bip&#45;&gt;ragger.bip.path</title>
<path fill="none" stroke="black" d="M1762.46,-36.3C1753.44,-44.95 1742.38,-55.55 1732.56,-64.97"/>
<polygon fill="black" stroke="black" points="1725.34,-71.9 1729.44,-61.73 1728.95,-68.44 1732.56,-64.97 1732.56,-64.97 1732.56,-64.97 1728.95,-68.44 1735.67,-68.22 1725.34,-71.9 1725.34,-71.9"/>
</g>
<!-- ragger.bip.seed -->
<g id="node12" class="node">
<title>ragger.bip.seed</title>
<polygon fill="#44bb99" stroke="#44bb99" points="1917.5,-108 1789.5,-108 1789.5,-72 1917.5,-72 1917.5,-108"/>
<text text-anchor="middle" x="1853.5" y="-86.3" font-family="Times,serif" font-size="14.00">ragger.bip.seed</text>
</g>
<!-- ragger.bip&#45;&gt;ragger.bip.seed -->
<g id="edge33" class="edge">
<title>ragger.bip&#45;&gt;ragger.bip.seed</title>
<path fill="none" stroke="black" d="M1798.54,-36.3C1807.56,-44.95 1818.62,-55.55 1828.44,-64.97"/>
<polygon fill="black" stroke="black" points="1835.66,-71.9 1825.33,-68.22 1832.05,-68.44 1828.44,-64.97 1828.44,-64.97 1828.44,-64.97 1832.05,-68.44 1831.56,-61.73 1835.66,-71.9 1835.66,-71.9"/>
</g>
<!-- ragger.conftest -->
<g id="node13" class="node">
<title>ragger.conftest</title>
<polygon fill="#bbcc33" stroke="#bbcc33" points="1969,-36 1844,-36 1844,0 1969,0 1969,-36"/>
<text text-anchor="middle" x="1906.5" y="-14.3" font-family="Times,serif" font-size="14.00">ragger.conftest</text>
</g>
<!-- ragger.conftest.base_conftest -->
<g id="node14" class="node">
<title>ragger.conftest.base_conftest</title>
<polygon fill="#bbcc33" stroke="#bbcc33" points="980,-36 753,-36 753,0 980,0 980,-36"/>
<text text-anchor="middle" x="866.5" y="-14.3" font-family="Times,serif" font-size="14.00">ragger.conftest.base_conftest</text>
</g>
<!-- ragger.conftest.base_conftest&#45;&gt;ragger.backend -->
<g id="edge34" class="edge">
<title>ragger.conftest.base_conftest&#45;&gt;ragger.backend</title>
<path fill="none" stroke="black" d="M862.66,-36.39C857.1,-63.06 847.5,-115.73 847.5,-161 847.5,-161 847.5,-161 847.5,-307 847.5,-347.84 859.53,-393.89 868.35,-422.18"/>
<polygon fill="black" stroke="black" points="871.43,-431.76 864.09,-423.62 869.9,-427 868.37,-422.24 868.37,-422.24 868.37,-422.24 869.9,-427 872.65,-420.86 871.43,-431.76 871.43,-431.76"/>
</g>
<!-- ragger.conftest.base_conftest&#45;&gt;ragger.firmware -->
<g id="edge35" class="edge">
<title>ragger.conftest.base_conftest&#45;&gt;ragger.firmware</title>
<path fill="none" stroke="black" d="M980.34,-18.56C1181.2,-20.88 1577.5,-40.71 1577.5,-161 1577.5,-161 1577.5,-161 1577.5,-595 1577.5,-639.53 1565.73,-655.52 1531.5,-684 1503.74,-707.09 1466.11,-720.13 1432.85,-727.48"/>
<polygon fill="black" stroke="black" points="1422.69,-729.59 1431.57,-723.15 1427.58,-728.57 1432.48,-727.56 1432.48,-727.56 1432.48,-727.56 1427.58,-728.57 1433.39,-731.97 1422.69,-729.59 1422.69,-729.59"/>
</g>
<!-- ragger.conftest.base_conftest&#45;&gt;ragger.logger -->
<g id="edge36" class="edge">
<title>ragger.conftest.base_conftest&#45;&gt;ragger.logger</title>
<path fill="none" stroke="black" d="M752.93,-29.46C547.32,-49.93 134.5,-98.78 134.5,-161 134.5,-161 134.5,-161 134.5,-739 134.5,-779.45 124.63,-799.68 153.5,-828 182.22,-856.17 289,-870.1 360.47,-876.41"/>
<polygon fill="black" stroke="black" points="370.74,-877.28 360.39,-880.92 365.76,-876.86 360.78,-876.43 360.78,-876.43 360.78,-876.43 365.76,-876.86 361.16,-871.95 370.74,-877.28 370.74,-877.28"/>
</g>
<!-- ragger.navigator -->
<g id="node28" class="node">
<title>ragger.navigator</title>
<polygon fill="#ee8866" stroke="#ee8866" points="629.5,-108 493.5,-108 493.5,-72 629.5,-72 629.5,-108"/>
<text text-anchor="middle" x="561.5" y="-86.3" font-family="Times,serif" font-size="14.00">ragger.navigator</text>
</g>
<!-- ragger.conftest.base_conftest&#45;&gt;ragger.navigator -->
<g id="edge37" class="edge">
<title>ragger.conftest.base_conftest&#45;&gt;ragger.navigator</title>
<path fill="none" stroke="black" d="M792.28,-36.03C745.94,-46.67 686.37,-60.34 639.36,-71.13"/>
<polygon fill="black" stroke="black" points="629.52,-73.39 638.26,-66.76 634.4,-72.27 639.27,-71.15 639.27,-71.15 639.27,-71.15 634.4,-72.27 640.28,-75.54 629.52,-73.39 629.52,-73.39"/>
</g>
<!-- ragger.conftest.base_conftest&#45;&gt;ragger.utils -->
<g id="edge38" class="edge">
<title>ragger.conftest.base_conftest&#45;&gt;ragger.utils</title>
<path fill="none" stroke="black" d="M870.34,-36.39C875.9,-63.06 885.5,-115.73 885.5,-161 885.5,-161 885.5,-161 885.5,-307 885.5,-353.97 906.9,-365.35 942.5,-396 1001.9,-447.14 1029.29,-442.75 1103.5,-468 1168.4,-490.09 1211.05,-450.16 1253.5,-504 1322.06,-590.96 1155.58,-677.36 1065.57,-716"/>
<polygon fill="black" stroke="black" points="1056.31,-719.92 1063.77,-711.88 1060.92,-717.97 1065.52,-716.02 1065.52,-716.02 1065.52,-716.02 1060.92,-717.97 1067.28,-720.17 1056.31,-719.92 1056.31,-719.92"/>
</g>
<!-- ragger.utils.misc -->
<g id="node34" class="node">
<title>ragger.utils.misc</title>
<polygon fill="#ffaabb" stroke="#ffaabb" points="1605,-828 1468,-828 1468,-792 1605,-792 1605,-828"/>
<text text-anchor="middle" x="1536.5" y="-806.3" font-family="Times,serif" font-size="14.00">ragger.utils.misc</text>
</g>
<!-- ragger.conftest.base_conftest&#45;&gt;ragger.utils.misc -->
<g id="edge39" class="edge">
<title>ragger.conftest.base_conftest&#45;&gt;ragger.utils.misc</title>
<path fill="none" stroke="black" d="M980.28,-19.18C1141.6,-20.96 1427.66,-30.16 1521.5,-72 1574.05,-95.43 1615.5,-103.47 1615.5,-161 1615.5,-161 1615.5,-161 1615.5,-667 1615.5,-712.76 1583.78,-757.55 1560.54,-784.22"/>
<polygon fill="black" stroke="black" points="1553.64,-791.89 1556.98,-781.45 1556.98,-788.17 1560.32,-784.45 1560.32,-784.45 1560.32,-784.45 1556.98,-788.17 1563.67,-787.46 1553.64,-791.89 1553.64,-791.89"/>
</g>
<!-- ragger.conftest.configuration -->
<g id="node15" class="node">
<title>ragger.conftest.configuration</title>
<polygon fill="#bbcc33" stroke="#bbcc33" points="2211.5,-36 1987.5,-36 1987.5,0 2211.5,0 2211.5,-36"/>
<text text-anchor="middle" x="2099.5" y="-14.3" font-family="Times,serif" font-size="14.00">ragger.conftest.configuration</text>
</g>
<!-- ragger.firmware.structs -->
<g id="node23" class="node">
<title>ragger.firmware.structs</title>
<polygon fill="#aaaa00" stroke="#aaaa00" points="1450,-828 1263,-828 1263,-792 1450,-792 1450,-828"/>
<text text-anchor="middle" x="1356.5" y="-806.3" font-family="Times,serif" font-size="14.00">ragger.firmware.structs</text>
</g>
<!-- ragger.firmware&#45;&gt;ragger.firmware.structs -->
<g id="edge40" class="edge">
<title>ragger.firmware&#45;&gt;ragger.firmware.structs</title>
<path fill="none" stroke="black" d="M1356.5,-756.3C1356.5,-764.02 1356.5,-773.29 1356.5,-781.89"/>
<polygon fill="black" stroke="black" points="1356.5,-791.9 1352,-781.9 1356.5,-786.9 1356.5,-781.9 1356.5,-781.9 1356.5,-781.9 1356.5,-786.9 1361,-781.9 1356.5,-791.9 1356.5,-791.9"/>
</g>
<!-- ragger.firmware.stax -->
<g id="node18" class="node">
<title>ragger.firmware.stax</title>
<polygon fill="#aaaa00" stroke="#aaaa00" points="741,-252 574,-252 574,-216 741,-216 741,-252"/>
<text text-anchor="middle" x="657.5" y="-230.3" font-family="Times,serif" font-size="14.00">ragger.firmware.stax</text>
</g>
<!-- ragger.firmware.stax.screen -->
<g id="node21" class="node">
<title>ragger.firmware.stax.screen</title>
<polygon fill="#aaaa00" stroke="#aaaa00" points="1172.5,-324 954.5,-324 954.5,-288 1172.5,-288 1172.5,-324"/>
<text text-anchor="middle" x="1063.5" y="-302.3" font-family="Times,serif" font-size="14.00">ragger.firmware.stax.screen</text>
</g>
<!-- ragger.firmware.stax&#45;&gt;ragger.firmware.stax.screen -->
<g id="edge41" class="edge">
<title>ragger.firmware.stax&#45;&gt;ragger.firmware.stax.screen</title>
<path fill="none" stroke="black" d="M741.13,-249.42C802.84,-260.06 887.38,-274.64 954.41,-286.19"/>
<polygon fill="black" stroke="black" points="964.58,-287.95 953.97,-290.68 959.66,-287.1 954.73,-286.25 954.73,-286.25 954.73,-286.25 959.66,-287.1 955.49,-281.81 964.58,-287.95 964.58,-287.95"/>
</g>
<!-- ragger.firmware.stax.layouts -->
<g id="node19" class="node">
<title>ragger.firmware.stax.layouts</title>
<polygon fill="#aaaa00" stroke="#aaaa00" points="1175,-396 952,-396 952,-360 1175,-360 1175,-396"/>
<text text-anchor="middle" x="1063.5" y="-374.3" font-family="Times,serif" font-size="14.00">ragger.firmware.stax.layouts</text>
</g>
<!-- ragger.firmware.stax.layouts&#45;&gt;ragger.backend -->
<g id="edge42" class="edge">
<title>ragger.firmware.stax.layouts&#45;&gt;ragger.backend</title>
<path fill="none" stroke="black" d="M1018,-396.12C992.12,-405.86 959.53,-418.13 932.26,-428.39"/>
<polygon fill="black" stroke="black" points="922.85,-431.93 930.63,-424.2 927.53,-430.17 932.21,-428.41 932.21,-428.41 932.21,-428.41 927.53,-430.17 933.8,-432.62 922.85,-431.93 922.85,-431.93"/>
</g>
<!-- ragger.firmware.stax.layouts&#45;&gt;ragger.firmware -->
<g id="edge43" class="edge">
<title>ragger.firmware.stax.layouts&#45;&gt;ragger.firmware</title>
<path fill="none" stroke="black" d="M1075.55,-396.05C1090.96,-416.5 1119.62,-450.24 1152.5,-468 1221.6,-505.33 1262.75,-456.77 1325.5,-504 1388.36,-551.31 1374.12,-659.5 1363.26,-710.05"/>
<polygon fill="black" stroke="black" points="1361.02,-719.92 1358.85,-709.17 1362.13,-715.04 1363.23,-710.17 1363.23,-710.17 1363.23,-710.17 1362.13,-715.04 1367.62,-711.16 1361.02,-719.92 1361.02,-719.92"/>
</g>
<!-- ragger.firmware.stax.positions -->
<g id="node20" class="node">
<title>ragger.firmware.stax.positions</title>
<polygon fill="#aaaa00" stroke="#aaaa00" points="1397.5,-468 1161.5,-468 1161.5,-432 1397.5,-432 1397.5,-468"/>
<text text-anchor="middle" x="1279.5" y="-446.3" font-family="Times,serif" font-size="14.00">ragger.firmware.stax.positions</text>
</g>
<!-- ragger.firmware.stax.layouts&#45;&gt;ragger.firmware.stax.positions -->
<g id="edge44" class="edge">
<title>ragger.firmware.stax.layouts&#45;&gt;ragger.firmware.stax.positions</title>
<path fill="none" stroke="black" d="M1116.06,-396.03C1146.51,-405.9 1185.01,-418.38 1217,-428.75"/>
<polygon fill="black" stroke="black" points="1226.7,-431.89 1215.8,-433.09 1221.94,-430.35 1217.19,-428.81 1217.19,-428.81 1217.19,-428.81 1221.94,-430.35 1218.58,-424.53 1226.7,-431.89 1226.7,-431.89"/>
</g>
<!-- ragger.firmware.stax.screen&#45;&gt;ragger.backend -->
<g id="edge45" class="edge">
<title>ragger.firmware.stax.screen&#45;&gt;ragger.backend</title>
<path fill="none" stroke="black" d="M1008.3,-324.11C986.37,-332.64 961.81,-344.49 942.5,-360 920.86,-377.37 902.88,-403.62 891.35,-423.12"/>
<polygon fill="black" stroke="black" points="886.38,-431.81 887.44,-420.9 888.86,-427.47 891.35,-423.14 891.35,-423.14 891.35,-423.14 888.86,-427.47 895.25,-425.37 886.38,-431.81 886.38,-431.81"/>
</g>
<!-- ragger.firmware.stax.screen&#45;&gt;ragger.firmware -->
<g id="edge46" class="edge">
<title>ragger.firmware.stax.screen&#45;&gt;ragger.firmware</title>
<path fill="none" stroke="black" d="M1172.63,-314.72C1287.49,-323.81 1454.84,-340.23 1477.5,-360 1508.37,-386.93 1501.5,-408.03 1501.5,-449 1501.5,-449 1501.5,-449 1501.5,-595 1501.5,-635.97 1504.23,-652.95 1477.5,-684 1465.44,-698.01 1448.99,-708.45 1432.1,-716.18"/>
<polygon fill="black" stroke="black" points="1422.7,-720.2 1430.12,-712.13 1427.3,-718.23 1431.89,-716.27 1431.89,-716.27 1431.89,-716.27 1427.3,-718.23 1433.66,-720.4 1422.7,-720.2 1422.7,-720.2"/>
</g>
<!-- ragger.firmware.stax.screen&#45;&gt;ragger.firmware.stax.layouts -->
<g id="edge47" class="edge">
<title>ragger.firmware.stax.screen&#45;&gt;ragger.firmware.stax.layouts</title>
<path fill="none" stroke="black" d="M1063.5,-324.3C1063.5,-332.02 1063.5,-341.29 1063.5,-349.89"/>
<polygon fill="black" stroke="black" points="1063.5,-359.9 1059,-349.9 1063.5,-354.9 1063.5,-349.9 1063.5,-349.9 1063.5,-349.9 1063.5,-354.9 1068,-349.9 1063.5,-359.9 1063.5,-359.9"/>
</g>
<!-- ragger.firmware.stax.use_cases -->
<g id="node22" class="node">
<title>ragger.firmware.stax.use_cases</title>
<polygon fill="#aaaa00" stroke="#aaaa00" points="1435.5,-396 1193.5,-396 1193.5,-360 1435.5,-360 1435.5,-396"/>
<text text-anchor="middle" x="1314.5" y="-374.3" font-family="Times,serif" font-size="14.00">ragger.firmware.stax.use_cases</text>
</g>
<!-- ragger.firmware.stax.screen&#45;&gt;ragger.firmware.stax.use_cases -->
<g id="edge48" class="edge">
<title>ragger.firmware.stax.screen&#45;&gt;ragger.firmware.stax.use_cases</title>
<path fill="none" stroke="black" d="M1124.58,-324.03C1160.41,-334.03 1205.86,-346.7 1243.31,-357.15"/>
<polygon fill="black" stroke="black" points="1253.15,-359.89 1242.3,-361.54 1248.33,-358.55 1243.51,-357.2 1243.51,-357.2 1243.51,-357.2 1248.33,-358.55 1244.72,-352.87 1253.15,-359.89 1253.15,-359.89"/>
</g>
<!-- ragger.firmware.stax.use_cases&#45;&gt;ragger.backend -->
<g id="edge49" class="edge">
<title>ragger.firmware.stax.use_cases&#45;&gt;ragger.backend</title>
<path fill="none" stroke="black" d="M1208.16,-396.03C1128.57,-408.78 1021.75,-425.89 951.34,-437.17"/>
<polygon fill="black" stroke="black" points="941.22,-438.79 950.38,-432.77 946.15,-438 951.09,-437.21 951.09,-437.21 951.09,-437.21 946.15,-438 951.8,-441.66 941.22,-438.79 941.22,-438.79"/>
</g>
<!-- ragger.firmware.stax.use_cases&#45;&gt;ragger.firmware -->
<g id="edge50" class="edge">
<title>ragger.firmware.stax.use_cases&#45;&gt;ragger.firmware</title>
<path fill="none" stroke="black" d="M1360.88,-396.23C1377.59,-404.62 1395.11,-416.35 1406.5,-432 1430.3,-464.7 1425.5,-480.55 1425.5,-521 1425.5,-521 1425.5,-521 1425.5,-595 1425.5,-635.97 1420.55,-647.73 1401.5,-684 1396.23,-694.04 1388.76,-703.85 1381.42,-712.25"/>
<polygon fill="black" stroke="black" points="1374.5,-719.83 1377.92,-709.41 1377.87,-716.13 1381.25,-712.44 1381.25,-712.44 1381.25,-712.44 1377.87,-716.13 1384.57,-715.48 1374.5,-719.83 1374.5,-719.83"/>
</g>
<!-- ragger.firmware.stax.use_cases&#45;&gt;ragger.firmware.stax.positions -->
<g id="edge51" class="edge">
<title>ragger.firmware.stax.use_cases&#45;&gt;ragger.firmware.stax.positions</title>
<path fill="none" stroke="black" d="M1305.85,-396.3C1301.86,-404.27 1297.05,-413.9 1292.63,-422.74"/>
<polygon fill="black" stroke="black" points="1288.05,-431.9 1288.5,-420.94 1290.29,-427.42 1292.52,-422.95 1292.52,-422.95 1292.52,-422.95 1290.29,-427.42 1296.55,-424.96 1288.05,-431.9 1288.05,-431.9"/>
</g>
<!-- ragger.gui.process -->
<g id="node26" class="node">
<title>ragger.gui.process</title>
<polygon fill="#eedd88" stroke="#eedd88" points="661,-756 512,-756 512,-720 661,-720 661,-756"/>
<text text-anchor="middle" x="586.5" y="-734.3" font-family="Times,serif" font-size="14.00">ragger.gui.process</text>
</g>
<!-- ragger.gui&#45;&gt;ragger.gui.process -->
<g id="edge52" class="edge">
<title>ragger.gui&#45;&gt;ragger.gui.process</title>
<path fill="none" stroke="black" d="M889.3,-681.45C886,-682.36 882.7,-683.22 879.5,-684 809.95,-700.97 729.9,-715.09 671.07,-724.48"/>
<polygon fill="black" stroke="black" points="661.08,-726.06 670.25,-720.05 666.02,-725.28 670.96,-724.5 670.96,-724.5 670.96,-724.5 666.02,-725.28 671.66,-728.94 661.08,-726.06 661.08,-726.06"/>
</g>
<!-- ragger.gui.interface -->
<g id="node25" class="node">
<title>ragger.gui.interface</title>
<polygon fill="#eedd88" stroke="#eedd88" points="670.5,-828 512.5,-828 512.5,-792 670.5,-792 670.5,-828"/>
<text text-anchor="middle" x="591.5" y="-806.3" font-family="Times,serif" font-size="14.00">ragger.gui.interface</text>
</g>
<!-- ragger.gui.interface&#45;&gt;ragger.logger -->
<g id="edge53" class="edge">
<title>ragger.gui.interface&#45;&gt;ragger.logger</title>
<path fill="none" stroke="black" d="M551.38,-828.12C528.86,-837.74 500.58,-849.81 476.73,-859.99"/>
<polygon fill="black" stroke="black" points="467.49,-863.93 474.92,-855.87 472.09,-861.97 476.69,-860.01 476.69,-860.01 476.69,-860.01 472.09,-861.97 478.45,-864.14 467.49,-863.93 467.49,-863.93"/>
</g>
<!-- ragger.gui.process&#45;&gt;ragger.gui.interface -->
<g id="edge54" class="edge">
<title>ragger.gui.process&#45;&gt;ragger.gui.interface</title>
<path fill="none" stroke="black" d="M587.74,-756.3C588.29,-764.02 588.95,-773.29 589.56,-781.89"/>
<polygon fill="black" stroke="black" points="590.28,-791.9 585.08,-782.24 589.92,-786.91 589.57,-781.92 589.57,-781.92 589.57,-781.92 589.92,-786.91 594.05,-781.6 590.28,-791.9 590.28,-791.9"/>
</g>
<!-- ragger.gui.process&#45;&gt;ragger.logger -->
<g id="edge55" class="edge">
<title>ragger.gui.process&#45;&gt;ragger.logger</title>
<path fill="none" stroke="black" d="M555.02,-756.11C538.82,-765.63 519.23,-778.31 503.5,-792 481.44,-811.2 460.16,-836.95 445.75,-855.81"/>
<polygon fill="black" stroke="black" points="439.64,-863.94 442.05,-853.25 442.65,-859.95 445.65,-855.95 445.65,-855.95 445.65,-855.95 442.65,-859.95 449.25,-858.65 439.64,-863.94 439.64,-863.94"/>
</g>
<!-- ragger.gui.process&#45;&gt;ragger.navigator.instruction -->
<g id="edge56" class="edge">
<title>ragger.gui.process&#45;&gt;ragger.navigator.instruction</title>
<path fill="none" stroke="black" d="M511.85,-755.59C465.64,-765.86 406.12,-779.08 357.88,-789.8"/>
<polygon fill="black" stroke="black" points="348.08,-791.98 356.86,-785.42 352.96,-790.9 357.84,-789.81 357.84,-789.81 357.84,-789.81 352.96,-790.9 358.82,-794.21 348.08,-791.98 348.08,-791.98"/>
</g>
<!-- ragger.navigator&#45;&gt;ragger.navigator.instruction -->
<g id="edge57" class="edge">
<title>ragger.navigator&#45;&gt;ragger.navigator.instruction</title>
<path fill="none" stroke="black" d="M493.22,-103.26C388.07,-124.12 198.5,-170.4 198.5,-233 198.5,-233 198.5,-233 198.5,-667 198.5,-711.97 227.81,-756.96 249.29,-783.9"/>
<polygon fill="black" stroke="black" points="255.66,-791.65 245.84,-786.78 252.49,-787.79 249.31,-783.93 249.31,-783.93 249.31,-783.93 252.49,-787.79 252.79,-781.07 255.66,-791.65 255.66,-791.65"/>
</g>
<!-- ragger.navigator.nano_navigator -->
<g id="node30" class="node">
<title>ragger.navigator.nano_navigator</title>
<polygon fill="#ee8866" stroke="#ee8866" points="819.5,-324 571.5,-324 571.5,-288 819.5,-288 819.5,-324"/>
<text text-anchor="middle" x="695.5" y="-302.3" font-family="Times,serif" font-size="14.00">ragger.navigator.nano_navigator</text>
</g>
<!-- ragger.navigator&#45;&gt;ragger.navigator.nano_navigator -->
<g id="edge58" class="edge">
<title>ragger.navigator&#45;&gt;ragger.navigator.nano_navigator</title>
<path fill="none" stroke="black" d="M621.95,-108.09C645.4,-116.53 671.59,-128.34 692.5,-144 725.17,-168.47 736.09,-177.45 749.5,-216 754.76,-231.11 755.69,-237.25 749.5,-252 744.86,-263.05 736.67,-272.96 728.04,-281.14"/>
<polygon fill="black" stroke="black" points="720.43,-287.86 724.94,-277.87 724.18,-284.55 727.92,-281.24 727.92,-281.24 727.92,-281.24 724.18,-284.55 730.9,-284.61 720.43,-287.86 720.43,-287.86"/>
</g>
<!-- ragger.navigator.navigator -->
<g id="node31" class="node">
<title>ragger.navigator.navigator</title>
<polygon fill="#ee8866" stroke="#ee8866" points="515,-396 308,-396 308,-360 515,-360 515,-396"/>
<text text-anchor="middle" x="411.5" y="-374.3" font-family="Times,serif" font-size="14.00">ragger.navigator.navigator</text>
</g>
<!-- ragger.navigator&#45;&gt;ragger.navigator.navigator -->
<g id="edge59" class="edge">
<title>ragger.navigator&#45;&gt;ragger.navigator.navigator</title>
<path fill="none" stroke="black" d="M493.43,-103.23C469.83,-110.96 445.54,-123.54 430.5,-144 385.23,-205.59 396.28,-302.66 405.29,-349.68"/>
<polygon fill="black" stroke="black" points="407.33,-359.71 400.93,-350.81 406.34,-354.81 405.34,-349.91 405.34,-349.91 405.34,-349.91 406.34,-354.81 409.75,-349.01 407.33,-359.71 407.33,-359.71"/>
</g>
<!-- ragger.navigator.stax_navigator -->
<g id="node32" class="node">
<title>ragger.navigator.stax_navigator</title>
<polygon fill="#ee8866" stroke="#ee8866" points="683.5,-180 439.5,-180 439.5,-144 683.5,-144 683.5,-180"/>
<text text-anchor="middle" x="561.5" y="-158.3" font-family="Times,serif" font-size="14.00">ragger.navigator.stax_navigator</text>
</g>
<!-- ragger.navigator&#45;&gt;ragger.navigator.stax_navigator -->
<g id="edge60" class="edge">
<title>ragger.navigator&#45;&gt;ragger.navigator.stax_navigator</title>
<path fill="none" stroke="black" d="M561.5,-108.3C561.5,-116.02 561.5,-125.29 561.5,-133.89"/>
<polygon fill="black" stroke="black" points="561.5,-143.9 557,-133.9 561.5,-138.9 561.5,-133.9 561.5,-133.9 561.5,-133.9 561.5,-138.9 566,-133.9 561.5,-143.9 561.5,-143.9"/>
</g>
<!-- ragger.navigator.nano_navigator&#45;&gt;ragger.backend -->
<g id="edge61" class="edge">
<title>ragger.navigator.nano_navigator&#45;&gt;ragger.backend</title>
<path fill="none" stroke="black" d="M717.45,-324.13C749.84,-349.4 810.53,-396.75 847.15,-425.32"/>
<polygon fill="black" stroke="black" points="855.47,-431.81 844.82,-429.21 851.53,-428.74 847.58,-425.66 847.58,-425.66 847.58,-425.66 851.53,-428.74 850.35,-422.11 855.47,-431.81 855.47,-431.81"/>
</g>
<!-- ragger.navigator.nano_navigator&#45;&gt;ragger.firmware -->
<g id="edge62" class="edge">
<title>ragger.navigator.nano_navigator&#45;&gt;ragger.firmware</title>
<path fill="none" stroke="black" d="M819.73,-315.56C1032.25,-330.23 1443.04,-358.73 1444.5,-360 1475.03,-386.53 1463.5,-408.55 1463.5,-449 1463.5,-449 1463.5,-449 1463.5,-595 1463.5,-638.19 1451.01,-649.91 1424.5,-684 1415.79,-695.21 1404.2,-705.38 1393.06,-713.75"/>
<polygon fill="black" stroke="black" points="1384.69,-719.79 1390.17,-710.29 1388.74,-716.87 1392.8,-713.94 1392.8,-713.94 1392.8,-713.94 1388.74,-716.87 1395.43,-717.59 1384.69,-719.79 1384.69,-719.79"/>
</g>
<!-- ragger.navigator.nano_navigator&#45;&gt;ragger.navigator.navigator -->
<g id="edge63" class="edge">
<title>ragger.navigator.nano_navigator&#45;&gt;ragger.navigator.navigator</title>
<path fill="none" stroke="black" d="M626.39,-324.03C585.41,-334.13 533.33,-346.97 490.7,-357.48"/>
<polygon fill="black" stroke="black" points="480.92,-359.89 489.55,-353.13 485.78,-358.69 490.63,-357.5 490.63,-357.5 490.63,-357.5 485.78,-358.69 491.71,-361.87 480.92,-359.89 480.92,-359.89"/>
</g>
<!-- ragger.navigator.navigator&#45;&gt;ragger.backend -->
<g id="edge64" class="edge">
<title>ragger.navigator.navigator&#45;&gt;ragger.backend</title>
<path fill="none" stroke="black" d="M515.1,-393.99C519.96,-394.67 524.78,-395.35 529.5,-396 649.41,-412.63 680.26,-411.09 799.5,-432 800.95,-432.25 802.41,-432.52 803.89,-432.79"/>
<polygon fill="black" stroke="black" points="813.73,-434.66 803.07,-437.21 808.82,-433.72 803.91,-432.79 803.91,-432.79 803.91,-432.79 808.82,-433.72 804.75,-428.37 813.73,-434.66 813.73,-434.66"/>
</g>
<!-- ragger.navigator.navigator&#45;&gt;ragger.firmware -->
<g id="edge65" class="edge">
<title>ragger.navigator.navigator&#45;&gt;ragger.firmware</title>
<path fill="none" stroke="black" d="M473.93,-396.04C551.02,-416.41 686.41,-449.99 804.5,-468 903.45,-483.09 1169.04,-450.27 1253.5,-504 1325.44,-549.77 1347.44,-658.74 1353.92,-709.77"/>
<polygon fill="black" stroke="black" points="1355.08,-719.73 1349.45,-710.32 1354.5,-714.77 1353.92,-709.8 1353.92,-709.8 1353.92,-709.8 1354.5,-714.77 1358.39,-709.28 1355.08,-719.73 1355.08,-719.73"/>
</g>
<!-- ragger.navigator.navigator&#45;&gt;ragger.navigator.instruction -->
<g id="edge66" class="edge">
<title>ragger.navigator.navigator&#45;&gt;ragger.navigator.instruction</title>
<path fill="none" stroke="black" d="M376.22,-396.19C335.63,-418.74 274.5,-462.42 274.5,-521 274.5,-521 274.5,-521 274.5,-667 274.5,-707.01 273.29,-753.35 272.41,-781.92"/>
<polygon fill="black" stroke="black" points="272.09,-791.95 267.91,-781.82 272.25,-786.96 272.41,-781.96 272.41,-781.96 272.41,-781.96 272.25,-786.96 276.91,-782.1 272.09,-791.95 272.09,-791.95"/>
</g>
<!-- ragger.navigator.navigator&#45;&gt;ragger.utils -->
<g id="edge67" class="edge">
<title>ragger.navigator.navigator&#45;&gt;ragger.utils</title>
<path fill="none" stroke="black" d="M400.46,-396.04C375.03,-437.65 318.27,-545.88 369.5,-612 440.57,-703.74 807.04,-728.65 952.7,-734.98"/>
<polygon fill="black" stroke="black" points="962.8,-735.41 952.62,-739.48 957.8,-735.2 952.81,-734.99 952.81,-734.99 952.81,-734.99 957.8,-735.2 953,-730.49 962.8,-735.41 962.8,-735.41"/>
</g>
<!-- ragger.navigator.stax_navigator&#45;&gt;ragger.backend -->
<g id="edge68" class="edge">
<title>ragger.navigator.stax_navigator&#45;&gt;ragger.backend</title>
<path fill="none" stroke="black" d="M555.91,-180.1C546.72,-211.64 532.29,-279.81 562.5,-324 590.69,-365.23 720.03,-406.75 803.96,-430.04"/>
<polygon fill="black" stroke="black" points="813.71,-432.72 802.87,-434.41 808.89,-431.4 804.07,-430.07 804.07,-430.07 804.07,-430.07 808.89,-431.4 805.26,-425.73 813.71,-432.72 813.71,-432.72"/>
</g>
<!-- ragger.navigator.stax_navigator&#45;&gt;ragger.firmware -->
<g id="edge69" class="edge">
<title>ragger.navigator.stax_navigator&#45;&gt;ragger.firmware</title>
<path fill="none" stroke="black" d="M683.54,-174.11C909.4,-196.94 1380.76,-255.94 1503.5,-360 1536.05,-387.59 1539.5,-406.33 1539.5,-449 1539.5,-449 1539.5,-449 1539.5,-595 1539.5,-637.84 1533.48,-654.41 1502.5,-684 1483.31,-702.33 1457.29,-714.41 1432.53,-722.32"/>
<polygon fill="black" stroke="black" points="1422.76,-725.26 1431.04,-718.07 1427.54,-723.82 1432.33,-722.38 1432.33,-722.38 1432.33,-722.38 1427.54,-723.82 1433.63,-726.69 1422.76,-725.26 1422.76,-725.26"/>
</g>
<!-- ragger.navigator.stax_navigator&#45;&gt;ragger.firmware.stax -->
<g id="edge70" class="edge">
<title>ragger.navigator.stax_navigator&#45;&gt;ragger.firmware.stax</title>
<path fill="none" stroke="black" d="M585.23,-180.3C597.44,-189.2 612.49,-200.18 625.68,-209.8"/>
<polygon fill="black" stroke="black" points="634.04,-215.9 623.31,-213.64 630,-212.95 625.96,-210 625.96,-210 625.96,-210 630,-212.95 628.61,-206.37 634.04,-215.9 634.04,-215.9"/>
</g>
<!-- ragger.navigator.stax_navigator&#45;&gt;ragger.navigator.instruction -->
<g id="edge71" class="edge">
<title>ragger.navigator.stax_navigator&#45;&gt;ragger.navigator.instruction</title>
<path fill="none" stroke="black" d="M439.09,-168.54C346.97,-180.09 236.5,-213.1 236.5,-305 236.5,-305 236.5,-305 236.5,-667 236.5,-708.16 250.53,-754.12 260.83,-782.31"/>
<polygon fill="black" stroke="black" points="264.42,-791.85 256.68,-784.07 262.66,-787.17 260.89,-782.49 260.89,-782.49 260.89,-782.49 262.66,-787.17 265.11,-780.9 264.42,-791.85 264.42,-791.85"/>
</g>
<!-- ragger.navigator.stax_navigator&#45;&gt;ragger.navigator.navigator -->
<g id="edge72" class="edge">
<title>ragger.navigator.stax_navigator&#45;&gt;ragger.navigator.navigator</title>
<path fill="none" stroke="black" d="M549.48,-180.15C523.15,-217.72 460.27,-307.42 429.32,-351.57"/>
<polygon fill="black" stroke="black" points="423.58,-359.77 425.63,-349 426.45,-355.67 429.32,-351.58 429.32,-351.58 429.32,-351.58 426.45,-355.67 433,-354.16 423.58,-359.77 423.58,-359.77"/>
</g>
<!-- ragger.utils&#45;&gt;ragger.utils.misc -->
<g id="edge73" class="edge">
<title>ragger.utils&#45;&gt;ragger.utils.misc</title>
<path fill="none" stroke="black" d="M1062.22,-743.33C1142.98,-750.71 1307.85,-767.21 1457.38,-791.91"/>
<polygon fill="black" stroke="black" points="1467.67,-793.62 1457.06,-796.41 1462.73,-792.8 1457.8,-791.98 1457.8,-791.98 1457.8,-791.98 1462.73,-792.8 1458.54,-787.54 1467.67,-793.62 1467.67,-793.62"/>
</g>
<!-- ragger.utils.packing -->
<g id="node35" class="node">
<title>ragger.utils.packing</title>
<polygon fill="#ffaabb" stroke="#ffaabb" points="1095,-828 936,-828 936,-792 1095,-792 1095,-828"/>
<text text-anchor="middle" x="1015.5" y="-806.3" font-family="Times,serif" font-size="14.00">ragger.utils.packing</text>
</g>
<!-- ragger.utils&#45;&gt;ragger.utils.packing -->
<g id="edge74" class="edge">
<title>ragger.utils&#45;&gt;ragger.utils.packing</title>
<path fill="none" stroke="black" d="M1013.24,-756.3C1013.57,-764.02 1013.97,-773.29 1014.34,-781.89"/>
<polygon fill="black" stroke="black" points="1014.77,-791.9 1009.84,-782.1 1014.55,-786.9 1014.34,-781.9 1014.34,-781.9 1014.34,-781.9 1014.55,-786.9 1018.83,-781.71 1014.77,-791.9 1014.77,-791.9"/>
</g>
<!-- ragger.utils&#45;&gt;ragger.utils.structs -->
<g id="edge75" class="edge">
<title>ragger.utils&#45;&gt;ragger.utils.structs</title>
<path fill="none" stroke="black" d="M962.97,-755.59C933.32,-765.52 895.43,-778.21 864.02,-788.73"/>
<polygon fill="black" stroke="black" points="854.49,-791.92 862.54,-784.48 859.23,-790.33 863.97,-788.75 863.97,-788.75 863.97,-788.75 859.23,-790.33 865.4,-793.01 854.49,-791.92 854.49,-791.92"/>
</g>
<!-- ragger.utils.misc&#45;&gt;ragger.error -->
<g id="edge76" class="edge">
<title>ragger.utils.misc&#45;&gt;ragger.error</title>
<path fill="none" stroke="black" d="M1467.65,-826.31C1464.56,-826.9 1461.5,-827.47 1458.5,-828 1344.14,-848.24 1209.63,-865.07 1132.79,-874.03"/>
<polygon fill="black" stroke="black" points="1122.79,-875.18 1132.21,-869.56 1127.76,-874.61 1132.73,-874.03 1132.73,-874.03 1132.73,-874.03 1127.76,-874.61 1133.24,-878.5 1122.79,-875.18 1122.79,-875.18"/>
</g>
</g>
</svg>
