<?xml version="1.0" encoding="UTF-8" standalone="no"?>
<!DOCTYPE svg PUBLIC "-//W3C//DTD SVG 1.1//EN"
 "http://www.w3.org/Graphics/SVG/1.1/DTD/svg11.dtd">
<!-- Generated by graphviz version 2.43.0 (0)
 -->
<!-- Title: packages_generated_ragger_architecture Pages: 1 -->
<svg width="2295pt" height="836pt"
 viewBox="0.00 0.00 2294.50 836.00" xmlns="http://www.w3.org/2000/svg" xmlns:xlink="http://www.w3.org/1999/xlink">
<g id="graph0" class="graph" transform="scale(1 1) rotate(0) translate(4 832)">
<title>packages_generated_ragger_architecture</title>
<polygon fill="white" stroke="transparent" points="-4,4 -4,-832 2290.5,-832 2290.5,4 -4,4"/>
<!-- ragger -->
<g id="node1" class="node">
<title>ragger</title>
<polygon fill="aliceblue" stroke="aliceblue" points="89,-612 24,-612 24,-576 89,-576 89,-612"/>
<text text-anchor="middle" x="56.5" y="-590.3" font-family="Times,serif" font-size="14.00">ragger</text>
</g>
<!-- ragger.logger -->
<g id="node23" class="node">
<title>ragger.logger</title>
<polygon fill="aliceblue" stroke="aliceblue" points="113,-684 0,-684 0,-648 113,-648 113,-684"/>
<text text-anchor="middle" x="56.5" y="-662.3" font-family="Times,serif" font-size="14.00">ragger.logger</text>
</g>
<!-- ragger&#45;&gt;ragger.logger -->
<g id="edge1" class="edge">
<title>ragger&#45;&gt;ragger.logger</title>
<path fill="none" stroke="black" d="M56.5,-612.3C56.5,-620.02 56.5,-629.29 56.5,-637.89"/>
<polygon fill="black" stroke="black" points="56.5,-647.9 52,-637.9 56.5,-642.9 56.5,-637.9 56.5,-637.9 56.5,-637.9 56.5,-642.9 61,-637.9 56.5,-647.9 56.5,-647.9"/>
</g>
<!-- ragger.backend -->
<g id="node2" class="node">
<title>ragger.backend</title>
<polygon fill="antiquewhite" stroke="antiquewhite" points="908,-468 781,-468 781,-432 908,-432 908,-468"/>
<text text-anchor="middle" x="844.5" y="-446.3" font-family="Times,serif" font-size="14.00">ragger.backend</text>
</g>
<!-- ragger.backend.interface -->
<g id="node3" class="node">
<title>ragger.backend.interface</title>
<polygon fill="antiquewhite" stroke="antiquewhite" points="724,-612 529,-612 529,-576 724,-576 724,-612"/>
<text text-anchor="middle" x="626.5" y="-590.3" font-family="Times,serif" font-size="14.00">ragger.backend.interface</text>
</g>
<!-- ragger.backend&#45;&gt;ragger.backend.interface -->
<g id="edge2" class="edge">
<title>ragger.backend&#45;&gt;ragger.backend.interface</title>
<path fill="none" stroke="black" d="M810.21,-468.12C792.14,-477.74 769.95,-490.5 751.5,-504 732.46,-517.93 731.3,-525.75 712.5,-540 698.03,-550.97 681.21,-561.73 666.29,-570.67"/>
<polygon fill="black" stroke="black" points="657.29,-575.98 663.62,-567.02 661.6,-573.44 665.9,-570.89 665.9,-570.89 665.9,-570.89 661.6,-573.44 668.19,-574.77 657.29,-575.98 657.29,-575.98"/>
</g>
<!-- ragger.backend.ledgercomm -->
<g id="node4" class="node">
<title>ragger.backend.ledgercomm</title>
<polygon fill="antiquewhite" stroke="antiquewhite" points="1162.5,-540 942.5,-540 942.5,-504 1162.5,-504 1162.5,-540"/>
<text text-anchor="middle" x="1052.5" y="-518.3" font-family="Times,serif" font-size="14.00">ragger.backend.ledgercomm</text>
</g>
<!-- ragger.backend&#45;&gt;ragger.backend.ledgercomm -->
<g id="edge3" class="edge">
<title>ragger.backend&#45;&gt;ragger.backend.ledgercomm</title>
<path fill="none" stroke="black" d="M895.12,-468.03C924.31,-477.86 961.19,-490.27 991.92,-500.61"/>
<polygon fill="black" stroke="black" points="1001.66,-503.89 990.74,-504.96 996.92,-502.29 992.18,-500.7 992.18,-500.7 992.18,-500.7 996.92,-502.29 993.61,-496.43 1001.66,-503.89 1001.66,-503.89"/>
</g>
<!-- ragger.backend.ledgerwallet -->
<g id="node5" class="node">
<title>ragger.backend.ledgerwallet</title>
<polygon fill="antiquewhite" stroke="antiquewhite" points="493,-540 272,-540 272,-504 493,-504 493,-540"/>
<text text-anchor="middle" x="382.5" y="-518.3" font-family="Times,serif" font-size="14.00">ragger.backend.ledgerwallet</text>
</g>
<!-- ragger.backend&#45;&gt;ragger.backend.ledgerwallet -->
<g id="edge4" class="edge">
<title>ragger.backend&#45;&gt;ragger.backend.ledgerwallet</title>
<path fill="none" stroke="black" d="M780.75,-460.66C709.36,-471.48 592.05,-489.25 503.19,-502.71"/>
<polygon fill="black" stroke="black" points="493.05,-504.25 502.26,-498.3 497.99,-503.5 502.93,-502.75 502.93,-502.75 502.93,-502.75 497.99,-503.5 503.61,-507.2 493.05,-504.25 493.05,-504.25"/>
</g>
<!-- ragger.backend.speculos -->
<g id="node6" class="node">
<title>ragger.backend.speculos</title>
<polygon fill="antiquewhite" stroke="antiquewhite" points="704,-540 511,-540 511,-504 704,-504 704,-540"/>
<text text-anchor="middle" x="607.5" y="-518.3" font-family="Times,serif" font-size="14.00">ragger.backend.speculos</text>
</g>
<!-- ragger.backend&#45;&gt;ragger.backend.speculos -->
<g id="edge5" class="edge">
<title>ragger.backend&#45;&gt;ragger.backend.speculos</title>
<path fill="none" stroke="black" d="M786.83,-468.03C753.14,-477.99 710.45,-490.59 675.17,-501.01"/>
<polygon fill="black" stroke="black" points="665.43,-503.89 673.75,-496.74 670.23,-502.47 675.02,-501.06 675.02,-501.06 675.02,-501.06 670.23,-502.47 676.3,-505.37 665.43,-503.89 665.43,-503.89"/>
</g>
<!-- ragger.backend.stub -->
<g id="node7" class="node">
<title>ragger.backend.stub</title>
<polygon fill="antiquewhite" stroke="antiquewhite" points="924,-540 761,-540 761,-504 924,-504 924,-540"/>
<text text-anchor="middle" x="842.5" y="-518.3" font-family="Times,serif" font-size="14.00">ragger.backend.stub</text>
</g>
<!-- ragger.backend&#45;&gt;ragger.backend.stub -->
<g id="edge6" class="edge">
<title>ragger.backend&#45;&gt;ragger.backend.stub</title>
<path fill="none" stroke="black" d="M844.01,-468.3C843.79,-476.02 843.52,-485.29 843.27,-493.89"/>
<polygon fill="black" stroke="black" points="842.99,-503.9 838.78,-493.77 843.13,-498.9 843.27,-493.9 843.27,-493.9 843.27,-493.9 843.13,-498.9 847.77,-494.03 842.99,-503.9 842.99,-503.9"/>
</g>
<!-- ragger.firmware -->
<g id="node15" class="node">
<title>ragger.firmware</title>
<polygon fill="cadetblue" stroke="cadetblue" points="1344.5,-684 1212.5,-684 1212.5,-648 1344.5,-648 1344.5,-684"/>
<text text-anchor="middle" x="1278.5" y="-662.3" font-family="Times,serif" font-size="14.00">ragger.firmware</text>
</g>
<!-- ragger.backend.interface&#45;&gt;ragger.firmware -->
<g id="edge7" class="edge">
<title>ragger.backend.interface&#45;&gt;ragger.firmware</title>
<path fill="none" stroke="black" d="M724.11,-605.48C854.59,-619.49 1083.17,-644.03 1201.95,-656.78"/>
<polygon fill="black" stroke="black" points="1212.05,-657.87 1201.63,-661.27 1207.08,-657.33 1202.11,-656.8 1202.11,-656.8 1202.11,-656.8 1207.08,-657.33 1202.59,-652.32 1212.05,-657.87 1212.05,-657.87"/>
</g>
<!-- ragger.backend.interface&#45;&gt;ragger.logger -->
<g id="edge8" class="edge">
<title>ragger.backend.interface&#45;&gt;ragger.logger</title>
<path fill="none" stroke="black" d="M528.84,-606.99C413.04,-621.21 223.16,-644.53 123.06,-656.83"/>
<polygon fill="black" stroke="black" points="113.07,-658.05 122.45,-652.37 118.03,-657.44 122.99,-656.83 122.99,-656.83 122.99,-656.83 118.03,-657.44 123.54,-661.3 113.07,-658.05 113.07,-658.05"/>
</g>
<!-- ragger.utils -->
<g id="node28" class="node">
<title>ragger.utils</title>
<polygon fill="chocolate" stroke="chocolate" points="535,-684 436,-684 436,-648 535,-648 535,-684"/>
<text text-anchor="middle" x="485.5" y="-662.3" font-family="Times,serif" font-size="14.00">ragger.utils</text>
</g>
<!-- ragger.backend.interface&#45;&gt;ragger.utils -->
<g id="edge9" class="edge">
<title>ragger.backend.interface&#45;&gt;ragger.utils</title>
<path fill="none" stroke="black" d="M592.01,-612.12C573.06,-621.53 549.37,-633.29 529.14,-643.33"/>
<polygon fill="black" stroke="black" points="520.13,-647.81 527.08,-639.33 524.6,-645.59 529.08,-643.36 529.08,-643.36 529.08,-643.36 524.6,-645.59 531.08,-647.39 520.13,-647.81 520.13,-647.81"/>
</g>
<!-- ragger.backend.ledgercomm&#45;&gt;ragger.backend.interface -->
<g id="edge10" class="edge">
<title>ragger.backend.ledgercomm&#45;&gt;ragger.backend.interface</title>
<path fill="none" stroke="black" d="M948.83,-540.03C883.71,-550.74 799.88,-564.51 734.03,-575.33"/>
<polygon fill="black" stroke="black" points="724.04,-576.97 733.18,-570.91 728.97,-576.16 733.91,-575.35 733.91,-575.35 733.91,-575.35 728.97,-576.16 734.64,-579.79 724.04,-576.97 724.04,-576.97"/>
</g>
<!-- ragger.backend.ledgercomm&#45;&gt;ragger.backend.ledgercomm -->
<g id="edge11" class="edge">
<title>ragger.backend.ledgercomm&#45;&gt;ragger.backend.ledgercomm</title>
<path fill="none" stroke="black" d="M1162.65,-510.99C1173.56,-513.2 1180.5,-516.87 1180.5,-522 1180.5,-525.37 1177.51,-528.11 1172.37,-530.21"/>
<polygon fill="black" stroke="black" points="1162.65,-533.01 1171.02,-525.92 1167.46,-531.63 1172.26,-530.25 1172.26,-530.25 1172.26,-530.25 1167.46,-531.63 1173.51,-534.57 1162.65,-533.01 1162.65,-533.01"/>
</g>
<!-- ragger.error -->
<g id="node14" class="node">
<title>ragger.error</title>
<polygon fill="aliceblue" stroke="aliceblue" points="339.5,-828 235.5,-828 235.5,-792 339.5,-792 339.5,-828"/>
<text text-anchor="middle" x="287.5" y="-806.3" font-family="Times,serif" font-size="14.00">ragger.error</text>
</g>
<!-- ragger.backend.ledgercomm&#45;&gt;ragger.error -->
<g id="edge12" class="edge">
<title>ragger.backend.ledgercomm&#45;&gt;ragger.error</title>
<path fill="none" stroke="black" d="M1044.61,-540.08C1022.92,-584.8 957.64,-705.34 862.5,-756 775.05,-802.56 479.89,-808.82 349.88,-809.25"/>
<polygon fill="black" stroke="black" points="339.68,-809.28 349.67,-804.75 344.68,-809.26 349.68,-809.25 349.68,-809.25 349.68,-809.25 344.68,-809.26 349.69,-813.75 339.68,-809.28 339.68,-809.28"/>
</g>
<!-- ragger.backend.ledgercomm&#45;&gt;ragger.firmware -->
<g id="edge13" class="edge">
<title>ragger.backend.ledgercomm&#45;&gt;ragger.firmware</title>
<path fill="none" stroke="black" d="M1079.76,-540.13C1120.48,-565.72 1197.25,-613.95 1242.53,-642.4"/>
<polygon fill="black" stroke="black" points="1251.14,-647.81 1240.28,-646.3 1246.91,-645.15 1242.68,-642.49 1242.68,-642.49 1242.68,-642.49 1246.91,-645.15 1245.07,-638.68 1251.14,-647.81 1251.14,-647.81"/>
</g>
<!-- ragger.backend.ledgercomm&#45;&gt;ragger.utils -->
<g id="edge14" class="edge">
<title>ragger.backend.ledgercomm&#45;&gt;ragger.utils</title>
<path fill="none" stroke="black" d="M995.25,-540.04C931.44,-558.77 825.03,-589.23 732.5,-612 668.95,-627.64 595.57,-643.05 545.4,-653.19"/>
<polygon fill="black" stroke="black" points="535.38,-655.21 544.29,-648.83 540.28,-654.22 545.18,-653.24 545.18,-653.24 545.18,-653.24 540.28,-654.22 546.07,-657.65 535.38,-655.21 535.38,-655.21"/>
</g>
<!-- ragger.backend.ledgerwallet&#45;&gt;ragger.backend.interface -->
<g id="edge15" class="edge">
<title>ragger.backend.ledgerwallet&#45;&gt;ragger.backend.interface</title>
<path fill="none" stroke="black" d="M441.88,-540.03C476.56,-549.99 520.51,-562.59 556.83,-573.01"/>
<polygon fill="black" stroke="black" points="566.86,-575.89 556,-577.46 562.05,-574.51 557.24,-573.13 557.24,-573.13 557.24,-573.13 562.05,-574.51 558.49,-568.81 566.86,-575.89 566.86,-575.89"/>
</g>
<!-- ragger.backend.ledgerwallet&#45;&gt;ragger.error -->
<g id="edge16" class="edge">
<title>ragger.backend.ledgerwallet&#45;&gt;ragger.error</title>
<path fill="none" stroke="black" d="M295.55,-540.1C272.07,-547.99 248.06,-559.43 229.5,-576 176.56,-623.26 176.22,-650.8 160.5,-720 156.95,-735.6 151.63,-742.68 160.5,-756 175.24,-778.12 201.14,-791.02 225.73,-798.54"/>
<polygon fill="black" stroke="black" points="235.42,-801.26 224.58,-802.89 230.61,-799.91 225.8,-798.56 225.8,-798.56 225.8,-798.56 230.61,-799.91 227.01,-794.23 235.42,-801.26 235.42,-801.26"/>
</g>
<!-- ragger.backend.ledgerwallet&#45;&gt;ragger.utils -->
<g id="edge17" class="edge">
<title>ragger.backend.ledgerwallet&#45;&gt;ragger.utils</title>
<path fill="none" stroke="black" d="M394.92,-540.13C412.87,-564.86 446.16,-610.76 466.99,-639.49"/>
<polygon fill="black" stroke="black" points="473.03,-647.81 463.52,-642.36 470.1,-643.76 467.16,-639.72 467.16,-639.72 467.16,-639.72 470.1,-643.76 470.8,-637.07 473.03,-647.81 473.03,-647.81"/>
</g>
<!-- ragger.backend.speculos&#45;&gt;ragger.backend.interface -->
<g id="edge18" class="edge">
<title>ragger.backend.speculos&#45;&gt;ragger.backend.interface</title>
<path fill="none" stroke="black" d="M612.2,-540.3C614.31,-548.1 616.86,-557.49 619.22,-566.17"/>
<polygon fill="black" stroke="black" points="621.86,-575.9 614.89,-567.42 620.55,-571.07 619.24,-566.24 619.24,-566.24 619.24,-566.24 620.55,-571.07 623.58,-565.07 621.86,-575.9 621.86,-575.9"/>
</g>
<!-- ragger.backend.speculos&#45;&gt;ragger.error -->
<g id="edge19" class="edge">
<title>ragger.backend.speculos&#45;&gt;ragger.error</title>
<path fill="none" stroke="black" d="M562.09,-540.01C540.86,-549.06 515.83,-561.35 495.5,-576 411.39,-636.6 336.9,-736.63 304.58,-783.4"/>
<polygon fill="black" stroke="black" points="298.86,-791.76 300.79,-780.97 301.68,-787.63 304.51,-783.51 304.51,-783.51 304.51,-783.51 301.68,-787.63 308.22,-786.05 298.86,-791.76 298.86,-791.76"/>
</g>
<!-- ragger.backend.speculos&#45;&gt;ragger.firmware -->
<g id="edge20" class="edge">
<title>ragger.backend.speculos&#45;&gt;ragger.firmware</title>
<path fill="none" stroke="black" d="M688.1,-540.06C818.63,-567.68 1074.49,-621.83 1202.2,-648.85"/>
<polygon fill="black" stroke="black" points="1212.29,-650.99 1201.58,-653.32 1207.4,-649.95 1202.51,-648.92 1202.51,-648.92 1202.51,-648.92 1207.4,-649.95 1203.44,-644.52 1212.29,-650.99 1212.29,-650.99"/>
</g>
<!-- ragger.backend.speculos&#45;&gt;ragger.utils -->
<g id="edge21" class="edge">
<title>ragger.backend.speculos&#45;&gt;ragger.utils</title>
<path fill="none" stroke="black" d="M567.01,-540.14C550.44,-548.84 532.2,-560.82 519.5,-576 504.54,-593.87 495.75,-619.03 490.87,-638.05"/>
<polygon fill="black" stroke="black" points="488.54,-647.89 486.46,-637.12 489.69,-643.02 490.84,-638.16 490.84,-638.16 490.84,-638.16 489.69,-643.02 495.22,-639.19 488.54,-647.89 488.54,-647.89"/>
</g>
<!-- ragger.backend.stub&#45;&gt;ragger.backend.interface -->
<g id="edge22" class="edge">
<title>ragger.backend.stub&#45;&gt;ragger.backend.interface</title>
<path fill="none" stroke="black" d="M789.94,-540.03C759.49,-549.9 720.99,-562.38 689,-572.75"/>
<polygon fill="black" stroke="black" points="679.3,-575.89 687.42,-568.53 684.06,-574.35 688.81,-572.81 688.81,-572.81 688.81,-572.81 684.06,-574.35 690.2,-577.09 679.3,-575.89 679.3,-575.89"/>
</g>
<!-- ragger.utils.structs -->
<g id="node31" class="node">
<title>ragger.utils.structs</title>
<polygon fill="chocolate" stroke="chocolate" points="853.5,-756 699.5,-756 699.5,-720 853.5,-720 853.5,-756"/>
<text text-anchor="middle" x="776.5" y="-734.3" font-family="Times,serif" font-size="14.00">ragger.utils.structs</text>
</g>
<!-- ragger.backend.stub&#45;&gt;ragger.utils.structs -->
<g id="edge23" class="edge">
<title>ragger.backend.stub&#45;&gt;ragger.utils.structs</title>
<path fill="none" stroke="black" d="M837.21,-540.15C825.75,-577.32 798.53,-665.56 784.77,-710.18"/>
<polygon fill="black" stroke="black" points="781.81,-719.77 780.46,-708.89 783.29,-714.99 784.76,-710.21 784.76,-710.21 784.76,-710.21 783.29,-714.99 789.06,-711.54 781.81,-719.77 781.81,-719.77"/>
</g>
<!-- ragger.bip -->
<g id="node8" class="node">
<title>ragger.bip</title>
<polygon fill="aquamarine" stroke="aquamarine" points="1900.5,-36 1810.5,-36 1810.5,0 1900.5,0 1900.5,-36"/>
<text text-anchor="middle" x="1855.5" y="-14.3" font-family="Times,serif" font-size="14.00">ragger.bip</text>
</g>
<!-- ragger.bip.path -->
<g id="node9" class="node">
<title>ragger.bip.path</title>
<polygon fill="aquamarine" stroke="aquamarine" points="1846,-108 1719,-108 1719,-72 1846,-72 1846,-108"/>
<text text-anchor="middle" x="1782.5" y="-86.3" font-family="Times,serif" font-size="14.00">ragger.bip.path</text>
</g>
<!-- ragger.bip&#45;&gt;ragger.bip.path -->
<g id="edge24" class="edge">
<title>ragger.bip&#45;&gt;ragger.bip.path</title>
<path fill="none" stroke="black" d="M1837.46,-36.3C1828.44,-44.95 1817.38,-55.55 1807.56,-64.97"/>
<polygon fill="black" stroke="black" points="1800.34,-71.9 1804.44,-61.73 1803.95,-68.44 1807.56,-64.97 1807.56,-64.97 1807.56,-64.97 1803.95,-68.44 1810.67,-68.22 1800.34,-71.9 1800.34,-71.9"/>
</g>
<!-- ragger.bip.seed -->
<g id="node10" class="node">
<title>ragger.bip.seed</title>
<polygon fill="aquamarine" stroke="aquamarine" points="1992.5,-108 1864.5,-108 1864.5,-72 1992.5,-72 1992.5,-108"/>
<text text-anchor="middle" x="1928.5" y="-86.3" font-family="Times,serif" font-size="14.00">ragger.bip.seed</text>
</g>
<!-- ragger.bip&#45;&gt;ragger.bip.seed -->
<g id="edge25" class="edge">
<title>ragger.bip&#45;&gt;ragger.bip.seed</title>
<path fill="none" stroke="black" d="M1873.54,-36.3C1882.56,-44.95 1893.62,-55.55 1903.44,-64.97"/>
<polygon fill="black" stroke="black" points="1910.66,-71.9 1900.33,-68.22 1907.05,-68.44 1903.44,-64.97 1903.44,-64.97 1903.44,-64.97 1907.05,-68.44 1906.56,-61.73 1910.66,-71.9 1910.66,-71.9"/>
</g>
<!-- ragger.conftest -->
<g id="node11" class="node">
<title>ragger.conftest</title>
<polygon fill="burlywood" stroke="burlywood" points="2044,-36 1919,-36 1919,0 2044,0 2044,-36"/>
<text text-anchor="middle" x="1981.5" y="-14.3" font-family="Times,serif" font-size="14.00">ragger.conftest</text>
</g>
<!-- ragger.conftest.base_conftest -->
<g id="node12" class="node">
<title>ragger.conftest.base_conftest</title>
<polygon fill="burlywood" stroke="burlywood" points="507,-36 280,-36 280,0 507,0 507,-36"/>
<text text-anchor="middle" x="393.5" y="-14.3" font-family="Times,serif" font-size="14.00">ragger.conftest.base_conftest</text>
</g>
<!-- ragger.conftest.base_conftest&#45;&gt;ragger.backend -->
<g id="edge26" class="edge">
<title>ragger.conftest.base_conftest&#45;&gt;ragger.backend</title>
<path fill="none" stroke="black" d="M397.34,-36.39C402.9,-63.06 412.5,-115.73 412.5,-161 412.5,-161 412.5,-161 412.5,-307 412.5,-381.49 647.21,-423.31 770.62,-440.16"/>
<polygon fill="black" stroke="black" points="780.76,-441.52 770.25,-444.65 775.8,-440.86 770.85,-440.19 770.85,-440.19 770.85,-440.19 775.8,-440.86 771.45,-435.73 780.76,-441.52 780.76,-441.52"/>
</g>
<!-- ragger.conftest.base_conftest&#45;&gt;ragger.firmware -->
<g id="edge27" class="edge">
<title>ragger.conftest.base_conftest&#45;&gt;ragger.firmware</title>
<path fill="none" stroke="black" d="M507.18,-19.62C823.44,-22.84 1690.5,-42.47 1690.5,-161 1690.5,-161 1690.5,-161 1690.5,-523 1690.5,-570.46 1671.53,-586.5 1631.5,-612 1586.83,-640.45 1444.47,-654.54 1354.76,-660.76"/>
<polygon fill="black" stroke="black" points="1344.63,-661.44 1354.31,-656.28 1349.62,-661.1 1354.61,-660.77 1354.61,-660.77 1354.61,-660.77 1349.62,-661.1 1354.92,-665.26 1344.63,-661.44 1344.63,-661.44"/>
</g>
<!-- ragger.conftest.base_conftest&#45;&gt;ragger.logger -->
<g id="edge28" class="edge">
<title>ragger.conftest.base_conftest&#45;&gt;ragger.logger</title>
<path fill="none" stroke="black" d="M279.69,-33.28C227.38,-41.97 172.71,-54.76 153.5,-72 122.44,-99.88 123.5,-119.26 123.5,-161 123.5,-161 123.5,-161 123.5,-523 123.5,-564.21 116.21,-575.28 97.5,-612 92.51,-621.79 85.61,-631.58 78.9,-640.03"/>
<polygon fill="black" stroke="black" points="72.33,-647.98 75.23,-637.41 75.52,-644.13 78.7,-640.27 78.7,-640.27 78.7,-640.27 75.52,-644.13 82.17,-643.14 72.33,-647.98 72.33,-647.98"/>
</g>
<!-- ragger.navigator -->
<g id="node24" class="node">
<title>ragger.navigator</title>
<polygon fill="chartreuse" stroke="chartreuse" points="914.5,-108 778.5,-108 778.5,-72 914.5,-72 914.5,-108"/>
<text text-anchor="middle" x="846.5" y="-86.3" font-family="Times,serif" font-size="14.00">ragger.navigator</text>
</g>
<!-- ragger.conftest.base_conftest&#45;&gt;ragger.navigator -->
<g id="edge29" class="edge">
<title>ragger.conftest.base_conftest&#45;&gt;ragger.navigator</title>
<path fill="none" stroke="black" d="M503.74,-36.03C585.65,-48.69 695.41,-65.65 768.41,-76.93"/>
<polygon fill="black" stroke="black" points="778.46,-78.49 767.89,-81.41 773.52,-77.72 768.58,-76.96 768.58,-76.96 768.58,-76.96 773.52,-77.72 769.27,-72.51 778.46,-78.49 778.46,-78.49"/>
</g>
<!-- ragger.conftest.base_conftest&#45;&gt;ragger.utils -->
<g id="edge30" class="edge">
<title>ragger.conftest.base_conftest&#45;&gt;ragger.utils</title>
<path fill="none" stroke="black" d="M334.79,-36.04C279.63,-56.08 205.5,-95.25 205.5,-161 205.5,-161 205.5,-161 205.5,-451 205.5,-534.31 234.03,-563.13 301.5,-612 337.95,-638.4 387.32,-651.7 425.74,-658.37"/>
<polygon fill="black" stroke="black" points="435.76,-660.01 425.17,-662.84 430.83,-659.2 425.89,-658.4 425.89,-658.4 425.89,-658.4 430.83,-659.2 426.62,-653.96 435.76,-660.01 435.76,-660.01"/>
</g>
<!-- ragger.utils.misc -->
<g id="node29" class="node">
<title>ragger.utils.misc</title>
<polygon fill="chocolate" stroke="chocolate" points="307,-756 170,-756 170,-720 307,-720 307,-756"/>
<text text-anchor="middle" x="238.5" y="-734.3" font-family="Times,serif" font-size="14.00">ragger.utils.misc</text>
</g>
<!-- ragger.conftest.base_conftest&#45;&gt;ragger.utils.misc -->
<g id="edge31" class="edge">
<title>ragger.conftest.base_conftest&#45;&gt;ragger.utils.misc</title>
<path fill="none" stroke="black" d="M295.18,-36.08C269.36,-43.94 242.82,-55.38 221.5,-72 185.01,-100.45 167.5,-114.73 167.5,-161 167.5,-161 167.5,-161 167.5,-523 167.5,-593.73 202.87,-671.22 223.68,-710.7"/>
<polygon fill="black" stroke="black" points="228.63,-719.89 219.93,-713.22 226.26,-715.49 223.89,-711.08 223.89,-711.08 223.89,-711.08 226.26,-715.49 227.85,-708.95 228.63,-719.89 228.63,-719.89"/>
</g>
<!-- ragger.conftest.configuration -->
<g id="node13" class="node">
<title>ragger.conftest.configuration</title>
<polygon fill="burlywood" stroke="burlywood" points="2286.5,-36 2062.5,-36 2062.5,0 2286.5,0 2286.5,-36"/>
<text text-anchor="middle" x="2174.5" y="-14.3" font-family="Times,serif" font-size="14.00">ragger.conftest.configuration</text>
</g>
<!-- ragger.firmware.structs -->
<g id="node21" class="node">
<title>ragger.firmware.structs</title>
<polygon fill="cadetblue" stroke="cadetblue" points="1365,-756 1178,-756 1178,-720 1365,-720 1365,-756"/>
<text text-anchor="middle" x="1271.5" y="-734.3" font-family="Times,serif" font-size="14.00">ragger.firmware.structs</text>
</g>
<!-- ragger.firmware&#45;&gt;ragger.firmware.structs -->
<g id="edge32" class="edge">
<title>ragger.firmware&#45;&gt;ragger.firmware.structs</title>
<path fill="none" stroke="black" d="M1276.77,-684.3C1276,-692.02 1275.07,-701.29 1274.21,-709.89"/>
<polygon fill="black" stroke="black" points="1273.21,-719.9 1269.73,-709.5 1273.71,-714.92 1274.21,-709.95 1274.21,-709.95 1274.21,-709.95 1273.71,-714.92 1278.68,-710.39 1273.21,-719.9 1273.21,-719.9"/>
</g>
<!-- ragger.firmware.versions -->
<g id="node22" class="node">
<title>ragger.firmware.versions</title>
<polygon fill="cadetblue" stroke="cadetblue" points="1491,-828 1294,-828 1294,-792 1491,-792 1491,-828"/>
<text text-anchor="middle" x="1392.5" y="-806.3" font-family="Times,serif" font-size="14.00">ragger.firmware.versions</text>
</g>
<!-- ragger.firmware&#45;&gt;ragger.firmware.versions -->
<g id="edge33" class="edge">
<title>ragger.firmware&#45;&gt;ragger.firmware.versions</title>
<path fill="none" stroke="black" d="M1326.86,-684.16C1343.96,-692.49 1361.83,-704.2 1373.5,-720 1386.66,-737.83 1391.11,-762.83 1392.43,-781.8"/>
<polygon fill="black" stroke="black" points="1392.89,-791.9 1387.94,-782.12 1392.66,-786.91 1392.44,-781.91 1392.44,-781.91 1392.44,-781.91 1392.66,-786.91 1396.93,-781.71 1392.89,-791.9 1392.89,-791.9"/>
</g>
<!-- ragger.firmware.stax -->
<g id="node16" class="node">
<title>ragger.firmware.stax</title>
<polygon fill="cadetblue" stroke="cadetblue" points="1246,-252 1079,-252 1079,-216 1246,-216 1246,-252"/>
<text text-anchor="middle" x="1162.5" y="-230.3" font-family="Times,serif" font-size="14.00">ragger.firmware.stax</text>
</g>
<!-- ragger.firmware.stax.screen -->
<g id="node19" class="node">
<title>ragger.firmware.stax.screen</title>
<polygon fill="cadetblue" stroke="cadetblue" points="1323.5,-324 1105.5,-324 1105.5,-288 1323.5,-288 1323.5,-324"/>
<text text-anchor="middle" x="1214.5" y="-302.3" font-family="Times,serif" font-size="14.00">ragger.firmware.stax.screen</text>
</g>
<!-- ragger.firmware.stax&#45;&gt;ragger.firmware.stax.screen -->
<g id="edge34" class="edge">
<title>ragger.firmware.stax&#45;&gt;ragger.firmware.stax.screen</title>
<path fill="none" stroke="black" d="M1175.35,-252.3C1181.53,-260.61 1189.04,-270.72 1195.82,-279.86"/>
<polygon fill="black" stroke="black" points="1201.79,-287.9 1192.22,-282.55 1198.81,-283.88 1195.83,-279.87 1195.83,-279.87 1195.83,-279.87 1198.81,-283.88 1199.44,-277.18 1201.79,-287.9 1201.79,-287.9"/>
</g>
<!-- ragger.firmware.stax.layouts -->
<g id="node17" class="node">
<title>ragger.firmware.stax.layouts</title>
<polygon fill="cadetblue" stroke="cadetblue" points="1326,-396 1103,-396 1103,-360 1326,-360 1326,-396"/>
<text text-anchor="middle" x="1214.5" y="-374.3" font-family="Times,serif" font-size="14.00">ragger.firmware.stax.layouts</text>
</g>
<!-- ragger.firmware.stax.layouts&#45;&gt;ragger.backend -->
<g id="edge35" class="edge">
<title>ragger.firmware.stax.layouts&#45;&gt;ragger.backend</title>
<path fill="none" stroke="black" d="M1124.46,-396.03C1061.17,-408.01 977.53,-423.83 918.2,-435.06"/>
<polygon fill="black" stroke="black" points="908.16,-436.96 917.15,-430.68 913.07,-436.03 917.98,-435.1 917.98,-435.1 917.98,-435.1 913.07,-436.03 918.82,-439.52 908.16,-436.96 908.16,-436.96"/>
</g>
<!-- ragger.firmware.stax.layouts&#45;&gt;ragger.firmware -->
<g id="edge36" class="edge">
<title>ragger.firmware.stax.layouts&#45;&gt;ragger.firmware</title>
<path fill="none" stroke="black" d="M1234.4,-396.09C1244.05,-405.61 1254.77,-418.29 1260.5,-432 1289.56,-501.51 1285.93,-592.77 1281.75,-637.66"/>
<polygon fill="black" stroke="black" points="1280.72,-647.78 1277.25,-637.37 1281.23,-642.8 1281.73,-637.83 1281.73,-637.83 1281.73,-637.83 1281.23,-642.8 1286.21,-638.28 1280.72,-647.78 1280.72,-647.78"/>
</g>
<!-- ragger.firmware.stax.positions -->
<g id="node18" class="node">
<title>ragger.firmware.stax.positions</title>
<polygon fill="cadetblue" stroke="cadetblue" points="1548.5,-468 1312.5,-468 1312.5,-432 1548.5,-432 1548.5,-468"/>
<text text-anchor="middle" x="1430.5" y="-446.3" font-family="Times,serif" font-size="14.00">ragger.firmware.stax.positions</text>
</g>
<!-- ragger.firmware.stax.layouts&#45;&gt;ragger.firmware.stax.positions -->
<g id="edge37" class="edge">
<title>ragger.firmware.stax.layouts&#45;&gt;ragger.firmware.stax.positions</title>
<path fill="none" stroke="black" d="M1267.06,-396.03C1297.51,-405.9 1336.01,-418.38 1368,-428.75"/>
<polygon fill="black" stroke="black" points="1377.7,-431.89 1366.8,-433.09 1372.94,-430.35 1368.19,-428.81 1368.19,-428.81 1368.19,-428.81 1372.94,-430.35 1369.58,-424.53 1377.7,-431.89 1377.7,-431.89"/>
</g>
<!-- ragger.firmware.stax.positions&#45;&gt;ragger.firmware.versions -->
<g id="edge38" class="edge">
<title>ragger.firmware.stax.positions&#45;&gt;ragger.firmware.versions</title>
<path fill="none" stroke="black" d="M1430.5,-468.05C1430.5,-494.71 1430.5,-547.89 1430.5,-593 1430.5,-593 1430.5,-593 1430.5,-667 1430.5,-708.37 1415.27,-754.28 1404.09,-782.39"/>
<polygon fill="black" stroke="black" points="1400.19,-791.91 1399.82,-780.95 1402.09,-787.28 1403.98,-782.65 1403.98,-782.65 1403.98,-782.65 1402.09,-787.28 1408.15,-784.36 1400.19,-791.91 1400.19,-791.91"/>
</g>
<!-- ragger.firmware.stax.screen&#45;&gt;ragger.backend -->
<g id="edge39" class="edge">
<title>ragger.firmware.stax.screen&#45;&gt;ragger.backend</title>
<path fill="none" stroke="black" d="M1175.51,-324.01C1151.79,-334.38 1120.88,-347.92 1093.5,-360 1057.46,-375.9 1049.34,-382.05 1012.5,-396 980.5,-408.12 944.38,-419.77 913.85,-429.04"/>
<polygon fill="black" stroke="black" points="904.15,-431.97 912.42,-424.77 908.93,-430.52 913.72,-429.08 913.72,-429.08 913.72,-429.08 908.93,-430.52 915.02,-433.39 904.15,-431.97 904.15,-431.97"/>
</g>
<!-- ragger.firmware.stax.screen&#45;&gt;ragger.firmware -->
<g id="edge40" class="edge">
<title>ragger.firmware.stax.screen&#45;&gt;ragger.firmware</title>
<path fill="none" stroke="black" d="M1323.68,-308.61C1422.09,-312.41 1557.06,-324.23 1595.5,-360 1625.11,-387.55 1614.5,-408.55 1614.5,-449 1614.5,-449 1614.5,-449 1614.5,-523 1614.5,-634.93 1454.34,-659.99 1355.17,-664.78"/>
<polygon fill="black" stroke="black" points="1344.88,-665.22 1354.68,-660.3 1349.88,-665 1354.87,-664.79 1354.87,-664.79 1354.87,-664.79 1349.88,-665 1355.06,-669.29 1344.88,-665.22 1344.88,-665.22"/>
</g>
<!-- ragger.firmware.stax.screen&#45;&gt;ragger.firmware.stax.layouts -->
<g id="edge41" class="edge">
<title>ragger.firmware.stax.screen&#45;&gt;ragger.firmware.stax.layouts</title>
<path fill="none" stroke="black" d="M1214.5,-324.3C1214.5,-332.02 1214.5,-341.29 1214.5,-349.89"/>
<polygon fill="black" stroke="black" points="1214.5,-359.9 1210,-349.9 1214.5,-354.9 1214.5,-349.9 1214.5,-349.9 1214.5,-349.9 1214.5,-354.9 1219,-349.9 1214.5,-359.9 1214.5,-359.9"/>
</g>
<!-- ragger.firmware.stax.use_cases -->
<g id="node20" class="node">
<title>ragger.firmware.stax.use_cases</title>
<polygon fill="cadetblue" stroke="cadetblue" points="1586.5,-396 1344.5,-396 1344.5,-360 1586.5,-360 1586.5,-396"/>
<text text-anchor="middle" x="1465.5" y="-374.3" font-family="Times,serif" font-size="14.00">ragger.firmware.stax.use_cases</text>
</g>
<!-- ragger.firmware.stax.screen&#45;&gt;ragger.firmware.stax.use_cases -->
<g id="edge42" class="edge">
<title>ragger.firmware.stax.screen&#45;&gt;ragger.firmware.stax.use_cases</title>
<path fill="none" stroke="black" d="M1275.58,-324.03C1311.41,-334.03 1356.86,-346.7 1394.31,-357.15"/>
<polygon fill="black" stroke="black" points="1404.15,-359.89 1393.3,-361.54 1399.33,-358.55 1394.51,-357.2 1394.51,-357.2 1394.51,-357.2 1399.33,-358.55 1395.72,-352.87 1404.15,-359.89 1404.15,-359.89"/>
</g>
<!-- ragger.firmware.stax.use_cases&#45;&gt;ragger.backend -->
<g id="edge43" class="edge">
<title>ragger.firmware.stax.use_cases&#45;&gt;ragger.backend</title>
<path fill="none" stroke="black" d="M1344.18,-394.84C1340.92,-395.23 1337.69,-395.62 1334.5,-396 1187.14,-413.53 1014.55,-431.63 918.55,-441.49"/>
<polygon fill="black" stroke="black" points="908.37,-442.53 917.86,-437.03 913.34,-442.02 918.32,-441.51 918.32,-441.51 918.32,-441.51 913.34,-442.02 918.78,-445.99 908.37,-442.53 908.37,-442.53"/>
</g>
<!-- ragger.firmware.stax.use_cases&#45;&gt;ragger.firmware -->
<g id="edge44" class="edge">
<title>ragger.firmware.stax.use_cases&#45;&gt;ragger.firmware</title>
<path fill="none" stroke="black" d="M1515.59,-396.03C1531.9,-404.23 1548.18,-415.88 1557.5,-432 1565.51,-445.85 1564.86,-453.79 1557.5,-468 1510.9,-557.95 1402.24,-615.58 1335.1,-643.97"/>
<polygon fill="black" stroke="black" points="1325.51,-647.94 1333.03,-639.96 1330.13,-646.03 1334.75,-644.11 1334.75,-644.11 1334.75,-644.11 1330.13,-646.03 1336.47,-648.27 1325.51,-647.94 1325.51,-647.94"/>
</g>
<!-- ragger.firmware.stax.use_cases&#45;&gt;ragger.firmware.stax.positions -->
<g id="edge45" class="edge">
<title>ragger.firmware.stax.use_cases&#45;&gt;ragger.firmware.stax.positions</title>
<path fill="none" stroke="black" d="M1456.85,-396.3C1452.86,-404.27 1448.05,-413.9 1443.63,-422.74"/>
<polygon fill="black" stroke="black" points="1439.05,-431.9 1439.5,-420.94 1441.29,-427.42 1443.52,-422.95 1443.52,-422.95 1443.52,-422.95 1441.29,-427.42 1447.55,-424.96 1439.05,-431.9 1439.05,-431.9"/>
</g>
<!-- ragger.firmware.structs&#45;&gt;ragger.firmware.versions -->
<g id="edge46" class="edge">
<title>ragger.firmware.structs&#45;&gt;ragger.firmware.versions</title>
<path fill="none" stroke="black" d="M1301.1,-756.12C1317.07,-765.36 1336.96,-776.87 1354.11,-786.79"/>
<polygon fill="black" stroke="black" points="1362.79,-791.81 1351.88,-790.7 1358.46,-789.31 1354.13,-786.8 1354.13,-786.8 1354.13,-786.8 1358.46,-789.31 1356.38,-782.91 1362.79,-791.81 1362.79,-791.81"/>
</g>
<!-- ragger.navigator.nano_navigator -->
<g id="node25" class="node">
<title>ragger.navigator.nano_navigator</title>
<polygon fill="chartreuse" stroke="chartreuse" points="970.5,-324 722.5,-324 722.5,-288 970.5,-288 970.5,-324"/>
<text text-anchor="middle" x="846.5" y="-302.3" font-family="Times,serif" font-size="14.00">ragger.navigator.nano_navigator</text>
</g>
<!-- ragger.navigator&#45;&gt;ragger.navigator.nano_navigator -->
<g id="edge47" class="edge">
<title>ragger.navigator&#45;&gt;ragger.navigator.nano_navigator</title>
<path fill="none" stroke="black" d="M846.5,-108.15C846.5,-145.17 846.5,-232.82 846.5,-277.61"/>
<polygon fill="black" stroke="black" points="846.5,-287.77 842,-277.77 846.5,-282.77 846.5,-277.77 846.5,-277.77 846.5,-277.77 846.5,-282.77 851,-277.77 846.5,-287.77 846.5,-287.77"/>
</g>
<!-- ragger.navigator.navigator -->
<g id="node26" class="node">
<title>ragger.navigator.navigator</title>
<polygon fill="chartreuse" stroke="chartreuse" points="818,-396 611,-396 611,-360 818,-360 818,-396"/>
<text text-anchor="middle" x="714.5" y="-374.3" font-family="Times,serif" font-size="14.00">ragger.navigator.navigator</text>
</g>
<!-- ragger.navigator&#45;&gt;ragger.navigator.navigator -->
<g id="edge48" class="edge">
<title>ragger.navigator&#45;&gt;ragger.navigator.navigator</title>
<path fill="none" stroke="black" d="M829.59,-108.07C799.25,-140.07 736.56,-212.63 713.5,-288 707.37,-308.04 708.01,-331.82 709.98,-349.76"/>
<polygon fill="black" stroke="black" points="711.28,-359.83 705.53,-350.49 710.64,-354.87 710,-349.92 710,-349.92 710,-349.92 710.64,-354.87 714.46,-349.34 711.28,-359.83 711.28,-359.83"/>
</g>
<!-- ragger.navigator.stax_navigator -->
<g id="node27" class="node">
<title>ragger.navigator.stax_navigator</title>
<polygon fill="chartreuse" stroke="chartreuse" points="1120.5,-180 876.5,-180 876.5,-144 1120.5,-144 1120.5,-180"/>
<text text-anchor="middle" x="998.5" y="-158.3" font-family="Times,serif" font-size="14.00">ragger.navigator.stax_navigator</text>
</g>
<!-- ragger.navigator&#45;&gt;ragger.navigator.stax_navigator -->
<g id="edge49" class="edge">
<title>ragger.navigator&#45;&gt;ragger.navigator.stax_navigator</title>
<path fill="none" stroke="black" d="M877.79,-108.12C897.56,-117.69 923.52,-129.7 946.32,-139.85"/>
<polygon fill="black" stroke="black" points="955.55,-143.93 944.58,-144 950.97,-141.91 946.4,-139.89 946.4,-139.89 946.4,-139.89 950.97,-141.91 948.22,-135.77 955.55,-143.93 955.55,-143.93"/>
</g>
<!-- ragger.navigator.nano_navigator&#45;&gt;ragger.backend -->
<g id="edge50" class="edge">
<title>ragger.navigator.nano_navigator&#45;&gt;ragger.backend</title>
<path fill="none" stroke="black" d="M846.26,-324.13C845.92,-348.33 845.29,-392.79 844.89,-421.61"/>
<polygon fill="black" stroke="black" points="844.74,-431.81 840.38,-421.75 844.81,-426.81 844.88,-421.81 844.88,-421.81 844.88,-421.81 844.81,-426.81 849.38,-421.88 844.74,-431.81 844.74,-431.81"/>
</g>
<!-- ragger.navigator.nano_navigator&#45;&gt;ragger.firmware -->
<g id="edge51" class="edge">
<title>ragger.navigator.nano_navigator&#45;&gt;ragger.firmware</title>
<path fill="none" stroke="black" d="M912.93,-324C996.69,-348.99 1138.99,-403.9 1215.5,-504 1246.91,-545.1 1264.58,-603.83 1272.78,-637.83"/>
<polygon fill="black" stroke="black" points="1275.11,-647.94 1268.48,-639.21 1273.99,-643.07 1272.86,-638.2 1272.86,-638.2 1272.86,-638.2 1273.99,-643.07 1277.25,-637.19 1275.11,-647.94 1275.11,-647.94"/>
</g>
<!-- ragger.navigator.nano_navigator&#45;&gt;ragger.navigator.navigator -->
<g id="edge52" class="edge">
<title>ragger.navigator.nano_navigator&#45;&gt;ragger.navigator.navigator</title>
<path fill="none" stroke="black" d="M814.21,-324.12C796.63,-333.45 774.69,-345.08 755.87,-355.06"/>
<polygon fill="black" stroke="black" points="746.91,-359.81 753.64,-351.15 751.33,-357.47 755.75,-355.13 755.75,-355.13 755.75,-355.13 751.33,-357.47 757.86,-359.1 746.91,-359.81 746.91,-359.81"/>
</g>
<!-- ragger.navigator.navigator&#45;&gt;ragger.backend -->
<g id="edge53" class="edge">
<title>ragger.navigator.navigator&#45;&gt;ragger.backend</title>
<path fill="none" stroke="black" d="M746.3,-396.12C763.61,-405.45 785.22,-417.08 803.76,-427.06"/>
<polygon fill="black" stroke="black" points="812.58,-431.81 801.64,-431.03 808.17,-429.44 803.77,-427.07 803.77,-427.07 803.77,-427.07 808.17,-429.44 805.9,-423.11 812.58,-431.81 812.58,-431.81"/>
</g>
<!-- ragger.navigator.navigator&#45;&gt;ragger.firmware -->
<g id="edge54" class="edge">
<title>ragger.navigator.navigator&#45;&gt;ragger.firmware</title>
<path fill="none" stroke="black" d="M818.26,-380.17C923.85,-386.76 1086.25,-412.55 1189.5,-504 1228.18,-538.26 1205.63,-567.87 1232.5,-612 1238.45,-621.78 1246.23,-631.52 1253.7,-639.93"/>
<polygon fill="black" stroke="black" points="1260.69,-647.55 1250.61,-643.23 1257.31,-643.87 1253.93,-640.18 1253.93,-640.18 1253.93,-640.18 1257.31,-643.87 1257.24,-637.14 1260.69,-647.55 1260.69,-647.55"/>
</g>
<!-- ragger.navigator.navigator&#45;&gt;ragger.utils -->
<g id="edge55" class="edge">
<title>ragger.navigator.navigator&#45;&gt;ragger.utils</title>
<path fill="none" stroke="black" d="M610.99,-393.03C491.07,-411.66 304.53,-448.77 262.5,-504 252.81,-516.73 254.41,-526.19 262.5,-540 281.72,-572.81 375.1,-617.69 434.77,-643.79"/>
<polygon fill="black" stroke="black" points="444.04,-647.81 433.07,-647.96 439.45,-645.82 434.86,-643.83 434.86,-643.83 434.86,-643.83 439.45,-645.82 436.65,-639.7 444.04,-647.81 444.04,-647.81"/>
</g>
<!-- ragger.navigator.stax_navigator&#45;&gt;ragger.backend -->
<g id="edge56" class="edge">
<title>ragger.navigator.stax_navigator&#45;&gt;ragger.backend</title>
<path fill="none" stroke="black" d="M1000.2,-180.08C1002.47,-210.74 1003.75,-276.34 979.5,-324 957.19,-367.85 912.86,-404.18 881.08,-426.17"/>
<polygon fill="black" stroke="black" points="872.48,-431.99 878.24,-422.66 876.62,-429.18 880.76,-426.38 880.76,-426.38 880.76,-426.38 876.62,-429.18 883.28,-430.11 872.48,-431.99 872.48,-431.99"/>
</g>
<!-- ragger.navigator.stax_navigator&#45;&gt;ragger.firmware -->
<g id="edge57" class="edge">
<title>ragger.navigator.stax_navigator&#45;&gt;ragger.firmware</title>
<path fill="none" stroke="black" d="M1120.75,-164.88C1310.04,-171.16 1652.5,-197.38 1652.5,-305 1652.5,-305 1652.5,-305 1652.5,-523 1652.5,-569.97 1634.7,-586.12 1595.5,-612 1556.93,-637.46 1435.53,-652.16 1354.65,-659.37"/>
<polygon fill="black" stroke="black" points="1344.51,-660.25 1354.08,-654.9 1349.49,-659.82 1354.47,-659.39 1354.47,-659.39 1354.47,-659.39 1349.49,-659.82 1354.86,-663.87 1344.51,-660.25 1344.51,-660.25"/>
</g>
<!-- ragger.navigator.stax_navigator&#45;&gt;ragger.firmware.stax -->
<g id="edge58" class="edge">
<title>ragger.navigator.stax_navigator&#45;&gt;ragger.firmware.stax</title>
<path fill="none" stroke="black" d="M1038.62,-180.12C1061.14,-189.74 1089.42,-201.81 1113.27,-211.99"/>
<polygon fill="black" stroke="black" points="1122.51,-215.93 1111.55,-216.14 1117.91,-213.97 1113.31,-212.01 1113.31,-212.01 1113.31,-212.01 1117.91,-213.97 1115.08,-207.87 1122.51,-215.93 1122.51,-215.93"/>
</g>
<!-- ragger.navigator.stax_navigator&#45;&gt;ragger.navigator -->
<g id="edge59" class="edge">
<title>ragger.navigator.stax_navigator&#45;&gt;ragger.navigator</title>
<path fill="none" stroke="black" d="M967.33,-143.93C947.57,-134.37 921.63,-122.37 898.81,-112.21"/>
<polygon fill="black" stroke="black" points="889.58,-108.12 900.55,-108.05 894.15,-110.15 898.73,-112.17 898.73,-112.17 898.73,-112.17 894.15,-110.15 896.91,-116.28 889.58,-108.12 889.58,-108.12"/>
</g>
<!-- ragger.utils&#45;&gt;ragger.utils.misc -->
<g id="edge60" class="edge">
<title>ragger.utils&#45;&gt;ragger.utils.misc</title>
<path fill="none" stroke="black" d="M435.81,-681.08C399.24,-691.45 349.03,-705.68 308.42,-717.19"/>
<polygon fill="black" stroke="black" points="298.58,-719.97 306.97,-712.92 303.39,-718.61 308.2,-717.25 308.2,-717.25 308.2,-717.25 303.39,-718.61 309.43,-721.58 298.58,-719.97 298.58,-719.97"/>
</g>
<!-- ragger.utils.packing -->
<g id="node30" class="node">
<title>ragger.utils.packing</title>
<polygon fill="chocolate" stroke="chocolate" points="565,-756 406,-756 406,-720 565,-720 565,-756"/>
<text text-anchor="middle" x="485.5" y="-734.3" font-family="Times,serif" font-size="14.00">ragger.utils.packing</text>
</g>
<!-- ragger.utils&#45;&gt;ragger.utils.packing -->
<g id="edge61" class="edge">
<title>ragger.utils&#45;&gt;ragger.utils.packing</title>
<path fill="none" stroke="black" d="M485.5,-684.3C485.5,-692.02 485.5,-701.29 485.5,-709.89"/>
<polygon fill="black" stroke="black" points="485.5,-719.9 481,-709.9 485.5,-714.9 485.5,-709.9 485.5,-709.9 485.5,-709.9 485.5,-714.9 490,-709.9 485.5,-719.9 485.5,-719.9"/>
</g>
<!-- ragger.utils&#45;&gt;ragger.utils.structs -->
<g id="edge62" class="edge">
<title>ragger.utils&#45;&gt;ragger.utils.structs</title>
<path fill="none" stroke="black" d="M535.19,-678.95C579.27,-689.56 644.45,-705.24 695.97,-717.63"/>
<polygon fill="black" stroke="black" points="705.75,-719.98 694.97,-722.02 700.88,-718.81 696.02,-717.64 696.02,-717.64 696.02,-717.64 700.88,-718.81 697.08,-713.27 705.75,-719.98 705.75,-719.98"/>
</g>
<!-- ragger.utils.misc&#45;&gt;ragger.error -->
<g id="edge63" class="edge">
<title>ragger.utils.misc&#45;&gt;ragger.error</title>
<path fill="none" stroke="black" d="M250.61,-756.3C256.37,-764.53 263.36,-774.52 269.71,-783.58"/>
<polygon fill="black" stroke="black" points="275.53,-791.9 266.11,-786.28 272.66,-787.8 269.79,-783.7 269.79,-783.7 269.79,-783.7 272.66,-787.8 273.48,-781.12 275.53,-791.9 275.53,-791.9"/>
</g>
</g>
</svg>
