<?xml version="1.0" encoding="UTF-8" standalone="no"?>
<!DOCTYPE svg PUBLIC "-//W3C//DTD SVG 1.1//EN"
 "http://www.w3.org/Graphics/SVG/1.1/DTD/svg11.dtd">
<!-- Generated by graphviz version 2.43.0 (0)
 -->
<!-- Title: packages_generated_ragger_architecture Pages: 1 -->
<svg width="2760pt" height="980pt"
 viewBox="0.00 0.00 2760.00 980.00" xmlns="http://www.w3.org/2000/svg" xmlns:xlink="http://www.w3.org/1999/xlink">
<g id="graph0" class="graph" transform="scale(1 1) rotate(0) translate(4 976)">
<title>packages_generated_ragger_architecture</title>
<polygon fill="white" stroke="transparent" points="-4,4 -4,-976 2756,-976 2756,4 -4,4"/>
<!-- ragger -->
<g id="node1" class="node">
<title>ragger</title>
<polygon fill="#77aadd" stroke="#77aadd" points="106,-36 41,-36 41,0 106,0 106,-36"/>
<text text-anchor="middle" x="73.5" y="-14.3" font-family="Times,serif" font-size="14.00">ragger</text>
</g>
<!-- ragger.__version__ -->
<g id="node2" class="node">
<title>ragger.__version__</title>
<polygon fill="#77aadd" stroke="#77aadd" points="147,-108 0,-108 0,-72 147,-72 147,-108"/>
<text text-anchor="middle" x="73.5" y="-86.3" font-family="Times,serif" font-size="14.00">ragger.__version__</text>
</g>
<!-- ragger&#45;&gt;ragger.__version__ -->
<g id="edge1" class="edge">
<title>ragger&#45;&gt;ragger.__version__</title>
<path fill="none" stroke="black" d="M73.5,-36.3C73.5,-44.02 73.5,-53.29 73.5,-61.89"/>
<polygon fill="black" stroke="black" points="73.5,-71.9 69,-61.9 73.5,-66.9 73.5,-61.9 73.5,-61.9 73.5,-61.9 73.5,-66.9 78,-61.9 73.5,-71.9 73.5,-71.9"/>
</g>
<!-- ragger.backend -->
<g id="node3" class="node">
<title>ragger.backend</title>
<polygon fill="#99ddff" stroke="#99ddff" points="1271,-540 1144,-540 1144,-504 1271,-504 1271,-540"/>
<text text-anchor="middle" x="1207.5" y="-518.3" font-family="Times,serif" font-size="14.00">ragger.backend</text>
</g>
<!-- ragger.backend.interface -->
<g id="node4" class="node">
<title>ragger.backend.interface</title>
<polygon fill="#99ddff" stroke="#99ddff" points="1041,-756 846,-756 846,-720 1041,-720 1041,-756"/>
<text text-anchor="middle" x="943.5" y="-734.3" font-family="Times,serif" font-size="14.00">ragger.backend.interface</text>
</g>
<!-- ragger.backend&#45;&gt;ragger.backend.interface -->
<g id="edge2" class="edge">
<title>ragger.backend&#45;&gt;ragger.backend.interface</title>
<path fill="none" stroke="black" d="M1143.89,-524.84C1062.75,-531.07 925.72,-555.57 865.5,-648 856.77,-661.41 858.01,-669.86 865.5,-684 872.1,-696.46 883.08,-706.53 894.75,-714.41"/>
<polygon fill="black" stroke="black" points="903.32,-719.77 892.45,-718.29 899.08,-717.12 894.84,-714.47 894.84,-714.47 894.84,-714.47 899.08,-717.12 897.23,-710.65 903.32,-719.77 903.32,-719.77"/>
</g>
<!-- ragger.backend.ledgercomm -->
<g id="node5" class="node">
<title>ragger.backend.ledgercomm</title>
<polygon fill="#99ddff" stroke="#99ddff" points="1312.5,-612 1092.5,-612 1092.5,-576 1312.5,-576 1312.5,-612"/>
<text text-anchor="middle" x="1202.5" y="-590.3" font-family="Times,serif" font-size="14.00">ragger.backend.ledgercomm</text>
</g>
<!-- ragger.backend&#45;&gt;ragger.backend.ledgercomm -->
<g id="edge3" class="edge">
<title>ragger.backend&#45;&gt;ragger.backend.ledgercomm</title>
<path fill="none" stroke="black" d="M1206.26,-540.3C1205.71,-548.02 1205.05,-557.29 1204.44,-565.89"/>
<polygon fill="black" stroke="black" points="1203.72,-575.9 1199.95,-565.6 1204.08,-570.91 1204.43,-565.92 1204.43,-565.92 1204.43,-565.92 1204.08,-570.91 1208.92,-566.24 1203.72,-575.9 1203.72,-575.9"/>
</g>
<!-- ragger.backend.ledgerwallet -->
<g id="node6" class="node">
<title>ragger.backend.ledgerwallet</title>
<polygon fill="#99ddff" stroke="#99ddff" points="1570,-612 1349,-612 1349,-576 1570,-576 1570,-612"/>
<text text-anchor="middle" x="1459.5" y="-590.3" font-family="Times,serif" font-size="14.00">ragger.backend.ledgerwallet</text>
</g>
<!-- ragger.backend&#45;&gt;ragger.backend.ledgerwallet -->
<g id="edge4" class="edge">
<title>ragger.backend&#45;&gt;ragger.backend.ledgerwallet</title>
<path fill="none" stroke="black" d="M1268.82,-540.03C1304.8,-550.03 1350.43,-562.7 1388.03,-573.15"/>
<polygon fill="black" stroke="black" points="1397.9,-575.89 1387.06,-577.55 1393.08,-574.55 1388.27,-573.21 1388.27,-573.21 1388.27,-573.21 1393.08,-574.55 1389.47,-568.88 1397.9,-575.89 1397.9,-575.89"/>
</g>
<!-- ragger.backend.speculos -->
<g id="node8" class="node">
<title>ragger.backend.speculos</title>
<polygon fill="#99ddff" stroke="#99ddff" points="1068,-684 875,-684 875,-648 1068,-648 1068,-684"/>
<text text-anchor="middle" x="971.5" y="-662.3" font-family="Times,serif" font-size="14.00">ragger.backend.speculos</text>
</g>
<!-- ragger.backend&#45;&gt;ragger.backend.speculos -->
<g id="edge5" class="edge">
<title>ragger.backend&#45;&gt;ragger.backend.speculos</title>
<path fill="none" stroke="black" d="M1159.53,-540.03C1135.91,-549.28 1107.43,-561.73 1083.5,-576 1051.77,-594.92 1019.11,-621.9 997.3,-641.18"/>
<polygon fill="black" stroke="black" points="989.78,-647.91 994.23,-637.89 993.51,-644.58 997.23,-641.24 997.23,-641.24 997.23,-641.24 993.51,-644.58 1000.23,-644.6 989.78,-647.91 989.78,-647.91"/>
</g>
<!-- ragger.backend.stub -->
<g id="node9" class="node">
<title>ragger.backend.stub</title>
<polygon fill="#99ddff" stroke="#99ddff" points="1676,-684 1513,-684 1513,-648 1676,-648 1676,-684"/>
<text text-anchor="middle" x="1594.5" y="-662.3" font-family="Times,serif" font-size="14.00">ragger.backend.stub</text>
</g>
<!-- ragger.backend&#45;&gt;ragger.backend.stub -->
<g id="edge6" class="edge">
<title>ragger.backend&#45;&gt;ragger.backend.stub</title>
<path fill="none" stroke="black" d="M1271.12,-523.4C1365.42,-525.4 1535.77,-534.78 1578.5,-576 1594.78,-591.71 1597.8,-617.93 1597.33,-637.85"/>
<polygon fill="black" stroke="black" points="1596.8,-647.89 1592.84,-637.66 1597.07,-642.9 1597.33,-637.9 1597.33,-637.9 1597.33,-637.9 1597.07,-642.9 1601.83,-638.14 1596.8,-647.89 1596.8,-647.89"/>
</g>
<!-- ragger.error -->
<g id="node16" class="node">
<title>ragger.error</title>
<polygon fill="#77aadd" stroke="#77aadd" points="1460.5,-972 1356.5,-972 1356.5,-936 1460.5,-936 1460.5,-972"/>
<text text-anchor="middle" x="1408.5" y="-950.3" font-family="Times,serif" font-size="14.00">ragger.error</text>
</g>
<!-- ragger.backend.interface&#45;&gt;ragger.error -->
<g id="edge7" class="edge">
<title>ragger.backend.interface&#45;&gt;ragger.error</title>
<path fill="none" stroke="black" d="M959.28,-756.03C991.2,-789.35 1067.16,-863.13 1146.5,-900 1210.65,-929.81 1291.29,-942.91 1346.04,-948.63"/>
<polygon fill="black" stroke="black" points="1356.3,-949.65 1345.9,-953.14 1351.32,-949.16 1346.34,-948.66 1346.34,-948.66 1346.34,-948.66 1351.32,-949.16 1346.79,-944.19 1356.3,-949.65 1356.3,-949.65"/>
</g>
<!-- ragger.firmware -->
<g id="node17" class="node">
<title>ragger.firmware</title>
<polygon fill="#aaaa00" stroke="#aaaa00" points="389.5,-828 257.5,-828 257.5,-792 389.5,-792 389.5,-828"/>
<text text-anchor="middle" x="323.5" y="-806.3" font-family="Times,serif" font-size="14.00">ragger.firmware</text>
</g>
<!-- ragger.backend.interface&#45;&gt;ragger.firmware -->
<g id="edge8" class="edge">
<title>ragger.backend.interface&#45;&gt;ragger.firmware</title>
<path fill="none" stroke="black" d="M845.73,-748.22C744.47,-758.02 581.73,-774.5 441.5,-792 427.95,-793.69 413.54,-795.64 399.62,-797.6"/>
<polygon fill="black" stroke="black" points="389.59,-799.03 398.86,-793.16 394.54,-798.32 399.49,-797.62 399.49,-797.62 399.49,-797.62 394.54,-798.32 400.13,-802.07 389.59,-799.03 389.59,-799.03"/>
</g>
<!-- ragger.logger -->
<g id="node28" class="node">
<title>ragger.logger</title>
<polygon fill="#77aadd" stroke="#77aadd" points="512,-972 399,-972 399,-936 512,-936 512,-972"/>
<text text-anchor="middle" x="455.5" y="-950.3" font-family="Times,serif" font-size="14.00">ragger.logger</text>
</g>
<!-- ragger.backend.interface&#45;&gt;ragger.logger -->
<g id="edge9" class="edge">
<title>ragger.backend.interface&#45;&gt;ragger.logger</title>
<path fill="none" stroke="black" d="M845.84,-743.59C715.85,-750.67 499.29,-766.19 473.5,-792 438.64,-826.89 443.09,-889.53 449.36,-925.52"/>
<polygon fill="black" stroke="black" points="451.32,-935.78 445.02,-926.8 450.38,-930.87 449.44,-925.96 449.44,-925.96 449.44,-925.96 450.38,-930.87 453.86,-925.11 451.32,-935.78 451.32,-935.78"/>
</g>
<!-- ragger.utils -->
<g id="node37" class="node">
<title>ragger.utils</title>
<polygon fill="#dddddd" stroke="#dddddd" points="1550,-828 1451,-828 1451,-792 1550,-792 1550,-828"/>
<text text-anchor="middle" x="1500.5" y="-806.3" font-family="Times,serif" font-size="14.00">ragger.utils</text>
</g>
<!-- ragger.backend.interface&#45;&gt;ragger.utils -->
<g id="edge10" class="edge">
<title>ragger.backend.interface&#45;&gt;ragger.utils</title>
<path fill="none" stroke="black" d="M1041.16,-751.27C1156.61,-765.78 1345.09,-789.47 1440.75,-801.49"/>
<polygon fill="black" stroke="black" points="1450.83,-802.76 1440.35,-805.98 1445.87,-802.13 1440.91,-801.51 1440.91,-801.51 1440.91,-801.51 1445.87,-802.13 1441.47,-797.05 1450.83,-802.76 1450.83,-802.76"/>
</g>
<!-- ragger.backend.ledgercomm&#45;&gt;ragger.backend.ledgercomm -->
<g id="edge11" class="edge">
<title>ragger.backend.ledgercomm&#45;&gt;ragger.backend.ledgercomm</title>
<path fill="none" stroke="black" d="M1312.65,-582.99C1323.56,-585.2 1330.5,-588.87 1330.5,-594 1330.5,-597.37 1327.51,-600.11 1322.37,-602.21"/>
<polygon fill="black" stroke="black" points="1312.65,-605.01 1321.02,-597.92 1317.46,-603.63 1322.26,-602.25 1322.26,-602.25 1322.26,-602.25 1317.46,-603.63 1323.51,-606.57 1312.65,-605.01 1312.65,-605.01"/>
</g>
<!-- ragger.backend.physical_backend -->
<g id="node7" class="node">
<title>ragger.backend.physical_backend</title>
<polygon fill="#99ddff" stroke="#99ddff" points="1342.5,-684 1086.5,-684 1086.5,-648 1342.5,-648 1342.5,-684"/>
<text text-anchor="middle" x="1214.5" y="-662.3" font-family="Times,serif" font-size="14.00">ragger.backend.physical_backend</text>
</g>
<!-- ragger.backend.ledgercomm&#45;&gt;ragger.backend.physical_backend -->
<g id="edge12" class="edge">
<title>ragger.backend.ledgercomm&#45;&gt;ragger.backend.physical_backend</title>
<path fill="none" stroke="black" d="M1205.47,-612.3C1206.79,-620.02 1208.38,-629.29 1209.85,-637.89"/>
<polygon fill="black" stroke="black" points="1211.57,-647.9 1205.44,-638.8 1210.72,-642.97 1209.88,-638.04 1209.88,-638.04 1209.88,-638.04 1210.72,-642.97 1214.31,-637.28 1211.57,-647.9 1211.57,-647.9"/>
</g>
<!-- ragger.backend.ledgercomm&#45;&gt;ragger.error -->
<g id="edge13" class="edge">
<title>ragger.backend.ledgercomm&#45;&gt;ragger.error</title>
<path fill="none" stroke="black" d="M1296.03,-612.14C1316.79,-619.97 1336.93,-631.38 1351.5,-648 1378.16,-678.42 1370.5,-696.55 1370.5,-737 1370.5,-737 1370.5,-737 1370.5,-811 1370.5,-852.37 1385.73,-898.28 1396.91,-926.39"/>
<polygon fill="black" stroke="black" points="1400.81,-935.91 1392.85,-928.36 1398.91,-931.28 1397.02,-926.65 1397.02,-926.65 1397.02,-926.65 1398.91,-931.28 1401.18,-924.95 1400.81,-935.91 1400.81,-935.91"/>
</g>
<!-- ragger.backend.ledgercomm&#45;&gt;ragger.utils -->
<g id="edge14" class="edge">
<title>ragger.backend.ledgercomm&#45;&gt;ragger.utils</title>
<path fill="none" stroke="black" d="M1304.68,-612.07C1332.27,-619.94 1360.98,-631.39 1384.5,-648 1434.27,-683.15 1470.64,-746.58 1488.37,-782.44"/>
<polygon fill="black" stroke="black" points="1492.87,-791.77 1484.47,-784.72 1490.7,-787.27 1488.53,-782.77 1488.53,-782.77 1488.53,-782.77 1490.7,-787.27 1492.58,-780.81 1492.87,-791.77 1492.87,-791.77"/>
</g>
<!-- ragger.backend.ledgerwallet&#45;&gt;ragger.backend.physical_backend -->
<g id="edge15" class="edge">
<title>ragger.backend.ledgerwallet&#45;&gt;ragger.backend.physical_backend</title>
<path fill="none" stroke="black" d="M1399.88,-612.03C1365.05,-621.99 1320.92,-634.59 1284.46,-645.01"/>
<polygon fill="black" stroke="black" points="1274.39,-647.89 1282.77,-640.82 1279.2,-646.52 1284,-645.14 1284,-645.14 1284,-645.14 1279.2,-646.52 1285.24,-649.47 1274.39,-647.89 1274.39,-647.89"/>
</g>
<!-- ragger.backend.ledgerwallet&#45;&gt;ragger.error -->
<g id="edge16" class="edge">
<title>ragger.backend.ledgerwallet&#45;&gt;ragger.error</title>
<path fill="none" stroke="black" d="M1457.04,-612.27C1448.84,-669.81 1422.41,-855.34 1412.4,-925.65"/>
<polygon fill="black" stroke="black" points="1410.94,-935.91 1407.89,-925.37 1411.64,-930.96 1412.35,-926.01 1412.35,-926.01 1412.35,-926.01 1411.64,-930.96 1416.8,-926.64 1410.94,-935.91 1410.94,-935.91"/>
</g>
<!-- ragger.backend.ledgerwallet&#45;&gt;ragger.utils -->
<g id="edge17" class="edge">
<title>ragger.backend.ledgerwallet&#45;&gt;ragger.utils</title>
<path fill="none" stroke="black" d="M1462.79,-612.15C1469.89,-649.25 1486.74,-737.19 1495.31,-781.9"/>
<polygon fill="black" stroke="black" points="1497.2,-791.77 1490.9,-782.79 1496.26,-786.86 1495.32,-781.95 1495.32,-781.95 1495.32,-781.95 1496.26,-786.86 1499.74,-781.1 1497.2,-791.77 1497.2,-791.77"/>
</g>
<!-- ragger.backend.physical_backend&#45;&gt;ragger.backend.interface -->
<g id="edge18" class="edge">
<title>ragger.backend.physical_backend&#45;&gt;ragger.backend.interface</title>
<path fill="none" stroke="black" d="M1148.55,-684.03C1109.62,-694.09 1060.17,-706.86 1019.59,-717.35"/>
<polygon fill="black" stroke="black" points="1009.74,-719.89 1018.3,-713.03 1014.58,-718.64 1019.43,-717.39 1019.43,-717.39 1019.43,-717.39 1014.58,-718.64 1020.55,-721.75 1009.74,-719.89 1009.74,-719.89"/>
</g>
<!-- ragger.gui -->
<g id="node25" class="node">
<title>ragger.gui</title>
<polygon fill="#eedd88" stroke="#eedd88" points="1186.5,-756 1096.5,-756 1096.5,-720 1186.5,-720 1186.5,-756"/>
<text text-anchor="middle" x="1141.5" y="-734.3" font-family="Times,serif" font-size="14.00">ragger.gui</text>
</g>
<!-- ragger.backend.physical_backend&#45;&gt;ragger.gui -->
<g id="edge19" class="edge">
<title>ragger.backend.physical_backend&#45;&gt;ragger.gui</title>
<path fill="none" stroke="black" d="M1196.46,-684.3C1187.44,-692.95 1176.38,-703.55 1166.56,-712.97"/>
<polygon fill="black" stroke="black" points="1159.34,-719.9 1163.44,-709.73 1162.95,-716.44 1166.56,-712.97 1166.56,-712.97 1166.56,-712.97 1162.95,-716.44 1169.67,-716.22 1159.34,-719.9 1159.34,-719.9"/>
</g>
<!-- ragger.navigator.instruction -->
<g id="node30" class="node">
<title>ragger.navigator.instruction</title>
<polygon fill="#ee8866" stroke="#ee8866" points="915,-900 698,-900 698,-864 915,-864 915,-900"/>
<text text-anchor="middle" x="806.5" y="-878.3" font-family="Times,serif" font-size="14.00">ragger.navigator.instruction</text>
</g>
<!-- ragger.backend.physical_backend&#45;&gt;ragger.navigator.instruction -->
<g id="edge20" class="edge">
<title>ragger.backend.physical_backend&#45;&gt;ragger.navigator.instruction</title>
<path fill="none" stroke="black" d="M1215.62,-684.34C1215.92,-704.13 1213.3,-736.31 1195.5,-756 1126.9,-831.87 1012.17,-861.93 925.03,-873.71"/>
<polygon fill="black" stroke="black" points="915.09,-875 924.43,-869.25 920.05,-874.36 925,-873.72 925,-873.72 925,-873.72 920.05,-874.36 925.58,-878.18 915.09,-875 915.09,-875"/>
</g>
<!-- ragger.backend.physical_backend&#45;&gt;ragger.utils -->
<g id="edge21" class="edge">
<title>ragger.backend.physical_backend&#45;&gt;ragger.utils</title>
<path fill="none" stroke="black" d="M1249,-684.13C1301.07,-709.98 1399.71,-758.96 1456.75,-787.28"/>
<polygon fill="black" stroke="black" points="1465.88,-791.81 1454.92,-791.39 1461.4,-789.59 1456.92,-787.36 1456.92,-787.36 1456.92,-787.36 1461.4,-789.59 1458.92,-783.33 1465.88,-791.81 1465.88,-791.81"/>
</g>
<!-- ragger.backend.speculos&#45;&gt;ragger.backend.interface -->
<g id="edge22" class="edge">
<title>ragger.backend.speculos&#45;&gt;ragger.backend.interface</title>
<path fill="none" stroke="black" d="M964.58,-684.3C961.43,-692.19 957.62,-701.7 954.12,-710.45"/>
<polygon fill="black" stroke="black" points="950.34,-719.9 949.88,-708.94 952.2,-715.25 954.06,-710.61 954.06,-710.61 954.06,-710.61 952.2,-715.25 958.23,-712.28 950.34,-719.9 950.34,-719.9"/>
</g>
<!-- ragger.backend.speculos&#45;&gt;ragger.error -->
<g id="edge23" class="edge">
<title>ragger.backend.speculos&#45;&gt;ragger.error</title>
<path fill="none" stroke="black" d="M998.98,-684.12C1014.28,-694.03 1033.43,-707.07 1049.5,-720 1067.62,-734.59 1069.04,-741.84 1087.5,-756 1181.7,-828.27 1303.75,-897.12 1366.76,-931.05"/>
<polygon fill="black" stroke="black" points="1375.62,-935.8 1364.68,-935.04 1371.21,-933.44 1366.81,-931.08 1366.81,-931.08 1366.81,-931.08 1371.21,-933.44 1368.93,-927.11 1375.62,-935.8 1375.62,-935.8"/>
</g>
<!-- ragger.backend.speculos&#45;&gt;ragger.logger -->
<g id="edge24" class="edge">
<title>ragger.backend.speculos&#45;&gt;ragger.logger</title>
<path fill="none" stroke="black" d="M874.91,-676.95C739.87,-692.97 504.93,-729.21 449.5,-792 416.98,-828.83 431.92,-890.92 444.49,-926.27"/>
<polygon fill="black" stroke="black" points="448.1,-935.9 440.38,-928.11 446.34,-931.22 444.59,-926.54 444.59,-926.54 444.59,-926.54 446.34,-931.22 448.81,-924.96 448.1,-935.9 448.1,-935.9"/>
</g>
<!-- ragger.backend.speculos&#45;&gt;ragger.utils -->
<g id="edge25" class="edge">
<title>ragger.backend.speculos&#45;&gt;ragger.utils</title>
<path fill="none" stroke="black" d="M1047.69,-684C1091.14,-693.95 1146.53,-707.07 1195.5,-720 1201.58,-721.61 1353.94,-766.14 1440.97,-791.59"/>
<polygon fill="black" stroke="black" points="1450.73,-794.44 1439.87,-795.95 1445.93,-793.04 1441.13,-791.63 1441.13,-791.63 1441.13,-791.63 1445.93,-793.04 1442.39,-787.31 1450.73,-794.44 1450.73,-794.44"/>
</g>
<!-- ragger.backend.stub&#45;&gt;ragger.backend.interface -->
<g id="edge26" class="edge">
<title>ragger.backend.stub&#45;&gt;ragger.backend.interface</title>
<path fill="none" stroke="black" d="M1512.8,-675.2C1412.57,-685.34 1237.47,-703.31 1087.5,-720 1075.77,-721.31 1063.51,-722.7 1051.31,-724.11"/>
<polygon fill="black" stroke="black" points="1041.08,-725.3 1050.49,-719.68 1046.05,-724.72 1051.01,-724.15 1051.01,-724.15 1051.01,-724.15 1046.05,-724.72 1051.53,-728.62 1041.08,-725.3 1041.08,-725.3"/>
</g>
<!-- ragger.backend.stub&#45;&gt;ragger.error -->
<g id="edge27" class="edge">
<title>ragger.backend.stub&#45;&gt;ragger.error</title>
<path fill="none" stroke="black" d="M1625.96,-684.14C1694.08,-723.35 1843.89,-822.21 1776.5,-900 1737.7,-944.79 1565.24,-952.59 1470.82,-953.43"/>
<polygon fill="black" stroke="black" points="1460.54,-953.49 1470.51,-948.93 1465.54,-953.46 1470.54,-953.43 1470.54,-953.43 1470.54,-953.43 1465.54,-953.46 1470.57,-957.93 1460.54,-953.49 1460.54,-953.49"/>
</g>
<!-- ragger.utils.structs -->
<g id="node40" class="node">
<title>ragger.utils.structs</title>
<polygon fill="#dddddd" stroke="#dddddd" points="1767.5,-900 1613.5,-900 1613.5,-864 1767.5,-864 1767.5,-900"/>
<text text-anchor="middle" x="1690.5" y="-878.3" font-family="Times,serif" font-size="14.00">ragger.utils.structs</text>
</g>
<!-- ragger.backend.stub&#45;&gt;ragger.utils.structs -->
<g id="edge28" class="edge">
<title>ragger.backend.stub&#45;&gt;ragger.utils.structs</title>
<path fill="none" stroke="black" d="M1602.19,-684.15C1618.91,-721.4 1658.62,-809.93 1678.59,-854.46"/>
<polygon fill="black" stroke="black" points="1682.77,-863.77 1674.57,-856.49 1680.72,-859.21 1678.68,-854.64 1678.68,-854.64 1678.68,-854.64 1680.72,-859.21 1682.78,-852.8 1682.77,-863.77 1682.77,-863.77"/>
</g>
<!-- ragger.bip -->
<g id="node10" class="node">
<title>ragger.bip</title>
<polygon fill="#44bb99" stroke="#44bb99" points="2199.5,-36 2109.5,-36 2109.5,0 2199.5,0 2199.5,-36"/>
<text text-anchor="middle" x="2154.5" y="-14.3" font-family="Times,serif" font-size="14.00">ragger.bip</text>
</g>
<!-- ragger.bip.path -->
<g id="node11" class="node">
<title>ragger.bip.path</title>
<polygon fill="#44bb99" stroke="#44bb99" points="2145,-108 2018,-108 2018,-72 2145,-72 2145,-108"/>
<text text-anchor="middle" x="2081.5" y="-86.3" font-family="Times,serif" font-size="14.00">ragger.bip.path</text>
</g>
<!-- ragger.bip&#45;&gt;ragger.bip.path -->
<g id="edge29" class="edge">
<title>ragger.bip&#45;&gt;ragger.bip.path</title>
<path fill="none" stroke="black" d="M2136.46,-36.3C2127.44,-44.95 2116.38,-55.55 2106.56,-64.97"/>
<polygon fill="black" stroke="black" points="2099.34,-71.9 2103.44,-61.73 2102.95,-68.44 2106.56,-64.97 2106.56,-64.97 2106.56,-64.97 2102.95,-68.44 2109.67,-68.22 2099.34,-71.9 2099.34,-71.9"/>
</g>
<!-- ragger.bip.seed -->
<g id="node12" class="node">
<title>ragger.bip.seed</title>
<polygon fill="#44bb99" stroke="#44bb99" points="2291.5,-108 2163.5,-108 2163.5,-72 2291.5,-72 2291.5,-108"/>
<text text-anchor="middle" x="2227.5" y="-86.3" font-family="Times,serif" font-size="14.00">ragger.bip.seed</text>
</g>
<!-- ragger.bip&#45;&gt;ragger.bip.seed -->
<g id="edge30" class="edge">
<title>ragger.bip&#45;&gt;ragger.bip.seed</title>
<path fill="none" stroke="black" d="M2172.54,-36.3C2181.56,-44.95 2192.62,-55.55 2202.44,-64.97"/>
<polygon fill="black" stroke="black" points="2209.66,-71.9 2199.33,-68.22 2206.05,-68.44 2202.44,-64.97 2202.44,-64.97 2202.44,-64.97 2206.05,-68.44 2205.56,-61.73 2209.66,-71.9 2209.66,-71.9"/>
</g>
<!-- ragger.conftest -->
<g id="node13" class="node">
<title>ragger.conftest</title>
<polygon fill="#bbcc33" stroke="#bbcc33" points="2343,-36 2218,-36 2218,0 2343,0 2343,-36"/>
<text text-anchor="middle" x="2280.5" y="-14.3" font-family="Times,serif" font-size="14.00">ragger.conftest</text>
</g>
<!-- ragger.conftest.base_conftest -->
<g id="node14" class="node">
<title>ragger.conftest.base_conftest</title>
<polygon fill="#bbcc33" stroke="#bbcc33" points="1875,-36 1648,-36 1648,0 1875,0 1875,-36"/>
<text text-anchor="middle" x="1761.5" y="-14.3" font-family="Times,serif" font-size="14.00">ragger.conftest.base_conftest</text>
</g>
<!-- ragger.conftest.base_conftest&#45;&gt;ragger.backend -->
<g id="edge31" class="edge">
<title>ragger.conftest.base_conftest&#45;&gt;ragger.backend</title>
<path fill="none" stroke="black" d="M1757.66,-36.39C1752.1,-63.06 1742.5,-115.73 1742.5,-161 1742.5,-161 1742.5,-161 1742.5,-379 1742.5,-473.26 1428.36,-506.44 1281.51,-516.8"/>
<polygon fill="black" stroke="black" points="1271.24,-517.51 1280.9,-512.33 1276.23,-517.17 1281.21,-516.82 1281.21,-516.82 1281.21,-516.82 1276.23,-517.17 1281.52,-521.31 1271.24,-517.51 1271.24,-517.51"/>
</g>
<!-- ragger.conftest.base_conftest&#45;&gt;ragger.error -->
<g id="edge32" class="edge">
<title>ragger.conftest.base_conftest&#45;&gt;ragger.error</title>
<path fill="none" stroke="black" d="M1847.05,-36.08C1911.74,-54.57 1989.5,-91.28 1989.5,-161 1989.5,-161 1989.5,-161 1989.5,-811 1989.5,-851.54 1999.93,-873.21 1969.5,-900 1932.7,-932.4 1609.48,-946.56 1471.02,-951.18"/>
<polygon fill="black" stroke="black" points="1460.98,-951.5 1470.82,-946.68 1465.97,-951.34 1470.97,-951.18 1470.97,-951.18 1470.97,-951.18 1465.97,-951.34 1471.12,-955.67 1460.98,-951.5 1460.98,-951.5"/>
</g>
<!-- ragger.conftest.base_conftest&#45;&gt;ragger.firmware -->
<g id="edge33" class="edge">
<title>ragger.conftest.base_conftest&#45;&gt;ragger.firmware</title>
<path fill="none" stroke="black" d="M1647.9,-18.59C1312.77,-18.86 351.5,-30.99 351.5,-161 351.5,-161 351.5,-161 351.5,-667 351.5,-707.73 340.27,-753.81 332.04,-782.14"/>
<polygon fill="black" stroke="black" points="329.17,-791.73 327.72,-780.86 330.6,-786.94 332.04,-782.15 332.04,-782.15 332.04,-782.15 330.6,-786.94 336.35,-783.44 329.17,-791.73 329.17,-791.73"/>
</g>
<!-- ragger.conftest.base_conftest&#45;&gt;ragger.logger -->
<g id="edge34" class="edge">
<title>ragger.conftest.base_conftest&#45;&gt;ragger.logger</title>
<path fill="none" stroke="black" d="M1647.89,-19.07C1369.01,-19.94 656.48,-26.69 423.5,-72 308.55,-94.35 175.5,-43.9 175.5,-161 175.5,-161 175.5,-161 175.5,-811 175.5,-851.36 164.96,-871.46 193.5,-900 220.38,-926.88 320.17,-941.06 388.53,-947.79"/>
<polygon fill="black" stroke="black" points="398.8,-948.77 388.42,-952.3 393.82,-948.29 388.84,-947.82 388.84,-947.82 388.84,-947.82 393.82,-948.29 389.27,-943.34 398.8,-948.77 398.8,-948.77"/>
</g>
<!-- ragger.navigator -->
<g id="node29" class="node">
<title>ragger.navigator</title>
<polygon fill="#ee8866" stroke="#ee8866" points="1435.5,-108 1299.5,-108 1299.5,-72 1435.5,-72 1435.5,-108"/>
<text text-anchor="middle" x="1367.5" y="-86.3" font-family="Times,serif" font-size="14.00">ragger.navigator</text>
</g>
<!-- ragger.conftest.base_conftest&#45;&gt;ragger.navigator -->
<g id="edge35" class="edge">
<title>ragger.conftest.base_conftest&#45;&gt;ragger.navigator</title>
<path fill="none" stroke="black" d="M1665.62,-36.03C1598.05,-48.04 1508.71,-63.91 1445.5,-75.14"/>
<polygon fill="black" stroke="black" points="1435.59,-76.9 1444.65,-70.72 1440.52,-76.03 1445.44,-75.15 1445.44,-75.15 1445.44,-75.15 1440.52,-76.03 1446.23,-79.58 1435.59,-76.9 1435.59,-76.9"/>
</g>
<!-- ragger.conftest.base_conftest&#45;&gt;ragger.utils -->
<g id="edge36" class="edge">
<title>ragger.conftest.base_conftest&#45;&gt;ragger.utils</title>
<path fill="none" stroke="black" d="M1765.34,-36.39C1770.9,-63.06 1780.5,-115.73 1780.5,-161 1780.5,-161 1780.5,-161 1780.5,-595 1780.5,-705.09 1642.17,-766.14 1559.97,-792.71"/>
<polygon fill="black" stroke="black" points="1550.24,-795.78 1558.42,-788.48 1555,-794.27 1559.77,-792.77 1559.77,-792.77 1559.77,-792.77 1555,-794.27 1561.13,-797.06 1550.24,-795.78 1550.24,-795.78"/>
</g>
<!-- ragger.utils.misc -->
<g id="node38" class="node">
<title>ragger.utils.misc</title>
<polygon fill="#dddddd" stroke="#dddddd" points="1961,-900 1824,-900 1824,-864 1961,-864 1961,-900"/>
<text text-anchor="middle" x="1892.5" y="-878.3" font-family="Times,serif" font-size="14.00">ragger.utils.misc</text>
</g>
<!-- ragger.conftest.base_conftest&#45;&gt;ragger.utils.misc -->
<g id="edge37" class="edge">
<title>ragger.conftest.base_conftest&#45;&gt;ragger.utils.misc</title>
<path fill="none" stroke="black" d="M1788.28,-36.09C1821.7,-59.75 1874.5,-105.86 1874.5,-161 1874.5,-161 1874.5,-161 1874.5,-739 1874.5,-779.1 1881.65,-825.08 1886.94,-853.58"/>
<polygon fill="black" stroke="black" points="1888.86,-863.6 1882.56,-854.62 1887.92,-858.69 1886.98,-853.78 1886.98,-853.78 1886.98,-853.78 1887.92,-858.69 1891.4,-852.93 1888.86,-863.6 1888.86,-863.6"/>
</g>
<!-- ragger.conftest.base_conftest&#45;&gt;ragger.utils.structs -->
<g id="edge38" class="edge">
<title>ragger.conftest.base_conftest&#45;&gt;ragger.utils.structs</title>
<path fill="none" stroke="black" d="M1773.31,-36.04C1790.01,-61.84 1818.5,-112.92 1818.5,-161 1818.5,-161 1818.5,-161 1818.5,-595 1818.5,-699.22 1746.82,-807.62 1710.74,-855.58"/>
<polygon fill="black" stroke="black" points="1704.44,-863.82 1706.94,-853.14 1707.48,-859.84 1710.52,-855.87 1710.52,-855.87 1710.52,-855.87 1707.48,-859.84 1714.09,-858.6 1704.44,-863.82 1704.44,-863.82"/>
</g>
<!-- ragger.conftest.configuration -->
<g id="node15" class="node">
<title>ragger.conftest.configuration</title>
<polygon fill="#bbcc33" stroke="#bbcc33" points="2585.5,-36 2361.5,-36 2361.5,0 2585.5,0 2585.5,-36"/>
<text text-anchor="middle" x="2473.5" y="-14.3" font-family="Times,serif" font-size="14.00">ragger.conftest.configuration</text>
</g>
<!-- ragger.firmware.structs -->
<g id="node18" class="node">
<title>ragger.firmware.structs</title>
<polygon fill="#aaaa00" stroke="#aaaa00" points="390,-900 203,-900 203,-864 390,-864 390,-900"/>
<text text-anchor="middle" x="296.5" y="-878.3" font-family="Times,serif" font-size="14.00">ragger.firmware.structs</text>
</g>
<!-- ragger.firmware&#45;&gt;ragger.firmware.structs -->
<g id="edge39" class="edge">
<title>ragger.firmware&#45;&gt;ragger.firmware.structs</title>
<path fill="none" stroke="black" d="M316.83,-828.3C313.79,-836.19 310.12,-845.7 306.74,-854.45"/>
<polygon fill="black" stroke="black" points="303.1,-863.9 302.5,-852.95 304.9,-859.23 306.7,-854.57 306.7,-854.57 306.7,-854.57 304.9,-859.23 310.89,-856.19 303.1,-863.9 303.1,-863.9"/>
</g>
<!-- ragger.firmware.touch -->
<g id="node19" class="node">
<title>ragger.firmware.touch</title>
<polygon fill="#aaaa00" stroke="#aaaa00" points="996.5,-252 820.5,-252 820.5,-216 996.5,-216 996.5,-252"/>
<text text-anchor="middle" x="908.5" y="-230.3" font-family="Times,serif" font-size="14.00">ragger.firmware.touch</text>
</g>
<!-- ragger.firmware.touch.screen -->
<g id="node23" class="node">
<title>ragger.firmware.touch.screen</title>
<polygon fill="#aaaa00" stroke="#aaaa00" points="984.5,-324 756.5,-324 756.5,-288 984.5,-288 984.5,-324"/>
<text text-anchor="middle" x="870.5" y="-302.3" font-family="Times,serif" font-size="14.00">ragger.firmware.touch.screen</text>
</g>
<!-- ragger.firmware.touch&#45;&gt;ragger.firmware.touch.screen -->
<g id="edge40" class="edge">
<title>ragger.firmware.touch&#45;&gt;ragger.firmware.touch.screen</title>
<path fill="none" stroke="black" d="M899.11,-252.3C894.74,-260.36 889.44,-270.11 884.6,-279.02"/>
<polygon fill="black" stroke="black" points="879.79,-287.9 880.6,-276.96 882.17,-283.5 884.56,-279.11 884.56,-279.11 884.56,-279.11 882.17,-283.5 888.51,-281.25 879.79,-287.9 879.79,-287.9"/>
</g>
<!-- ragger.firmware.touch.element -->
<g id="node20" class="node">
<title>ragger.firmware.touch.element</title>
<polygon fill="#aaaa00" stroke="#aaaa00" points="753,-468 514,-468 514,-432 753,-432 753,-468"/>
<text text-anchor="middle" x="633.5" y="-446.3" font-family="Times,serif" font-size="14.00">ragger.firmware.touch.element</text>
</g>
<!-- ragger.firmware.touch.element&#45;&gt;ragger.backend -->
<g id="edge41" class="edge">
<title>ragger.firmware.touch.element&#45;&gt;ragger.backend</title>
<path fill="none" stroke="black" d="M753.13,-465.59C868,-479.6 1037.87,-500.31 1134.05,-512.04"/>
<polygon fill="black" stroke="black" points="1143.98,-513.25 1133.51,-516.51 1139.02,-512.65 1134.05,-512.04 1134.05,-512.04 1134.05,-512.04 1139.02,-512.65 1134.6,-507.58 1143.98,-513.25 1143.98,-513.25"/>
</g>
<!-- ragger.firmware.touch.positions -->
<g id="node22" class="node">
<title>ragger.firmware.touch.positions</title>
<polygon fill="#aaaa00" stroke="#aaaa00" points="756,-540 511,-540 511,-504 756,-504 756,-540"/>
<text text-anchor="middle" x="633.5" y="-518.3" font-family="Times,serif" font-size="14.00">ragger.firmware.touch.positions</text>
</g>
<!-- ragger.firmware.touch.element&#45;&gt;ragger.firmware.touch.positions -->
<g id="edge42" class="edge">
<title>ragger.firmware.touch.element&#45;&gt;ragger.firmware.touch.positions</title>
<path fill="none" stroke="black" d="M633.5,-468.3C633.5,-476.02 633.5,-485.29 633.5,-493.89"/>
<polygon fill="black" stroke="black" points="633.5,-503.9 629,-493.9 633.5,-498.9 633.5,-493.9 633.5,-493.9 633.5,-493.9 633.5,-498.9 638,-493.9 633.5,-503.9 633.5,-503.9"/>
</g>
<!-- ragger.firmware.touch.layouts -->
<g id="node21" class="node">
<title>ragger.firmware.touch.layouts</title>
<polygon fill="#aaaa00" stroke="#aaaa00" points="727,-396 494,-396 494,-360 727,-360 727,-396"/>
<text text-anchor="middle" x="610.5" y="-374.3" font-family="Times,serif" font-size="14.00">ragger.firmware.touch.layouts</text>
</g>
<!-- ragger.firmware.touch.layouts&#45;&gt;ragger.firmware.touch.element -->
<g id="edge43" class="edge">
<title>ragger.firmware.touch.layouts&#45;&gt;ragger.firmware.touch.element</title>
<path fill="none" stroke="black" d="M616.19,-396.3C618.75,-404.1 621.83,-413.49 624.68,-422.17"/>
<polygon fill="black" stroke="black" points="627.88,-431.9 620.48,-423.8 626.32,-427.15 624.76,-422.4 624.76,-422.4 624.76,-422.4 626.32,-427.15 629.03,-420.99 627.88,-431.9 627.88,-431.9"/>
</g>
<!-- ragger.firmware.touch.screen&#45;&gt;ragger.backend -->
<g id="edge44" class="edge">
<title>ragger.firmware.touch.screen&#45;&gt;ragger.backend</title>
<path fill="none" stroke="black" d="M943.84,-324.06C965.52,-332.04 987.88,-343.54 1004.5,-360 1041.34,-396.46 1010.68,-432.56 1048.5,-468 1071.77,-489.81 1104.27,-502.65 1133.82,-510.22"/>
<polygon fill="black" stroke="black" points="1143.71,-512.59 1132.93,-514.64 1138.84,-511.42 1133.98,-510.26 1133.98,-510.26 1133.98,-510.26 1138.84,-511.42 1135.03,-505.88 1143.71,-512.59 1143.71,-512.59"/>
</g>
<!-- ragger.firmware.touch.screen&#45;&gt;ragger.firmware.touch.element -->
<g id="edge45" class="edge">
<title>ragger.firmware.touch.screen&#45;&gt;ragger.firmware.touch.element</title>
<path fill="none" stroke="black" d="M756.18,-306.73C655.36,-309.22 519.23,-320.17 484.5,-360 457.59,-390.86 501.23,-414.03 548.11,-428.99"/>
<polygon fill="black" stroke="black" points="557.82,-431.96 546.94,-433.34 553.04,-430.5 548.26,-429.03 548.26,-429.03 548.26,-429.03 553.04,-430.5 549.57,-424.73 557.82,-431.96 557.82,-431.96"/>
</g>
<!-- ragger.firmware.touch.screen&#45;&gt;ragger.firmware.touch.layouts -->
<g id="edge46" class="edge">
<title>ragger.firmware.touch.screen&#45;&gt;ragger.firmware.touch.layouts</title>
<path fill="none" stroke="black" d="M807.23,-324.03C769.95,-334.07 722.64,-346.81 683.75,-357.28"/>
<polygon fill="black" stroke="black" points="674.05,-359.89 682.54,-352.94 678.88,-358.59 683.71,-357.29 683.71,-357.29 683.71,-357.29 678.88,-358.59 684.88,-361.63 674.05,-359.89 674.05,-359.89"/>
</g>
<!-- ragger.firmware.touch.use_cases -->
<g id="node24" class="node">
<title>ragger.firmware.touch.use_cases</title>
<polygon fill="#aaaa00" stroke="#aaaa00" points="996,-396 745,-396 745,-360 996,-360 996,-396"/>
<text text-anchor="middle" x="870.5" y="-374.3" font-family="Times,serif" font-size="14.00">ragger.firmware.touch.use_cases</text>
</g>
<!-- ragger.firmware.touch.screen&#45;&gt;ragger.firmware.touch.use_cases -->
<g id="edge47" class="edge">
<title>ragger.firmware.touch.screen&#45;&gt;ragger.firmware.touch.use_cases</title>
<path fill="none" stroke="black" d="M870.5,-324.3C870.5,-332.02 870.5,-341.29 870.5,-349.89"/>
<polygon fill="black" stroke="black" points="870.5,-359.9 866,-349.9 870.5,-354.9 870.5,-349.9 870.5,-349.9 870.5,-349.9 870.5,-354.9 875,-349.9 870.5,-359.9 870.5,-359.9"/>
</g>
<!-- ragger.firmware.touch.use_cases&#45;&gt;ragger.firmware.touch.element -->
<g id="edge48" class="edge">
<title>ragger.firmware.touch.use_cases&#45;&gt;ragger.firmware.touch.element</title>
<path fill="none" stroke="black" d="M812.83,-396.03C779.14,-405.99 736.45,-418.59 701.17,-429.01"/>
<polygon fill="black" stroke="black" points="691.43,-431.89 699.75,-424.74 696.23,-430.47 701.02,-429.06 701.02,-429.06 701.02,-429.06 696.23,-430.47 702.3,-433.37 691.43,-431.89 691.43,-431.89"/>
</g>
<!-- ragger.gui.process -->
<g id="node27" class="node">
<title>ragger.gui.process</title>
<polygon fill="#eedd88" stroke="#eedd88" points="632,-828 483,-828 483,-792 632,-792 632,-828"/>
<text text-anchor="middle" x="557.5" y="-806.3" font-family="Times,serif" font-size="14.00">ragger.gui.process</text>
</g>
<!-- ragger.gui&#45;&gt;ragger.gui.process -->
<g id="edge49" class="edge">
<title>ragger.gui&#45;&gt;ragger.gui.process</title>
<path fill="none" stroke="black" d="M1096.22,-748.07C1081.37,-750.85 1064.77,-753.77 1049.5,-756 907.26,-776.77 740.76,-793.03 642.49,-801.81"/>
<polygon fill="black" stroke="black" points="632.32,-802.71 641.88,-797.34 637.3,-802.27 642.28,-801.82 642.28,-801.82 642.28,-801.82 637.3,-802.27 642.68,-806.31 632.32,-802.71 632.32,-802.71"/>
</g>
<!-- ragger.gui.interface -->
<g id="node26" class="node">
<title>ragger.gui.interface</title>
<polygon fill="#eedd88" stroke="#eedd88" points="641.5,-900 483.5,-900 483.5,-864 641.5,-864 641.5,-900"/>
<text text-anchor="middle" x="562.5" y="-878.3" font-family="Times,serif" font-size="14.00">ragger.gui.interface</text>
</g>
<!-- ragger.gui.interface&#45;&gt;ragger.logger -->
<g id="edge50" class="edge">
<title>ragger.gui.interface&#45;&gt;ragger.logger</title>
<path fill="none" stroke="black" d="M536.32,-900.12C522.46,-909.19 505.26,-920.45 490.29,-930.24"/>
<polygon fill="black" stroke="black" points="481.78,-935.81 487.68,-926.57 485.96,-933.07 490.14,-930.34 490.14,-930.34 490.14,-930.34 485.96,-933.07 492.61,-934.1 481.78,-935.81 481.78,-935.81"/>
</g>
<!-- ragger.gui.process&#45;&gt;ragger.gui.interface -->
<g id="edge51" class="edge">
<title>ragger.gui.process&#45;&gt;ragger.gui.interface</title>
<path fill="none" stroke="black" d="M558.74,-828.3C559.29,-836.02 559.95,-845.29 560.56,-853.89"/>
<polygon fill="black" stroke="black" points="561.28,-863.9 556.08,-854.24 560.92,-858.91 560.57,-853.92 560.57,-853.92 560.57,-853.92 560.92,-858.91 565.05,-853.6 561.28,-863.9 561.28,-863.9"/>
</g>
<!-- ragger.gui.process&#45;&gt;ragger.logger -->
<g id="edge52" class="edge">
<title>ragger.gui.process&#45;&gt;ragger.logger</title>
<path fill="none" stroke="black" d="M608.61,-828.16C624.93,-836.33 641.16,-847.93 650.5,-864 658.54,-877.83 660.22,-887.29 650.5,-900 634.8,-920.53 572.57,-934.99 522.58,-943.56"/>
<polygon fill="black" stroke="black" points="512.44,-945.25 521.56,-939.17 517.37,-944.43 522.3,-943.6 522.3,-943.6 522.3,-943.6 517.37,-944.43 523.04,-948.04 512.44,-945.25 512.44,-945.25"/>
</g>
<!-- ragger.gui.process&#45;&gt;ragger.navigator.instruction -->
<g id="edge53" class="edge">
<title>ragger.gui.process&#45;&gt;ragger.navigator.instruction</title>
<path fill="none" stroke="black" d="M618.09,-828.03C653.64,-838.03 698.72,-850.7 735.88,-861.15"/>
<polygon fill="black" stroke="black" points="745.63,-863.89 734.79,-865.51 740.82,-862.54 736.01,-861.18 736.01,-861.18 736.01,-861.18 740.82,-862.54 737.23,-856.85 745.63,-863.89 745.63,-863.89"/>
</g>
<!-- ragger.navigator&#45;&gt;ragger.navigator.instruction -->
<g id="edge54" class="edge">
<title>ragger.navigator&#45;&gt;ragger.navigator.instruction</title>
<path fill="none" stroke="black" d="M1299.12,-93.71C1076.92,-103.43 389.5,-140.94 389.5,-233 389.5,-233 389.5,-233 389.5,-379 389.5,-569.51 452.49,-627.89 593.5,-756 612.98,-773.69 620.71,-774.66 640.5,-792 657.52,-806.91 657.65,-815.48 676.5,-828 696.31,-841.16 719.9,-851.98 741.51,-860.34"/>
<polygon fill="black" stroke="black" points="750.96,-863.89 740.02,-864.59 746.28,-862.13 741.6,-860.38 741.6,-860.38 741.6,-860.38 746.28,-862.13 743.18,-856.16 750.96,-863.89 750.96,-863.89"/>
</g>
<!-- ragger.navigator.nano_navigator -->
<g id="node31" class="node">
<title>ragger.navigator.nano_navigator</title>
<polygon fill="#ee8866" stroke="#ee8866" points="1714.5,-396 1466.5,-396 1466.5,-360 1714.5,-360 1714.5,-396"/>
<text text-anchor="middle" x="1590.5" y="-374.3" font-family="Times,serif" font-size="14.00">ragger.navigator.nano_navigator</text>
</g>
<!-- ragger.navigator&#45;&gt;ragger.navigator.nano_navigator -->
<g id="edge55" class="edge">
<title>ragger.navigator&#45;&gt;ragger.navigator.nano_navigator</title>
<path fill="none" stroke="black" d="M1402.89,-108.04C1419.3,-117.13 1438.28,-129.45 1452.5,-144 1514.65,-207.59 1560.29,-304.39 1579.89,-350.62"/>
<polygon fill="black" stroke="black" points="1583.78,-359.95 1575.78,-352.45 1581.86,-355.34 1579.93,-350.72 1579.93,-350.72 1579.93,-350.72 1581.86,-355.34 1584.09,-348.99 1583.78,-359.95 1583.78,-359.95"/>
</g>
<!-- ragger.navigator.navigation_scenario -->
<g id="node32" class="node">
<title>ragger.navigator.navigation_scenario</title>
<polygon fill="#ee8866" stroke="#ee8866" points="1372,-396 1091,-396 1091,-360 1372,-360 1372,-396"/>
<text text-anchor="middle" x="1231.5" y="-374.3" font-family="Times,serif" font-size="14.00">ragger.navigator.navigation_scenario</text>
</g>
<!-- ragger.navigator&#45;&gt;ragger.navigator.navigation_scenario -->
<g id="edge56" class="edge">
<title>ragger.navigator&#45;&gt;ragger.navigator.navigation_scenario</title>
<path fill="none" stroke="black" d="M1359.4,-108.03C1336.59,-156.01 1271.68,-292.5 1244.12,-350.46"/>
<polygon fill="black" stroke="black" points="1239.73,-359.69 1239.96,-348.73 1241.88,-355.18 1244.02,-350.66 1244.02,-350.66 1244.02,-350.66 1241.88,-355.18 1248.09,-352.6 1239.73,-359.69 1239.73,-359.69"/>
</g>
<!-- ragger.navigator.navigator -->
<g id="node33" class="node">
<title>ragger.navigator.navigator</title>
<polygon fill="#ee8866" stroke="#ee8866" points="1542,-468 1335,-468 1335,-432 1542,-432 1542,-468"/>
<text text-anchor="middle" x="1438.5" y="-446.3" font-family="Times,serif" font-size="14.00">ragger.navigator.navigator</text>
</g>
<!-- ragger.navigator&#45;&gt;ragger.navigator.navigator -->
<g id="edge57" class="edge">
<title>ragger.navigator&#45;&gt;ragger.navigator.navigator</title>
<path fill="none" stroke="black" d="M1382.91,-108.42C1403.79,-133.9 1438.5,-183.66 1438.5,-233 1438.5,-233 1438.5,-233 1438.5,-307 1438.5,-347 1438.5,-393.35 1438.5,-421.92"/>
<polygon fill="black" stroke="black" points="1438.5,-431.95 1434,-421.95 1438.5,-426.95 1438.5,-421.95 1438.5,-421.95 1438.5,-421.95 1438.5,-426.95 1443,-421.95 1438.5,-431.95 1438.5,-431.95"/>
</g>
<!-- ragger.navigator.touch_navigator -->
<g id="node34" class="node">
<title>ragger.navigator.touch_navigator</title>
<polygon fill="#ee8866" stroke="#ee8866" points="1189.5,-180 935.5,-180 935.5,-144 1189.5,-144 1189.5,-180"/>
<text text-anchor="middle" x="1062.5" y="-158.3" font-family="Times,serif" font-size="14.00">ragger.navigator.touch_navigator</text>
</g>
<!-- ragger.navigator&#45;&gt;ragger.navigator.touch_navigator -->
<g id="edge58" class="edge">
<title>ragger.navigator&#45;&gt;ragger.navigator.touch_navigator</title>
<path fill="none" stroke="black" d="M1299.43,-106.62C1254.26,-116.99 1194.66,-130.67 1146.54,-141.71"/>
<polygon fill="black" stroke="black" points="1136.77,-143.96 1145.51,-137.33 1141.64,-142.84 1146.51,-141.72 1146.51,-141.72 1146.51,-141.72 1141.64,-142.84 1147.52,-146.1 1136.77,-143.96 1136.77,-143.96"/>
</g>
<!-- ragger.navigator.nano_navigator&#45;&gt;ragger.backend -->
<g id="edge59" class="edge">
<title>ragger.navigator.nano_navigator&#45;&gt;ragger.backend</title>
<path fill="none" stroke="black" d="M1587.82,-396.12C1583.65,-416.64 1573.55,-450.45 1550.5,-468 1509.35,-499.34 1369.1,-512.48 1281.2,-517.74"/>
<polygon fill="black" stroke="black" points="1271.01,-518.33 1280.73,-513.26 1276,-518.04 1280.99,-517.75 1280.99,-517.75 1280.99,-517.75 1276,-518.04 1281.25,-522.24 1271.01,-518.33 1271.01,-518.33"/>
</g>
<!-- ragger.navigator.nano_navigator&#45;&gt;ragger.navigator.navigator -->
<g id="edge60" class="edge">
<title>ragger.navigator.nano_navigator&#45;&gt;ragger.navigator.navigator</title>
<path fill="none" stroke="black" d="M1553.32,-396.12C1532.63,-405.65 1506.7,-417.59 1484.72,-427.72"/>
<polygon fill="black" stroke="black" points="1475.56,-431.93 1482.76,-423.66 1480.1,-429.84 1484.65,-427.75 1484.65,-427.75 1484.65,-427.75 1480.1,-429.84 1486.53,-431.84 1475.56,-431.93 1475.56,-431.93"/>
</g>
<!-- ragger.navigator.navigation_scenario&#45;&gt;ragger.backend -->
<g id="edge61" class="edge">
<title>ragger.navigator.navigation_scenario&#45;&gt;ragger.backend</title>
<path fill="none" stroke="black" d="M1228.61,-396.13C1224.51,-420.33 1217,-464.79 1212.13,-493.61"/>
<polygon fill="black" stroke="black" points="1210.41,-503.81 1207.63,-493.2 1211.24,-498.88 1212.07,-493.95 1212.07,-493.95 1212.07,-493.95 1211.24,-498.88 1216.51,-494.7 1210.41,-503.81 1210.41,-503.81"/>
</g>
<!-- ragger.navigator.navigation_scenario&#45;&gt;ragger.backend.interface -->
<g id="edge62" class="edge">
<title>ragger.navigator.navigation_scenario&#45;&gt;ragger.backend.interface</title>
<path fill="none" stroke="black" d="M1185.71,-396.03C1115.28,-424.16 979.52,-486.28 893.5,-576 858.28,-612.73 830.47,-639.7 855.5,-684 862.84,-696.99 874.79,-707.16 887.54,-714.95"/>
<polygon fill="black" stroke="black" points="896.46,-719.97 885.54,-718.98 892.1,-717.52 887.75,-715.06 887.75,-715.06 887.75,-715.06 892.1,-717.52 889.95,-711.14 896.46,-719.97 896.46,-719.97"/>
</g>
<!-- ragger.navigator.navigation_scenario&#45;&gt;ragger.navigator.navigator -->
<g id="edge63" class="edge">
<title>ragger.navigator.navigation_scenario&#45;&gt;ragger.navigator.navigator</title>
<path fill="none" stroke="black" d="M1281.87,-396.03C1310.92,-405.86 1347.63,-418.27 1378.21,-428.61"/>
<polygon fill="black" stroke="black" points="1387.9,-431.89 1376.99,-432.95 1383.16,-430.29 1378.43,-428.69 1378.43,-428.69 1378.43,-428.69 1383.16,-430.29 1379.87,-424.42 1387.9,-431.89 1387.9,-431.89"/>
</g>
<!-- ragger.navigator.navigator&#45;&gt;ragger.backend -->
<g id="edge64" class="edge">
<title>ragger.navigator.navigator&#45;&gt;ragger.backend</title>
<path fill="none" stroke="black" d="M1382.29,-468.03C1349.59,-477.94 1308.2,-490.49 1273.9,-500.88"/>
<polygon fill="black" stroke="black" points="1263.97,-503.89 1272.23,-496.68 1268.75,-502.44 1273.54,-500.99 1273.54,-500.99 1273.54,-500.99 1268.75,-502.44 1274.84,-505.3 1263.97,-503.89 1263.97,-503.89"/>
</g>
<!-- ragger.navigator.navigator&#45;&gt;ragger.navigator.instruction -->
<g id="edge65" class="edge">
<title>ragger.navigator.navigator&#45;&gt;ragger.navigator.instruction</title>
<path fill="none" stroke="black" d="M1477.92,-468.16C1536.26,-496.06 1643.16,-557.41 1684.5,-648 1725.92,-738.76 1600.11,-807.32 1558.5,-828 1503.38,-855.39 1123.25,-871.14 925.5,-877.57"/>
<polygon fill="black" stroke="black" points="915.35,-877.9 925.2,-873.08 920.35,-877.74 925.35,-877.58 925.35,-877.58 925.35,-877.58 920.35,-877.74 925.49,-882.08 915.35,-877.9 915.35,-877.9"/>
</g>
<!-- ragger.navigator.navigator&#45;&gt;ragger.utils -->
<g id="edge66" class="edge">
<title>ragger.navigator.navigator&#45;&gt;ragger.utils</title>
<path fill="none" stroke="black" d="M1477.92,-468.16C1536.26,-496.06 1643.16,-557.41 1684.5,-648 1691.14,-662.56 1692.11,-669.93 1684.5,-684 1670.61,-709.7 1653.75,-703.7 1629.5,-720 1596.63,-742.09 1559.44,-767.83 1533.46,-785.93"/>
<polygon fill="black" stroke="black" points="1525.11,-791.76 1530.74,-782.35 1529.21,-788.9 1533.31,-786.04 1533.31,-786.04 1533.31,-786.04 1529.21,-788.9 1535.88,-789.73 1525.11,-791.76 1525.11,-791.76"/>
</g>
<!-- ragger.navigator.touch_navigator&#45;&gt;ragger.backend -->
<g id="edge67" class="edge">
<title>ragger.navigator.touch_navigator&#45;&gt;ragger.backend</title>
<path fill="none" stroke="black" d="M1062.5,-180.05C1062.5,-206.71 1062.5,-259.89 1062.5,-305 1062.5,-305 1062.5,-305 1062.5,-379 1062.5,-434.8 1118,-475.91 1160.33,-499.15"/>
<polygon fill="black" stroke="black" points="1169.4,-503.97 1158.46,-503.25 1164.99,-501.62 1160.57,-499.28 1160.57,-499.28 1160.57,-499.28 1164.99,-501.62 1162.68,-495.3 1169.4,-503.97 1169.4,-503.97"/>
</g>
<!-- ragger.navigator.touch_navigator&#45;&gt;ragger.firmware.touch -->
<g id="edge68" class="edge">
<title>ragger.navigator.touch_navigator&#45;&gt;ragger.firmware.touch</title>
<path fill="none" stroke="black" d="M1024.83,-180.12C1003.87,-189.65 977.6,-201.59 955.32,-211.72"/>
<polygon fill="black" stroke="black" points="946.05,-215.93 953.29,-207.7 950.6,-213.86 955.15,-211.79 955.15,-211.79 955.15,-211.79 950.6,-213.86 957.02,-215.89 946.05,-215.93 946.05,-215.93"/>
</g>
<!-- ragger.navigator.touch_navigator&#45;&gt;ragger.navigator.instruction -->
<g id="edge69" class="edge">
<title>ragger.navigator.touch_navigator&#45;&gt;ragger.navigator.instruction</title>
<path fill="none" stroke="black" d="M968.25,-180.05C816.19,-209.76 528.11,-275.96 472.5,-360 346.08,-551.05 661.96,-785.29 771.05,-858.23"/>
<polygon fill="black" stroke="black" points="779.45,-863.79 768.63,-862.02 775.28,-861.03 771.11,-858.27 771.11,-858.27 771.11,-858.27 775.28,-861.03 773.6,-854.52 779.45,-863.79 779.45,-863.79"/>
</g>
<!-- ragger.navigator.touch_navigator&#45;&gt;ragger.navigator.navigator -->
<g id="edge70" class="edge">
<title>ragger.navigator.touch_navigator&#45;&gt;ragger.navigator.navigator</title>
<path fill="none" stroke="black" d="M1101.19,-180.08C1165.04,-209.66 1294,-275.46 1380.5,-360 1399.23,-378.31 1415.03,-403.69 1425.38,-422.66"/>
<polygon fill="black" stroke="black" points="1430.15,-431.67 1421.5,-424.94 1427.81,-427.25 1425.47,-422.83 1425.47,-422.83 1425.47,-422.83 1427.81,-427.25 1429.45,-420.73 1430.15,-431.67 1430.15,-431.67"/>
</g>
<!-- ragger.pki -->
<g id="node35" class="node">
<title>ragger.pki</title>
<polygon fill="#ffaabb" stroke="#ffaabb" points="2693,-36 2604,-36 2604,0 2693,0 2693,-36"/>
<text text-anchor="middle" x="2648.5" y="-14.3" font-family="Times,serif" font-size="14.00">ragger.pki</text>
</g>
<!-- ragger.pki.signing_partner -->
<g id="node36" class="node">
<title>ragger.pki.signing_partner</title>
<polygon fill="#ffaabb" stroke="#ffaabb" points="2752,-108 2545,-108 2545,-72 2752,-72 2752,-108"/>
<text text-anchor="middle" x="2648.5" y="-86.3" font-family="Times,serif" font-size="14.00">ragger.pki.signing_partner</text>
</g>
<!-- ragger.pki&#45;&gt;ragger.pki.signing_partner -->
<g id="edge71" class="edge">
<title>ragger.pki&#45;&gt;ragger.pki.signing_partner</title>
<path fill="none" stroke="black" d="M2648.5,-36.3C2648.5,-44.02 2648.5,-53.29 2648.5,-61.89"/>
<polygon fill="black" stroke="black" points="2648.5,-71.9 2644,-61.9 2648.5,-66.9 2648.5,-61.9 2648.5,-61.9 2648.5,-61.9 2648.5,-66.9 2653,-61.9 2648.5,-71.9 2648.5,-71.9"/>
</g>
<!-- ragger.utils&#45;&gt;ragger.utils.misc -->
<g id="edge72" class="edge">
<title>ragger.utils&#45;&gt;ragger.utils.misc</title>
<path fill="none" stroke="black" d="M1550.15,-819.87C1616.63,-831.74 1735.3,-852.93 1813.97,-866.98"/>
<polygon fill="black" stroke="black" points="1823.84,-868.74 1813.2,-871.41 1818.92,-867.86 1813.99,-866.98 1813.99,-866.98 1813.99,-866.98 1818.92,-867.86 1814.79,-862.55 1823.84,-868.74 1823.84,-868.74"/>
</g>
<!-- ragger.utils.packing -->
<g id="node39" class="node">
<title>ragger.utils.packing</title>
<polygon fill="#dddddd" stroke="#dddddd" points="1595,-900 1436,-900 1436,-864 1595,-864 1595,-900"/>
<text text-anchor="middle" x="1515.5" y="-878.3" font-family="Times,serif" font-size="14.00">ragger.utils.packing</text>
</g>
<!-- ragger.utils&#45;&gt;ragger.utils.packing -->
<g id="edge73" class="edge">
<title>ragger.utils&#45;&gt;ragger.utils.packing</title>
<path fill="none" stroke="black" d="M1504.21,-828.3C1505.86,-836.02 1507.85,-845.29 1509.69,-853.89"/>
<polygon fill="black" stroke="black" points="1511.83,-863.9 1505.34,-855.06 1510.79,-859.01 1509.74,-854.12 1509.74,-854.12 1509.74,-854.12 1510.79,-859.01 1514.14,-853.17 1511.83,-863.9 1511.83,-863.9"/>
</g>
<!-- ragger.utils&#45;&gt;ragger.utils.structs -->
<g id="edge74" class="edge">
<title>ragger.utils&#45;&gt;ragger.utils.structs</title>
<path fill="none" stroke="black" d="M1546.98,-828.12C1573.42,-837.86 1606.7,-850.13 1634.56,-860.39"/>
<polygon fill="black" stroke="black" points="1644.17,-863.93 1633.23,-864.7 1639.48,-862.2 1634.79,-860.47 1634.79,-860.47 1634.79,-860.47 1639.48,-862.2 1636.34,-856.25 1644.17,-863.93 1644.17,-863.93"/>
</g>
<!-- ragger.utils.misc&#45;&gt;ragger.error -->
<g id="edge75" class="edge">
<title>ragger.utils.misc&#45;&gt;ragger.error</title>
<path fill="none" stroke="black" d="M1823.73,-897.48C1818.92,-898.37 1814.14,-899.22 1809.5,-900 1690.21,-920.07 1549.88,-937.13 1470.85,-946.14"/>
<polygon fill="black" stroke="black" points="1460.58,-947.31 1470.01,-941.71 1465.55,-946.74 1470.52,-946.18 1470.52,-946.18 1470.52,-946.18 1465.55,-946.74 1471.03,-950.65 1460.58,-947.31 1460.58,-947.31"/>
</g>
</g>
</svg>
